<svg xmlns="http://www.w3.org/2000/svg" width="319.74" height="351.053" viewBox="0 0 319.74 351.053"><defs><style>.a{fill:#3182ce;}.b{opacity:0.1;}.c{fill:#fff;}.d{fill:#3f3d56;}.e{fill:#2f2e41;}.f{fill:#ccc;}</style></defs><g transform="translate(0 0.001)"><path class="a" d="M574.422,152.747a475.147,475.147,0,0,0-73.691-5.425,484.885,484.885,0,0,0-67.977,4.555c0-.319.009-.637.024-.956a70.838,70.838,0,0,1,141.635.865C574.417,152.11,574.422,152.429,574.422,152.747Z" transform="translate(-352.398 -81.527)"/><g class="b" transform="translate(80.142 -0.001)"><path class="c" d="M512.642,81.44a70.861,70.861,0,0,0-80.315,68.095c-.014.319-.019.637-.024.956,6.162-.884,12.544-1.642,19.1-2.275A70.849,70.849,0,0,1,512.642,81.44Z" transform="translate(-432.303 -80.802)"/></g><path class="d" d="M516.747,229.192a285.32,285.32,0,0,0-31-6.58,448.5,448.5,0,0,0-51.7-4.968c-7.212-.295-14.558-.447-21.984-.447-5.886,0-11.724.1-17.482.285a462.734,462.734,0,0,0-50.471,4.265,296.81,296.81,0,0,0-36.727,7.445c-28.15,7.783-43.654,18.214-43.654,29.367s15.5,21.584,43.654,29.367c19.8,5.477,44.205,9.209,70.8,10.921,10.977.713,22.326,1.074,33.879,1.074,11.591,0,22.977-.366,33.988-1.079,24.2-1.564,46.6-4.8,65.338-9.509.1-.029.2-.052.295-.076,1.265-.314,2.51-.642,3.742-.97.442-.124.879-.242,1.317-.361a.466.466,0,0,1,.076-.024c.419-.114.832-.233,1.246-.347.827-.238,1.645-.471,2.448-.713l.1-.028c.7-.209,1.383-.418,2.063-.628.556-.176,1.108-.347,1.654-.523q.6-.192,1.184-.385c.285-.1.566-.185.841-.281.376-.124.751-.252,1.122-.38.157-.052.314-.1.466-.162.357-.119.7-.242,1.051-.366.375-.133.751-.271,1.122-.4.309-.109.618-.223.922-.337.257-.1.509-.195.766-.29.7-.261,1.384-.533,2.059-.8.338-.138.675-.271,1.008-.409s.661-.271.984-.409q.8-.335,1.569-.67c.247-.114.5-.223.742-.328l.552-.252c.133-.057.266-.119.395-.181.48-.219.955-.442,1.421-.666q2.681-1.284,5.006-2.624c9.723-5.567,14.852-11.743,14.852-18.161C560.4,247.406,544.9,236.975,516.747,229.192Zm-.257,57.821c-19.821,5.482-44.3,9.214-70.962,10.911-10.845.689-22.055,1.046-33.461,1.046-11.368,0-22.54-.352-33.351-1.041-26.71-1.693-51.223-5.425-71.072-10.916-27.7-7.664-42.96-17.767-42.96-28.454a11.465,11.465,0,0,1,.352-2.8c2.424-9.642,17.339-18.665,42.608-25.654a296.578,296.578,0,0,1,36.446-7.4,464.036,464.036,0,0,1,50.776-4.279q8.5-.278,17.2-.276c7.326,0,14.572.147,21.694.433a447.572,447.572,0,0,1,52,4.992A284.725,284.725,0,0,1,516.49,230.1c25.264,6.989,40.174,16.008,42.6,25.645a11.33,11.33,0,0,1,.357,2.81C559.45,269.247,544.193,279.35,516.49,287.013Z" transform="translate(-263.734 -152.352)"/><path class="d" d="M560.88,300.585c0,6.352-5.235,12.361-14.582,17.729-1.554.894-3.228,1.769-5.006,2.624-.466.223-.941.447-1.421.666-.128.062-.262.124-.395.181l-.552.252c-.242.1-.495.214-.742.328q-.77.335-1.569.67c-.323.138-.656.276-.984.409s-.67.271-1.008.409c-.675.266-1.36.537-2.059.8-.257.1-.509.19-.766.29-.3.114-.613.228-.922.337-.371.133-.746.271-1.122.4-.347.124-.694.247-1.051.366-.152.057-.309.109-.466.162-.371.128-.746.257-1.122.38-.276.1-.556.185-.842.28q-.585.192-1.184.385c-.547.176-1.1.347-1.654.523-.68.209-1.365.418-2.063.628l-.1.029c-.8.242-1.621.475-2.448.713-.414.114-.827.233-1.246.347a.466.466,0,0,0-.076.024c-.438.119-.875.238-1.317.361-1.227.323-2.477.651-3.742.97-.1.024-.195.047-.295.076-18.233,4.555-40.6,7.873-65.357,9.475-10.845.7-22.15,1.07-33.765,1.07-11.719,0-23.12-.376-34.05-1.089-65.248-4.255-113.808-20.458-113.808-39.8a11.92,11.92,0,0,1,.532-3.471c.029.081.057.157.091.238,6.784,17.819,54.931,32.22,117.4,35.733,9.57.542,19.483.822,29.629.822,10.189,0,20.139-.285,29.747-.827,62.419-3.528,110.518-17.933,117.278-35.738q.171-.428.3-.856a12.03,12.03,0,0,1,.737,4.1Z" transform="translate(-264.484 -193.945)"/><path class="d" d="M337.4,283.624c-7.913,0-16.322-1.7-16.322-4.857s8.409-4.857,16.322-4.857,16.322,1.7,16.322,4.857S345.307,283.624,337.4,283.624Zm0-8.764c-9.058,0-15.371,2.059-15.371,3.907s6.313,3.906,15.371,3.906,15.371-2.059,15.371-3.906-6.313-3.907-15.371-3.907Z" transform="translate(-293.813 -182.102)"/><path class="d" d="M408.394,330.624c-7.912,0-16.322-1.7-16.322-4.857s8.409-4.857,16.322-4.857,16.322,1.7,16.322,4.857S416.307,330.624,408.394,330.624Zm0-8.764c-9.058,0-15.371,2.059-15.371,3.906s6.313,3.906,15.371,3.906,15.371-2.059,15.371-3.906-6.313-3.907-15.371-3.907Z" transform="translate(-331.057 -206.757)"/><path class="d" d="M777.394,283.624c-7.912,0-16.322-1.7-16.322-4.857s8.409-4.857,16.322-4.857,16.322,1.7,16.322,4.857S785.307,283.624,777.394,283.624Zm0-8.764c-9.058,0-15.371,2.059-15.371,3.907s6.313,3.906,15.371,3.906,15.371-2.059,15.371-3.906-6.313-3.907-15.371-3.907Z" transform="translate(-524.624 -182.102)"/><path class="d" d="M706.394,330.624c-7.912,0-16.322-1.7-16.322-4.857s8.409-4.857,16.322-4.857,16.322,1.7,16.322,4.857S714.307,330.624,706.394,330.624Zm0-8.764c-9.058,0-15.371,2.059-15.371,3.906s6.313,3.906,15.371,3.906,15.371-2.059,15.371-3.906-6.313-3.907-15.371-3.907Z" transform="translate(-487.38 -206.757)"/><path class="d" d="M557.394,352.624c-7.912,0-16.322-1.7-16.322-4.857s8.409-4.857,16.322-4.857,16.322,1.7,16.322,4.857S565.307,352.624,557.394,352.624Zm0-8.764c-9.058,0-15.371,2.059-15.371,3.907s6.313,3.906,15.371,3.906,15.371-2.059,15.371-3.906-6.313-3.907-15.371-3.907Z" transform="translate(-409.218 -218.297)"/><circle class="e" cx="19.974" cy="19.974" r="19.974" transform="translate(140.235 194.303)"/><rect class="e" width="10.872" height="6.068" transform="translate(142.892 232.27) rotate(-26.601)"/><ellipse class="e" cx="1.896" cy="5.057" rx="1.896" ry="5.057" transform="translate(137.403 233.158) rotate(-56.601)"/><rect class="e" width="6.068" height="10.872" transform="translate(165.086 232.823) rotate(-63.399)"/><ellipse class="e" cx="5.057" cy="1.896" rx="5.057" ry="1.896" transform="translate(172.481 235.56) rotate(-33.399)"/><circle class="c" cx="6.826" cy="6.826" r="6.826" transform="translate(151.984 202.565)"/><ellipse class="d" cx="2.266" cy="2.282" rx="2.266" ry="2.282" transform="translate(155.643 206.457) rotate(-45)"/><path class="a" d="M601.229,470.351c.3-7.395-6.073-13.658-14.235-13.989s-15.022,5.394-15.322,12.789,5.373,9.075,13.535,9.406S600.929,477.746,601.229,470.351Z" transform="translate(-425.264 -277.804)"/><ellipse class="e" cx="3.135" cy="9.987" rx="3.135" ry="9.987" transform="translate(172.089 211.624) rotate(-40.645)"/><ellipse class="e" cx="9.987" cy="3.135" rx="9.987" ry="3.135" transform="translate(130.615 222.692) rotate(-49.355)"/><path class="c" d="M602.3,545.446a4.551,4.551,0,1,1-8.955,1.63l0-.009c-.448-2.473,1.464-3.349,3.938-3.8S601.849,542.973,602.3,545.446Z" transform="translate(-436.602 -323.298)"/><path class="f" d="M528.685,512.2a.951.951,0,0,1-.951-.951v-56.1a.951.951,0,1,1,1.9,0v56.1a.951.951,0,0,1-.951.951Z" transform="translate(-402.221 -276.676)"/><path class="f" d="M498.685,634.985a.951.951,0,0,1-.951-.951V593.148a.951.951,0,1,1,1.9,0v40.887A.951.951,0,0,1,498.685,634.985Z" transform="translate(-386.484 -349.067)"/><path class="f" d="M575.685,547.2a.951.951,0,0,1-.951-.951v-56.1a.951.951,0,1,1,1.9,0v56.1A.951.951,0,0,1,575.685,547.2Z" transform="translate(-426.876 -295.036)"/><path class="f" d="M546.685,668.919a.951.951,0,0,1-.951-.951v-22.82a.951.951,0,1,1,1.9,0v22.82a.951.951,0,0,1-.951.951Z" transform="translate(-411.664 -376.345)"/><path class="f" d="M587.685,422.919a.951.951,0,0,1-.951-.951V399.148a.951.951,0,1,1,1.9,0v22.821A.951.951,0,0,1,587.685,422.919Z" transform="translate(-433.171 -247.3)"/><path class="f" d="M487.685,443.919a.951.951,0,0,1-.951-.951V420.148a.951.951,0,0,1,1.9,0v22.821a.951.951,0,0,1-.951.951Z" transform="translate(-380.714 -258.316)"/><path class="f" d="M661.685,448.919a.951.951,0,0,1-.951-.951v-22.82a.951.951,0,0,1,1.9,0v22.82A.951.951,0,0,1,661.685,448.919Z" transform="translate(-471.989 -260.939)"/><path class="f" d="M657.685,593.674a.951.951,0,0,1-.951-.951V565.148a.951.951,0,0,1,1.9,0v27.575A.951.951,0,0,1,657.685,593.674Z" transform="translate(-469.891 -334.379)"/><path class="f" d="M617.685,629.985a.951.951,0,0,1-.951-.951V588.148a.951.951,0,0,1,1.9,0v40.887a.951.951,0,0,1-.951.951Z" transform="translate(-448.908 -346.444)"/><path class="f" d="M625.685,466.2a.951.951,0,0,1-.951-.951v-56.1a.951.951,0,1,1,1.9,0v56.1A.951.951,0,0,1,625.685,466.2Z" transform="translate(-453.105 -252.545)"/><ellipse class="e" cx="3.214" cy="10.238" rx="3.214" ry="10.238" transform="translate(273.544 319.399) rotate(-39.938)"/><circle class="e" cx="20.475" cy="20.475" r="20.475" transform="matrix(0.316, -0.949, 0.949, 0.316, 234.901, 334.579)"/><rect class="e" width="6.22" height="11.145" transform="translate(263.247 337.697)"/><rect class="e" width="6.22" height="11.145" transform="translate(250.807 337.697)"/><ellipse class="e" cx="5.184" cy="1.944" rx="5.184" ry="1.944" transform="translate(259.101 347.027)"/><ellipse class="e" cx="5.184" cy="1.944" rx="5.184" ry="1.944" transform="translate(246.66 346.768)"/><path class="f" d="M798.454,691.944c1.828-7.363,9.9-11.7,18.026-9.678s13.233,9.623,11.4,16.986-7.894,7.387-16.021,5.369S796.626,699.307,798.454,691.944Z" transform="translate(-544.082 -396.055)"/><ellipse class="e" cx="3.214" cy="10.238" rx="3.214" ry="10.238" transform="translate(227.113 310.643) rotate(-64.626)"/><circle class="c" cx="6.826" cy="6.826" r="6.826" transform="translate(250.914 310.48)"/><circle class="d" cx="2.276" cy="2.276" r="2.276" transform="translate(252.659 312.584)"/><circle class="c" cx="2.853" cy="2.853" r="2.853" transform="translate(254.829 328.707)"/><path class="d" d="M810.942,818.148h-112.2a.475.475,0,0,1,0-.951h112.2a.475.475,0,0,1,0,.951Z" transform="translate(-491.678 -467.096)"/></g></svg>