<svg xmlns="http://www.w3.org/2000/svg" width="280" height="168.356" viewBox="0 0 280 168.356"><defs><style>.a{fill:#e6e8ec;}.b{fill:#3f3d56;}.c{fill:#3182ce;}.d{fill:#2f2e41;}.e{fill:#ffb8b8;}.f{fill:#d0cde1;}.g{fill:#fff;}</style></defs><g transform="translate(0 0)"><rect class="a" width="148.383" height="106.768" transform="translate(103.305 28.671)"/><path class="b" d="M645.972,293.137H468.937V159.421H645.974Zm-176.354-.682H645.29V160.1H469.619Z" transform="translate(-365.973 -157.357)"/><circle class="b" cx="3.411" cy="3.411" r="3.411" transform="translate(108.08 6.158)"/><circle class="b" cx="3.411" cy="3.411" r="3.411" transform="translate(117.631 6.158)"/><circle class="b" cx="3.411" cy="3.411" r="3.411" transform="translate(127.183 6.158)"/><rect class="b" width="72.794" height="0.818" transform="translate(141.099 45.356)"/><rect class="b" width="72.794" height="0.818" transform="translate(141.099 51.081)"/><rect class="b" width="72.794" height="0.818" transform="translate(141.099 56.806)"/><rect class="b" width="72.794" height="0.818" transform="translate(141.099 68.551)"/><rect class="b" width="72.794" height="0.818" transform="translate(141.099 74.277)"/><rect class="b" width="72.794" height="0.818" transform="translate(141.099 80.002)"/><path class="c" d="M686.417,521.5A18.079,18.079,0,1,1,704.5,503.418,18.079,18.079,0,0,1,686.417,521.5Zm0-35.476a17.4,17.4,0,1,0,17.4,17.4A17.4,17.4,0,0,0,686.417,486.021Z" transform="translate(-509.026 -391.175)"/><path class="c" d="M614.091,374H605.9v-8.187H604.54V374h-8.187v1.364h8.187v8.187H605.9v-8.187h8.186Z" transform="translate(-427.832 -262.441)"/><path class="d" d="M202.665,584.925s-7.163,7.846-8.187,25.924-1.364,20.126-1.364,20.126H218.7l4.775-12.28,5.458,12.28H253.15s2.729-37.522,0-38.546S202.665,584.925,202.665,584.925Z" transform="translate(-168.094 -462.619)"/><circle class="e" cx="12.28" cy="12.28" r="12.28" transform="translate(56.573 5.475)"/><path class="e" d="M302.934,217.966,300.546,239.8l16.714,2.047s.682-19.1,1.023-19.784S302.934,217.966,302.934,217.966Z" transform="translate(-245.168 -199.358)"/><path class="e" d="M443.875,382.132l7.163,13.986S460.59,410.1,462.977,421.7s4.776,17.056,4.776,17.056,12.28,17.738,5.458,20.808S460.59,439.78,460.59,439.78l-18.761-34.111-10.915-17.738Z" transform="translate(-338.694 -317.133)"/><path class="e" d="M141.876,394.2l-2.388,10.233-22.513,29.677S98.9,447.757,106.4,450.827s16.714-12.28,16.714-12.28l27.971-24.56L149.722,394.2Z" transform="translate(-104.577 -325.793)"/><path class="f" d="M242.709,277.125s10.13,4.247,17.686-.947c0,0,18.472,2.993,19.5,4.017s-1.023,31.723-1.023,31.723l-4.093,17.4s5.8,26.607-2.729,33.429l1.706,9.21s-37.863,2.729-52.872-6.481l2.729-9.21,7.163-28.995-4.435-40.251S229.746,277.807,242.709,277.125Z" transform="translate(-188.012 -241.12)"/><path class="f" d="M393.729,292.36,402.6,291s4.434.682,8.528,9.21,8.528,19.784,8.528,19.784l-15.35,6.822-12.621-19.784Z" transform="translate(-310.55 -251.75)"/><path class="f" d="M235.309,308.5l-2.047,1.706s-2.729,9.892-2.729,16.715v9.21l12.28,1.364Z" transform="translate(-194.939 -264.307)"/><path class="d" d="M300.356,173.2a6.017,6.017,0,0,1-1.5-4.059,12.862,12.862,0,0,0-.244-3.836,37.872,37.872,0,0,1,1.294-5.834c.771-2.141.121-2.886,3.437-4.055s1.205-5.4,10.982-2.027a2.675,2.675,0,0,0,2.909.6c1.8-.661,2.893,1.819,2.893,1.819s1.126-.924,1.758.037,3.687-1.229,4.808,5.758-2.726,13.217-2.726,13.217-.54-11.18-6.889-11.383-13.53-2.608-14.42,2.1A34.363,34.363,0,0,1,300.356,173.2Z" transform="translate(-243.78 -152.116)"/><rect class="b" width="128.258" height="46.05" transform="translate(2.677 99.281)"/><path class="c" d="M232.519,563.234l-.042.008c-.337.062-.676.115-1.02.153-.116.014-.235.024-.351.034s-.235.02-.355.027c-.194.014-.392.02-.59.024-.085,0-.174,0-.259,0h-.051c-.106,0-.211,0-.317,0l-.273-.01c-.051,0-.1,0-.15-.007a14.327,14.327,0,1,1,7.955-26.7,14.326,14.326,0,0,0,0,24.792A14.255,14.255,0,0,1,232.519,563.234Z" transform="translate(-184.193 -426.681)"/><path class="c" d="M301.636,560.369a13.981,13.981,0,0,0,1.733,1.184,14.252,14.252,0,0,1-7.163,1.931h-.184a14.327,14.327,0,1,1,7.348-26.722,14.3,14.3,0,0,0-1.733,23.608Z" transform="translate(-231.76 -426.68)"/><path class="c" d="M376.88,549.157a14.327,14.327,0,1,1-14.327-14.327,14.327,14.327,0,0,1,14.327,14.327Z" transform="translate(-279.374 -426.681)"/><path class="g" d="M390,585.525a9.6,9.6,0,0,1-.194,1.93,14.354,14.354,0,0,1-11.209,0,9.6,9.6,0,0,1-.194-1.93c0-3.37,1.716-6.219,4.08-7.17a4.434,4.434,0,1,1,3.438,0C388.286,579.306,390,582.154,390,585.525Z" transform="translate(-301.024 -451.792)"/><path class="g" d="M322.4,585.483v.044a14.649,14.649,0,0,1-.341,2.388,13.36,13.36,0,0,1-5.274.682h-.184a14.271,14.271,0,0,1-5.6-1.139,1.489,1.489,0,0,1-.031-.177,9.173,9.173,0,0,1-.164-1.753c0-3.37,1.716-6.218,4.08-7.17a4.434,4.434,0,0,1,1.719-8.521,4.29,4.29,0,0,1,1.03.123A14.311,14.311,0,0,0,322.4,585.483Z" transform="translate(-252.528 -451.794)"/><path class="g" d="M257.214,585.725a9.2,9.2,0,0,1-.188,1.733,14.273,14.273,0,0,1-4,1.051c-.116.014-.235.024-.351.034s-.235.021-.355.027c-.194.014-.392.02-.59.024-.041,0-.085,0-.126,0h-.184c-.106,0-.211,0-.317,0l-.273-.01c-.051,0-.1,0-.15-.007a14.2,14.2,0,0,1-4.864-1.119.057.057,0,0,1,0-.024,1.1,1.1,0,0,1-.027-.154,9.174,9.174,0,0,1-.164-1.753c0-3.37,1.716-6.218,4.08-7.17a4.434,4.434,0,0,1,1.719-8.521,4.329,4.329,0,0,1,.733.061A14.312,14.312,0,0,0,257.214,585.725Z" transform="translate(-205.765 -451.794)"/></g></svg>