<svg xmlns="http://www.w3.org/2000/svg" width="320" height="208.148" viewBox="0 0 320 208.148"><defs><style>.a{fill:#3182ce;}.b{fill:#f2f2f2;}.c{fill:#cfcce0;}.d{fill:#3f3d56;}.e,.j{opacity:0.2;}.f{fill:#fff;}.g{fill:#ffb8b8;}.h{fill:#575a89;}.i{fill:#2f2e41;}</style></defs><g transform="translate(0 0)"><path class="a" d="M278.951,657.956H185s-1.9-27.93,9.363-28.248,10,12.378,24.121-5.078,31.263-16.5,33.484-6.189-4.285,18.567,7.617,16.028S288.631,638.6,278.951,657.956Z" transform="translate(-171.019 -450.267)"/><path class="b" d="M313.572,657.661l-.317-.013c.74-18.389,4.591-30.2,7.691-36.878,3.367-7.246,6.611-10.179,6.643-10.208l.211.237c-.032.028-3.238,2.933-6.578,10.13C318.139,627.575,314.309,639.341,313.572,657.661Z" transform="translate(-254.2 -449.965)"/><path class="b" d="M410.181,706.337l-.3-.089a49.236,49.236,0,0,1,12.4-20.623l.213.235A48.9,48.9,0,0,0,410.181,706.337Z" transform="translate(-316.807 -498.603)"/><path class="b" d="M211.928,693.525l-.314-.044a34.568,34.568,0,0,0-3.109-20.2,27.822,27.822,0,0,0-4.907-7.16l.22-.229a28.164,28.164,0,0,1,4.972,7.249A34.888,34.888,0,0,1,211.928,693.525Z" transform="translate(-183.145 -485.813)"/><path class="c" d="M272.924,637.2H156.094l-.027-.4c-.067-.984-1.558-24.207,5.967-32.493a8.241,8.241,0,0,1,6.022-2.89c4.9-.14,7.987,1.7,10.473,3.172,4.686,2.78,7.781,4.616,19.036-9.294,12.193-15.07,25.348-18.312,32.911-16.51,4.886,1.165,8.254,4.458,9.24,9.034a40.088,40.088,0,0,1,.4,11.676c-.256,3.5-.457,6.265.98,7.518,1.2,1.045,3.6,1.14,7.538.3,8.019-1.711,19.209-.247,24.825,7.01,3.022,3.9,5.4,11-.416,22.638Zm-116.033-.849H272.4c4.336-8.8,4.471-16.228.388-21.5-5.152-6.657-15.962-8.409-23.977-6.7-4.283.914-6.836.763-8.273-.49-1.758-1.532-1.542-4.483-1.269-8.22a39.384,39.384,0,0,0-.38-11.436,10.918,10.918,0,0,0-8.607-8.387c-7.321-1.747-20.109,1.455-32.054,16.217-11.716,14.481-15.246,12.388-20.13,9.491-2.517-1.493-5.374-3.186-10.016-3.054a7.423,7.423,0,0,0-5.418,2.612C155.9,612.328,156.726,633.21,156.892,636.35Z" transform="translate(-152.242 -429.085)"/><path class="b" d="M753.68,496.076l-33.989-5.91c6.075-12.6,8.851-25.05,6.479-37.265l33.989,5.91A75.514,75.514,0,0,0,753.68,496.076Z" transform="translate(-517.556 -347.806)"/><rect class="d" width="17.873" height="0.831" transform="translate(215.63 113.278) rotate(9.864)"/><rect class="d" width="17.873" height="0.831" transform="translate(215.061 116.554) rotate(9.864)"/><rect class="d" width="17.873" height="0.831" transform="translate(214.491 119.83) rotate(9.864)"/><rect class="d" width="17.873" height="0.831" transform="translate(213.921 123.106) rotate(9.864)"/><rect class="d" width="17.873" height="0.831" transform="translate(213.352 126.382) rotate(9.864)"/><rect class="d" width="17.873" height="0.831" transform="translate(212.782 129.658) rotate(9.864)"/><rect class="d" width="17.873" height="0.831" transform="translate(212.212 132.934) rotate(9.864)"/><rect class="d" width="17.873" height="0.831" transform="translate(211.643 136.21) rotate(9.864)"/><path class="b" d="M796.68,530.076l-33.989-5.91c6.075-12.6,8.851-25.05,6.479-37.265l33.989,5.91A75.515,75.515,0,0,0,796.68,530.076Z" transform="translate(-545.418 -369.837)"/><rect class="d" width="17.873" height="0.831" transform="translate(230.768 125.247) rotate(9.864)"/><rect class="d" width="17.873" height="0.831" transform="translate(230.198 128.523) rotate(9.864)"/><rect class="d" width="17.873" height="0.831" transform="translate(229.628 131.799) rotate(9.864)"/><rect class="d" width="17.873" height="0.831" transform="translate(229.059 135.075) rotate(9.864)"/><rect class="d" width="17.873" height="0.831" transform="translate(228.489 138.351) rotate(9.864)"/><rect class="d" width="17.873" height="0.831" transform="translate(227.919 141.627) rotate(9.864)"/><rect class="d" width="17.873" height="0.831" transform="translate(227.35 144.903) rotate(9.864)"/><rect class="d" width="17.873" height="0.831" transform="translate(226.78 148.179) rotate(9.864)"/><path class="d" d="M768.619,591.234H707.993l-.012-.34-2.895-82.79h66.438Zm-59.946-.7h59.266l2.858-81.722H705.815Z" transform="translate(-508.092 -383.575)"/><path class="d" d="M626.481,440.609H572.495l-2.6-74.231h59.178Z" transform="translate(-369.274 -237.4)"/><g class="e" transform="translate(209.751 139.867)"><rect class="f" width="4.611" height="57.064"/><rect class="f" width="4.611" height="57.064" transform="translate(18.157)"/><rect class="f" width="4.611" height="57.064" transform="translate(36.313)"/></g><rect class="d" width="11.528" height="88.766" transform="matrix(0.534, -0.845, 0.845, 0.534, 225.081, 102.008)"/><path class="d" d="M892.357,445.685a13.539,13.539,0,0,0-20.636,13.4l3.589,2.269a10.682,10.682,0,1,1,10.2,6.45l3.589,2.269a13.539,13.539,0,0,0,3.256-24.39Z" transform="translate(-615.973 -341.77)"/><rect class="d" width="320" height="0.704" transform="translate(0 207.173)"/><path class="g" d="M617.7,402.865s13.729,10.209,8.1,11.969-12.673-5.985-12.321-8.1S617.7,402.865,617.7,402.865Z" transform="translate(-448.724 -315.384)"/><path class="h" d="M444.056,211.5l14.081,13.025-5.633,5.985L443,223.469Z" transform="translate(-287.048 -137.044)"/><path class="a" d="M627.572,424.914,598.54,406.278c10.489-9.256,17.879-19.652,20.433-31.83L648,393.084a75.518,75.518,0,0,0-20.433,31.83Z" transform="translate(-439.054 -296.971)"/><rect class="d" width="17.873" height="0.831" transform="translate(183.209 87.739) rotate(32.698)"/><rect class="d" width="17.873" height="0.831" transform="translate(181.413 90.538) rotate(32.698)"/><rect class="d" width="17.873" height="0.831" transform="translate(179.616 93.336) rotate(32.698)"/><rect class="d" width="17.873" height="0.831" transform="translate(177.82 96.134) rotate(32.698)"/><rect class="d" width="17.873" height="0.831" transform="translate(176.024 98.932) rotate(32.698)"/><rect class="d" width="17.873" height="0.831" transform="translate(174.227 101.731) rotate(32.698)"/><rect class="d" width="17.873" height="0.831" transform="translate(172.431 104.529) rotate(32.698)"/><rect class="d" width="17.873" height="0.831" transform="translate(170.635 107.327) rotate(32.698)"/><path class="g" d="M293.33,490.416l-5.343,11.241,14.947,3.577-.416-10.837Z" transform="translate(-186.605 -317.772)"/><path class="g" d="M455,530.26l1.76,12.321,14.434-5.281-6.337-8.8Z" transform="translate(-294.824 -342.449)"/><path class="i" d="M465.584,358.271s-2.212,14.163-1.61,20.9-1.771,35.154-1.771,35.154-10.615,11.546-13.024,24.733a110.072,110.072,0,0,1-7.558,24.134l12.507,4.071,24.786-46.925s17.775-38.9,16.008-42.608-4.536-18.638-4.536-18.638Z" transform="translate(-337.375 -286.489)"/><path class="i" d="M426.364,660.468s-.015-6.346-2.254-3.607-9.549,8.029-5.244,11.729,29.445,23.753,30.8,17.892c.751-3.254-11.788-25.219-11.788-25.219s-4.187.262-4.477,1.337S426.364,660.468,426.364,660.468Z" transform="translate(-321.768 -479.52)"/><path class="g" d="M406.5,40.5,397,51.413,406.5,61.27l8.8-13.377Z" transform="translate(-257.242 -26.242)"/><path class="g" d="M580.494,179.368a9.508,9.508,0,1,1-.172-1.8A9.509,9.509,0,0,1,580.494,179.368Z" transform="translate(-415.037 -164.406)"/><path class="i" d="M562.09,174.378c3.3-1.533,7.186-1.337,10.665-.276a11.51,11.51,0,0,1,5.3,3.042,5.81,5.81,0,0,1,1.374,5.725l-2.877-2.176-.264,1.918c-1.9-2.962-5.505-4.249-8.85-5.341-1.046-.341-2.435-.575-3.038.346-.254.388-.283.894-.554,1.271-.507.706-1.566.644-2.342,1.036a4.1,4.1,0,0,0-1.558,1.829c-.392.713-.218,1.712-.928,2.111-2.846,1.6-1.168-4.557-.7-5.633A6.2,6.2,0,0,1,562.09,174.378Z" transform="translate(-412.399 -166.612)"/><path class="i" d="M493,391.39s5.985,13.025,10.209,18.306,17.954,30.275,17.954,30.275-2.464,15.49,2.816,27.811a110.082,110.082,0,0,1,7.041,24.29l12.673-3.52-5.28-52.805S531.724,393.5,528.2,391.39s-14.081-13.025-14.081-13.025Z" transform="translate(-370.668 -299.509)"/><path class="h" d="M517.967,230.029s-5.985-15.842-14.081-10.913-14.433,48.933-14.433,48.933-7.393,20.066,0,22.178,13.377,4.928,14.433,1.056.352-10.561,2.112-7.041,1.056,7.745,4.576,7.745,17.25-1.76,16.9-4.224S517.967,230.029,517.967,230.029Z" transform="translate(-366.24 -195.705)"/><path class="g" d="M490.559,428.623s-4.576,13.729,1.76,13.729,5.421-13.861,5.421-13.861Z" transform="translate(-368.05 -331.989)"/><path class="i" d="M599.155,700.372s-3.52-5.281-3.872-1.76-3.521,11.969,2.112,12.673,37.668,3.52,35.555-2.112c-1.173-3.127-23.762-14.5-23.762-14.5s-3.344,2.533-2.992,3.589S599.155,700.372,599.155,700.372Z" transform="translate(-436.163 -504.464)"/><path class="h" d="M586.347,171.615s-1.669,1.433-3.834-1.4a13.745,13.745,0,0,1-1.447-2.471,9.667,9.667,0,0,0-6.534-2.806q-.248-.011-.507-.011c-4.576,0-5.633-3.168-5.633-3.168L561,164.222s1.056-9.857,11.265-9.857,10.561,8.449,10.561,8.449S590.923,165.982,586.347,171.615Z" transform="translate(-414.729 -154.365)"/><path class="j" d="M607.421,188.069a13.742,13.742,0,0,1-1.447-2.471,9.667,9.667,0,0,0-6.534-2.806c2.573-.806,7.047-1.743,9,.693C610.233,185.728,608.741,187.256,607.421,188.069Z" transform="translate(-439.637 -172.22)"/><path class="h" d="M501.214,228.585s-9.5-1.76-11.969,6.689-7.745,33.443-7.745,33.443l3.168,25.7-.352,6.337h10.209v-6.689c0-.7,1.408-28.163,1.408-28.163l11.617-26.4S510.015,231.049,501.214,228.585Z" transform="translate(-363.216 -202.358)"/><path class="j" d="M386.493,116l-11.617,22.882-1.425,32.784,3.89-33.136Z" transform="translate(-241.983 -75.164)"/><path class="j" d="M450.525,215.686l2.638,13.521-1.319-12.3Z" transform="translate(-291.924 -139.757)"/><path class="j" d="M365.5,305.5l15.138,21.474-1.584,3.168Z" transform="translate(-236.831 -197.953)"/></g></svg>