<svg xmlns="http://www.w3.org/2000/svg" width="320" height="192.7" viewBox="0 0 320 192.7"><defs><style>.a{fill:#f2f2f2;}.b{fill:#3f3d56;}.c{opacity:0.1;}.d{fill:none;stroke:#3f3d56;stroke-miterlimit:10;}.e{fill:#3182ce;}.f{fill:#46455b;}.g{fill:#a8a8a8;}.h{opacity:0.2;}.i{fill:#a0616a;}.j{fill:#605d82;}.k{fill:#535070;}.l{fill:#fff;}.m{fill:#57b894;}</style></defs><g transform="translate(0 -0.018)"><path class="a" d="M698.714,254.878l2.744-.474c.263-.046.524-.1.788-.15a22.525,22.525,0,0,1,14.382-41.522l-3.6,8.558,8.521-7.44a.385.385,0,0,1,.059.019A22.526,22.526,0,0,1,735.373,242.6c-.143.406-.312.793-.476,1.185a26.919,26.919,0,0,0,6.6-4.417c3.81-3.651,5.9-8.689,8.23-14.9,4.622-12.3,9.071-24.777,13.343-37.282a22.516,22.516,0,0,1-10.526-27.267c.229-.65.494-1.276.775-1.891.071-.154.141-.307.215-.458.285-.59.587-1.167.918-1.722.054-.091.115-.176.17-.266q.432-.7.911-1.361c.119-.165.238-.33.361-.491.362-.474.737-.934,1.133-1.374.132-.147.273-.285.408-.428q.455-.481.936-.933c.169-.159.336-.318.51-.471.044-.039.086-.082.13-.121a.045.045,0,0,1,.006.009,22.511,22.511,0,0,1,28.8-.647l-4.68,11.136,8.424-7.352a22.4,22.4,0,0,1,.833,26.529l.024.008c-.093.135-.2.259-.291.392q-.267.374-.546.734c-.239.308-.487.606-.742.9-.191.222-.38.445-.58.659-.291.312-.6.608-.9.9-.18.171-.351.352-.536.517q-.727.649-1.5,1.231c-.181.136-.373.256-.558.386-.363.256-.729.508-1.106.741-.234.145-.474.277-.713.413-.347.2-.694.388-1.05.566-.253.126-.507.246-.763.364-.365.166-.735.321-1.109.468-.251.1-.5.2-.755.288-.42.148-.845.276-1.273.4-.216.062-.429.133-.647.189-.643.164-1.292.3-1.949.41-.125.02-.25.028-.374.046-.545.079-1.093.143-1.645.182-.237.017-.476.019-.714.028-.446.017-.892.026-1.342.017-.262-.006-.523-.019-.786-.034q-.655-.037-1.313-.114c-.259-.03-.518-.06-.776-.1-.47-.071-.938-.164-1.407-.266-.03-.007-.061-.011-.092-.018q-2.705,7.913-5.51,15.793a22.51,22.51,0,0,1,32.641,2.691l-7.787,8.613,10.544-4.209a22.446,22.446,0,0,1,.9,17.148,22.113,22.113,0,0,1-2.861,5.536,22.517,22.517,0,0,1-40.686-9.879c-.2.529-.39,1.065-.588,1.594-2.059,5.476-4.62,12.29-9.763,17.217-3.486,3.339-7.775,5.458-11.89,7.249q-4.02,1.749-8.146,3.235a22.576,22.576,0,0,1-10.081,3.213c-4.341,1.206-8.737,2.212-13.173,2.989l-2.766.477c-2.486.426-5.035.864-7.565,1.37.364.108.729.211,1.091.339a22.533,22.533,0,0,1,15.043,21.922L691,290.01l15.693,2.492a22.536,22.536,0,0,1-37.551,6.664q.238.8.48,1.6c.319,1.057.635,2.109.939,3.15,4.129,14.189,2.352,25.351-5.006,31.428l-3.992-4.833c7.161-5.915,4.939-18.1,2.979-24.844-.3-1.023-.609-2.055-.922-3.094-2.69-8.935-5.739-19.063-1.79-28.37C667.779,260.175,684.932,257.238,698.714,254.878Z" transform="translate(-481.011 -144.859)"/><path class="b" d="M470.767,450.788H349.255a15.025,15.025,0,0,1-15.025-15.024V380.092a5.953,5.953,0,0,1,1.858-4.32l64.39-61.036a13.858,13.858,0,0,1,19.068,0l61.392,58.195a15.559,15.559,0,0,1,4.855,11.291v51.541A15.024,15.024,0,0,1,470.767,450.788Z" transform="translate(-258.148 -258.484)"/><path class="c" d="M240.954,387.992h150.3V448.7a9.072,9.072,0,0,1-9.072,9.073H250.026a9.072,9.072,0,0,1-9.072-9.073Z" transform="translate(-164.872 -265.47)"/><path class="d" d="M333.73,521.351" transform="translate(-257.806 -402.46)"/><rect class="e" width="111.777" height="111.777" rx="26.181" transform="translate(95.817 74.685)"/><path class="c" d="M415.231,395.942v61.43H303.454v-61.43l55.889,27.013Z" transform="translate(-207.637 -270.91)"/><path class="b" d="M409.51,561.719,337.9,527.106a2.905,2.905,0,0,0-4.17,2.616v59.551a9.072,9.072,0,0,0,9.072,9.073H476.219a9.072,9.072,0,0,0,9.072-9.073V530.743a3.545,3.545,0,0,0-5.088-3.192Z" transform="translate(-257.805 -406.2)"/><rect class="a" width="31.26" height="4.421" transform="translate(105.447 84.947)"/><rect class="a" width="92.832" height="2.526" transform="translate(102.921 101.051)"/><rect class="a" width="92.832" height="2.526" transform="translate(102.921 109.576)"/><rect class="a" width="92.832" height="2.526" transform="translate(102.921 118.101)"/><line class="d" x2="260.181" transform="translate(19.247 192.146)"/><path class="f" d="M93.275,630.212c0,18.617,11.679,33.681,26.113,33.681" transform="translate(-93.275 -476.948)"/><path class="e" d="M175.975,663.074c0-18.826,13.033-34.06,29.14-34.06" transform="translate(-149.862 -476.128)"/><path class="e" d="M123.239,635.557c0,17.684,7.448,31.994,16.652,31.994" transform="translate(-113.778 -480.605)"/><path class="f" d="M175.975,642.572c0-24.056,15.065-43.521,33.681-43.521" transform="translate(-149.862 -455.626)"/><path class="g" d="M158.577,733.3s3.7-.114,4.819-.909,5.7-1.744,5.973-.469,5.565,6.339,1.384,6.373-9.714-.652-10.828-1.33S158.577,733.3,158.577,733.3Z" transform="translate(-137.958 -546.115)"/><path class="h" d="M170.829,742.176c-4.181.033-9.714-.652-10.828-1.33-.848-.517-1.186-2.371-1.3-3.226l-.123,0s.234,2.986,1.348,3.665,6.647,1.364,10.828,1.33c1.207-.01,1.624-.439,1.6-1.075C172.187,741.928,171.727,742.168,170.829,742.176Z" transform="translate(-137.958 -550.441)"/><path class="i" d="M808.3,296.168c-.19,1.691-1.479,3.052-1.957,4.685-.719,2.457.525,5.095,2.226,7.009a15.521,15.521,0,0,0,10.809,5.133,4.609,4.609,0,0,0,1.787-.2,3.827,3.827,0,0,0,1.36-.929,8.688,8.688,0,0,0,2.243-4.863,25.868,25.868,0,0,0,.061-5.435,3.084,3.084,0,0,0-.2-1.1,2.807,2.807,0,0,0-.706-.867,16.426,16.426,0,0,0-3.028-2.2,3.48,3.48,0,0,1-1.269-.971,3.153,3.153,0,0,1-.392-1.163l-.335-1.7a3.342,3.342,0,0,0-.491-1.382,3.4,3.4,0,0,0-2.713-.945l-3.632-.142a17.5,17.5,0,0,0-3.722-.147c-1.031.207-.688,1.157-.5,2.021A14.634,14.634,0,0,1,808.3,296.168Z" transform="translate(-581.044 -244.76)"/><path class="c" d="M808.3,296.168c-.19,1.691-1.479,3.052-1.957,4.685-.719,2.457.525,5.095,2.226,7.009a15.521,15.521,0,0,0,10.809,5.133,4.609,4.609,0,0,0,1.787-.2,3.827,3.827,0,0,0,1.36-.929,8.688,8.688,0,0,0,2.243-4.863,25.868,25.868,0,0,0,.061-5.435,3.084,3.084,0,0,0-.2-1.1,2.807,2.807,0,0,0-.706-.867,16.426,16.426,0,0,0-3.028-2.2,3.48,3.48,0,0,1-1.269-.971,3.153,3.153,0,0,1-.392-1.163l-.335-1.7a3.342,3.342,0,0,0-.491-1.382,3.4,3.4,0,0,0-2.713-.945l-3.632-.142a17.5,17.5,0,0,0-3.722-.147c-1.031.207-.688,1.157-.5,2.021A14.634,14.634,0,0,1,808.3,296.168Z" transform="translate(-581.044 -244.76)"/><path class="j" d="M845.221,530.5q-.772,8.465-1.544,16.927c-.4,4.439-.814,8.9-1.6,13.28-.273,1.511-.593,3.013-.973,4.5-1.055,4.136-2.586,8.178-3.08,12.417-.016.122-.029.247-.042.372a10.847,10.847,0,0,1-.527,2.756c-.247.647-.627,1.237-.895,1.876a11.994,11.994,0,0,0-.668,4.079,17.575,17.575,0,0,0-6.054-2.069,4.627,4.627,0,0,1-2.869-1.029c-.775-.847-.689-2.144-.559-3.283q.612-5.3,1.221-10.6a27.665,27.665,0,0,1,.772-4.5c.14-.491.309-.974.481-1.458.237-.666.475-1.331.655-2.015a24.206,24.206,0,0,0,.541-3.356c.418-3.556.923-7.1,1.364-10.658l.024-.187a109.008,109.008,0,0,0,1.021-16.222c-.021-.8-.054-1.606-.107-2.412-.072-1.167-.179-1.786.788-2.516a18.174,18.174,0,0,1,3.7-1.9c.658-.286,7.9-2.857,8.069-2.293a14.1,14.1,0,0,1,.53,3.7A40.987,40.987,0,0,1,845.221,530.5Z" transform="translate(-594.86 -402.996)"/><path class="c" d="M847.62,615.8c-.273,1.51-.593,3.013-.972,4.5-1.055,4.136-2.586,8.178-3.081,12.417-.015.122-.029.247-.042.372-3.229-4.611-5.948-9.571-9.1-14.231.237-.666.476-1.331.655-2.015a24.3,24.3,0,0,0,.541-3.356c.419-3.556.923-7.1,1.365-10.657l.024-.187a11.008,11.008,0,0,0,.787,2.186c2.116,4.3,7.143,6.472,9.6,10.587Q847.515,615.609,847.62,615.8Z" transform="translate(-600.406 -458.085)"/><path class="j" d="M793.216,479.237a80.094,80.094,0,0,0,1.21,10.271l1.136,7.027c.622,3.845,1.269,7.77,3.09,11.214a51.9,51.9,0,0,0,5.1,7.087c4.363,5.683,7.639,12.121,11.776,17.97,1.2,1.7,2.92,3.539,4.972,3.184,1.346-.233,2.325-1.354,3.383-2.219,1.248-1.019,2.752-1.765,3.734-3.043s1.174-3.4-.156-4.31a7,7,0,0,0-1.522-.623c-2.063-.785-3.4-2.8-4.247-4.835s-1.364-4.226-2.5-6.12c-2.459-4.115-7.486-6.288-9.6-10.589-1.185-2.409-1.3-5.185-1.388-7.868l-.231-6.84a5,5,0,0,1,.259-2.21c.809-1.821,3.254-1.99,5.233-2.221a17.9,17.9,0,0,0,6.413-2.023,6.685,6.685,0,0,0,2.863-2.543,8.187,8.187,0,0,0,.7-3.446l.685-12.4a7.747,7.747,0,0,0-.263-3.169c-.944-2.51-4.114-3.331-6.793-3.211-4.986.223-9.588,2.368-14.29,3.816a36.324,36.324,0,0,1-3.542.924,28.484,28.484,0,0,0-3.338.463c-1.79.6-1.745,4.517-2,6.14A51.7,51.7,0,0,0,793.216,479.237Z" transform="translate(-572.199 -359.327)"/><path class="k" d="M875.347,688.6a3.17,3.17,0,0,1,.7,1.707,58.273,58.273,0,0,1,.987,10.323,1.686,1.686,0,0,0,.186.935,1.175,1.175,0,0,0,.486.39c1.27.606,2.745-.239,3.8-1.166,1.963-1.719,3.624-4.027,3.735-6.635a15.561,15.561,0,0,1,.071-2.012,8.411,8.411,0,0,1,1.25-2.7,22.753,22.753,0,0,0,2.067-4.632c.193-.607.321-1.372-.155-1.8a1.736,1.736,0,0,0-.565-.295l-5.74-2.132c-.5-.184-1.735,3-1.932,3.343a2.626,2.626,0,0,1-1.922,1.529c-.984.2-2.156-.087-3.074.4C873.69,686.7,874.468,687.709,875.347,688.6Z" transform="translate(-627.726 -511.413)"/><path class="k" d="M835.287,710.033a1.746,1.746,0,0,0-.437-.553,1.965,1.965,0,0,0-.881-.3c-1.092-.186-2.388-.308-3.142.5-.708.762-.586,2-1.176,2.857-.187.271-.441.494-.6.78a2.944,2.944,0,0,0-.264,1.4c-.03,1.324-.061,2.651.031,3.973a5.56,5.56,0,0,0,.956,3.137c1.112,1.392,3.117,1.593,4.9,1.684l1.441.073a2.82,2.82,0,0,0,1.181-.108,1.944,1.944,0,0,0,1.019-1.121c.75-1.865-.438-3.875-1.171-5.746C836.3,714.457,836.448,712.068,835.287,710.033Z" transform="translate(-596.523 -530.888)"/><path class="b" d="M800.927,255.286a1.192,1.192,0,0,1,.081-.556c.211-.373.763-.272,1.179-.167,1.672.422,3.435.04,5.156.138s3.662.959,4.008,2.649a12.571,12.571,0,0,0,3.179-3.267,3.919,3.919,0,0,0,.829-2.392c-.094-1.237-1.131-2.162-2.093-2.947l-2.865-2.339a4.318,4.318,0,0,0-1.282-.815,6.394,6.394,0,0,0-2.083-.118c-2.086,0-4.309-.948-6.164.006a6.664,6.664,0,0,0-1.92,1.746l-2.556,3.027a1.619,1.619,0,0,0-.409.693,3.068,3.068,0,0,0,.183,1.1c.121.676-.171,1.4.053,2.047.372,1.078,1.681,1.231,2.481,1.849.3.23.766,1.011,1.121,1C800.466,256.93,800.909,255.784,800.927,255.286Z" transform="translate(-574.092 -213.405)"/><circle class="i" cx="8.188" cy="8.188" r="8.188" transform="translate(222.985 34.427)"/><path class="b" d="M788.785,317.38a3.967,3.967,0,0,0-3.862-2.657,1.177,1.177,0,0,1-.712-.09.981.981,0,0,1-.293-.366,14.233,14.233,0,0,1-1.194-2.822c-.131-.434-.31-.945-.748-1.057a1.011,1.011,0,0,0-.953.415,8.4,8.4,0,0,1-.681.856c-1.03.921-2.855.081-3.948.926-.179.138-.326.315-.514.44a2.365,2.365,0,0,1-.6.258,57.707,57.707,0,0,0-6.2,2.428,58.38,58.38,0,0,0,3.176,12.931c.811,1.95,1.73,3.861,2.38,5.87,1.439,4.453,1.5,9.218,1.519,13.9.011,3.2-.005,6.474-1.041,9.505a8.962,8.962,0,0,0-.586,2.088,2.164,2.164,0,0,0,.733,1.946,2.506,2.506,0,0,0,1.131.4,14.65,14.65,0,0,0,5.374-.624c4.738-1.1,9.572-1.725,14.4-2.352l8.084-1.05a4.69,4.69,0,0,0,1.672-.432c1.479-.81,1.62-3.035.7-4.449-.44-.678-1.062-1.234-1.431-1.953a1.814,1.814,0,0,1,.236-2.222c1.3-1.013.909-2.892.971-4.535q.259-6.892-.07-13.79a27.514,27.514,0,0,1-.045-2.86,25.317,25.317,0,0,1,.891-4.773l2.456-9.671a5.039,5.039,0,0,0-3.034-1.949c-1.164-.292-2.376-.378-3.522-.733-2.348-.728-4.438-2.574-6.89-2.4a1.252,1.252,0,0,0-.534.13c-.553.313-.465,1.11-.5,1.745a4.819,4.819,0,0,1-2.252,3.4,39.975,39.975,0,0,0-3.49,2.361A1.558,1.558,0,0,0,788.785,317.38Z" transform="translate(-555.694 -256.845)"/><path class="i" d="M719.3,359.02a9.627,9.627,0,0,1-1.722.886,5.658,5.658,0,0,0-1.65.8,2.583,2.583,0,0,0-.573.709,3.152,3.152,0,0,0,2.906,4.7,6.316,6.316,0,0,0,2.149-.641l5.775-2.5a4.539,4.539,0,0,0,2.5-1.88.439.439,0,0,0,.057-.3.5.5,0,0,0-.238-.249,12.907,12.907,0,0,1-3.362-3.171c-.237-.322-.527-1.081-.862-1.274C723.051,355.392,720.277,358.385,719.3,359.02Z" transform="translate(-518.651 -289.313)"/><path class="i" d="M894.384,359.084l2.13,2.432c.457.522.914,1.045,1.331,1.6a18.667,18.667,0,0,1,2.438,4.594,8.026,8.026,0,0,1,.685,3.8,9.214,9.214,0,0,1-.533,1.931,23.978,23.978,0,0,1-1.446,3.484,19.931,19.931,0,0,1-1.628,2.44,56.994,56.994,0,0,1-5.4,6.173,7.044,7.044,0,0,0-1.35,2.86,11.929,11.929,0,0,1-3.32,4.523,9.179,9.179,0,0,1-1.425,1.226,4.638,4.638,0,0,1-2.594.739,2.847,2.847,0,0,1-1.169-.242,3.021,3.021,0,0,1-1.484-2.516,5.352,5.352,0,0,1,.448-2.691c1.221-2.706,4.359-3.879,6.577-5.854a21.36,21.36,0,0,0,3.276-4.052,13.971,13.971,0,0,0,1.656-2.9c.5-1.322.3-2.886.736-4.229.182-.568.508-1.081.7-1.644a1.919,1.919,0,0,0-.1-1.719,2.5,2.5,0,0,0-.964-.706c-1.417-.719-3-1.645-3.275-3.21a3.444,3.444,0,0,1,.634-2.452A10.192,10.192,0,0,1,892.1,360.8C892.723,360.248,893.764,359.632,894.384,359.084Z" transform="translate(-631.998 -291.43)"/><path class="i" d="M703.121,371.667a3.952,3.952,0,0,0-1.6-1.912,2.957,2.957,0,0,0-2.332-.01,8.771,8.771,0,0,0-2.047,1.238l-1.835,1.353a4.485,4.485,0,0,0-1.089,1.006,4.244,4.244,0,0,0-.568,1.557,11.134,11.134,0,0,0-.288,3.851,10.951,10.951,0,0,0,2.912,5.452,4.848,4.848,0,0,0,3.223,2.02,1.478,1.478,0,0,0,1.425-.717,1.785,1.785,0,0,0,.127-.638A14.231,14.231,0,0,0,699.4,378.2a4.272,4.272,0,0,1-.531-1.791.485.485,0,0,1,.078-.3.508.508,0,0,1,.313-.153c1.318-.261,3.588.763,4.513-.7C704.368,374.306,703.547,372.527,703.121,371.667Z" transform="translate(-503.841 -298.564)"/><path class="b" d="M799.566,247.127a1.185,1.185,0,0,1,.081-.556c.211-.373.763-.272,1.178-.167,1.673.422,3.435.04,5.156.139s3.662.959,4.008,2.649a12.58,12.58,0,0,0,3.179-3.266,3.925,3.925,0,0,0,.829-2.392c-.094-1.237-1.132-2.162-2.093-2.947l-2.865-2.339a4.328,4.328,0,0,0-1.283-.816,6.392,6.392,0,0,0-2.082-.118c-2.086,0-4.309-.948-6.164.006a6.666,6.666,0,0,0-1.92,1.746l-2.557,3.027a1.617,1.617,0,0,0-.409.693,3.079,3.079,0,0,0,.183,1.1c.12.676-.17,1.4.054,2.047.372,1.078,1.681,1.231,2.481,1.849.3.23.766,1.011,1.121,1C799.106,248.77,799.549,247.625,799.566,247.127Z" transform="translate(-573.161 -207.822)"/><path class="b" d="M745.741,334.464a3.332,3.332,0,0,0-.858.8c-.3.454-.361,1.027-.618,1.506-.552,1.026-1.843,1.391-2.648,2.232a.837.837,0,0,0-.254.436.971.971,0,0,0,.216.628l3.883,6.1c1.293.114,2.533-.7,3.826-.588a3.844,3.844,0,0,0,1.441.064,4.152,4.152,0,0,0,.924-.565c.771-.488,1.8-.545,2.447-1.188a3.354,3.354,0,0,0,.693-2.46,9.889,9.889,0,0,0-.231-2.263c-.572-2.343-2.364-4.141-3.487-6.216-.547-1.01-.844-1.6-2-.908S746.836,333.663,745.741,334.464Z" transform="translate(-536.726 -272.721)"/><path class="b" d="M890.114,326.123a9.083,9.083,0,0,1,1.953,1.711c.592.763.927,1.7,1.495,2.476a27.521,27.521,0,0,0,1.925,2.038,15.753,15.753,0,0,1,2.219,3.616,53.993,53.993,0,0,1-5.022,5.677,1.617,1.617,0,0,1-.762.5,1.229,1.229,0,0,1-1.078-.44c-.28-.293-.479-.655-.746-.96a3.836,3.836,0,0,0-2.374-1.148,16.259,16.259,0,0,0-2.69-.037,1.062,1.062,0,0,1-.574-.1.967.967,0,0,1-.314-.36c-1.052-1.789-.713-4.035-.342-6.076l.851-4.684a10.513,10.513,0,0,1,.708-2.6c.323-.689,1.043-1.857,1.93-1.651S889.362,325.583,890.114,326.123Z" transform="translate(-633.944 -267.467)"/><ellipse class="l" cx="12.946" cy="12.969" rx="12.946" ry="12.969" transform="translate(87.449 63.476)"/><path class="m" d="M377.7,338.851a15.472,15.472,0,1,0,15.472,15.472A15.472,15.472,0,0,0,377.7,338.851Zm-3.176,23.721-7.929-7.929,2.224-2.224,5.712,5.712,12.058-12.058,2.224,2.224Z" transform="translate(-277.306 -277.585)"/></g></svg>