<svg xmlns="http://www.w3.org/2000/svg" xmlns:xlink="http://www.w3.org/1999/xlink" width="300" height="208.934" viewBox="0 0 300 208.934"><defs><style>.a,.b{fill:#3182ce;}.b,.e,.g{opacity:0.1;}.c{fill:url(#a);}.d{fill:#444176;}.f{fill:#565387;}.h{fill:#ced2df;}.i{fill:#88455e;}.j{fill:#ec8c9c;}.k{fill:#ebf1f6;}.l{fill:url(#b);}.m{fill:url(#c);}.n{fill:#ffbdc6;}.o{fill:#7679b4;}.p{fill:#a66477;}.q{fill:#f2f1f2;}.r{fill:#565388;}.s{fill:url(#d);}.t{fill:#493545;}.u{opacity:0.05;}.v{fill:#3e3d77;}.w{fill:#c77485;}.x{fill:#ffaac4;}.aa,.y{fill:none;stroke-miterlimit:10;}.y{stroke:#535461;stroke-width:2px;}.z{fill:#dee3f3;opacity:0.5;}.aa{stroke:#3182ce;}.ab{fill:#a8a8a8;}.ac{opacity:0.2;}.ad{fill:#ffd037;}</style><linearGradient id="a" x1="0.5" y1="1" x2="0.5" gradientUnits="objectBoundingBox"><stop offset="0" stop-color="gray" stop-opacity="0.251"/><stop offset="0.54" stop-color="gray" stop-opacity="0.122"/><stop offset="1" stop-color="gray" stop-opacity="0.102"/></linearGradient><linearGradient id="b" x1="0.495" y1="1.014" x2="0.495" y2="0" xlink:href="#a"/><linearGradient id="c" x1="0.5" y1="1" x2="0.5" y2="0" xlink:href="#a"/><linearGradient id="d" x1="0.5" y1="1" x2="0.5" y2="0" xlink:href="#a"/></defs><g transform="translate(0.02 -0.02)"><circle class="a" cx="14.684" cy="14.684" r="14.684" transform="translate(15.349 6.186)"/><path class="b" d="M175.672,170c6.165,13.926-1.7,29.962-10.957,42.036-3.1,4.049-6.519,8.294-6.949,13.373-.518,6.213,3.689,11.923,8.68,15.657a36.547,36.547,0,0,0,32.368,5.474c9.362-2.966,17.233-9.665,26.677-12.366,15.792-4.523,32.533,2.975,46.057,12.318,9.573,6.6,19.826,14.652,31.367,13.237,8.12-.995,15.012-6.7,19.69-13.408,2.258-3.241,4.223-6.873,7.511-9.059a18.8,18.8,0,0,1,6.548-2.483c20.969-4.482,43.224,6.456,63.915.831,13.976-3.79,25.12-14.845,32.049-27.564s10.164-27.081,12.858-41.31c1.914-10.107,3.5-21.026-.9-30.322-4.656-9.842-15.432-15.808-26.263-16.926s-21.692,1.968-31.67,6.32c-12.467,5.452-24.687,13.082-38.294,13.108-9.267.019-18.1-3.538-26.964-6.251-14.813-4.532-30.217-6.784-45.568-8.863-14.7-1.99-29.538-3.841-44.323-2.666-10.461.831-19.7,4.829-29.851,6.68-6.617,1.207-13.266.316-19.76,2.337-8,2.5-16.222,8.3-16.664,17.425C164.816,156.271,172.4,162.614,175.672,170Z" transform="translate(-147.433 -119.24)"/><path class="c" d="M533.11,271.149c-1.349-3.515-4.826-11.778-7.116-10.139-2.893,2.072,2.893,11.225,2.893,11.225.164,1.68-3.089,5.177-4.833,6.92v-.218a.759.759,0,0,1-.076.19l-.145-.079a.949.949,0,0,1-.205.376,3.7,3.7,0,0,0-.016-.376c-.335,1.418-6.178,3.215-6.178,3.215h-.43c-1.623,0-5.85-.366-7.808-3.5a17.327,17.327,0,0,0-3.831-4.469,3.263,3.263,0,0,0-1.816-.689,23.368,23.368,0,0,1-10.666-3.67l-.161-.111-.035.1c-.205-.294-.4-.606-.591-.929h0l-.095-.174a7.934,7.934,0,0,0,4.375-7.056V261.6a5.4,5.4,0,0,0,.726-2.707v-.948l1.235-1.1a5.079,5.079,0,0,0,1.437-1.725,2.042,2.042,0,0,0,.152-.884,1.532,1.532,0,0,0-.581-1.371c-.948-.654-2.527,0-3.212-.91-.316-.411-.259-.97-.414-1.453a2.6,2.6,0,0,0-2.5-1.529,10.821,10.821,0,0,0-3.07.654,18.025,18.025,0,0,1-6.538.613,4.27,4.27,0,0,0-1.791.063,2.467,2.467,0,0,0-1.453,1.69,3.972,3.972,0,0,0-.139.865,5.445,5.445,0,0,0-1.371,3.6V258.9a5.443,5.443,0,0,0,1.311,3.534,7.9,7.9,0,0,0,3.307,5.761v.193l.041.025a13.055,13.055,0,0,1-.347,2.233v-.161a22.83,22.83,0,0,1-9.16,2.41h-.521a3.528,3.528,0,0,0-2.527.947c-1.4,1.32-3.86,3.408-5.369,3.408-.316,0-8.288,1.557-9.608,1.816l-2.467-2.416-.076.142-.145-.142a6.012,6.012,0,0,0-.8.117,19.118,19.118,0,0,1-4.375-9.649s5.455-6.213,3.449-12c-1.712-4.934-6.427,5.641-7.767,8.828a2.546,2.546,0,0,0-.082,1.753l4.431,14.283a6.7,6.7,0,0,0-.351,3.474h-.051l3.228,4.141a17.044,17.044,0,0,0,6.229,1.017,21.774,21.774,0,0,0,8.13-1.56h.749l-.142.054h3.844l2.445,7.394c-.082.673-1.263,10.063-2.211,12.163a5.279,5.279,0,0,0-.373,2.211,16.877,16.877,0,0,0,.7,4.28l2.141-.079-.082.167a111.482,111.482,0,0,0-6.633,16.532l-3.117,6.317,2.337,28.332h.095l.18.028h0c.253.038.632.095,1.131.158l-.183.316-5.152,8.528s-3.673,7.52,4.453,6.1c0,0,3-.872,4.229-6l5.344-5.013s.25-3.329-1.263-4.659c-.095-1.538-.335-6.03.035-7.11.445-1.308-1.9-16.345-1.9-16.345s8.458-17.545,13.582-17.981a2.808,2.808,0,0,1,1.109.145c4.21,1.371,9.311,11.551,10.812,14.719h0l.07.145v.028l.057.123v.035l.051.107v.028l.044.1v.022l.038.079V338l.028.06v.025l.019.044v.054h0l.016.038.666,19.725h0l.066.035h.032l-.057.407-.291,2.037s3.673,7.738,3.449,8.717,2.448,4.905,6.232,3.815,1.532-7.233,1.532-7.233l-3.645-7.511-.161-.335a7.161,7.161,0,0,0,1.023-.761s-1.112-8.064,0-9.807,1.447-9.7,1.447-9.7-.78-5.448-2.116-7.846l-5.6-19.978c1.677,1.56,2.982,2.17,4.071,2.129h.18a2.72,2.72,0,0,0,1.371-.341,3.86,3.86,0,0,0,.632-.445,1,1,0,0,0,.1-.1h0c1.557-1.308-1.781-6.431-3.673-9.475-1.823-2.937.689-10.919.878-11.513a3.015,3.015,0,0,1,.54-.316,3.334,3.334,0,0,1,1.238-.268c1.813.063,4.043,1.105,6.8,1.63a32.1,32.1,0,0,0,5.808.452h.114c.774,0,1.475-.016,2.044-.038a3.452,3.452,0,0,0,1.484-.4h0a4.48,4.48,0,0,0,1.055-.853l4.845-5.474-.126.06a2.724,2.724,0,0,0,0-1.927l5.12-8.844A3.364,3.364,0,0,0,533.11,271.149Z" transform="translate(-343.014 -207.987)"/><path class="d" d="M513.821,613.789l-5.158,4.943c-1.181,5.054-4.084,5.91-4.084,5.91-7.843,1.4-4.3-6-4.3-6l4.975-8.417.613-1.039s3.547-1.074,5.91-.43a2.021,2.021,0,0,1,.805.436C514.064,610.476,513.821,613.789,513.821,613.789Z" transform="translate(-381.247 -453.986)"/><path class="d" d="M625.34,603.966c-3.654,1.074-6.232-2.792-6-3.762S616,591.619,616,591.619l.278-2.009.259-1.86,6,.43.565,1.188,3.518,7.407S628.994,602.892,625.34,603.966Z" transform="translate(-460.963 -439.757)"/><path class="e" d="M525.151,610c-.565.97-5.148.48-7.381.177l.613-1.039s3.547-1.074,5.91-.43a2.022,2.022,0,0,1,.805.436C525.129,609.664,525.151,610,525.151,610Z" transform="translate(-393.759 -453.952)"/><path class="e" d="M623.7,589.347a6.949,6.949,0,0,1-6.838.243l.259-1.86,6,.43Z" transform="translate(-461.552 -439.744)"/><path class="f" d="M549.255,468.742c-1.074,1.718,0,9.671,0,9.671-3.547,3.225-7.735.859-7.735.859l-.632-19.447s-6.983-16.01-11.926-15.581-13.108,17.729-13.108,17.729,2.255,14.826,1.826,16.108,0,7.52,0,7.52c-.752,1.289-8.594,0-8.594,0l-2.255-27.937,2.994-6.235a110.532,110.532,0,0,1,6.4-16.3c.869-1.822,1.45-2.934,1.45-2.934l5.717-1.191,18.556-3.847,6.668,24.27c1.289,2.363,2.041,7.735,2.041,7.735S550.329,467.023,549.255,468.742Z" transform="translate(-386.275 -329.89)"/><g class="g" transform="translate(120.543 97.258)"><path d="M593.5,516.259l-.632-19.447s-6.983-16.01-11.926-15.581a2.689,2.689,0,0,0-.647.145c4.82,1.6,10.856,15.436,10.856,15.436l.632,19.447a7.582,7.582,0,0,0,4.273.78,7.607,7.607,0,0,1-2.555-.78Z" transform="translate(-557.075 -464.135)"/><path d="M510.763,485.584l-2.255-27.937,3.007-6.244a110.533,110.533,0,0,1,6.4-16.3c.869-1.822,1.45-2.934,1.45-2.934l5.717-1.191,16.939-3.522-.092-.338-18.566,3.86-5.717,1.191s-.581,1.112-1.45,2.934a110.383,110.383,0,0,0-6.4,16.3l-3.007,6.232,2.255,27.937a40.358,40.358,0,0,0,6.822.55A50.727,50.727,0,0,1,510.763,485.584Z" transform="translate(-506.79 -427.12)"/></g><path class="h" d="M466.416,338.21s-6.124.316-5.265,6.769l1.718.215,2.577-2.792,1.289-2.363V339.5Z" transform="translate(-354.967 -269.034)"/><path class="e" d="M466.416,338.21s-6.124.316-5.265,6.769l1.718.215,2.577-2.792,1.289-2.363V339.5Z" transform="translate(-354.967 -269.034)"/><path class="h" d="M693.033,345.69s5.054,2.685,3.762,5.8l-1.611.632-2.148-1.181-.316-2.792.215-1.933Z" transform="translate(-513.451 -274.152)"/><path class="e" d="M693.033,345.69s5.054,2.685,3.762,5.8l-1.611.632-2.148-1.181-.316-2.792.215-1.933Z" transform="translate(-513.451 -274.152)"/><rect class="i" width="17.621" height="13.323" rx="6.661" transform="translate(136.174 43.816)"/><path class="j" d="M457.722,290.358l-3.762,6-.316-1.068-5.11-16.652a2.562,2.562,0,0,1,.079-1.728c1.292-3.14,5.846-13.582,7.5-8.7,1.933,5.685-3.332,11.819-3.332,11.819a18.927,18.927,0,0,0,4.495,9.836C457.552,290.191,457.722,290.358,457.722,290.358Z" transform="translate(-346.314 -220.27)"/><path class="j" d="M691.16,307.873s5.909-5.587,5.685-7.842c0,0-5.587-9.024-2.792-11.055,2.211-1.617,5.568,6.532,6.87,10a3.38,3.38,0,0,1-.224,2.843l-7.062,12.5Z" transform="translate(-512.384 -235.207)"/><path class="j" d="M564.515,299.913s1.074,6.876-2.04,9.457,8.92,2.565,8.92,2.565l4.3-3.977s-4.943-4.621-3.44-8.057Z" transform="translate(-423.992 -242.825)"/><path class="e" d="M550.156,323.84a7.533,7.533,0,0,0,9.239-.43l7.52,15.581-.43,19.017s-15.581,8.057-22.027,3.117-1.074-7.52-1.074-7.52l-1.5-14.611,1.611-9.457s2.9-4.513,3.118-4.513S550.156,323.84,550.156,323.84Z" transform="translate(-409.847 -258.909)"/><path class="k" d="M550.162,323.16a7.527,7.527,0,0,0,9.242-.43l7.52,15.581-.43,19.017s-15.581,8.057-22.027,3.117-1.074-7.52-1.074-7.52l-1.5-14.611,1.611-9.457s2.9-4.514,3.117-4.514S550.162,323.16,550.162,323.16Z" transform="translate(-409.854 -258.444)"/><path class="e" d="M495.824,319a19.938,19.938,0,0,1-9.138,2.372,3.367,3.367,0,0,0-2.429.929c-1.355,1.3-3.727,3.361-5.2,3.361-.316,0-9.457,1.826-9.457,1.826l-2.416-2.416s-3.6,7.037-5.319,6.715l3.117,4.084s5.909,2.577,13.645-.537h4.513l2.363,7.306s-1.181,9.886-2.148,12.034.316,6.339.316,6.339l8.487-.316s.43-4.191,1.074-4.738-2.255-19.017-2.255-19.017-1.933-10.423,5.158-14.182Z" transform="translate(-355.515 -255.892)"/><path class="e" d="M543.723,439.38a28.056,28.056,0,0,0-.666,3.875l-6.5.246c.869-1.822,1.45-2.934,1.45-2.934Z" transform="translate(-406.614 -338.25)"/><path class="e" d="M469.038,340.026l-3.762,6-.316-1.068a27.777,27.777,0,0,0,3.642-5.429A6.359,6.359,0,0,0,469.038,340.026Z" transform="translate(-357.629 -269.938)"/><path class="h" d="M495.338,319a21.352,21.352,0,0,1-9.352,2.372,3.367,3.367,0,0,0-2.429.929c-1.355,1.3-3.727,3.361-5.2,3.361-.316,0-9.457,1.826-9.457,1.826l-2.426-2.419s-3.6,7.037-5.319,6.715l3.117,4.084s5.91,2.577,13.645-.537h4.513l2.363,7.3s-1.181,9.886-2.148,12.034.316,6.339.316,6.339l8.487-.316s.43-4.191,1.074-4.738-2.255-19.017-2.255-19.017-1.933-10.423,5.158-14.182Z" transform="translate(-355.03 -255.892)"/><path class="e" d="M595.421,316.94a20.908,20.908,0,0,0,10.237,3.727,3.111,3.111,0,0,1,1.753.679,16.969,16.969,0,0,1,3.7,4.422c2.362,3.869,8.165,3.44,8.165,3.44s5.641-1.772,5.963-3.159c0,0,.161,7.58,3.708,5.748l-4.665,5.376a3.291,3.291,0,0,1-2.353,1.134,34.589,34.589,0,0,1-7.369-.407c-3.869-.752-6.661-2.577-8.7-.966,0,0-2.685,8.38-.859,11.39s5.054,8.057,3.547,9.349-3.332,1.181-6.339-1.933-3.332-8.379-3.332-8.379l.752-13.537s-2.9-10.208-5.685-12.249Z" transform="translate(-445.871 -254.483)"/><path class="e" d="M630.275,331.888l-4.678,5.4a3.287,3.287,0,0,1-1.128.84h0a3.275,3.275,0,0,1-1.219.287,34.176,34.176,0,0,1-7.369-.407c-3.62-.7-6.3-2.347-8.3-1.238a2.939,2.939,0,0,0-.4.269s-2.685,8.379-.859,11.389,5.054,8.057,3.547,9.349a3.476,3.476,0,0,1-.84.546c-1.352.61-3.029.082-5.5-2.479-3.007-3.117-3.332-8.379-3.332-8.379l.752-13.537s-2.9-10.208-5.685-12.249l1.229-4.406a22.307,22.307,0,0,0,10.3,3.62,3.112,3.112,0,0,1,1.753.679,16.983,16.983,0,0,1,3.7,4.422c2.363,3.869,8.165,3.44,8.165,3.44a31.351,31.351,0,0,0,4.065-1.617h0a6.2,6.2,0,0,0,1.9-1.263.946.946,0,0,0,.205-.379S626.731,333.713,630.275,331.888Z" transform="translate(-446.774 -254.708)"/><path class="h" d="M629.575,331.776l-4.675,5.4a3.287,3.287,0,0,1-.91.733h0a3.279,3.279,0,0,1-1.434.395,34.176,34.176,0,0,1-7.369-.407c-3.49-.679-6.109-2.233-8.083-1.346a2.92,2.92,0,0,0-.632.376s-2.685,8.379-.859,11.389,5.054,8.057,3.547,9.349a3.723,3.723,0,0,1-.632.439c-1.39.768-3.108.316-5.714-2.372-3.007-3.117-3.332-8.379-3.332-8.379l.752-13.537s-2.9-10.208-5.685-12.249l1.289-4.621.155.107a22.306,22.306,0,0,0,10.3,3.62,3.111,3.111,0,0,1,1.753.679,16.979,16.979,0,0,1,3.7,4.422c2.363,3.869,8.165,3.44,8.165,3.44a31.365,31.365,0,0,0,4.065-1.617h0c.976-.5,1.772-1.045,1.9-1.544v.272C625.961,327.632,626.435,333.39,629.575,331.776Z" transform="translate(-446.288 -254.489)"/><path class="e" d="M577.746,300.45h-7.9a19.319,19.319,0,0,1,.148,3.79,8.117,8.117,0,0,0,8.345.6A5.039,5.039,0,0,1,577.746,300.45Z" transform="translate(-429.39 -243.201)"/><circle class="j" cx="7.843" cy="7.843" r="7.843" transform="translate(137.409 46.665)"/><path class="e" d="M566.555,263.534a8.373,8.373,0,0,1,2.612-.24c.783.158,1.45.7,2.233.862,1.51.316,2.912-.8,4.052-1.832l2.464-2.243a5.03,5.03,0,0,0,1.39-1.7,1.705,1.705,0,0,0-.417-2.009c-.9-.632-2.451,0-3.1-.9a4.681,4.681,0,0,1-.4-1.431,2.514,2.514,0,0,0-2.419-1.507,10.7,10.7,0,0,0-2.963.632,17.055,17.055,0,0,1-6.317.6,4.036,4.036,0,0,0-1.728.06,2.417,2.417,0,0,0-1.4,1.664c-.486,1.718.344,4.488,1.178,6.026S564.891,263.739,566.555,263.534Z" transform="translate(-422.933 -210.423)"/><path class="i" d="M566.555,262.854a8.372,8.372,0,0,1,2.612-.24c.783.158,1.45.7,2.233.862,1.51.316,2.912-.8,4.052-1.832l2.464-2.243a5.03,5.03,0,0,0,1.39-1.7,1.705,1.705,0,0,0-.417-2.009c-.9-.632-2.451,0-3.1-.9a4.681,4.681,0,0,1-.4-1.431,2.514,2.514,0,0,0-2.419-1.507,10.7,10.7,0,0,0-2.963.632,17.057,17.057,0,0,1-6.317.6,4.037,4.037,0,0,0-1.728.06,2.417,2.417,0,0,0-1.4,1.665c-.486,1.718.344,4.488,1.178,6.026S564.891,263.044,566.555,262.854Z" transform="translate(-422.933 -209.957)"/><path class="e" d="M536.55,394a4.428,4.428,0,0,1,2.577,1.289,4.63,4.63,0,0,0,2.362,1.4" transform="translate(-406.608 -307.203)"/><path class="e" d="M487.427,349.09s1.4,3.13.537,3.446-.537,2.577-.537,2.577" transform="translate(-372.959 -276.478)"/><g class="g" transform="translate(114.854 63.159)"><path d="M488.878,332.681s9.131-1.826,9.447-1.826c1.472,0,3.841-2.059,5.2-3.361a3.317,3.317,0,0,1,1.472-.818h-.117a3.367,3.367,0,0,0-2.429.929c-1.355,1.3-3.727,3.361-5.2,3.361-.256,0-6.1,1.159-8.471,1.63Z" transform="translate(-488.78 -324.301)"/><path d="M554.249,319.561v-.4a22.8,22.8,0,0,1-7,2.239A21.631,21.631,0,0,0,554.249,319.561Z" transform="translate(-528.782 -319.16)"/><path d="M522.125,396.2s-1.289-4.191-.316-6.339,2.148-12.034,2.148-12.034L521.6,370.52h-4.526l-.275.107h3.711l2.353,7.309s-1.181,9.886-2.148,12.034.316,6.339.316,6.339l8.487-.316v-.066Z" transform="translate(-507.95 -354.298)"/></g><g class="g" transform="translate(153.303 77.293)"><path d="M620.188,419.406a3.718,3.718,0,0,1-.632.439c-1.39.768-3.108.316-5.714-2.372-2.388-2.473-3.083-6.317-3.269-7.773l-.063,1.112s.316,5.265,3.332,8.38c2.606,2.7,4.324,3.14,5.714,2.372a3.725,3.725,0,0,0,.632-.439c.452-.388.477-1.118.24-2.028A.993.993,0,0,1,620.188,419.406Z" transform="translate(-610.51 -395.237)"/><path d="M650.887,364.065l-3.042,3.515a3.288,3.288,0,0,1-.91.733h0a3.278,3.278,0,0,1-1.434.395,34.175,34.175,0,0,1-7.369-.407c-3.49-.679-6.109-2.233-8.083-1.346a2.919,2.919,0,0,0-.632.376s-1.734,5.414-1.469,9.1a35.532,35.532,0,0,1,1.469-7.381,2.916,2.916,0,0,1,.632-.376c1.977-.888,4.592.666,8.083,1.345a34.58,34.58,0,0,0,7.369.407,3.279,3.279,0,0,0,1.434-.395h0a3.289,3.289,0,0,0,.91-.723l4.678-5.4a1.841,1.841,0,0,1-1.636.155Z" transform="translate(-622.423 -363.91)"/></g><path class="l" d="M265.74,486.89a.243.243,0,0,0,.287.038A.98.98,0,0,1,265.74,486.89Z" transform="translate(-221.333 -370.754)"/><path class="m" d="M201.7,286.851c-.569-.164-1.38-.433-2.356-.774a12.356,12.356,0,0,0,2.183-4.4l-.082.032c.028-.1.057-.193.082-.294-1.873.761-3.945-.527-5.265-2.183s-2.211-3.708-3.658-5.23a16.743,16.743,0,0,0-1.939-1.671,2.682,2.682,0,0,0-1.406-.689c-.843-.025-1.5.8-2.315,1.046a3.159,3.159,0,0,1-1.614-.06c-2.094-.48-4.106-1.368-6.244-1.6a7.318,7.318,0,0,0-3.389.382c-1.074.407-1.563,1.219-2.432,1.87-.948.7-2.8.682-3.9.805a27.956,27.956,0,0,1-4.03.167,9.429,9.429,0,0,0-2.318.085c-1.6.351-2.887,1.623-4.087,2.843a2.107,2.107,0,0,0-.676,1.058,1.335,1.335,0,0,0,0,.351,2.278,2.278,0,0,0,.161.932,12.318,12.318,0,0,0,1.551,3.086A8.913,8.913,0,0,1,161.3,284.8a4.255,4.255,0,0,1,.205,1.263,9.192,9.192,0,0,1-.142,1.358,17.056,17.056,0,0,1-1.039,3.616,6.569,6.569,0,0,0-.606,1.9,3.019,3.019,0,0,0,0,.4c-.079,2.085,2.025,3.585,2.432,5.657a3.379,3.379,0,0,1,.06.521,3.529,3.529,0,0,1-1.867,3.057c.095.038.193.069.291.1a2.633,2.633,0,0,1-.291.158,5.906,5.906,0,0,0,.606.2,14.086,14.086,0,0,0-3.067,3.79c-3.654,6.8-28.4,20.129-28.4,20.129l.366.208-.3.193c-2.141,1.424-7.167,5.578-2.625,10.83,0,0,3.547-5.6,6.033-7.982.111-.107.221-.205.316-.3a.727.727,0,0,1,.095.575l16.273-9.144s5.783-4.049,7.4-4.962a13.314,13.314,0,0,1,3.667-1.579l-.189.079a7.424,7.424,0,0,1,1.867-.265c2.881.044,6,2.154,7.028,10.508,1.377,11.187.739,13.206.3,13.48a.815.815,0,0,1-.161-.028.277.277,0,0,0,.044.032.843.843,0,0,1-.177-.032.253.253,0,0,0,.24.057.225.225,0,0,0,.18-.022h0a1.9,1.9,0,0,0,.218,0,2.321,2.321,0,0,1-.022.316c-.022,0-.129.06,0,.066h0c-.035.632-.032,1.317,0,2.034-1.431.079-2.862.164-4.106.24l.111-.591.051-.265c1.1-.088,2.141-.411,2.265-1.3.268-1.958-2.419-3-4.706-3.133s-16,.783-16,.783-2.056,2.663,4.466,3.474l.6.316A72.5,72.5,0,0,1,160.389,346l.231.183-.745.606c4.033.913,7.934,16.326,10.085,23.373s6.857,6.791,10.758,5.745c3.654-.979,4.106-11.592,4.166-12.925v-.136l6.5,8.029.493.61q.284.148.562.278c4.921,2.34,10.357-2.148,8.812-7.264-1.563-5.158-3.989-12.786-5.606-16.01-1.355-2.7-3.1-7.186-4.166-9.993a3.38,3.38,0,0,0,.4-.193s-.025-.126-.066-.357l.066-.035a96.839,96.839,0,0,1-1.649-13.9v-.5c1.175-.268,1.92-.373,1.92-.373l.022-.253-.136.028.654-7.483s2.4-5.107.562-7.233a4.466,4.466,0,0,1-1.077-2.211c-.316-1.955,0-5.218,4.28-7.928,6.589-4.179,9.16-7.58,9.16-7.58S205.729,288.039,201.7,286.851Zm-13.086,5.193v-3.459c1.222-.06,2.47.082,3.7,0a9.361,9.361,0,0,0,1.785-.3l.3.205a32.529,32.529,0,0,1-5.78,3.553Zm-18.682,54.212c.483.335.97.682,1.447,1.033.3,1.706.559,2.909.578,2.994A23.65,23.65,0,0,0,169.927,346.256Z" transform="translate(-125.1 -223.036)"/><path class="n" d="M267.537,500.32l-.284,1.544-.218,1.181-.4,2.16-3.86,2.7s-.347-.3-.922-.767a67.649,67.649,0,0,0-7.347-5.369,8.211,8.211,0,0,0-2.018-.932Z" transform="translate(-212.268 -379.942)"/><path class="e" d="M267.53,500.32l-.284,1.544a12,12,0,0,1-2.546-.13l-9,.13c-.426-.025-.824-.06-1.2-.1a8.214,8.214,0,0,0-2.018-.932Z" transform="translate(-212.261 -379.942)"/><path class="o" d="M257.933,494.758s4.5.771,4.76-1.159-2.315-2.947-4.5-3.092-15.312.777-15.312.777-2.315,3.086,6.045,3.6Z" transform="translate(-205.494 -373.217)"/><path class="e" d="M267.537,500.32l-.284,1.544-.218,1.181-.4,2.16-3.86,2.7s-.347-.3-.922-.767a67.649,67.649,0,0,0-7.347-5.369,8.211,8.211,0,0,0-2.018-.932Z" transform="translate(-212.268 -379.942)"/><path class="e" d="M267.53,500.32l-.284,1.544a12,12,0,0,1-2.546-.13l-9,.13c-.426-.025-.824-.06-1.2-.1a8.214,8.214,0,0,0-2.018-.932Z" transform="translate(-212.261 -379.942)"/><path class="e" d="M257.933,494.758s4.5.771,4.76-1.159-2.315-2.947-4.5-3.092-15.312.777-15.312.777-2.315,3.086,6.045,3.6Z" transform="translate(-205.494 -373.217)"/><rect class="p" width="23.54" height="27.915" transform="translate(38.738 58.114)"/><rect class="e" width="23.54" height="27.915" transform="translate(38.738 58.114)"/><path class="n" d="M141.009,449.478a3.77,3.77,0,0,0-1.434,1.014c-2.378,2.35-5.771,7.861-5.771,7.861-4.346-5.174.464-9.264,2.527-10.669.5-.341.834-.524.834-.524Z" transform="translate(-129.864 -343.573)"/><path class="n" d="M272.289,331.09s1.159,8.1,5.145,10.035-5.145,5.531-5.145,5.531l-12.479-4.63s7.075-2.315,5.66-9.134Z" transform="translate(-217.276 -264.163)"/><path class="n" d="M224.407,485.45l-.284,1.544-.218,1.181-.4,2.16-3.86,2.7s-.347-.3-.922-.768a67.665,67.665,0,0,0-7.347-5.369,8.213,8.213,0,0,0-2.018-.932Z" transform="translate(-182.761 -369.769)"/><path class="e" d="M224.4,485.45l-.284,1.544a12,12,0,0,1-2.546-.129l-9,.129c-.426-.025-.824-.06-1.2-.1a8.211,8.211,0,0,0-2.018-.932Z" transform="translate(-182.754 -369.769)"/><path class="o" d="M214.756,479.9s4.5.771,4.76-1.159-2.315-2.96-4.5-3.086-15.309.771-15.309.771-2.315,3.086,6.045,3.6Z" transform="translate(-175.952 -363.058)"/><path class="e" d="M244.15,493.892l-.4,2.16-3.86,2.7s-.347-.3-.922-.768l5.1-4.185Z" transform="translate(-203.018 -375.481)"/><path class="o" d="M268.536,510.945q-.265-.13-.537-.275l-.471-.6-6.216-7.9v.139c-.041,1.311-.49,11.765-3.983,12.729-3.73,1.03-8.234,1.285-10.29-5.66s-5.789-22.125-9.649-23.026l5.723-4.7a34.109,34.109,0,0,1,5.338,8.68c-.057-.272-2.675-12.5-.515-14.659h18.78s2.893,8.256,4.889,12.35c1.548,3.177,3.869,10.688,5.369,15.77A6.041,6.041,0,0,1,268.536,510.945Z" transform="translate(-201.937 -363.085)"/><path class="e" d="M288.94,444c-2.9,1.715-15.631,1.017-19.782.739l-1.128-.082c-.123,0,.019-.07.019-.07l.117-1.169,3.086-7.846L287.784,426a14.308,14.308,0,0,0-.42,4.324A100.786,100.786,0,0,0,288.94,444Z" transform="translate(-222.866 -329.096)"/><path class="q" d="M288.646,442.807c-2.9,1.715-15.631,1.017-19.782.739l-1.128-.082h-.186l.205-.054,1.017-.268,2.186-8.749,16.532-9.583a14.307,14.307,0,0,0-.42,4.324A100.861,100.861,0,0,0,288.646,442.807Z" transform="translate(-222.571 -328.282)"/><path class="e" d="M287.48,429.06c-3.361.774-10.758,3.051-13.6,8.528-1.9,3.658-3.474,5.227-4.6,5.884l-1.128-.082.019-.07,1.017-.268,2.186-8.749L287.9,424.72A14.306,14.306,0,0,0,287.48,429.06Z" transform="translate(-222.982 -328.22)"/><path class="e" d="M146.4,447.17l3.86,2.315a3.771,3.771,0,0,0-1.434,1.014c-.316-.948-2.344-2.249-3.26-2.8C146.069,447.353,146.4,447.17,146.4,447.17Z" transform="translate(-139.119 -343.579)"/><path class="e" d="M265.412,484.265a.231.231,0,0,1-.272-.035A.928.928,0,0,0,265.412,484.265Z" transform="translate(-220.922 -368.934)"/><path class="r" d="M192.178,318.635a7.652,7.652,0,0,1-5.919-2.186s-10.29,2.96-13.765,9.649-27.144,19.81-27.144,19.81,4.106,2.315,3.73,3.474l15.565-9s5.531-3.989,7.075-4.889,10.035-6.431,11.835,8.619,0,13.266,0,13.266,2.574.9,6.317-6.317,15.309-8.875,15.309-8.875l.632-7.58s2.3-5.028.537-7.126a4.453,4.453,0,0,1-1.03-2.176c-.294-1.927,0-5.139,4.106-7.808,6.317-4.106,8.749-7.46,8.749-7.46s.13-2.445-3.73-3.6-19.554-7.46-19.554-7.46l-.515,2.186,12.35,8.749s-6.175,5.016-11.055,4.889C195.652,314.772,196.552,318.505,192.178,318.635Z" transform="translate(-138.968 -242.188)"/><path class="e" d="M284.515,335.418a25.263,25.263,0,0,1-.711-3.158l-6.819,1.813a7.517,7.517,0,0,1-.155,3.932,7.334,7.334,0,0,0,7.685-2.59Z" transform="translate(-228.92 -264.964)"/><circle class="n" cx="7.334" cy="7.334" r="7.334" transform="translate(42.597 58.241)"/><path class="e" d="M252.336,273.86c2.034.231,3.97,1.105,5.973,1.579a2.95,2.95,0,0,0,1.544.06c.777-.24,1.409-1.055,2.211-1.03a2.324,2.324,0,0,1,1.346.679,16.14,16.14,0,0,1,1.854,1.646c1.38,1.5,2.239,3.522,3.5,5.151s3.247,2.9,5.038,2.151c-1.216,4.738-5.208,8.361-9.523,8.654-1.721.117-3.474-.24-5.152.265a4.51,4.51,0,0,1-1.3.316c-.948,0-1.731-.881-2.331-1.737a73.588,73.588,0,0,0-4.106-6.137,3.357,3.357,0,0,0-1.873-1.295,3.469,3.469,0,0,0-2.072.581,9.837,9.837,0,0,0-3.032,2.1,4.2,4.2,0,0,0-1.023,3.7,9.033,9.033,0,0,1,.632,2.069c0,1.169-1.017,2.025-1.222,3.159a12.186,12.186,0,0,0-.051,1.44,5.875,5.875,0,0,1-2.176,3.819,2.747,2.747,0,0,0-.995,1.38c-.082.4,0,.828-.054,1.235a2.242,2.242,0,0,1-2.059,1.658,5.969,5.969,0,0,1-3.089-.366,3.551,3.551,0,0,0,1.728-3.79c-.4-2.088-2.5-3.585-2.318-5.714a6.61,6.61,0,0,1,.581-1.879,17.2,17.2,0,0,0,.992-3.563,6.035,6.035,0,0,0-.06-2.843,8.976,8.976,0,0,0-1.282-2.16,12.259,12.259,0,0,1-1.485-3.042,2.132,2.132,0,0,1-.142-1,2.082,2.082,0,0,1,.632-1.042c1.15-1.2,2.382-2.457,3.91-2.8a8.769,8.769,0,0,1,2.211-.085,25.985,25.985,0,0,0,3.857-.164c1.055-.123,2.843-.107,3.733-.8.831-.632,1.3-1.437,2.328-1.841A6.812,6.812,0,0,1,252.336,273.86Z" transform="translate(-198.507 -224.965)"/><path class="e" d="M308.48,513.76s4.245,8.36,2.96,10.935" transform="translate(-250.573 -389.137)"/><path class="e" d="M319.274,563.707l-6.216-7.9v.139s-.36-2.552.824-1.693c2.593,1.876,6.743,4.953,6.832,5.483S319.875,562.4,319.274,563.707Z" transform="translate(-253.671 -416.722)"/><g class="g" transform="translate(6.511 56.759)"><path d="M302.462,348.774a3.154,3.154,0,0,1-1.172,3.26,2.913,2.913,0,0,0,2.647-3.364,8.229,8.229,0,0,1-1.475.1Z" transform="translate(-252.166 -332.95)"/><path d="M147.178,383.713s23.67-13.12,27.144-19.81c2.492-4.8,8.5-7.678,11.686-8.923-2.328.78-10.161,3.771-13.1,9.438-3.474,6.69-27.144,19.81-27.144,19.81Z" transform="translate(-145.76 -337.267)"/><path d="M306.827,313.7a28.19,28.19,0,0,0,7.877-4.381l-12.35-8.749.281-1.2-1.181-.474-.515,2.186,12.35,8.749A29.8,29.8,0,0,1,306.827,313.7Z" transform="translate(-251.926 -298.9)"/><path d="M319.83,436.442a30.6,30.6,0,0,1,4.842-1.222l.022-.25A32.768,32.768,0,0,0,319.83,436.442Z" transform="translate(-264.85 -391.992)"/><path d="M249.829,431.1h-.114a.231.231,0,0,1-.272-.035.949.949,0,0,0,.272.035c.423-.246,1.058-2.167-.272-13.285-1.421-11.87-7-10.938-10.053-9.573,3.121-.859,7.416-.117,8.638,10.088,1.33,11.118.695,13.041.272,13.285A2.843,2.843,0,0,0,249.829,431.1Z" transform="translate(-209.817 -373.178)"/><path d="M267.012,483.865a.948.948,0,0,1-.272-.035A.231.231,0,0,0,267.012,483.865Z" transform="translate(-228.529 -425.42)"/></g><path class="p" d="M252.336,273.07c2.034.231,3.97,1.105,5.973,1.579a2.95,2.95,0,0,0,1.545.06c.777-.24,1.409-1.055,2.211-1.03a2.324,2.324,0,0,1,1.346.679A16.141,16.141,0,0,1,265.264,276c1.38,1.5,2.239,3.522,3.5,5.151s3.247,2.9,5.038,2.151c-1.216,4.738-5.208,8.361-9.523,8.654-1.721.117-3.474-.24-5.151.265a4.512,4.512,0,0,1-1.3.316c-.948,0-1.731-.881-2.331-1.737a73.591,73.591,0,0,0-4.106-6.137,3.357,3.357,0,0,0-1.873-1.295,3.468,3.468,0,0,0-2.072.581,9.836,9.836,0,0,0-3.032,2.1,4.2,4.2,0,0,0-1.023,3.7,9.03,9.03,0,0,1,.632,2.069c0,1.169-1.017,2.025-1.222,3.158a12.188,12.188,0,0,0-.051,1.44,5.875,5.875,0,0,1-2.176,3.819,2.747,2.747,0,0,0-.995,1.38c-.082.4,0,.827-.054,1.235a2.242,2.242,0,0,1-2.059,1.658,5.97,5.97,0,0,1-3.089-.366,3.551,3.551,0,0,0,1.728-3.79c-.4-2.088-2.5-3.585-2.318-5.714a6.611,6.611,0,0,1,.581-1.879,17.2,17.2,0,0,0,.992-3.563,6.036,6.036,0,0,0-.06-2.843,8.974,8.974,0,0,0-1.282-2.16,12.261,12.261,0,0,1-1.484-3.042,2.132,2.132,0,0,1-.142-1,2.081,2.081,0,0,1,.632-1.042c1.15-1.2,2.382-2.457,3.91-2.8a8.767,8.767,0,0,1,2.211-.085,25.977,25.977,0,0,0,3.857-.164c1.055-.123,2.843-.107,3.733-.8.831-.632,1.3-1.437,2.328-1.841A6.813,6.813,0,0,1,252.336,273.07Z" transform="translate(-198.507 -224.425)"/><path class="s" d="M813.6,203.241h0v-.117a.265.265,0,0,0-.019-.12h-.051v-.262c-.126-2.928-4.176-9.16-5.8-7.34-1.421,1.6.723,5.641,1.816,7.46l.1.164-.054-.035s-4.52,13.48-5.053,14-4.255,11.124-9.16,12.318c-.97.231-1.775.439-2.451.632l.054-.18a19.537,19.537,0,0,0,.862-3.158,4.09,4.09,0,0,0-.581-3.1c-.284-.278-.632-.316-.865-.758a3.5,3.5,0,0,1-.24-1.216l-.417-5.11.291-.088c1.756-.562,3.458-1.9,3.657-3.689a1.886,1.886,0,0,1-.186.06,3.179,3.179,0,0,0,.054-.316c-1.475.581-2.843-.948-4.264-1.633-2.34-1.147-5.016-.066-7.432.2-2.739.3-5.338-.837-8.136-.632-1.522.117-3.215,1.15-3.133,2.65a10.607,10.607,0,0,0,.872,2.312c.606,1.911-.742,3.828-1.923,5.458a8.124,8.124,0,0,0-1.655,3.632c-2.719-2.843-5.66-6.127-6-7.362l-7.868-13.48s-.186.2-.486.493c-.047-.145-.1-.316-.167-.486-1-2.814-3.847-9.633-7.451-8.383s1.494,8.241,3.711,11.026l.316.385a1,1,0,0,1-.562-.025l8.774,15.05s1.6,2.881,3.057,3.664c0,0,10.9,13.743,11.033,16.491s4.9,10.079,4.9,10.079,1.6,11.911-1.2,14h.461q-.2.194-.407.426c-2.069,2.293-4.713,7.208-1.1,15.565,5.316,12.318,6.115,17.144,6.115,17.144s-10.107.524-12.1.916c-1.762.347-8.613.591-10.18.632-.559-.651-2.211-2.091-4.441,0-2.792,2.618-4.785,11.371-4.785,11.371s-1.064,7.069,2.527,5.234c0,0,4.254-5.891,5.448-6.153.594-.13,1.222-1,1.7-1.848l.025.016h0c.028,0,.145-.063.335-.139h0a10.241,10.241,0,0,1,5.24-.774,96.509,96.509,0,0,0,10.29.272c-1.068,2.558-2.982,9.16-2.982,9.16s-.8,6.156,1.854,5.9c1.9-.186,4.8-5.028,6.317-7.792,1.1-.805,4.248-3.692,6.576-3.474l15.685-6.02s3.721-2.094,1.728-9.03c-1.579-5.515-6.074-16.8-7.849-21.2h0l-.054-.114c-.43-1.064-.689-1.7-.689-1.7h0A25.959,25.959,0,0,1,796.239,268c-.016-.167-.029-.338-.041-.505a2.788,2.788,0,0,0,.616-.357s-1.462-14.788,0-16.361h0l.025-.028h0v-.019h0l.025-.032h0l.057-.073h0l.069-.088h0c.079-.1.174-.234.281-.392h0a10.843,10.843,0,0,0,1.949-7.328h0q-.028-.215-.069-.433h0a9.025,9.025,0,0,0-.91-2.565,7.126,7.126,0,0,1-.117-1.014v-.9a3.04,3.04,0,0,1,.047-.455v-.057a.563.563,0,0,1,.028-.174v-.073a.832.832,0,0,1,.038-.171v-.06c.019-.076.038-.152.063-.227v-.038q.028-.095.063-.186l.028-.073.063-.152.032-.076c.025-.057.054-.114.082-.171l.022-.047q.057-.1.12-.205l.035-.054.1-.148.051-.066.11-.133.051-.057c.057-.06.114-.12.177-.177,1.728-1.579,9.438-13.218,9.438-13.218s1.86-2.618,1.86-4.318C810.641,217.533,813.929,206.573,813.6,203.241Zm-20.7,97.834c-.19-1.794-.379-4.018-.553-6.317l3.007,4.687S795.07,300.873,792.9,301.075Z" transform="translate(-550.351 -171.057)"/><path class="t" d="M773.715,524.792s-1.8-2.843-4.5-.256-4.63,11.19-4.63,11.19-1.03,6.949,2.445,5.145c0,0,4.106-5.79,5.275-6.045s2.445-3.474,2.445-3.474Z" transform="translate(-562.518 -395.766)"/><path class="t" d="M840.456,548.39s-2.445-1.159-3.215-.256-3.345,9.905-3.345,9.905-.771,5.919,1.8,5.66,7.075-9.526,7.075-9.526Z" transform="translate(-609.963 -412.418)"/><path class="u" d="M840.456,548.39s-2.445-1.159-3.215-.256-3.345,9.905-3.345,9.905-.771,5.919,1.8,5.66,7.075-9.526,7.075-9.526Z" transform="translate(-609.963 -412.418)"/><path class="v" d="M860.56,460.353l5.531,8.619s-.385,1.93-3.73,1.545l-11.45,7.2s-.995,8.771,2.186,7.975c.515-.13,4.106-3.86,6.69-3.6l15.183-5.919s3.6-2.059,1.671-8.875-8.31-22.621-8.31-22.621l-10.085,5.641Z" transform="translate(-621.577 -341.876)"/><path class="u" d="M860.56,460.353l5.531,8.619s-.385,1.93-3.73,1.545l-11.45,7.2s-.995,8.771,2.186,7.975c.515-.13,4.106-3.86,6.69-3.6l15.183-5.919s3.6-2.059,1.671-8.875-8.31-22.621-8.31-22.621l-10.085,5.641Z" transform="translate(-621.577 -341.876)"/><path class="v" d="M821.3,452.987c.771,4.889-3.6,5.275-3.6,5.275s-19.684.385-22-.13-5.4.9-5.4.9c-3.989-2.445-.771-8.49-.771-8.49s8.234-.256,10.164-.632,11.705-.91,11.705-.91-.771-4.76-5.919-16.851c-3.5-8.212-.948-13.045,1.064-15.3A8.468,8.468,0,0,1,808.3,415.3l15.824.771a20.491,20.491,0,0,0,.089,2.391,25.46,25.46,0,0,0,2.1,7.9c-.9,0-6.69,5.4-6.69,5.4S820.523,448.1,821.3,452.987Z" transform="translate(-578.84 -321.776)"/><path class="e" d="M790.682,451.078s8.234-.256,10.164-.632,11.705-.9,11.705-.9-.771-4.76-5.919-16.851c-3.5-8.212-.948-13.045,1.064-15.3a8.474,8.474,0,0,1,1.766-1.554l14.662.714V416.1L808.3,415.33a8.472,8.472,0,0,0-1.766,1.554c-2,2.255-4.561,7.084-1.064,15.3,5.161,12.081,5.925,16.841,5.925,16.841s-9.791.515-11.705.9-10.164.632-10.164.632-3.215,6.049.771,8.5c0,0,.12-.057.316-.139C787.962,456.191,790.682,451.078,790.682,451.078Z" transform="translate(-578.843 -321.796)"/><rect class="t" width="7.975" height="20.195" transform="translate(227.404 46.308)"/><rect class="e" width="7.975" height="20.195" transform="translate(227.404 46.308)"/><path class="t" d="M876.967,249.034c.275.076.584.085.771.464a2.841,2.841,0,0,1,.187.948l.5,6.241a3.473,3.473,0,0,0,.234,1.194c.212.423.562.474.837.745a4.129,4.129,0,0,1,.562,3.048,20.03,20.03,0,0,1-.834,3.1,29.15,29.15,0,0,1-1.317,4.311c-.6,1.225-1.7,1.9-2.407.865s-.613-3.108-.745-4.81c-.221-2.843-1.33-5.294-1.406-8.155a32.7,32.7,0,0,1,.948-6.671c.278-1.507.294-3.335.7-4.69C875.334,247.231,875.978,248.763,876.967,249.034Z" transform="translate(-637.027 -205.689)"/><path class="e" d="M876.967,249.034c.275.076.584.085.771.464a2.841,2.841,0,0,1,.187.948l.5,6.241a3.473,3.473,0,0,0,.234,1.194c.212.423.562.474.837.745a4.129,4.129,0,0,1,.562,3.048,20.03,20.03,0,0,1-.834,3.1,29.15,29.15,0,0,1-1.317,4.311c-.6,1.225-1.7,1.9-2.407.865s-.613-3.108-.745-4.81c-.221-2.843-1.33-5.294-1.406-8.155a32.7,32.7,0,0,1,.948-6.671c.278-1.507.294-3.335.7-4.69C875.334,247.231,875.978,248.763,876.967,249.034Z" transform="translate(-637.027 -205.689)"/><path class="w" d="M758.858,207.685l-3.086,2.574s-.366-.43-.913-1.124c-2.145-2.738-7.075-9.608-3.591-10.837s6.238,5.471,7.211,8.237C758.726,207.236,758.858,207.685,758.858,207.685Z" transform="translate(-552.679 -173.211)"/><path class="w" d="M941.6,206.952c-1.286,1.93-3.086,0-3.086,0s-.231-.344-.556-.9c-1.058-1.791-3.133-5.761-1.759-7.334,1.579-1.8,5.493,4.337,5.613,7.214A1.712,1.712,0,0,1,941.6,206.952Z" transform="translate(-679.713 -173.379)"/><path class="w" d="M854.08,286.749s2.574,8.234,1.8,10.676,5.534,5.284,5.534,5.284h7.2s2.574-5.275,1.93-6.819-6.175-2.7-6.175-2.7-3.215,0-3.086-8.62Z" transform="translate(-623.846 -232.337)"/><path class="e" d="M769.259,225.85l-3.086,2.574s-.366-.43-.913-1.124c1.121-.2,2.862-1.835,3.623-2.6C769.126,225.4,769.259,225.85,769.259,225.85Z" transform="translate(-563.08 -191.377)"/><path class="e" d="M946.392,223.26c-1.286,1.93-3.086,0-3.086,0s-.231-.344-.556-.9l.041-.13c.834.6,3.427.088,3.812,0a1.713,1.713,0,0,1-.212,1.03Z" transform="translate(-684.509 -189.687)"/><path class="e" d="M863.688,418.445c-3.98,1.816-16.911-1.418-17.687-1.611a8.472,8.472,0,0,1,1.766-1.554l15.824.771A20.575,20.575,0,0,0,863.688,418.445Z" transform="translate(-618.318 -321.762)"/><path class="x" d="M794.468,251.756s-3.086,1.03-7.46-2.96c0,0-9.791-9.649-10.423-11.964L769,223.566s-3.215,3.474-4.5,2.96l8.49,14.794s1.545,2.843,2.959,3.6c0,0,10.55,13.509,10.676,16.209s4.754,9.933,4.754,9.933,1.544,11.705-1.159,13.765c0,0,15.05,3.86,18.266,1.285,0,0-1.415-14.529,0-16.08,0,0,4.375-5.145,1.415-10.805,0,0-.632-3.086,1.03-4.63s9.134-12.994,9.134-12.994,1.8-2.574,1.8-4.245c0,0,3.345-11.32,2.843-14.28,0,0-2.959.632-3.86,0,0,0-4.375,13.266-4.89,13.765s-4.106,10.935-8.875,12.094-5.53,1.671-5.53,1.671,9.261,5.79,4.76,8.361S794.468,251.756,794.468,251.756Z" transform="translate(-562.56 -190.268)"/><path class="e" d="M861.881,289.824a24.572,24.572,0,0,1-.186-3.654l-7.2,2.186a9.73,9.73,0,0,1,.452,1.478c.824.363,1.936,1.222,2.893,1.222A6.56,6.56,0,0,0,861.881,289.824Z" transform="translate(-624.126 -233.431)"/><circle class="w" cx="6.69" cy="6.69" r="6.69" transform="translate(226.889 43.863)"/><path class="e" d="M827.2,246.424c-1.472.114-3.114,1.131-3.032,2.606a9.908,9.908,0,0,0,.843,2.274c.584,1.879-.717,3.765-1.86,5.369s-2.211,3.73-1.232,5.429a13.332,13.332,0,0,0,.9,1.178c1.21,1.633,1.194,3.838,1.731,5.8a10.173,10.173,0,0,0,11.952,7.265,6.361,6.361,0,0,1-1.342-4.3c.073-1.124.436-2.3,0-3.339-.562-1.336-2.211-1.863-3.061-3.032a4.846,4.846,0,0,1-.382-4.182c.411-1.393,1.121-2.685,1.462-4.106a12.345,12.345,0,0,1,.316-1.229c.594-1.687,2.369-2.666,4.106-3.086s3.563-.445,5.259-1,3.345-1.848,3.541-3.626c-1.428.572-2.751-.919-4.128-1.6-2.268-1.124-4.855-.066-7.192.193C832.419,247.331,829.893,246.228,827.2,246.424Z" transform="translate(-601.579 -206.177)"/><path class="t" d="M826.788,245.614c-1.472.114-3.114,1.131-3.032,2.606a9.908,9.908,0,0,0,.843,2.274c.584,1.879-.717,3.765-1.86,5.369s-2.211,3.73-1.232,5.429a13.408,13.408,0,0,0,.9,1.178c1.21,1.633,1.194,3.838,1.731,5.8a10.173,10.173,0,0,0,11.952,7.264,6.362,6.362,0,0,1-1.342-4.3c.073-1.124.436-2.3,0-3.339-.562-1.336-2.211-1.863-3.061-3.032a4.846,4.846,0,0,1-.382-4.182c.411-1.393,1.121-2.685,1.462-4.106a12.419,12.419,0,0,1,.316-1.229c.594-1.687,2.369-2.666,4.106-3.086s3.563-.445,5.259-1,3.345-1.848,3.541-3.626c-1.428.572-2.751-.919-4.128-1.6-2.268-1.124-4.855-.066-7.192.193C832.016,246.517,829.5,245.4,826.788,245.614Z" transform="translate(-601.298 -205.623)"/><path class="e" d="M885.65,326.3a21.564,21.564,0,0,1,3.206,3.446" transform="translate(-645.445 -260.886)"/><path class="e" d="M881.984,371.51a28.809,28.809,0,0,0-4.889.385,22.987,22.987,0,0,1-5.275,0" transform="translate(-635.983 -291.817)"/><g class="g" transform="translate(201.937 32.802)"><path d="M886.54,318.571a3.214,3.214,0,0,1-.925.354,3.538,3.538,0,0,0,2.47-.354c4.5-2.574-4.76-8.361-4.76-8.361H881.78S891.044,316,886.54,318.571Z" transform="translate(-844.734 -282.681)"/><path d="M951.653,223.284a1.341,1.341,0,0,0-.032-.234,15.1,15.1,0,0,1-1.6.243A7.1,7.1,0,0,0,951.653,223.284Z" transform="translate(-891.42 -223.05)"/><path d="M791.76,292.324c2.7-2.059,1.159-13.765,1.159-13.765s-4.63-7.2-4.76-9.905-10.676-16.209-10.676-16.209c-1.415-.771-2.96-3.6-2.96-3.6s-8.749-14.28-10.035-14.794l8.49,14.794s1.544,2.843,2.959,3.6c0,0,10.549,13.509,10.676,16.209s4.757,9.914,4.757,9.914,1.545,11.705-1.159,13.765c0,0,9.251,2.372,14.8,2.157A77.409,77.409,0,0,1,791.76,292.324Z" transform="translate(-764.49 -230.576)"/><path d="M858.874,313.978l-.076-.1a2.049,2.049,0,0,1-.268.06C858.65,313.956,858.764,313.968,858.874,313.978Z" transform="translate(-828.828 -285.191)"/></g><g class="g" transform="translate(245.802 32.786)"><path d="M922.507,223l-.079.016c-.136,3.951-2.877,13.234-2.877,13.234,0,1.671-1.8,4.245-1.8,4.245s-7.46,11.45-9.134,12.994-1.03,4.63-1.03,4.63l.016.032a4.67,4.67,0,0,1,1.14-3.635c1.671-1.545,9.134-12.994,9.134-12.994s1.8-2.574,1.8-4.245C919.677,237.3,923.022,225.975,922.507,223Z" transform="translate(-906.171 -223)"/><path d="M903.37,352.735c.193,1.093.063-.063.13,1.03,0,0,3.158-3.7,2.3-8.285A11.262,11.262,0,0,1,903.37,352.735Z" transform="translate(-903.37 -306.795)"/></g><ellipse class="b" cx="135.079" cy="12.975" rx="135.079" ry="12.975" transform="translate(13.29 183.005)"/><path class="y" d="M425.188,590.014s-4.6-15.619.862-27.113a24.668,24.668,0,0,0,2-15.477,41.5,41.5,0,0,0-2.192-7.265" transform="translate(-329.181 -407.199)"/><path class="a" d="M426.928,509.1c0,1.914-3.474,7.464-3.474,7.464s-3.474-5.55-3.474-7.464a3.474,3.474,0,1,1,6.93,0Z" transform="translate(-326.849 -383.396)"/><path class="a" d="M445.025,538.691c-1.039,1.608-6.964,4.381-6.964,4.381s.107-6.541,1.147-8.149a3.474,3.474,0,1,1,5.818,3.768Z" transform="translate(-339.226 -402.388)"/><path class="a" d="M441.532,593.627c-1.709.862-8.212.265-8.212.265s3.4-5.594,5.1-6.456a3.474,3.474,0,1,1,3.121,6.187Z" transform="translate(-335.983 -439.204)"/><path class="a" d="M431.484,638.2c-1.538,1.137-8.064,1.652-8.064,1.652s2.4-6.086,3.942-7.227a3.474,3.474,0,0,1,4.106,5.572Z" transform="translate(-329.21 -470.113)"/><path class="a" d="M412.319,552.505c1.374,1.333,7.77,2.716,7.77,2.716s-1.579-6.352-2.941-7.688a3.474,3.474,0,1,0-4.829,4.971Z" transform="translate(-320.768 -411.449)"/><path class="a" d="M399.877,602.6c1.709.862,8.212.265,8.212.265s-3.383-5.594-5.091-6.44a3.474,3.474,0,0,0-3.121,6.188Z" transform="translate(-311.949 -445.509)"/><path class="a" d="M395.547,653.446c1.538,1.137,8.064,1.652,8.064,1.652s-2.4-6.087-3.942-7.227a3.474,3.474,0,1,0-4.106,5.572Z" transform="translate(-309.008 -480.293)"/><path class="b" d="M426.928,509.1c0,1.914-3.474,7.464-3.474,7.464s-3.474-5.55-3.474-7.464a3.474,3.474,0,1,1,6.93,0Z" transform="translate(-326.849 -383.396)"/><path class="b" d="M445.025,538.691c-1.039,1.608-6.964,4.381-6.964,4.381s.107-6.541,1.147-8.149a3.474,3.474,0,1,1,5.818,3.768Z" transform="translate(-339.226 -402.388)"/><path class="b" d="M441.532,593.627c-1.709.862-8.212.265-8.212.265s3.4-5.594,5.1-6.456a3.474,3.474,0,1,1,3.121,6.187Z" transform="translate(-335.983 -439.204)"/><path class="b" d="M431.484,638.2c-1.538,1.137-8.064,1.652-8.064,1.652s2.4-6.086,3.942-7.227a3.474,3.474,0,0,1,4.106,5.572Z" transform="translate(-329.21 -470.113)"/><path class="b" d="M412.319,552.505c1.374,1.333,7.77,2.716,7.77,2.716s-1.579-6.352-2.941-7.688a3.474,3.474,0,1,0-4.829,4.971Z" transform="translate(-320.768 -411.449)"/><path class="b" d="M399.877,602.6c1.709.862,8.212.265,8.212.265s-3.383-5.594-5.091-6.44a3.474,3.474,0,0,0-3.121,6.188Z" transform="translate(-311.949 -445.509)"/><path class="b" d="M395.547,653.446c1.538,1.137,8.064,1.652,8.064,1.652s-2.4-6.087-3.942-7.227a3.474,3.474,0,1,0-4.106,5.572Z" transform="translate(-309.008 -480.293)"/><path class="y" d="M719.828,590.724s-4.6-15.619.862-27.113a24.668,24.668,0,0,0,2-15.477,41.474,41.474,0,0,0-2.192-7.265" transform="translate(-530.759 -407.684)"/><path class="a" d="M721.569,510.91c0,1.914-3.474,7.464-3.474,7.464s-3.474-5.549-3.474-7.464a3.474,3.474,0,0,1,6.93,0Z" transform="translate(-528.434 -384.986)"/><path class="a" d="M739.675,539.39c-1.039,1.608-6.965,4.381-6.965,4.381s.107-6.541,1.147-8.149a3.474,3.474,0,1,1,5.818,3.768Z" transform="translate(-540.811 -402.866)"/><path class="a" d="M736.212,594.313c-1.709.862-8.212.265-8.212.265s3.4-5.594,5.1-6.456a3.474,3.474,0,1,1,3.108,6.191Z" transform="translate(-537.588 -439.669)"/><path class="a" d="M726.124,638.9c-1.538,1.137-8.064,1.652-8.064,1.652s2.4-6.086,3.942-7.227a3.474,3.474,0,0,1,4.106,5.572Z" transform="translate(-530.788 -470.592)"/><path class="a" d="M706.979,553.205c1.374,1.333,7.77,2.716,7.77,2.716s-1.579-6.352-2.941-7.688a3.474,3.474,0,1,0-4.829,4.971Z" transform="translate(-522.36 -411.928)"/><path class="a" d="M694.49,603.264c1.709.862,8.212.265,8.212.265s-3.4-5.594-5.1-6.456a3.474,3.474,0,0,0-3.121,6.188Z" transform="translate(-513.5 -445.954)"/><path class="a" d="M691.274,654.94c1.538,1.137,8.064,1.652,8.064,1.652s-2.4-6.086-3.942-7.227a3.474,3.474,0,0,0-4.106,5.572Z" transform="translate(-511.671 -481.565)"/><path class="b" d="M721.569,510.91c0,1.914-3.474,7.464-3.474,7.464s-3.474-5.549-3.474-7.464a3.474,3.474,0,0,1,6.93,0Z" transform="translate(-528.434 -384.986)"/><path class="b" d="M739.675,539.39c-1.039,1.608-6.965,4.381-6.965,4.381s.107-6.541,1.147-8.149a3.474,3.474,0,1,1,5.818,3.768Z" transform="translate(-540.811 -402.866)"/><path class="b" d="M736.212,594.313c-1.709.862-8.212.265-8.212.265s3.4-5.594,5.1-6.456a3.474,3.474,0,1,1,3.108,6.191Z" transform="translate(-537.588 -439.669)"/><path class="b" d="M726.124,638.9c-1.538,1.137-8.064,1.652-8.064,1.652s2.4-6.086,3.942-7.227a3.474,3.474,0,0,1,4.106,5.572Z" transform="translate(-530.788 -470.592)"/><path class="b" d="M706.979,553.205c1.374,1.333,7.77,2.716,7.77,2.716s-1.579-6.352-2.941-7.688a3.474,3.474,0,1,0-4.829,4.971Z" transform="translate(-522.36 -411.928)"/><path class="b" d="M694.49,603.264c1.709.862,8.212.265,8.212.265s-3.4-5.594-5.1-6.456a3.474,3.474,0,0,0-3.121,6.188Z" transform="translate(-513.5 -445.954)"/><path class="b" d="M691.274,654.94c1.538,1.137,8.064,1.652,8.064,1.652s-2.4-6.086-3.942-7.227a3.474,3.474,0,0,0-4.106,5.572Z" transform="translate(-511.671 -481.565)"/><path class="z" d="M751,128.533h-1.984a1.39,1.39,0,1,0,0-2.776H732.929a1.39,1.39,0,0,0,0,2.776h1.984a1.39,1.39,0,0,0,0,2.776h-2.776a1.39,1.39,0,1,0,0,2.776h16.07a1.39,1.39,0,1,0,0-2.776H751a1.39,1.39,0,0,0,0-2.776Z" transform="translate(-539.422 -123.683)"/><path class="z" d="M467.3,155.61h-1.51a1.058,1.058,0,1,0,0-2.113h-12.23a1.058,1.058,0,0,0,0,2.113h1.51a1.058,1.058,0,1,0,0,2.113h-2.113a1.058,1.058,0,1,0,0,2.113h12.23a1.058,1.058,0,1,0,0-2.113H467.3a1.058,1.058,0,0,0,0-2.113Z" transform="translate(-348.651 -142.662)"/><path class="aa" d="M173.88,634s5.527,10.849,1.023,16.784.411,22.11.411,22.11" transform="translate(-157.887 -471.399)"/><path class="a" d="M174.35,615.05a6.393,6.393,0,0,1-1.535,3.79,5.447,5.447,0,0,1,0-7.58A6.393,6.393,0,0,1,174.35,615.05Z" transform="translate(-156.708 -455.842)"/><path class="aa" d="M178.806,634s-5.527,10.849-1.023,16.784-.411,22.11-.411,22.11" transform="translate(-159.948 -471.399)"/><path class="a" d="M179.67,615.05a6.393,6.393,0,0,0,1.535,3.79,5.447,5.447,0,0,0,0-7.58A6.393,6.393,0,0,0,179.67,615.05Z" transform="translate(-162.448 -455.842)"/><path class="e" d="M179.67,615.05a6.393,6.393,0,0,0,1.535,3.79,5.447,5.447,0,0,0,0-7.58A6.393,6.393,0,0,0,179.67,615.05Z" transform="translate(-162.448 -455.842)"/><path class="aa" d="M190.1,634s5.527,10.849,1.023,16.784.411,22.11.411,22.11" transform="translate(-168.983 -471.399)"/><path class="a" d="M190.52,615.05a6.393,6.393,0,0,1-1.535,3.79,5.447,5.447,0,0,1,0-7.58A6.393,6.393,0,0,1,190.52,615.05Z" transform="translate(-167.771 -455.842)"/><path class="a" d="M186.353,642.57a6.382,6.382,0,0,1-3.733,1.665,5.438,5.438,0,0,1,5.253-5.455A6.449,6.449,0,0,1,186.353,642.57Z" transform="translate(-164.466 -474.67)"/><path class="a" d="M186.813,666.27a6.381,6.381,0,0,1-3.733,1.665,5.438,5.438,0,0,1,5.253-5.455A6.378,6.378,0,0,1,186.813,666.27Z" transform="translate(-164.781 -490.884)"/><path class="a" d="M162.111,683.494a6.379,6.379,0,0,1,1.323,3.866,5.44,5.44,0,0,1-4.965-5.72A6.379,6.379,0,0,1,162.111,683.494Z" transform="translate(-147.944 -503.992)"/><path class="a" d="M165.325,635.134a6.38,6.38,0,0,1,2.309,3.373,5.437,5.437,0,0,1-6.314-4.185A6.316,6.316,0,0,1,165.325,635.134Z" transform="translate(-149.894 -471.586)"/><path class="e" d="M165.325,635.134a6.38,6.38,0,0,1,2.309,3.373,5.437,5.437,0,0,1-6.314-4.185A6.316,6.316,0,0,1,165.325,635.134Z" transform="translate(-149.894 -471.586)"/><path class="aa" d="M195.006,634s-5.527,10.849-1.023,16.784-.411,22.11-.411,22.11" transform="translate(-171.031 -471.399)"/><path class="a" d="M195.87,615.05a6.393,6.393,0,0,0,1.535,3.79,5.447,5.447,0,0,0,0-7.58A6.393,6.393,0,0,0,195.87,615.05Z" transform="translate(-173.531 -455.842)"/><path class="e" d="M195.87,615.05a6.393,6.393,0,0,0,1.535,3.79,5.447,5.447,0,0,0,0-7.58A6.393,6.393,0,0,0,195.87,615.05Z" transform="translate(-173.531 -455.842)"/><path class="a" d="M193.849,647.78a6.468,6.468,0,0,0-1.579,3.79,6.373,6.373,0,0,0,3.752-1.62,6.469,6.469,0,0,0,1.579-3.79A6.373,6.373,0,0,0,193.849,647.78Z" transform="translate(-171.068 -479.719)"/><path class="e" d="M193.849,647.78a6.468,6.468,0,0,0-1.579,3.79,6.373,6.373,0,0,0,3.752-1.62,6.469,6.469,0,0,0,1.579-3.79A6.373,6.373,0,0,0,193.849,647.78Z" transform="translate(-171.068 -479.719)"/><path class="a" d="M202.959,680.59a6.468,6.468,0,0,0-1.579,3.79,6.373,6.373,0,0,0,3.752-1.62,6.469,6.469,0,0,0,1.579-3.79A6.352,6.352,0,0,0,202.959,680.59Z" transform="translate(-177.301 -502.166)"/><path class="aa" d="M193,665.26s3.326-5.243,8-5.37" transform="translate(-171.568 -489.112)"/><path class="aa" d="M167.447,655.229s-3.326-5.243-8-5.37" transform="translate(-148.615 -482.25)"/><path class="aa" d="M183.4,678.929s3.326-5.243,8-5.369" transform="translate(-165 -498.464)"/><circle class="a" cx="0.862" cy="0.862" r="0.862" transform="translate(28.406 169.887)"/><circle class="a" cx="0.862" cy="0.862" r="0.862" transform="translate(10.055 166.792)"/><path class="aa" d="M173.827,684.37s-3.326-5.243-8-5.37" transform="translate(-152.979 -502.186)"/><circle class="a" cx="0.862" cy="0.862" r="0.862" transform="translate(12.07 176.002)"/><circle class="a" cx="0.862" cy="0.862" r="0.862" transform="translate(25.598 174.278)"/><path class="ab" d="M181.2,720.09s-8.016-1.6-10.158-3.743-11.756-5.878-12.827-3.206-14.431,11.759-5.344,13.364,21.38,2.138,24.052,1.068S181.2,720.09,181.2,720.09Z" transform="translate(-141.957 -524.91)"/><path class="ac" d="M152.877,742.447c9.087,1.6,21.38,2.138,24.052,1.068,2.034-.815,3.449-4.738,4.008-6.544l.268.057s-1.6,6.415-4.277,7.482-14.965.534-24.052-1.068c-2.622-.464-3.373-1.551-3.089-2.925C150.009,741.4,150.925,742.1,152.877,742.447Z" transform="translate(-141.965 -541.846)"/><path class="a" d="M1004.158,641.78s2.647,3.474-1.222,8.686-7.059,9.637-5.767,12.9c0,0,5.837-9.706,10.587-9.842S1009.385,647.614,1004.158,641.78Z" transform="translate(-721.54 -476.722)"/><path class="e" d="M1004.482,641.78a4.282,4.282,0,0,1,.54,1.086c4.637,5.445,7.1,10.527,2.65,10.657-4.15.12-9.128,7.539-10.322,9.415a4.028,4.028,0,0,0,.142.426s5.837-9.706,10.587-9.842S1009.709,647.614,1004.482,641.78Z" transform="translate(-721.864 -476.722)"/><path class="ad" d="M1034.142,654.063c0,1.219-.136,2.211-.316,2.211s-.316-.989-.316-2.211.171-.632.338-.632S1034.142,652.847,1034.142,654.063Z" transform="translate(-746.603 -484.595)"/><path class="ad" d="M1036.34,658.543c-1.071.584-2,.948-2.082.786s.72-.742,1.791-1.323.647-.158.73,0S1037.407,657.959,1036.34,658.543Z" transform="translate(-747.111 -487.62)"/><path class="a" d="M962.8,641.78s-2.647,3.474,1.222,8.686,7.059,9.637,5.767,12.9c0,0-5.837-9.706-10.587-9.842S957.576,647.614,962.8,641.78Z" transform="translate(-694.165 -476.722)"/><path class="e" d="M962.8,641.78a4.291,4.291,0,0,0-.54,1.086c-4.637,5.445-7.1,10.527-2.65,10.657,4.15.12,9.128,7.539,10.322,9.415a4,4,0,0,1-.142.426s-5.837-9.706-10.587-9.842S957.576,647.614,962.8,641.78Z" transform="translate(-694.165 -476.722)"/><path class="ad" d="M960.09,654.063c0,1.219.136,2.211.316,2.211s.316-.989.316-2.211-.171-.632-.338-.632S960.09,652.847,960.09,654.063Z" transform="translate(-696.373 -484.595)"/><path class="ad" d="M953.326,658.543c1.071.584,2,.948,2.082.786s-.72-.742-1.791-1.323-.647-.158-.73,0S952.255,657.959,953.326,658.543Z" transform="translate(-691.298 -487.62)"/><path class="ab" d="M962.76,700.012s7.4-.227,9.63-1.816,11.37-3.474,11.936-.948,11.121,12.669,2.767,12.735-19.412-1.3-21.639-2.656S962.76,700.012,962.76,700.012Z" transform="translate(-698.199 -513.826)"/><path class="ac" d="M987.242,717.753c-8.354.066-19.412-1.3-21.639-2.656-1.7-1.033-2.372-4.738-2.6-6.447h-.246s.468,5.97,2.694,7.325,13.285,2.726,21.639,2.656c2.413-.019,3.244-.878,3.2-2.148C989.958,717.257,989.051,717.737,987.242,717.753Z" transform="translate(-698.199 -522.471)"/><path class="z" d="M259.25,187.863h-1.984a1.39,1.39,0,1,0,0-2.776H241.2a1.39,1.39,0,0,0,0,2.776h1.984a1.39,1.39,0,0,0,0,2.776H240.4a1.39,1.39,0,0,0,0,2.776h16.07a1.39,1.39,0,1,0,0-2.776h2.776a1.39,1.39,0,0,0,0-2.776Z" transform="translate(-203.093 -164.274)"/></g></svg>