<svg xmlns="http://www.w3.org/2000/svg" xmlns:xlink="http://www.w3.org/1999/xlink" width="320.472" height="229.117" viewBox="0 0 320.472 229.117"><defs><style>.a,.f,.i{fill:#3182ce;}.a,.g,.h,.n,.o{opacity:0.1;}.b{fill:url(#a);}.c,.d{fill:#fff;}.d{opacity:0.04;}.e,.g{fill:#5a5773;}.f{opacity:0.2;}.j{fill:url(#b);}.k{fill:#c37098;}.l{fill:#3f3d56;}.m,.r{fill:none;}.n{stroke:#3182ce;}.n,.r{stroke-miterlimit:10;}.p{fill:#535461;}.q{fill:#9d9cb5;}.r{stroke:#535461;stroke-width:2px;}</style><linearGradient id="a" x1="0.5" y1="1" x2="0.5" gradientUnits="objectBoundingBox"><stop offset="0" stop-color="gray" stop-opacity="0.251"/><stop offset="0.54" stop-color="gray" stop-opacity="0.122"/><stop offset="1" stop-color="gray" stop-opacity="0.102"/></linearGradient><linearGradient id="b" x1="0.5" y1="1" x2="0.5" xlink:href="#a"/></defs><g transform="translate(0.032 -0.003)"><path class="a" d="M394.781,194.076c-7.425,15.316-22.5,25.558-38.124,32.312a144.929,144.929,0,0,1-67.041,11.178q-6.005-.4-11.974-1.277a151.021,151.021,0,0,1-40.036-11.658q-5.516-2.484-10.809-5.424a138.281,138.281,0,0,1-16.9-11.049q-2.02-1.543-3.985-3.163c-.908-.749-1.808-1.515-2.722-2.258a34.346,34.346,0,0,0-6.125-4.172,21.881,21.881,0,0,0-2.051-.905c-7.008-2.666-15.09-1.66-22.386.419-5.55,1.582-10.96,3.747-16.5,5.293a54.768,54.768,0,0,1-7.52,1.6,40.019,40.019,0,0,1-16.9-1.484l-.467-.145q-1.174-.369-2.328-.808l-.467-.179q-1.118-.43-2.188-.925l-.467-.212q-1.118-.52-2.188-1.1c-.257-.134-.511-.279-.763-.416a45.736,45.736,0,0,1-10.943-8.52c-.092-.092-.179-.187-.279-.279-.444-.481-.88-.97-1.3-1.47-.156-.184-.313-.369-.467-.559q-.752-.917-1.45-1.875c-.07-.092-.137-.187-.2-.279a40.406,40.406,0,0,1-4.711-8.52c-.039-.092-.075-.187-.109-.279q-.559-1.439-1.02-2.926c-.126-.414-.246-.838-.352-1.252-.036-.123-.07-.249-.1-.372-1.543-6.072-1.719-12.385-1.719-18.661v-2.194c.045-10.152.2-20.478,1.7-30.49a1.272,1.272,0,0,1,.031-.207,95.224,95.224,0,0,1,2.043-10.01,73.841,73.841,0,0,1,3.44-10.144,94.237,94.237,0,0,1,14.02-22.313c14.014-17.2,32.393-31.638,53.9-37.043a79.327,79.327,0,0,1,67.639,14.643c5.7,4.538,10.823,9.912,17.225,13.391,5.589,3.029,12.131,4.284,18.116,1.9,4.946-1.97,8.165-2.948,13.721-2.649a115.007,115.007,0,0,1,33.634,7.045c.436.159.872.324,1.3.489,28.143,10.767,52.334,32.158,64.909,59.647q.5,1.09.97,2.2C400.342,156.483,403.052,177.008,394.781,194.076Z" transform="translate(-79.412 -40.04)"/><ellipse class="a" cx="24.669" cy="3.962" rx="24.669" ry="3.962" transform="translate(9.265 199.7)"/><ellipse class="a" cx="43.741" cy="4.248" rx="43.741" ry="4.248" transform="translate(211.5 220.625)"/><rect class="b" width="265.563" height="150.432" rx="12.49" transform="translate(32.771 30.112)"/><rect class="c" width="264.749" height="147.817" rx="12.49" transform="translate(33.193 32.227)"/><rect class="c" width="264.749" height="147.817" rx="12.49" transform="translate(33.193 32.227)"/><rect class="d" width="264.749" height="147.817" rx="12.49" transform="translate(33.193 32.227)"/><path class="e" d="M408.025,149.29H145.964a1.344,1.344,0,0,0-1.344,1.344v5.681H409.358v-5.681a1.344,1.344,0,0,0-1.333-1.344Z" transform="translate(-111.427 -118.759)"/><g transform="translate(36.664 32.227)"><circle class="c" cx="1.816" cy="1.816" r="1.816"/><circle class="c" cx="1.816" cy="1.816" r="1.816" transform="translate(4.89)"/><circle class="c" cx="1.816" cy="1.816" r="1.816" transform="translate(9.78)"/></g><rect class="f" width="71.048" height="6.03" transform="translate(54.998 50.768)"/><rect class="g" width="221.14" height="92.764" transform="translate(54.998 74.949)"/><path class="h" d="M572.26,271.407h-3.786v-7.355a15.123,15.123,0,1,0-30.244-.2v7.559h-3.778a6.321,6.321,0,0,0-6.3,6.3V307.95a6.321,6.321,0,0,0,6.3,6.3H572.26a6.318,6.318,0,0,0,6.3-6.3V277.709A6.318,6.318,0,0,0,572.26,271.407Zm-16.7,19.659V301.9a2.261,2.261,0,0,1-2.1,2.269,2.21,2.21,0,0,1-2.314-2.208v-10.9a5.03,5.03,0,1,1,4.41,0Zm8.506-19.659h-21.43v-7.559a10.711,10.711,0,0,1,21.422,0Z" transform="translate(-387.782 -190.409)"/><path class="i" d="M572.26,269.407h-3.786v-7.355a15.123,15.123,0,1,0-30.244-.2v7.559h-3.778a6.321,6.321,0,0,0-6.3,6.3V305.95a6.321,6.321,0,0,0,6.3,6.3H572.26a6.318,6.318,0,0,0,6.3-6.3V275.709A6.318,6.318,0,0,0,572.26,269.407Zm-16.7,19.659V299.9a2.261,2.261,0,0,1-2.1,2.269,2.21,2.21,0,0,1-2.314-2.208v-10.9a5.03,5.03,0,1,1,4.41,0Zm8.506-19.659h-21.43v-7.559a10.711,10.711,0,0,1,21.422,0Z" transform="translate(-387.782 -188.968)"/><rect class="g" width="22.383" height="5.284" transform="translate(253.755 66.02)"/><path class="j" d="M901.529,445.782a7.961,7.961,0,0,0-.749-2.127l-3.353-5.008h.02s-.528-2.515,0-3.75-1.884-4.273-1.884-4.273a1.8,1.8,0,0,1,.472-1.7c.766-.939-.472-3.689-.472-3.689s-.587-5.742-.645-6.62-.531-5.74-.531-5.74l-1.118-10.309-1.99-27.321-.036-.511c.246-.12.377-.2.377-.2l-.4-15.107.344-.31c3-2.716,9.923-9,9.853-9.141s-.838-10.5-.928-13.092a15.6,15.6,0,0,0-1.19-5.36c-.173-.344-.673-2.61-.88-3.568-.056-.263-.092-.428-.092-.428s-2.029-3.867-1.853-5.625.528-3.074-3.8-3.689a16.765,16.765,0,0,1-5.8-2.02,16.486,16.486,0,0,0-4.152-2.079s-1.213-2.236-2.057-1.478a11.728,11.728,0,0,1-.8-2.49l-.025-.157a8.235,8.235,0,0,0,3.253-4.655c.028-.106.05-.215.075-.321a.909.909,0,0,0,.26.047c.735,0,1.188-.819,1.875-1.079.279-.109.623-.126.838-.346a.819.819,0,0,0,.184-.618,1.26,1.26,0,0,0,0-.229.749.749,0,0,0,0-.081v.028c-.187-1.017-.975-1.92-.889-2.954.084-.972.939-1.828.869-2.775a1.508,1.508,0,0,0-.02-.224v.034a2.394,2.394,0,0,0-.559-.989,3.176,3.176,0,0,0-1.151-.967c-.388-.17-.838-.21-1.2-.414-1.067-.581-1.065-2.1-1.7-3.13a2.769,2.769,0,0,0-2.591-1.283c-.794.078-1.512.5-2.3.637a6.007,6.007,0,0,1-3.183-.559,8.762,8.762,0,0,0-3.141-.838,2.667,2.667,0,0,0-2.6,1.59c-.176.559-.089,1.16-.224,1.727a3.76,3.76,0,0,1-2.026,2.213c-.559.31-1.224.665-1.4,1.252v-.045a1.093,1.093,0,0,0-.028.143,1.065,1.065,0,0,0,0,.187,3.525,3.525,0,0,0,.355,1.168,3.222,3.222,0,0,1-.017,2.252c-.207.531-.559,1-.76,1.526a2.992,2.992,0,0,0-.184.766v-.045a3.067,3.067,0,0,0,0,.358,2.514,2.514,0,0,0,.279,1.174,2.107,2.107,0,0,0,1.255,1.053c.559.129.908-.419,1.5-.279a2.349,2.349,0,0,1,.31.1c.02.126.039.252.062.374a8.213,8.213,0,0,0,2.833,4.8,1.824,1.824,0,0,0,.031.2h0a18.753,18.753,0,0,1,.232,3.37s-.88-1.288-2.087,1.2a25.364,25.364,0,0,1-4.236,2.023c-1.087.207-4.946,1.551-4.946,1.551a3.4,3.4,0,0,1-2,.646c-1.2,0-2.2,2.635-2.059,4.069s-.087,2.49-1.207,2.549-.509,2.331-.5,2.37l-.1.489c-.218,1-.693,3.147-.861,3.482a15.644,15.644,0,0,0-1.193,5.36c-.087,2.593-.838,12.916-.925,13.092-.059.115,4.683,4.449,8.017,7.478l.483.436-1.534,14.33a3.826,3.826,0,0,0,1.576,2.794c0,.168,0,.338-.017.514a17.911,17.911,0,0,1-.469,4.236c-.469.939-.352,5.974-.352,5.974S857.2,396,856.617,397.12a7.754,7.754,0,0,0-.531,3.912c.176.458-.59,12.768-.59,12.768l-.587,5.508s.176,5.27-.355,5.388-.824,3.75-.824,3.75-1.881,2.576-1.059,3.513-.12,1.35-.207,1.582-1.794,1.118-.559,4.393a.947.947,0,0,0,.039.095c-1.157,1.607-4.823,6.791-4.6,7.578a2.076,2.076,0,0,0,.978,1.174c.864.517,2.344.757,4.7,0,3.912-1.26,3.633-2.168,3.633-2.168a1.66,1.66,0,0,1,1.649-1.582,4.631,4.631,0,0,0,2.825-1.61l-.19-.707-.26-.978c.031-.28.229-.769,1.118-1.04,1.355-.411,1-2.987,1-2.987s-.117-2.694.469-3.046.355-4.8.355-4.8a33,33,0,0,1,1.587-5.39c.939-2.168,2.062-15.051,2.062-15.051s.763-6.327,1.47-8.143a46.1,46.1,0,0,0,1.355-6.911s4.356-8.436,4.412-10.311c0,0,.559-1.758,1.118.176s2.129,6.561,2.129,6.561l1.529,5.681,1.825,8.492,1.179,7.148a11.114,11.114,0,0,0,.279,3.633c.458.939,1.118,3.1.766,3.513s.7,2.345,1,2.753,0,9.079,0,9.079,1.353,7.38,3.295,8.663a2.38,2.38,0,0,0,.43.224c-.028.8-.056,1.87-.02,2.428a.93.93,0,0,0,.061.366,10.215,10.215,0,0,0,2.59,1.816c.414,0,1.881,1.026,1.942,1.523s4.3,2.6,4.9,2.666,3.513.584,3.912-.235A1.356,1.356,0,0,0,901.529,445.782ZM891.114,340.231l.3.26s.31,2.417.531,3.141a6.068,6.068,0,0,1-.045,2.132,4.9,4.9,0,0,0,.31,1.537c.263.528-.531,1.677-.531,1.677h-.707l-.221-9.048Zm-21.022-27.017v-.053a.178.178,0,0,0-.008.053Zm-10.856,34.833a1.02,1.02,0,0,1-.045-.746,2.238,2.238,0,0,0,.148-.414,6.4,6.4,0,0,0,.162-1.118.077.077,0,0,0,0-.014,5.911,5.911,0,0,1-.042-2.118c.21-.687.528-3.141.528-3.141l.2-.17.467-.405a3.327,3.327,0,0,1,.033-.4,31.086,31.086,0,0,1,.05,4.588c-.235.232-1.09,2.515-.883,2.6a10.694,10.694,0,0,1-.182,2.174A4.451,4.451,0,0,1,859.235,348.047Z" transform="translate(-617.773 -219.63)"/><path class="k" d="M937.662,359.8v3.476l-7.131,3.585s-7.081-4.284-5.335-5.988c1.118-1.079.9-4.041.6-6.078h0c-.176-1.185-.38-2.054-.38-2.054s12.72-3.633,10.8-.875a4.338,4.338,0,0,0-.478,3.3A14.976,14.976,0,0,0,937.662,359.8Z" transform="translate(-673.676 -263.98)"/><path class="l" d="M869.6,447.956l-.919,11.323s-1.378-1.249-3.161-2.875c-3.306-3.015-8-7.327-7.944-7.442.087-.176.838-10.448.919-13.03a15.6,15.6,0,0,1,1.179-5.332,33.144,33.144,0,0,0,.838-3.468c.067-.31.109-.511.109-.511l1.542-.62s6.427,7.17,6.427,7.3-.439,5.639-.439,5.639l-.455.4-.2.17s-.307,2.406-.525,3.127a5.614,5.614,0,0,0,.042,2.107h0a6.49,6.49,0,0,1-.159,1.118,2.337,2.337,0,0,1-.148.411,1.026,1.026,0,0,0,.045.743,4.5,4.5,0,0,0,.481.919Z" transform="translate(-625.154 -318.144)"/><path class="l" d="M1009.016,448.983c.067.137-6.787,6.394-9.758,9.1l-1.347,1.221L997,447.977h2.361s.788-1.137.525-1.663a4.86,4.86,0,0,1-.3-1.529,6.089,6.089,0,0,0,.042-2.121c-.218-.724-.525-3.127-.525-3.127l-.3-.257-.355-.31s-.439-5.508-.439-5.639,6.427-7.3,6.427-7.3l1.531.612s.033.165.089.428c.207.953.7,3.208.872,3.552a15.591,15.591,0,0,1,1.179,5.332C1008.177,438.535,1008.927,448.807,1009.016,448.983Z" transform="translate(-725.615 -318.166)"/><path class="l" d="M1005.778,827.532c-.411.816-3.295.279-3.89.235s-4.8-2.16-4.857-2.655-1.515-1.515-1.923-1.515a10.217,10.217,0,0,1-2.565-1.808.894.894,0,0,1-.059-.363c-.061-.959.059-3.426.059-3.426l8.453.467,4.108,6.178a7.966,7.966,0,0,1,.743,2.115A1.4,1.4,0,0,1,1005.778,827.532Z" transform="translate(-722.349 -600.603)"/><path class="h" d="M1005.778,827.532c-.411.816-3.295.279-3.89.235s-4.8-2.16-4.857-2.655-1.515-1.515-1.923-1.515a10.217,10.217,0,0,1-2.565-1.808.894.894,0,0,1-.059-.363c-.061-.959.059-3.426.059-3.426l8.453.467,4.108,6.178a7.966,7.966,0,0,1,.743,2.115A1.4,1.4,0,0,1,1005.778,827.532Z" transform="translate(-722.349 -600.603)"/><path class="h" d="M1005.82,836.366c-.411.816-3.295.279-3.89.235s-4.8-2.16-4.857-2.655-1.515-1.515-1.923-1.515a10.219,10.219,0,0,1-2.565-1.808.893.893,0,0,1-.059-.363l2.739,1.733a11.55,11.55,0,0,1,2.216,1.78c.467.662,4.144,2.04,4.449,2.068a20.946,20.946,0,0,1,3.96-.246,1.4,1.4,0,0,1-.07.771Z" transform="translate(-722.392 -609.437)"/><path class="l" d="M861.912,823.217a4.573,4.573,0,0,1-2.794,1.6,1.646,1.646,0,0,0-1.632,1.573s.279.905-3.585,2.16c-2.333.752-3.8.514-4.655,0a2.079,2.079,0,0,1-.97-1.168c-.263-.931,4.9-8.015,4.9-8.015l4.695-.279,3.353,1.515.514,1.92Z" transform="translate(-618.443 -601.388)"/><path class="h" d="M861.912,823.217a4.573,4.573,0,0,1-2.794,1.6,1.646,1.646,0,0,0-1.632,1.573s.279.905-3.585,2.16c-2.333.752-3.8.514-4.655,0a2.079,2.079,0,0,1-.97-1.168c-.263-.931,4.9-8.015,4.9-8.015l4.695-.279,3.353,1.515.514,1.92Z" transform="translate(-618.443 -601.388)"/><path class="m" d="M864.437,832.044a4.574,4.574,0,0,1-2.794,1.6,1.646,1.646,0,0,0-1.632,1.573s.279.905-3.585,2.16c-2.333.752-3.8.514-4.656,0,2.2-.229,7.059-1.618,7.545-2.1.584-.584,1.313-2.188,1.808-2.216a19.472,19.472,0,0,0,3.138-1.724Z" transform="translate(-620.969 -610.215)"/><path class="h" d="M864.437,832.044a4.574,4.574,0,0,1-2.794,1.6,1.646,1.646,0,0,0-1.632,1.573s.279.905-3.585,2.16c-2.333.752-3.8.514-4.656,0,2.2-.229,7.059-1.618,7.545-2.1.584-.584,1.313-2.188,1.808-2.216a19.472,19.472,0,0,0,3.138-1.724Z" transform="translate(-620.969 -610.215)"/><path class="l" d="M908.369,639.071c-.525,1.224,0,3.73,0,3.73s-7.824.408-9.736-.875-3.264-8.629-3.264-8.629.279-8.626,0-9.034-1.341-2.331-.992-2.739-.279-2.565-.757-3.5-.279-3.613-.279-3.613l-1.168-7.115-1.805-8.45-1.534-5.656s-1.573-4.605-2.107-6.528-1.1-.176-1.1-.176c-.056,1.867-4.37,10.261-4.37,10.261a46.182,46.182,0,0,1-1.341,6.877c-.7,1.805-1.459,8.1-1.459,8.1s-1.118,12.824-2.04,14.981a33.05,33.05,0,0,0-1.556,5.363s.235,4.432-.349,4.781-.489,3.032-.489,3.032.349,2.563-.992,2.973-1.118,1.283-1.118,1.283-7.461,1.224-8.685-2.043.467-4.136.559-4.37,1.023-.64.207-1.576,1.048-3.5,1.048-3.5.293-3.613.816-3.731.352-5.363.352-5.363l.581-5.48s.76-12.242.584-12.709a7.764,7.764,0,0,1,.525-3.912c.584-1.118,1.048-11.312,1.048-11.312s-.118-5.01.349-5.944a17.325,17.325,0,0,0,.464-4.217c.05-1.266.061-2.314.061-2.314l6.528-2.448,8.383-2.68,7.053,3.381,10.32,1.981.129,1.78,1.97,27.193,1.118,10.258s.467,4.837.525,5.712.64,6.589.64,6.589,1.224,2.738.467,3.672a1.77,1.77,0,0,0-.467,1.677S908.894,637.847,908.369,639.071Z" transform="translate(-628.906 -423.742)"/><path class="h" d="M937.518,351.866a4.337,4.337,0,0,0-.478,3.3,8.2,8.2,0,0,1-9.94-.372h0c-.176-1.185-.38-2.054-.38-2.054S939.44,349.11,937.518,351.866Z" transform="translate(-674.975 -263.982)"/><path class="k" d="M933.775,320.657a8.148,8.148,0,1,1-2.386-5.8A8.188,8.188,0,0,1,933.775,320.657Z" transform="translate(-668.259 -236.339)"/><path class="h" d="M903.192,350.038l-2.683,47.771-14.573-3.06L883.05,375.6l2.859-25.709,2.152.277,3.795.483,3.759.232,4.074-.453Z" transform="translate(-635.971 -252.114)"/><path class="i" d="M903.192,351.3l-2.683,47.771-14.573-3.06-2.887-19.15,2.859-25.706,2.152.274,3.795.483,3.759.232,4.074-.453Z" transform="translate(-635.971 -253.022)"/><path class="l" d="M939.23,396.3l5.248.176L943,398.541s.1,4.172.8,5.368.495,19.673.495,19.673l-1.4,2.652-2.389-2.973.031-24.4Z" transform="translate(-683.989 -296.744)"/><path class="h" d="M939.23,396.3l5.248.176L943,398.541s.1,4.172.8,5.368.495,19.673.495,19.673l-1.4,2.652-2.389-2.973.031-24.4Z" transform="translate(-683.989 -296.744)"/><path class="h" d="M929.046,336.86l-4.9,5.421,2.8,2.915,4.636-4.519Z" transform="translate(-665.586 -242.725)"/><path class="i" d="M929.046,335.61l-4.9,5.421,2.8,2.915,4.636-4.519Z" transform="translate(-665.586 -241.824)"/><path class="h" d="M902.764,342.545l-4.957-4.955-.467,2.593,2.275,5.684Z" transform="translate(-646.268 -243.251)"/><path class="i" d="M903.391,341.295l-4.954-4.955-.467,2.593,2.275,5.684Z" transform="translate(-646.722 -242.35)"/><path class="h" d="M920.256,579.722a24.187,24.187,0,0,1-7.545,2.182c-4.809.612-7.956-5.508-7.956-5.508l-1.836,2.389c-.584,2.537-9.473,3.177-13.086,2.216a5.782,5.782,0,0,1-2.073-.981c.05-1.266.062-2.314.062-2.314l6.528-2.448,8.383-2.68,7.053,3.381,10.32,1.981Z" transform="translate(-646.902 -423.763)"/><path class="h" d="M930.148,391.338l-2.68,47.768-14.576-3.06L910,416.9l2.856-25.709,2.152.279a26.123,26.123,0,0,1-.316,2.794C914.343,395.9,916.5,407.5,916.5,407.5s4.1,13.008,5.944,11.133,4.471-11.776,4.471-11.776c1.78-3.672.031-13.972-.1-14.179a4.156,4.156,0,0,1-.168-.936Z" transform="translate(-662.927 -293.062)"/><path class="h" d="M999.132,510l.123,4.681-1.347,1.221L997,504.57h2.012Z" transform="translate(-725.615 -374.758)"/><path class="h" d="M890.824,493.1h0a6.5,6.5,0,0,1-.159,1.118c0-.1,0-.162-.022-.17C890.558,494.025,890.659,493.6,890.824,493.1Z" transform="translate(-648.957 -366.494)"/><path class="h" d="M890.09,502.2l-.919,11.323s-1.378-1.249-3.161-2.875l.212-2.006s.752-4.929,1.026-7.361a4.5,4.5,0,0,0,.481.919Z" transform="translate(-645.641 -372.388)"/><path class="l" d="M884.983,375.305s-.872-1.283-2.068,1.193a25,25,0,0,1-4.192,2.012c-1.073.2-4.89,1.545-4.89,1.545a3.376,3.376,0,0,1-1.981.64c-1.2,0-2.188,2.624-2.043,4.052s-.087,2.479-1.193,2.537-.5,2.359-.5,2.359l7.375,8.453s.467,7.783.235,8.017a6.9,6.9,0,0,0-.875,2.593c.2.078-1.118,8.685-1.118,8.685l-1.777,16.7s0,2.794,3.616,3.759,12.511.327,13.083-2.21l1.836-2.392s3.147,6.123,7.956,5.511a23.127,23.127,0,0,0,7.872-2.361l-.525-20.016-.349-14.428,7.509-12.337s-2.012-3.848-1.836-5.589.523-3.06-3.761-3.672a16.449,16.449,0,0,1-5.743-2.012,16.415,16.415,0,0,0-4.108-2.068s-1.2-2.236-2.037-1.47a27.5,27.5,0,0,1,.769,3.633,12.03,12.03,0,0,0,.263,2.828c.131.221,1.881,10.507.1,14.179,0,0-2.613,9.9-4.471,11.776s-5.944-11.133-5.944-11.133-2.157-11.6-1.808-13.234S884.983,375.305,884.983,375.305Z" transform="translate(-632.628 -281.142)"/><circle class="l" cx="1.283" cy="1.283" r="1.283" transform="translate(257.309 129.812)"/><circle class="l" cx="1.283" cy="1.283" r="1.283" transform="translate(257.309 135.859)"/><circle class="h" cx="1.283" cy="1.283" r="1.283" transform="translate(257.309 129.812)"/><circle class="h" cx="1.283" cy="1.283" r="1.283" transform="translate(257.309 135.859)"/><path class="n" d="M992.47,804.34s5.265.408,5.787.816S992.47,804.34,992.47,804.34Z" transform="translate(-722.351 -590.76)"/><path class="n" d="M880.3,789.53s1.118,1.4.643,2.04S880.3,789.53,880.3,789.53Z" transform="translate(-641.526 -580.089)"/><path class="n" d="M885.1,805.611s2.04-1.341,2.856-.45S885.1,805.611,885.1,805.611Z" transform="translate(-644.985 -591.132)"/><path class="h" d="M933.789,320.665a8.145,8.145,0,0,1-.263,2.071.93.93,0,0,1-.542-.911c.036-.333.257-.637.209-.967-.07-.509-.685-.715-1.009-1.118a2.6,2.6,0,0,1-.28-1.822c.034-.629-.126-1.4-.715-1.612-.176-.064-.369-.07-.539-.143-.464-.2-.606-.771-.917-1.168a2.415,2.415,0,0,0-2.794-.4,13.246,13.246,0,0,1-1.258.525,1.643,1.643,0,0,1-1.316-.1c-.185-.117-.333-.279-.523-.4a1.8,1.8,0,0,0-2.006.489,6.935,6.935,0,0,1-1.677,1.445c-.31.14-.693.224-.838.525a1.1,1.1,0,0,0-.089.523,15.619,15.619,0,0,1-.1,3.256c-.145.685-.626,1.461-1.322,1.378a1.309,1.309,0,0,1-.254-.064,8.188,8.188,0,1,1,16.236-1.515Z" transform="translate(-668.273 -236.346)"/><path class="l" d="M908.775,306.967c.209.047.408.157.623.184.7.084,1.177-.693,1.322-1.378a15.055,15.055,0,0,0,.1-3.255,1.065,1.065,0,0,1,.087-.523c.159-.3.542-.386.838-.525a7.24,7.24,0,0,0,1.677-1.445,1.785,1.785,0,0,1,2-.489c.187.112.338.279.523.4a1.677,1.677,0,0,0,1.319.1c.433-.129.838-.355,1.255-.525a2.427,2.427,0,0,1,2.794.4c.31.4.453.972.917,1.168.171.073.363.081.539.145.59.221.741.984.715,1.612a2.71,2.71,0,0,0,.28,1.822c.324.4.939.6,1.009,1.118.045.33-.173.637-.21.967a.928.928,0,0,0,.875.989c.726,0,1.176-.813,1.855-1.073a2.2,2.2,0,0,0,.838-.347.925.925,0,0,0,.173-.757c-.137-1.07-.995-2-.9-3.074.087-1.028,1.04-1.925.838-2.937a2.381,2.381,0,0,0-.559-1,3.23,3.23,0,0,0-1.14-.964,11.734,11.734,0,0,1-1.193-.411c-1.056-.578-1.053-2.087-1.677-3.116a2.736,2.736,0,0,0-2.549-1.269c-.785.078-1.5.495-2.275.634a5.9,5.9,0,0,1-3.152-.559,8.621,8.621,0,0,0-3.11-.838,2.652,2.652,0,0,0-2.582,1.582c-.173.559-.087,1.157-.221,1.719a3.751,3.751,0,0,1-2.006,2.2c-.612.341-1.347.732-1.42,1.428a2.944,2.944,0,0,0,.349,1.266,3.222,3.222,0,0,1-.017,2.236c-.2.528-.545.992-.752,1.517a2.725,2.725,0,0,0,.073,2.236,2.085,2.085,0,0,0,1.277,1.048C907.841,307.384,908.188,306.839,908.775,306.967Z" transform="translate(-659.854 -221.604)"/><g class="o" transform="translate(245.881 77.041)"><path d="M910.717,335.681c-.145.685-.629,1.461-1.324,1.378-.215-.028-.411-.137-.623-.185-.584-.128-.931.419-1.481.28a2.09,2.09,0,0,1-1.28-1.048,2.42,2.42,0,0,1-.26-.914,2.552,2.552,0,0,0,.26,1.439,2.09,2.09,0,0,0,1.28,1.048c.559.129.9-.419,1.481-.279a6.321,6.321,0,0,0,.623.182c.7.087,1.179-.69,1.325-1.375a8.079,8.079,0,0,0,.134-1.836A6.879,6.879,0,0,1,910.717,335.681Z" transform="translate(-905.733 -329.16)"/><path d="M908.478,318.243a3.216,3.216,0,0,0-.184-1.35,7.116,7.116,0,0,1-.321-.883,1.256,1.256,0,0,0-.028.143,2.993,2.993,0,0,0,.349,1.266,3.21,3.21,0,0,1,.184.824Z" transform="translate(-907.322 -315.931)"/><path d="M984.078,318.73c-.131.794-.774,1.54-.838,2.375a2,2,0,0,0,0,.43C983.38,320.56,984.243,319.7,984.078,318.73Z" transform="translate(-961.573 -317.891)"/><path d="M976.816,339.83a.657.657,0,0,1-.159.313c-.207.221-.559.238-.838.347-.679.26-1.118,1.081-1.855,1.073a.936.936,0,0,1-.838-.648,1.46,1.46,0,0,0-.039.184.928.928,0,0,0,.875.986c.729,0,1.177-.813,1.855-1.07.28-.109.62-.126.838-.346a.925.925,0,0,0,.173-.757C976.824,339.878,976.818,339.855,976.816,339.83Z" transform="translate(-954.263 -333.095)"/><path d="M970.487,333.754c-.07-.509-.685-.715-1.009-1.118a1.532,1.532,0,0,1-.307-.917,2.063,2.063,0,0,0,.307,1.442c.321.391.81.559.967.961A.9.9,0,0,0,970.487,333.754Z" transform="translate(-951.438 -327.251)"/><path d="M936.535,319.3c.022-.629-.129-1.4-.718-1.612-.173-.064-.366-.073-.536-.143-.464-.2-.609-.771-.917-1.168a2.421,2.421,0,0,0-2.794-.4c-.419.17-.819.4-1.255.525a1.643,1.643,0,0,1-1.316-.1c-.184-.117-.335-.279-.523-.4a1.8,1.8,0,0,0-2.006.489,6.944,6.944,0,0,1-1.677,1.445c-.313.14-.693.224-.855.525a1.1,1.1,0,0,0-.087.523v.327a.792.792,0,0,1,.081-.324c.162-.3.542-.386.855-.525a7.23,7.23,0,0,0,1.677-1.445,1.789,1.789,0,0,1,2.006-.489c.187.112.338.279.523.394a1.632,1.632,0,0,0,1.316.1,12.9,12.9,0,0,0,1.255-.523,2.422,2.422,0,0,1,2.795.4c.307.4.453.972.917,1.168.17.073.363.081.536.145a1.341,1.341,0,0,1,.71,1.246Z" transform="translate(-918.786 -315.727)"/></g><g class="o" transform="translate(249.867 81.349)"><path d="M920,333.339a2.143,2.143,0,0,1,1.615-2,6.707,6.707,0,0,1,3.767.17c2.652.877-.335,4.035-.335,4.035s-1.987,1.956-3.84.59a2.9,2.9,0,0,1-1.081-1.677A4.278,4.278,0,0,1,920,333.339Z" transform="translate(-919.997 -331.144)"/><path d="M955.462,333.34a2.143,2.143,0,0,0-1.618-2,6.706,6.706,0,0,0-3.764.17c-2.652.877.335,4.035.335,4.035s1.984,1.956,3.84.59a2.9,2.9,0,0,0,1.081-1.677A4.279,4.279,0,0,0,955.462,333.34Z" transform="translate(-940.883 -331.145)"/><path d="M910.5,291.415v.131h4.843v-.156Z" transform="translate(-905.617 -291.31)"/><path d="M942.654,334.546h.154V334.1a1.272,1.272,0,0,1,1.308,0v.4h.28v-.26h-.137s.056-.539-.855-.453c0,0-.732-.07-.715.394h-.167Z" transform="translate(-936.226 -333.041)"/></g><path class="i" d="M920,332.693a2.143,2.143,0,0,1,1.615-2,6.743,6.743,0,0,1,3.767.171c2.652.88-.335,4.035-.335,4.035s-1.987,1.956-3.84.59a2.888,2.888,0,0,1-1.081-1.677A4.252,4.252,0,0,1,920,332.693Z" transform="translate(-670.13 -249.33)"/><path class="i" d="M955.462,332.693a2.143,2.143,0,0,0-1.618-2,6.731,6.731,0,0,0-3.764.17c-2.652.88.335,4.035.335,4.035s1.984,1.956,3.84.59a2.887,2.887,0,0,0,1.081-1.677A4.246,4.246,0,0,0,955.462,332.693Z" transform="translate(-691.016 -249.33)"/><path class="i" d="M910.5,290.785v.134h4.843v-.159Z" transform="translate(-655.751 -209.507)"/><path class="i" d="M942.654,333.917h.154v-.444a1.28,1.28,0,0,1,1.308,0v.4h.28v-.263h-.137s.056-.536-.855-.453c0,0-.732-.067-.715.394h-.167Z" transform="translate(-686.359 -251.239)"/><rect class="p" width="1.587" height="35.741" transform="translate(33.14 127.76)"/><path class="l" d="M130.258,618.522l-.1,1.61-.14,2.272-.059.947-.14,2.275-.061.947-.14,2.272-1.6,25.84a4.376,4.376,0,0,1-4.368,4.108h-8.322a4.373,4.373,0,0,1-4.365-4.108l-1.61-25.84-.14-2.272-.059-.947-.137-2.28-.059-.947-.14-2.272-.1-1.61a2.266,2.266,0,0,1,2.263-2.406H128a2.263,2.263,0,0,1,2.261,2.412Z" transform="translate(-85.555 -455.129)"/><path class="q" d="M103.451,590.46l-.14,2.272H82.25l-.14-2.272Z" transform="translate(-58.848 -425.458)"/><path class="q" d="M103.764,601.98l-.14,2.275H82.963l-.143-2.275Z" transform="translate(-59.36 -433.759)"/><path class="q" d="M104.082,613.51l-.14,2.272H83.683l-.143-2.272Z" transform="translate(-59.878 -442.067)"/><path class="i" d="M47.809,526.94c9.244,6.687,13.095,17.149,13.095,17.149s-11.141-.383-20.4-7.07S27.41,519.87,27.41,519.87,38.563,520.253,47.809,526.94Z" transform="translate(-26.97 -385.783)"/><path class="r" d="M27.46,519.87s11.563,6.427,15.272,11.737S60.94,544.092,60.94,544.092" transform="translate(-27.006 -385.783)"/><path class="i" d="M93.154,487.078a22.407,22.407,0,0,1,7.129,9.333A20.366,20.366,0,0,1,82.06,483.23,22.237,22.237,0,0,1,93.154,487.078Z" transform="translate(-66.348 -359.382)"/><path class="r" d="M82.06,483.18s6.293,3.493,8.311,6.385,9.912,6.8,9.912,6.8" transform="translate(-66.348 -359.346)"/><path class="i" d="M155.383,507.782a30.981,30.981,0,0,0-7,14.651,28.163,28.163,0,0,0,20.93-23A30.984,30.984,0,0,0,155.383,507.782Z" transform="translate(-114.136 -371.055)"/><path class="r" d="M169.31,499.43s-7.528,6.511-9.442,11-11.488,12.016-11.488,12.016" transform="translate(-114.136 -371.055)"/></g></svg>