<svg xmlns="http://www.w3.org/2000/svg" width="320" height="231.067" viewBox="0 0 320 231.067"><defs><style>.a{fill:#3f3d56;}.b{fill:#2f2e41;}.c{fill:#fbbebe;}.d{fill:#575a89;}.e{opacity:0.4;}.f{fill:#3182ce;}.g{fill:#f2f2f2;}.h{fill:#e6e6e6;}</style></defs><rect class="a" width="2.849" height="112.516" transform="translate(277.868 112.551)"/><path class="a" d="M970.941,314.872c.181,39.344-27.5,71.367-27.5,71.367s-27.975-31.767-28.156-71.111,27.5-71.367,27.5-71.367S970.758,275.527,970.941,314.872Z" transform="translate(-663.935 -187.982)"/><rect class="a" width="1.465" height="57.87" transform="translate(222.296 165.492)"/><path class="a" d="M796.559,558.223c.093,20.236-14.144,36.706-14.144,36.706s-14.388-16.338-14.481-36.574,14.143-36.706,14.143-36.706S796.466,537.987,796.559,558.223Z" transform="translate(-559.277 -385.357)"/><ellipse class="a" cx="39.693" cy="6.084" rx="39.693" ry="6.084" transform="translate(212.945 218.898)"/><path class="b" d="M867.42,323.693c-3.363-5.682-10.016-5.947-10.016-5.947s-6.483-.829-10.642,7.825c-3.876,8.066-9.226,15.855-.861,17.743l1.511-4.7.936,5.053a32.735,32.735,0,0,0,3.579.061c8.958-.289,17.49.085,17.215-3.13C868.776,336.321,870.655,329.16,867.42,323.693Z" transform="translate(-611.507 -240.515)"/><path class="c" d="M889.234,369.576s4.346,6.084,1.738,11.01,6.084,10.141,6.084,10.141l6.374-13.907s-7.533-4.925-5.5-9.561Z" transform="translate(-645.433 -275.698)"/><circle class="c" cx="7.533" cy="7.533" r="7.533" transform="translate(239.166 81.419)"/><path class="c" d="M809.255,348.55l6.3-8.122s2.217-8.514,5.427-8.082-1.268,10.21-1.268,10.21l-6.255,8.991Z" transform="translate(-588.626 -250.889)"/><path class="c" d="M871.469,707.884,873.5,718.6l4.346,1.159-1.159-12.748Z" transform="translate(-618.975 -502.169)"/><path class="c" d="M1022.47,664.333l7.823,10.72,3.187,1.449,2.608-4.346-7.823-10.141Z" transform="translate(-726.226 -470.207)"/><path class="d" d="M875.932,403.847l-4.833-6.362s-9.364,1.727-10.233,2.6,2.318,16.8,2.318,16.8.58,4.346,3.187,6.664l2.608,1.738,21.44-4.346.806-9.54a25.035,25.035,0,0,0-6.6-19.144h0l-3.73.51Z" transform="translate(-625.177 -293.454)"/><path class="d" d="M813.381,390.006l-1.449-.579-6.664-.579s-2.318-.58-1.738-1.738,1.159-1.449,0-1.738-1.449-.579-1.159-1.449a11.535,11.535,0,0,1,2.028-2.608l-4.925-4.056s-.267.189-.7.537c-2.445,1.98-10.183,9.124-4.518,16.267,6.664,8.4,14.487,13.328,20.861,11.589Z" transform="translate(-576.533 -282.8)"/><path class="b" d="M882.537,494.155v4.056s-2.608,4.925-1.738,9.561,1.159,6.954,1.159,6.954a39.555,39.555,0,0,0,2.028,11.589c2.028,5.795-4.636,43.75,3.766,44.329s13.038,1.159,15.646-1.738-4.346-52.731-4.346-52.731,23.758,49.544,28.683,47.516,17.384-6.664,15.935-9.271-37.955-60.554-37.955-60.554l-1.159-2.608Z" transform="translate(-639.316 -363.771)"/><path class="b" d="M917.4,791.2s-4.636-.29-4.636,1.159-2.318,6.374-2.318,6.374-1.739,5.795,2.9,5.215,7.533-5.795,7.533-5.795l-1.159-5.5Z" transform="translate(-660.276 -576.793)"/><path class="b" d="M1092.96,749.12s-4.056-2.608-3.766-.869.579,6.374,2.607,6.664,8.113,2.028,8.4,2.608,7.243,2.9,7.243-.869-4.346-6.664-4.346-6.664l-4.926-3.766s-3.187-.29-3.767,1.738S1092.96,749.12,1092.96,749.12Z" transform="translate(-787.447 -544.854)"/><circle class="b" cx="4.811" cy="4.811" r="4.811" transform="translate(241.9 72.448)"/><path class="b" d="M878.439,301.735a4.811,4.811,0,0,1,4.3-4.784,4.811,4.811,0,1,0,0,9.567A4.811,4.811,0,0,1,878.439,301.735Z" transform="translate(-637.046 -225.742)"/><path class="b" d="M835.166,276.75l-6.573-3.443-9.077,1.409-1.878,8.294,4.675-.18,1.306-3.047v3l2.157-.083,1.252-4.852.782,5.164,7.669-.156Z" transform="translate(-580.741 -194.121)"/><path class="c" d="M879.631,490.794l-10.137.274s-8.65,1.683-8.164-1.808,8.924-2.27,8.924-2.27l9.237-1.409Z" transform="translate(-625.599 -359.738)"/><path class="d" d="M925.848,390.5a2.164,2.164,0,0,1,2.386,1.486c1.985,6.254,8.1,27.181,2.024,30.052-7.155,3.382-12.376,3.233-12.376,3.233l-2.795-6.881L917.632,416l2.716-17.464,1.3-7.4Z" transform="translate(-663.796 -292.19)"/><path class="e" d="M870.269,379.515,869.11,391.1l-10.141,4.346,11.3-2.608Z" transform="translate(-610.097 -269.557)"/><path class="a" d="M746.418,298.705h0a13.571,13.571,0,0,1,7.925,5.757l.948,1.468.048.061,16.626,4.865a1.212,1.212,0,0,1,.829,1.482L771.5,317.07a1.212,1.212,0,0,1-1.5.848l-16.63-4.648h0l-1.67.631a14.926,14.926,0,0,1-9.6.326h0Z" transform="translate(-540.935 -227.007)"/><ellipse class="d" cx="1.015" cy="1.904" rx="1.015" ry="1.904" transform="translate(219.053 85.328) rotate(-73.69)"/><circle class="a" cx="0.698" cy="0.698" r="0.698" transform="translate(221.445 84.524)"/><ellipse class="f" cx="8.139" cy="3.68" rx="8.139" ry="3.68" transform="matrix(0.308, -0.951, 0.951, 0.308, 197.361, 86.134)"/><path class="e" d="M746.021,307.564c1.336-4.12.973-7.96-.785-8.795a1.709,1.709,0,0,1,.312.069c1.934.627,2.377,4.6.991,8.877s-4.078,7.234-6.011,6.607a1.7,1.7,0,0,1-.205-.082C742.224,314.481,744.708,311.614,746.021,307.564Z" transform="translate(-539.665 -227.052)"/><path class="f" d="M253.467,122.956,215.733,93.685a249.729,249.729,0,0,1-19.185-16.626c-10.757-10.253-25.359-18.45-42.36-22.815-41.3-10.6-74.026,8.2-88.909,35.8-22.742,42.186-40.172,110.643,60.668,74.2,22.054-7.969,44.377-8.816,61.3-13.014l61.29-12.637Z" transform="translate(-47.765 -51.242)"/><circle class="g" cx="2.028" cy="2.028" r="2.028" transform="translate(90.388 18.402)"/><path class="g" d="M452.108,85.4h-.528v-.528h-.1V85.4h-.528v.1h.528v.528h.1V85.5h.528Z" transform="translate(-320.294 -60.282)"/><path class="g" d="M635.108,237.4h-.528v-.528h-.1v.528h-.528v.1h.528v.528h.1V237.5h.528Z" transform="translate(-450.273 -168.243)"/><path class="g" d="M622.108,284.4h-.528v-.528h-.1v.528h-.528v.1h.528v.528h.1V284.5h.528Z" transform="translate(-441.039 -201.626)"/><path class="g" d="M63.108,324.4H62.58v-.528h-.1v.528h-.528v.1h.528v.528h.1V324.5h.528Z" transform="translate(-44 -230.036)"/><path class="g" d="M143.108,106.4h-.528v-.528h-.1v.528h-.528v.1h.528v.528h.1V106.5h.528Z" transform="translate(-100.822 -75.198)"/><path class="g" d="M454.108,292.4h-.528v-.528h-.1v.528h-.528v.1h.528v.528h.1V292.5h.528Z" transform="translate(-321.714 -207.308)"/><path class="g" d="M263.108,42.4h-.528v-.528h-.1V42.4h-.528v.1h.528v.528h.1V42.5h.528Z" transform="translate(-186.054 -29.741)"/><path class="h" d="M312.8,238.915l-.658.1c.206,1.315.368,2.66.487,3.99l.663-.058C313.176,241.6,313.011,240.245,312.8,238.915Z" transform="translate(-235.545 -184.54)"/><path class="h" d="M306.642,211.575l-.637.194c.385,1.275.73,2.582,1.023,3.882l.652-.148C307.381,214.188,307.031,212.867,306.642,211.575Z" transform="translate(-231.184 -165.121)"/><path class="h" d="M296.811,185.355l-.606.278c.556,1.214,1.078,2.46,1.55,3.706l.623-.235C297.9,187.844,297.375,186.581,296.811,185.355Z" transform="translate(-224.224 -146.498)"/><path class="h" d="M283.517,160.775l-.562.356c.716,1.124,1.4,2.289,2.04,3.457l.585-.319C284.937,163.087,284.241,161.911,283.517,160.775Z" transform="translate(-214.813 -129.04)"/><path class="h" d="M266.992,138.245l-.507.432c.863,1.014,1.7,2.074,2.5,3.146l.533-.4C268.716,140.343,267.867,139.271,266.992,138.245Z" transform="translate(-203.115 -113.037)"/><path class="h" d="M247.568,118.185l-.443.5c1,.889,1.973,1.825,2.9,2.779l.478-.466C249.565,120.028,248.577,119.083,247.568,118.185Z" transform="translate(-189.364 -98.79)"/><path class="h" d="M225.619,100.965l-.374.55c1.107.745,2.2,1.538,3.254,2.358l.411-.524C227.844,102.521,226.737,101.718,225.619,100.965Z" transform="translate(-173.823 -86.559)"/><path class="h" d="M206.4,89.006v.753c.692.362,1.379.742,2.051,1.13l.333-.577Q207.616,89.634,206.4,89.006Z" transform="translate(-160.442 -78.064)"/><path class="h" d="M314.57,267.191l.666-.012c.012.673.013,1.349,0,2.01l-.666-.01C314.583,268.525,314.582,267.856,314.57,267.191Z" transform="translate(-237.268 -204.615)"/><path class="h" d="M177.8,435.915l-.658.1c.206,1.315.368,2.66.487,3.99l.663-.058C178.176,438.6,178.011,437.245,177.8,435.915Z" transform="translate(-139.659 -324.463)"/><path class="h" d="M171.642,408.575l-.637.194c.385,1.275.73,2.582,1.023,3.883l.652-.148C172.381,411.188,172.031,409.867,171.642,408.575Z" transform="translate(-135.298 -305.044)"/><path class="h" d="M161.811,382.355l-.606.278c.556,1.214,1.078,2.46,1.55,3.706l.623-.235C162.9,384.844,162.376,383.581,161.811,382.355Z" transform="translate(-128.338 -286.421)"/><path class="h" d="M148.517,357.775l-.562.356c.716,1.124,1.4,2.289,2.04,3.456l.585-.319C149.937,360.087,149.241,358.911,148.517,357.775Z" transform="translate(-118.927 -268.962)"/><path class="h" d="M131.992,335.245l-.507.432c.863,1.014,1.7,2.075,2.5,3.147l.533-.4C133.716,337.343,132.867,336.271,131.992,335.245Z" transform="translate(-107.229 -252.96)"/><path class="h" d="M112.568,315.185l-.443.5c1,.89,1.973,1.825,2.9,2.779l.478-.466C114.565,317.028,113.577,316.083,112.568,315.185Z" transform="translate(-93.478 -238.712)"/><path class="h" d="M90.619,297.965l-.374.55c1.107.745,2.2,1.539,3.254,2.358l.411-.524C92.844,299.521,91.737,298.718,90.619,297.965Z" transform="translate(-77.937 -226.481)"/><path class="h" d="M71.4,286.005v.753c.692.362,1.379.742,2.051,1.13l.333-.577Q72.616,286.634,71.4,286.005Z" transform="translate(-64.556 -217.986)"/><path class="h" d="M179.57,464.191l.666-.012c.012.673.013,1.349,0,2.01l-.666-.01C179.583,465.525,179.582,464.856,179.57,464.191Z" transform="translate(-141.382 -344.538)"/><path class="h" d="M639.8,336.915l-.658.1c.206,1.315.368,2.66.487,3.99l.663-.058C640.176,339.6,640.011,338.245,639.8,336.915Z" transform="translate(-467.803 -254.146)"/><path class="h" d="M633.642,309.575l-.637.194c.385,1.275.73,2.582,1.023,3.882l.652-.148C634.381,312.188,634.031,310.867,633.642,309.575Z" transform="translate(-463.442 -234.727)"/><path class="h" d="M623.81,283.355l-.606.278c.556,1.214,1.078,2.46,1.55,3.706l.623-.235C624.9,285.844,624.375,284.581,623.81,283.355Z" transform="translate(-456.481 -216.104)"/><path class="h" d="M610.517,258.775l-.562.356c.716,1.124,1.4,2.289,2.04,3.457l.585-.319C611.937,261.087,611.241,259.911,610.517,258.775Z" transform="translate(-447.07 -198.646)"/><path class="h" d="M593.992,236.245l-.507.432c.863,1.014,1.7,2.075,2.5,3.147l.533-.4C595.716,238.343,594.867,237.271,593.992,236.245Z" transform="translate(-435.372 -182.644)"/><path class="h" d="M574.568,216.185l-.443.5c1,.889,1.973,1.825,2.9,2.779l.478-.466C576.564,218.028,575.577,217.083,574.568,216.185Z" transform="translate(-421.621 -168.396)"/><path class="h" d="M552.619,198.965l-.374.55c1.107.745,2.2,1.539,3.254,2.358l.411-.524C554.844,200.521,553.737,199.718,552.619,198.965Z" transform="translate(-406.08 -156.165)"/><path class="h" d="M533.405,187.005v.753c.692.362,1.379.742,2.051,1.13l.333-.577Q534.616,187.634,533.405,187.005Z" transform="translate(-392.699 -147.67)"/><path class="h" d="M641.57,365.191l.666-.012c.012.673.013,1.349,0,2.01l-.666-.01C641.583,366.525,641.582,365.856,641.57,365.191Z" transform="translate(-469.525 -274.221)"/><path class="g" d="M146.651,198.69h-.491V198.2h-.1v.491h-.491v.1h.491v.491h.1v-.491h.491Z" transform="translate(-103.396 -140.774)"/><path class="g" d="M127.11,301.047h-.491v-.491h-.1v.491h-.491v.1h.491v.491h.1v-.491h.491Z" transform="translate(-89.516 -213.475)"/><path class="g" d="M69.773,390.755h-.491v-.491h-.1v.491h-.491v.1h.491v.491h.1v-.491h.491Z" transform="translate(-48.792 -277.192)"/><path class="a" d="M264.768,193.507a35.583,35.583,0,1,1,16.51,13.256,11.51,11.51,0,1,1-16.51-13.256Z" transform="translate(-197.573 -112.908)"/><path class="f" d="M348.676,190.679c8.157,0,13.769,4.525,13.769,11.028,0,4.307-2.088,7.287-6.112,9.658-3.785,2.2-5.068,3.807-5.068,6.591h0a1.718,1.718,0,0,1-1.718,1.718h-4.17a1.718,1.718,0,0,1-1.717-1.658l-.007-.212c-.37-4.481,1.2-7.265,5.134-9.571,3.676-2.2,5.221-3.589,5.221-6.286s-2.61-4.677-5.851-4.677a5.574,5.574,0,0,0-5.307,3.157,3.84,3.84,0,0,1-3.509,2.194h0a3.775,3.775,0,0,1-3.371-5.5C338.057,193.168,342.467,190.679,348.676,190.679Zm-5.721,37.284a4.67,4.67,0,1,1,4.655,4.481A4.556,4.556,0,0,1,342.955,227.963Z" transform="translate(-252.158 -150.28)"/></svg>