<svg xmlns="http://www.w3.org/2000/svg" xmlns:xlink="http://www.w3.org/1999/xlink" width="320" height="239.079" viewBox="0 0 320 239.079"><defs><style>.a,.b,.c,.d{fill:#3182ce;}.a{opacity:0.5;}.c{opacity:0.2;}.d{opacity:0.3;}.e,.g{opacity:0.1;}.f{fill:#3f3d56;}.h{opacity:0.6;}.i{opacity:0.8;}.j{fill:url(#a);}.k{fill:#a0616a;}.l{fill:#8e5362;}.m{fill:#2f2e41;}.n{fill:#f86d70;}.o{fill:#ffc1c7;}</style><linearGradient id="a" x1="0.5" y1="1" x2="0.5" gradientUnits="objectBoundingBox"><stop offset="0" stop-color="gray" stop-opacity="0.251"/><stop offset="0.54" stop-color="gray" stop-opacity="0.122"/><stop offset="1" stop-color="gray" stop-opacity="0.102"/></linearGradient></defs><g transform="translate(0 0.004)"><path class="a" d="M275.637,70.22a.935.935,0,0,0-1.52,1.087c.174.262.365.516.545.76,2.2,2.947,3.333,6.562,4.314,10.122a4.728,4.728,0,0,1,.2,2.652,16.678,16.678,0,0,0-.454-6.966,43.093,43.093,0,0,0-2.466-6.565A5.969,5.969,0,0,0,275.637,70.22Z" transform="translate(-210.022 -62.32)"/><path class="b" d="M228.441,92.3a1.165,1.165,0,0,0-.194,2.319c.386.032.778.041,1.149.05,4.535.124,8.825,1.768,12.947,3.536a5.5,5.5,0,0,1,2.652,1.848,19.494,19.494,0,0,0-6.907-4.891,50.9,50.9,0,0,0-8.144-2.631A7.122,7.122,0,0,0,228.441,92.3Z" transform="translate(-177.073 -78.163)"/><path class="c" d="M231.272,111c-.937.035-.725,1.364.218,1.373.245,0,.492,0,.725-.021a26.546,26.546,0,0,1,8.634,1.544,4.41,4.41,0,0,1,1.942.975,15.564,15.564,0,0,0-5.045-2.59,39.08,39.08,0,0,0-5.492-1.208A4.972,4.972,0,0,0,231.272,111Z" transform="translate(-179.494 -91.351)"/><path class="a" d="M296.742,165.9c.265.9,1.5.362,1.276-.551-.059-.239-.133-.474-.2-.7a26.562,26.562,0,0,1-.648-8.745,4.445,4.445,0,0,1,.466-2.124,15.53,15.53,0,0,0-1.255,5.531,38.411,38.411,0,0,0,.191,5.619A4.952,4.952,0,0,0,296.742,165.9Z" transform="translate(-225.823 -121.529)"/><path class="c" d="M237.438,66.891c-.563-.1-.6.722-.044.849.147.032.295.056.436.08a16.206,16.206,0,0,1,4.962,2.018,2.681,2.681,0,0,1,1.034.831,9.494,9.494,0,0,0-2.684-2.189,23.236,23.236,0,0,0-3.126-1.417A2.966,2.966,0,0,0,237.438,66.891Z" transform="translate(-183.957 -60.237)"/><path class="b" d="M207.468,133.959c-1.429.737-.221,2.755,1.246,2.086.383-.177.757-.374,1.117-.56,4.364-2.263,9.429-3.1,14.438-3.739a7.078,7.078,0,0,1,3.66.189,24.763,24.763,0,0,0-9.55-.572,62.906,62.906,0,0,0-9.326,2,8.454,8.454,0,0,0-1.585.592Z" transform="translate(-162.68 -105.569)"/><path class="a" d="M222.066,149.545c-1.025.958.589,2.089,1.653,1.179.295-.239.551-.492.807-.734,3.129-2.947,7.263-5.027,11.38-6.954a26.442,26.442,0,0,1,6.279-.928c-2.9.259-8.822,1.179-11.456,2.357a63.445,63.445,0,0,0-7.473,4.2A7.846,7.846,0,0,0,222.066,149.545Z" transform="translate(-173.197 -113.295)"/><path class="b" d="M247.638,167.858c-.295,1.37,1.659,1.391,2.024.021.094-.357.171-.719.245-1.064.9-4.193,3.117-8.265,5.41-12.19a26.546,26.546,0,0,1,4.638-4.334c-2.239,1.862-6.6,5.976-8.083,8.457a63.65,63.65,0,0,0-3.766,7.7,8.087,8.087,0,0,0-.469,1.411Z" transform="translate(-191.443 -119.068)"/><path class="b" d="M292.507,44.963c-.7-1.426-2.7-.253-2.063,1.208.165.383.351.757.527,1.114,2.154,4.358,2.894,9.394,3.448,14.347a7.049,7.049,0,0,1-.242,3.627,24.843,24.843,0,0,0,.71-9.459,62.348,62.348,0,0,0-1.824-9.27,8.343,8.343,0,0,0-.557-1.568Z" transform="translate(-221.571 -44.32)"/><path class="b" d="M255.9,51.651a.265.265,0,0,0,.121.038c.08,0,.133-.08.165-.15.174-.38.074-.884.345-1.179a4.149,4.149,0,0,1,.651,1.073l1.025-.295a1.514,1.514,0,0,1-.194,1.179,1.532,1.532,0,0,1,.483.33.527.527,0,0,1,.127.542,2.6,2.6,0,0,1-.725.071,4.822,4.822,0,0,1-.077,1.35.244.244,0,0,1-.088.171c-.074.047-.174,0-.25-.041a2.357,2.357,0,0,1-.843-.884l-.383.91a.412.412,0,0,1-.168.23.274.274,0,0,1-.321-.112.769.769,0,0,1-.112-.345l-.144-.866a.206.206,0,0,0-.047-.124.221.221,0,0,0-.15-.044h-1.087c-.062-.194.13-.371.315-.454s.4-.141.5-.321c.189-.368-.295-.884-.091-1.193C255.185,51.138,255.58,51.494,255.9,51.651Z" transform="translate(-196.1 -48.583)"/><path class="a" d="M318.23,70.22a.935.935,0,0,1,1.52,1.087c-.174.262-.365.516-.545.76-2.2,2.947-3.336,6.562-4.314,10.122a4.7,4.7,0,0,0-.2,2.652,16.68,16.68,0,0,1,.457-6.966,43.265,43.265,0,0,1,2.466-6.58A5.969,5.969,0,0,1,318.23,70.22Z" transform="translate(-238.628 -62.32)"/><path class="b" d="M335.871,92.3a1.165,1.165,0,0,1,.194,2.319c-.386.032-.775.041-1.146.05-4.538.124-8.825,1.768-12.947,3.536a5.5,5.5,0,0,0-2.652,1.848,19.443,19.443,0,0,1,6.907-4.891,51.231,51.231,0,0,1,8.133-2.628A7.121,7.121,0,0,1,335.871,92.3Z" transform="translate(-242.025 -78.163)"/><path class="a" d="M346.538,111c.934.035.725,1.364-.218,1.373-.245,0-.492,0-.728-.021a26.528,26.528,0,0,0-8.631,1.544,4.41,4.41,0,0,0-1.942.975,15.564,15.564,0,0,1,5.045-2.59,38.986,38.986,0,0,1,5.492-1.208A4.971,4.971,0,0,1,346.538,111Z" transform="translate(-253.099 -91.351)"/><path class="c" d="M353.035,66.891c.566-.1.607.722.047.849-.147.032-.295.056-.439.08a16.19,16.19,0,0,0-4.959,2.018,2.682,2.682,0,0,0-1.034.831,9.455,9.455,0,0,1,2.684-2.189,23.2,23.2,0,0,1,3.123-1.417A3.087,3.087,0,0,1,353.035,66.891Z" transform="translate(-261.302 -60.237)"/><path class="c" d="M316.132,183.061c-.127.56-.9.295-.8-.295.027-.15.059-.295.091-.436a16.216,16.216,0,0,0,.053-5.354,2.711,2.711,0,0,0-.368-1.276,9.488,9.488,0,0,1,.984,3.33,23.474,23.474,0,0,1,.1,3.433A3.1,3.1,0,0,1,316.132,183.061Z" transform="translate(-239.055 -136.99)"/><path class="a" d="M346.568,167.034c.439.745-.639.692-1.114-.053-.127-.194-.239-.389-.351-.589a40.28,40.28,0,0,0-5.428-6.709,7.525,7.525,0,0,0-1.685-1.453A26.554,26.554,0,0,1,342.41,162c1.317,1.379,2.481,2.814,3.621,4.249A6.921,6.921,0,0,1,346.568,167.034Z" transform="translate(-255.194 -124.668)"/><path class="c" d="M234.074,167.034c-.439.745.642.692,1.117-.053.124-.194.239-.389.348-.589a40.16,40.16,0,0,1,5.431-6.709,7.511,7.511,0,0,1,1.683-1.453,26.8,26.8,0,0,0-4.42,3.772c-1.317,1.379-2.481,2.814-3.618,4.249A6.945,6.945,0,0,0,234.074,167.034Z" transform="translate(-181.825 -124.668)"/><path class="c" d="M282.66,183.061c.127.56.9.295.8-.295-.026-.15-.062-.295-.094-.436a16.218,16.218,0,0,1-.05-5.354,2.741,2.741,0,0,1,.365-1.276,9.482,9.482,0,0,0-.984,3.33,23.479,23.479,0,0,0-.106,3.433A3.1,3.1,0,0,0,282.66,183.061Z" transform="translate(-216.103 -136.99)"/><path class="c" d="M337.708,85.89c.563-.1.6.722.044.846-.147.032-.295.059-.436.083a16.272,16.272,0,0,0-4.962,2.015,2.734,2.734,0,0,0-1.034.831A9.485,9.485,0,0,1,334,87.478a23.63,23.63,0,0,1,3.126-1.42A2.948,2.948,0,0,1,337.708,85.89Z" transform="translate(-250.489 -73.638)"/><path class="c" d="M324.374,48.447c.486-.295.831.445.359.769-.127.085-.253.165-.377.239a16.21,16.21,0,0,0-3.845,3.724,2.741,2.741,0,0,0-.651,1.158,9.524,9.524,0,0,1,1.674-3.032,23.329,23.329,0,0,1,2.357-2.484,3.211,3.211,0,0,1,.483-.374Z" transform="translate(-242.406 -47.186)"/><path class="b" d="M348.851,133.959c1.429.737.221,2.755-1.246,2.086-.383-.177-.76-.374-1.117-.56-4.367-2.263-9.429-3.1-14.438-3.739a7.079,7.079,0,0,0-3.66.189,24.759,24.759,0,0,1,9.55-.572,62.9,62.9,0,0,1,9.326,2A8.546,8.546,0,0,1,348.851,133.959Z" transform="translate(-248.422 -105.569)"/><path class="a" d="M335.811,149.516c1.025.958-.589,2.089-1.653,1.179-.295-.239-.551-.492-.807-.734-3.138-2.95-7.263-5.039-11.389-6.966a26.444,26.444,0,0,0-6.282-.928c2.9.259,8.825,1.179,11.459,2.357a63.443,63.443,0,0,1,7.473,4.2A7.85,7.85,0,0,1,335.811,149.516Z" transform="translate(-239.458 -113.267)"/><path class="b" d="M318.953,169.81c.127,1.4-1.821,1.179-2.01-.233-.05-.365-.08-.734-.112-1.084-.371-4.276-2.063-8.592-3.831-12.773a26.507,26.507,0,0,0-4.06-4.88c1.989,2.127,5.8,6.754,6.96,9.4a63.588,63.588,0,0,1,2.773,8.109A7.989,7.989,0,0,1,318.953,169.81Z" transform="translate(-234.704 -119.456)"/><path class="b" d="M340.313,51.651a.254.254,0,0,1-.121.038c-.077,0-.13-.08-.162-.15-.177-.38-.077-.884-.345-1.179a4.149,4.149,0,0,0-.651,1.073l-1.028-.295a1.526,1.526,0,0,0,.194,1.179,1.565,1.565,0,0,0-.483.33.533.533,0,0,0-.124.542,2.6,2.6,0,0,0,.725.071,4.716,4.716,0,0,0,.077,1.35.245.245,0,0,0,.088.171c.074.047.174,0,.25-.041a2.413,2.413,0,0,0,.843-.884l.383.91a.386.386,0,0,0,.168.23.274.274,0,0,0,.321-.112.807.807,0,0,0,.112-.345l.144-.866a.206.206,0,0,1,.047-.124.221.221,0,0,1,.15-.044h1.087c.062-.194-.13-.371-.315-.454s-.407-.141-.5-.321c-.189-.368.295-.884.091-1.193C341.026,51.138,340.64,51.494,340.313,51.651Z" transform="translate(-254.894 -48.583)"/><path class="c" d="M350.819,195.054a.259.259,0,0,1-.121.035c-.08,0-.133-.08-.165-.15-.174-.377-.074-.869-.342-1.179a4.081,4.081,0,0,0-.654,1.093l-1.025-.315a1.518,1.518,0,0,0,.194,1.179,1.523,1.523,0,0,0-.483.327.536.536,0,0,0-.127.542,2.6,2.6,0,0,0,.725.074,4.8,4.8,0,0,0,.077,1.347.268.268,0,0,0,.088.174c.077.047.174,0,.25-.044a2.337,2.337,0,0,0,.843-.884l.383.91a.407.407,0,0,0,.171.227.268.268,0,0,0,.318-.109.826.826,0,0,0,.115-.345l.141-.869a.206.206,0,0,1,.047-.124.224.224,0,0,1,.153-.041c.359,0,.722-.015,1.084,0,.062-.192-.13-.371-.315-.454s-.4-.141-.5-.321c-.189-.365.295-.884.091-1.179C351.529,194.529,351.134,194.9,350.819,195.054Z" transform="translate(-262.303 -149.729)"/><path class="b" d="M380.326,98.911a.23.23,0,0,1-.121.035c-.08,0-.133-.077-.165-.147-.174-.38-.074-.884-.345-1.179a4.163,4.163,0,0,0-.651,1.1l-1.025-.318a1.517,1.517,0,0,0,.194,1.179,1.573,1.573,0,0,0-.483.327.533.533,0,0,0-.127.545,2.6,2.6,0,0,0,.725.071,4.827,4.827,0,0,0,.077,1.35.245.245,0,0,0,.088.171c.074.047.174,0,.25-.041a2.357,2.357,0,0,0,.843-.884l.383.911a.413.413,0,0,0,.168.23.277.277,0,0,0,.321-.112.77.77,0,0,0,.112-.345l.144-.884a.206.206,0,0,1,.047-.121.221.221,0,0,1,.15-.044H382c.062-.192-.13-.371-.315-.451s-.4-.141-.5-.321c-.189-.368.295-.884.091-1.179C381.036,98.395,380.647,98.76,380.326,98.911Z" transform="translate(-283.115 -81.917)"/><path class="b" d="M259.748,208.178a.348.348,0,0,1-.168.05c-.109,0-.183-.109-.23-.206-.242-.53-.1-1.217-.477-1.662a5.672,5.672,0,0,0-.908,1.526l-1.438-.454a2.133,2.133,0,0,0,.271,1.638,2.178,2.178,0,0,0-.675.46.745.745,0,0,0-.174.754,3.651,3.651,0,0,0,1.011.1,6.69,6.69,0,0,0,.106,1.877.339.339,0,0,0,.124.239c.1.068.242,0,.348-.056a3.324,3.324,0,0,0,1.179-1.249l.533,1.27a.589.589,0,0,0,.236.318.377.377,0,0,0,.445-.153,1.105,1.105,0,0,0,.159-.483l.2-1.208a.315.315,0,0,1,.068-.171.3.3,0,0,1,.212-.062c.5,0,1.008-.018,1.512-.015.088-.268-.18-.516-.439-.631s-.563-.2-.692-.448c-.265-.51.415-1.22.127-1.662C260.741,207.45,260.19,207.96,259.748,208.178Z" transform="translate(-197.301 -158.616)"/><path class="b" d="M210.677,100.538a.351.351,0,0,1-.171.05c-.106,0-.183-.109-.227-.206-.245-.53-.1-1.217-.477-1.662a5.681,5.681,0,0,0-.911,1.526l-1.429-.445a2.119,2.119,0,0,0,.268,1.638,2.163,2.163,0,0,0-.672.46.745.745,0,0,0-.177.754,3.651,3.651,0,0,0,1.011.1,6.582,6.582,0,0,0,.109,1.877.265.265,0,0,0,.471.183,3.324,3.324,0,0,0,1.179-1.249l.53,1.27a.56.56,0,0,0,.239.318.38.38,0,0,0,.445-.153,1.087,1.087,0,0,0,.156-.483l.2-1.208a.223.223,0,0,1,.277-.23c.5,0,1.008-.021,1.515-.018.085-.268-.183-.516-.439-.631s-.566-.2-.7-.448c-.262-.51.418-1.22.13-1.662C211.667,99.81,211.116,100.32,210.677,100.538Z" transform="translate(-162.691 -82.693)"/><path class="c" d="M363.918,169.236a.171.171,0,0,1-.088.027c-.059,0-.1-.059-.124-.109-.13-.295-.053-.645-.253-.884a3.091,3.091,0,0,0-.483.81l-.76-.236a1.149,1.149,0,0,0,.144.884,1.1,1.1,0,0,0-.357.242.4.4,0,0,0-.094.4,1.942,1.942,0,0,0,.536.056,3.535,3.535,0,0,0,.059,1,.177.177,0,0,0,.065.127.183.183,0,0,0,.186-.029,1.8,1.8,0,0,0,.625-.663l.295.675a.3.3,0,0,0,.124.168.2.2,0,0,0,.239-.08.589.589,0,0,0,.083-.256l.106-.642a.165.165,0,0,1,.035-.091.145.145,0,0,1,.112-.032h.8c.044-.141-.1-.274-.236-.333a.68.68,0,0,1-.368-.239c-.138-.271.224-.648.071-.884S364.151,169.119,363.918,169.236Z" transform="translate(-272.046 -131.75)"/><path class="c" d="M297.238,207.729a.236.236,0,0,1-.088.027.165.165,0,0,1-.121-.112c-.13-.28-.056-.645-.256-.884a3.044,3.044,0,0,0-.483.81l-.757-.236a1.128,1.128,0,0,0,.141.869,1.237,1.237,0,0,0-.357.245.4.4,0,0,0-.094.4,1.833,1.833,0,0,0,.536.053,3.535,3.535,0,0,0,.059,1,.183.183,0,0,0,.065.127c.056.035.13,0,.186-.029a1.8,1.8,0,0,0,.625-.663l.295.675a.3.3,0,0,0,.124.168.206.206,0,0,0,.239-.083.589.589,0,0,0,.082-.256l.106-.642a.156.156,0,0,1,.035-.088.153.153,0,0,1,.112-.032h.8c.044-.141-.1-.274-.233-.336s-.295-.1-.368-.239c-.141-.271.221-.648.068-.884S297.474,207.612,297.238,207.729Z" transform="translate(-225.014 -158.898)"/><path class="a" d="M232.713,72.989a.221.221,0,0,1-.088.027.165.165,0,0,1-.121-.112c-.13-.295-.056-.645-.253-.884a2.9,2.9,0,0,0-.483.81l-.76-.236a1.117,1.117,0,0,0,.144.884,1.214,1.214,0,0,0-.359.245.392.392,0,0,0-.091.4,1.815,1.815,0,0,0,.536.053,3.537,3.537,0,0,0,.056,1,.183.183,0,0,0,.065.127c.056.035.13,0,.186-.029a1.768,1.768,0,0,0,.625-.663l.295.675a.3.3,0,0,0,.127.168.2.2,0,0,0,.236-.083.589.589,0,0,0,.083-.256l.106-.642a.15.15,0,0,1,.035-.088.153.153,0,0,1,.112-.032h.8c.047-.141-.1-.274-.233-.336s-.295-.1-.368-.239c-.141-.271.221-.648.068-.884S232.948,72.872,232.713,72.989Z" transform="translate(-179.503 -63.861)"/><path class="a" d="M267.057,148.916a.174.174,0,0,1-.091.027c-.056,0-.1-.056-.121-.109-.13-.28-.056-.645-.253-.884a2.97,2.97,0,0,0-.483.81l-.76-.236a1.14,1.14,0,0,0,.144.884,1.179,1.179,0,0,0-.357.245.392.392,0,0,0-.094.4,1.824,1.824,0,0,0,.536.053,3.537,3.537,0,0,0,.056,1,.2.2,0,0,0,.065.127c.056.035.13,0,.186-.032a1.744,1.744,0,0,0,.625-.66l.295.675a.318.318,0,0,0,.127.168.2.2,0,0,0,.236-.082.589.589,0,0,0,.085-.256l.106-.642a.133.133,0,0,1,.035-.088.144.144,0,0,1,.112-.032h.8c.047-.141-.094-.274-.233-.336s-.295-.106-.368-.239c-.138-.271.224-.648.068-.884S267.29,148.8,267.057,148.916Z" transform="translate(-203.726 -117.417)"/><path class="a" d="M242.127,119.316a.162.162,0,0,1-.088.027c-.059,0-.1-.056-.121-.109-.13-.28-.056-.645-.256-.884a3.044,3.044,0,0,0-.483.81l-.757-.236a1.129,1.129,0,0,0,.141.884,1.238,1.238,0,0,0-.357.245.392.392,0,0,0-.094.4,1.833,1.833,0,0,0,.536.053,3.536,3.536,0,0,0,.059,1,.183.183,0,0,0,.065.127c.056.035.13,0,.186-.032a1.744,1.744,0,0,0,.625-.66l.295.675a.3.3,0,0,0,.124.168.206.206,0,0,0,.239-.083.589.589,0,0,0,.083-.256l.106-.642a.15.15,0,0,1,.035-.088.153.153,0,0,1,.112-.032h.8c.044-.141-.1-.274-.233-.336s-.295-.106-.368-.239c-.141-.271.221-.648.068-.884S242.363,119.2,242.127,119.316Z" transform="translate(-186.142 -96.539)"/><path class="a" d="M349.187,126.286a.171.171,0,0,1-.088.027c-.059,0-.1-.056-.124-.109-.127-.28-.053-.645-.253-.884a3.043,3.043,0,0,0-.483.81l-.757-.236a1.128,1.128,0,0,0,.141.869,1.114,1.114,0,0,0-.357.245.392.392,0,0,0-.094.4,1.938,1.938,0,0,0,.536.053,3.535,3.535,0,0,0,.059,1,.183.183,0,0,0,.065.127c.056.035.13,0,.186-.032a1.792,1.792,0,0,0,.625-.66l.295.672a.3.3,0,0,0,.124.171.206.206,0,0,0,.239-.082.589.589,0,0,0,.083-.256l.106-.642a.165.165,0,0,1,.035-.091.156.156,0,0,1,.112-.029h.8c.044-.141-.1-.274-.233-.336s-.295-.106-.368-.239c-.141-.271.221-.648.068-.884S349.423,126.172,349.187,126.286Z" transform="translate(-261.656 -101.455)"/><path class="c" d="M297.238,120.466a.162.162,0,0,1-.088.027c-.059,0-.1-.059-.121-.109-.13-.295-.056-.645-.256-.884a3.139,3.139,0,0,0-.483.81l-.757-.236a1.135,1.135,0,0,0,.141.884,1.179,1.179,0,0,0-.357.242.4.4,0,0,0-.094.4,2.063,2.063,0,0,0,.536.053,3.537,3.537,0,0,0,.059,1,.171.171,0,0,0,.065.127c.056.038.13,0,.186-.029a1.768,1.768,0,0,0,.625-.663l.295.675a.3.3,0,0,0,.124.168.2.2,0,0,0,.239-.08.589.589,0,0,0,.082-.256l.106-.642a.165.165,0,0,1,.035-.091.186.186,0,0,1,.112-.032h.8c.044-.141-.1-.274-.233-.333a.69.69,0,0,1-.368-.239c-.141-.271.221-.648.068-.884S297.473,120.352,297.238,120.466Z" transform="translate(-225.014 -97.35)"/><path class="d" d="M280.938,127.556a.171.171,0,0,1-.088.027c-.059,0-.1-.056-.124-.109-.13-.295-.053-.645-.253-.884a3.141,3.141,0,0,0-.483.81l-.76-.233a1.141,1.141,0,0,0,.144.869,1.155,1.155,0,0,0-.357.242.4.4,0,0,0-.094.4,2.063,2.063,0,0,0,.536.053,3.558,3.558,0,0,0,.059,1,.183.183,0,0,0,.065.127c.056.035.13,0,.186-.032a1.768,1.768,0,0,0,.625-.663l.295.675a.3.3,0,0,0,.124.171.206.206,0,0,0,.239-.083.59.59,0,0,0,.083-.256l.106-.642a.165.165,0,0,1,.035-.091.174.174,0,0,1,.112-.032h.8c.044-.144-.1-.277-.233-.336a.69.69,0,0,1-.368-.239c-.141-.271.221-.648.068-.884S281.173,127.442,280.938,127.556Z" transform="translate(-213.517 -102.351)"/><path class="c" d="M265.748,84.686a.174.174,0,0,1-.091.027c-.056,0-.1-.056-.121-.109-.13-.295-.056-.645-.253-.884a3,3,0,0,0-.483.807l-.76-.233a1.117,1.117,0,0,0,.144.884,1.205,1.205,0,0,0-.359.242.4.4,0,0,0-.091.4,1.93,1.93,0,0,0,.536.053,3.557,3.557,0,0,0,.056,1,.183.183,0,0,0,.065.127c.056.035.13,0,.186-.032a1.733,1.733,0,0,0,.625-.663l.295.675a.315.315,0,0,0,.127.171.2.2,0,0,0,.239-.109.589.589,0,0,0,.085-.256l.1-.642a.165.165,0,0,1,.035-.091.185.185,0,0,1,.112-.032h.8c.047-.144-.094-.277-.233-.336a.679.679,0,0,1-.368-.239c-.138-.271.221-.648.068-.884S265.98,84.557,265.748,84.686Z" transform="translate(-202.803 -72.113)"/><path class="d" d="M295.678,140.679a.2.2,0,0,1-.091.026c-.056,0-.1-.059-.121-.112-.13-.28-.056-.642-.253-.884a3.014,3.014,0,0,0-.483.81l-.76-.236a1.123,1.123,0,0,0,.144.884,1.152,1.152,0,0,0-.359.242.4.4,0,0,0-.091.4,1.93,1.93,0,0,0,.536.056,3.539,3.539,0,0,0,.056,1,.2.2,0,0,0,.065.127.183.183,0,0,0,.186-.029,1.768,1.768,0,0,0,.625-.663l.295.675a.3.3,0,0,0,.127.168.2.2,0,0,0,.236-.08.59.59,0,0,0,.085-.256l.106-.642a.121.121,0,0,1,.147-.124h.8c.047-.141-.094-.274-.233-.333a.679.679,0,0,1-.368-.239c-.139-.271.221-.648.068-.884S295.911,140.55,295.678,140.679Z" transform="translate(-223.914 -111.605)"/><g class="e" transform="translate(204.555 73.151)"><ellipse class="f" cx="5.301" cy="6.939" rx="5.301" ry="6.939" transform="translate(20.211 143.103)"/><path class="f" d="M829.259,674.232a8.342,8.342,0,0,0,1.108-4.24c0-3.831-2.375-6.942-5.3-6.942s-5.3,3.109-5.3,6.942a8.372,8.372,0,0,0,1.117,4.24,8.675,8.675,0,0,0,0,8.483,8.669,8.669,0,0,0,0,8.48,8.39,8.39,0,0,0-1.108,4.243c0,3.831,2.375,6.939,5.3,6.939s5.3-3.106,5.3-6.939a8.359,8.359,0,0,0-1.117-4.234,8.669,8.669,0,0,0,0-8.48A8.675,8.675,0,0,0,829.259,674.232Z" transform="translate(-799.56 -553.889)"/><ellipse class="f" cx="5.301" cy="6.939" rx="5.301" ry="6.939" transform="translate(20.211 100.689)"/><ellipse class="f" cx="5.301" cy="6.939" rx="5.301" ry="6.939" transform="translate(20.211 92.209)"/><path class="b" d="M796.565,333.686a25.094,25.094,0,0,0,1.974-2.908l-13.931-2.287,15.066.112a25.444,25.444,0,0,0,.486-20.122l-20.214,10.487,18.64-13.7a25.4,25.4,0,1,0-41.942,28.423,25.492,25.492,0,0,0-2.9,4.629l18.083,9.394-19.279-6.482a25.405,25.405,0,0,0,4.093,23.847,25.394,25.394,0,1,0,39.92,0,25.4,25.4,0,0,0,0-31.4Z" transform="translate(-751.208 -292.586)"/><path class="g" d="M751.219,484.455a25.284,25.284,0,0,0,5.434,15.7,25.394,25.394,0,1,0,39.92,0C799.976,495.844,751.219,481.606,751.219,484.455Z" transform="translate(-751.215 -427.655)"/></g><g class="e" transform="translate(23.107 73.151)"><ellipse class="f" cx="5.301" cy="6.939" rx="5.301" ry="6.939" transform="translate(19.978 143.102)"/><path class="f" d="M212.709,674.232a8.372,8.372,0,0,0,1.108-4.24c0-3.831-2.375-6.942-5.3-6.942s-5.3,3.109-5.3,6.942a8.342,8.342,0,0,0,1.117,4.24,8.675,8.675,0,0,0,0,8.483,8.669,8.669,0,0,0,0,8.48,8.359,8.359,0,0,0-1.108,4.243c0,3.831,2.375,6.939,5.3,6.939s5.3-3.106,5.3-6.939a8.389,8.389,0,0,0-1.108-4.243,8.669,8.669,0,0,0,0-8.48,8.675,8.675,0,0,0,0-8.483Z" transform="translate(-183.234 -553.889)"/><ellipse class="f" cx="5.301" cy="6.939" rx="5.301" ry="6.939" transform="translate(19.978 100.689)"/><ellipse class="f" cx="5.301" cy="6.939" rx="5.301" ry="6.939" transform="translate(19.978 92.209)"/><path class="b" d="M140.853,333.686a25.094,25.094,0,0,1-1.974-2.908l13.931-2.287-15.066.112a25.444,25.444,0,0,1-.486-20.122l20.214,10.487-18.64-13.7a25.4,25.4,0,1,1,41.942,28.423,25.489,25.489,0,0,1,2.9,4.629l-18.083,9.394,19.28-6.483a25.406,25.406,0,0,1-4.093,23.847,25.394,25.394,0,1,1-39.92,0,25.4,25.4,0,0,1,0-31.4Z" transform="translate(-135.419 -292.586)"/><path class="g" d="M186.206,484.455a25.285,25.285,0,0,1-5.434,15.7,25.394,25.394,0,1,1-39.92,0C137.449,495.844,186.206,481.606,186.206,484.455Z" transform="translate(-135.419 -427.655)"/></g><g class="e" transform="translate(108.293 73.165)"><ellipse class="f" cx="5.301" cy="6.939" rx="5.301" ry="6.939" transform="translate(19.978 143.088)"/><path class="f" d="M501.8,674.232a8.368,8.368,0,0,0,1.1-4.24c0-3.831-2.357-6.942-5.3-6.942s-5.3,3.109-5.3,6.942a8.342,8.342,0,0,0,1.114,4.24,8.675,8.675,0,0,0,0,8.483,8.669,8.669,0,0,0,0,8.48,8.359,8.359,0,0,0-1.108,4.243c0,3.831,2.375,6.939,5.3,6.939s5.3-3.106,5.3-6.939a8.389,8.389,0,0,0-1.1-4.243,8.687,8.687,0,0,0,0-8.48,8.693,8.693,0,0,0,0-8.483Z" transform="translate(-472.327 -553.903)"/><ellipse class="f" cx="5.301" cy="6.939" rx="5.301" ry="6.939" transform="translate(19.978 100.675)"/><ellipse class="f" cx="5.301" cy="6.939" rx="5.301" ry="6.939" transform="translate(19.978 92.195)"/><path class="b" d="M429.964,333.72a25.1,25.1,0,0,1-1.974-2.908l13.929-2.287-15.063.112a25.444,25.444,0,0,1-.486-20.122L446.583,319,427.94,305.3a25.4,25.4,0,1,1,41.945,28.423,25.317,25.317,0,0,1,2.894,4.629l-18.092,9.394,19.28-6.482a25.406,25.406,0,0,1-4.093,23.847,25.394,25.394,0,1,1-39.92,0,25.4,25.4,0,0,1,0-31.4Z" transform="translate(-424.519 -292.634)"/><path class="g" d="M475.307,484.455a25.285,25.285,0,0,1-5.434,15.7,25.394,25.394,0,1,1-39.92,0C426.549,495.844,475.307,481.606,475.307,484.455Z" transform="translate(-424.519 -427.67)"/></g><g class="h" transform="translate(140.722 36.252)"><path class="a" d="M577.951,183.735a.589.589,0,0,0-.958.684c.109.165.23.324.345.477a18.947,18.947,0,0,1,2.717,6.376,3.025,3.025,0,0,1,.124,1.683,10.483,10.483,0,0,0-.295-4.39,27.343,27.343,0,0,0-1.553-4.146A3.674,3.674,0,0,0,577.951,183.735Z" transform="translate(-564.431 -178.755)"/><path class="b" d="M548.173,197.589a.733.733,0,0,0-.124,1.459c.245.021.489.027.725.032a22.462,22.462,0,0,1,8.153,2.228,3.482,3.482,0,0,1,1.68,1.179,12.244,12.244,0,0,0-4.349-3.082,32.2,32.2,0,0,0-5.133-1.659A4.393,4.393,0,0,0,548.173,197.589Z" transform="translate(-543.628 -188.681)"/><path class="c" d="M549.969,209.389c-.589.021-.457.86.139.863h.457a16.684,16.684,0,0,1,5.439.972,2.767,2.767,0,0,1,1.223.616,9.812,9.812,0,0,0-3.179-1.632,24.253,24.253,0,0,0-3.453-.772A3.328,3.328,0,0,0,549.969,209.389Z" transform="translate(-545.164 -197.004)"/><path class="a" d="M591.193,243.945c.168.566.946.23.8-.348-.038-.15-.083-.295-.127-.439a16.8,16.8,0,0,1-.407-5.51,2.791,2.791,0,0,1,.295-1.338,9.852,9.852,0,0,0-.8,3.483,24.458,24.458,0,0,0,.121,3.536,3.362,3.362,0,0,0,.115.616Z" transform="translate(-574.331 -215.993)"/><path class="c" d="M553.856,181.578c-.357-.062-.383.457-.029.533l.274.053a10.233,10.233,0,0,1,3.126,1.27,1.694,1.694,0,0,1,.651.522,5.967,5.967,0,0,0-1.691-1.376,14.955,14.955,0,0,0-1.968-.884,2.22,2.22,0,0,0-.362-.118Z" transform="translate(-547.976 -177.384)"/><path class="b" d="M534.977,223.808c-.9.463-.138,1.736.787,1.314.242-.112.477-.236.7-.351a27.149,27.149,0,0,1,9.087-2.357,4.456,4.456,0,0,1,2.307.118,15.617,15.617,0,0,0-6.017-.359,39.307,39.307,0,0,0-5.873,1.264A5.235,5.235,0,0,0,534.977,223.808Z" transform="translate(-534.575 -205.921)"/><path class="a" d="M544.171,233.617c-.648.589.362,1.314,1.04.737.177-.153.348-.312.507-.463a27.286,27.286,0,0,1,7.169-4.382,17.657,17.657,0,0,1,3.957-.589,30.443,30.443,0,0,0-7.219,1.473,40.019,40.019,0,0,0-4.715,2.652A5.009,5.009,0,0,0,544.171,233.617Z" transform="translate(-541.197 -210.78)"/><path class="b" d="M560.273,245.156c-.189.863,1.046.884,1.276,0,.059-.224.109-.451.156-.669a27.105,27.105,0,0,1,3.406-7.679,16.156,16.156,0,0,1,2.923-2.729,29.786,29.786,0,0,0-5.092,5.324,40.077,40.077,0,0,0-2.357,4.85A5.261,5.261,0,0,0,560.273,245.156Z" transform="translate(-552.687 -214.42)"/><path class="b" d="M588.544,167.765c-.442-.9-1.7-.159-1.3.763.1.239.221.474.333.7a27.16,27.16,0,0,1,2.172,9.037,4.43,4.43,0,0,1-.153,2.284,15.617,15.617,0,0,0,.448-5.958,39.516,39.516,0,0,0-1.149-5.84A5.26,5.26,0,0,0,588.544,167.765Z" transform="translate(-571.67 -167.358)"/><path class="b" d="M565.427,171.962a.132.132,0,0,0,.074.021.13.13,0,0,0,.1-.091c.112-.242.047-.551.218-.751a2.588,2.588,0,0,1,.41.69l.648-.2a.96.96,0,0,1-.124.74,1,1,0,0,1,.295.206.339.339,0,0,1,.077.342,1.574,1.574,0,0,1-.457.047,2.946,2.946,0,0,1-.047.849.165.165,0,0,1-.056.109.153.153,0,0,1-.156-.027,1.5,1.5,0,0,1-.533-.563l-.239.572a.259.259,0,0,1-.109.144.171.171,0,0,1-.2-.068.526.526,0,0,1-.071-.218l-.091-.548a.123.123,0,0,0-.029-.077.132.132,0,0,0-.094-.027h-.684c-.041-.121.08-.233.2-.295s.253-.091.312-.2c.121-.233-.189-.554-.056-.751S565.235,171.862,565.427,171.962Z" transform="translate(-555.578 -170.026)"/><path class="a" d="M604.766,183.667a.59.59,0,0,1,.961.684c-.112.165-.23.324-.345.477a18.89,18.89,0,0,0-2.717,6.376,3.027,3.027,0,0,0-.127,1.682,10.488,10.488,0,0,1,.295-4.39,27.028,27.028,0,0,1,1.553-4.146A3.655,3.655,0,0,1,604.766,183.667Z" transform="translate(-582.436 -178.687)"/><path class="b" d="M615.844,197.589a.733.733,0,0,1,.121,1.459c-.242.021-.489.027-.722.032a22.477,22.477,0,0,0-8.156,2.228,3.488,3.488,0,0,0-1.677,1.179,12.244,12.244,0,0,1,4.349-3.082,32.262,32.262,0,0,1,5.13-1.659A4.447,4.447,0,0,1,615.844,197.589Z" transform="translate(-584.538 -188.681)"/><path class="a" d="M622.627,209.39c.589.021.454.86-.138.863h-.457a16.685,16.685,0,0,0-5.439.972,2.752,2.752,0,0,0-1.223.616,9.783,9.783,0,0,1,3.179-1.632,24.258,24.258,0,0,1,3.459-.76A3.33,3.33,0,0,1,622.627,209.39Z" transform="translate(-591.563 -197.005)"/><path class="c" d="M626.672,181.578c.357-.062.383.457.029.533l-.277.053a10.218,10.218,0,0,0-3.123,1.27,1.7,1.7,0,0,0-.651.522,5.954,5.954,0,0,1,1.688-1.376,15.165,15.165,0,0,1,1.971-.884A2.138,2.138,0,0,1,626.672,181.578Z" transform="translate(-596.698 -177.384)"/><path class="c" d="M603.462,254.779c-.08.351-.566.177-.5-.18a1.227,1.227,0,0,1,.059-.274,10.272,10.272,0,0,0,.032-3.374,1.7,1.7,0,0,0-.233-.8,5.945,5.945,0,0,1,.619,2.089,15.161,15.161,0,0,1,.068,2.163A1.828,1.828,0,0,1,603.462,254.779Z" transform="translate(-582.711 -225.755)"/><path class="a" d="M622.6,244.68c.277.469-.4.436-.7-.032-.08-.124-.15-.248-.221-.365a25.238,25.238,0,0,0-3.421-4.225,4.736,4.736,0,0,0-1.058-.916,16.9,16.9,0,0,1,2.779,2.375c.831.884,1.562,1.768,2.281,2.676a4.428,4.428,0,0,1,.342.489Z" transform="translate(-592.854 -217.989)"/><path class="c" d="M551.735,244.68c-.277.469.4.436.7-.032.077-.124.15-.248.218-.365a25.233,25.233,0,0,1,3.421-4.225,4.751,4.751,0,0,1,1.061-.916,16.922,16.922,0,0,0-2.782,2.375c-.828.884-1.562,1.768-2.281,2.676A4.422,4.422,0,0,0,551.735,244.68Z" transform="translate(-546.633 -217.989)"/><path class="c" d="M582.348,254.779c.08.351.566.177.5-.18-.018-.094-.038-.186-.059-.274a10.192,10.192,0,0,1-.032-3.374,1.668,1.668,0,0,1,.23-.8,5.947,5.947,0,0,0-.619,2.089,14.75,14.75,0,0,0-.065,2.163A2.066,2.066,0,0,0,582.348,254.779Z" transform="translate(-568.232 -225.755)"/><path class="c" d="M617.035,193.548c.354-.062.38.454.026.533-.091.021-.186.035-.274.05a10.167,10.167,0,0,0-3.126,1.273,1.717,1.717,0,0,0-.651.522,5.977,5.977,0,0,1,1.691-1.379,14.947,14.947,0,0,1,1.968-.884,1.929,1.929,0,0,1,.365-.115Z" transform="translate(-589.898 -185.827)"/><path class="c" d="M608.62,169.962c.295-.192.525.277.227.483l-.236.15a10.323,10.323,0,0,0-2.425,2.357,1.667,1.667,0,0,0-.407.731,5.985,5.985,0,0,1,1.052-1.912,14.983,14.983,0,0,1,1.491-1.565A1.883,1.883,0,0,1,608.62,169.962Z" transform="translate(-584.799 -169.163)"/><path class="b" d="M624.052,223.808c.9.463.138,1.736-.787,1.314-.242-.112-.477-.236-.7-.351a27.115,27.115,0,0,0-9.084-2.357,4.456,4.456,0,0,0-2.307.118,15.617,15.617,0,0,1,6.014-.359,39.262,39.262,0,0,1,5.875,1.264A5.389,5.389,0,0,1,624.052,223.808Z" transform="translate(-588.601 -205.922)"/><path class="a" d="M615.823,233.617c.648.589-.362,1.314-1.04.737-.177-.153-.348-.312-.51-.463a27.237,27.237,0,0,0-7.169-4.382,17.758,17.758,0,0,0-3.954-.589,30.419,30.419,0,0,1,7.216,1.473,39.829,39.829,0,0,1,4.715,2.652,5.006,5.006,0,0,1,.743.572Z" transform="translate(-582.944 -210.78)"/><path class="b" d="M605.192,246.4c.08.884-1.149.74-1.267-.144-.029-.233-.05-.463-.071-.684a27.235,27.235,0,0,0-2.419-8.047,16.718,16.718,0,0,0-2.555-3.073,29.718,29.718,0,0,1,4.385,5.923,40.153,40.153,0,0,1,1.744,5.106,4.98,4.98,0,0,1,.183.919Z" transform="translate(-579.932 -214.681)"/><path class="b" d="M618.683,171.962a.141.141,0,0,1-.077.021.139.139,0,0,1-.1-.091c-.109-.242-.047-.551-.215-.751a2.594,2.594,0,0,0-.412.69l-.645-.2a.946.946,0,0,0,.124.74,1,1,0,0,0-.295.206.339.339,0,0,0-.08.342,1.6,1.6,0,0,0,.457.047,3.039,3.039,0,0,0,.05.849.165.165,0,0,0,.056.109.153.153,0,0,0,.156-.027,1.5,1.5,0,0,0,.533-.563l.239.572a.268.268,0,0,0,.106.144.174.174,0,0,0,.2-.068.529.529,0,0,0,.071-.218l.091-.548a.124.124,0,0,1,.029-.077.133.133,0,0,1,.094-.027h.684c.041-.121-.083-.233-.2-.295s-.256-.091-.315-.2c-.118-.233.192-.554.059-.751S618.883,171.862,618.683,171.962Z" transform="translate(-592.687 -170.026)"/><path class="c" d="M625.295,262.292a.18.18,0,0,1-.077.024c-.05,0-.083-.05-.1-.094-.109-.239-.047-.551-.215-.751a2.521,2.521,0,0,0-.412.69l-.645-.2a.958.958,0,0,0,.121.74.983.983,0,0,0-.295.209.336.336,0,0,0-.08.342,1.708,1.708,0,0,0,.457.044,3.034,3.034,0,0,0,.047.849.165.165,0,0,0,.056.109c.047.029.109,0,.159-.027a1.5,1.5,0,0,0,.53-.563l.242.572a.244.244,0,0,0,.106.144.171.171,0,0,0,.2-.068.519.519,0,0,0,.074-.218l.088-.548a.174.174,0,0,1,.029-.077.136.136,0,0,1,.1-.027h.684c.038-.121-.082-.233-.2-.295s-.256-.091-.315-.2c-.118-.233.189-.551.059-.751S625.5,262.192,625.295,262.292Z" transform="translate(-597.348 -233.739)"/><path class="b" d="M643.875,201.742a.192.192,0,0,1-.077.024c-.05,0-.083-.05-.1-.094-.112-.239-.047-.551-.218-.751a2.589,2.589,0,0,0-.41.689l-.648-.2a.961.961,0,0,0,.124.74.949.949,0,0,0-.295.209.336.336,0,0,0-.08.342,1.7,1.7,0,0,0,.457.044,3.033,3.033,0,0,0,.047.849.165.165,0,0,0,.056.109.153.153,0,0,0,.156-.027,1.5,1.5,0,0,0,.533-.563l.242.572a.244.244,0,0,0,.106.144.171.171,0,0,0,.2-.068.478.478,0,0,0,.071-.218l.091-.548a.124.124,0,0,1,.029-.077.133.133,0,0,1,.094-.027h.687c.038-.121-.083-.233-.2-.295s-.253-.091-.312-.2c-.121-.233.189-.554.059-.751S644.075,201.642,643.875,201.742Z" transform="translate(-610.453 -191.031)"/><path class="b" d="M567.928,270.576a.224.224,0,0,1-.106.032c-.068,0-.115-.071-.144-.133-.153-.333-.065-.763-.295-1.046a3.605,3.605,0,0,0-.572.961l-.9-.277a1.338,1.338,0,0,0,.171,1.031,1.354,1.354,0,0,0-.424.295.469.469,0,0,0-.112.474,2.217,2.217,0,0,0,.636.065,4.29,4.29,0,0,0,.068,1.179.224.224,0,0,0,.08.153c.065.041.15,0,.218-.038a2.131,2.131,0,0,0,.743-.784l.333.8a.351.351,0,0,0,.15.2.239.239,0,0,0,.295-.1.676.676,0,0,0,.1-.295l.124-.76a.147.147,0,0,1,.177-.147h.952c.056-.168-.115-.327-.277-.4s-.354-.124-.436-.295c-.165-.321.262-.769.08-1.046C568.553,270.117,568.208,270.438,567.928,270.576Z" transform="translate(-556.403 -239.354)"/><path class="b" d="M537.012,202.776a.221.221,0,0,1-.106.029c-.068,0-.115-.068-.144-.13-.153-.333-.065-.766-.295-1.046a3.606,3.606,0,0,0-.572.961l-.9-.28a1.338,1.338,0,0,0,.171,1.031,1.473,1.473,0,0,0-.424.295.468.468,0,0,0-.109.477,2.292,2.292,0,0,0,.633.065,4.3,4.3,0,0,0,.068,1.179.218.218,0,0,0,.08.15c.065.044.15,0,.218-.035a2.115,2.115,0,0,0,.743-.787l.333.8a.383.383,0,0,0,.15.2.245.245,0,0,0,.28-.1.687.687,0,0,0,.1-.295l.124-.763a.191.191,0,0,1,.044-.106.174.174,0,0,1,.133-.038h.952c.056-.171-.112-.327-.277-.4s-.354-.127-.436-.295c-.165-.321.262-.769.083-1.046C537.637,202.328,537.292,202.638,537.012,202.776Z" transform="translate(-534.597 -191.531)"/><path class="c" d="M633.547,246.047a.1.1,0,0,1-.056.018.1.1,0,0,1-.077-.068c-.08-.18-.032-.407-.159-.557a1.946,1.946,0,0,0-.295.51l-.48-.147a.716.716,0,0,0,.091.548.7.7,0,0,0-.224.153.247.247,0,0,0-.059.253,1.177,1.177,0,0,0,.336.032,2.166,2.166,0,0,0,.038.631.118.118,0,0,0,.041.08.112.112,0,0,0,.115-.021,1.1,1.1,0,0,0,.395-.418l.177.427a.194.194,0,0,0,.08.106.13.13,0,0,0,.15-.053.407.407,0,0,0,.047-.168l.065-.407a.079.079,0,0,1,.094-.077h.5c.029-.088-.059-.171-.144-.209s-.192-.068-.233-.15c-.088-.171.139-.41.041-.557S633.7,245.976,633.547,246.047Z" transform="translate(-603.488 -222.432)"/><path class="c" d="M591.547,270.3a.124.124,0,0,1-.056.018.1.1,0,0,1-.077-.071c-.08-.177-.032-.4-.159-.554a1.9,1.9,0,0,0-.295.51l-.48-.147a.719.719,0,0,0,.091.548.7.7,0,0,0-.224.153.247.247,0,0,0-.059.253,1.177,1.177,0,0,0,.336.032,2.141,2.141,0,0,0,.038.628.127.127,0,0,0,.038.083c.035.021.083,0,.118-.021a1.1,1.1,0,0,0,.395-.418l.177.427a.2.2,0,0,0,.08.106.133.133,0,0,0,.15-.053.363.363,0,0,0,.05-.159l.068-.407a.08.08,0,0,1,.094-.077h.5c.029-.088-.059-.174-.144-.209s-.192-.068-.233-.15c-.088-.171.138-.41.041-.557S591.694,270.226,591.547,270.3Z" transform="translate(-573.863 -239.537)"/><path class="a" d="M550.895,185.427a.138.138,0,0,1-.056.018c-.038,0-.062-.038-.077-.071-.083-.177-.035-.407-.162-.554a1.855,1.855,0,0,0-.295.51l-.5-.162a.7.7,0,0,0,.088.548.8.8,0,0,0-.224.153.25.25,0,0,0-.059.253,1.3,1.3,0,0,0,.339.035,2.244,2.244,0,0,0,.035.628.112.112,0,0,0,.041.08c.035.024.08,0,.115-.018a1.119,1.119,0,0,0,.395-.418l.177.424a.183.183,0,0,0,.08.106.124.124,0,0,0,.15-.05.389.389,0,0,0,.053-.162l.065-.4a.106.106,0,0,1,.023-.059.094.094,0,0,1,.071-.018h.507c.027-.091-.062-.174-.147-.212s-.189-.065-.233-.15c-.088-.171.138-.407.044-.554S551.027,185.353,550.895,185.427Z" transform="translate(-545.171 -179.675)"/><path class="a" d="M572.539,233.215a.094.094,0,0,1-.056,0c-.035,0-.062-.035-.077-.068-.082-.177-.035-.407-.159-.557a1.85,1.85,0,0,0-.295.513l-.477-.15a.7.7,0,0,0,.091.548.752.752,0,0,0-.227.153.253.253,0,0,0-.059.253,1.31,1.31,0,0,0,.339.035,2.244,2.244,0,0,0,.035.628.118.118,0,0,0,.041.08c.035.024.083,0,.118-.018a1.113,1.113,0,0,0,.392-.418l.18.424a.182.182,0,0,0,.08.106.13.13,0,0,0,.147-.05.349.349,0,0,0,.053-.162l.068-.4a.1.1,0,0,1,.021-.059.118.118,0,0,1,.071-.021h.507c.029-.091-.062-.174-.147-.212s-.189-.065-.233-.15c-.085-.171.141-.41.044-.557S572.686,233.141,572.539,233.215Z" transform="translate(-560.457 -213.369)"/><path class="a" d="M556.839,214.607a.124.124,0,0,1-.056.018.1.1,0,0,1-.077-.071c-.082-.177-.035-.407-.159-.554a1.834,1.834,0,0,0-.295.51l-.477-.147a.707.707,0,0,0,.091.548.752.752,0,0,0-.227.153.254.254,0,0,0-.059.253,1.178,1.178,0,0,0,.339.032,2.242,2.242,0,0,0,.035.628.118.118,0,0,0,.041.082c.035.021.083,0,.118-.021a1.093,1.093,0,0,0,.392-.418l.18.427a.194.194,0,0,0,.08.106.127.127,0,0,0,.147-.053.377.377,0,0,0,.053-.162l.068-.4a.094.094,0,0,1,.021-.056.1.1,0,0,1,.071-.021h.507c.029-.088-.062-.174-.147-.209s-.189-.068-.233-.15c-.088-.171.141-.41.044-.557S556.987,214.533,556.839,214.607Z" transform="translate(-549.383 -200.257)"/><path class="a" d="M624.27,219a.138.138,0,0,1-.056.018.1.1,0,0,1-.077-.071c-.083-.177-.035-.4-.162-.554a1.9,1.9,0,0,0-.295.51l-.477-.147a.707.707,0,0,0,.088.548.739.739,0,0,0-.224.153.248.248,0,0,0-.059.253,1.18,1.18,0,0,0,.339.032,2.244,2.244,0,0,0,.035.628.118.118,0,0,0,.041.082c.035.021.08,0,.115-.021a1.1,1.1,0,0,0,.395-.418l.177.427a.194.194,0,0,0,.08.106.13.13,0,0,0,.15-.053.379.379,0,0,0,.053-.162l.065-.4a.08.08,0,0,1,.094-.077h.507c.026-.088-.062-.174-.147-.209s-.189-.068-.233-.15c-.088-.171.138-.41.044-.557S624.417,218.923,624.27,219Z" transform="translate(-596.942 -203.353)"/><path class="c" d="M591.547,215.327a.1.1,0,0,1-.056.018.1.1,0,0,1-.077-.068c-.08-.177-.032-.407-.159-.557a1.946,1.946,0,0,0-.295.51l-.48-.147a.716.716,0,0,0,.091.548.7.7,0,0,0-.224.153.248.248,0,0,0-.059.253,1.18,1.18,0,0,0,.336.032,2.161,2.161,0,0,0,.038.631.127.127,0,0,0,.038.08.118.118,0,0,0,.118-.021,1.1,1.1,0,0,0,.395-.418l.177.427a.2.2,0,0,0,.08.106.133.133,0,0,0,.15-.053.363.363,0,0,0,.05-.159l.068-.407a.08.08,0,0,1,.094-.077h.5c.029-.088-.059-.171-.144-.209s-.192-.068-.233-.15c-.088-.171.138-.41.041-.557S591.694,215.256,591.547,215.327Z" transform="translate(-573.863 -200.764)"/><path class="d" d="M581.28,219.8a.151.151,0,0,1-.059.018c-.035,0-.059-.038-.077-.071-.08-.177-.032-.407-.159-.554a1.9,1.9,0,0,0-.295.51l-.48-.147a.719.719,0,0,0,.091.548.69.69,0,0,0-.224.153.248.248,0,0,0-.059.253,1.179,1.179,0,0,0,.336.032,2.244,2.244,0,0,0,.038.628.106.106,0,0,0,.041.08c.035.024.08,0,.115-.018a1.119,1.119,0,0,0,.395-.418l.177.424a.192.192,0,0,0,.08.109.13.13,0,0,0,.15-.053.439.439,0,0,0,.053-.162l.065-.4a.08.08,0,0,1,.094-.077h.507c.027-.088-.062-.174-.147-.212s-.189-.065-.233-.147c-.088-.174.139-.41.041-.557S581.427,219.723,581.28,219.8Z" transform="translate(-566.619 -203.917)"/><path class="c" d="M571.707,192.76a.094.094,0,0,1-.056.015c-.035,0-.062-.035-.077-.068-.08-.177-.032-.407-.159-.557a1.947,1.947,0,0,0-.295.51l-.48-.147a.716.716,0,0,0,.091.548.7.7,0,0,0-.224.153.247.247,0,0,0-.059.253,1.292,1.292,0,0,0,.336.035,2.141,2.141,0,0,0,.038.628.127.127,0,0,0,.038.08c.035.024.083,0,.118-.021a1.09,1.09,0,0,0,.395-.415l.177.424a.2.2,0,0,0,.08.106.136.136,0,0,0,.15-.05.387.387,0,0,0,.05-.162l.068-.4a.106.106,0,0,1,.024-.059.112.112,0,0,1,.071-.021h.5c.029-.091-.059-.174-.144-.212s-.192-.068-.233-.15c-.088-.171.138-.41.041-.557S571.854,192.7,571.707,192.76Z" transform="translate(-559.869 -184.845)"/><path class="d" d="M590.56,228.04a.085.085,0,0,1-.133-.053c-.083-.177-.035-.407-.162-.557a1.947,1.947,0,0,0-.295.51l-.477-.147a.713.713,0,0,0,.089.548.775.775,0,0,0-.224.153.247.247,0,0,0-.059.253,1.178,1.178,0,0,0,.339.032,2.258,2.258,0,0,0,.035.631.118.118,0,0,0,.041.08.112.112,0,0,0,.115-.021,1.113,1.113,0,0,0,.395-.415l.177.424a.194.194,0,0,0,.08.106.13.13,0,0,0,.15-.053.366.366,0,0,0,.044-.165l.065-.407a.121.121,0,0,1,.024-.056.1.1,0,0,1,.071-.021h.507c.029-.088-.062-.171-.147-.209s-.189-.068-.233-.15c-.088-.171.141-.41.044-.557S590.707,227.966,590.56,228.04Z" transform="translate(-573.165 -209.729)"/></g><g class="i" transform="translate(210.851 3.46)"><path class="a" d="M841.561,82.077a.938.938,0,0,0-1.526,1.087c.174.265.365.519.548.763,2.2,2.973,3.341,6.583,4.323,10.148a4.775,4.775,0,0,1,.2,2.676,16.676,16.676,0,0,0-.457-6.986,42.629,42.629,0,0,0-2.472-6.606,5.968,5.968,0,0,0-.616-1.081Z" transform="translate(-820.037 -74.143)"/><path class="b" d="M794.245,104.188a1.168,1.168,0,0,0-.194,2.325c.389.029.778.038,1.152.05,4.547.124,8.84,1.768,12.98,3.536a5.66,5.66,0,0,1,2.673,1.856,19.536,19.536,0,0,0-6.924-4.906,52.351,52.351,0,0,0-8.168-2.652A6.939,6.939,0,0,0,794.245,104.188Z" transform="translate(-787.007 -90.01)"/><path class="c" d="M797.082,123c-.937.032-.725,1.367.218,1.373.248,0,.5,0,.731-.018a26.6,26.6,0,0,1,8.654,1.544,4.442,4.442,0,0,1,1.948.981,15.591,15.591,0,0,0-5.059-2.6,38.838,38.838,0,0,0-5.5-1.211A4.815,4.815,0,0,0,797.082,123Z" transform="translate(-789.434 -103.274)"/><path class="a" d="M862.725,177.979c.265.9,1.5.365,1.276-.551-.059-.239-.13-.474-.2-.7a26.62,26.62,0,0,1-.651-8.769,4.458,4.458,0,0,1,.466-2.127,15.6,15.6,0,0,0-1.258,5.543,38.635,38.635,0,0,0,.192,5.637,4.959,4.959,0,0,0,.174.969Z" transform="translate(-835.883 -133.489)"/><path class="c" d="M803.265,78.711c-.563-.1-.607.725-.044.849.147.032.295.059.439.083a16.261,16.261,0,0,1,4.971,2.021,2.734,2.734,0,0,1,1.04.834,9.552,9.552,0,0,0-2.693-2.2,24.112,24.112,0,0,0-3.132-1.423,3.276,3.276,0,0,0-.58-.168Z" transform="translate(-793.908 -72.035)"/><path class="b" d="M773.216,145.942c-1.432.737-.221,2.761,1.249,2.089.386-.177.76-.374,1.12-.56,4.379-2.272,9.461-3.106,14.465-3.751a7.094,7.094,0,0,1,3.672.192,24.907,24.907,0,0,0-9.576-.589,62.128,62.128,0,0,0-9.35,2.013A8.319,8.319,0,0,0,773.216,145.942Z" transform="translate(-772.575 -117.47)"/><path class="a" d="M787.85,161.561c-1.031.961.589,2.1,1.656,1.179.295-.242.551-.5.81-.74,3.135-2.947,7.281-5.039,11.409-6.972a26.568,26.568,0,0,1,6.3-.931c-2.908.259-8.84,1.179-11.492,2.357a63.32,63.32,0,0,0-7.49,4.2A7.941,7.941,0,0,0,787.85,161.561Z" transform="translate(-783.117 -125.213)"/><path class="b" d="M813.488,179.945c-.295,1.373,1.665,1.394,2.03.021.094-.359.171-.722.245-1.067.908-4.2,3.126-8.289,5.425-12.222a26.589,26.589,0,0,1,4.653-4.346c-2.245,1.868-6.615,5.99-8.106,8.48a63.723,63.723,0,0,0-3.775,7.717,7.84,7.84,0,0,0-.471,1.417Z" transform="translate(-801.411 -131.02)"/><path class="b" d="M858.483,56.72c-.7-1.429-2.7-.253-2.063,1.214.168.383.354.757.533,1.117,2.157,4.367,2.9,9.429,3.456,14.382a7.08,7.08,0,0,1-.245,3.636,24.9,24.9,0,0,0,.713-9.482,62.91,62.91,0,0,0-1.836-9.294A8.2,8.2,0,0,0,858.483,56.72Z" transform="translate(-831.626 -56.072)"/><path class="b" d="M821.75,63.434a.259.259,0,0,0,.121.035c.077,0,.133-.08.165-.15.174-.38.074-.884.345-1.179a4.1,4.1,0,0,1,.654,1.1l1.028-.318a1.535,1.535,0,0,1-.194,1.179,1.617,1.617,0,0,1,.483.33.533.533,0,0,1,.127.545,2.61,2.61,0,0,1-.725.071,4.736,4.736,0,0,1-.08,1.352.244.244,0,0,1-.088.171c-.074.05-.174,0-.25-.041a2.4,2.4,0,0,1-.846-.884l-.392.878a.407.407,0,0,1-.171.227.274.274,0,0,1-.321-.109.833.833,0,0,1-.112-.348l-.144-.884a.205.205,0,0,0-.047-.124.221.221,0,0,0-.15-.044h-1.09c-.062-.194.13-.374.315-.454s.407-.144.5-.324c.189-.368-.295-.884-.094-1.2C821.037,62.909,821.432,63.277,821.75,63.434Z" transform="translate(-806.061 -60.352)"/><path class="a" d="M884.271,82.077a.938.938,0,0,1,1.526,1.087c-.177.265-.365.519-.548.763-2.2,2.973-3.341,6.583-4.326,10.148a4.748,4.748,0,0,0-.2,2.676,16.677,16.677,0,0,1,.457-6.986,43.724,43.724,0,0,1,2.469-6.6,6.164,6.164,0,0,1,.619-1.09Z" transform="translate(-848.725 -74.143)"/><path class="b" d="M901.927,104.188a1.168,1.168,0,0,1,.194,2.325c-.386.029-.778.038-1.149.05-4.549.124-8.84,1.768-12.98,3.536a5.576,5.576,0,0,0-2.672,1.856,19.51,19.51,0,0,1,6.924-4.906,52.351,52.351,0,0,1,8.168-2.652A6.941,6.941,0,0,1,901.927,104.188Z" transform="translate(-852.098 -90.01)"/><path class="a" d="M912.648,122.994c.94.032.728,1.367-.215,1.373-.248,0-.495,0-.731-.018a26.588,26.588,0,0,0-8.654,1.544,4.425,4.425,0,0,0-1.948.981,15.589,15.589,0,0,1,5.059-2.6,38.832,38.832,0,0,1,5.519-1.217A4.8,4.8,0,0,1,912.648,122.994Z" transform="translate(-863.229 -103.273)"/><path class="c" d="M919.166,78.711c.563-.1.607.725.044.849-.147.032-.295.059-.439.083a16.278,16.278,0,0,0-4.974,2.021,2.725,2.725,0,0,0-1.037.834,9.541,9.541,0,0,1,2.69-2.2,24.332,24.332,0,0,1,3.135-1.423,3.275,3.275,0,0,1,.581-.168Z" transform="translate(-871.453 -72.035)"/><path class="c" d="M882.162,195.2c-.127.56-.9.295-.8-.295.027-.147.062-.295.094-.436a16.288,16.288,0,0,0,.05-5.366,2.712,2.712,0,0,0-.368-1.279,9.526,9.526,0,0,1,.987,3.327,23.582,23.582,0,0,1,.1,3.442A2.942,2.942,0,0,1,882.162,195.2Z" transform="translate(-849.15 -148.999)"/><path class="a" d="M912.681,179.122c.442.748-.642.7-1.12-.05-.124-.194-.239-.392-.348-.589a40.364,40.364,0,0,0-5.445-6.727,7.553,7.553,0,0,0-1.688-1.456,26.813,26.813,0,0,1,4.42,3.781c1.32,1.382,2.487,2.823,3.63,4.261a6.956,6.956,0,0,1,.551.781Z" transform="translate(-865.331 -136.642)"/><path class="c" d="M799.892,179.122c-.442.748.642.7,1.117-.05.127-.194.242-.392.351-.589a40.371,40.371,0,0,1,5.445-6.727,7.492,7.492,0,0,1,1.688-1.456,26.686,26.686,0,0,0-4.42,3.78c-1.32,1.382-2.49,2.823-3.63,4.261a6.941,6.941,0,0,0-.551.781Z" transform="translate(-791.769 -136.642)"/><path class="c" d="M848.651,195.2c.127.56.9.295.8-.295-.027-.147-.062-.295-.094-.436a16.289,16.289,0,0,1-.05-5.366,2.711,2.711,0,0,1,.368-1.279,9.525,9.525,0,0,0-.972,3.336,23.608,23.608,0,0,0-.1,3.442A2.949,2.949,0,0,0,848.651,195.2Z" transform="translate(-826.181 -148.999)"/><path class="c" d="M903.826,97.76c.563-.1.607.722.044.849-.147.032-.295.056-.439.08a16.316,16.316,0,0,0-4.974,2.024,2.711,2.711,0,0,0-1.037.831,9.492,9.492,0,0,1,2.693-2.192,23.336,23.336,0,0,1,3.132-1.423A2.847,2.847,0,0,1,903.826,97.76Z" transform="translate(-860.633 -85.47)"/><path class="c" d="M890.436,60.217c.486-.295.834.445.357.772-.124.085-.253.162-.374.239a16.2,16.2,0,0,0-3.857,3.736,2.653,2.653,0,0,0-.651,1.158,9.521,9.521,0,0,1,1.677-3.041,23.719,23.719,0,0,1,2.375-2.49,3.083,3.083,0,0,1,.474-.374Z" transform="translate(-852.515 -58.948)"/><path class="b" d="M915,145.942c1.432.737.221,2.761-1.249,2.089-.386-.177-.763-.374-1.12-.56-4.379-2.272-9.464-3.106-14.465-3.751a7.094,7.094,0,0,0-3.671.192,24.9,24.9,0,0,1,9.576-.589,62.128,62.128,0,0,1,9.349,2.013A8.391,8.391,0,0,1,915,145.942Z" transform="translate(-858.566 -117.47)"/><path class="a" d="M901.9,161.561c1.028.961-.589,2.1-1.659,1.179-.28-.242-.551-.5-.807-.74-3.138-2.947-7.284-5.039-11.409-6.972a26.59,26.59,0,0,0-6.3-.931c2.908.259,8.84,1.179,11.492,2.357a63.35,63.35,0,0,1,7.493,4.2,7.942,7.942,0,0,1,1.188.9Z" transform="translate(-849.566 -125.213)"/><path class="b" d="M884.941,181.9c.127,1.4-1.83,1.179-2.018-.233-.05-.368-.08-.737-.109-1.09-.374-4.284-2.063-8.613-3.851-12.806a26.527,26.527,0,0,0-4.072-4.891c1.995,2.133,5.814,6.777,6.98,9.429a63.448,63.448,0,0,1,2.776,8.127A8.1,8.1,0,0,1,884.941,181.9Z" transform="translate(-844.742 -131.408)"/><path class="b" d="M906.4,63.434a.259.259,0,0,1-.121.035c-.079,0-.133-.08-.165-.15-.177-.38-.074-.884-.345-1.179a4.1,4.1,0,0,0-.654,1.1l-1.028-.318a1.523,1.523,0,0,0,.195,1.179,1.631,1.631,0,0,0-.486.33.536.536,0,0,0-.124.545,2.6,2.6,0,0,0,.725.071,4.844,4.844,0,0,0,.077,1.352.256.256,0,0,0,.088.171c.077.05.177,0,.253-.041a2.4,2.4,0,0,0,.846-.884l.383.913a.4.4,0,0,0,.171.227.268.268,0,0,0,.318-.109.8.8,0,0,0,.115-.348l.141-.884a.231.231,0,0,1,.05-.124.221.221,0,0,1,.15-.044h1.09c.062-.194-.133-.374-.318-.454s-.4-.144-.5-.324c-.189-.368.295-.884.091-1.2C907.117,62.909,906.722,63.277,906.4,63.434Z" transform="translate(-865.024 -60.352)"/><path class="c" d="M916.942,207.178a.259.259,0,0,1-.121.035c-.079,0-.133-.077-.165-.147-.174-.383-.074-.884-.345-1.2a4.142,4.142,0,0,0-.654,1.1l-1.028-.318a1.535,1.535,0,0,0,.195,1.179,1.617,1.617,0,0,0-.483.33.533.533,0,0,0-.127.545,2.614,2.614,0,0,0,.725.074,4.715,4.715,0,0,0,.08,1.35.25.25,0,0,0,.088.174c.074.047.174,0,.25-.044a2.4,2.4,0,0,0,.846-.884l.383.913a.424.424,0,0,0,.171.23.3.3,0,0,0,.321-.112.834.834,0,0,0,.112-.348l.144-.869a.159.159,0,0,1,.2-.165c.362,0,.728-.015,1.09,0,.062-.194-.13-.371-.315-.454s-.407-.141-.5-.324c-.189-.365.295-.884.094-1.193C917.667,206.654,917.26,207.022,916.942,207.178Z" transform="translate(-872.459 -161.731)"/><path class="b" d="M946.53,110.8a.232.232,0,0,1-.124.035c-.077,0-.13-.077-.162-.147-.177-.38-.077-.884-.345-1.2a4.126,4.126,0,0,0-.654,1.1l-1.028-.321a1.521,1.521,0,0,0,.194,1.179,1.6,1.6,0,0,0-.486.33.548.548,0,0,0-.127.545,2.633,2.633,0,0,0,.728.074,4.823,4.823,0,0,0,.077,1.35.262.262,0,0,0,.088.174c.077.047.174,0,.25-.041a2.41,2.41,0,0,0,.849-.884l.38.913a.413.413,0,0,0,.171.23.277.277,0,0,0,.321-.112.783.783,0,0,0,.115-.348l.141-.884a.233.233,0,0,1,.047-.121.215.215,0,0,1,.153-.044h1.087c.065-.192-.13-.371-.315-.454s-.407-.141-.5-.321c-.189-.368.295-.884.091-1.2C947.243,110.274,946.845,110.642,946.53,110.8Z" transform="translate(-893.328 -93.75)"/><path class="b" d="M825.646,220.371a.348.348,0,0,1-.168.05c-.109,0-.186-.109-.23-.209-.245-.527-.1-1.217-.48-1.662a5.728,5.728,0,0,0-.911,1.526l-1.435-.442a2.142,2.142,0,0,0,.271,1.641,2.178,2.178,0,0,0-.675.46.752.752,0,0,0-.177.757,3.683,3.683,0,0,0,1.014.1,6.626,6.626,0,0,0,.109,1.883.353.353,0,0,0,.121.239.339.339,0,0,0,.351-.059,3.31,3.31,0,0,0,1.179-1.249l.533,1.273a.56.56,0,0,0,.239.318.383.383,0,0,0,.448-.153,1.139,1.139,0,0,0,.156-.483l.2-1.211a.3.3,0,0,1,.065-.174.309.309,0,0,1,.212-.059c.507,0,1.014-.021,1.518,0,.088-.271-.183-.519-.439-.634s-.566-.2-.7-.448c-.265-.513.418-1.226.127-1.668C826.639,219.64,826.088,220.156,825.646,220.371Z" transform="translate(-807.299 -170.674)"/><path class="b" d="M776.433,112.444a.36.36,0,0,1-.171.05c-.106,0-.183-.109-.23-.209-.242-.53-.1-1.217-.477-1.665a5.755,5.755,0,0,0-.913,1.529l-1.432-.445a2.124,2.124,0,0,0,.271,1.644,2.142,2.142,0,0,0-.675.46.743.743,0,0,0-.177.757,3.659,3.659,0,0,0,1.014.1,6.718,6.718,0,0,0,.106,1.883.345.345,0,0,0,.124.242c.106.068.242,0,.351-.059a3.333,3.333,0,0,0,1.179-1.249l.533,1.273a.588.588,0,0,0,.236.318.383.383,0,0,0,.448-.153,1.143,1.143,0,0,0,.159-.483l.2-1.214a.316.316,0,0,1,.068-.171.294.294,0,0,1,.212-.059c.5,0,1.011-.021,1.518-.018.085-.268-.183-.519-.442-.631s-.566-.2-.7-.451c-.262-.513.418-1.223.13-1.665C777.426,111.713,776.875,112.223,776.433,112.444Z" transform="translate(-772.586 -94.547)"/><path class="c" d="M930.121,181.326a.162.162,0,0,1-.088.027c-.059,0-.1-.059-.124-.109-.13-.295-.053-.648-.253-.884a2.971,2.971,0,0,0-.483.81l-.763-.236a1.12,1.12,0,0,0,.144.884,1.213,1.213,0,0,0-.359.245.4.4,0,0,0-.091.4,2.063,2.063,0,0,0,.536.053,3.443,3.443,0,0,0,.059,1,.185.185,0,0,0,.065.13c.056.035.13,0,.186-.032a1.768,1.768,0,0,0,.625-.663l.295.675a.316.316,0,0,0,.127.171.206.206,0,0,0,.239-.083.588.588,0,0,0,.082-.256l.106-.645a.118.118,0,0,1,.147-.121h.807c.047-.144-.1-.277-.233-.336a.71.71,0,0,1-.371-.239c-.139-.274.224-.651.068-.884S930.345,181.212,930.121,181.326Z" transform="translate(-882.26 -143.738)"/><path class="c" d="M863.223,219.919a.174.174,0,0,1-.091.027c-.056,0-.1-.059-.121-.112-.13-.28-.056-.645-.253-.884a3.04,3.04,0,0,0-.486.813l-.76-.236a1.123,1.123,0,0,0,.144.884,1.16,1.16,0,0,0-.359.245.4.4,0,0,0-.094.4,2.063,2.063,0,0,0,.539.053,3.535,3.535,0,0,0,.056,1,.183.183,0,0,0,.065.127c.056.038.13,0,.186-.029a1.767,1.767,0,0,0,.628-.663l.295.675a.316.316,0,0,0,.127.171.206.206,0,0,0,.239-.082.59.59,0,0,0,.083-.256l.106-.645a.165.165,0,0,1,.035-.091.186.186,0,0,1,.112-.032h.807c.044-.144-.1-.277-.236-.336a.68.68,0,0,1-.368-.239c-.141-.274.221-.651.068-.884S863.459,219.8,863.223,219.919Z" transform="translate(-835.073 -170.957)"/><path class="a" d="M798.524,84.826a.171.171,0,0,1-.088.027.159.159,0,0,1-.124-.109c-.13-.295-.056-.648-.253-.884a3.023,3.023,0,0,0-.486.81l-.76-.236a1.132,1.132,0,0,0,.144.884,1.152,1.152,0,0,0-.359.242.4.4,0,0,0-.094.4,1.853,1.853,0,0,0,.539.053,3.573,3.573,0,0,0,.056,1,.185.185,0,0,0,.068.127c.056.035.127,0,.186-.029a1.768,1.768,0,0,0,.625-.666l.295.678a.3.3,0,0,0,.127.168.206.206,0,0,0,.239-.083.59.59,0,0,0,.083-.256l.106-.642a.165.165,0,0,1,.035-.091.153.153,0,0,1,.112-.032h.807c.044-.141-.1-.274-.236-.336s-.295-.106-.368-.239c-.141-.271.224-.651.068-.884S798.76,84.712,798.524,84.826Z" transform="translate(-789.438 -75.672)"/><path class="a" d="M832.96,160.956a.156.156,0,0,1-.089.027c-.059,0-.1-.056-.121-.109-.13-.295-.056-.648-.256-.884a3.092,3.092,0,0,0-.483.81l-.763-.236a1.146,1.146,0,0,0,.144.884,1.179,1.179,0,0,0-.357.245.4.4,0,0,0-.094.4,1.94,1.94,0,0,0,.536.053,3.569,3.569,0,0,0,.059,1,.183.183,0,0,0,.065.127c.056.035.13,0,.186-.032a1.767,1.767,0,0,0,.628-.663l.295.675a.3.3,0,0,0,.127.171.2.2,0,0,0,.236-.083.59.59,0,0,0,.085-.256l.106-.642a.141.141,0,0,1,.038-.1.144.144,0,0,1,.112-.032h.8c.047-.141-.094-.277-.233-.336a.679.679,0,0,1-.368-.239c-.141-.271.221-.651.068-.884S833.2,160.842,832.96,160.956Z" transform="translate(-813.729 -129.37)"/><path class="a" d="M807.971,131.279a.22.22,0,0,1-.088.027.165.165,0,0,1-.121-.112c-.13-.28-.056-.645-.256-.884a3.029,3.029,0,0,0-.483.813l-.763-.236a1.152,1.152,0,0,0,.144.884,1.151,1.151,0,0,0-.359.242.4.4,0,0,0-.091.4,1.825,1.825,0,0,0,.536.053,3.569,3.569,0,0,0,.059,1,.183.183,0,0,0,.065.127c.056.035.13,0,.186-.029a1.793,1.793,0,0,0,.628-.666l.295.678a.294.294,0,0,0,.124.168.206.206,0,0,0,.239-.083.589.589,0,0,0,.085-.256l.1-.642a.165.165,0,0,1,.035-.091.156.156,0,0,1,.115-.032h.8c.047-.141-.1-.274-.233-.336s-.295-.106-.371-.239c-.138-.271.224-.651.071-.884S808.206,131.162,807.971,131.279Z" transform="translate(-796.103 -108.435)"/><path class="a" d="M915.311,138.266a.156.156,0,0,1-.088.027c-.059,0-.1-.056-.121-.109-.13-.295-.056-.648-.256-.884a3.014,3.014,0,0,0-.483.81l-.763-.236a1.146,1.146,0,0,0,.144.884,1.216,1.216,0,0,0-.359.245.4.4,0,0,0-.091.4,1.93,1.93,0,0,0,.536.053,3.574,3.574,0,0,0,.059,1,.183.183,0,0,0,.065.127c.056.035.13,0,.186-.032a1.767,1.767,0,0,0,.628-.663l.295.675a.3.3,0,0,0,.127.171.2.2,0,0,0,.236-.083.59.59,0,0,0,.085-.256l.106-.642a.118.118,0,0,1,.147-.124h.8c.047-.141-.1-.277-.233-.336a.709.709,0,0,1-.371-.239c-.139-.271.224-.651.071-.884S915.549,138.152,915.311,138.266Z" transform="translate(-871.814 -113.366)"/><path class="c" d="M863.224,132.426a.174.174,0,0,1-.091.027c-.056,0-.1-.056-.121-.109-.13-.295-.056-.648-.253-.884a3.026,3.026,0,0,0-.486.81l-.76-.236a1.132,1.132,0,0,0,.144.884,1.151,1.151,0,0,0-.359.242.4.4,0,0,0-.094.4,1.845,1.845,0,0,0,.539.053,3.569,3.569,0,0,0,.056,1,.2.2,0,0,0,.065.127c.056.035.13,0,.186-.029a1.767,1.767,0,0,0,.628-.666l.295.678a.294.294,0,0,0,.127.168.206.206,0,0,0,.239-.083.588.588,0,0,0,.083-.256l.106-.642a.164.164,0,0,1,.035-.091.153.153,0,0,1,.112-.032h.807c.044-.141-.1-.274-.236-.336s-.295-.106-.368-.239c-.142-.271.221-.651.068-.884S863.46,132.312,863.224,132.426Z" transform="translate(-835.074 -109.246)"/><path class="d" d="M846.881,139.539a.222.222,0,0,1-.089.027.165.165,0,0,1-.121-.112c-.13-.295-.056-.645-.256-.884a2.986,2.986,0,0,0-.483.813l-.763-.239a1.155,1.155,0,0,0,.144.884,1.153,1.153,0,0,0-.359.242.4.4,0,0,0-.091.4,1.824,1.824,0,0,0,.536.053,3.569,3.569,0,0,0,.059,1,.182.182,0,0,0,.065.127c.056.035.13,0,.186-.029a1.792,1.792,0,0,0,.628-.666l.295.678a.294.294,0,0,0,.127.168.2.2,0,0,0,.236-.083.59.59,0,0,0,.085-.256l.106-.642a.163.163,0,0,1,.032-.091.156.156,0,0,1,.115-.032h.8c.047-.141-.1-.274-.233-.336s-.295-.106-.371-.239c-.138-.271.224-.651.071-.884S847.116,139.422,846.881,139.539Z" transform="translate(-823.548 -114.261)"/><path class="c" d="M831.643,96.506a.174.174,0,0,1-.091.027c-.056,0-.1-.056-.121-.109-.13-.295-.056-.648-.253-.884a3.021,3.021,0,0,0-.486.81l-.76-.236a1.119,1.119,0,0,0,.144.884,1.214,1.214,0,0,0-.359.245.4.4,0,0,0-.094.4,1.962,1.962,0,0,0,.539.053,3.576,3.576,0,0,0,.056,1,.2.2,0,0,0,.065.127c.056.035.13,0,.186-.032a1.739,1.739,0,0,0,.628-.663l.295.675a.315.315,0,0,0,.127.171.206.206,0,0,0,.239-.082.588.588,0,0,0,.082-.256l.106-.642a.159.159,0,0,1,.035-.091.153.153,0,0,1,.112-.032h.807c.044-.144-.1-.277-.236-.336a.679.679,0,0,1-.368-.239c-.141-.274.221-.651.068-.884S831.879,96.392,831.643,96.506Z" transform="translate(-812.798 -83.911)"/><path class="d" d="M861.654,152.679a.251.251,0,0,1-.091.027c-.056,0-.1-.059-.121-.112-.13-.28-.056-.645-.253-.884a3.04,3.04,0,0,0-.486.813l-.76-.236a1.126,1.126,0,0,0,.144.884,1.154,1.154,0,0,0-.359.242.4.4,0,0,0-.094.4,1.853,1.853,0,0,0,.539.053,3.576,3.576,0,0,0,.056,1,.2.2,0,0,0,.065.127c.056.035.13,0,.189-.029a1.783,1.783,0,0,0,.625-.666l.295.678a.3.3,0,0,0,.127.168.206.206,0,0,0,.239-.083.59.59,0,0,0,.083-.256l.106-.642a.165.165,0,0,1,.035-.091.153.153,0,0,1,.112-.032h.807c.044-.141-.1-.274-.236-.336s-.295-.106-.368-.239c-.141-.271.221-.651.068-.884S861.89,152.556,861.654,152.679Z" transform="translate(-833.967 -123.529)"/></g><path class="f" d="M886.36,686.5a7.277,7.277,0,0,0,.964-3.695c0-3.339-2.063-6.043-4.617-6.043s-4.617,2.7-4.617,6.043a7.275,7.275,0,0,0,.964,3.695,7.568,7.568,0,0,0,0,7.39,7.568,7.568,0,0,0,0,7.39,7.568,7.568,0,0,0,0,7.39,7.286,7.286,0,0,0-.964,3.695c0,3.339,2.063,6.047,4.617,6.047s4.617-2.708,4.617-6.047a7.283,7.283,0,0,0-.964-3.695,7.567,7.567,0,0,0,0-7.39,7.567,7.567,0,0,0,0-7.39A7.567,7.567,0,0,0,886.36,686.5Z" transform="translate(-636.147 -490.408)"/><ellipse class="f" cx="4.617" cy="6.046" rx="4.617" ry="6.046" transform="translate(241.942 178.962)"/><ellipse class="f" cx="4.617" cy="6.046" rx="4.617" ry="6.046" transform="translate(241.942 171.572)"/><path class="b" d="M823.755,389.665a22.085,22.085,0,0,1-1.718-2.531l12.134-1.995-13.124.1a22.164,22.164,0,0,1-.421-17.523l17.606,9.134L821.993,364.9a22.126,22.126,0,1,1,36.538,24.751,22.22,22.22,0,0,1,2.522,4.034l-15.75,8.2,16.8-5.637a22.147,22.147,0,0,1-3.565,20.776,22.123,22.123,0,1,1-34.77,0,22.135,22.135,0,0,1,0-27.356Z" transform="translate(-594.487 -262.616)"/><path class="g" d="M863.269,521.139a22.037,22.037,0,0,1-4.732,13.678,22.123,22.123,0,1,1-34.77,0C820.788,531.051,863.269,518.655,863.269,521.139Z" transform="translate(-594.49 -380.412)"/><path class="f" d="M311.419,692.416a7.712,7.712,0,0,0,1.022-3.913c0-3.536-2.189-6.4-4.891-6.4s-4.891,2.867-4.891,6.4a7.711,7.711,0,0,0,1.023,3.913,8,8,0,0,0,0,7.826,8,8,0,0,0,0,7.826,7.994,7.994,0,0,0,0,7.823,7.729,7.729,0,0,0-1.022,3.913c0,3.536,2.189,6.4,4.891,6.4s4.891-2.867,4.891-6.4a7.73,7.73,0,0,0-1.022-3.913,7.994,7.994,0,0,0,0-7.823,8,8,0,0,0,0-7.826A8,8,0,0,0,311.419,692.416Z" transform="translate(-230.273 -494.175)"/><ellipse class="f" cx="4.891" cy="6.403" rx="4.891" ry="6.403" transform="translate(72.386 180.102)"/><ellipse class="f" cx="4.891" cy="6.403" rx="4.891" ry="6.403" transform="translate(72.386 172.276)"/><path class="b" d="M281.269,378.314a23.823,23.823,0,0,0,1.821-2.681l-12.841-2.116,13.9.1a23.467,23.467,0,0,0,.448-18.564l-18.658,9.674,17.2-12.641a23.428,23.428,0,1,0-38.695,26.225,23.3,23.3,0,0,0-2.67,4.273l16.692,8.66-17.789-5.97a23.452,23.452,0,0,0,3.778,22,23.428,23.428,0,1,0,36.832,0,23.434,23.434,0,0,0,0-28.968Z" transform="translate(-185.681 -253.18)"/><path class="g" d="M239.392,517.312a23.337,23.337,0,0,0,5.009,14.483,23.428,23.428,0,1,0,36.832,0C284.372,527.808,239.392,514.681,239.392,517.312Z" transform="translate(-185.646 -377.7)"/><ellipse class="f" cx="160" cy="7.817" rx="160" ry="7.817" transform="translate(0 223.44)"/><path class="j" d="M561.114,692.385a.516.516,0,0,0-.354.312H560.7l-.218-.035s-1.143-.094-1.355-.08a.425.425,0,0,1-.348-.2l-.852-.719-.065-.056.15-.053s-2.284-2.835-2.776-2.891a3.755,3.755,0,0,1-1.314-.725V687.9c-.018-.094-.029-.192-.041-.295l.121.074h0v-.1h0a1.838,1.838,0,0,1,.342-.972,4.579,4.579,0,0,0,.731-.969,1.418,1.418,0,0,0,.074-.51,1.685,1.685,0,0,0-.236-.884,1.117,1.117,0,0,0-.748-.516.623.623,0,0,1-.242-.032c-.477-.112-.651-.751-1.114-.908a.946.946,0,0,0-.663.068c-.209.088-.395.218-.589.318a3.831,3.831,0,0,0-.619.315l-.059.05h0l-.038.035h0a1.279,1.279,0,0,0-.2.259v.015a.037.037,0,0,1-.015.029v.194a.1.1,0,0,1,0,.024v.032a.055.055,0,0,0,0,.024.107.107,0,0,0,0,.032v.056a.038.038,0,0,1,0,.018v.05h0a1.034,1.034,0,0,0,.221.312l-.026.027a2.009,2.009,0,0,0-.619,1.453,2.062,2.062,0,0,0,.032.359,1.883,1.883,0,0,0-.336-.2,2.947,2.947,0,0,0-1.255-.295,8.715,8.715,0,0,1-1.706-.274.713.713,0,0,1,.056.153l-.141-.08a4.172,4.172,0,0,0-1.332-.448s-.295.041-.333-.589a2.66,2.66,0,0,0-.106-.572,9.961,9.961,0,0,1-.474-1.733l-.094-.916a11.45,11.45,0,0,0,.177-3.386.7.7,0,0,0-.248-.819c-1.12-.825-2.251,2.39-2.251,2.39l-.421.407a.9.9,0,0,0-.357-.136,1.988,1.988,0,0,0-.383.863,4.22,4.22,0,0,1-1.179,1.347c-.365.321-.719.654-1.07.987a4.03,4.03,0,0,1-2.11.8l-.545.088a1.682,1.682,0,0,0,.065-.46,1.721,1.721,0,0,0-1.352-1.674.438.438,0,0,0,0-.124.511.511,0,0,0-.13-.233,2.462,2.462,0,0,0-.952-.825,1.238,1.238,0,0,0-.516-.083h-.127a1.317,1.317,0,0,0-.964.5c-.141.192-.227.416-.351.619a2.782,2.782,0,0,1-.961.884c-.227.136-.469.256-.684.413a2.566,2.566,0,0,0-.949,2.561,3.86,3.86,0,0,1,.221,1.238,2.13,2.13,0,0,1-.392.884,2.832,2.832,0,0,0-.436.884.866.866,0,0,0,.271.884,2.13,2.13,0,0,1,.295.2.981.981,0,0,1,.138.218,2.171,2.171,0,0,0,1.347,1.046.883.883,0,0,0,.277.029h.029a.463.463,0,0,0,.5-.23.484.484,0,0,1,.047-.124.144.144,0,0,1,.083-.056.664.664,0,0,1,.2.074,2.5,2.5,0,0,0,.952.268,1.072,1.072,0,0,0,.168,0,.744.744,0,0,0,.342-.047.719.719,0,0,0,.262-.227l.044-.059a4.785,4.785,0,0,1-.43,1.332,2.434,2.434,0,0,0-.321,1.164,1.155,1.155,0,0,0,.13.613l.032-.065a4.672,4.672,0,0,0,.639.884,6.227,6.227,0,0,1-.062,1.382,2.858,2.858,0,0,0,1.093,3.147l.362.8-1.494.106c-.15-.021-2.107-.295-2.116.1s.295,4.272,1.308,4.01c.946-.245.634-1.376.589-1.526h0l.754-.716a.327.327,0,0,0-.056-.247h0l1.824.083.427.937a2.06,2.06,0,0,1,.138,2.039,9.469,9.469,0,0,0-1.3,3.271,3.6,3.6,0,0,1-.807,1.668c-.342.118-1.653.631-1.131,1.411.589.884,2.549,2.593,3.336,2.534s.471-.631.471-.631l-.657-.642a15.846,15.846,0,0,1-.071-1.768.407.407,0,0,0-.295-.418,4.431,4.431,0,0,1,.554-1.747c.474-.651,1.989-3.512,1.989-3.512s.48-.427.374-1.7c-.044-.513-.068-.964-.082-1.32l1.715.077s1.839-.183.589-2.154a18.117,18.117,0,0,0-3.9-3.9l-.024-1.22.192.047a.4.4,0,0,0-.029-.124h.029a26.12,26.12,0,0,1-.486-2.955l.109.05c1.14,1.32,1.909.2,1.909.2s2.41-3.386,2.175-3.241a.2.2,0,0,1-.159,0l.174-.554a1.182,1.182,0,0,0-.321-1.7c-.843-.5-.822,1.067-.784,1.659l-.041-.038s-.807,1.214-1.24,1.895-.8.233-.8.233l-.548-.616a2.191,2.191,0,0,0,.13-.772,1.3,1.3,0,0,0-.371-1,1.744,1.744,0,0,1-.551-1.158,1.214,1.214,0,0,1,.109-.474l2.844-1.506s.589,0,1.406-1.232a21.246,21.246,0,0,1,1.724-2.272l-.047-.065.047-.053s-.032-.047-.091-.121l.439-.507a6.708,6.708,0,0,0,0,.687l.224.769.13,4.27s-.138.41.748.816c.748.345,1.936.928,2.281,1.1a.511.511,0,0,1-.021.05h.1a1.466,1.466,0,0,1,1.671,1.57s.118,3.515-.413,4.738a6.983,6.983,0,0,0-.454,2.737s.053-.256.351.08l-.021.094c-.168.849-.519,2.652-.589,3.38a11.846,11.846,0,0,1-.383,1.971l-.177,3.241,1.108.053v.115a.353.353,0,0,1-.186.295c-.38.206-1.273.928-1.2,3.15l-.038.365a4.527,4.527,0,0,1-.539,1.727,1.1,1.1,0,0,0-.068.13.1.1,0,0,1,.029-.062s-.575.118-.457,1.671.295,1.827.53,1.844,1.388.295,1.329-.271a10.374,10.374,0,0,1-.038-2.039c.08-.194.389-.716.091-.843h0a4.4,4.4,0,0,0,.124-1.087,7.133,7.133,0,0,1,.993-1.252,2.808,2.808,0,0,0,.787-1.662c0-.047,1.22-.855,1.043-1.523q-.044-.171-.071-.295a.222.222,0,0,0-.021-.118h.024l.245-1.473v1.438l.147.018v.118l-.062,1.376a2.234,2.234,0,0,1-.177.781,7.661,7.661,0,0,0-.61,3.474l-.015,1.323c-.041,0-.642.15-.527,1.65.118,1.553.295,1.824.53,1.845s1.388.295,1.329-.271a10.645,10.645,0,0,1-.041-2.039c.077-.194.215-.707-.083-.834a1.1,1.1,0,0,1,.124-.5c.13-.221.563-1.27.884-2.077a7.469,7.469,0,0,0,.548-2.567v-.029a2.416,2.416,0,0,1,.189-.863,6.112,6.112,0,0,0,.315-.952.212.212,0,0,1,.021-.112l.28.035.967-4.172a20.24,20.24,0,0,0,.135-3.285.262.262,0,0,0-.018-.118h.059a8.791,8.791,0,0,0,.138-2.652,5.477,5.477,0,0,1,.392-2.835c.245-.775.516-1.034.672-1.123h0a.321.321,0,0,1,.136-.044l.731.837h0l.136.153h0l.062.068a.606.606,0,0,1,0-.1c.389.227,1.291.754,1.827,1.134a1.657,1.657,0,0,0,1.506.386,4.061,4.061,0,0,0,1.211-.4h.029a1.471,1.471,0,0,0,.295.115s.99.837,1.084-.693S561.114,692.385,561.114,692.385Zm-25.665,17.806a1.5,1.5,0,0,1-.295-.121ZM533.9,693.638v.218h0A1.8,1.8,0,0,1,533.9,693.638Zm15.467,19.383v.085C549.351,713.062,549.342,713.062,549.369,713.02Z" transform="translate(-389.622 -490.691)"/><rect class="b" width="1.68" height="1.765" transform="translate(161.226 196.889)"/><path class="k" d="M589.126,775.541a2.79,2.79,0,0,1-.772,1.65,7.124,7.124,0,0,0-.975,1.243,2.52,2.52,0,0,1-.327,1.573l-.327.088h-.81a3.793,3.793,0,0,1-.174-.648.739.739,0,0,1,.127-.359,4.549,4.549,0,0,0,.53-1.715l.035-.357c-.068-2.21.807-2.929,1.179-3.132a.359.359,0,0,0,.183-.295h0l.065-.631,2.18.106a1.768,1.768,0,0,0,.038.636,1.408,1.408,0,0,0,.068.309C590.322,774.693,589.135,775.491,589.126,775.541Z" transform="translate(-429.942 -558.262)"/><path class="k" d="M602.085,774.589a5.541,5.541,0,0,1-.295.943,2.472,2.472,0,0,0-.186.86v.029a7.515,7.515,0,0,1-.536,2.552c-.321.8-.746,1.845-.884,2.063a1.7,1.7,0,0,0-.085.984l-1.229-.085.021-2.062a7.679,7.679,0,0,1,.589-3.453,2.274,2.274,0,0,0,.171-.775l.062-1.37.018-.4s2.172-.309,2.357.183A1.081,1.081,0,0,1,602.085,774.589Z" transform="translate(-439.203 -558.836)"/><path class="l" d="M589.126,775.541a2.79,2.79,0,0,1-.772,1.65,7.124,7.124,0,0,0-.975,1.243,2.52,2.52,0,0,1-.327,1.573l-.327.088h-.81a3.793,3.793,0,0,1-.174-.648.739.739,0,0,1,.127-.359,4.549,4.549,0,0,0,.53-1.715l.035-.357c-.068-2.21.807-2.929,1.179-3.132a.359.359,0,0,0,.183-.295h0l.065-.631,2.18.106a1.768,1.768,0,0,0,.038.636,1.408,1.408,0,0,0,.068.309C590.322,774.693,589.135,775.491,589.126,775.541Z" transform="translate(-429.942 -558.262)"/><path class="l" d="M602.085,774.589a5.541,5.541,0,0,1-.295.943,2.472,2.472,0,0,0-.186.86v.029a7.515,7.515,0,0,1-.536,2.552c-.321.8-.746,1.845-.884,2.063a1.7,1.7,0,0,0-.085.984l-1.229-.085.021-2.062a7.679,7.679,0,0,1,.589-3.453,2.274,2.274,0,0,0,.171-.775l.062-1.37.018-.4s2.172-.309,2.357.183A1.081,1.081,0,0,1,602.085,774.589Z" transform="translate(-439.203 -558.836)"/><path class="g" d="M595,773.753l-2.284-.112.065-.631,2.181.106A1.768,1.768,0,0,0,595,773.753Z" transform="translate(-434.865 -558.297)"/><path class="g" d="M604.137,774.582l-2.357-.318.018-.4s2.172-.309,2.357.183a1.08,1.08,0,0,1-.018.539Z" transform="translate(-441.255 -558.829)"/><path class="m" d="M596.423,749.44l-.946,4.149-2.8-.377v-1.426l-.242,1.473-3.356-.165.174-3.215a11.872,11.872,0,0,0,.374-1.957c.065-.728.41-2.519.589-3.359.053-.295.088-.454.088-.454s5.752,1.2,6.129,1.629a.931.931,0,0,1,.133.442A21.087,21.087,0,0,1,596.423,749.44Z" transform="translate(-432.298 -537.913)"/><path class="g" d="M591.21,760.8s2.263-1.179,2.814-.937Z" transform="translate(-433.8 -549)"/><path class="g" d="M595.4,750s1.88,1.429,1.939,1.815Z" transform="translate(-436.755 -542.068)"/><path class="g" d="M593.66,766.642a3.893,3.893,0,0,1,1.794.295Z" transform="translate(-435.528 -553.804)"/><path class="g" d="M601.513,761.47s.645,2.116.365,2.7-.569-.135-.569-.135Z" transform="translate(-440.924 -550.158)"/><path class="m" d="M597.617,798.92s-.64.1-.522,1.641.295,1.812.522,1.833,1.358.295,1.3-.271a10.46,10.46,0,0,1-.038-2.024c.08-.192.209-.7-.083-.831l-.065.295s-.616-.569-.984-.153a1.54,1.54,0,0,0-.074-.295C597.646,799.023,597.558,798.976,597.617,798.92Z" transform="translate(-437.941 -576.573)"/><path class="k" d="M626.5,728.628s-.144.08-.359.183a4,4,0,0,1-1.179.395,1.619,1.619,0,0,1-1.473-.383c-.527-.377-1.411-.9-1.795-1.129l-.168-.1h-.018l.318-.884,1.128-.589.295.242.834.716a.412.412,0,0,0,.339.195c.209-.015,1.332.08,1.332.08l.212.035.448.074Z" transform="translate(-455.172 -525.224)"/><path class="g" d="M636.579,731.611s-.144.08-.359.183c-.227-.115-.507-.333-.4-.69s.124-.575.2-.754l.448.074Z" transform="translate(-465.25 -528.207)"/><path class="k" d="M636.563,729.23s1.258-.362,1.164,1.158-1.064.687-1.064.687-.825-.215-.651-.787S636.136,729.368,636.563,729.23Z" transform="translate(-465.384 -527.391)"/><path class="k" d="M582.251,689.389l-1.311.551H580.9l-.083-.041c-.339-.168-1.5-.745-2.236-1.09-.884-.4-.734-.81-.734-.81l-.127-4.246-.221-.76s-.159-2.587,1.1-3.241.445,3.742.445,3.742l.091.913a10.145,10.145,0,0,0,.345,1.724,2.508,2.508,0,0,1,.1.566c.038.619.327.589.327.589a4.023,4.023,0,0,1,1.305.442,3.523,3.523,0,0,1,.433.274Z" transform="translate(-424.128 -492.471)"/><path class="l" d="M606.8,712.475l-1.12-.118a4.218,4.218,0,0,0,.474-.969,1.617,1.617,0,0,0,.05-.2.675.675,0,0,0-.062-.492c-.327-.483,1.951-1.158,1.951-1.158a5.567,5.567,0,0,0-.027.8,4.6,4.6,0,0,0,.059.554,1.391,1.391,0,0,0,.469.911C609.31,712.3,606.8,712.475,606.8,712.475Z" transform="translate(-444.006 -513.529)"/><path class="g" d="M606.8,715.726l-1.12-.118a4.219,4.219,0,0,0,.474-.969c.13.186.174.18.357.218a1.652,1.652,0,0,0,1.615-.707,1.391,1.391,0,0,0,.469.911C609.31,715.552,606.8,715.726,606.8,715.726Z" transform="translate(-444.006 -516.781)"/><path class="g" d="M621.684,727.693a.633.633,0,0,0,0,.1l-.174-.2h0l.318-.884,1.128-.589.295.242C622.833,726.491,621.7,726.969,621.684,727.693Z" transform="translate(-455.172 -525.224)"/><path class="g" d="M590.167,708.614l-1.311.551h-.135l.018-.05a4.243,4.243,0,0,0,.4-2.175,3.555,3.555,0,0,1,.433.274Z" transform="translate(-432.044 -511.695)"/><path class="g" d="M599.25,746.161c-.51-.047-5.619-.519-6.1-1.27a2.511,2.511,0,0,0-.253-.348c.053-.295.088-.454.088-.454s5.752,1.2,6.129,1.63A.93.93,0,0,1,599.25,746.161Z" transform="translate(-434.992 -537.899)"/><path class="n" d="M594.767,709.672a1.649,1.649,0,0,0,1.624-.719,3.784,3.784,0,0,0,1.291.722c.483.059,2.72,2.873,2.72,2.873s-1.795.589-1.68,1.506l-.86-.984s-.424-.018-.79,1.158a5.44,5.44,0,0,0-.386,2.817,8.953,8.953,0,0,1-.136,2.652s-5.637-.483-6.138-1.276-.589-.4-.589-.4a7.039,7.039,0,0,1,.442-2.723c.522-1.214.407-4.714.407-4.714a1.452,1.452,0,0,0-1.641-1.562s.713-1.662.386-2.3a8.414,8.414,0,0,0,1.674.274,2.881,2.881,0,0,1,1.232.295,1.369,1.369,0,0,1,.51.386.751.751,0,0,0,.884.25,8.84,8.84,0,0,0,.5,1.238l.068.124c.035.056.068.112.1.162a.41.41,0,0,0,.377.224Z" transform="translate(-432.262 -511.54)"/><path class="g" d="M609.1,710.366a2,2,0,0,1-.2.245,2.019,2.019,0,0,1-1.45.61h-.209a.675.675,0,0,0-.062-.492c-.327-.483,1.951-1.158,1.951-1.158A5.576,5.576,0,0,0,609.1,710.366Z" transform="translate(-445.037 -513.551)"/><path class="k" d="M605.344,703.247a2.013,2.013,0,1,1-.589-1.438A2.027,2.027,0,0,1,605.344,703.247Z" transform="translate(-440.91 -507.661)"/><path class="g" d="M618.45,723.813l.041,1.355s.607-.486.625-.952S618.45,723.813,618.45,723.813Z" transform="translate(-453.014 -523.595)"/><path class="g" d="M601.88,728.42s1.594,2.186,2.519,2.407S602.228,729.13,601.88,728.42Z" transform="translate(-441.326 -526.846)"/><path class="g" d="M607.61,729.19a4.113,4.113,0,0,0,1.526,1.129Z" transform="translate(-445.368 -527.389)"/><path class="g" d="M597,737.77s1.621,1.591,2.549,1.688Z" transform="translate(-437.884 -533.441)"/><path class="g" d="M606.8,703.247a2.013,2.013,0,0,1-.589,1.414l-.224-.136a.633.633,0,0,1-.215-.189.751.751,0,0,1-.047-.421.987.987,0,0,0-.295-.819c-.386-.295-1-.138-1.388-.439a1.479,1.479,0,0,1-.247-.274l-.365-.489-.077-.094a2.027,2.027,0,0,1,3.448,1.447Z" transform="translate(-442.363 -507.66)"/><path class="m" d="M603.06,697.551a3.664,3.664,0,0,1,.6-.315c.2-.1.383-.23.589-.318a.9.9,0,0,1,.648-.065c.454.156.625.79,1.093.9.077.018.159.018.239.032a1.1,1.1,0,0,1,.734.51,1.736,1.736,0,0,1,.233.884,1.471,1.471,0,0,1-.074.507,4.481,4.481,0,0,1-.719.964,1.838,1.838,0,0,0-.336,1.067l-.566-.351a.633.633,0,0,1-.215-.189.746.746,0,0,1-.047-.418.993.993,0,0,0-.295-.822c-.386-.295-1-.135-1.388-.439a1.3,1.3,0,0,1-.247-.274c-.121-.162-.245-.324-.365-.489a1.392,1.392,0,0,1-.265-.368A.935.935,0,0,1,603.06,697.551Z" transform="translate(-441.881 -504.557)"/><path class="g" d="M605.631,703.148a.608.608,0,0,1-.218-.186.752.752,0,0,1-.047-.421.978.978,0,0,0-.295-.819c-.383-.295-1-.138-1.388-.439a1.475,1.475,0,0,1-.248-.274c-.121-.162-.242-.327-.365-.489a1.361,1.361,0,0,1-.265-.371.843.843,0,0,1,.268-.7.884.884,0,0,0-.33.763,1.394,1.394,0,0,0,.265.368c.121.165.245.327.365.489a1.3,1.3,0,0,0,.247.274c.386.295,1,.133,1.388.439a.993.993,0,0,1,.295.822.745.745,0,0,0,.047.418.632.632,0,0,0,.215.189l.566.351v-.1Z" transform="translate(-441.933 -506.413)"/><path class="m" d="M584.934,794s-.566.118-.451,1.662.295,1.815.522,1.833,1.361.295,1.3-.268a10.479,10.479,0,0,1-.038-2.027c.077-.195.383-.713.091-.84l-.236.295s-.616-.569-.984-.156C585.14,794.51,584.8,794.133,584.934,794Z" transform="translate(-429.044 -573.102)"/><path class="g" d="M587.26,797.24c.121.056.236.13.357.189a.814.814,0,0,0,.389.091.294.294,0,0,0,.159-.056" transform="translate(-431.014 -575.388)"/><path class="g" d="M599.85,802.38a2.769,2.769,0,0,0,.209.206.734.734,0,0,0,.407.082.181.181,0,0,0,.068,0,.141.141,0,0,0,.062-.056l.077-.1" transform="translate(-439.894 -579.013)"/><path class="o" d="M567.489,710.551s-.259-2.472.754-1.862a1.183,1.183,0,0,1,.312,1.688l-.236.763Z" transform="translate(-417.048 -512.86)"/><path class="o" d="M573.06,681.082l.589-.569s1.108-3.194,2.21-2.375-1.4,2.9-1.4,2.9l-.66.772Z" transform="translate(-420.998 -491.286)"/><path class="n" d="M544.24,730.579l-.029.654s.53.928.754,1,.2-1.96.2-1.96Z" transform="translate(-400.649 -528.151)"/><path class="g" d="M544.039,730.776l-.029.657s.533.925.754.993.2-1.957.2-1.957Z" transform="translate(-400.508 -528.292)"/><path class="o" d="M490.32,684.56l.038,2.419h2.693l-.2-1.408Z" transform="translate(-345.843 -482.851)"/><path class="m" d="M548.738,749.36l.127.772,1.571,3.495a2.059,2.059,0,0,1,.135,2.024,9.438,9.438,0,0,0-1.273,3.241,3.841,3.841,0,0,1-.857,1.739l1.659.7a5.068,5.068,0,0,1,.589-2.027c.474-.645,1.951-3.495,1.951-3.495s.471-.424.365-1.688-.094-2.151-.094-2.151l-.165-2.016Z" transform="translate(-403.633 -541.616)"/><path class="g" d="M548.738,749.36l.127.772,1.571,3.495a2.059,2.059,0,0,1,.135,2.024,9.438,9.438,0,0,0-1.273,3.241,3.841,3.841,0,0,1-.857,1.739l1.659.7a5.068,5.068,0,0,1,.589-2.027c.474-.645,1.951-3.495,1.951-3.495s.471-.424.365-1.688-.094-2.151-.094-2.151l-.165-2.016Z" transform="translate(-403.633 -541.616)"/><path class="n" d="M545.821,787.29s-1.768.539-1.179,1.426,2.5,2.578,3.271,2.519.463-.628.463-.628l-.645-.636a15.845,15.845,0,0,1-.068-1.747c.047-.395-.551-.589-.628-.348S545.821,787.29,545.821,787.29Z" transform="translate(-400.869 -568.37)"/><path class="m" d="M547.694,733.6l-1.409.153a.507.507,0,0,0-.451.516,7.859,7.859,0,0,1-.053,1.621,2.861,2.861,0,0,0,1.073,3.132l2.092.666-3.356.242.106,1.862.519-.295,6.371.295s1.8-.183.589-2.142a17.559,17.559,0,0,0-3.831-3.878l-.029-1.526-.192-.442Z" transform="translate(-401.622 -530.5)"/><path class="g" d="M558.65,753.78a1.822,1.822,0,0,1,1.45,0Z" transform="translate(-410.834 -544.627)"/><path class="n" d="M541.151,754.746s-2.063-.295-2.083.1.295,4.243,1.282,3.984.572-1.535.572-1.535l.743-.713s.077-.395-.415-.357Z" transform="translate(-397.021 -545.34)"/><path class="n" d="M556.834,715.566l.822.937s.357.442.781-.233,1.214-1.88,1.214-1.88.884.772,1.111.616-2.133,3.215-2.133,3.215-.751,1.108-1.871-.2l-.327-.153Z" transform="translate(-409.268 -516.95)"/><path class="g" d="M556.637,715.566l.819.937s.357.442.781-.233,1.217-1.88,1.217-1.88.884.772,1.108.616-2.13,3.215-2.13,3.215-.754,1.108-1.874-.2l-.327-.153Z" transform="translate(-409.127 -516.95)"/><circle class="o" cx="1.709" cy="1.709" r="1.709" transform="translate(143.349 191.396)"/><path class="g" d="M545.4,692.21s-1.473.7-1.294,1.912a26.878,26.878,0,0,1,.2,2.749s.666.984-.218,2.867a1.953,1.953,0,0,0-.189,1.65s.418-1.1,1.5-.295a8.562,8.562,0,0,0,2.817,1.179s-.9-3.937-.348-4.488c0,0,.955-1.417.088-2.313a1.54,1.54,0,0,1-.436-1.739l2.79-1.5s.589,0,1.379-1.223a20.859,20.859,0,0,1,1.688-2.26s-.589-.884-1.158-.964a2.008,2.008,0,0,0-.377.857,4.189,4.189,0,0,1-1.146,1.338c-.357.318-.7.651-1.049.981a3.891,3.891,0,0,1-2.063.8A11.1,11.1,0,0,0,545.4,692.21Z" transform="translate(-400.339 -498.188)"/><path class="n" d="M545.4,691.806s-1.473.7-1.294,1.909a26.967,26.967,0,0,1,.2,2.752s.666.984-.218,2.864a1.956,1.956,0,0,0-.189,1.65s.418-1.1,1.5-.295a8.634,8.634,0,0,0,2.817,1.179s-.9-3.937-.348-4.488c0,0,.955-1.417.088-2.316a1.536,1.536,0,0,1-.436-1.736l2.79-1.5s.589,0,1.379-1.226a20.994,20.994,0,0,1,1.688-2.257s-.589-.9-1.158-.966a2.036,2.036,0,0,0-.377.86,4.188,4.188,0,0,1-1.146,1.338c-.357.318-.7.648-1.049.981a3.917,3.917,0,0,1-2.063.8A9.7,9.7,0,0,0,545.4,691.806Z" transform="translate(-400.339 -497.899)"/><path class="g" d="M553.58,727.09a15.441,15.441,0,0,1,1.179,1.968C554.747,729.058,554.588,727.255,553.58,727.09Z" transform="translate(-407.258 -525.908)"/><path class="g" d="M548.5,707.9a1.4,1.4,0,0,0,1.942.156A2.469,2.469,0,0,1,548.5,707.9Z" transform="translate(-403.675 -512.373)"/><path class="g" d="M536.119,690.867a.527.527,0,0,0-.124-.233,2.475,2.475,0,0,0-.934-.831,1.291,1.291,0,0,0-1.473.418c-.139.189-.224.416-.345.616a2.719,2.719,0,0,1-.94.884c-.224.138-.46.256-.672.412a2.567,2.567,0,0,0-.928,2.546,4.072,4.072,0,0,1,.215,1.232,2.2,2.2,0,0,1-.383.884,2.756,2.756,0,0,0-.43.884.866.866,0,0,0,.265.884,1.574,1.574,0,0,1,.295.2.867.867,0,0,1,.138.215,2.116,2.116,0,0,0,1.32,1.04c.25.065.589.041.675-.2a.432.432,0,0,1,.047-.121c.083-.118.262-.05.389,0a2.38,2.38,0,0,0,.937.268.756.756,0,0,0,.38-.044.7.7,0,0,0,.259-.224,2.754,2.754,0,0,0,.445-1.411,3.362,3.362,0,0,0,0-.972,5.706,5.706,0,0,1-.362-1.512c.047-.519.5-1.011.569-1.565a1.2,1.2,0,0,0-.2-.822,1.248,1.248,0,0,1-.156-.242.242.242,0,0,1,.047-.265.383.383,0,0,1,.121-.059,1.008,1.008,0,0,0,.589-.884,1.814,1.814,0,0,1,.038-.418C535.959,691.339,536.151,691.1,536.119,690.867Z" transform="translate(-390.678 -499.55)"/><path class="m" d="M535.722,690.867a.532.532,0,0,0-.127-.233,2.466,2.466,0,0,0-.934-.831,1.291,1.291,0,0,0-1.473.418,7.008,7.008,0,0,0-.345.616,2.719,2.719,0,0,1-.94.884c-.224.138-.46.256-.672.412a2.575,2.575,0,0,0-.931,2.546,3.988,3.988,0,0,1,.218,1.232,2.165,2.165,0,0,1-.386.884,2.75,2.75,0,0,0-.427.884.866.866,0,0,0,.265.884,1.671,1.671,0,0,1,.295.2.857.857,0,0,1,.136.215,2.13,2.13,0,0,0,1.323,1.04c.25.065.589.041.675-.2a.426.426,0,0,1,.047-.121c.082-.118.262-.05.389,0a2.355,2.355,0,0,0,.934.268.766.766,0,0,0,.383-.044.672.672,0,0,0,.256-.224,2.728,2.728,0,0,0,.445-1.411,3.262,3.262,0,0,0,0-.972,5.824,5.824,0,0,1-.365-1.512c.044-.519.5-1.011.569-1.565a1.179,1.179,0,0,0-.2-.822,1.389,1.389,0,0,1-.153-.242.242.242,0,0,1,.047-.265.331.331,0,0,1,.121-.059,1,1,0,0,0,.589-.884,1.991,1.991,0,0,1,.041-.418C535.562,691.339,535.754,691.1,535.722,690.867Z" transform="translate(-390.396 -499.55)"/><g class="e" transform="translate(141.475 190.181)"><path d="M537.531,723.436a.431.431,0,0,0-.047.121.392.392,0,0,1-.354.227c.221.021.454-.029.527-.227a.431.431,0,0,1,.047-.121.139.139,0,0,1,.059-.05A.2.2,0,0,0,537.531,723.436Z" transform="translate(-537.13 -713.464)"/><path d="M545.576,690.892a.5.5,0,0,0-.127-.233,2.419,2.419,0,0,0-.934-.819,1.179,1.179,0,0,0-.533-.08,1.076,1.076,0,0,1,.354.068,2.419,2.419,0,0,1,.934.819.5.5,0,0,1,.127.233c.032.233-.159.471-.224.687a1.811,1.811,0,0,0-.038.418,1.014,1.014,0,0,1-.589.884.33.33,0,0,0-.121.059.239.239,0,0,0-.047.265,1.252,1.252,0,0,0,.156.242,1.179,1.179,0,0,1,.2.822c-.071.554-.522,1.008-.572,1.562a5.32,5.32,0,0,0,.365,1.515,3.262,3.262,0,0,1,0,.972,2.744,2.744,0,0,1-.442,1.411.7.7,0,0,1-.259.224.588.588,0,0,1-.189.047.793.793,0,0,0,.362-.047.7.7,0,0,0,.259-.224,2.744,2.744,0,0,0,.442-1.411,3.262,3.262,0,0,0,0-.972,5.818,5.818,0,0,1-.365-1.515c.044-.522.5-1.008.572-1.562a1.179,1.179,0,0,0-.2-.822,1.251,1.251,0,0,1-.156-.242.239.239,0,0,1,.047-.265.331.331,0,0,1,.121-.059,1,1,0,0,0,.589-.884,1.987,1.987,0,0,1,.041-.418C545.417,691.363,545.608,691.125,545.576,690.892Z" transform="translate(-541.722 -689.756)"/></g><path class="g" d="M542.77,763a.784.784,0,0,0,.8.221" transform="translate(-399.633 -551.237)"/><path class="g" d="M554.4,796.56a.489.489,0,0,1-.4.1" transform="translate(-407.554 -574.908)"/><path class="b" d="M217.643,784.513l3.925-2.307a9.48,9.48,0,0,0-2.007-2.4l-7.4,2.3,5.8-3.412A9.429,9.429,0,0,0,204,786.967c0,5.207,4.222,5.389,9.429,5.389s9.429-.183,9.429-5.389a9.367,9.367,0,0,0-.81-3.831Z" transform="translate(-160.685 -561.491)"/><path class="g" d="M218.642,804.017a7.366,7.366,0,0,0-1.391-1.093,6.522,6.522,0,0,0-2.289-1.117,17.3,17.3,0,0,0-2.248-.065,5.254,5.254,0,0,1-3.445-1.579,10.412,10.412,0,0,0-1.6-1.656,3.509,3.509,0,0,0-2.4-.442,5.829,5.829,0,0,0-.71.147,9.43,9.43,0,0,0-.557,3.2c0,5.207,4.222,5.389,9.429,5.389a19.773,19.773,0,0,0,6.515-.684l-.295-.528a7.405,7.405,0,0,0-1.008-1.57Z" transform="translate(-160.685 -575.933)"/><path class="b" d="M997.643,784.513l3.925-2.307a9.483,9.483,0,0,0-2.007-2.4l-7.4,2.3,5.8-3.412A9.429,9.429,0,0,0,984,786.967c0,5.207,4.222,5.389,9.429,5.389s9.429-.183,9.429-5.389a9.367,9.367,0,0,0-.81-3.831Z" transform="translate(-710.851 -561.491)"/><path class="g" d="M998.641,804.017a7.363,7.363,0,0,0-1.391-1.093,6.522,6.522,0,0,0-2.29-1.117,17.3,17.3,0,0,0-2.248-.065,5.254,5.254,0,0,1-3.444-1.579,10.407,10.407,0,0,0-1.6-1.656,3.509,3.509,0,0,0-2.4-.442,5.859,5.859,0,0,0-.71.147,9.43,9.43,0,0,0-.557,3.2c0,5.207,4.223,5.389,9.429,5.389a19.773,19.773,0,0,0,6.515-.684l-.295-.528a7.412,7.412,0,0,0-1.008-1.57Z" transform="translate(-710.851 -575.933)"/><path class="b" d="M379.075,774.514l-3.067-1.8a7.489,7.489,0,0,1,1.568-1.874l5.784,1.8-4.532-2.652a7.366,7.366,0,0,1,10.905,6.438c0,4.069-3.3,4.211-7.366,4.211S375,780.489,375,776.42a7.329,7.329,0,0,1,.633-2.988Z" transform="translate(-281.298 -555.523)"/><path class="g" d="M383.747,789.743a5.735,5.735,0,0,1,1.084-.851,5.029,5.029,0,0,1,1.789-.884,13.141,13.141,0,0,1,1.768-.05,4.125,4.125,0,0,0,2.69-1.234,8.155,8.155,0,0,1,1.252-1.3,2.74,2.74,0,0,1,1.874-.345,4.984,4.984,0,0,1,.554.115,7.312,7.312,0,0,1,.427,2.484c0,4.069-3.3,4.211-7.367,4.211a15.487,15.487,0,0,1-5.089-.533l.221-.413A5.665,5.665,0,0,1,383.747,789.743Z" transform="translate(-286.751 -566.783)"/><path class="b" d="M459.075,774.514l-3.067-1.8a7.492,7.492,0,0,1,1.568-1.874l5.784,1.8-4.532-2.652a7.366,7.366,0,0,1,10.905,6.438c0,4.069-3.3,4.211-7.366,4.211S455,780.489,455,776.42a7.329,7.329,0,0,1,.633-2.988Z" transform="translate(-337.726 -555.523)"/><path class="g" d="M463.747,789.743a5.737,5.737,0,0,1,1.084-.851,5.029,5.029,0,0,1,1.789-.884,13.142,13.142,0,0,1,1.768-.05,4.125,4.125,0,0,0,2.69-1.234,8.158,8.158,0,0,1,1.252-1.3,2.74,2.74,0,0,1,1.874-.345,4.978,4.978,0,0,1,.554.115,7.314,7.314,0,0,1,.427,2.484c0,4.069-3.3,4.211-7.366,4.211a15.487,15.487,0,0,1-5.089-.533l.221-.413A5.67,5.67,0,0,1,463.747,789.743Z" transform="translate(-343.178 -566.783)"/><path class="b" d="M750.075,774.514l-3.068-1.8a7.491,7.491,0,0,1,1.568-1.874l5.784,1.8-4.532-2.652a7.366,7.366,0,0,1,10.905,6.438c0,4.069-3.3,4.211-7.366,4.211S746,780.49,746,776.42a7.329,7.329,0,0,1,.634-2.988Z" transform="translate(-542.98 -555.523)"/><path class="g" d="M754.747,789.743a5.735,5.735,0,0,1,1.084-.851,5.03,5.03,0,0,1,1.789-.884,13.14,13.14,0,0,1,1.768-.05,4.125,4.125,0,0,0,2.69-1.234,8.153,8.153,0,0,1,1.252-1.3,2.74,2.74,0,0,1,1.874-.345,4.981,4.981,0,0,1,.554.115,7.312,7.312,0,0,1,.427,2.484c0,4.069-3.3,4.211-7.367,4.211a15.487,15.487,0,0,1-5.089-.533l.221-.413A5.667,5.667,0,0,1,754.747,789.743Z" transform="translate(-548.432 -566.783)"/><path class="f" d="M486.26,703.78a6.111,6.111,0,0,0,.807-3.091c0-2.793-1.733-5.059-3.866-5.059s-3.866,2.266-3.866,5.059a6.111,6.111,0,0,0,.807,3.091,6.326,6.326,0,0,0,0,6.188,6.32,6.32,0,0,0,0,6.188,6.326,6.326,0,0,0,0,6.188,6.1,6.1,0,0,0-.807,3.091c0,2.793,1.733,5.059,3.866,5.059s3.866-2.266,3.866-5.059a6.1,6.1,0,0,0-.807-3.091,6.326,6.326,0,0,0,0-6.188,6.32,6.32,0,0,0,0-6.188A6.326,6.326,0,0,0,486.26,703.78Z" transform="translate(-354.89 -503.718)"/><ellipse class="f" cx="3.866" cy="5.059" rx="3.866" ry="5.059" transform="translate(124.446 185.73)"/><ellipse class="f" cx="3.866" cy="5.059" rx="3.866" ry="5.059" transform="translate(124.446 179.548)"/><path class="b" d="M462.433,455.563a18.6,18.6,0,0,0,1.438-2.119l-10.148-1.668,10.982.083a18.549,18.549,0,0,0,.354-14.668l-14.733,7.643,13.587-9.986a18.51,18.51,0,1,0-30.574,20.715,18.547,18.547,0,0,0-2.11,3.377l13.18,6.848-14.055-4.715a18.531,18.531,0,0,0,2.985,17.385,18.51,18.51,0,1,0,29.1,0,18.516,18.516,0,0,0,0-22.889Z" transform="translate(-319.653 -313.271)"/><path class="g" d="M429.359,565.414a18.42,18.42,0,0,0,3.96,11.445,18.51,18.51,0,1,0,29.1,0C464.907,573.712,429.359,563.331,429.359,565.414Z" transform="translate(-319.64 -411.678)"/><path class="f" d="M673.382,683.106a7.726,7.726,0,0,0,1.019-3.913c0-3.536-2.189-6.4-4.891-6.4s-4.891,2.867-4.891,6.4a7.728,7.728,0,0,0,1.022,3.913,7.994,7.994,0,0,0,0,7.823,8,8,0,0,0,0,7.826,8,8,0,0,0,0,7.826,7.721,7.721,0,0,0-1.022,3.913c0,3.536,2.192,6.4,4.891,6.4s4.891-2.867,4.891-6.4a7.717,7.717,0,0,0-1.019-3.913,8.021,8.021,0,0,0,0-7.826,8.021,8.021,0,0,0,0-7.826A8.015,8.015,0,0,0,673.382,683.106Z" transform="translate(-485.578 -487.608)"/><ellipse class="f" cx="4.891" cy="6.403" rx="4.891" ry="6.403" transform="translate(179.041 177.359)"/><ellipse class="f" cx="4.891" cy="6.403" rx="4.891" ry="6.403" transform="translate(179.041 169.532)"/><path class="b" d="M607.072,368.988a22.811,22.811,0,0,1-1.821-2.681l12.85-2.11-13.9.1a23.467,23.467,0,0,1-.448-18.564L622.4,355.41l-17.2-12.641A23.428,23.428,0,1,1,643.9,368.994a23.469,23.469,0,0,1,2.673,4.273l-16.684,8.669,17.789-5.97a23.428,23.428,0,0,1-3.778,22,23.428,23.428,0,1,1-36.832,0,23.428,23.428,0,0,1,0-28.971Z" transform="translate(-441.447 -246.607)"/><path class="g" d="M648.933,507.994a23.322,23.322,0,0,1-5.009,14.486,23.428,23.428,0,1,1-36.832,0C603.95,518.493,648.933,505.366,648.933,507.994Z" transform="translate(-441.466 -371.128)"/></g></svg>