<svg xmlns="http://www.w3.org/2000/svg" width="318.351" height="241.714" viewBox="0 0 318.351 241.714"><defs><style>.a{fill:#e6e6e6;}.b{fill:#fff;}.c{fill:#3182ce;}.d{fill:#2f2e41;}.e{fill:#ffb8b8;}.f{fill:#3f3d56;}.g{opacity:0.3;}</style></defs><rect class="a" width="256.313" height="164.154" transform="translate(0.109 0.145)"/><rect class="b" width="241.654" height="133.854" transform="translate(7.439 20.734)"/><rect class="c" width="256.313" height="10.889"/><circle class="b" cx="2.018" cy="2.018" r="2.018" transform="translate(6.074 3.549)"/><circle class="b" cx="2.018" cy="2.018" r="2.018" transform="translate(13.734 3.549)"/><circle class="b" cx="2.018" cy="2.018" r="2.018" transform="translate(21.395 3.549)"/><rect class="a" width="62.094" height="106.077" transform="translate(29.396 34.623)"/><rect class="c" width="51.745" height="29.199" transform="translate(102.209 34.623)"/><rect class="a" width="51.745" height="31.417" transform="translate(102.209 71.953)"/><rect class="a" width="51.745" height="29.199" transform="translate(102.209 111.501)"/><rect class="a" width="62.094" height="46.228" transform="translate(165.042 34.623)"/><rect class="c" width="62.094" height="46.228" transform="translate(165.042 94.472)"/><path class="d" d="M889,342c-4.1-6.981-12.2-7.306-12.2-7.306s-7.9-1.019-12.962,9.613c-4.721,9.91-11.238,19.478-1.049,21.8l1.84-5.778,1.14,6.208a39.531,39.531,0,0,0,4.359.075c10.911-.356,21.3.1,20.968-3.845C890.651,357.513,892.94,348.715,889,342Z" transform="translate(-595.752 -259.722)"/><path class="e" d="M795.834,446.712l-3.583,9.156-17.914,16.72s-10.748,7.962-5.971,10.35,9.156-8.758,9.156-8.758l19.108-11.545,3.981-13.137Z" transform="translate(-541.429 -327.164)"/><path class="e" d="M654.068,552.9l3.583,9.156h5.175l-4.379-10.748Z" transform="translate(-393.692 -331.838)"/><path class="e" d="M693.068,562.9l3.583,9.156h5.175l-4.379-10.748Z" transform="translate(-417.167 -337.857)"/><path class="d" d="M848.254,576.1l6.768-1.592-8.758-35.43,2.908-27.261.078-.008s4.976-19.307,1-24.482-23.886-3.185-23.886-3.185-7.563,7.564-7.165,24.681,0,31.847,2.786,38.615,10.748,24.681,10.748,24.681l6.37-.8-6.768-29.458-1.082-25.608c.861,10.262,2.594,29.721,3.471,31.181C835.913,549.429,848.254,576.1,848.254,576.1Z" transform="translate(-572.751 -349.468)"/><path class="e" d="M932.382,467.712l2.787,9.952,12.34,22.293s10.748,9.554,6.369,10.748-11.146-8.758-11.146-8.758L928.8,482.441l-3.583-14.331Z" transform="translate(-636.576 -339.804)"/><circle class="e" cx="9.952" cy="9.952" r="9.952" transform="translate(271.522 79.739)"/><path class="e" d="M884.586,384.712l-2.388,7.564-3.981,8.758,14.729-5.971s-.8-6.369,0-7.962Z" transform="translate(-608.287 -289.846)"/><path class="c" d="M874.618,410.13l-9.156-7.564-10.35,4.379.405-6.459-11.043,3.527-1.7.544L840.382,416.9s-1.592,1.194-3.185,7.962a58.286,58.286,0,0,1-3.981,11.544s17.118-6.767,25.477,2.389a1.859,1.859,0,0,0,.8-1.99c-.4-1.194,3.583-7.166,3.583-7.166s0,1.194,1.593-1.194,2.786-2.787,2.786-2.787Z" transform="translate(-581.2 -299.34)"/><path class="c" d="M845.761,411.47l-1.739-1.4s-1.446-.589-2.64,1.4-7.166,14.331-7.166,14.331l7.166,3.583Z" transform="translate(-581.802 -305.059)"/><path class="c" d="M919,423.712l5.573.4s3.184,1.592,3.184,3.981.8,15.127.8,15.127L919.8,446l-3.583-11.146Z" transform="translate(-631.159 -313.32)"/><path class="d" d="M839.677,721.212,832.91,724s-7.962.4-6.768,4.379,13.137,1.194,13.137,1.194,10.748.4,10.748-2.388-1.592-5.971-3.184-5.971Z" transform="translate(-576.869 -492.389)"/><path class="d" d="M877.677,730.212,870.91,733s-7.962.4-6.768,4.379,13.137,1.195,13.137,1.195,10.748.4,10.748-2.389-1.592-5.971-3.184-5.971Z" transform="translate(-599.741 -497.806)"/><path class="d" d="M699.81,198.593l-8.006-4.23-11.055,1.731-2.287,10.19,5.694-.221,1.591-3.744V206l2.627-.1,1.525-5.96.953,6.344,9.34-.192Z" transform="translate(-408.375 -116.99)"/><path class="f" d="M664.046,210.794a53.75,53.75,0,1,0,3.047,79.38L733.024,345.8a4.953,4.953,0,0,0,6.388-7.571L673.482,282.6A53.752,53.752,0,0,0,664.046,210.794Zm-4.25,66.451a40.27,40.27,0,1,1-4.808-56.747A40.27,40.27,0,0,1,659.8,277.245Z" transform="translate(-426.157 -177.535)"/><path class="g" d="M616.441,327.1a40.272,40.272,0,0,1-6.833-54.135q-1.155,1.163-2.233,2.436a40.27,40.27,0,1,0,61.554,51.939q1.075-1.275,2.025-2.611A40.272,40.272,0,0,1,616.441,327.1Z" transform="translate(-439.549 -222.585)"/></svg>