<svg xmlns="http://www.w3.org/2000/svg" xmlns:xlink="http://www.w3.org/1999/xlink" width="320" height="278.345" viewBox="0 0 320 278.345"><defs><style>.a{fill:url(#a);}.b,.x{fill:#fff;}.c{opacity:0.6;}.d{fill:#3182ce;}.e{fill:url(#b);}.f{fill:url(#c);}.g{fill:#47e6b1;}.h{fill:url(#d);}.i{fill:#f55f44;}.j{fill:url(#e);}.k{fill:url(#f);}.l{fill:url(#g);}.m{fill:url(#h);}.n{fill:url(#i);}.o{fill:url(#j);}.p{fill:url(#k);}.q{fill:url(#l);}.r,.w{fill:#535461;}.r{opacity:0.25;}.s,.t{fill:none;stroke-miterlimit:10;stroke-width:2px;}.s{stroke:#707070;}.t{stroke:#535461;}.u{opacity:0.7;}.v{fill:url(#m);}.x{opacity:0.1;}.y{fill:#4d8af0;}.z{fill:#3ad29f;}.aa{fill:url(#n);}.ab{fill:#eee;}</style><linearGradient id="a" x1="-5.376" y1="1.122" x2="-5.376" y2="0.122" gradientUnits="objectBoundingBox"><stop offset="0" stop-color="gray" stop-opacity="0.251"/><stop offset="0.54" stop-color="gray" stop-opacity="0.122"/><stop offset="1" stop-color="gray" stop-opacity="0.102"/></linearGradient><linearGradient id="b" x1="-15.963" y1="-0.371" x2="-15.963" y2="-0.985" xlink:href="#a"/><linearGradient id="c" x1="-16.934" y1="-0.59" x2="-16.934" y2="-1.204" xlink:href="#a"/><linearGradient id="d" x1="-4.961" y1="1.023" x2="-4.961" y2="0.023" xlink:href="#a"/><linearGradient id="e" x1="-13.016" y1="-0.196" x2="-13.016" y2="-0.811" xlink:href="#a"/><linearGradient id="f" x1="-11.166" y1="1.736" x2="-11.166" y2="1.122" xlink:href="#a"/><linearGradient id="g" x1="0.934" y1="-0.377" x2="0.934" y2="-1.377" xlink:href="#a"/><linearGradient id="h" x1="-5.014" y1="0.278" x2="-5.014" y2="-0.336" xlink:href="#a"/><linearGradient id="i" x1="-8.297" y1="2.894" x2="-8.297" y2="2.279" xlink:href="#a"/><linearGradient id="j" x1="0.219" y1="-0.207" x2="0.219" y2="-1.207" xlink:href="#a"/><linearGradient id="k" x1="-4.838" y1="0.289" x2="-4.838" y2="-0.326" xlink:href="#a"/><linearGradient id="l" x1="-5.971" y1="3.832" x2="-5.971" y2="3.217" xlink:href="#a"/><linearGradient id="m" x1="0.5" y1="1" x2="0.5" y2="0.002" xlink:href="#a"/><linearGradient id="n" x1="-1.655" y1="0.79" x2="-1.655" y2="-0.21" xlink:href="#a"/></defs><rect class="a" width="38.657" height="23.757" transform="translate(146.822 178.393) rotate(-16.6)"/><rect class="b" width="37.347" height="22.174" transform="translate(147.443 178.821) rotate(-16.6)"/><g class="c" transform="translate(149.499 178.579)"><rect class="d" width="4.753" height="3.517" transform="translate(5.559 3.37) rotate(163.4)"/><rect class="d" width="18.244" height="1.14" transform="translate(24.178 4.957) rotate(163.4)"/><rect class="d" width="13.303" height="0.76" transform="translate(24.886 7.324) rotate(163.4)"/></g><rect class="e" width="23.757" height="38.657" transform="translate(237.059 136.696) rotate(-78.98)"/><rect class="b" width="22.135" height="37.282" transform="matrix(0.19, -0.982, 0.982, 0.19, 237.143, 136.134)"/><g class="c" transform="translate(242.543 116.016)"><rect class="d" width="4.753" height="3.517" transform="translate(4.665 4.36) rotate(-168.98)"/><rect class="d" width="18.244" height="1.14" transform="translate(20.425 14.398) rotate(-168.98)"/><rect class="d" width="13.303" height="0.76" transform="translate(19.955 16.827) rotate(-168.98)"/></g><rect class="f" width="23.757" height="38.657" transform="translate(243.404 168.868) rotate(-23.45)"/><rect class="b" width="22.174" height="37.347" transform="translate(244.504 168.91) rotate(-23.45)"/><g class="c" transform="translate(255.674 162.244)"><rect class="g" width="4.753" height="3.517" transform="translate(6.919 5.76) rotate(-113.45)"/><rect class="g" width="18.244" height="1.14" transform="translate(7.563 24.436) rotate(-113.45)"/><rect class="g" width="13.303" height="0.76" transform="translate(5.294 25.421) rotate(-113.45)"/></g><rect class="h" width="38.657" height="23.757" transform="translate(122.298 66.403) rotate(-16.6)"/><rect class="b" width="37.347" height="22.174" transform="translate(122.92 66.834) rotate(-16.6)"/><g class="c" transform="translate(124.955 66.6)"><rect class="i" width="4.753" height="3.517" transform="translate(5.559 3.37) rotate(163.4)"/><rect class="i" width="18.244" height="1.14" transform="translate(24.182 4.956) rotate(163.4)"/><rect class="i" width="13.303" height="0.76" transform="translate(24.886 7.324) rotate(163.4)"/></g><rect class="j" width="23.757" height="38.657" transform="translate(212.527 24.711) rotate(-78.98)"/><rect class="b" width="22.174" height="37.347" transform="translate(213.182 23.83) rotate(-78.98)"/><g class="c" transform="translate(218.009 4.034)"><rect class="d" width="4.753" height="3.517" transform="translate(4.665 4.36) rotate(-168.98)"/><rect class="d" width="18.244" height="1.14" transform="translate(20.426 14.398) rotate(-168.98)"/><rect class="d" width="13.303" height="0.76" transform="translate(19.956 16.824) rotate(-168.98)"/></g><rect class="k" width="23.757" height="38.657" transform="translate(218.867 56.886) rotate(-23.45)"/><rect class="b" width="22.174" height="37.347" transform="translate(219.97 56.926) rotate(-23.45)"/><g class="c" transform="translate(231.14 50.263)"><rect class="g" width="4.753" height="3.517" transform="translate(6.921 5.76) rotate(-113.45)"/><rect class="g" width="18.244" height="1.14" transform="translate(7.562 24.436) rotate(-113.45)"/><rect class="g" width="13.303" height="0.76" transform="translate(5.294 25.424) rotate(-113.45)"/></g><rect class="l" width="38.657" height="23.757" transform="translate(18.22 150.682) rotate(-16.6)"/><rect class="b" width="37.347" height="22.174" transform="translate(18.845 151.112) rotate(-16.6)"/><g class="c" transform="translate(20.896 150.892)"><rect class="d" width="4.753" height="3.517" transform="translate(5.559 3.37) rotate(163.4)"/><rect class="d" width="18.244" height="1.14" transform="translate(24.182 4.956) rotate(163.4)"/><rect class="d" width="13.303" height="0.76" transform="translate(24.89 7.323) rotate(163.4)"/></g><rect class="m" width="23.757" height="38.657" transform="translate(108.459 108.996) rotate(-78.98)"/><rect class="b" width="22.135" height="37.282" transform="matrix(0.19, -0.982, 0.982, 0.19, 108.734, 108.266)"/><g class="c" transform="translate(113.938 88.316)"><rect class="i" width="4.753" height="3.517" transform="translate(4.665 4.36) rotate(-168.98)"/><rect class="i" width="18.244" height="1.14" transform="translate(20.429 14.399) rotate(-168.98)"/><rect class="i" width="13.303" height="0.76" transform="translate(19.959 16.827) rotate(-168.98)"/></g><rect class="n" width="23.757" height="38.657" transform="translate(114.801 141.17) rotate(-23.45)"/><rect class="b" width="22.174" height="37.347" transform="translate(115.904 141.21) rotate(-23.45)"/><g class="c" transform="translate(127.075 134.547)"><rect class="g" width="4.753" height="3.517" transform="translate(6.918 5.76) rotate(-113.45)"/><rect class="g" width="18.244" height="1.14" transform="translate(7.562 24.432) rotate(-113.45)"/><rect class="g" width="13.303" height="0.76" transform="translate(5.294 25.419) rotate(-113.45)"/></g><rect class="o" width="38.657" height="23.757" transform="translate(22.578 83.808) rotate(-16.6)"/><rect class="b" width="37.454" height="22.237" transform="translate(23.803 84.041) rotate(-16.809)"/><g class="c" transform="translate(25.245 84.019)"><rect class="d" width="4.753" height="3.517" transform="translate(5.559 3.37) rotate(163.4)"/><rect class="d" width="18.244" height="1.14" transform="translate(24.178 4.957) rotate(163.4)"/><rect class="d" width="13.303" height="0.76" transform="translate(24.886 7.324) rotate(163.4)"/></g><rect class="p" width="23.715" height="38.59" transform="matrix(0.19, -0.982, 0.982, 0.19, 112.531, 42.361)"/><rect class="b" width="22.174" height="37.347" transform="translate(113.467 41.242) rotate(-78.98)"/><g class="c" transform="translate(118.294 21.446)"><rect class="d" width="4.753" height="3.517" transform="translate(4.665 4.36) rotate(-168.98)"/><rect class="d" width="18.244" height="1.14" transform="translate(20.426 14.395) rotate(-168.98)"/><rect class="i" width="13.303" height="0.76" transform="translate(19.952 16.823) rotate(-168.98)"/></g><rect class="q" width="23.757" height="38.657" transform="translate(119.155 74.299) rotate(-23.45)"/><rect class="b" width="22.174" height="37.347" transform="translate(120.254 74.34) rotate(-23.45)"/><g class="c" transform="translate(131.429 67.676)"><rect class="g" width="4.753" height="3.517" transform="translate(6.919 5.76) rotate(-113.45)"/><rect class="g" width="18.244" height="1.14" transform="translate(7.56 24.436) rotate(-113.45)"/><rect class="g" width="13.303" height="0.76" transform="translate(5.294 25.415) rotate(-113.45)"/></g><circle class="r" cx="2.018" cy="2.018" r="2.018" transform="translate(21.561 20.587)"/><circle class="r" cx="2.018" cy="2.018" r="2.018" transform="translate(232.287 197.379)"/><circle class="r" cx="2.018" cy="2.018" r="2.018" transform="translate(53.993 187.342)"/><circle class="r" cx="2.018" cy="2.018" r="2.018" transform="translate(251.051 159.245)"/><circle class="r" cx="2.018" cy="2.018" r="2.018" transform="translate(270.044 66.654)"/><path class="r" d="M326.051,1.8h-1.793V0h-.734V1.8H321.73v.731h1.793V4.321h.734V2.528h1.793Z" transform="translate(-203.009)"/><path class="r" d="M138.9,76.333h-1.793V74.54h-.734v1.793H134.58v.734h1.793v1.793h.734V77.068H138.9Z" transform="translate(-84.919 -47.034)"/><path class="r" d="M62.771,354.063H60.978V352.27h-.734v1.793H58.45v.734h1.793v1.793h.734V354.8h1.793Z" transform="translate(-36.881 -222.28)"/><path class="r" d="M51.835,156h-1.8v-1.8h-.731V156h-1.8v.731h1.8v1.8h.731v-1.8h1.8Z" transform="translate(-29.978 -97.299)"/><path class="r" d="M4.321,292.1H2.528v-1.8H1.8v1.8H0v.731H1.8v1.793h.731v-1.793H4.321Z" transform="translate(0 -183.177)"/><path class="r" d="M859.8,221.923h-1.793V220.13h-.734v1.793H855.48v.734h1.793v1.793h.734v-1.793H859.8Z" transform="translate(-539.801 -138.9)"/><path class="r" d="M690.371,285.187h-1.793v-1.8h-.734v1.8H686.05v.731h1.793v1.8h.734v-1.8h1.793Z" transform="translate(-432.892 -178.817)"/><path class="r" d="M545.685,114.553h-1.8V112.76h-.731v1.793h-1.8v.734h1.8v1.793h.731v-1.793h1.8Z" transform="translate(-341.594 -71.151)"/><path class="s" d="M439.617,469.38a10.109,10.109,0,0,0,4.428,11.354c1.583.922,3.41,1.391,4.948,2.391,3.339,2.173,4.657,6.343,5.742,10.177,1.244,4.41,2.495,9.07,1.354,13.506-.738,2.827-2.38,5.328-3.321,8.1a16.894,16.894,0,0,0-.8,7.21,6.136,6.136,0,0,0,1.343,3.587c1.277,1.376,3.321,1.583,5.166,1.915a25.163,25.163,0,0,1,18.081,14.022" transform="translate(-338.546 -323.349)"/><path class="t" d="M440.687,469.38a10.109,10.109,0,0,0,4.428,11.354c1.583.922,3.41,1.391,4.948,2.391,3.34,2.173,4.657,6.343,5.742,10.177,1.244,4.41,2.495,9.07,1.354,13.506-.738,2.827-2.38,5.328-3.321,8.1a16.894,16.894,0,0,0-.8,7.21,6.136,6.136,0,0,0,1.343,3.587c1.277,1.376,3.321,1.583,5.166,1.915a25.163,25.163,0,0,1,18.081,14.022" transform="translate(-339.221 -323.349)"/><path class="s" d="M562.242,384.5c-3.185,4.428-6.491,9.225-6.764,14.675-.417,8.388,6.273,15.247,9.288,23.093a27.446,27.446,0,0,1-.923,21.458c-1.476,3.022-3.546,6.022-3.291,9.369.155,2.044,1.177,3.9,2,5.779a32.579,32.579,0,0,1-1.889,29.417" transform="translate(-411.893 -269.79)"/><path class="t" d="M563.312,384.5c-3.184,4.428-6.491,9.225-6.764,14.675-.417,8.388,6.273,15.247,9.288,23.093a27.447,27.447,0,0,1-.919,21.458c-1.476,3.022-3.546,6.022-3.292,9.369.155,2.044,1.177,3.9,2,5.779a32.579,32.579,0,0,1-1.889,29.417" transform="translate(-412.569 -269.79)"/><path class="s" d="M679.677,492.76l1.539,12.546c.2,1.668.369,3.487-.517,4.908-.849,1.347-2.439,1.989-3.69,2.985-4.059,3.266-3.69,9.539-2.3,14.568s3.424,10.432,1.476,15.27c-.8,2-2.214,3.69-3.288,5.535a17,17,0,0,0-2.033,10.546" transform="translate(-484.619 -338.101)"/><path class="t" d="M680.677,492.76l1.539,12.546c.2,1.668.369,3.487-.517,4.908-.849,1.347-2.439,1.989-3.69,2.985-4.059,3.266-3.69,9.539-2.3,14.568s3.424,10.432,1.476,15.27c-.8,2-2.214,3.69-3.288,5.535a17,17,0,0,0-2.033,10.546" transform="translate(-485.25 -338.101)"/><g class="u" transform="translate(63.654 23.903)"><path class="v" d="M510.238,217.559a37.233,37.233,0,0,0-48.727-35.384,44.709,44.709,0,0,0,.476-6.317,37.211,37.211,0,0,0-74.34-2.675A37.233,37.233,0,0,0,338.9,208.563c0,18.672,13.749,45.229,31.679,49.934l2.786,1.594-1.513,5.188h8.967l-1.948-5.2,2.775-1.587c13.853-3.635,25.207-20.314,29.657-36.325a27.189,27.189,0,0,0,7.937,3.613l2.786,1.594-1.513,5.188h8.967l-1.948-5.2,2.775-1.587a25.961,25.961,0,0,0,5.9-2.4c2.395,17.952,15.129,39.875,31.27,44.108l2.786,1.594-1.513,5.188h8.967l-1.948-5.2,2.775-1.587C496.5,262.789,510.238,236.231,510.238,217.559Z" transform="translate(-338.9 -138.417)"/></g><path class="i" d="M275.1,394.507H266.42l1.517-5.207h5.207Z" transform="translate(-168.109 -245.645)"/><path class="i" d="M418.426,266.758c0,19.886-16.122,49.023-36.008,49.023s-36.008-29.152-36.008-49.023a36.008,36.008,0,1,1,72.016,0Z" transform="translate(-279.985 -172.775)"/><path class="w" d="M270.544,386.924h-5.207L262.3,385.19h11.281Z" transform="translate(-165.509 -243.052)"/><path class="x" d="M379.063,252.5s-15.185,8.244-17.343,24.723" transform="translate(-289.645 -186.499)"/><path class="y" d="M402.705,308.727H394.03l1.517-5.207h5.207Z" transform="translate(-248.63 -191.519)"/><path class="y" d="M546.023,180.968c0,19.886-16.122,49.023-36.008,49.023S474,200.857,474,180.968a36.008,36.008,0,1,1,72.016,0Z" transform="translate(-360.493 -118.642)"/><path class="w" d="M398.154,301.138h-5.207L389.91,299.4h11.281Z" transform="translate(-246.03 -188.919)"/><path class="x" d="M506.673,166.71s-15.185,8.244-17.343,24.724" transform="translate(-370.166 -132.366)"/><path class="z" d="M529.239,418.1H520.56l1.52-5.2h5.2Z" transform="translate(-328.469 -260.537)"/><path class="z" d="M672.576,290.348c0,19.886-16.122,49.023-36.008,49.023s-36.008-29.152-36.008-49.023a36.008,36.008,0,1,1,72.016,0Z" transform="translate(-440.352 -187.66)"/><path class="w" d="M524.69,410.514h-5.2l-3.037-1.734h11.277Z" transform="translate(-325.876 -257.937)"/><path class="x" d="M633.2,276.09s-15.185,8.244-17.343,24.724" transform="translate(-450.006 -201.384)"/><rect class="aa" width="99.705" height="61.276" transform="translate(108.97 217.145) rotate(-2.862)"/><rect class="ab" width="96.204" height="57.115" transform="translate(110.314 218.094) rotate(-2.93)"/><rect class="d" width="12.24" height="9.059" transform="translate(127.366 230.659) rotate(177.07)"/><rect class="d" width="47.001" height="2.937" transform="translate(173.008 245.974) rotate(177.07)"/><rect class="d" width="34.273" height="1.959" transform="translate(173.331 252.33) rotate(177.07)"/></svg>