<svg xmlns="http://www.w3.org/2000/svg" width="320" height="314.729" viewBox="0 0 320 314.729"><defs><style>.a{fill:#f2f2f2;}.b{fill:#fff;}.c{fill:#3f3d56;}.d{fill:#2f2e41;}.e{fill:#ffb8b8;}.f{fill:#3182ce;}.g{fill:#a0616a;}.h{fill:#ccc;}</style></defs><g transform="translate(0 0)"><path class="a" d="M622.354,201.461a284.227,284.227,0,0,1-2.475,36.533c-.056.425-.118.851-.174,1.276H505.284c-.338-.42-.671-.845-.994-1.276-1.076-1.425-2.086-2.89-3.013-4.407-4.458-7.308-6.529-15.881-4.535-21.815l.036-.092a10.393,10.393,0,0,1,2.009-3.536c4.592-5.227,13.939-4.412,22.44-.261-7.651-8.281-13.764-18.751-14.277-28.123-.5-9.142,4.243-15.7,9.4-21.282.169-.185.338-.364.507-.543.082-.092.169-.179.251-.272,4.023-4.253,8.717-8.45,15.548-7.984,7.492.512,15.83,6.739,21.692,14.016s9.777,15.548,13.744,23.624,8.266,16.347,14.6,23.229c-8.594-10.746-15.543-22.989-18.151-34.918s-.435-23.414,7.138-29.082a17.788,17.788,0,0,1,7.774-3.187c.328-.056.661-.1,1-.144,7.036-.84,15.456,1.548,22.64,7.328,7.912,6.365,13.426,15.835,16.194,24.838S622.395,193.067,622.354,201.461Z" transform="translate(-389.286 -142.984)"/><path class="b" d="M549.021,304.586h-2.188q-1.046-.646-2.1-1.276c-.436-.272-.876-.533-1.317-.8q-10.923-6.588-21.979-12.632t-22.2-11.535a.917.917,0,0,1-.533-1.045.26.26,0,0,1,.036-.077c.1-.195.333-.277.671-.113.912.451,1.829.9,2.741,1.363q11.184,5.58,22.276,11.725t22.046,12.832c.154.092.307.19.461.282C547.632,303.735,548.324,304.161,549.021,304.586Z" transform="translate(-390.602 -208.3)"/><path class="b" d="M595.271,253.425h-1.353c-.308-.425-.61-.851-.917-1.276q-10.838-15.02-21.672-30.04-17.741-24.59-35.472-49.18a.87.87,0,0,1-.154-.3c-.1-.364.164-.579.507-.543a1.029,1.029,0,0,1,.718.451q9.947,13.79,19.888,27.57l35.293,48.929c.748,1.035,1.5,2.075,2.244,3.111C594.661,252.574,594.969,253,595.271,253.425Z" transform="translate(-408.642 -157.138)"/><path class="b" d="M685.427,231.18c-.056,2.28-.195,4.525-.379,6.749q-.054.638-.108,1.276h-1.42c.041-.425.082-.851.118-1.276.282-3.213.477-6.462.487-9.8a136.646,136.646,0,0,0-2.844-27.529,171.512,171.512,0,0,0-8.492-28.569A196.514,196.514,0,0,0,659,143.8a.756.756,0,0,1-.128-.5c.056-.4.594-.528,1-.143a1.172,1.172,0,0,1,.2.256q.992,1.683,1.948,3.377a196.4,196.4,0,0,1,13.206,28.339,170.7,170.7,0,0,1,7.927,28.615A134.808,134.808,0,0,1,685.427,231.18Z" transform="translate(-468.701 -142.918)"/><path class="c" d="M603.3,328.322H292.244a4.472,4.472,0,0,0-4.468,4.469V543.572a4.473,4.473,0,0,0,4.468,4.469H603.3a4.465,4.465,0,0,0,3.4-1.568,1.046,1.046,0,0,0,.1-.123,4.186,4.186,0,0,0,.641-1.081,4.361,4.361,0,0,0,.338-1.7V332.791A4.473,4.473,0,0,0,603.3,328.322Zm3.2,215.25a3.164,3.164,0,0,1-.528,1.753,3.3,3.3,0,0,1-1.209,1.086,3.168,3.168,0,0,1-1.46.354H292.244a3.2,3.2,0,0,1-3.193-3.193V332.791a3.2,3.2,0,0,1,3.193-3.193H603.3a3.2,3.2,0,0,1,3.2,3.193Z" transform="translate(-287.775 -233.312)"/><rect class="c" width="318.722" height="1.277" transform="translate(0.637 112.92)"/><circle class="c" cx="3.832" cy="3.832" r="3.832" transform="translate(7.663 100.759)"/><circle class="c" cx="3.832" cy="3.832" r="3.832" transform="translate(18.681 100.759)"/><circle class="c" cx="3.832" cy="3.832" r="3.832" transform="translate(29.699 100.759)"/><path class="d" d="M559.96,549.844c-3.833-2.495-5.739-8.293-4.8-13.6a16.4,16.4,0,0,1,8.716-11.84,13.657,13.657,0,0,1,12.928.919c3.888,2.377,9.387,3.679,11.233,8.436,1.419,3.655-.381,11.078-2.29,14.628-1.651,3.069-4.787,4.472-7.734,5.082a23.235,23.235,0,0,1-18.791-4.336Z" transform="translate(-418.023 -328.325)"/><path class="e" d="M260.619,484.484l-3.064,5.283-.4.7-.589,1.025h-9.035l.61-1.025,1.578-2.66,3.679-6.211,4.166,1.666Z" transform="translate(-120.681 -234.801)"/><path class="d" d="M532.216,621.266l-1.65-1.025-.2-.128,10.357-18.874a7.036,7.036,0,0,1,4.228-3.392,6.956,6.956,0,0,1,3.474-.128,6.839,6.839,0,0,1,1.917.718,6.682,6.682,0,0,1,.712.451,6.84,6.84,0,0,1,2.1,2.368,7.08,7.08,0,0,1-.215,7.149l-3.992,6.38-3.413,5.457-.641,1.025H532.216Z" transform="translate(-406.048 -364.577)"/><circle class="e" cx="12.586" cy="12.586" r="12.586" transform="translate(140.191 203.045)"/><path class="f" d="M583.083,619.807H554.79l.128-.364q-.108-.331-.2-.661c-.067-.231-.123-.466-.174-.7a15.472,15.472,0,0,1,.005-6.508c1.563-7.677,7.8-13.913,7.8-13.913.108-.082.215-.159.323-.236a14.232,14.232,0,0,1,3-1.681c4.633-1.922,9.491-1.148,12.755-.154a25.445,25.445,0,0,1,3.326,1.266c.379.179.584.292.584.292l.323,9.844.39,11.786Z" transform="translate(-417.671 -363.118)"/><path class="d" d="M619.217,617.586l-2.163-11L614.871,595.5A2.316,2.316,0,0,0,613,593.67l-4.571-.789-4.253-.733a2.285,2.285,0,0,0-2.209.845,2.26,2.26,0,0,0-.5,1.4,2.315,2.315,0,0,0,.19.917c2.219,5.176,2.26,13.37,1.7,22.271-.026.338-.046.682-.072,1.025h16.137Z" transform="translate(-440.717 -361.922)"/><path class="d" d="M557.186,595.205a2.32,2.32,0,0,0-3.664-1.271l-1.963,1.783-8.035,7.318a2.227,2.227,0,0,0-.574.815c-.907,2.168-2.675,6.447-4.73,11.73q-.5,1.291-1.03,2.66c-.123.338-.256.682-.39,1.025h13.242c.108-.343.215-.687.323-1.025.589-1.86,1.163-3.684,1.717-5.458,1.619-5.15,3.08-9.829,4.207-13.529q.469-1.538.856-2.839A2.318,2.318,0,0,0,557.186,595.205Z" transform="translate(-409.187 -362.576)"/><path class="e" d="M343.6,489.042h.856l-.118-.287-.312-.738-4.822-11.443-.738.446-5.924,3.582,3.039,7.415.42,1.025h7.6Z" transform="translate(-162.132 -232.353)"/><path class="d" d="M619.325,597.447a7.083,7.083,0,0,0-8.871-4.187,6.337,6.337,0,0,0-.651.256,6.992,6.992,0,0,0-2.982,2.526,6.758,6.758,0,0,0-.733,1.42,7.042,7.042,0,0,0,.159,5.417l1.481,3.3,5.3,11.786.461,1.025h10.726l.738-.287,1.917-.738.266-.1Z" transform="translate(-442.741 -362.301)"/><path class="d" d="M599.37,528.577a2.082,2.082,0,0,0,2.369-.9,3,3,0,0,0,.173-2.636,5.5,5.5,0,0,0-1.637-2.16,6.357,6.357,0,0,0-2.879-1.49,3.823,3.823,0,0,0-3.1.682,2.755,2.755,0,0,0-.936,2.933,4.063,4.063,0,0,0,2.09,2.05,13.884,13.884,0,0,0,5.656,1.608Z" transform="translate(-436.708 -327.401)"/><path class="d" d="M587.809,549.258c-2.024.279-1.764-.751-2.574-2.626s-1.9-4.1-3.929-4.291c-1.667-.156-3.04,1.177-4.39,2.166-2.407,1.763-5.65,2.627-8.44,1.569s-4.728-4.383-3.67-7.172a6.12,6.12,0,0,1,3.539-3.346,12.313,12.313,0,0,1,4.931-.685,25.444,25.444,0,0,1,10.692,2.737c2.292,1.165,4.523,2.83,5.392,5.25s1.441,5.819-1.045,6.473Z" transform="translate(-422.698 -334.002)"/><path class="d" d="M602.235,516.458a4.234,4.234,0,0,1,1.462-5.293,7.17,7.17,0,0,1,5.785-.811,11.359,11.359,0,0,1,8.148,7.9c.829,3.045.336,6.315,1.038,9.391a12.324,12.324,0,0,0,15.487,9.083c2.1-.617,4.238-2.118,4.445-4.3a12.052,12.052,0,0,1-7.137,12.068,21.013,21.013,0,0,1-8.663,1.128,15.5,15.5,0,0,1-5.631-.9,10.078,10.078,0,0,1-5.3-5.741,15.952,15.952,0,0,1-.7-7.91c.289-2.064.863-4.088,1.023-6.166a8.559,8.559,0,0,0-1.425-5.941c-1.281-1.644-3.729-2.484-5.55-1.471a13.419,13.419,0,0,1-2.118,1.335c-.8.263-1.923-.2-1.85-1.034Z" transform="translate(-440.607 -321.936)"/><path class="f" d="M770.781,610.709l.1-1.025,2.89-30.071a18.412,18.412,0,0,1,3.039-1.932,17.913,17.913,0,0,1,14.794-.323,16.155,16.155,0,0,1,2.378,1.163l1.691,31.162.056,1.025Z" transform="translate(-523.264 -354.02)"/><circle class="e" cx="12.586" cy="12.586" r="12.586" transform="translate(248.466 192.417)"/><path class="d" d="M792.117,531.483a6.851,6.851,0,0,0-5.2-11.563,19.311,19.311,0,0,0-5.042,1.293,16.67,16.67,0,0,1-7.833.705,10.458,10.458,0,0,1-6.67-3.938,7.664,7.664,0,0,1-.943-7.516c1.27-2.779,4.237-4.311,7.028-5.555a12.847,12.847,0,0,1,3.568-1.172,4.575,4.575,0,0,1,3.549.895c.784.675,1.244,1.688,2.1,2.273a7.044,7.044,0,0,0,3.367.757A12.916,12.916,0,0,1,792.3,531Z" transform="translate(-520.853 -318.805)"/><path class="d" d="M761.79,583.592l-1.875-5.206-.117-.325a1.078,1.078,0,0,0-1.612-.531l-2.13,1.42s-13.657,0-14.753,8.194c-.015.128-.036.271-.051.425a.092.092,0,0,1-.005.021c-.138.538-2.716,10.5-4.93,22.8-.061.338-.123.682-.184,1.025h29.676C766.773,599.058,766.233,587.571,761.79,583.592Z" transform="translate(-506.371 -354.724)"/><path class="d" d="M827.787,610.389c-1.619-12.616-3.936-22.819-3.936-22.819-.02-.154-.041-.3-.057-.425-1.091-8.194-14.748-8.194-14.748-8.194l-2.128-1.419a1.078,1.078,0,0,0-1.613.532l-1.993,5.529c-4.443,3.979-4.983,15.466-4.018,27.821h28.62C827.874,611.07,827.828,610.727,827.787,610.389Z" transform="translate(-536.968 -354.725)"/><path class="f" d="M375.368,585.25l-3.044,28.728L372.216,615h-8.235c.1-.333.195-.676.3-1.025,2.337-8.015,5.519-19.714,5.176-22.814a6.067,6.067,0,0,1,3.229-6.452l.236.046Z" transform="translate(-324.929 -358.314)"/><circle class="g" cx="12.586" cy="12.586" r="12.586" transform="translate(51.133 192.896)"/><path class="f" d="M410.187,604.89a20.623,20.623,0,0,0-1.553,3.669c-.149.451-.292.922-.425,1.4-.1.333-.184.677-.271,1.025h-33.2c.046-.338.087-.682.133-1.025,1.7-13.4,3.07-27,3.29-29.22.021-.21.031-.318.031-.318,19.893-10.485,34.411,3.229,34.411,3.229s.021.1.051.287C412.975,585.857,414.594,597.049,410.187,604.89Z" transform="translate(-330.175 -354.299)"/><path class="f" d="M438.775,615.626l-2.214-4.745.538-18.817,5.7-1.056.2-.036a15.089,15.089,0,0,1,6.467,7.543c1.107,2.767,3.213,11.089,4.991,18.515.082.343.164.687.246,1.025H439.907l-.477-1.025Z" transform="translate(-360.316 -361.366)"/><path class="c" d="M405.547,478.822H332.769a5.9,5.9,0,0,0-5.888,5.888v72.778a5.9,5.9,0,0,0,5.888,5.888h72.778a5.892,5.892,0,0,0,5.888-5.888V484.71a5.892,5.892,0,0,0-5.888-5.888Zm4.863,78.666a4.867,4.867,0,0,1-4.863,4.863H332.769a4.871,4.871,0,0,1-4.863-4.863V484.71a4.871,4.871,0,0,1,4.863-4.863h72.778a4.867,4.867,0,0,1,4.863,4.863Zm-56.175,4.863-.108,1.025H384.6c.087-.348.174-.692.271-1.025Z" transform="translate(-306.841 -306.688)"/><path class="c" d="M596.157,478.822H523.379a5.9,5.9,0,0,0-5.888,5.888v72.778a5.9,5.9,0,0,0,5.888,5.888h72.778a5.892,5.892,0,0,0,5.888-5.888V484.71a5.892,5.892,0,0,0-5.888-5.888Zm4.863,78.666a4.867,4.867,0,0,1-4.863,4.863H523.379a4.871,4.871,0,0,1-4.863-4.863V484.71a4.871,4.871,0,0,1,4.863-4.863h72.778a4.867,4.867,0,0,1,4.863,4.863Zm-64.2,4.863q.092.331.2.661l-.128.364H562.34c.026-.343.046-.687.072-1.025Z" transform="translate(-399.773 -306.688)"/><path class="c" d="M786.777,478.822H714a5.892,5.892,0,0,0-5.888,5.888v72.778A5.892,5.892,0,0,0,714,563.376h72.778a5.9,5.9,0,0,0,5.888-5.888V484.71A5.9,5.9,0,0,0,786.777,478.822Zm4.863,78.666a4.87,4.87,0,0,1-4.863,4.863H714a4.867,4.867,0,0,1-4.863-4.863V484.71A4.867,4.867,0,0,1,714,479.847h72.778a4.87,4.87,0,0,1,4.863,4.863Zm-39.417,4.863c-.026.338-.052.682-.077,1.025h22.082c.041-.338.087-.682.128-1.025Z" transform="translate(-492.709 -306.688)"/><path class="h" d="M600.2,694.021H431.1a4.1,4.1,0,1,1,0-8.2H600.2a4.1,4.1,0,1,1,0,8.2Z" transform="translate(-355.652 -407.61)"/><path class="f" d="M597.9,429.021H523.6a4.1,4.1,0,1,1,0-8.2H597.9a4.1,4.1,0,1,1,0,8.2Z" transform="translate(-400.75 -278.41)"/><path class="d" d="M402.432,538.129a2.487,2.487,0,0,0,3.252.208,22.1,22.1,0,0,0,7.112-8.274c1.766-3.825,1.963-8.52-.166-12.155-1.8-3.074-4.978-5.057-8.146-6.686a14.487,14.487,0,0,0-3.932-1.516,5.6,5.6,0,0,0-4.075.657A3.52,3.52,0,0,0,394.888,514a13.245,13.245,0,0,0-5.654-3.8,7.311,7.311,0,0,0-4.318-.313,7.078,7.078,0,0,0-4.28,4.285,8.57,8.57,0,0,0-.647,4.676,5.713,5.713,0,0,0,2.5,3.913,7.707,7.707,0,0,0,5.691.534,48.158,48.158,0,0,1,5.7-1.335,5.9,5.9,0,0,1,5.3,1.855,8.086,8.086,0,0,1,1.235,3.889l.974,7.092a8.65,8.65,0,0,0,.774,2.963A1.71,1.71,0,0,0,402.432,538.129Z" transform="translate(-332.692 -321.681)"/></g></svg>