<svg xmlns="http://www.w3.org/2000/svg" xmlns:xlink="http://www.w3.org/1999/xlink" width="120" height="120" viewBox="0 0 120 120"><defs><style>.a{fill:#fff;stroke:#707070;stroke-width:6px;}.b{clip-path:url(#a);}.c{fill:#f5f5f5;}.d{fill:#ff5252;}.e{fill:#3182ce;}.f{opacity:0.1;}.g{fill:#464353;}</style><clipPath id="a"><circle class="a" cx="60" cy="60" r="60" transform="translate(141 109)"/></clipPath></defs><g class="b" transform="translate(-141 -109)"><circle class="c" cx="74.64" cy="74.64" r="74.64" transform="translate(126.039 94.13)"/><g transform="translate(156.717 136.525)"><circle class="d" cx="7.664" cy="7.664" r="7.664" transform="translate(60.909 0)"/><rect class="e" width="62.893" height="49.353" transform="translate(13.099 12.947)"/><rect class="f" width="62.893" height="49.353" transform="translate(13.099 12.947)"/><rect class="g" width="88.992" height="42.877" transform="translate(0 19.717)"/><rect class="e" width="52.002" height="58.085" transform="translate(18.544 7.844)"/><rect class="e" width="10.989" height="7.064" transform="translate(3.63 25.506)"/><rect class="e" width="10.989" height="7.064" transform="translate(3.63 37.476)"/><rect class="e" width="10.989" height="7.064" transform="translate(3.63 49.446)"/><rect class="g" width="10.989" height="7.064" transform="translate(25.216 13.535)"/><rect class="g" width="10.989" height="7.064" transform="translate(25.216 25.506)"/><rect class="g" width="10.989" height="7.064" transform="translate(25.216 37.476)"/><rect class="g" width="10.989" height="7.064" transform="translate(63.874 20.6) rotate(180)"/><rect class="g" width="10.989" height="7.064" transform="translate(63.874 32.57) rotate(180)"/><rect class="g" width="10.989" height="7.064" transform="translate(63.874 44.54) rotate(180)"/><rect class="e" width="10.989" height="7.064" transform="translate(73.588 25.506)"/><rect class="e" width="10.989" height="7.064" transform="translate(73.588 37.476)"/><rect class="e" width="10.989" height="7.064" transform="translate(73.588 49.446)"/><rect class="g" width="9.615" height="18.838" transform="translate(39.737 47.091)"/><rect class="f" width="10.989" height="2.159" transform="translate(25.216 13.535)"/><rect class="f" width="10.989" height="2.159" transform="translate(52.885 13.535)"/><rect class="f" width="10.989" height="2.159" transform="translate(52.885 25.506)"/><rect class="f" width="10.989" height="2.159" transform="translate(52.885 37.476)"/><rect class="f" width="10.989" height="2.159" transform="translate(25.216 25.506)"/><rect class="f" width="10.989" height="2.159" transform="translate(25.216 37.476)"/><rect class="f" width="10.989" height="1.668" transform="translate(3.63 25.506)"/><rect class="f" width="10.989" height="1.668" transform="translate(3.63 37.476)"/><rect class="f" width="10.989" height="1.668" transform="translate(3.63 49.446)"/><rect class="f" width="10.989" height="1.668" transform="translate(73.588 25.506)"/><rect class="f" width="10.989" height="1.668" transform="translate(73.588 37.476)"/><rect class="f" width="10.989" height="1.668" transform="translate(73.588 49.446)"/></g></g></svg>