<svg xmlns="http://www.w3.org/2000/svg" xmlns:xlink="http://www.w3.org/1999/xlink" width="320" height="241.81" viewBox="0 0 320 241.81"><defs><style>.a,.g{fill:#3182ce;}.a,.f,.n{opacity:0.1;}.b{fill:url(#a);}.c{fill:#d38884;}.d{fill:#444053;}.e{fill:#b07473;}.h{fill:#67647e;}.i{fill:#585268;}.j{fill:#e1e7ef;}.k{fill:url(#b);}.l{fill:#a27772;}.m{fill:#cc818c;}.o{fill:#f6f8fb;}.p{fill:url(#c);}.q{fill:#65617d;}.r{fill:#fbbebe;}.s,.z{opacity:0.05;}.t{fill:#7c5c5c;}.u{fill:url(#d);}.v{fill:#fdc2cc;}.w{fill:#d39999;}.x{fill:#7e5659;}.y{fill:#865a61;}.aa{fill:url(#e);}.ab{fill:#fff;opacity:0.5;}.ac{fill:#3f2b3b;}.ad{fill:none;stroke:#3f2b3b;stroke-miterlimit:10;}.ae{fill:#a8a8a8;}.af{opacity:0.2;}</style><linearGradient id="a" x1="0.5" y1="1" x2="0.5" gradientUnits="objectBoundingBox"><stop offset="0" stop-color="gray" stop-opacity="0.251"/><stop offset="0.54" stop-color="gray" stop-opacity="0.122"/><stop offset="1" stop-color="gray" stop-opacity="0.102"/></linearGradient><linearGradient id="b" x1="0.5" x2="0.5" y2="0" xlink:href="#a"/><linearGradient id="c" x1="0.5" x2="0.5" y2="0" xlink:href="#a"/><linearGradient id="d" x1="1.096" x2="1.096" y2="0" xlink:href="#a"/><linearGradient id="e" x1="0.5" x2="0.5" y2="0" xlink:href="#a"/></defs><g transform="translate(0.013 -0.004)"><path class="a" d="M43.44,426.65C48.5,446.381,59.222,463.437,76.163,471.7c35.221,17.183,114.6,8.32,173.859-1.851,30.659-5.263,57.587-19.773,77.161-40.222Z" transform="translate(-39.995 -312.308)"/><path class="a" d="M375.095,41.609H342.583a2.574,2.574,0,1,1,0-5.125h5.625a2.572,2.572,0,1,1,0-5.122h-4.014a2.574,2.574,0,1,1,0-5.125h16.969a48.076,48.076,0,0,0-13.237-3.325c-46.272-5.42-62.794-1.837-68.63,1.851a68.1,68.1,0,0,1-23.781,9.5c-28.549,5.369-81.94,11.83-130.333-2.07C101.131,25.293,83.256,36.98,72.54,56.475h308.2a42.411,42.411,0,0,0-3.817-15.49A2.948,2.948,0,0,1,375.095,41.609Z" transform="translate(-60.91 -20.14)"/><path class="a" d="M31.845,280.23a119.242,119.242,0,0,0,1.263,34.425l285.456,9.518A121.833,121.833,0,0,0,338.4,296.608Zm112.894,24.558h-5.625a2.572,2.572,0,1,1,0,5.122h-32.5a2.572,2.572,0,1,1,0-5.122h5.625a2.574,2.574,0,1,1,0-5.125h-4.019a2.572,2.572,0,1,1,0-5.122h32.512a2.572,2.572,0,1,1,0,5.122h4.005a2.574,2.574,0,1,1,0,5.125Z" transform="translate(-31.16 -207.071)"/><path class="a" d="M352.9,149.94,41.248,156.851a104.675,104.675,0,0,0-7.468,29.342H347.434a112.226,112.226,0,0,0,4.528-18.7A81.012,81.012,0,0,0,352.9,149.94ZM97.058,172.585H91.432a2.574,2.574,0,1,1,0,5.125H58.923a2.574,2.574,0,1,1,0-5.125h5.625a2.572,2.572,0,1,1,0-5.122H60.529a2.574,2.574,0,1,1,0-5.125H93.041a2.574,2.574,0,1,1,0,5.125h4.017a2.572,2.572,0,1,1,0,5.122Z" transform="translate(-33.052 -113.428)"/><ellipse class="a" cx="21.16" cy="4.751" rx="21.16" ry="4.751" transform="translate(165.69 206.189)"/><ellipse class="a" cx="38.174" cy="3.133" rx="38.174" ry="3.133" transform="translate(197.845 222.893)"/><ellipse class="a" cx="38.174" cy="4.751" rx="38.174" ry="4.751" transform="translate(44.572 216.525)"/><ellipse class="a" cx="28.723" cy="4.751" rx="28.723" ry="4.751" transform="translate(112.226 192.744)"/><ellipse class="a" cx="22.994" cy="4.751" rx="22.994" ry="4.751" transform="translate(125.975 232.313)"/><path class="b" d="M466.983,190.268c-.608-4.09-4.323-13.633-4.323-13.633h0q-.1-.422-.219-.844c-2.636-9.057-6.284-9.844-6.284-9.844l-13.068-2.813a1.013,1.013,0,0,1,.281.262,1.818,1.818,0,0,0-.205.031,5.118,5.118,0,0,1-1.145-2.475c-.025-.135-.048-.281-.065-.419a9.192,9.192,0,0,0-.748-13.819c-.138-.107-.281-.211-.419-.309a2.083,2.083,0,0,0,.174-2.478,8.637,8.637,0,0,0-5.569-4.152,9.441,9.441,0,0,0-5.406-.115,19.533,19.533,0,0,0-2.83,1.314c-1.735.866-3.656,1.553-4.953,2.979a1.454,1.454,0,0,0-.5,1.2,3.228,3.228,0,0,0,.492.869,2.623,2.623,0,0,1,.025,2.177,21.07,21.07,0,0,0-.807,2.093,2.188,2.188,0,0,0,.436,2.1,9.268,9.268,0,0,0,.816.563,4.274,4.274,0,0,1,.779.875q.776,1.041,1.547,2.09a21.529,21.529,0,0,1,1.938,2.945,14.349,14.349,0,0,0,1.2,2.25,3.334,3.334,0,0,0,.515.54l-.152-.059a2.343,2.343,0,0,0,1.719.7h.079a.472.472,0,0,0,.315-.129v.281c.031,1,.025,2.073-.045,3.077l-.121-.062a1.055,1.055,0,0,0-1.125.118l-12.03,9.653s-2.616,3.578-2.25,9.754l-2.11,9.262s-2.635,7.859-.608,13.47,3.2,8.821,3.2,8.821.81,6.376,2.028,6.9,1.744.8,1.744.8l.242,1.525h0s.082.149.225.4c.886,1.541,4.168,6.981,6.075,6.4a24.385,24.385,0,0,1,.309,4.469l1.887,12.671s1.316,3.446,1.235,5.251,1.536,4.379,1.536,4.379a8.368,8.368,0,0,0-.81,5.893c.771,3.375,1.744,18.924,1.744,18.924l1.406,3.769-.039,4.419a4.218,4.218,0,0,1-.872,1.969c-.911.99-.844,2.135-3.041,3.488s-3.589,1.865-3.589,3.657a4.7,4.7,0,0,1-.068.745c-.2,1.316-.6,2.031,3.443,2.413a10.649,10.649,0,0,0,7.909-2.644s.7-1.266,3.983-1.778c0,0,1.125-.059,1.184-1.052.023-.343.017-1,0-1.721a10.593,10.593,0,0,0-.36-3.06,6.671,6.671,0,0,1-.734-1.983h.914s.844-6.376,0-10.505a17.043,17.043,0,0,1-.082-7.057l-.163-10.9a3.116,3.116,0,0,1-.242-3.33c.883-2.126,0-12.629,0-12.629s.326-3.769,1.257-4.652.045-5.521,0-5.763l1.659,5.566s.728,11.065,2.273,13.068l.444,5.012s3.161,4.613,2.554,7.1.65,11.467.65,11.467v9.184s-1.42,3.687.563,5.012l.844-.034c-.281.262-.5.655-.827,1a7.6,7.6,0,0,0-.717,3.159c-.1,1.083-.135,2.014-.135,2.014a3.316,3.316,0,0,0,2.433,1.443c1.589.093,6.826,4.076,6.826,4.076a61.941,61.941,0,0,0,6.511-.281l.079-.02a1.758,1.758,0,0,0,1.01-.824,2.11,2.11,0,0,0,.242-1.516,3.786,3.786,0,0,0-2.183-2.394c-3.457-1.823-3.972-3.53-3.972-3.53l-2.27-3.406h.323a14.57,14.57,0,0,1,2.27-7.659l-.16-17.841s1.013-6.134-.728-9.465c0,0-.143-3.527,1.021-4.61s-1.55-12.027-1.55-12.027-.563-5.876-1.224-11.237h0c2.737,2.6,5.575-6.75,6.053-8.413h.07l-.031-.121c.02-.079.031-.118.031-.118h0s-.608-2.16-.163-1.721,1.541-1.2,1.541-1.2-.163-8.942,1.744-13.448S466.983,190.268,466.983,190.268Zm-8.157,5.69.014-.025c.281,5.459-.053,17.11-.053,17.11s-.377,1.494-.779,3.251l-.281-11.068h0l-.281-10.427ZM423.917,192.2s1.378,17.239,0,19.726a13.023,13.023,0,0,0-.993,3.406c-.456-1.2-1.42-4-1.074-5.49.447-1.924-.892-6.978-.892-7.1a11.991,11.991,0,0,1,.844-4.872c.965-2.059.332-2.951.332-2.951S422.944,191.543,423.917,192.2Z" transform="translate(-304.569 -105.791)"/><path class="c" d="M448.835,443.467c-1.2,5.279-5.977-2.7-7.065-4.618-.141-.25-.219-.4-.219-.4l.518-2.427L444.8,434.9a7.638,7.638,0,0,1,1.226.8A7.394,7.394,0,0,1,448.835,443.467Z" transform="translate(-326.129 -318.237)"/><path class="c" d="M579.068,431.193a.368.368,0,0,1-.031.118.6.6,0,0,1-.036.127c-.47,1.648-3.254,10.927-5.943,8.351-2.942-2.813-1.513-9.316-1.513-9.316h.02l6.188-.633,1.226,1.26h0Z" transform="translate(-419.309 -314.6)"/><path class="d" d="M489.731,478.683l.158,17.72A14.533,14.533,0,0,0,487.661,504l-8,.315c-1.952-1.314-.562-4.973-.562-4.973v-9.124s-1.235-8.914-.638-11.383-2.506-7.032-2.506-7.032l-.439-4.976c-1.513-1.989-2.231-12.972-2.231-12.972l-1.623-5.547c.045.239.889,4.869,0,5.721s-1.235,4.616-1.235,4.616.875,10.43,0,12.536a3.1,3.1,0,0,0,.236,3.3l.16,10.826a16.931,16.931,0,0,0,.079,7c.835,4.1,0,10.43,0,10.43h-8.582l.039-4.419-1.39-3.741s-.956-15.442-1.713-18.786a8.393,8.393,0,0,1,.793-5.85s-1.589-2.546-1.51-4.337-1.226-5.209-1.226-5.209l-1.851-12.576a24.431,24.431,0,0,0-.917-7.164c-1.074-3.583-2.666-8.281-2.666-8.281l1.8.16,9.068.807s22.049-1.482,23.036-.25a4.137,4.137,0,0,1,.416,1.285c.99,4.447,2.3,18.378,2.3,18.378s2.666,10.865,1.522,11.94-1,4.573-1,4.573C490.729,472.579,489.731,478.683,489.731,478.683Z" transform="translate(-333.553 -316.426)"/><path class="e" d="M478.468,684.89c-.062.987-1.162,1.046-1.162,1.046-3.223.506-3.91,1.761-3.91,1.761a10.353,10.353,0,0,1-7.76,2.627c-3.966-.382-3.581-1.088-3.375-2.4a4.958,4.958,0,0,0,.065-.737c0-1.792,1.373-2.3,3.522-3.656s2.09-2.478,2.984-3.462a5.485,5.485,0,0,0,.987-2.894c1.013-1.764,3.581.281,3.581.281.121.624,3.938.537,3.938.537a8.407,8.407,0,0,0,.768,2.149,10.565,10.565,0,0,1,.352,3.038C478.485,683.9,478.49,684.55,478.468,684.89Z" transform="translate(-340.93 -491.854)"/><path class="f" d="M478.468,702.082c-.062.987-1.162,1.046-1.162,1.046-3.223.506-3.91,1.761-3.91,1.761a10.353,10.353,0,0,1-7.76,2.627c-3.966-.383-3.581-1.089-3.375-2.4,1.772.439,5.158,1.052,7.136-.023,2.748-1.491,4.72-2.531,4.72-2.531l4.343-2.185C478.485,701.091,478.49,701.741,478.468,702.082Z" transform="translate(-340.93 -509.045)"/><path class="e" d="M564.31,693.114a1.716,1.716,0,0,1-.99.818l-.076.02a59.684,59.684,0,0,1-6.391.281s-5.133-3.969-6.686-4.059a3.265,3.265,0,0,1-2.388-1.435s.031-.922.129-2a7.624,7.624,0,0,1,.706-3.136c.686-.717.844-1.688,2.388-1.074,0,0,2.205-3.887,4.8-.883l2.689,4.078s.506,1.688,3.912,3.519a3.774,3.774,0,0,1,2.141,2.377A2.1,2.1,0,0,1,564.31,693.114Z" transform="translate(-402.479 -494.764)"/><path class="f" d="M564.31,709.041c-.3.256-.638.532-.99.819l-.076.02a59.659,59.659,0,0,1-6.391.281s-5.133-3.969-6.686-4.059a3.265,3.265,0,0,1-2.388-1.434s.031-.923.129-2c1.581.472,3.974,1.308,4.616,2.208a19.561,19.561,0,0,0,3.974,3.282s5.575-.537,8.05-.61A2.1,2.1,0,0,1,564.31,709.041Z" transform="translate(-402.479 -510.691)"/><path class="c" d="M491.43,207.675l-7.341,7.76s-8.9-.655-7.344-3.282c.79-1.339.914-4.14.844-6.576-.065-2.349-.307-4.348-.307-4.348s12.477-6.21,11.532-.419a9.531,9.531,0,0,0-.034,3.3A4.332,4.332,0,0,0,491.43,207.675Z" transform="translate(-351.293 -148.215)"/><path class="f" d="M490.641,200.809a9.531,9.531,0,0,0-.034,3.3,9.158,9.158,0,0,1-6.531,2.726c-1.688,0-3.513-1.387-4.877-2.188-.065-2.351-.079-3.423-.079-3.423S491.6,195.018,490.641,200.809Z" transform="translate(-353.131 -148.215)"/><path class="c" d="M482.428,170.683a9.195,9.195,0,1,1-3.46-7.184A9.195,9.195,0,0,1,482.428,170.683Z" transform="translate(-342.291 -121.731)"/><path class="f" d="M489.756,434.778c-2.29,5.448-17.017,5.561-17.017,5.561V434.4l-.892-.059c.385,1.7-.54,5.85-.54,5.85-11.639,1.643-14.477-4.99-14.477-4.99l.405-2.27,9.068.807s22.049-1.482,23.036-.25A4.138,4.138,0,0,1,489.756,434.778Z" transform="translate(-337.111 -316.821)"/><path class="g" d="M472.739,292.03v-5.94l-.892-.056c.385,1.688-.54,5.85-.54,5.85-8.759,1.235-12.533-2.214-13.864-4a5.444,5.444,0,0,1-.613-.99l3.555-20,.844-29.432L462.5,232.3l.3-2.478V229.8h.031l.906.388,5.42,2.343,6.157-4.649.09-.065.307-.233.509.408L477.484,229l4.059,26.212s7.032,20.181,8.348,28.327c.053.326.1.63.129.914C490.889,291.893,472.739,292.03,472.739,292.03Z" transform="translate(-337.111 -169.23)"/><circle class="h" cx="0.523" cy="0.523" r="0.523" transform="translate(132.18 63.353)"/><circle class="h" cx="0.523" cy="0.523" r="0.523" transform="translate(132.422 68.129)"/><circle class="h" cx="0.523" cy="0.523" r="0.523" transform="translate(132.945 75.862)"/><circle class="h" cx="0.523" cy="0.523" r="0.523" transform="translate(133.808 84.19)"/><circle class="h" cx="0.523" cy="0.523" r="0.523" transform="translate(134.331 92.009)"/><circle class="h" cx="0.523" cy="0.523" r="0.523" transform="translate(134.855 100.338)"/><circle class="h" cx="0.523" cy="0.523" r="0.523" transform="translate(134.646 108.576)"/><path class="f" d="M463.14,275.26s-.585,7.659-1.659,9.887-1.553,8.477-1.553,8.477l-2.495-.281a5.445,5.445,0,0,1-.613-.99l3.555-20,.844-29.432,1.277-5.167.3-2.478.034-.014a1.007,1.007,0,0,1,.889.014l.118.062q-.053.152-.1.312a47.8,47.8,0,0,0-1.336,8.66s1.406,10.269,1.553,15.045S463.14,275.26,463.14,275.26Z" transform="translate(-337.103 -174.683)"/><path class="f" d="M446.031,435.707a1.441,1.441,0,0,1-.1.186c-.968,1.634-3.42,2.672-4.166,2.956-.141-.25-.219-.4-.219-.4l.518-2.427L444.8,434.9A7.647,7.647,0,0,1,446.031,435.707Z" transform="translate(-326.129 -318.237)"/><path class="h" d="M419.376,298.81l-2.27,1.353-2.067,9.195s-2.588,7.8-.6,13.372,3.145,8.762,3.145,8.762.8,6.329,1.991,6.846,1.71.8,1.71.8l.239,1.513s3.24-1.1,4.385-3.038-.844-6.751-.844-6.751-1.71-4.1-1.271-6.011-.878-6.925-.878-7.032a11.919,11.919,0,0,1,.844-4.838c.962-2.05.321-2.925.321-2.925l-.6-5.85Z" transform="translate(-306.104 -220.425)"/><path class="f" d="M536.8,285.976s-6.011,2.267-7.921.281-1.713-11.3-1.713-11.3-1.828-17.194-2.984-20.018-.563-23.2-.563-23.2a12.35,12.35,0,0,0-1.454-3.325.737.737,0,0,0-.143-.115l.233.051.816.174,1.266,1.015,4.059,26.212s7.032,20.181,8.348,28.327Z" transform="translate(-383.965 -169.741)"/><path class="f" d="M579.939,431.418h-.068c-.757.1-7.434.906-7.462-.484a4.085,4.085,0,0,1,.025-.481l6.188-.633,1.226,1.26h0c.022.082.039.152.056.208Z" transform="translate(-420.181 -314.586)"/><path class="h" d="M573.531,266.07l4.388,2.29s3.656,9.468,4.241,13.526c0,0,2.709,10.874.844,15.346s-1.71,13.349-1.71,13.349-1.075,1.631-1.513,1.2.16,1.71.16,1.71-7.5,1-7.532-.478,1.721-8.517,1.721-8.517.478-16.755-.2-19.382S573.531,266.07,573.531,266.07Z" transform="translate(-420.18 -196.894)"/><path class="f" d="M520.7,329.52s-2.47,6.047-3.266,6.447.16,1.989.16,1.989S522.089,331.669,520.7,329.52Z" transform="translate(-380.439 -242.498)"/><path class="f" d="M514.766,254.092c.028-.115-2.945,2.917-3.741,3.375S513.931,257.439,514.766,254.092Z" transform="translate(-375.982 -188.283)"/><path class="f" d="M484.979,327.82s-4.537,2.934-3.938,4.1S484.979,327.82,484.979,327.82Z" transform="translate(-354.472 -241.276)"/><path class="f" d="M524.47,480.07a24.287,24.287,0,0,0,9.87,3.094Z" transform="translate(-385.725 -350.702)"/><path class="f" d="M491.5,501.3s3.581,4.5,5.215,4.616S491.5,501.3,491.5,501.3Z" transform="translate(-362.029 -365.961)"/><path class="f" d="M498.29,564c-.16.079-2.031,4.059-3.938,4.18S498.29,564,498.29,564Z" transform="translate(-363.804 -411.025)"/><path class="f" d="M568.33,594.7s3.55-.8,4.34,1.749C572.67,596.44,572.431,595.644,568.33,594.7Z" transform="translate(-417.249 -433.005)"/><path class="f" d="M559.84,645.966s4.3-.878,5.215.318S559.84,645.966,559.84,645.966Z" transform="translate(-411.147 -469.714)"/><path class="f" d="M505.8,654c0,.039-4.377.878-4.219,1.435s4.669.478,4.829-.4A.844.844,0,0,0,505.8,654Z" transform="translate(-369.27 -475.711)"/><path class="f" d="M554.75,666.773s7.192-.878,6.751.636S554.75,666.773,554.75,666.773Z" transform="translate(-407.489 -484.709)"/><path class="f" d="M420.89,352.44c.039.118,4.737.757,5.372,2.27,0,0-4.616-2.152-5.344-2.152" transform="translate(-311.28 -258.971)"/><path class="f" d="M435.086,396.16s-3.9,1.235-3.623,3.094S431.067,398.393,435.086,396.16Z" transform="translate(-318.869 -290.394)"/><path class="f" d="M437.92,425.66s1.42-1.949,2.773-1.592S437.92,425.66,437.92,425.66Z" transform="translate(-323.52 -310.421)"/><path class="f" d="M479,163.495a2.215,2.215,0,0,1-.456.34c-1.125.655-1.434,1.665-1.969,2.83a6.018,6.018,0,0,1-2.05,2.8c-1.3.782-3,.5-4.351,1.176a3.375,3.375,0,0,0-1.8,3.327,9.6,9.6,0,0,0,.383,1.525,10.869,10.869,0,0,1,.411,3.311.541.541,0,0,1,0,.1,9.192,9.192,0,1,1,9.845-15.405Z" transform="translate(-342.326 -121.726)"/><path class="i" d="M467.034,147.1a8.484,8.484,0,0,0-5.465-4.121,9.179,9.179,0,0,0-5.308-.113,19.471,19.471,0,0,0-2.776,1.3c-1.7.861-3.578,1.541-4.86,2.956a1.481,1.481,0,0,0-.487,1.187,3.316,3.316,0,0,0,.481.861,2.612,2.612,0,0,1,.025,2.163,19.819,19.819,0,0,0-.793,2.079,2.187,2.187,0,0,0,.428,2.084,7.792,7.792,0,0,0,.8.563,4.233,4.233,0,0,1,.762.866L451.364,159a21.057,21.057,0,0,1,1.9,2.922,13.93,13.93,0,0,0,1.176,2.23,2.545,2.545,0,0,0,2.132,1.139.413.413,0,0,0,.338-.16.444.444,0,0,0,.042-.211,10.794,10.794,0,0,0-.4-3.3,9.519,9.519,0,0,1-.382-1.524,3.389,3.389,0,0,1,1.8-3.327c1.35-.681,3.057-.394,4.351-1.173a5.979,5.979,0,0,0,2.05-2.813c.543-1.164.844-2.174,1.969-2.83A1.978,1.978,0,0,0,467.034,147.1Z" transform="translate(-330.595 -108.096)"/><path class="f" d="M501.63,693.06s1.406,1.792,1.041,2.813S501.63,693.06,501.63,693.06Z" transform="translate(-369.31 -503.784)"/><path class="f" d="M569.28,702.724s.312-2.4,1.564-2.425a4.187,4.187,0,0,1,2.27.239c.956.368,1.854.939,1.567,1.024s-1.645-1.373-3.041-.627A10.043,10.043,0,0,0,569.28,702.724Z" transform="translate(-417.932 -508.964)"/><path class="f" d="M477.338,241.237l3.938-2.759s-5.76-3.4-6.447-2.925-1.159,4.782-1.159,4.782Z" transform="translate(-349.214 -174.927)"/><path class="j" d="M477.278,240.47l3.938-2.813s-5.76-3.4-6.447-2.925-1.159,5.018-1.159,5.018Z" transform="translate(-349.171 -174.338)"/><path class="g" d="M477.278,240.47l3.938-2.813s-5.76-3.4-6.447-2.925-1.159,5.018-1.159,5.018Z" transform="translate(-349.171 -174.338)"/><path class="h" d="M441,234.494l-.118-.059a1.021,1.021,0,0,0-1.105.115l-11.813,9.583s-2.568,3.552-2.211,9.681l6.967,9.87s.8-3.341,1.75-2.706c0,0,1.353,17.115,0,19.582s-1.949,11.7-1.949,11.7l4.576.518s.478-6.25,1.553-8.478,1.66-9.887,1.66-9.887.968-11.127.807-15.9-1.553-15.045-1.553-15.045S439.954,237.448,441,234.494Z" transform="translate(-314.75 -174.077)"/><path class="f" d="M509.348,234.315,504.44,232.5s6.25-6.846,7.032-3.049Z" transform="translate(-371.329 -169.749)"/><path class="j" d="M509.348,233.465l-4.908-1.817s6.25-6.846,7.032-3.049Z" transform="translate(-371.329 -169.138)"/><path class="g" d="M509.348,233.465l-4.908-1.817s6.25-6.846,7.032-3.049Z" transform="translate(-371.329 -169.138)"/><path class="f" d="M521.32,228.111a.281.281,0,0,1,.2.045Z" transform="translate(-383.462 -169.609)"/><path class="h" d="M523,226.417l13.023,2.813s3.583.8,6.171,9.791-3.544,20.015-3.544,20.015l-1.353-1.15.678,26.268s-6.011,2.267-7.921.281-1.71-11.313-1.71-11.313-1.831-17.191-2.987-20.018-.563-23.2-.563-23.2S523.731,226.26,523,226.417Z" transform="translate(-384.669 -168.391)"/><path class="f" d="M564.923,285.639a74.54,74.54,0,0,0,.4,14.168,77.208,77.208,0,0,0,2.25,10.9l-1.181-24.237S565.48,285.121,564.923,285.639Z" transform="translate(-414.678 -210.874)"/><path class="f" d="M559.7,261.6c.318.2,1.713,3.5,1.075,4.855S559.7,261.6,559.7,261.6Z" transform="translate(-411.046 -193.682)"/><path class="f" d="M484.944,151.128a7.189,7.189,0,0,0-2.863-3,6.81,6.81,0,0,1,2.146,2.531,2,2,0,0,1-.7,2.866c-1.094.616-1.435,1.665-1.969,2.83a6.115,6.115,0,0,1-2.053,2.813c-1.294.782-3,.492-4.351,1.173a3.4,3.4,0,0,0-1.8,3.33,9.566,9.566,0,0,0,.385,1.522,10.879,10.879,0,0,1,.411,3.311.444.444,0,0,1-.045.211.4.4,0,0,1-.335.16,1.938,1.938,0,0,1-.982-.183,2.284,2.284,0,0,0,1.688.661.332.332,0,0,0,.377-.371,10.794,10.794,0,0,0-.408-3.311,9.237,9.237,0,0,1-.385-1.524,3.389,3.389,0,0,1,1.8-3.327c1.35-.681,3.057-.394,4.351-1.173a5.978,5.978,0,0,0,2.05-2.813c.543-1.164.844-2.174,1.969-2.83A2,2,0,0,0,484.944,151.128Z" transform="translate(-348.582 -112.127)"/><path class="k" d="M660.768,202.973c-3.876-.076-7.3-2.813-9.234-6.157a6.187,6.187,0,0,1-.934-2.635,3.037,3.037,0,0,1,.107-.63,6.531,6.531,0,0,0,.281-.965,1.686,1.686,0,0,0,0-.394v-.023a2.327,2.327,0,0,0-.844-1.893c-.518-.487-1.167-.844-1.707-1.328-1.665-1.463-2.171-3.808-2.2-6.042v-.118c.02-.956.1-1.915.087-2.872a12.074,12.074,0,0,0-.07-1.626,5.372,5.372,0,0,0-1.738-3.595c-2.773-2.25-7.437.093-10.309-2.034-.7-.52-1.263-1.288-2.109-1.491a3.554,3.554,0,0,0-1.927.262c-2.115.7-4.475,1.614-5.3,3.657-.473,1.173-.34,2.512-.774,3.7a18.463,18.463,0,0,1-1.209,2.233,3.5,3.5,0,0,0-.45,1.865,2.1,2.1,0,0,0,.138.993,2.532,2.532,0,0,0,.689.987,3.276,3.276,0,0,1-.411.658c-.54.661-1.37,1.125-1.932,1.783a4.213,4.213,0,0,0-.489,4.264c.512,1.418,1.437,2.709,2.076,4.09a2.195,2.195,0,0,1,.211,1.865,5.35,5.35,0,0,1-.934,1.086,3.411,3.411,0,0,0-.844,1.885c-6.331,1.446-6.337,6.534-6.337,6.534h0l-3.42,8.6s-.548,1.449-1.193,3.361l-4.048-.726,2.813,4.708a14.873,14.873,0,0,0-.785,4.59s-1.257,5.907.979,6.939l4.933,2.219a2.923,2.923,0,0,0,.683.307l.2.09a.528.528,0,0,0,.461,0h.068a.664.664,0,0,0,.281-.042.563.563,0,0,0,.248-.267.084.084,0,0,1,0-.028l1.477-.428,1.252,1.482c.563.4,1.125.74,1.657,1.049l-1.938,19.245s-.312,25.6-1.257,31.429a16.337,16.337,0,0,0-.219,4.635l-.037.062c.234,1.645.844,1.969.844,1.969v-.023a.178.178,0,0,0,.036.023,16.578,16.578,0,0,1,1.013-2.171v.422c-.02,2.171-.087,5.212-.312,7.189-.383,3.375.979,14.5.979,14.5l.47,10.126a9.362,9.362,0,0,1-1.153,4.933c-1.125,2.022-2.562,4.869-2.667,6.132a1.281,1.281,0,0,0,0,.205h0l-2.413,2.9s-.942,1.457,1.187,2.045a11.4,11.4,0,0,0,4.706-.374,3.145,3.145,0,0,0,2.439-3.06,10.83,10.83,0,0,1,1.991-3.822l.4,2.332,2.655.658.34-6.391a2.813,2.813,0,0,0,.183-1.125h0c.523-4.545-1.232-4.138-1.232-4.138a.244.244,0,0,1,.084.158l-.084-.155h0c-1.077-2.126-.563-5.625-.563-5.625s1.406-10.126,1.887-12.8c.346-1.89.2-8.078.087-11.532a4.125,4.125,0,0,0-.014-.419c4.118-.053,9.164-.191,12.7-.534v.416l-.653,23.922a13.131,13.131,0,0,1-.917,4.45.241.241,0,0,1-.031.082,19.409,19.409,0,0,0-1.3,6.27l-.3,7.594v.211h0c-.529.2-1.364.79-1.387,2.495-.036,2.5,4.365,1.665,4.365,1.665,4.4,0,4.436-4.579,4.436-4.579s.138-4.2.349-7.009-.664-2.191-.664-2.191L644.151,337v-6.945l.068-1.015v-.028h0V328.8l.554-8.244s4.053-13.737,4.68-16.373c.447-1.873.262-7.516.115-10.635a2.471,2.471,0,0,0-.023-.413c1.257-.113,2.368-.124,2.813-.124h.205s-.208-22.063-.734-30.377-1.361-15.923-3.457-18.212c-1.266-1.384-3.029-5.656-4.219-8.821a44.121,44.121,0,0,0,7.755,2.531c6.635,1.389,5.727-4.371,5.727-4.371l-.672-10.894h.045a55.568,55.568,0,0,0-.731-8.517,25.063,25.063,0,0,0-1.71-6.188c.72-.281,1.432-.582,2.129-.892,1.8-.8,3.834-1.924,4.093-3.867H660.7a2.506,2.506,0,0,0,.068-.428Zm-41.13,15.751h0c.014,1.125-.028,3.077-.1,5.234l-2.107-2.813,2.112-3.426ZM647.866,224.437Zm.877,4.256-3.51-1.125a15.743,15.743,0,0,1,2.169-2.683l.3-.281-.11.022.169-.155.1-.022-.16.155.191-.039a5.99,5.99,0,0,0,1.2,2.4c1.26,1.375-.346,1.724-.346,1.724Z" transform="translate(-444.28 -128.65)"/><path class="l" d="M642,715.66l-.411,7.786-2.619-.655-.551-3.237Z" transform="translate(-458.86 -514.363)"/><path class="f" d="M642,715.66l-.411,7.786-2.619-.655-.551-3.237Z" transform="translate(-458.86 -514.363)"/><path class="m" d="M716.48,640.222l3.994.827,2.962-2.616v-7.372l.068-1.007v-.031h0v-.214l.551-8.193s4-13.639,4.618-16.257c.439-1.856.256-7.459.11-10.556-.059-1.269-.11-2.118-.11-2.118l-8.818-2.135-.186,6.779-.644,23.751a13.161,13.161,0,0,1-.9,4.419l-.031.082a19.33,19.33,0,0,0-1.28,6.222l-.3,7.552v.208Z" transform="translate(-523.729 -430.107)"/><path class="f" d="M741.45,730.136v.208h0v-.214Z" transform="translate(-541.675 -530.428)"/><path class="f" d="M716.48,760.976l3.994.827,2.962-2.616v-.627a.844.844,0,0,1-.425.675l-.042.025a7.961,7.961,0,0,1-4.483.886l-1.558-.132a1.461,1.461,0,0,0-.413.1v.208Z" transform="translate(-523.729 -550.861)"/><path class="e" d="M719.533,739.431l.042-.023a.844.844,0,0,0,.43-.731l.065-7.935s.861-.616.653,2.174-.343,6.959-.343,6.959-.034,4.545-4.374,4.545c0,0-4.34.827-4.306-1.654s1.792-2.582,1.792-2.582l1.558.135A7.941,7.941,0,0,0,719.533,739.431Z" transform="translate(-520.293 -530.826)"/><path class="m" d="M642.52,645.176c.1,1.792,5.372.757,5.372.757l3.547-6.885s2.962-2.276,1.479-4.272a3.191,3.191,0,0,1-.216-.34l-.014-.017h0c-.031-.051-.059-.1-.087-.16h0c-1.063-2.11-.54-5.569-.54-5.569s1.375-10.058,1.859-12.711c.34-1.873.2-8.019.087-11.456-.045-1.429-.087-2.388-.087-2.388l-8.75-2.343v2.61c-.02,2.157-.087,5.175-.309,7.139-.377,3.339.965,14.4.965,14.4L646.289,634a9.318,9.318,0,0,1-1.125,4.9c-1.1,2.008-2.531,4.838-2.63,6.09A1.236,1.236,0,0,0,642.52,645.176Z" transform="translate(-470.571 -436.748)"/><path class="f" d="M642.514,733.7c.1,1.792,5.372.757,5.372.757l3.547-6.885s2.962-2.276,1.48-4.273a3.182,3.182,0,0,1-.217-.34,17.1,17.1,0,0,1-1.193,3.657s-2.928,5.859-3.859,7.2-4.976-.25-5.127-.307A1.212,1.212,0,0,0,642.514,733.7Z" transform="translate(-470.565 -525.274)"/><path class="e" d="M645.916,722.276s1.733-.4,1.215,4.109h0a2.905,2.905,0,0,1-1.37,2.579,9.851,9.851,0,0,0-4.121,5.715h0a3.116,3.116,0,0,1-2.4,3.038,11.277,11.277,0,0,1-4.641.371c-2.1-.585-1.17-2.031-1.17-2.031l2.411-2.86s4.2,1.654,5.13.309,3.859-7.2,3.859-7.2S646.431,722.656,645.916,722.276Z" transform="translate(-463.887 -524.776)"/><path class="f" d="M728.006,593.52l-.186,6.779c2.349-.228,4.031-.546,4.318-.993.622-.962,2.877-1.367,4.8-1.533-.059-1.269-.11-2.118-.11-2.118Z" transform="translate(-531.879 -432.242)"/><path class="f" d="M651.94,605.33a3.218,3.218,0,0,1,.965-1.165c.928-.515.827,3.308.827,3.308s3.094.028,7.046-.022c-.045-1.429-.087-2.391-.087-2.391l-8.75-2.34S651.957,603.806,651.94,605.33Z" transform="translate(-477.342 -438.854)"/><path class="d" d="M646.06,452.032s1.035-2.813,1.969-3.313.827,3.3.827,3.3,22.732.208,23.869-1.55,7.749-1.654,7.749-1.654-.205-21.905-.723-30.169-1.342-15.81-3.409-18.083c-1.336-1.471-3.237-6.23-4.413-9.4-.638-1.733-1.063-3-1.063-3l-21.7,1.238-.177,1.758-2.3,23.042s-.309,25.418-1.24,31.2S646.06,452.032,646.06,452.032Z" transform="translate(-472.461 -284.651)"/><g class="n" transform="translate(172.714 103.519)"><path d="M683.681,450.474c1.125-1.755,7.749-1.654,7.749-1.654s-.205-21.905-.723-30.169-1.342-15.81-3.409-18.083c-1.342-1.477-3.237-6.23-4.413-9.4-.537-1.457-.923-2.579-1.03-2.9l1.688-.1s.425,1.263,1.066,3c1.176,3.173,3.074,7.932,4.41,9.4,2.067,2.273,2.894,9.816,3.409,18.083s.726,30.169.726,30.169-6.613-.1-7.752,1.654c-.97,1.5-17.7,1.57-22.552,1.555C669.08,452.016,682.8,451.83,683.681,450.474Z" transform="translate(-657.897 -388.17)"/><path d="M646.329,603.317c.419-.233.627.413.731,1.2a16.215,16.215,0,0,0-.976,2.115s-.6-.323-.844-1.969A3.826,3.826,0,0,1,646.329,603.317Z" transform="translate(-645.24 -542.767)"/></g><path class="i" d="M661.173,191.8c-1.5,2.048.017,4.959-1.595,6.95-.532.658-1.35,1.125-1.9,1.772a4.209,4.209,0,0,0-.484,4.233c.5,1.406,1.406,2.689,2.048,4.062a2.173,2.173,0,0,1,.208,1.851,5.243,5.243,0,0,1-.923,1.077,3.885,3.885,0,0,0-.506,4.123,13.345,13.345,0,0,0,2.669,3.685,1.822,1.822,0,0,0,2.647.6,10.407,10.407,0,0,0,4.737-13.583c-.872-2.09-2.326-4.092-2.34-6.3,0-1.752.9-3.426,1.06-5.17.194-2.121-1.06-5.488-3.62-6.413C663.339,190.051,661.935,190.746,661.173,191.8Z" transform="translate(-480.868 -141.279)"/><path class="f" d="M661.173,191.8c-1.5,2.048.017,4.959-1.595,6.95-.532.658-1.35,1.125-1.9,1.772a4.209,4.209,0,0,0-.484,4.233c.5,1.406,1.406,2.689,2.048,4.062a2.173,2.173,0,0,1,.208,1.851,5.243,5.243,0,0,1-.923,1.077,3.885,3.885,0,0,0-.506,4.123,13.345,13.345,0,0,0,2.669,3.685,1.822,1.822,0,0,0,2.647.6,10.407,10.407,0,0,0,4.737-13.583c-.872-2.09-2.326-4.092-2.34-6.3,0-1.752.9-3.426,1.06-5.17.194-2.121-1.06-5.488-3.62-6.413C663.339,190.051,661.935,190.746,661.173,191.8Z" transform="translate(-480.868 -141.279)"/><path class="f" d="M689.332,464.55a19.975,19.975,0,0,0-8.469,2.914,58.025,58.025,0,0,1-8.013,4.157" transform="translate(-492.37 -339.548)"/><path class="f" d="M688.744,489.74a12.4,12.4,0,0,0-7.805,3.8c-.731.773-1.361,1.64-2.124,2.382a9.434,9.434,0,0,1-4.185,2.371" transform="translate(-493.65 -357.652)"/><path class="f" d="M683.51,508.91a13.647,13.647,0,0,0-6.278,3.786c-.461.5-.88,1.029-1.342,1.527-2.489,2.672-6.005,4.09-9.4,5.431" transform="translate(-487.799 -371.43)"/><path class="m" d="M695.594,242.689a61.72,61.72,0,0,0,.619,7.178,9.4,9.4,0,0,0,1.24,3.879c1.654,1.969-8.058,4.6-8.058,4.6L683.66,253.9s4.545-4.185,2.427-8.267S695.594,242.689,695.594,242.689Z" transform="translate(-500.14 -179.985)"/><path class="f" d="M658.79,391.166h22.938c-.638-1.733-1.063-3-1.063-3l-21.7,1.238Z" transform="translate(-482.265 -284.651)"/><path class="g" d="M642.1,307.43h24.524a8.509,8.509,0,0,1,.982-6.5,14.367,14.367,0,0,1,2.568-3.33l.169-.155,8.562-1.9.461-.1s.07-15.568-5.443-17.706a32.23,32.23,0,0,1-8.818-5.026l-7.575,2.34-5.58-2.813c-1.792,1.927-6.545,1.17-6.545,1.17-7.783.894-7.783,6.75-7.783,6.75s4.545,10.607,4.891,10.607S642.1,307.43,642.1,307.43Z" transform="translate(-467.05 -201.329)"/><path class="f" d="M666.513,354.376s-5-1.108-6.7-3.046" transform="translate(-482.998 -258.173)"/><path class="f" d="M758.47,341.51l-5.8,4.753a9.886,9.886,0,0,0,.191,1.125l.169-.155,8.562-1.9Z" transform="translate(-549.739 -251.115)"/><path class="f" d="M717.46,374.221s1.268.714,3.212,1.654h3.333a8.509,8.509,0,0,1,.982-6.5l-5.876-1.9C721.111,369.329,717.46,374.221,717.46,374.221Z" transform="translate(-524.433 -269.773)"/><path class="g" d="M623.452,293.76l-3.443,1.859-3.375,8.542s-3.513,9.366-3.17,11.847c0,0-1.238,5.856.965,6.888l5.738,2.6a.534.534,0,0,0,.689-.737c-.819-1.55-1.719-3.974-.281-5.308l-1.654-3.443,5.977-9.783,2-3.375Z" transform="translate(-449.439 -216.796)"/><path class="f" d="M676.975,349.146c.3,1.215,1.305,3.094,4.638,3.794l3.656,3,3.89,1.764,1.586.717.672-4.858-1.527-.844-1.78-.973s-4.017-7.276-10.376-4.219A1.406,1.406,0,0,0,676.975,349.146Z" transform="translate(-495.303 -254.898)"/><path class="m" d="M677.73,347.718c.3,1.218,1.3,3.094,4.635,3.794l3.656,3,3.893,1.764,1.583.717.672-4.858-1.527-.844-1.766-.965s-4.019-7.276-10.379-4.205A1.406,1.406,0,0,0,677.73,347.718Z" transform="translate(-495.85 -253.883)"/><circle class="f" cx="8.885" cy="8.885" r="8.885" transform="translate(180.162 51.233)"/><circle class="m" cx="8.885" cy="8.885" r="8.885" transform="translate(180.162 51.028)"/><path class="f" d="M716.052,277.444l-2.672-5.192s3.91-1.581,4.194-3.412,3.747,2.146,3,3.465A49.173,49.173,0,0,1,716.052,277.444Z" transform="translate(-521.501 -198.545)"/><path class="g" d="M716.052,275.974l-2.672-5.192s3.91-1.581,4.194-3.412,3.747,2.149,3,3.465A49.483,49.483,0,0,1,716.052,275.974Z" transform="translate(-521.501 -197.489)"/><path class="o" d="M617.9,341.93l14.764,19.849s-5.443,2.962-12.938-2.34l-3.237-3.859L607.25,340Z" transform="translate(-445.222 -250.03)"/><path class="m" d="M633.916,372.163l1.344-.037s8.213-7.971,10.23-3.938-5.116,7.8-5.116,7.8l-2.169,1.17-2.827.844-1.809-2.427Z" transform="translate(-464.139 -269.471)"/><path class="f" d="M631.147,387.376a2.006,2.006,0,0,1,.034,1.389.562.562,0,0,1-.245.267.627.627,0,0,1-.281.039,2.827,2.827,0,0,1-1.854-.917,8.46,8.46,0,0,1-1.2-1.738,3.206,3.206,0,0,1-.616-2.07,3.02,3.02,0,0,1,1.527-1.783c1.361-.9,1.406.149,1.7,1.308S630.834,386.206,631.147,387.376Z" transform="translate(-459.387 -280.378)"/><path class="g" d="M630.414,387.376a2.022,2.022,0,0,1,.034,1.389.562.562,0,0,1-.245.267.634.634,0,0,1-.281.039,2.813,2.813,0,0,1-1.854-.917,8.372,8.372,0,0,1-1.2-1.738,3.187,3.187,0,0,1-.613-2.07,3.014,3.014,0,0,1,1.525-1.783c1.364-.9,1.406.149,1.707,1.308S630.1,386.206,630.414,387.376Z" transform="translate(-458.859 -280.378)"/><path class="f" d="M623.85,314.972l.686-1.162-.6,2.157Z" transform="translate(-448.388 -225.542)"/><path class="f" d="M721.19,371.414l1.584.717.672-4.858-1.527-.844C722.973,367.639,722.051,369.876,721.19,371.414Z" transform="translate(-527.114 -269.026)"/><path class="f" d="M725.175,361.333s-5.113.312-7.285-1.083" transform="translate(-524.742 -264.584)"/><g class="n" transform="translate(178.027 71.316)"><path d="M735.708,303.6a14.4,14.4,0,0,1,2.568-3.333,6.861,6.861,0,0,1,.757-.411L747,298.224l.461-.1s.07-15.568-5.44-17.706a33.115,33.115,0,0,1-8.6-4.841l.6-.186a32.146,32.146,0,0,0,8.818,5.026c5.513,2.135,5.44,17.706,5.44,17.706h-.827l-8.157,1.561s-.352.34-.458.439a15.8,15.8,0,0,0-2.607,3.448,8.645,8.645,0,0,0-.683,6.537h-.844A8.6,8.6,0,0,1,735.708,303.6Z" transform="translate(-713.938 -274.909)"/><path d="M664.13,277.863c.132-.02.259-.039.4-.053a14.252,14.252,0,0,0,1.688.138A15.336,15.336,0,0,1,664.13,277.863Z" transform="translate(-664.13 -276.648)"/><path d="M692.806,276.5l-5.046-2.554a2.675,2.675,0,0,0,.281-.267l5.265,2.664Z" transform="translate(-681.114 -273.68)"/></g><path class="g" d="M733.888,340l3.375,4.135.689,11.228s.894,5.715-5.648,4.337-14.114-5.637-14.114-5.637,3.656-4.891,1.654-6.75l9.369,3.032s1.583-.346.343-1.721a7.748,7.748,0,0,1-1.46-3.859Z" transform="translate(-524.958 -250.03)"/><path class="f" d="M779.42,382.17l1.859,2.135A2.68,2.68,0,0,1,779.42,382.17Z" transform="translate(-568.965 -280.339)"/><path class="f" d="M736.99,360.8l2.894,3.718-1.446.346Z" transform="translate(-529.705 -259.315)"/><path class="f" d="M665.206,187.3a2.968,2.968,0,0,1,.309-2.422,19.1,19.1,0,0,0,1.2-2.219c.425-1.176.3-2.506.759-3.657.818-2.039,3.145-2.951,5.229-3.657a3.515,3.515,0,0,1,1.9-.259c.844.2,1.392.965,2.082,1.479,2.83,2.11,7.431-.214,10.168,2.02a5.322,5.322,0,0,1,1.713,3.567,31.488,31.488,0,0,1-.017,4.056c-.045,2.368.4,4.959,2.171,6.528.534.473,1.164.827,1.688,1.316a2.3,2.3,0,0,1,.844,1.882,6.524,6.524,0,0,1-.281.956,4.9,4.9,0,0,0,.816,3.657c1.913,3.311,5.285,6.039,9.108,6.115-.256,1.93-2.25,3.049-4.036,3.839-2.25,1.01-4.647,2-7.125,1.873s-5.063-1.713-5.5-4.154c-.149-.844-.129-1.859-.844-2.3-.439-.267-1.007-.2-1.479-.4a2.606,2.606,0,0,1-1.246-1.755,15.794,15.794,0,0,1-.734-4.5c-.031-1.811.208-3.789-.819-5.279-.951-1.381-2.638-2.081-3.735-3.35-1.013-1.176-2.112-2.593-3.772-2.813C671.31,187.5,666.562,190.62,665.206,187.3Z" transform="translate(-486.772 -131.463)"/><path class="i" d="M665.206,185.828a2.968,2.968,0,0,1,.309-2.422,19.1,19.1,0,0,0,1.2-2.219c.425-1.176.3-2.506.759-3.657.818-2.042,3.145-2.953,5.229-3.657a3.515,3.515,0,0,1,1.9-.259c.844.2,1.392.965,2.082,1.479,2.83,2.11,7.431-.214,10.168,2.02a5.322,5.322,0,0,1,1.713,3.569,31.443,31.443,0,0,1-.017,4.053c-.045,2.368.4,4.959,2.171,6.528.534.473,1.164.827,1.688,1.316a2.3,2.3,0,0,1,.844,1.882,6.525,6.525,0,0,1-.281.956,4.9,4.9,0,0,0,.816,3.657c1.918,3.3,5.277,6.036,9.1,6.112-.256,1.93-2.25,3.049-4.036,3.842-2.25,1.007-4.647,2-7.125,1.87s-5.063-1.713-5.5-4.154c-.149-.844-.129-1.859-.844-2.3-.439-.267-1.007-.2-1.479-.4a2.606,2.606,0,0,1-1.246-1.755,15.781,15.781,0,0,1-.734-4.5c-.031-1.811.208-3.789-.818-5.279-.951-1.381-2.638-2.081-3.735-3.35-1.013-1.176-2.112-2.593-3.772-2.813C671.31,186.031,666.562,189.156,665.206,185.828Z" transform="translate(-486.772 -130.407)"/><path class="f" d="M683.521,277.458l5.094-4.135s-3.488-1.89-3.9-3.5-3.206.765-2.922,2.211S683.521,277.458,683.521,277.458Z" transform="translate(-498.78 -199.203)"/><path class="g" d="M684.274,275.256l5.094-4.132s-3.488-1.89-3.887-3.5-3.206.765-2.922,2.211S684.274,275.256,684.274,275.256Z" transform="translate(-499.334 -197.622)"/><circle class="f" cx="0.405" cy="0.405" r="0.405" transform="translate(189.829 76.556)"/><circle class="f" cx="0.405" cy="0.405" r="0.405" transform="translate(189.829 78.806)"/><circle class="f" cx="0.405" cy="0.405" r="0.405" transform="translate(189.829 81.054)"/><g class="n" transform="translate(178.352 46.218)"><path d="M671.539,187.91c.4-1.105.315-2.346.692-3.46a3.778,3.778,0,0,0-.43.793c-.467,1.162-.335,2.492-.762,3.657l-.028.067A6.41,6.41,0,0,0,671.539,187.91Z" transform="translate(-669.4 -184.45)"/><path d="M699.561,231.572c-2.25,1.007-4.647,2-7.125,1.87s-5.063-1.713-5.5-4.152c-.149-.844-.129-1.862-.844-2.3-.439-.267-1.007-.2-1.48-.4a2.606,2.606,0,0,1-1.246-1.755,15.781,15.781,0,0,1-.734-4.5c-.031-1.809.211-3.786-.816-5.279-.954-1.381-2.641-2.079-3.738-3.35-1.013-1.173-2.112-2.593-3.772-2.813-2.276-.309-7.032,2.813-8.376-.512a2.616,2.616,0,0,1,.087-1.921c-.1.166-.194.332-.281.5a2.98,2.98,0,0,0-.307,2.425c1.353,3.319,6.1.2,8.376.512,1.659.225,2.759,1.645,3.772,2.813,1.1,1.271,2.785,1.969,3.735,3.353,1.029,1.491.788,3.468.818,5.277a15.781,15.781,0,0,0,.734,4.5,2.613,2.613,0,0,0,1.246,1.755c.473.2,1.041.135,1.479.4.726.439.706,1.465.844,2.3.439,2.439,3.021,4.025,5.5,4.152s4.86-.861,7.125-1.87c1.631-.726,3.448-1.73,3.938-3.375A8.52,8.52,0,0,1,699.561,231.572Z" transform="translate(-665.288 -200.269)"/></g><path class="p" d="M826.12,271.437a66.156,66.156,0,0,0-8.216-4.27l-.124-.087a4.954,4.954,0,0,1-1.5-1.9,3.918,3.918,0,0,1,0-.408.164.164,0,0,0,0,.039c.093-1.814,1.384-3.465,2.607-4.905l3.131-3.682a3.63,3.63,0,0,0,.807-1.277,2.939,2.939,0,0,0,.084-.785v-.321c-.017-.914-.042-1.831-.076-2.745-.028-.8-.234-1.806-1.032-1.969-.416-.084-.968.065-1.187-.281a.684.684,0,0,1-.053-.475.163.163,0,0,0,0,.039v-.045a10.591,10.591,0,0,0,.3-1.882,2.564,2.564,0,0,0-.129-.953c-.461-1.325-2.056-1.87-3.465-2.121s-2.99-.464-3.873-1.567a11.469,11.469,0,0,0-.771-1.06,3.042,3.042,0,0,0-1.44-.712,8.157,8.157,0,0,0-5.24.456,4.7,4.7,0,0,1-2.112.669c-.748-.045-1.44-.585-2.205-.714a3.147,3.147,0,0,0-3.032,1.775,4.342,4.342,0,0,0-.563,2.093v.124h0a3.061,3.061,0,0,0,.8,2.138c.534.563,1.328.934,1.55,1.662.09.3.068.616.149.917a.821.821,0,0,0,.034.11l-.039.053a9.281,9.281,0,0,0-1.969,5.721,9.5,9.5,0,0,0,6.672,9v.281a4.047,4.047,0,0,1-1.294,3.15l-8.435,3.37s-5.085-.6-6.919,6.826a12.673,12.673,0,0,0-.315,3.769,10.926,10.926,0,0,1-1.406,5.645c-2.084,4.084-1.609,13.459,2.655,14.387,4.025.878,5.6.512,5.766.47v.163c-.068,1.761-.706,16.933-3.026,18.766-.641.509-.523.844,0,1.083,0,0,0,.1-.014.281-.07,1.125-.427,5.344-1.969,7.741-1.8,2.785-1.615,18.845-1.615,18.845l-1.229,9.468s.757,5.848,0,6.869c-.678.909-1.578,22.541-1.766,27.233h-.079a2.284,2.284,0,0,0-1.823,1.125,31.771,31.771,0,0,1-4.483,4.607c-.757,1.074-3.555,2.1-5.035,2.588a3.135,3.135,0,0,0-.562.247,3,3,0,0,0-1.271,1.339,1.438,1.438,0,0,0-.135,1.125c.377.925,8.244,1.578,10.235.647,1.564-.729,7.763-1.688,10.337-2.064a2.121,2.121,0,0,0,1.839-1.84,1.212,1.212,0,0,0-.236-.92h0a8.154,8.154,0,0,1-.844-3.375,2.28,2.28,0,0,0,.579-.343,24.707,24.707,0,0,1,1.406-9.932c1.9-5.012,2.464-14.294,1.991-20.327,0,0,5.78-24.876,10.331-27.2h0c.07.09,2.278,2.922,2.559,11.7a35.437,35.437,0,0,0,3.5,14.758s-1.423,15.13,0,20.792l-1.859,8.93c-.138-.115-.225-.205-.225-.205s.056.248.132.644l-.039.191.082.017a17.578,17.578,0,0,1,.394,4.219c-.073.65-.256,1.541-.38,2.416-.2,1.375-.25,2.709.473,3,1.187.478,8.157,1.125,9.338-.405a2.191,2.191,0,0,0,.343-2.292,2.318,2.318,0,0,0-.343-.585s-1.851-3.024-1.328-5.156a1.569,1.569,0,0,0-.222-1.224,62.9,62.9,0,0,1,1.595-10c1.187-4.467,3.688-14.26,1.848-20.7h0q-.1-.38-.236-.743A27.8,27.8,0,0,1,822.5,352.6a22.133,22.133,0,0,1,0-9.468c1.139-5.2,1.935-10.3,1.935-10.3a65.139,65.139,0,0,0,.079-11.079,2.734,2.734,0,0,0-.037-.281l.3-.068s-1.612-7.147-2.18-11.7c-.135-1.074-.309-2.433-.5-3.884a9.918,9.918,0,0,0,1.544-.385c5.116-1.764,6.728-17.72,6.728-17.72v-5.063S832.092,274.871,826.12,271.437ZM787.991,394.7c-.157-.079-.25-.132-.25-.132h0Z" transform="translate(-563.785 -178.041)"/><path class="q" d="M858.312,563.8c2.219,6.382-.371,16.741-1.575,21.377a64.621,64.621,0,0,0-1.572,10.176,21.429,21.429,0,0,1-8.14-.186l1.944-9.527c-1.39-5.642,0-20.721,0-20.721a35.944,35.944,0,0,1-3.423-14.708c-.281-8.739-2.427-11.566-2.495-11.653h0c-4.439,2.312-10.081,27.1-10.081,27.1.461,6.011-.1,15.262-1.944,20.252a25.034,25.034,0,0,0-1.387,9.9,3.009,3.009,0,0,1-2.531.484,17.276,17.276,0,0,1-5.808-2.7s1.015-27,1.758-28.026,0-6.846,0-6.846l1.2-9.434s-.186-16,1.572-18.778c1.519-2.4,1.868-6.61,1.935-7.715v-.281l2.678-3.207s25.9-1.944,27.846,0a5.55,5.55,0,0,1,.945,2.925,66.277,66.277,0,0,1-.079,11.04s-.776,5.088-1.887,10.266a22.534,22.534,0,0,0,0,9.437A28.251,28.251,0,0,0,858.312,563.8Z" transform="translate(-599.066 -378.279)"/><path class="l" d="M922.176,794.682c-1.156,1.527-7.954.88-9.113.405-.706-.281-.653-1.623-.461-2.993.121-.869.3-1.758.371-2.4a22.14,22.14,0,0,0-.563-5.043s1.525,1.62,1.893,0a1.764,1.764,0,0,1,1.322-1.254,3.453,3.453,0,0,1,2.4.149c1.2.523,3.2,1.634,2.846,3.136-.509,2.124,1.294,5.139,1.294,5.139a2.337,2.337,0,0,1,.338.579,2.22,2.22,0,0,1-.329,2.287Z" transform="translate(-664.549 -568.602)"/><path class="f" d="M922.347,817.3c-1.156,1.527-7.954.88-9.113.4-.706-.281-.653-1.623-.461-2.993a7.848,7.848,0,0,0,4.042.436,11.36,11.36,0,0,1,1.454-.045,33.811,33.811,0,0,0,4.416-.09A2.219,2.219,0,0,1,922.347,817.3Z" transform="translate(-664.72 -591.218)"/><path class="f" d="M847.8,612.469c.461,6.011-.1,15.262-1.944,20.252a25.034,25.034,0,0,0-1.387,9.9,3.009,3.009,0,0,1-2.531.484c.563-3.9,2.937-20.71,4.458-33.992a55.622,55.622,0,0,1,9.844-25.528l1.617,1.78C853.444,587.678,847.8,612.469,847.8,612.469Z" transform="translate(-613.9 -425.098)"/><path class="r" d="M889.09,312.289l-1.125,5.549-5.533,9.3-6.821-2.914s-9.282-9.712-3.446-11.1a5.166,5.166,0,0,0,1.935-.861,4,4,0,0,0,1.51-3.347,10.261,10.261,0,0,0-.939-3.977L886.6,301.19a19.155,19.155,0,0,0-.844,4.832c-.093,3.251,1.125,4.852,2.107,5.625A3.582,3.582,0,0,0,889.09,312.289Z" transform="translate(-634.24 -222.136)"/><path class="f" d="M897.92,301.19a19.144,19.144,0,0,0-.844,4.832,9.1,9.1,0,0,1-.695.74,9.439,9.439,0,0,1-9.434,2.152,10.263,10.263,0,0,0-.948-3.977Z" transform="translate(-645.567 -222.136)"/><path class="r" d="M885.023,271.654a9.392,9.392,0,1,1-2.751-6.684,9.437,9.437,0,0,1,2.751,6.684Z" transform="translate(-631.301 -194.127)"/><path class="f" d="M889.09,338.99l-1.125,5.549-5.533,9.3-6.821-2.914s-9.282-9.712-3.446-11.1a5.165,5.165,0,0,0,1.935-.861c-1.052,2.891,3.291,8.908,3.291,8.908.506.745,1.665.281,1.665.281,2.8-.425,7.949-8.472,8.79-9.811A3.583,3.583,0,0,0,889.09,338.99Z" transform="translate(-634.24 -248.837)"/><path class="f" d="M875.81,522.219c-1.643.374-10.73,2.385-14.176,1.882-3.792-.562-11.164-.923-11.164-.923s-4.694.253-6.14-.408v-.281l2.678-3.207s25.9-1.944,27.846,0A5.527,5.527,0,0,1,875.81,522.219Z" transform="translate(-615.618 -378.265)"/><path class="g" d="M842.326,348.371s-4.88-6.751-3.041-9.394l-8.244,3.375s-4.962-.6-6.75,6.8a12.884,12.884,0,0,0-.307,3.758,11.119,11.119,0,0,1-1.359,5.625c-2.034,4.07-1.572,13.414,2.591,14.345s5.639.461,5.639.461-.562,16.927-2.959,18.87,6.132,1.479,6.132,1.479,7.372.371,11.167.925,14.429-1.944,14.429-1.944-1.572-7.122-2.129-11.653-1.854-14.185-1.854-14.185l9.434-12.781s1.665-7.724-4.163-11.147a65.853,65.853,0,0,0-8.019-4.261s-5.856,9.535-8.908,10C843.991,348.646,842.833,349.113,842.326,348.371Z" transform="translate(-599.177 -249.06)"/><path class="f" d="M853.162,382.74a13.909,13.909,0,0,0,.464,4.256c.554,1.2,2.59,7.876,2.59,7.876H851.59s2.5-2.683,2.315-3.98S853.162,382.74,853.162,382.74Z" transform="translate(-620.836 -280.748)"/><path class="r" d="M868.191,431.5s-10.216-2.5-11.166-4.624-3.575-6.888-3.575-6.888l1.077-1.451,4.967,3.9s5.907,4.717,8.7,5.181S868.191,431.5,868.191,431.5Z" transform="translate(-622.173 -306.479)"/><path class="s" d="M868.191,431.5s-10.216-2.5-11.166-4.624-3.575-6.888-3.575-6.888l1.077-1.451,4.967,3.9s5.907,4.717,8.7,5.181S868.191,431.5,868.191,431.5Z" transform="translate(-622.173 -306.479)"/><path class="r" d="M890.1,421.723v5.541h-.889a25.9,25.9,0,0,0-12.583,3.26l-1.666.923-.447.25-2.869-6.469,2.683-2.4h.138a16.044,16.044,0,0,0,4.7-.1c1.142-.388,2.56-1.617,5.924-.759,1.657.425,3.074,2.281,4.68,1.7Z" transform="translate(-635.254 -308.722)"/><path class="f" d="M917.532,369.934l1.848,2.081v5.043s-1.572,15.909-6.565,17.667-13.912-1.018-13.912-1.018-2.3-6.1-1.226-6.469,9.521-2.6,9.521-2.6-.118-9.333,1.73-12.109c0,0-1.2-8.694,2.962-8.88S917.532,369.934,917.532,369.934Z" transform="translate(-653.754 -267.025)"/><path class="g" d="M918.536,369.934l1.851,2.081v5.043s-1.572,15.909-6.568,17.667-13.912-1.018-13.912-1.018-2.3-6.1-1.224-6.469,9.521-2.6,9.521-2.6-.121-9.333,1.73-12.109c0,0-1.2-8.694,2.959-8.88S918.536,369.934,918.536,369.934Z" transform="translate(-654.476 -267.025)"/><path class="f" d="M887.366,275.573a3.716,3.716,0,0,0-.211-1.8,1.373,1.373,0,0,0-1.468-.844c-.79.186-1.125,1.215-1.907,1.463a1.524,1.524,0,0,1-1.688-.866,4.316,4.316,0,0,1-.321-2.014v-2.318a3.836,3.836,0,0,0-.546-2.411,4.256,4.256,0,0,0-3.173-1.148,2.692,2.692,0,0,0-1.811.729,2.331,2.331,0,0,1-1.9.678,1.64,1.64,0,0,1-1.328-1.148v-.028a9.434,9.434,0,1,1,14.024,12.522A25.4,25.4,0,0,0,887.366,275.573Z" transform="translate(-636.231 -194.041)"/><path class="t" d="M868.088,252.14a1.654,1.654,0,0,1-1.33-1.15c-.076-.3-.056-.616-.143-.911-.217-.728-.993-1.105-1.513-1.659a3.717,3.717,0,0,1-.236-4.253,3.073,3.073,0,0,1,2.959-1.766c.748.129,1.406.661,2.155.712a4.347,4.347,0,0,0,2.062-.667,7.769,7.769,0,0,1,5.125-.456,2.954,2.954,0,0,1,1.406.712,12.307,12.307,0,0,1,.751,1.055c.861,1.1,2.4,1.314,3.78,1.561s2.931.793,3.375,2.115a5.528,5.528,0,0,1-.163,2.74.828.828,0,0,0,.037.563c.217.354.754.205,1.159.281.779.166.979,1.17,1.01,1.969q.048,1.367.073,2.737a3.486,3.486,0,0,1-.082,1.013,3.574,3.574,0,0,1-.785,1.274l-3.055,3.671c-1.356,1.626-2.793,3.522-2.531,5.625a1.31,1.31,0,0,1-1.615-.939,4.2,4.2,0,0,1,.1-2.084,25.544,25.544,0,0,0,.489-3.614,3.706,3.706,0,0,0-.211-1.8,1.373,1.373,0,0,0-1.468-.844c-.793.186-1.125,1.215-1.907,1.463a1.524,1.524,0,0,1-1.688-.866,4.3,4.3,0,0,1-.321-2.011v-2.32a3.835,3.835,0,0,0-.546-2.41,4.256,4.256,0,0,0-3.173-1.148,2.692,2.692,0,0,0-1.809.728A2.336,2.336,0,0,1,868.088,252.14Z" transform="translate(-629.982 -179.414)"/><path class="f" d="M885.3,381.92l2.9,11.9S890.481,393.807,885.3,381.92Z" transform="translate(-645.064 -280.159)"/><path class="f" d="M913.707,374.85s-3.792,6.21-2.312,12.635l.706.051S910.84,384.562,913.707,374.85Z" transform="translate(-663.573 -275.078)"/><path class="f" d="M929,498.976s4.658-1.541,5,2.034C934.007,501.009,933.129,498.559,929,498.976Z" transform="translate(-676.473 -364.053)"/><path class="f" d="M860.843,426.81s-.925,6.469.74,9.065a20.286,20.286,0,0,1-8.14,1.111l-.562-10.176Z" transform="translate(-621.763 -312.423)"/><path class="f" d="M874.966,434.414l-.447.25-2.869-6.469,2.683-2.4h.138C874.429,426.111,873.681,431.671,874.966,434.414Z" transform="translate(-635.254 -311.69)"/><path class="g" d="M854.008,425.83s-.925,6.469.74,9.063a20.227,20.227,0,0,1-8.14,1.111L843.37,425.83Z" transform="translate(-614.928 -311.718)"/><path class="l" d="M796.7,790.139a2.1,2.1,0,0,1-1.8,1.834c-2.512.374-8.562,1.33-10.089,2.059-1.944.925-9.62.281-9.991-.647a1.468,1.468,0,0,1,.132-1.125,2.964,2.964,0,0,1,1.24-1.333,3.284,3.284,0,0,1,.563-.248c1.446-.481,4.177-1.5,4.914-2.579a31.35,31.35,0,0,0,4.377-4.588,2.222,2.222,0,0,1,1.778-1.108c.81-.036,1.713.371,2.084,2.146,0,0,4.436,2.531,5.625.312,0,0,.186,3.409.923,4.343h0A1.237,1.237,0,0,1,796.7,790.139Z" transform="translate(-565.622 -567.997)"/><path class="f" d="M796.7,807.524a2.1,2.1,0,0,1-1.8,1.834c-2.512.374-8.562,1.331-10.089,2.059-1.944.925-9.62.281-9.991-.647a1.468,1.468,0,0,1,.132-1.125,2.965,2.965,0,0,1,1.24-1.333c1.252.844,4.031,1.643,10.143.689,5.831-.911,8.719-1.8,10.126-2.411h0A1.237,1.237,0,0,1,796.7,807.524Z" transform="translate(-565.622 -585.382)"/><g class="n" transform="translate(234.325 66.709)"><path d="M942.414,266.666v-.045a8.28,8.28,0,0,0,.281-2.1,13.869,13.869,0,0,1-.281,1.688A1.024,1.024,0,0,0,942.414,266.666Z" transform="translate(-920.42 -262.489)"/><path d="M880.881,270.134a2.675,2.675,0,0,1,.228,1.058,3.188,3.188,0,0,0-.228-1.474,1.367,1.367,0,0,0-1.465-.844c-.793.186-1.125,1.215-1.91,1.463a1.527,1.527,0,0,1-1.687-.866,4.278,4.278,0,0,1-.321-2.014v-2.318a3.836,3.836,0,0,0-.546-2.41,4.262,4.262,0,0,0-3.173-1.15,2.7,2.7,0,0,0-1.811.731,2.337,2.337,0,0,1-1.907.678,1.648,1.648,0,0,1-1.328-1.148c-.076-.3-.056-.619-.143-.914-.217-.726-.993-1.105-1.513-1.657a3.029,3.029,0,0,1-.779-1.969,3.153,3.153,0,0,0,.779,2.371c.52.563,1.3.931,1.513,1.657.087.281.068.616.143.914a1.648,1.648,0,0,0,1.328,1.148,2.337,2.337,0,0,0,1.907-.678,2.7,2.7,0,0,1,1.811-.731,4.254,4.254,0,0,1,3.173,1.15,3.858,3.858,0,0,1,.546,2.41v2.318a4.255,4.255,0,0,0,.321,2.011,1.531,1.531,0,0,0,1.688.869c.776-.248,1.125-1.277,1.91-1.463A1.421,1.421,0,0,1,880.881,270.134Z" transform="translate(-864.285 -257.3)"/><path d="M934.017,292.349a3.555,3.555,0,0,1-.788,1.271l-3.055,3.671c-1.286,1.544-2.644,3.333-2.531,5.3.093-1.809,1.353-3.454,2.531-4.888l3.055-3.671a3.555,3.555,0,0,0,.788-1.271,3.51,3.51,0,0,0,.082-1.015A2.675,2.675,0,0,1,934.017,292.349Z" transform="translate(-909.818 -282.06)"/><path d="M921.741,326.845a2.156,2.156,0,0,1-.093-.5,2.488,2.488,0,0,0,.093.911,1.3,1.3,0,0,0,1.615.937,3.979,3.979,0,0,1-.034-.4A1.307,1.307,0,0,1,921.741,326.845Z" transform="translate(-905.507 -306.928)"/></g><path class="f" d="M812.69,789.36s.968,1.688,4.472.2" transform="translate(-592.878 -572.998)"/><path class="f" d="M918,790.82s3.021,3.558,6.829,1.167" transform="translate(-668.567 -574.047)"/><path class="f" d="M943.625,641.23s-2.135,1.333-2.2,2.1,1.1-.563,1.1-.563Z" transform="translate(-685.399 -466.533)"/><path class="f" d="M942.466,677.59a4.464,4.464,0,0,1-2.63,1.027c-1.6.07-1.463,2.152-.419,1.527A26.167,26.167,0,0,0,942.466,677.59Z" transform="translate(-683.397 -492.666)"/><path class="f" d="M948.956,682.34s-1.024,5.032-1.856,4.062" transform="translate(-689.482 -496.079)"/><path class="u" d="M242.606,394.868s6.427,1.764,9.521-.582,4.436-1.592,4.436-1.592,7.378-.408,7.985-2.152-2.83-8.078-2.83-8.078c-.245-.563-.6-1.277-.762-1.277l.034-2.672h0l1.069-11.181c2.467-6.326.045-14.5.045-14.5l-.442-2.028a5.131,5.131,0,0,1,.419-3.375l4.481-9a13.469,13.469,0,0,1,.844-1.727c.281-.515.655-1.15,1.125-1.913.138-.219.281-.447.439-.686.543-.844,1.2-1.8,2-2.9a23.753,23.753,0,0,0,3.567-8.719l.239.793h.053l.065.014H275l.115.02h.042l1.378,17.54c.084,6.841,2.6,10.626,2.6,10.626l-.346,15.1c.473,3.637-.563,8.486-1.038,10.421l-1.086,2.45a2.945,2.945,0,0,0-1.6,2.228c-.214,1.809-2.118,5.707-2.118,5.707-.737.934-2.337,3.457-2.337,3.457s-.754,2.436-.287,3.347,4.371.818,4.371.818c4.458.987,7.876-1.406,7.659-3.055s.695-2.067.695-2.067c1.772-.563,1.6-1.764,1.6-1.764a11.037,11.037,0,0,0-1.342-7.184l-.281.65a9.892,9.892,0,0,1,.534-3.834l-.163.113-.051.031h-.017c.281-2.467,2.872-7.032,2.872-7.032,4.759-8.348,3.029-19.661,3.029-19.661l-.737-3.527-.042-1.33a44.407,44.407,0,0,1,.717-9.479c.256-1.384.52-3.055.723-4.9a43.284,43.284,0,0,1,2.441-9.611l.188-.034h.022c.259-.045.52-.09.785-.141h.051s.152-.821.281-2.219c.076-.892.138-2.022.138-3.322a37.372,37.372,0,0,0-1.775-11.563l.143-.205s.34-.461.962-1.26h0c1.142-1.451,2.92-3.657,5.111-6.143a10.53,10.53,0,0,0,2.771-9s-2.841-10.41-4.107-16.66a18.945,18.945,0,0,0-3.117-7.411,14.745,14.745,0,0,0,.394-3,10.973,10.973,0,0,0-.813-5.443,4.676,4.676,0,0,0-4.455-2.754,1.7,1.7,0,0,1-.8,0,1.215,1.215,0,0,1-.526-.458,6.9,6.9,0,0,1-.816-5.313c.338-1.811,1.029-3.544,1.339-5.361a6.638,6.638,0,0,0-.987-5.274c-1.359-1.688-3.727-2.163-5.493-3.432-1.24-.892-2.171-2.171-3.479-2.962s-2.531-.489-3.952-.191a31.608,31.608,0,0,0-6.916,1.761,18.421,18.421,0,0,0-6.028,4.385,5.721,5.721,0,0,0-1.344,2.121c-.563,1.859.537,3.839.307,5.763a11.4,11.4,0,0,1-1.606,3.769,4.884,4.884,0,0,0-.624,3.938c.788,1.991,3.356,2.413,5.223,3.474a1.6,1.6,0,0,1,.619.537c.461.8-.481,1.64-1.074,2.354a3.547,3.547,0,0,0-.7,1.429,5.1,5.1,0,0,0-3.057,3.69c-.633,2.832.34,6.407,1.2,8.77-.937,5.263.281,7.338,1.178,8.134a4.514,4.514,0,0,1,1.564,3.077v.1c.059.956.16,1.91.3,2.861h0c-.031-.222-.062-.459-.079-.563-.734,1.359-2.132,4.829-2.92,10.669a32.061,32.061,0,0,1-.712,3.716,20.32,20.32,0,0,0-.6,6.644l.141,1.893a.6.6,0,0,1-.383-.127l.987,1.809v3.052a11.251,11.251,0,0,1-.748,4.025c-.07.186-.146.371-.228.563a3.274,3.274,0,0,0-.332,1.657c-2.124,3.254-6.992,21.492-6.992,21.492-2.641,5.98.217,9.844.217,9.844s1.384,16.648,1.643,17.509.833,11.009.833,11.009h0v.807a1.893,1.893,0,0,0-.481-.138c-2.315-.129-2.942,3.527-2.942,3.527l-4.737,4.523s-2.163-.366-5.344,2.022S242.606,394.868,242.606,394.868Zm47.3-96.22-.014-.051-.129.076h0l-.053.031-.025.017h0l-2.183-7.7a12.792,12.792,0,0,1-.16-6.337l1.688-7.392h0V275.51l5.364,14.294C294.731,291.731,291.545,296.4,289.9,298.648Z" transform="translate(-180.927 -170.894)"/><path class="v" d="M382.906,557a44.3,44.3,0,0,0-2.717,10.323c-.2,1.823-.459,3.471-.712,4.838a44.209,44.209,0,0,0-.692,9.358l.042,1.313.7,3.479s1.688,11.175-2.973,19.408c0,0-2.762,4.931-2.846,7.265l-1.87.723-3.78-1.06s1.825-6.545,1.232-11.133l.34-14.907s-2.455-3.73-2.54-10.48L365.65,557.6Z" transform="translate(-271.577 -405.994)"/><path class="v" d="M303.337,547.62s-.464,7.223-4.036,12.2-4.332,7.139-4.332,7.139l-4.4,8.894a5.094,5.094,0,0,0-.413,3.327l.433,2s2.38,8.073-.042,14.32L289.4,607.57h-6.711s-.563-10.027-.807-10.877-1.615-17.293-1.615-17.293-2.813-3.825-.214-9.729c0,0,5.865-22.094,7.434-21.711S303.337,547.62,303.337,547.62Z" transform="translate(-209.264 -399.252)"/><g class="n" transform="translate(79.455 148.368)"><path d="M314.87,581.2l-.43-2a5.063,5.063,0,0,1,.411-3.342l4.4-8.9s.762-2.166,4.332-7.139c3.429-4.782,3.994-11.633,4.033-12.159l.683-.034s-.464,7.223-4.036,12.2-4.332,7.139-4.332,7.139l-4.4,8.894a5.094,5.094,0,0,0-.413,3.327l.433,2s2.38,8.073-.042,14.32l-1.148,12.067h-.681l1.148-12.067C317.249,589.257,314.87,581.2,314.87,581.2Z" transform="translate(-313.68 -547.62)"/></g><path class="f" d="M387.855,612.993c.084-2.334,2.846-7.265,2.846-7.265,4.675-8.241,2.973-19.408,2.973-19.408l-.72-3.482-.042-1.313a44.21,44.21,0,0,1,.692-9.358c.25-1.367.509-3.015.709-4.838a44.288,44.288,0,0,1,2.709-10.3l.7-.028A44.3,44.3,0,0,0,395,567.323c-.2,1.823-.458,3.471-.712,4.838a44.209,44.209,0,0,0-.692,9.358l.042,1.313.7,3.479s1.688,11.175-2.973,19.408c0,0-2.762,4.931-2.846,7.265l-1.87.723-.394-.11Z" transform="translate(-286.39 -405.994)"/><path class="w" d="M373.248,752.974a3.251,3.251,0,0,0,3.094-.383,9.986,9.986,0,0,0-.253,5.609c.765,3.06-7.139-2.464-7.139-2.464l1.688-3.856A2.646,2.646,0,0,0,373.248,752.974Z" transform="translate(-273.949 -546.06)"/><path class="f" d="M373.85,753.124a3.158,3.158,0,0,0,2.512-.563,9.985,9.985,0,0,0-.253,5.608c.765,3.06-7.139-2.464-7.139-2.464l1.688-3.856a2.411,2.411,0,0,0,1.927,1.086C373.02,752.986,373.437,753.045,373.85,753.124Z" transform="translate(-273.963 -546.038)"/><path class="v" d="M289.32,432.49h3.3V413.754l-2.478-.444Z" transform="translate(-207.952 -297.055)"/><path class="s" d="M289.32,432.49h3.3V413.754l-2.478-.444Z" transform="translate(-207.952 -297.055)"/><path class="x" d="M356.653,760.051a3.292,3.292,0,0,1,3.015,1.741l1.148.892.563-1.316a10.97,10.97,0,0,1,1.3,7.1s.169,1.187-1.572,1.741c0,0-.892.425-.681,2.039s-3.142,3.994-7.518,3.015c0,0-3.825.087-4.292-.807s.3-3.271.3-3.271,1.572-2.492,2.292-3.412a27.618,27.618,0,0,0,2.084-5.625C353.5,760.372,355.547,759.072,356.653,760.051Z" transform="translate(-259.224 -551.691)"/><path class="w" d="M298.248,759.385l.034-2.641s-3.8,1.094-6.877-.143c0,0,.259,2.655-.169,3.018s1.423,3.78,1.423,3.78l2.067,2.166,3.555-1.294.965-3.038S298.5,759.385,298.248,759.385Z" transform="translate(-218.047 -549.452)"/><path class="f" d="M298.248,759.385l.034-2.641s-3.8,1.094-6.877-.143c0,0,.259,2.655-.169,3.018s1.423,3.78,1.423,3.78l2.067,2.166,3.555-1.294.965-3.038S298.5,759.385,298.248,759.385Z" transform="translate(-218.047 -549.452)"/><path class="x" d="M255.322,763.091s2.02.234,1.764,2.813.107,0,.107,0a7.4,7.4,0,0,1,2.911,2.082c.765,1.212,2.146-1.083,2.25-1.741s.965-.931.965-.931,3.375,6.258,2.779,7.98-7.842,2.118-7.842,2.118-1.319-.743-4.357,1.572-9.347.563-9.347.563-5.142-2.146-2.017-4.5,5.246-2,5.246-2l4.652-4.484S253.049,762.962,255.322,763.091Z" transform="translate(-182.367 -554.115)"/><path class="y" d="M325.219,235.8c1.285.779,2.2,2.045,3.417,2.925,1.733,1.252,4.059,1.719,5.392,3.389a6.622,6.622,0,0,1,.968,5.206c-.3,1.794-.984,3.507-1.314,5.3a6.858,6.858,0,0,0,.8,5.246,1.19,1.19,0,0,0,.515.453,1.688,1.688,0,0,0,.785,0,4.593,4.593,0,0,1,4.377,2.72,10.892,10.892,0,0,1,.8,5.375,11.109,11.109,0,0,1-.9,4.379c-1.125,2.3-3.465,3.713-5.775,4.8a44.734,44.734,0,0,1-4.61,1.862,6.938,6.938,0,0,1-3.341.5c-1.921-.332-3.282-2.079-5.105-2.762a10.746,10.746,0,0,0-4.739-.219c-1.356.118-2.905.115-3.839-.875-1.2-1.271-.658-3.322-.045-4.959a3.53,3.53,0,0,1-2.5-5.772c.579-.706,1.5-1.53,1.052-2.326a1.541,1.541,0,0,0-.608-.529c-1.831-1.046-4.354-1.465-5.125-3.429a4.836,4.836,0,0,1,.61-3.893,11.542,11.542,0,0,0,1.578-3.721c.225-1.9-.844-3.856-.3-5.69a5.7,5.7,0,0,1,1.319-2.1,18.1,18.1,0,0,1,5.907-4.329,30.68,30.68,0,0,1,6.79-1.738C322.735,235.314,323.9,235,325.219,235.8Z" transform="translate(-228.144 -174.774)"/><path class="v" d="M315.351,337.751s-5.381-.281-6.4,4.306,2.208,11.158,2.208,11.158Z" transform="translate(-230.684 -248.411)"/><path class="s" d="M315.351,337.751s-5.381-.281-6.4,4.306,2.208,11.158,2.208,11.158Z" transform="translate(-230.684 -248.411)"/><path class="v" d="M320,322.984l2.039,1.614,9.515.425,5.94-4.078,6.042-10.368a7.469,7.469,0,0,1-5.744-5.879,12.871,12.871,0,0,1-.118-4.911s-9.687-5.015-8.5,2.813a10.632,10.632,0,0,1,.09,2.908c-.563,4.585-5.012,3.721-5.012,3.721l-1.707,2.633-1.955,6.469Z" transform="translate(-238.767 -219.991)"/><path class="f" d="M352.4,302.584a10.632,10.632,0,0,1,.09,2.908,8.587,8.587,0,0,0,8.525-.8,12.87,12.87,0,0,1-.118-4.911S351.211,294.767,352.4,302.584Z" transform="translate(-261.982 -219.986)"/><circle class="v" cx="8.582" cy="8.582" r="8.582" transform="translate(85.497 68.779)"/><path class="g" d="M321.39,349.115c.208,0,.413.031.619.051,1.125.112,5.825.366,8.5-2.832,3-3.578,6.984-8,7.147-8.177l4.059,1.226s-3.212-1.142-5.344,4.832a6.188,6.188,0,0,0,2.09,7.119,6.43,6.43,0,0,0,2.655,1.125.014.014,0,0,1,0,.014v2.622h0l-1.66,7.313a12.677,12.677,0,0,0,.158,6.258l2.531,8.947c-.383.264-16.089,10.947-26.58,3.569h0c.039-.321,1.336-10.82.436-15.959a35.5,35.5,0,0,1-.47-3.972v-.1A4.478,4.478,0,0,0,314,358.115c-.945-.844-2.225-3.094-.959-9.04a21.842,21.842,0,0,1,1.406-4.284l3.519-7.951h0l3.243.065v.022c-.281.349-4.042,5.046-4.45,8.073C316.356,347.877,315.863,348.76,321.39,349.115Z" transform="translate(-233.382 -247.759)"/><path class="v" d="M385.835,346.943s3.173,2.72,4.419,8.894,4.022,16.429,4.022,16.429a10.481,10.481,0,0,1-2.72,8.894c-3.845,4.419-6.4,7.876-6.4,7.876l-2.531,3.73a3.176,3.176,0,0,1-1.823,1.288,6.156,6.156,0,0,1-4.461-.318,2.6,2.6,0,0,1-1.125-3.282l.563-1.3s-5.212,3.285-5.665,1.471S376.174,387,376.174,387s5.381-.906,6.469-3.454c0,0,5.777-7.423,5.324-9.971l-5.58-14.955s-6.978-.923-4.6-8.762S385.835,346.943,385.835,346.943Z" transform="translate(-274.768 -253.922)"/><path class="q" d="M307.318,497.6s12.747,2.548,15.751,2.208l.323,1.077s4.838,1.083,15.776-.653q1.072-.169,2.225-.38l.256-.045s.149-.81.267-2.191a38,38,0,0,0-1.854-15.425l-1.839-5.665s-11.369,6.815-18.9,6.188c-.672-.056-1.339-.11-2.011-.132-1.544-.059-3.938,0-5.493-1.246l-3.263.563v9.282a11.12,11.12,0,0,1-.737,3.972c-.07.186-.143.368-.225.563A2.953,2.953,0,0,0,307.318,497.6Z" transform="translate(-229.617 -348.158)"/><path class="f" d="M364.58,551.89v2.889s5.569,1.246,18.257-1.077c0,0,.149-.81.267-2.191C379.212,552.134,368.476,553.636,364.58,551.89Z" transform="translate(-270.808 -402.048)"/><path class="f" d="M307.322,545.226s12.747,2.548,15.751,2.208l.323,1.077v-2.889c-1.451.6-11.813-1.9-15.568-2.832-.07.186-.143.368-.225.563a2.954,2.954,0,0,0-.281,1.873Z" transform="translate(-229.621 -395.781)"/><path class="q" d="M417.31,535.371l.945,5.862q1.072-.169,2.225-.38c-.3-1.713-.939-5.625-.762-6.275l-1.19-1.018Z" transform="translate(-308.706 -389.147)"/><path class="f" d="M417.78,534.921l.945,5.865q1.072-.172,2.225-.38c-.3-1.713-.939-5.625-.762-6.275L419,533.11Z" transform="translate(-309.044 -388.824)"/><g class="z" transform="translate(81.658 128.364)"><path d="M328.879,495c-.669-.056-1.339-.11-2.011-.132-1.5-.056-3.794,0-5.358-1.15l.546-.1c1.564,1.24,3.938,1.187,5.493,1.246.672.023,1.339.076,2.011.132.219.02.444.031.672.037A12.619,12.619,0,0,1,328.879,495Z" transform="translate(-321.51 -488.805)"/><path d="M390.672,500.214q1.072-.169,2.225-.377l.259-.048s.149-.81.264-2.191a37.9,37.9,0,0,0-1.854-15.425l-1.733-5.344c.368-.208.563-.329.563-.329l1.84,5.665a38,38,0,0,1,1.854,15.425c-.118,1.381-.267,2.191-.267,2.191l-.256.048q-1.15.208-2.225.377a70.072,70.072,0,0,1-11.462.984A72.3,72.3,0,0,0,390.672,500.214Z" transform="translate(-363.462 -476.5)"/><path d="M360.066,559.3v.031H359.7Q359.908,559.317,360.066,559.3Z" transform="translate(-348.958 -536.011)"/></g><ellipse class="w" cx="0.481" cy="0.99" rx="0.481" ry="0.99" transform="translate(109.706 145.338)"/><path class="v" d="M310.378,442.174c.776-5.766,2.146-9.192,2.869-10.534.028.183.1.776.135.959a27.853,27.853,0,0,1,.062,2.979l-.72,13.04.965,4.078c.906,3.229-2.45.678-2.45.678a2,2,0,0,1-1.969,1.361l-.174-2.34a20.212,20.212,0,0,1,.585-6.562A31.255,31.255,0,0,0,310.378,442.174Z" transform="translate(-230.889 -315.894)"/><path class="s" d="M310.378,442.174c.776-5.766,2.146-9.192,2.869-10.534.028.183.1.776.135.959a27.853,27.853,0,0,1,.062,2.979l-.72,13.04.965,4.078c.906,3.229-2.45.678-2.45.678a2,2,0,0,1-1.969,1.361l-.174-2.34a20.212,20.212,0,0,1,.585-6.562A31.255,31.255,0,0,0,310.378,442.174Z" transform="translate(-230.889 -315.894)"/><path class="v" d="M387.67,479.337c-.61.79-.945,1.243-.945,1.243l-2.531,3.727a3.162,3.162,0,0,1-1.823,1.288,6.142,6.142,0,0,1-4.461-.318,2.593,2.593,0,0,1-1.125-3.28l.563-1.305s-5.212,3.285-5.665,1.474,6.061-3.626,6.061-3.626,5.381-.906,6.469-3.457c0,0,.47-.6,1.125-1.524" transform="translate(-275.896 -346.023)"/><path class="q" d="M394.289,505.773s-6.163-.6-8.115-4.123l-.894,2.911s6.469,4.467,7.946,3.887Z" transform="translate(-285.686 -366.212)"/><path class="f" d="M393.516,505.666s-6.16-.6-8.115-4.126l-.892,2.9s6.469,4.467,7.943,3.887Z" transform="translate(-285.132 -366.133)"/><path class="q" d="M310.982,510.46s-2.157.765-2.582.34l.97,1.786,1.834-1.406Z" transform="translate(-230.43 -372.544)"/><path class="f" d="M310.982,510.46s-2.157.765-2.582.34l.97,1.786,1.834-1.406Z" transform="translate(-230.43 -372.544)"/><path class="f" d="M331.156,523.2V519.47l-.886,3.817Z" transform="translate(-237.384 -373.355)"/><path class="f" d="M345.9,258.437a3.31,3.31,0,0,1-2.312,1.218,18.229,18.229,0,0,1-2.686,0,6.737,6.737,0,0,0-4.053,1.021,10.307,10.307,0,0,0-1.859,1.969c-1.738,2.124-4.152,4.112-6.891,3.89a1.786,1.786,0,0,1-1.28-.54,2.053,2.053,0,0,1-.326-1.164,26.618,26.618,0,0,1,.166-5.248,11.065,11.065,0,0,1,.793-3.131,10.687,10.687,0,0,1,1.907-2.723,11.664,11.664,0,0,1,3.327-2.666,5.969,5.969,0,0,1,4.163-.537c1.64.447,2.917,1.73,4.481,2.391C343.12,253.667,347.862,255.672,345.9,258.437Z" transform="translate(-243.393 -185.608)"/><path class="y" d="M345.9,257.22a3.31,3.31,0,0,1-2.312,1.218,18.209,18.209,0,0,1-2.686,0,6.716,6.716,0,0,0-4.053,1.018,10.307,10.307,0,0,0-1.859,1.969c-1.738,2.124-4.152,4.112-6.891,3.89a1.775,1.775,0,0,1-1.28-.54,2.045,2.045,0,0,1-.326-1.164,26.614,26.614,0,0,1,.166-5.249,11.067,11.067,0,0,1,.793-3.131,10.617,10.617,0,0,1,1.907-2.72,11.625,11.625,0,0,1,3.327-2.669,5.969,5.969,0,0,1,4.163-.537c1.64.447,2.917,1.73,4.481,2.391C343.12,252.45,347.862,254.449,345.9,257.22Z" transform="translate(-243.393 -184.731)"/><path class="v" d="M291.653,473.47l-.023,1.027-.231-.982Z" transform="translate(-209.447 -340.294)"/><path class="s" d="M291.653,473.47l-.023,1.027-.231-.982Z" transform="translate(-209.447 -340.294)"/><g class="z" transform="translate(102.38 91.734)"><path d="M396.7,349.932c-2.382,7.839,4.562,8.759,4.562,8.759l5.58,14.955c.453,2.548-5.327,9.971-5.327,9.971a4.943,4.943,0,0,1-2.5,2.208,3.922,3.922,0,0,0,1.485-1.631s5.777-7.42,5.324-9.968l-5.58-14.958s-6.942-.92-4.562-8.759c.8-2.619,1.969-3.811,3.156-4.239A7.221,7.221,0,0,0,396.7,349.932Z" transform="translate(-395.184 -346.27)"/></g><g class="n" transform="translate(79.145 89.079)"><path d="M401,384.61a5.86,5.86,0,0,0,1.125,1.066,6.393,6.393,0,0,0,2.655,1.125v.3a6.374,6.374,0,0,1-2.408-1.066A5.836,5.836,0,0,1,401,384.61Z" transform="translate(-376.129 -371.171)"/><path d="M321.714,418.177v.1a36.335,36.335,0,0,0,.484,3.986c.844,4.849-.262,14.477-.419,15.807-.09-.059-.18-.115-.281-.18.042-.321,1.339-10.82.439-15.956a35.628,35.628,0,0,1-.47-3.972v-.1a4.341,4.341,0,0,0-.757-2.152A4.374,4.374,0,0,1,321.714,418.177Z" transform="translate(-318.423 -393.523)"/><path d="M321.047,337.215l-2.751-.053a.014.014,0,0,0-.014,0l-3.516,7.949a21.92,21.92,0,0,0-1.406,4.284c-1.024,4.81-.38,7.206.4,8.39-.88-1.038-1.789-3.4-.655-8.719a21.688,21.688,0,0,1,1.392-4.287l3.541-7.949h0l3.243.065v.02C321.258,336.948,321.171,337.055,321.047,337.215Z" transform="translate(-312.577 -336.83)"/><path d="M416.39,345.87l.048.014Z" transform="translate(-387.191 -343.327)"/><path d="M352.175,342.72l-2.756-.83H349.4c-.163.18-4.149,4.6-7.144,8.177-2.678,3.2-7.372,2.948-8.5,2.835-.205-.023-.413-.039-.619-.053-3.074-.2-4.284-.563-4.689-1.339.577.562,1.845.844,4.433,1,.208,0,.414.031.619.051,1.125.113,5.825.363,8.5-2.832,3-3.581,6.984-8,7.147-8.179h0l4.011,1.215A2.507,2.507,0,0,0,352.175,342.72Z" transform="translate(-323.986 -340.222)"/></g><path class="f" d="M284.932,776.085s-3.882,1.06-4.633-.6" transform="translate(-210.233 -563.022)"/><path class="f" d="M370.221,773.176s-4.5,1.162-5.541-.636" transform="translate(-270.88 -560.909)"/><path class="aa" d="M537.362,745.683c.065-.563.157-1.125.259-1.688a11.763,11.763,0,0,0-.563-5.7h0c-.1-.3-.18-.461-.18-.461-1.792-.49-8.854,4.99-11.428,7.054-.892,0-1.859.039-2.917.11-.461.034-.923.045-1.384.037h-1.688c-2.388-1.924-9.78-7.71-11.619-7.209,0,0-.076.166-.18.461h0a11.559,11.559,0,0,0-.577,5.7c.1.563.194,1.125.259,1.688a8.076,8.076,0,0,0,2.531,5.206,34.121,34.121,0,0,0,3.066,9.1,6.511,6.511,0,0,0,.394,1.285c-.478,1.845-1.03,4.253-.872,5.063,0,0-2.5-.6-2.751,2.4v.093c-.9.413-2.031,1.361-.762,3.347a1.3,1.3,0,0,0,.653.532c.225.079.444.079.422-.236l1.561,1.758s2.829.326,2.863-1.316l.166.025c.38.056.776.1,1.184.146l.2.65s-2.124-.045-1.544,1.263c0,0,.534.495.717.315,0,0-.281.858.827.858,0,0,1.19.63,1.654.18s1.426-1.125,1.516-1.406c.025-.076.036-.743.042-1.665h.183c2.371.056,4.888-.02,7.178-.144h.186c0,1,.014,1.735.039,1.814.093.281,1.058.948,1.519,1.406s1.651-.18,1.651-.18c1.1,0,.827-.858.827-.858.186.18.72-.315.72-.315.579-1.308-1.547-1.263-1.547-1.263l.253-.844,1.173-.1.186-.017c-.113,1.786,2.86,1.443,2.86,1.443L536,772.466c-.025.315.194.315.419.236a1.291,1.291,0,0,0,.633-.537c1.915-3-1.623-3.631-1.623-3.631a1.73,1.73,0,0,0-.335-.053.577.577,0,0,1,.014-.155h0a6.172,6.172,0,0,0,.022-1.187,2.611,2.611,0,0,0-2.107-1.533c-.72-.09-.734-3.4-.661-5.69a6.536,6.536,0,0,0,.113-1.305,6.881,6.881,0,0,0-.281-2.09,26.8,26.8,0,0,0,2.658-5.625A8.185,8.185,0,0,0,537.362,745.683Z" transform="translate(-373.126 -535.934)"/><path class="g" d="M542.791,820.53h0c-.112,1.558-.413,4.059-.413,4.059s-1.252.152-3.187.326l-1.314.113c-1.007.082-2.138.16-3.333.228-2.208.121-4.633.2-6.919.141-1.142-.025-2.25-.084-3.277-.186-.458-.045-.9-.1-1.325-.16-2.621-.391-4.5-1.139-4.661-2.453a7.6,7.6,0,0,1-.059-1.687c.245-2.953,2.65-2.357,2.65-2.357-.155-.816.428-3.35.9-5.184.3-1.156.563-2.034.563-2.034l16.91-1.125h.056a.827.827,0,0,1,.827.869c-.1,2.028-.245,6.672.585,6.776a2.549,2.549,0,0,1,2.034,1.5A6.316,6.316,0,0,1,542.791,820.53Z" transform="translate(-381.277 -587.983)"/><path class="g" d="M521.654,748.069s-6.376,7.676-9.448,5.549c-.073-.051-.143-.1-.211-.155a7.823,7.823,0,0,1-2.751-5.364c-.062-.563-.152-1.105-.25-1.654a11.486,11.486,0,0,1,.563-5.6h0c.1-.281.172-.453.172-.453C511.851,739.8,521.654,748.069,521.654,748.069Z" transform="translate(-374.502 -537.782)"/><path class="g" d="M518.192,750.012s-2.008,1.406-4.841,3.718a10.237,10.237,0,0,1-1.406.968,7.824,7.824,0,0,1-2.751-5.364c-.062-.562-.152-1.105-.25-1.654a11.485,11.485,0,0,1,.563-5.6h0C513.478,742.356,518.192,750.012,518.192,750.012Z" transform="translate(-374.466 -539.016)"/><path class="ab" d="M518.192,750.012s-2.008,1.406-4.841,3.718a10.237,10.237,0,0,1-1.406.968,7.824,7.824,0,0,1-2.751-5.364c-.062-.562-.152-1.105-.25-1.654a11.485,11.485,0,0,1,.563-5.6h0C513.478,742.356,518.192,750.012,518.192,750.012Z" transform="translate(-374.466 -539.016)"/><path class="f" d="M521.658,756.773s-1.072.757-2.585,1.986a5.449,5.449,0,0,1-.742.515,4.141,4.141,0,0,1-1.468-2.861c-.031-.3-.079-.591-.132-.886a6.149,6.149,0,0,1,.312-2.987h0C519.144,752.686,521.658,756.773,521.658,756.773Z" transform="translate(-380.118 -546.534)"/><path class="g" d="M569.05,748.069s6.376,7.676,9.448,5.549c.07-.051.143-.1.211-.155a7.824,7.824,0,0,0,2.751-5.364c.062-.563.152-1.105.247-1.654a11.449,11.449,0,0,0-.562-5.6h0c-.1-.281-.174-.453-.174-.453C578.852,739.8,569.05,748.069,569.05,748.069Z" transform="translate(-417.766 -537.782)"/><path class="g" d="M581.22,750.012s2.011,1.406,4.843,3.718a10.241,10.241,0,0,0,1.392.968,7.824,7.824,0,0,0,2.751-5.364c.062-.562.152-1.105.247-1.654a11.45,11.45,0,0,0-.562-5.6h0C585.94,742.356,581.22,750.012,581.22,750.012Z" transform="translate(-426.513 -539.016)"/><path class="ab" d="M581.22,750.012s2.011,1.406,4.843,3.718a10.241,10.241,0,0,0,1.392.968,7.824,7.824,0,0,0,2.751-5.364c.062-.562.152-1.105.247-1.654a11.45,11.45,0,0,0-.562-5.6h0C585.94,742.356,581.22,750.012,581.22,750.012Z" transform="translate(-426.513 -539.016)"/><path class="f" d="M589.05,756.8s1.066.754,2.568,1.969a5.153,5.153,0,0,0,.74.512,4.154,4.154,0,0,0,1.46-2.844c.031-.281.079-.588.132-.88a6.162,6.162,0,0,0-.3-2.97h0C591.55,752.742,589.05,756.8,589.05,756.8Z" transform="translate(-432.141 -546.57)"/><path class="f" d="M548.456,810.23a15.275,15.275,0,0,1-2.442,3.111c-2.531,2.25-13.462,1.356-14.17,1.24-.149-.025-.459-.467-.844-1.184.3-1.156.563-2.034.563-2.034Z" transform="translate(-390.419 -587.998)"/><path class="g" d="M530.871,765.187c-.444.031-.889.042-1.336.034-2.281-.039-9.965.062-10.818,3.164-1,3.657,3.485,13.448,4.191,13.566s11.633,1,14.173-1.24,5.845-9.282,5.668-9.92C542.749,770.79,545.9,764.146,530.871,765.187Z" transform="translate(-381.486 -555.545)"/><path class="f" d="M538.556,786.424a8.069,8.069,0,0,0-8.264,4.669,6.75,6.75,0,0,0,.5,6.8c.878,1.235,2.166,2.155,3.957,1.406C538.73,797.664,538.556,786.424,538.556,786.424Z" transform="translate(-389.413 -570.852)"/><path class="f" d="M537.926,785.164a8.069,8.069,0,0,0-8.264,4.669,6.75,6.75,0,0,0,.5,6.8c.878,1.235,2.166,2.155,3.958,1.406C538.1,796.4,537.926,785.164,537.926,785.164Z" transform="translate(-388.96 -569.947)"/><path class="g" d="M537.926,785.794a8.069,8.069,0,0,0-8.264,4.669,6.75,6.75,0,0,0,.5,6.8c.878,1.235,2.166,2.155,3.958,1.406C538.1,797.034,537.926,785.794,537.926,785.794Z" transform="translate(-388.96 -570.4)"/><path class="ab" d="M537.926,785.794a8.069,8.069,0,0,0-8.264,4.669,6.75,6.75,0,0,0,.5,6.8c.878,1.235,2.166,2.155,3.958,1.406C538.1,797.034,537.926,785.794,537.926,785.794Z" transform="translate(-388.96 -570.4)"/><path class="ac" d="M537.86,803.13s-.768.709-.473.886S537.86,803.13,537.86,803.13Z" transform="translate(-394.961 -582.895)"/><path class="ac" d="M541.6,806.35s-.419.925-.121,1.027.475-.664.475-.664Z" transform="translate(-397.871 -585.209)"/><path class="ac" d="M535.124,811.32s-.411,1.091,0,1.091S535.124,811.32,535.124,811.32Z" transform="translate(-393.251 -588.781)"/><path class="ad" d="M533.78,821.71a3.11,3.11,0,0,0,2.959,1.949" transform="translate(-392.417 -596.249)"/><path class="ad" d="M540.61,823.91a1.48,1.48,0,0,0,1.769.236" transform="translate(-397.326 -597.83)"/><path class="f" d="M564,786.424a8.069,8.069,0,0,1,8.264,4.669,6.75,6.75,0,0,1-.5,6.8c-.875,1.235-2.166,2.155-3.957,1.406C563.811,797.664,564,786.424,564,786.424Z" transform="translate(-414.133 -570.852)"/><path class="f" d="M564.588,785.164a8.069,8.069,0,0,1,8.264,4.669,6.75,6.75,0,0,1-.5,6.8c-.875,1.235-2.166,2.155-3.958,1.406C564.422,796.4,564.588,785.164,564.588,785.164Z" transform="translate(-414.558 -569.947)"/><path class="g" d="M564.588,785.794a8.069,8.069,0,0,1,8.264,4.669,6.75,6.75,0,0,1-.5,6.8c-.875,1.235-2.166,2.155-3.958,1.406C564.422,797.034,564.588,785.794,564.588,785.794Z" transform="translate(-414.558 -570.4)"/><path class="ab" d="M564.588,785.794a8.069,8.069,0,0,1,8.264,4.669,6.75,6.75,0,0,1-.5,6.8c-.875,1.235-2.166,2.155-3.958,1.406C564.422,797.034,564.588,785.794,564.588,785.794Z" transform="translate(-414.558 -570.4)"/><path class="ac" d="M586.16,803.13s.768.709.473.886S586.16,803.13,586.16,803.13Z" transform="translate(-430.064 -582.895)"/><path class="ac" d="M582.314,806.35s.419.925.121,1.027-.475-.664-.475-.664Z" transform="translate(-427.045 -585.209)"/><path class="ac" d="M589.357,811.32s.408,1.091,0,1.091S589.357,811.32,589.357,811.32Z" transform="translate(-432.231 -588.781)"/><path class="ad" d="M584.059,821.71a3.11,3.11,0,0,1-2.959,1.949" transform="translate(-426.427 -596.249)"/><path class="ad" d="M580.272,823.91a1.483,1.483,0,0,1-1.772.236" transform="translate(-424.558 -597.83)"/><path class="ac" d="M553.2,841.485a8.169,8.169,0,0,1,5.845,0Z" transform="translate(-406.375 -610.061)"/><path class="f" d="M523.023,851.338c-2.621-.391-4.5-1.139-4.661-2.453a7.6,7.6,0,0,1-.059-1.688,3.786,3.786,0,0,1,1-.366,4.494,4.494,0,0,1,2.3.312c1.24.354,1.15,1.814,1.406,3.719A1.569,1.569,0,0,1,523.023,851.338Z" transform="translate(-381.277 -614.263)"/><path class="g" d="M515.894,847.487s-3.409.624-1.564,3.566a1.257,1.257,0,0,0,.63.52c.217.076.425.076.4-.233l1.508,1.727s3.01.354,2.745-1.55-.177-3.375-1.406-3.718A4.653,4.653,0,0,0,515.894,847.487Z" transform="translate(-378.044 -614.735)"/><path class="ad" d="M524.18,854.67s.723,1.651,1.727.264" transform="translate(-385.517 -619.938)"/><path class="ad" d="M518.28,857s.374,1.564,1.792.4" transform="translate(-381.277 -621.613)"/><path class="f" d="M596.2,846.828h0c-.113,1.558-.413,4.059-.413,4.059s-1.252.152-3.187.326a1.637,1.637,0,0,1,0-.326c.264-1.9.177-3.375,1.406-3.718A5.409,5.409,0,0,1,596.2,846.828Z" transform="translate(-434.686 -614.281)"/><path class="g" d="M596.976,847.487s3.412.624,1.567,3.566a1.268,1.268,0,0,1-.63.52c-.217.076-.428.076-.405-.233l-1.5,1.727s-3.012.354-2.745-1.55.177-3.375,1.406-3.718A4.65,4.65,0,0,1,596.976,847.487Z" transform="translate(-435.153 -614.735)"/><path class="ad" d="M599.227,854.67s-.726,1.651-1.727.264" transform="translate(-438.214 -619.938)"/><path class="ad" d="M604.954,857s-.377,1.564-1.794.4" transform="translate(-442.282 -621.613)"/><path class="f" d="M540.281,847.93c-1.142-.025-2.25-.084-3.277-.186l-1.021-3.437a2.229,2.229,0,0,1-.093-.627,2.188,2.188,0,0,1,4.374-.014C540.275,845,540.286,846.7,540.281,847.93Z" transform="translate(-393.933 -610.517)"/><path class="g" d="M534.616,844.118l1.2,4.056s-2.048-.045-1.488,1.24c0,0,.515.487.692.309,0,0-.267.844.8.844,0,0,1.148.621,1.592.177s1.375-1.108,1.465-1.373c.056-.174.039-3.567.02-5.907a2.183,2.183,0,0,0-2.186-2.166h0a2.186,2.186,0,0,0-2.1,2.818Z" transform="translate(-392.744 -610.329)"/><path class="ad" d="M539.94,869.47s-.894.844-.422,1.342" transform="translate(-396.442 -630.575)"/><path class="ad" d="M537.887,867.56a1.215,1.215,0,0,0-.827,1.038" transform="translate(-394.774 -629.202)"/><path class="f" d="M580.527,843.488a2.227,2.227,0,0,1-.09.627l-.954,3.254c-1.007.082-2.138.16-3.333.228,0-1.215,0-2.832.02-4.123a2.186,2.186,0,0,1,4.371.014Z" transform="translate(-422.869 -610.325)"/><path class="g" d="M581.02,844.118l-1.2,4.056s2.05-.045,1.491,1.24c0,0-.515.487-.692.309,0,0,.264.844-.8.844,0,0-1.148.621-1.592.177s-1.373-1.108-1.463-1.373c-.056-.174-.039-3.567-.02-5.907a2.183,2.183,0,0,1,2.186-2.166h0a2.185,2.185,0,0,1,2.093,2.818Z" transform="translate(-423.282 -610.329)"/><path class="ad" d="M586.23,869.47s.894.844.422,1.342" transform="translate(-430.114 -630.575)"/><path class="ad" d="M587.63,867.56a1.215,1.215,0,0,1,.827,1.038" transform="translate(-431.12 -629.202)"/><path class="f" d="M549.833,782.768s-4.166-.132-4.3,3.094,6.509,1.859,6.509,1.859,2.79-.374,2.3-2.335S552.845,782.945,549.833,782.768Z" transform="translate(-400.864 -568.26)"/><path class="f" d="M549.833,781.508s-4.166-.132-4.3,3.094,6.509,1.859,6.509,1.859,2.79-.374,2.3-2.334S552.845,781.685,549.833,781.508Z" transform="translate(-400.864 -567.354)"/><path class="ac" d="M549.833,782.138s-4.166-.132-4.3,3.094,6.509,1.859,6.509,1.859,2.79-.374,2.3-2.334S552.845,782.315,549.833,782.138Z" transform="translate(-400.864 -567.807)"/><path class="f" d="M527.78,839.92s1.406.5,1.688,1.46" transform="translate(-388.104 -609.337)"/><path class="f" d="M595.9,837.4s-1,.419-.928,2.169" transform="translate(-436.394 -607.526)"/><ellipse class="g" cx="0.652" cy="1.081" rx="0.652" ry="1.081" transform="translate(139.163 237.283) rotate(-29.887)"/><ellipse class="g" cx="1.077" cy="0.65" rx="1.077" ry="0.65" transform="translate(158.96 237.537) rotate(-60)"/><ellipse class="ab" cx="0.652" cy="1.081" rx="0.652" ry="1.081" transform="translate(139.163 237.283) rotate(-29.887)"/><ellipse class="ab" cx="1.077" cy="0.65" rx="1.077" ry="0.65" transform="translate(158.96 237.537) rotate(-60)"/><ellipse class="a" cx="7.575" cy="1.28" rx="7.575" ry="1.28" transform="translate(46.589 200.13)"/><ellipse class="a" cx="7.575" cy="1.28" rx="7.575" ry="1.28" transform="translate(16.749 218.28)"/><ellipse class="g" cx="11.31" cy="1.913" rx="11.31" ry="1.913" transform="translate(5.127 201.41)"/><path class="g" d="M70.151,718.562a3.272,3.272,0,0,1-1.08-1.626,1.45,1.45,0,0,1,.754-1.657,2.116,2.116,0,0,1,1.991.7,2.673,2.673,0,0,0,1.938.937,2.95,2.95,0,0,1-.911-2.762,1.125,1.125,0,0,1,.253-.562c.383-.411,1.08-.233,1.541.09,1.46,1.029,1.87,3.015,1.876,4.8a8.859,8.859,0,0,0,.028-1.969,2.026,2.026,0,0,1,.743-1.75,2.25,2.25,0,0,1,1.125-.281,2.352,2.352,0,0,1,1.84.523,1.809,1.809,0,0,1-.073,2.25,7.356,7.356,0,0,1-1.9,1.524,4.2,4.2,0,0,0-1.361,1.3,1.324,1.324,0,0,0-.1.231H72.7A11.374,11.374,0,0,1,70.151,718.562Z" transform="translate(-58.392 -518.367)"/><ellipse class="a" cx="7.575" cy="1.28" rx="7.575" ry="1.28" transform="translate(282.077 210.835)"/><path class="ae" d="M1042.91,747.146s4.321-.132,5.626-1.06,6.644-2.034,6.967-.546,6.495,7.395,1.615,7.434-11.333-.76-12.632-1.553S1042.91,747.146,1042.91,747.146Z" transform="translate(-758.343 -540.979)"/><path class="af" d="M1057.2,758.416c-4.877.039-11.332-.759-12.632-1.553-.99-.6-1.384-2.765-1.516-3.763h-.143s.281,3.485,1.572,4.275,7.755,1.592,12.632,1.553c1.406,0,1.9-.512,1.868-1.254C1058.788,758.135,1058.25,758.416,1057.2,758.416Z" transform="translate(-758.343 -546.937)"/></g></svg>