<svg xmlns="http://www.w3.org/2000/svg" width="320" height="263.121" viewBox="0 0 320 263.121"><defs><style>.a{fill:#e6e6e6;}.b{fill:#fff;}.c{fill:#ffb8b8;}.d{fill:#2f2e41;}.e{fill:#3182ce;}</style></defs><g transform="translate(0)"><path class="a" d="M914.2,664.182c5.5-6.253,31.376-37.031,12.982-42.1-13.815-3.811-15.355,17.155-14.891,31.226-2.212-9.48-6.506-20.553-14.049-15.668-10.871,7.042,9.5,22.624,14.82,26.45.087.778.145,1.21.145,1.21s.218-.238.607-.676c.3.213.473.327.473.327S914.26,664.67,914.2,664.182Z" transform="translate(-613.69 -419.454)"/><path class="a" d="M232.978,696.939c6.295-7.162,35.937-42.414,14.868-48.225-15.824-4.365-17.586,19.649-17.055,35.764-2.534-10.857-7.451-23.541-16.091-17.944-12.451,8.065,10.879,25.912,16.974,30.294.1.891.166,1.386.166,1.386s.25-.273.7-.774c.348.244.542.375.542.375S233.045,697.5,232.978,696.939Z" transform="translate(-211.097 -435.093)"/><path class="a" d="M429.96,181.278a2.059,2.059,0,0,0-2.057,2.057V403.441a2.06,2.06,0,0,0,2.057,2.057H607.279a2.059,2.059,0,0,0,2.057-2.057V183.335a2.059,2.059,0,0,0-2.057-2.057Z" transform="translate(-338.706 -160.274)"/><path class="b" d="M617.944,406.074H496.988a3.086,3.086,0,0,1,0-6.171H617.944a3.086,3.086,0,0,1,0,6.171Z" transform="translate(-377.553 -288.953)"/><path class="b" d="M680.2,266.324H599.949c-1.131,0-2.047-1.382-2.047-3.086s.917-3.086,2.047-3.086H680.2c1.131,0,2.047,1.382,2.047,3.086S681.326,266.324,680.2,266.324Z" transform="translate(-438.765 -206.698)"/><path class="b" d="M680.2,309.324H599.949c-1.131,0-2.047-1.382-2.047-3.086s.917-3.086,2.047-3.086H680.2c1.131,0,2.047,1.381,2.047,3.086S681.326,309.324,680.2,309.324Z" transform="translate(-438.765 -232.008)"/><path class="b" d="M617.944,454.574H496.988a3.086,3.086,0,0,1,0-6.171H617.944a3.086,3.086,0,0,1,0,6.171Z" transform="translate(-377.553 -317.5)"/><path class="b" d="M617.944,503.074H496.988a3.086,3.086,0,0,1,0-6.171H617.944a3.086,3.086,0,0,1,0,6.171Z" transform="translate(-377.553 -346.046)"/><path class="b" d="M617.944,551.574H496.988a3.086,3.086,0,0,1,0-6.171H617.944a3.086,3.086,0,0,1,0,6.171Z" transform="translate(-377.553 -374.593)"/><path class="b" d="M617.944,600.074H496.988a3.086,3.086,0,0,1,0-6.171H617.944a3.086,3.086,0,0,1,0,6.171Z" transform="translate(-377.553 -403.139)"/><path class="b" d="M617.944,648.574H496.988a3.086,3.086,0,0,1,0-6.171H617.944a3.086,3.086,0,0,1,0,6.171Z" transform="translate(-377.553 -431.685)"/><circle class="b" cx="16.251" cy="16.251" r="16.251" transform="translate(116.35 49.34)"/><path class="b" d="M594.265,414.9" transform="translate(-436.625 -297.782)"/><path class="c" d="M468.4,407.975l-24.234,12.884-.307-10.736a71.772,71.772,0,0,0,22.393-7.362l2.534-6.262A4.245,4.245,0,0,1,476,395.4h0a4.245,4.245,0,0,1-.374,5.788Z" transform="translate(-348.097 -285.388)"/><path class="d" d="M359.343,585.749h0a4.762,4.762,0,0,1,.6-3.852l5.324-8.17a9.3,9.3,0,0,1,12.069-3.184h0c-2.237,3.808-1.925,7.149.773,10.052a48.4,48.4,0,0,0-11.493,7.835,4.762,4.762,0,0,1-7.276-2.682Z" transform="translate(-298.254 -388.777)"/><path class="d" d="M442.294,531.828h0a9.135,9.135,0,0,1-7.764,4.435l-35.365.268-1.534-8.9,15.644-4.6-13.19-10.123L414.5,496.039l26.186,24.407A9.135,9.135,0,0,1,442.294,531.828Z" transform="translate(-320.889 -345.538)"/><path class="d" d="M365.365,557.558h-8.283c-7.436-50.973-15.005-102.089,7.362-121.168l26.381,4.294-3.374,22.393-14.724,16.871Z" transform="translate(-292.611 -310.429)"/><path class="d" d="M380.389,742.12h0a4.761,4.761,0,0,1-3.852-.6l-8.17-5.323a9.3,9.3,0,0,1-3.185-12.069h0c3.808,2.237,7.149,1.925,10.052-.773a48.4,48.4,0,0,0,7.836,11.493,4.762,4.762,0,0,1-2.682,7.276Z" transform="translate(-301.177 -479.33)"/><path class="d" d="M411.216,297.769H371.843c-7.271-10.287-8.125-20.124,0-29.331,0-4.071,5.259-7.372,11.746-7.372h0c5.082,0,9.587,2.051,11.165,5.083Z" transform="translate(-302.309 -207.235)"/><path class="c" d="M413.714,323.347l-15.338-3.681c2.547-5.214,2.757-11.016,1.534-17.178l10.43-.307A80.09,80.09,0,0,0,413.714,323.347Z" transform="translate(-321.327 -231.435)"/><path class="e" d="M404.818,390.236c-11.165,7.608-19.054.26-25.075-11.077.837-6.937-.518-15.239-3.027-24.26A16.513,16.513,0,0,1,386.8,334.987h0l13.19,5.522c11.2,9.129,13.4,19.018,9.2,29.448Z" transform="translate(-308.216 -250.745)"/><path class="c" d="M328.427,354.275l-12.27,6.442,21.78,12.884,3.031,7.475a3.965,3.965,0,0,1-2.382,5.238h0a3.965,3.965,0,0,1-5.25-3.515l-.306-5.21-27.681-9.135a6.473,6.473,0,0,1-4.062-3.954h0a6.473,6.473,0,0,1,2.428-7.53l22.26-15.271Z" transform="translate(-263.956 -254.695)"/><path class="e" d="M373.933,350.868c-5.117-2.243-9.771.194-15.644,2.147l-.92-16.258c5.832-3.109,11.393-3.947,16.565-1.534Z" transform="translate(-297.19 -250.061)"/><path class="d" d="M417.46,298.867h-8.685c-5.405-9.971-5.16-27.587-16.776-23.661-7.463-4.429-3.181,12.953-5.037,23.661h-7.552c-2.052-10.462-2.081-20.946.333-29.472a3.972,3.972,0,0,1,1.445-2.9,8.207,8.207,0,0,1,1.212-.921c2.669-1.681,4.461-2.639,8.36-2.639a23.534,23.534,0,0,1,6.454.887c.273.08.543.166.8.255.359.123.706.258,1.037.4a7.134,7.134,0,0,1,3.681,2.969C410.085,276.21,413.837,287.269,417.46,298.867Z" transform="translate(-309.275 -208.334)"/><circle class="c" cx="9.793" cy="9.793" r="9.793" transform="translate(73.071 59.214)"/><path class="d" d="M408.233,276.847c-2.946-4.016-10.629.774-19.865,4.2v-9.513c7.6-3.345,12.028-4.309,17.067-.839Z" transform="translate(-315.436 -211.618)"/><circle class="e" cx="23.722" cy="23.722" r="23.722" transform="translate(241.289 0)"/><path class="b" d="M828.98,169.937a1.565,1.565,0,1,0,0,3.131H837.3v8.318a1.565,1.565,0,1,0,3.131,0v-8.318h8.319a1.565,1.565,0,0,0,0-3.131H840.43v-8.319a1.565,1.565,0,0,0-3.131,0v8.319Z" transform="translate(-573.854 -147.781)"/></g></svg>