<svg xmlns="http://www.w3.org/2000/svg" width="319.794" height="266.749" viewBox="0 0 319.794 266.749"><defs><style>.a{fill:#3182ce;}.b{fill:#d0cde1;}.c{fill:#a0616a;}.d{fill:#2f2e41;}.e{opacity:0.15;}.f{fill:#3f3d56;}</style></defs><g transform="translate(0 0)"><path class="a" d="M665.6,112.835c0,11.1-2.63,20.242-7.191,28.07a56.084,56.084,0,0,1-5.111,7.34c-16.769,20.51-47.946,31.736-76.124,49.919-83.176,53.672-92.185-32.332-88.429-85.329a94.56,94.56,0,0,1,23.073-55.97,87.827,87.827,0,0,1,8.981-8.83A86.023,86.023,0,0,1,577.17,27.5c37.658,0,69.816,22.713,82.567,54.72a82.662,82.662,0,0,1,5.859,30.612Z" transform="translate(-363.49 -27.503)"/><path class="b" d="M647.539,88.423l-84.2,10.13a87.826,87.826,0,0,1,8.981-8.83Z" transform="translate(-415.018 -69.191)"/><path class="b" d="M860.281,383.838a56.066,56.066,0,0,1-5.111,7.34L783.05,382.5Z" transform="translate(-565.367 -270.436)"/><path class="b" d="M776.279,194.357,654.05,178.5l119.287,7.052A82.225,82.225,0,0,1,776.279,194.357Z" transform="translate(-477.09 -130.835)"/><path class="a" d="M478.2,80.343c0,.218-.006.432-.025.644a8.838,8.838,0,1,1-16.63-4.77,8.116,8.116,0,0,1,.65-1.045,8.836,8.836,0,0,1,15.974,4.451C478.187,79.86,478.2,80.1,478.2,80.343Z" transform="translate(-344.653 -57.613)"/><path class="b" d="M487.778,97.452c0,.218-.006.432-.025.644L474.519,96.5l13.227.227C487.768,96.969,487.778,97.209,487.778,97.452Z" transform="translate(-354.234 -74.722)"/><path class="b" d="M477.956,113.615l-12.242,1.474a8.865,8.865,0,0,1-.934-1.247Z" transform="translate(-347.568 -86.431)"/><path class="b" d="M473.785,82.615l-10.026,1.206a8.129,8.129,0,0,1,.65-1.045Z" transform="translate(-346.87 -65.217)"/><path class="a" d="M864.163,575.489c-.1.192-.208.379-.324.557a8.838,8.838,0,1,1-12.454-12.009,8.122,8.122,0,0,1,1.064-.618,8.836,8.836,0,0,1,12.023,11.42C864.381,575.058,864.277,575.274,864.163,575.489Z" transform="translate(-609.481 -393.616)"/><path class="b" d="M875.826,588.344c-.1.192-.208.379-.324.557l-10.943-7.609,11.577,6.4C876.044,587.913,875.94,588.129,875.826,588.344Z" transform="translate(-621.144 -406.47)"/><path class="b" d="M859.342,598.451l-11.5-4.437a8.854,8.854,0,0,1-.241-1.539Z" transform="translate(-609.537 -414.123)"/><path class="b" d="M869.2,569.648l-9.422-3.635a8.124,8.124,0,0,1,1.064-.618Z" transform="translate(-617.871 -395.592)"/><path class="a" d="M1065.685,115.173c.152.156.3.314.432.479a8.838,8.838,0,1,1-15.236,8.2,8.11,8.11,0,0,1-.264-1.2,8.836,8.836,0,0,1,14.543-7.966C1065.341,114.834,1065.517,115,1065.685,115.173Z" transform="translate(-748.401 -85.671)"/><path class="b" d="M1076.551,119.886c.152.156.3.314.431.479l-10.584,8.1,9.628-9.072C1076.206,119.547,1076.383,119.712,1076.551,119.886Z" transform="translate(-759.267 -90.384)"/><path class="b" d="M1081.155,138.039l-7.735,9.6a8.854,8.854,0,0,1-1.54-.24Z" transform="translate(-763.019 -103.145)"/><path class="b" d="M1057.433,123.526l-6.336,7.863a8.093,8.093,0,0,1-.264-1.2Z" transform="translate(-748.616 -93.213)"/><path class="c" d="M568.01,636.956s19.4.808,19.4,5.657-21.822,0-21.822,0Z" transform="translate(-416.552 -444.562)"/><path class="d" d="M304.144,649.626l-36.37-2.425-1.617-19.4-8.082,16.973-35.562-4.849c.808-30.712,13.74-60.616,14.548-64.658s2.74-20.739,2.74-20.739c3.532-7.492,22.04-8.2,36.548-7.516,6.013.275,11.347.792,14.637,1.164,2.174.242,3.459.42,3.459.42,5.795,5.973,9.529,14.111,11.824,23.2C314.546,604.56,304.144,649.626,304.144,649.626Z" transform="translate(-181.782 -382.876)"/><circle class="c" cx="20.205" cy="20.205" r="20.205" transform="translate(61.745 38.832)"/><path class="c" d="M275.435,229.879s-5.658,25.055-14.548,32.329,34.753,0,34.753,0-9.7-16.164-2.425-23.438S275.435,229.879,275.435,229.879Z" transform="translate(-207.224 -165.992)"/><path class="b" d="M290.977,384.139l-13.408,1.487-37.509,4.17s-.178-.477-.493-1.342c-2.724-7.427-15.841-43.571-17.288-54.425-1.616-12.123,15.356-26.671,15.356-26.671s16.164-3.233,21.014-3.233S282.9,311.4,282.9,311.4l7.234,65.07.622,5.633Z" transform="translate(-181.547 -216.8)"/><path class="e" d="M393.727,479.332,366.547,463.4s-.477-1.552-1.285-4.17c-.4-1.309-.9-2.893-1.455-4.688-3.136-10.07-8.4-26.687-12.616-38.827-6.466-18.589,25.055,33.137,25.055,33.137l1.576,1.22.622,5.633c2.174.242,3.459.42,3.459.42C387.7,462.1,391.432,470.24,393.727,479.332Z" transform="translate(-269.239 -290.406)"/><path class="b" d="M364.628,327.1s-8.082,10.507-1.616,29.1,15.356,47.685,15.356,47.685l46.877,27.479,6.466-8.082-43.644-33.945s-1.616-61.425-9.7-63.849A16.563,16.563,0,0,0,364.628,327.1Z" transform="translate(-276.211 -230.89)"/><path class="c" d="M246.836,544.045S258.151,567.483,263,565.058s-12.123-26.671-12.123-26.671Z" transform="translate(-198.426 -377.11)"/><path class="b" d="M140.683,352.77,97.847,388.332s-16.164,11.315,13.74,19.4,32.329,12.932,32.329,12.932,3.233-10.507,7.274-8.89L116.436,394.8l28.288-16.973Z" transform="translate(-93.485 -250.089)"/><path class="d" d="M167.44,162.689a114.1,114.1,0,0,0,11.441-6.067c-.3-8.807.788-16.8,3.962-21.039,1.782-4.046,5.524-8.1,8.454-11.287,7.2-7.834,23.111-12.207,25.933-8.292,21.348.421,23.6,17.155,23.6,17.155-.111,7-7.386,7.221-13.758,6.966.571,4.778-.95,9.743-5.354,11.945-8.421,4.211-10.947,9.684-6.737,13.474s11.79,13.895,1.684,16.421-11.369,7.579-8.421,9.684-6.737-3.79-6.737-3.79-1.684,10.105-10.526,7.579a5.319,5.319,0,0,1-2.363-1.674c-2.388,2.624-4.518,4.175-6.124,4.184-9.2.049-8.093-10.136-8.093-10.136s-10.915,3.065-7.509,1.833,3.552-6.439-5.5-11.6S162.364,165.2,167.44,162.689Z" transform="translate(-137.458 -87.068)"/><path class="f" d="M545.127,262.066l-.147-.019.358,1.359a35.721,35.721,0,0,0,1.468,5.58l10.489,39.873a6.758,6.758,0,0,0,5.5,4.959l21.39,3.309a6.758,6.758,0,0,0,6.991-3.489l20.328-37.969a35.666,35.666,0,0,0,1.739-3.248l.69-1.289-.108-.014a35.939,35.939,0,1,0-68.7-9.053Z" transform="translate(-402.317 -160.043)"/><path class="b" d="M581.458,314.364a7.352,7.352,0,0,1-1.125-.087l-22.359-3.459a7.378,7.378,0,0,1-6.009-5.416L541,263.724a37.565,37.565,0,0,1-1.54-5.858l-.277-1.823a37.89,37.89,0,0,1,43.372-42.258l-.1.624a37.272,37.272,0,0,0-42.6,41.958l.213,1.364a37.343,37.343,0,0,0,1.527,5.809l10.971,41.7a6.746,6.746,0,0,0,5.495,4.952l22.359,3.459a6.758,6.758,0,0,0,6.981-3.484l.557.3a7.394,7.394,0,0,1-6.509,3.9Z" transform="translate(-398.274 -154.674)"/><rect class="b" width="39.559" height="0.817" transform="translate(175.25 148.233) rotate(-69.885)"/><rect class="b" width="0.817" height="39.559" transform="translate(165.827 107.684) rotate(-2.516)"/><path class="f" d="M604.168,580.086l-28.65-4.432a.817.817,0,0,1,.25-1.614l28.651,4.432a.817.817,0,1,1-.25,1.614Z" transform="translate(-422.875 -401.501)"/><path class="f" d="M606.5,560.812l-28.65-4.432a.817.817,0,1,1,.25-1.614l28.651,4.432a.817.817,0,0,1-.25,1.614Z" transform="translate(-424.468 -388.311)"/><path class="f" d="M608.822,541.539l-28.65-4.432a.817.817,0,1,1,.25-1.614l28.65,4.432a.817.817,0,1,1-.25,1.614Z" transform="translate(-426.06 -375.123)"/><path class="f" d="M599.514,585.643c5.683.879,10.78-1.575,11.384-5.482l-20.58-3.184C589.714,580.884,593.831,584.764,599.514,585.643Z" transform="translate(-433.437 -403.517)"/><path class="b" d="M626.435,342.613a5.032,5.032,0,0,1-2.788-1.8c-.182-.212-.359-.433-.536-.653a6.377,6.377,0,0,0-2.1-1.959c-1.874-.874-4.082.347-5.994,1.657l-.462-.673c2.1-1.441,4.553-2.772,6.8-1.724a7.077,7.077,0,0,1,2.4,2.187c.172.214.344.428.52.634.577.673,1.726,1.764,2.958,1.513a3.976,3.976,0,0,0,1.419-.751,7.6,7.6,0,0,1,1-.634,4,4,0,0,1,4.39.62,7.893,7.893,0,0,1,.6.63,2.032,2.032,0,0,0,3.286.386,4.223,4.223,0,0,1,2.472-.74l.088.012c1.609.249,2.35,2.028,2.77,3.356l-.779.246c-.57-1.8-1.265-2.7-2.175-2.8a3.59,3.59,0,0,0-1.988.648,2.787,2.787,0,0,1-4.288-.566,7.187,7.187,0,0,0-.533-.566,3.209,3.209,0,0,0-3.476-.491,6.883,6.883,0,0,0-.9.569,4.642,4.642,0,0,1-1.727.885A2.684,2.684,0,0,1,626.435,342.613Z" transform="translate(-450.059 -239.353)"/></g></svg>