<svg xmlns="http://www.w3.org/2000/svg" xmlns:xlink="http://www.w3.org/1999/xlink" width="320" height="250.507" viewBox="0 0 320 250.507"><defs><style>.a,.n,.q{fill:#3182ce;}.a,.d,.l,.p{opacity:0.1;}.b{fill:url(#a);}.c{fill:#efb7b9;}.e{fill:#e1e7ef;}.f{opacity:0.05;}.g{fill:#b07473;}.h{fill:#444053;}.i{fill:#67647e;}.j{fill:url(#b);}.k{fill:#585268;}.m{fill:none;stroke:#535461;stroke-miterlimit:10;stroke-width:2px;}.o{fill:#a8a8a8;}.p{fill:#fff;}.q{opacity:0.3;}</style><linearGradient id="a" x1="0.5" y1="0.982" x2="0.5" y2="0.216" gradientUnits="objectBoundingBox"><stop offset="0" stop-color="gray" stop-opacity="0.251"/><stop offset="0.54" stop-color="gray" stop-opacity="0.122"/><stop offset="1" stop-color="gray" stop-opacity="0.102"/></linearGradient><linearGradient id="b" x1="-0.045" y1="-0.254" x2="0.967" y2="-0.254" xlink:href="#a"/></defs><g transform="translate(-0.009 -0.017)"><path class="a" d="M179.026,192.176a1.268,1.268,0,0,1-1.265,1.265h-1.795a1.265,1.265,0,1,1,0,2.531h2.528a1.265,1.265,0,1,1,0,2.531H166.616c8.115,22.733,23.331,42.606,43.336,57.583a1.259,1.259,0,0,1,.709-.221H225.3a1.265,1.265,0,1,1,0,2.531H223.5a1.265,1.265,0,1,1,0,2.531h2.531a1.265,1.265,0,0,1,0,2.531h-5.2a150.859,150.859,0,0,0,78.752,21.719,154.065,154.065,0,0,0,50.886-8.54q3.26-1.146,6.446-2.423,5.546-2.24,10.831-4.885,2.279-1.14,4.508-2.357l.069-.036.335-.185.87-.482q2.635-1.472,5.19-3.045l1.047-.649q1.328-.835,2.629-1.7,2.6-1.708,5.1-3.53l.6-.443.482-.356q3.374-2.495,6.563-5.172l.09-.075q1.561-1.313,3.078-2.671l.09-.081a130.931,130.931,0,0,0,9.425-9.333,125.609,125.609,0,0,0,12.192-15.668h-5.833a1.265,1.265,0,0,1,0-2.531h-2.527a1.265,1.265,0,1,1,0-2.531h1.795a1.265,1.265,0,1,1,0-2.528H424.6a112.668,112.668,0,0,0,8.283-92.137H408.061a2.674,2.674,0,0,1,0-5.345h-5.342a2.671,2.671,0,0,1,0-5.342h3.817a2.674,2.674,0,0,1,0-5.345h19.416C403.682,65.446,355.47,36.12,299.583,36.12c-32.646,0-62.668,10.006-86.445,26.765h6.222a2.674,2.674,0,0,1,0,5.345h-3.808a2.671,2.671,0,1,1,0,5.342h5.342a2.674,2.674,0,1,1,0,5.345H194.308c-21.336,21.872-34.258,50.452-34.258,81.728a112.174,112.174,0,0,0,4.161,30.288l13.549-.023A1.271,1.271,0,0,1,179.026,192.176Z" transform="translate(-131.64 -34.652)"/><path class="b" d="M521.409,365.953c-1.247-.108-5.594-3.61-8.112-4.642-1.161-.476-1.887.529-2.336,1.75a31.812,31.812,0,0,0-4.487-2.632,1.283,1.283,0,0,0-1.038-.021c-1.621.7-1.968,4.941-1.968,4.941l.057.266c-.8.625-3.183,1.017-4.218,1.086a12.847,12.847,0,0,0-3.395.538c-.568.281-7.179,1.872-10.981,3.033s-13.622,6.943-13.622,6.943L462,379.308l-1.307-.251c-.416-1.5-2.318-1.481-4.547-.876-3.619-.664-7.23-1.182-8.4-.652,3.335-1.7,7.436-4.394,7.388-7.367-.066-4.056-8.094,1.633-11.133,3.933l-.26.2-.069-.257a19.733,19.733,0,0,1-6.943.751,10.423,10.423,0,0,0-7.254,2.33c-.425.221-4.75,1.678-5.085,1.735-.26.042-7.72.718-11.486,1.056-5.208-.47-12.727.35-13.14,1.128-.473.9-6.2,4.164-6.2,4.164l-1.962.514s-.233.6-.5,1.364a5.32,5.32,0,0,1-.485-.924,15.809,15.809,0,0,1-.694-2.441h0c-.024-.111-.051-.221-.078-.332a.4.4,0,0,0-.021-.081l-.072-.278-.018-.069a9.708,9.708,0,0,0-.353-1.056h0a5.614,5.614,0,0,0-.509-.99h0a3.5,3.5,0,0,0-1.131-1.125,6.1,6.1,0,0,0-2.531-.664,11.071,11.071,0,0,0-2.222-.1c-.637.06-1.262.233-1.9.272a14.713,14.713,0,0,1-3.051-.386,4.259,4.259,0,0,0-2.991.416,6.322,6.322,0,0,0-1.621,2.04,13.228,13.228,0,0,1-3.338,3.572c-.9.649-1.917,1.274-2.243,2.321s.126,2.061.326,3.093c.443,2.273-.272,4.768.523,6.88h0c.018.048.036.093.057.141.045.114.093.23.15.341h0a3.106,3.106,0,0,0,.167.3,2.263,2.263,0,0,0,.2.272,1.582,1.582,0,0,0,.236.233,1.439,1.439,0,0,0,.278.182,2.049,2.049,0,0,0,1.164.135l.215-.03.2-.036a6.066,6.066,0,0,0,.688-.165,2.664,2.664,0,0,0,.64-.284,1.445,1.445,0,0,0,.667-1.038,3.5,3.5,0,0,0,.042-.565v-.132l.045.138h0a8.893,8.893,0,0,0,16.194,1.244l.338-.114a20.933,20.933,0,0,1,3.326-.772h0a6.859,6.859,0,0,0,.413.724c3.682,5.74,15.189,5.938,15.189,5.938s12.716-.493,13.7-.751,3.918.191,4.765.978,4.577,1.113,5.788-.921,2.6-1.642,2.6-1.642a6.041,6.041,0,0,0,.64-1.092l.811.039a40.39,40.39,0,0,1,6.314.634c1.095.44,5.8.407,8.339-.664s10.469-5.611,10.469-5.611,4.929-1.5,5.806-1.795a17.3,17.3,0,0,0,3.171-2.489l4.726-1.831s4.992-2.692,7.1-2.973a8.5,8.5,0,0,0,4.014-2.124l13.386-6.234a6.951,6.951,0,0,1,2.692.135c1.2.374,8.988-.769,11.349-3.29,0,0,.087-.326.2-.858.108,0,.218-.021.335-.024.5.111.811.185.811.185a20.744,20.744,0,0,0,3.165,1.953c1.588.763,3.29,1.182,3.888-.126a2.341,2.341,0,0,0,.179-.634c1.538,1.092,6.712,4.457,6.859.449C530.194,370.347,522.654,366.06,521.409,365.953Z" transform="translate(-277.203 -261.869)"/><path class="c" d="M437.207,458.4a17.348,17.348,0,0,0-5.785.924,21.294,21.294,0,0,0-3.245,1.325c-4.953,2.495-.841-10.966-.841-10.966s1.379,0,3.036-.141c1.98-.159,4.355-.488,5.235-1.176C437.222,447.087,437.207,458.4,437.207,458.4Z" transform="translate(-317.852 -323.516)"/><path class="c" d="M631.257,390.646c.06,3.763-6.617,7.074-9.787,8.435-.987.422-1.639.655-1.639.655l-.691-4.331s.434-.35,1.134-.879C623.286,392.255,631.192,386.644,631.257,390.646Z" transform="translate(-453.408 -282.15)"/><path class="d" d="M621.47,411.456c-.987.422-1.639.655-1.639.655l-.691-4.331s.434-.35,1.134-.879Z" transform="translate(-453.408 -294.525)"/><path class="e" d="M513.31,412.689s13.089-1.176,13.433-1.232,4.609-1.5,5.028-1.708a10.3,10.3,0,0,1,7.155-2.3,19.46,19.46,0,0,0,6.85-.739l1.54,5.863-31.09,3.527Z" transform="translate(-379.233 -294.392)"/><path class="f" d="M513.31,412.689s13.089-1.176,13.433-1.232,4.609-1.5,5.028-1.708a10.3,10.3,0,0,1,7.155-2.3,19.46,19.46,0,0,0,6.85-.739l1.54,5.863-31.09,3.527Z" transform="translate(-379.233 -294.392)"/><path class="g" d="M819.05,366.347s.479-5.872,2.961-4.855,6.772,4.487,8,4.582,8.674,4.334,8.5,8.974-7.179-.751-7.179-.751-6.515-1.6-8.62-.879S819.05,366.347,819.05,366.347Z" transform="translate(-593.521 -262.617)"/><path class="d" d="M838.539,375.084c-.171,4.639-7.179-.751-7.179-.751s-6.512-1.6-8.621-.879c-.6.209-1.2-.3-1.675-1.14a22.136,22.136,0,0,1-1.872-5.456c-.069-.3-.1-.476-.1-.476s.479-5.872,2.961-4.852,6.769,4.472,8,4.579S838.706,370.445,838.539,375.084Z" transform="translate(-593.549 -262.643)"/><path class="d" d="M825.315,380.53c-.212.544-1.717,1.409-4.053,2.465a22.142,22.142,0,0,1-1.872-5.456c.44-.188.751-.407.8-.652C820.365,376.068,826.533,377.408,825.315,380.53Z" transform="translate(-593.759 -273.324)"/><path class="h" d="M665.15,392.237l14.313-3.242s9.691-5.7,13.46-6.847,10.269-2.713,10.831-2.991a12.562,12.562,0,0,1,3.347-.532c1.2-.075,4.247-.6,4.421-1.415s6.341.517,5.124,3.64-44.715,16.712-44.715,16.712Z" transform="translate(-485.655 -273.55)"/><path class="d" d="M665.15,392.237l14.313-3.242s9.691-5.7,13.46-6.847,10.269-2.713,10.831-2.991a12.562,12.562,0,0,1,3.347-.532c1.2-.075,4.247-.6,4.421-1.415s6.341.517,5.124,3.64-44.715,16.712-44.715,16.712Z" transform="translate(-485.655 -273.55)"/><path class="g" d="M861.012,377.958c-.17,4.642-7.179-.751-7.179-.751a37.382,37.382,0,0,0-7.278-1.065,4.487,4.487,0,0,0-1.343.185c-2.094.721-3.652-7.071-3.652-7.071s.03-.377.117-.921c.254-1.615.99-4.693,2.848-3.933,2.483,1.02,6.769,4.487,8,4.579S861.179,373.328,861.012,377.958Z" transform="translate(-609.298 -264.656)"/><path class="d" d="M846.525,384.046a4.487,4.487,0,0,0-1.343.186c-2.094.721-3.652-7.071-3.652-7.071s.03-.377.117-.921c1.747-.374,3.21-.709,3.21-.709C848.063,375.671,847.01,381.817,846.525,384.046Z" transform="translate(-609.277 -272.538)"/><path class="h" d="M667.037,385.12c-2.33,2.492-10.023,3.616-11.2,3.251a6.847,6.847,0,0,0-2.647-.138l-13.2,6.147a8.432,8.432,0,0,1-3.96,2.094c-2.076.281-7,2.931-7,2.931l-4.66,1.795a17.35,17.35,0,0,1-3.138,2.492c-.862.3-5.728,1.768-5.728,1.768s-7.816,4.487-10.326,5.537-7.143,1.086-8.226.652a39.506,39.506,0,0,0-6.225-.625c-1-.051-1.711-.078-1.711-.078l-2.465-18.638s2.037-.452,4.609-1.059a87.375,87.375,0,0,0,9.952-2.728c2.282-1.074,14.447,2.094,16.679,2.139S631.4,387.07,631.4,387.07s14.22-8.022,17.1-8.025,6.613-1.256,8.935-1.576,8.118-1.648,8.118-1.648C669.469,376,667.037,385.12,667.037,385.12Z" transform="translate(-430.566 -272.741)"/><path class="d" d="M432.337,456.81a8.746,8.746,0,0,1-.915,5.5,21.291,21.291,0,0,0-3.245,1.325c-4.953,2.495-.841-10.966-.841-10.966s1.379,0,3.036-.141A8.725,8.725,0,0,1,432.337,456.81Z" transform="translate(-317.852 -326.506)"/><path class="c" d="M405.957,449.707a8.773,8.773,0,0,1-16.924,4.337h0c-.054-.15-.1-.3-.15-.452a8.564,8.564,0,0,1-.257-1.119,8.776,8.776,0,0,1,17.151-3.619A7.891,7.891,0,0,1,405.957,449.707Z" transform="translate(-291.768 -319.355)"/><path class="d" d="M590.489,439.15a8.528,8.528,0,0,1,.236,7.936c-1-.051-1.711-.078-1.711-.078L586.55,428.37s2.037-.452,4.609-1.059l.266-.021S587.854,434.017,590.489,439.15Z" transform="translate(-430.566 -308.816)"/><path class="e" d="M490.992,438.071a8.319,8.319,0,0,1-.3,8.833s-1.373-.386-2.566,1.621-4.882,1.687-5.71.9-3.73-1.223-4.7-.966-13.511.739-13.511.739-11.349-.191-14.983-5.854a6.944,6.944,0,0,1-.407-.712s-2.869-5.366-2.958-6.563a7.129,7.129,0,0,1,.389-2.094c.38-1.271.9-2.56.9-2.56l1.935-.509s5.647-3.221,6.111-4.1,10.11-1.813,15.013-.829,14.169.858,14.169.858l7.574-.637S488.372,432.938,490.992,438.071Z" transform="translate(-331.954 -307.596)"/><path class="d" d="M559.61,492.7a22.726,22.726,0,0,0,3.29-1.588C564.644,490.072,559.61,492.7,559.61,492.7Z" transform="translate(-411.684 -353.379)"/><path class="d" d="M467,438.485s3.727,6.928,11.7,4.648a27.746,27.746,0,0,1,13.936-.6s7.454-.428,8.827-1a55.758,55.758,0,0,1,6.3-1.962c1.176-.239,2.815-.712,4.113-1.116s8.235-1.863,8.235-1.863-2.193-4.9-1.131-5.525c0,0-6.847,1.394-6.925.9s-7.75-.8-8.375-.3-7.478.993-8.076,1.217-11.187,1.155-11.187,1.155S468.525,427.582,467,438.485Z" transform="translate(-346.775 -311.465)"/><path class="c" d="M635,423.2s12.476-7.23,12.934-2.456-11.737,6.515-11.737,6.515Z" transform="translate(-464.524 -303.082)"/><path class="d" d="M467.5,435.365s3.739,6.928,11.7,4.648a27.77,27.77,0,0,1,13.939-.6s7.454-.428,8.824-1a55.594,55.594,0,0,1,6.3-1.962c1.173-.239,2.815-.712,4.113-1.116s8.235-1.863,8.235-1.863-2.2-4.9-1.134-5.525c0,0-6.844,1.394-6.925.9s-7.75-.8-8.375-.3-7.478.993-8.076,1.217-11.178,1.152-11.178,1.152S469.028,424.462,467.5,435.365Z" transform="translate(-347.126 -309.278)"/><path class="e" d="M466.67,436.505s3.73,6.928,11.7,4.648a27.762,27.762,0,0,1,13.939-.6s7.454-.428,8.824-1a55.63,55.63,0,0,1,6.3-1.965c1.173-.236,2.815-.712,4.113-1.116s8.235-1.861,8.235-1.861-2.2-4.9-1.134-5.525c0,0-6.844,1.394-6.925.9s-7.75-.8-8.375-.3-7.463.993-8.076,1.22-11.184,1.146-11.184,1.146S468.2,425.6,466.67,436.505Z" transform="translate(-346.544 -310.077)"/><path class="d" d="M553.6,440.47c-.117-.32,1.893-.168,5.86-.933s10.643-2.6,10.643-2.6S554.49,442.886,553.6,440.47Z" transform="translate(-407.467 -315.579)"/><path class="d" d="M498.387,441.38s.188.538-1.747,1.7" transform="translate(-367.55 -318.691)"/><path class="d" d="M512.752,444a2.142,2.142,0,0,1-1.412,2.536" transform="translate(-377.852 -320.527)"/><path class="d" d="M457.87,455.607l1.543,1.433s1.657.9,1.834,1.376,3.542.392,3.542.392l3.889,2.453-1.651-2.3a4.511,4.511,0,0,0,3.811-.811c1.893-1.412,5.65-5.085,5.65-5.085l6.781-5.276.114-3.4-5.336-.864L465.626,456.1l-2.815.4-2.991-.332Z" transform="translate(-340.376 -320.191)"/><path class="i" d="M456.73,454.812l1.543,1.433s1.654.9,1.834,1.376,3.545.392,3.545.392l3.889,2.453-1.651-2.3a4.5,4.5,0,0,0,3.808-.811c1.9-1.412,5.653-5.085,5.653-5.085l6.79-5.262.114-3.4-5.336-.864-12.434,12.581-2.815.4-2.991-.332Z" transform="translate(-339.577 -319.644)"/><path class="d" d="M454.717,462.251l-3.4,1.54a6.45,6.45,0,0,1-.4-.715s-2.872-5.363-2.961-6.563a7.053,7.053,0,0,1,.392-2.094Z" transform="translate(-333.419 -327.831)"/><path class="e" d="M452.587,461.581l-3.4,1.537a6.952,6.952,0,0,1-.407-.712s-2.869-5.366-2.958-6.563a7.132,7.132,0,0,1,.389-2.094Z" transform="translate(-331.926 -327.361)"/><path class="j" d="M405.721,448.845a1.585,1.585,0,0,1-.526.443c-.529.242-1.146,0-1.726.027s-1.167.344-1.768.392a4.606,4.606,0,0,1-1.256-.156,3.739,3.739,0,0,0-2.393.1,1.5,1.5,0,0,0-.766,2.013,2.287,2.287,0,0,1-2.187.763c-1.884-.266-3.464-1.887-5.384-.631-.835.553-.781,1.409-.763,2.237-.054-.15-.1-.3-.15-.452a8.573,8.573,0,0,1-.257-1.119,8.776,8.776,0,0,1,17.151-3.619Z" transform="translate(-291.712 -319.348)"/><path class="k" d="M376.313,441.677a3.655,3.655,0,0,1-1.31.443,2.465,2.465,0,0,1-1.555-.069,2.055,2.055,0,0,1-.865-.963c-1.107-2.2-.251-4.864-.721-7.278a6.372,6.372,0,0,1-.323-3.051c.308-.987,1.34-1.648,2.211-2.288a13.113,13.113,0,0,0,3.29-3.524,6.217,6.217,0,0,1,1.6-2.01,4.161,4.161,0,0,1,2.94-.41,14.489,14.489,0,0,0,3.009.377c.628-.036,1.244-.206,1.872-.266a10.567,10.567,0,0,1,2.193.1,6.03,6.03,0,0,1,2.495.652c1.307.79,1.816,2.393,2.157,3.889s.685,3.1,1.84,4.1a1.041,1.041,0,0,1,.413.514.9.9,0,0,1-.26.676l-1.364,1.813a2.016,2.016,0,0,1-.709.676c-.526.245-1.146,0-1.726.024s-1.164.35-1.768.395a4.487,4.487,0,0,1-1.256-.156,3.689,3.689,0,0,0-2.378.1,1.517,1.517,0,0,0-.766,2.013,2.285,2.285,0,0,1-2.187.763c-1.887-.263-3.467-1.887-5.384-.631C376.2,438.6,377.79,440.74,376.313,441.677Z" transform="translate(-279.793 -305.417)"/><g class="l" transform="translate(92.562 119.091)"><path d="M441.668,431.216a10.18,10.18,0,0,0,1.155,3.311,15.521,15.521,0,0,1-.682-2.393,8.7,8.7,0,0,0-1.041-2.785A11.79,11.79,0,0,1,441.668,431.216Z" transform="translate(-421.185 -429.35)"/><path d="M397.313,452.127l-.093-.087a1.589,1.589,0,0,1-.224.374l-1.364,1.813a2.041,2.041,0,0,1-.709.676c-.526.245-1.146,0-1.726.024s-1.164.35-1.768.395a4.487,4.487,0,0,1-1.256-.156,3.738,3.738,0,0,0-2.393.1,1.5,1.5,0,0,0-.766,2.013,2.283,2.283,0,0,1-2.187.763c-1.884-.263-3.464-1.887-5.384-.631-1.57,1.035.018,3.171-1.463,4.107a3.621,3.621,0,0,1-1.307.443,2.462,2.462,0,0,1-1.555-.069,1.666,1.666,0,0,1-.6-.535,4.389,4.389,0,0,0,.206.476,2.055,2.055,0,0,0,.864.963,2.465,2.465,0,0,0,1.555.069,3.657,3.657,0,0,0,1.31-.443c1.478-.936-.111-3.072,1.463-4.107,1.905-1.256,3.485.368,5.384.631a2.285,2.285,0,0,0,2.187-.763,1.514,1.514,0,0,1,.766-2.013,3.69,3.69,0,0,1,2.378-.1,4.488,4.488,0,0,0,1.256.156c.6-.045,1.164-.368,1.768-.395s1.2.221,1.726-.024a2.016,2.016,0,0,0,.709-.676l1.364-1.813a.9.9,0,0,0,.26-.676A1.041,1.041,0,0,0,397.313,452.127Z" transform="translate(-374.52 -445.253)"/></g><path class="d" d="M684.39,439.1s2.336,4.188,1.839,4.882S684.39,439.1,684.39,439.1Z" transform="translate(-499.14 -317.093)"/><path class="d" d="M710.07,435s1.472,2.575,1.173,3.087" transform="translate(-517.139 -314.219)"/><path class="d" d="M739.55,415.09s1.7,1.2,1.071,1.974" transform="translate(-537.801 -300.265)"/><path class="d" d="M745.28,412.9s2.163,2.644,1.445,3.365" transform="translate(-541.817 -298.73)"/><path class="d" d="M844.7,388.67s.329,4.424,1.63,4.047S844.7,388.67,844.7,388.67Z" transform="translate(-611.498 -281.748)"/><path class="m" d="M806.077,708.1s1.816-6.165-.341-10.7a9.718,9.718,0,0,1-.787-6.114,16.283,16.283,0,0,1,.864-2.866" transform="translate(-583.509 -491.837)"/><path class="n" d="M803.78,675.79a10.86,10.86,0,0,0,1.37,2.946,10.872,10.872,0,0,0,1.367-2.946,1.37,1.37,0,0,0-2.737,0Z" transform="translate(-582.818 -482.069)"/><path class="n" d="M795.7,687.9a10.878,10.878,0,0,0,2.752,1.729A10.876,10.876,0,0,0,798,686.41a1.371,1.371,0,0,0-2.3,1.5Z" transform="translate(-576.999 -489.992)"/><path class="n" d="M794.917,710.744a10.821,10.821,0,0,0,3.248.1,10.836,10.836,0,0,0-2.016-2.549,1.37,1.37,0,0,0-1.232,2.444Z" transform="translate(-576.118 -505.687)"/><path class="n" d="M799.582,729a10.807,10.807,0,0,0,3.183.652,10.978,10.978,0,0,0-1.555-2.851,1.368,1.368,0,0,0-1.627,2.2Z" transform="translate(-579.488 -518.549)"/><path class="n" d="M807.816,693.607a10.827,10.827,0,0,1-3.066,1.071,10.758,10.758,0,0,1,1.161-3.033,1.368,1.368,0,1,1,1.905,1.962Z" transform="translate(-583.498 -493.826)"/><path class="n" d="M812.2,714.264a10.925,10.925,0,0,1-3.248.1,10.83,10.83,0,0,1,2.016-2.548,1.37,1.37,0,0,1,1.232,2.444Z" transform="translate(-586.442 -508.154)"/><path class="n" d="M814.183,735.6a10.809,10.809,0,0,1-3.183.652,11.034,11.034,0,0,1,1.555-2.854,1.37,1.37,0,1,1,1.627,2.2Z" transform="translate(-587.879 -523.151)"/><path class="m" d="M954.239,687.1s1.816-6.165-.341-10.7a9.743,9.743,0,0,1-.787-6.117,16.3,16.3,0,0,1,.864-2.869" transform="translate(-687.353 -477.111)"/><path class="n" d="M951.936,654.5a10.86,10.86,0,0,0,1.37,2.946,10.871,10.871,0,0,0,1.367-2.946,1.37,1.37,0,1,0-2.737,0Z" transform="translate(-686.657 -467.058)"/><path class="n" d="M943.859,666.907a10.876,10.876,0,0,0,2.752,1.729,10.772,10.772,0,0,0-.455-3.216,1.371,1.371,0,0,0-2.3,1.5Z" transform="translate(-680.842 -475.28)"/><path class="n" d="M942.879,689.648a10.821,10.821,0,0,0,3.245.108,10.774,10.774,0,0,0-2.016-2.549,1.367,1.367,0,1,0-1.229,2.441Z" transform="translate(-679.76 -490.872)"/><path class="n" d="M947.8,708.079a10.808,10.808,0,0,0,3.183.652,11.031,11.031,0,0,0-1.555-2.854,1.37,1.37,0,0,0-1.627,2.2Z" transform="translate(-683.403 -503.907)"/><path class="n" d="M956,672.617a10.826,10.826,0,0,1-3.066,1.071,10.858,10.858,0,0,1,1.161-3.033A1.368,1.368,0,1,1,956,672.617Z" transform="translate(-687.355 -479.115)"/><path class="n" d="M960.388,693.206a10.821,10.821,0,0,1-3.248.1,10.846,10.846,0,0,1,2.016-2.545,1.367,1.367,0,1,1,1.232,2.441Z" transform="translate(-690.306 -493.378)"/><path class="n" d="M962.343,714.689a10.805,10.805,0,0,1-3.183.652,10.978,10.978,0,0,1,1.555-2.851,1.368,1.368,0,0,1,1.627,2.2Z" transform="translate(-691.721 -508.52)"/><path class="m" d="M837.528,685.1s1.816-6.165-.341-10.7a9.739,9.739,0,0,1-.787-6.117,16.285,16.285,0,0,1,.864-2.866" transform="translate(-605.553 -475.717)"/><path class="n" d="M835.23,652.8a10.859,10.859,0,0,0,1.37,2.946,10.871,10.871,0,0,0,1.367-2.946,1.37,1.37,0,0,0-2.737,0Z" transform="translate(-604.861 -465.956)"/><path class="n" d="M827.149,664.907a10.875,10.875,0,0,0,2.752,1.729,10.773,10.773,0,0,0-.455-3.216,1.371,1.371,0,1,0-2.3,1.5Z" transform="translate(-599.042 -473.878)"/><path class="n" d="M826.235,687.691a10.8,10.8,0,0,0,3.245.1,10.833,10.833,0,0,0-2.016-2.548,1.368,1.368,0,1,0-1.229,2.444Z" transform="translate(-598.028 -489.511)"/><path class="n" d="M831.032,706.009a10.807,10.807,0,0,0,3.183.652,10.973,10.973,0,0,0-1.555-2.851,1.368,1.368,0,1,0-1.627,2.2Z" transform="translate(-601.53 -502.436)"/><path class="n" d="M839.286,670.617a10.827,10.827,0,0,1-3.066,1.071,10.856,10.856,0,0,1,1.161-3.033,1.368,1.368,0,1,1,1.905,1.962Z" transform="translate(-605.555 -477.713)"/><path class="n" d="M843.648,691.274a10.921,10.921,0,0,1-3.248.1,10.912,10.912,0,0,1,2.016-2.549,1.37,1.37,0,0,1,1.232,2.444Z" transform="translate(-608.485 -492.04)"/><path class="n" d="M845.633,712.612a10.809,10.809,0,0,1-3.183.652,11.031,11.031,0,0,1,1.556-2.854,1.37,1.37,0,1,1,1.627,2.2Z" transform="translate(-609.921 -507.037)"/><path class="o" d="M946,713.5v.778l.09-.075q1.561-1.313,3.078-2.671l.09-.081a130.936,130.936,0,0,0,9.425-9.332c-3.192-5.552-10.667-5.582-12.01-5.54h-.209S945.981,706.57,946,713.5Z" transform="translate(-682.497 -497.549)"/><path class="p" d="M946,713.5v.778l.09-.075q1.561-1.313,3.078-2.671l.09-.081a130.936,130.936,0,0,0,9.425-9.332c-3.192-5.552-10.667-5.582-12.01-5.54h-.209S945.981,706.57,946,713.5Z" transform="translate(-682.497 -497.549)"/><path class="o" d="M839.48,646.169l.251,1.657h0l2.56,16.837.838,5.522.817,5.366q2.279-1.14,4.508-2.357l.069-.036.335-.185.87-.482q2.635-1.472,5.19-3.045l1.047-.649q1.328-.835,2.629-1.7,2.6-1.708,5.1-3.53l.6-.443.482-.356q3.374-2.495,6.563-5.172l.09-.075q1.561-1.313,3.078-2.671l-1.5-7.7q-.449-2.339-.742-4.7-.162-1.274-.269-2.554c-.021-.2-.039-.41-.054-.613-.514-6.422-2.094-19.763-6.524-22.9a3.347,3.347,0,0,0-2.991-.53,12.282,12.282,0,0,0-1.3.443,25.694,25.694,0,0,0-8.486,6.282,44.344,44.344,0,0,0-8.375,12.635l-4.487,10.113-.015.033-.042.093Z" transform="translate(-607.84 -440.879)"/><path class="p" d="M876,663.431l5.2-17.792s4.87,13.086,8.7,17.492l.482-.356-6.907-17.065s-2.261-9.724-.452-13.266c1.436-2.812,6.15-12.264,8.031-16.057a3.347,3.347,0,0,0-2.991-.529,12.262,12.262,0,0,0-1.3.443c-2.393,3.793-6.82,11.367-7.149,16.066a58.906,58.906,0,0,0,.526,12.309Z" transform="translate(-633.436 -440.879)"/><path class="o" d="M796.65,750.731q3.26-1.146,6.446-2.423,5.546-2.24,10.831-4.885,2.279-1.14,4.508-2.357l.069-.036-.174-1.1h0l-.188-1.2-.619-3.966s-2.88-12.455-5.926-18.74a11.713,11.713,0,0,0-1.768-2.821c-.045-.051-.093-.1-.141-.141h0a3.372,3.372,0,0,0-2.094-.509,4.423,4.423,0,0,0-2.575,1.212c-1.5,1.331-3.126,4-4.526,9.1C798.337,730.687,797.215,742.247,796.65,750.731Z" transform="translate(-577.821 -508.747)"/><path class="p" d="M818.2,807.92q5.546-2.24,10.831-4.885,2.279-1.14,4.508-2.357c-.015-.371-.051-.748-.1-1.134h0s-.38-2.094-4.4-1.935a6.876,6.876,0,0,0-.823.066,11.426,11.426,0,0,0-9.354,7.523A12.071,12.071,0,0,0,818.2,807.92Z" transform="translate(-592.925 -568.36)"/><path class="p" d="M828,718.939c.135-3.553-1.795-4.771-3.389-5.178a4.406,4.406,0,0,1,2.575-1.211,6.838,6.838,0,0,1,2.246,3.589l4.071,19.826S827.771,724.895,828,718.939Z" transform="translate(-597.418 -508.749)"/><path class="o" d="M892.2,787.508l-1.113,1.523,1.047-.649q1.328-.834,2.629-1.7l-1.7-.356Z" transform="translate(-644.012 -560.46)"/><path class="p" d="M894.59,777.772q1.328-.835,2.629-1.7,2.6-1.708,5.1-3.53a5.585,5.585,0,0,0-3.072-1.349s-3.987.272-4.594,5.7C894.626,777.176,894.6,777.466,894.59,777.772Z" transform="translate(-646.465 -549.85)"/><path class="d" d="M840.22,714.25l.09.275,8.375,25.4.7,2.112.87-.482a64.484,64.484,0,0,0-8.112-24.336c-.861-1.466-1.516-2.414-1.795-2.788-.066-.1-.108-.153-.126-.173Z" transform="translate(-608.358 -509.941)"/><path class="d" d="M944.957,713.532c.027.233.06.467.093.7q1.561-1.313,3.078-2.671l.09-.081L945.9,699.165l-.479-2.546A54.718,54.718,0,0,0,944.957,713.532Z" transform="translate(-681.455 -497.584)"/><path class="a" d="M574.161,93.475h3.817a2.674,2.674,0,0,1,0-5.345h30.917a2.674,2.674,0,0,1,0,5.345h-3.817a2.671,2.671,0,0,1,0,5.342h5.342a2.674,2.674,0,0,1,0,5.345H579.5a2.674,2.674,0,0,1,0-5.345h-5.342a2.671,2.671,0,0,1,0-5.342Z" transform="translate(-420.01 -71.105)"/><path class="a" d="M721.491,230.352h3.817a2.671,2.671,0,1,1,0-5.342h30.917a2.671,2.671,0,1,1,0,5.342h-3.817a2.671,2.671,0,0,1,0,5.342h5.351a2.674,2.674,0,0,1,0,5.345H726.833a2.674,2.674,0,0,1,0-5.345h-5.342a2.671,2.671,0,1,1,0-5.342Z" transform="translate(-523.271 -167.041)"/><path class="a" d="M575.035,664.351h1.795a1.265,1.265,0,0,1,0-2.531h14.657a1.265,1.265,0,1,1,0,2.531h-1.795a1.265,1.265,0,0,1,0,2.531h2.527a1.265,1.265,0,1,1,0,2.53H577.566a1.265,1.265,0,1,1,0-2.531h-2.531a1.265,1.265,0,0,1,0-2.531Z" transform="translate(-421.608 -473.194)"/><path class="a" d="M440.764,737.439h1.442a1.011,1.011,0,0,1,0-2.019h11.684a1.011,1.011,0,0,1,0,2.019h-1.442a1.011,1.011,0,0,1,0,2.019h2.019a1.011,1.011,0,0,1,0,2.019h-11.7a1.011,1.011,0,1,1,0-2.019h-2.019a1.011,1.011,0,1,1,0-2.019Z" transform="translate(-327.632 -524.778)"/><path class="a" d="M275.215,610.44h1.81a1.265,1.265,0,0,1,0-2.531h14.636a1.265,1.265,0,0,1,0,2.531h-1.795a1.265,1.265,0,1,1,0,2.531H292.4a1.265,1.265,0,1,1,0,2.53H277.746a1.265,1.265,0,1,1,0-2.531h-2.531a1.265,1.265,0,1,1,0-2.531Z" transform="translate(-211.47 -435.409)"/><path class="a" d="M702.035,742.67h1.795a1.265,1.265,0,1,1,0-2.531h14.657a1.265,1.265,0,1,1,0,2.531h-1.795a1.265,1.265,0,1,1,0,2.531h2.531a1.265,1.265,0,0,1,0,2.527H704.56a1.265,1.265,0,1,1,0-2.527h-2.524a1.265,1.265,0,0,1,0-2.531Z" transform="translate(-510.62 -528.086)"/><path class="q" d="M771.927,333.65a.849.849,0,0,0-.275-1.1.365.365,0,0,1-.072-.063h0a.428.428,0,0,1,.419-.7h0a.4.4,0,0,1,.09.036.852.852,0,0,0,1.1-.272.378.378,0,0,1,.063-.075h0a.428.428,0,0,1,.7.422h0a.558.558,0,0,1-.036.09.849.849,0,0,0,.275,1.1.489.489,0,0,1,.075.063h0a.428.428,0,0,1-.422.7h0a.3.3,0,0,1-.09-.036.856.856,0,0,0-1.1.275.365.365,0,0,1-.06.075h0a.428.428,0,0,1-.7-.422h0a.564.564,0,0,1,.036-.09Z" transform="translate(-560.172 -241.585)"/><path class="q" d="M1088.6,164.97a.846.846,0,0,0-.275-1.1.47.47,0,0,1-.072-.063h0a.428.428,0,0,1,.422-.7h0a.441.441,0,0,1,.087.036.85.85,0,0,0,1.1-.275.462.462,0,0,1,.063-.072h0a.428.428,0,0,1,.7.422h0a.3.3,0,0,1-.036.087.855.855,0,0,0,.275,1.1.512.512,0,0,1,.075.063h0a.428.428,0,0,1-.422.7h0a.371.371,0,0,1-.09-.036.853.853,0,0,0-1.1.275.743.743,0,0,1-.063.075h0a.428.428,0,0,1-.7-.422h0A.576.576,0,0,1,1088.6,164.97Z" transform="translate(-782.125 -123.361)"/><path class="q" d="M1093.471,618.022a.849.849,0,0,0-.275-1.1.357.357,0,0,1-.072-.063h0a.425.425,0,0,1,.419-.7h0a.3.3,0,0,1,.09.036.856.856,0,0,0,1.1-.275.36.36,0,0,1,.06-.075h0a.428.428,0,0,1,.7.422h0a.578.578,0,0,1-.036.09.849.849,0,0,0,.275,1.1.361.361,0,0,1,.072.063h0a.425.425,0,0,1-.407.688h0a.3.3,0,0,1-.09-.033.853.853,0,0,0-1.1.272.384.384,0,0,1-.063.075h0a.428.428,0,0,1-.7-.422h0A.573.573,0,0,1,1093.471,618.022Z" transform="translate(-785.535 -440.894)"/><path class="q" d="M113.3,63.913a.853.853,0,0,0-.275-1.1.361.361,0,0,1-.072-.063h0a.425.425,0,0,1,.419-.7h0a.4.4,0,0,1,.09.036.852.852,0,0,0,1.1-.275.491.491,0,0,1,.063-.075h0a.428.428,0,0,1,.7.422h0a.4.4,0,0,1-.036.09.853.853,0,0,0,.275,1.1.469.469,0,0,1,.075.06h0a.428.428,0,0,1-.422.7h0a.4.4,0,0,1-.09-.036.853.853,0,0,0-1.1.275.347.347,0,0,1-.06.072h0a.428.428,0,0,1-.7-.419h0A.4.4,0,0,1,113.3,63.913Z" transform="translate(-98.551 -52.529)"/><path class="q" d="M65.557,33.55a.85.85,0,0,0-.275-1.1.362.362,0,0,1-.072-.063h0a.428.428,0,0,1,.419-.7h0a.4.4,0,0,1,.09.036.852.852,0,0,0,1.1-.272.5.5,0,0,1,.06-.075h0a.428.428,0,0,1,.7.41h0a.443.443,0,0,1-.036.087.852.852,0,0,0,.275,1.11.362.362,0,0,1,.072.063h0a.425.425,0,0,1-.431.7h0a.3.3,0,0,1-.09-.036.855.855,0,0,0-1.1.275.38.38,0,0,1-.063.075h0a.428.428,0,0,1-.7-.422h0A.561.561,0,0,1,65.557,33.55Z" transform="translate(-65.09 -31.25)"/><path class="q" d="M445.927,254.092a.85.85,0,0,0-.275-1.1.365.365,0,0,1-.072-.063h0a.428.428,0,0,1,.419-.7h0a.4.4,0,0,1,.09.036.853.853,0,0,0,1.1-.272.365.365,0,0,1,.06-.075h0a.428.428,0,0,1,.7.422h0a.442.442,0,0,1-.036.087.852.852,0,0,0,.275,1.1.362.362,0,0,1,.072.063h0a.425.425,0,0,1-.419.7h0a.3.3,0,0,1-.09-.036.855.855,0,0,0-1.1.275.381.381,0,0,1-.063.075h0a.428.428,0,0,1-.7-.422h0A.566.566,0,0,1,445.927,254.092Z" transform="translate(-331.684 -185.822)"/><path class="q" d="M269.551,371.582a.85.85,0,0,0-.275-1.1.364.364,0,0,1-.072-.063h0a.425.425,0,0,1,.419-.7h0a.3.3,0,0,1,.09.036.856.856,0,0,0,1.1-.275.5.5,0,0,1,.06-.075h0a.428.428,0,0,1,.7.422h0a.562.562,0,0,1-.036.09.85.85,0,0,0,.275,1.1.361.361,0,0,1,.072.063h0a.425.425,0,0,1-.419.7h0a.3.3,0,0,1-.09-.036.855.855,0,0,0-1.1.275.512.512,0,0,1-.06.075h0a.428.428,0,0,1-.7-.422h0A.567.567,0,0,1,269.551,371.582Z" transform="translate(-208.064 -268.168)"/><path class="q" d="M545.148,217.526a.85.85,0,0,0-.4-1.059.378.378,0,0,1-.081-.054h0a.425.425,0,0,1,.335-.745h0a.324.324,0,0,1,.093.024.856.856,0,0,0,1.062-.4.473.473,0,0,1,.054-.081h0a.428.428,0,0,1,.745.338h0a.55.55,0,0,1-.027.093.852.852,0,0,0,.4,1.059.45.45,0,0,1,.078.054h0a.428.428,0,0,1-.335.745h0a.467.467,0,0,1-.093-.024.849.849,0,0,0-1.059.4.637.637,0,0,1-.054.081h0a.428.428,0,0,1-.745-.338h0a.351.351,0,0,1,.024-.093Z" transform="translate(-401.105 -160.072)"/><path class="q" d="M995.738,527.144a1.178,1.178,0,0,0,.658-1.427.643.643,0,0,1-.024-.132h0a.6.6,0,0,1,1.062-.392h0a.567.567,0,0,1,.066.117,1.178,1.178,0,0,0,1.427.658.639.639,0,0,1,.131-.027h0a.6.6,0,0,1,.392,1.065h0a.558.558,0,0,1-.117.066,1.2,1.2,0,0,0-.658,1.427.485.485,0,0,1,.027.132h0a.6.6,0,0,1-1.065.392h0a.441.441,0,0,1-.063-.117,1.179,1.179,0,0,0-1.427-.658.685.685,0,0,1-.132.027h0a.6.6,0,0,1-.392-1.065h0A.632.632,0,0,1,995.738,527.144Z" transform="translate(-717.122 -377.28)"/><path class="q" d="M386.791,565.014a1.2,1.2,0,0,0,.658-1.427.491.491,0,0,1-.027-.129h0a.6.6,0,0,1,1.065-.395h0a.643.643,0,0,1,.066.117,1.176,1.176,0,0,0,1.427.658.469.469,0,0,1,.129-.024h0a.6.6,0,0,1,.392,1.062h0a.537.537,0,0,1-.114.066,1.179,1.179,0,0,0-.658,1.427.639.639,0,0,1,.024.132h0a.6.6,0,0,1-1.062.392h0a.556.556,0,0,1-.066-.117,1.2,1.2,0,0,0-1.427-.658.645.645,0,0,1-.132.027h0a.6.6,0,0,1-.392-1.065h0A.563.563,0,0,1,386.791,565.014Z" transform="translate(-290.32 -403.82)"/><path class="q" d="M577.14,574.725a1.179,1.179,0,0,0,.658-1.427.69.69,0,0,1-.027-.132h0a.6.6,0,0,1,1.065-.392h0a.559.559,0,0,1,.066.117,1.179,1.179,0,0,0,1.427.655.643.643,0,0,1,.132-.024h0a.6.6,0,0,1,.392,1.062h0a.558.558,0,0,1-.117.066,1.179,1.179,0,0,0-.658,1.427.694.694,0,0,1,.027.132h0a.6.6,0,0,1-1.065.392h0a.557.557,0,0,1-.066-.117,1.2,1.2,0,0,0-1.427-.658.487.487,0,0,1-.132.027h0a.6.6,0,0,1-.392-1.062h0A.558.558,0,0,1,577.14,574.725Z" transform="translate(-423.734 -410.626)"/><circle class="a" cx="4.935" cy="4.935" r="4.935" transform="translate(31.524 25.972)"/><circle class="a" cx="4.935" cy="4.935" r="4.935" transform="translate(277.633 30.907)"/><circle class="a" cx="2.692" cy="2.692" r="2.692" transform="translate(57.099 3.712)"/><circle class="a" cx="2.692" cy="2.692" r="2.692" transform="translate(314.624 82.054)"/><circle class="a" cx="2.692" cy="2.692" r="2.692" transform="translate(38.703 219.86)"/><circle class="a" cx="2.692" cy="2.692" r="2.692" transform="translate(49.023 231.984)"/><circle class="a" cx="2.692" cy="2.692" r="2.692" transform="translate(28.832 239.291)"/></g></svg>