<svg xmlns="http://www.w3.org/2000/svg" xmlns:xlink="http://www.w3.org/1999/xlink" width="201.942" height="184" viewBox="0 0 201.942 184"><defs><style>.a{fill:#3182ce;}.b{fill:#514abf;}.c{fill:url(#a);}.d{fill:#3ad29f;}.e{fill:url(#b);}.f{opacity:0.2;}</style><linearGradient id="a" x1="0.5" y1="1" x2="0.5" gradientUnits="objectBoundingBox"><stop offset="0" stop-opacity="0.122"/><stop offset="0.551" stop-opacity="0.09"/><stop offset="1" stop-opacity="0.02"/></linearGradient><linearGradient id="b" x1="14.124" y1="-1.935" x2="14.124" y2="-2.759" gradientUnits="objectBoundingBox"><stop offset="0" stop-color="gray" stop-opacity="0.251"/><stop offset="0.535" stop-color="gray" stop-opacity="0.122"/><stop offset="1" stop-color="gray" stop-opacity="0.102"/></linearGradient></defs><g transform="translate(0.449)"><path class="a" d="M31.973,105.87,0,69.2,95.663,0l95.663,69.2L158.842,105.87Z" transform="translate(-0.261)"/><path class="b" d="M31.973,105.87,0,69.2,95.663,0l95.663,69.2L158.842,105.87Z" transform="translate(-0.261)"/><rect class="a" width="185.179" height="83" transform="translate(-0.449 72.482)"/><rect class="c" width="185.179" height="83" transform="translate(-0.449 72.482)"/><path class="a" d="M191.327,384.457H0V268l95.663,58.357L191.327,268Z" transform="translate(-0.261 -200.457)"/><path class="d" d="M306.163,71.7,285.679,55.99l-54.262,70.765L201.28,103.647l-15.707,20.484,40.376,30.914h0L236.3,162.8Z" transform="translate(-138.969 -41.532)"/><path class="e" d="M.947,114.531l-.768.375.088-.157L.2,114.77l.095-.07L10.63,96.307l5.283,4.5,4.533,4.2-1.3.635,1.463,2.581Z" transform="translate(-0.394 -71.439)"/><path class="a" d="M17.046,115.617l4.143,3.841L2.411,128.794,12.4,115.986Z" transform="translate(-2.05 -86.05)"/><path class="f" d="M17.046,115.617l4.143,3.841L2.411,128.794,12.4,115.986Z" transform="translate(-2.05 -86.05)"/><path class="a" d="M12.213,99.66l-9.8,17.3L17.046,103.78Z" transform="translate(-2.05 -73.926)"/><path class="a" d="M21.367,126.083,2.489,132.319l15.781-11.78Z" transform="translate(-2.108 -89.711)"/><path class="a" d="M675.078,34.442l-4.136,7.17,30.325,4.938-19.532-13.6Z" transform="translate(-499.775 -24.441)"/><path class="f" d="M675.078,34.442l-4.136,7.17,30.325,4.938-19.532-13.6Z" transform="translate(-499.775 -24.441)"/><path class="a" d="M691.94,8.293l21.209,19.968L686.959,16.152Z" transform="translate(-511.656 -6.152)"/><path class="a" d="M675.274,56.677l29.124.556-27.189-9.657Z" transform="translate(-502.988 -35.291)"/></g></svg>