<svg xmlns="http://www.w3.org/2000/svg" xmlns:xlink="http://www.w3.org/1999/xlink" width="320" height="261.885" viewBox="0 0 320 261.885"><defs><style>.a{opacity:0.5;}.b{fill:url(#a);}.c{fill:#fff;}.d,.k,.m{fill:#3182ce;}.d{opacity:0.3;}.e{fill:url(#b);}.f{fill:#f5f5f5;}.g{fill:#dbdbdb;}.h{fill:url(#c);}.i{fill:url(#d);}.j{fill:url(#e);}.k{opacity:0.4;}.l{fill:#3ad29f;}.n{fill:#fda57d;}.o{fill:#333;}.p{opacity:0.1;}.q{fill:#4d8af0;}.r{fill:#fdb797;}.s{fill:#be7c5e;}.t{fill:#f55f44;}</style><linearGradient id="a" x1="0.141" y1="1.023" x2="0.929" y2="-0.01" gradientUnits="objectBoundingBox"><stop offset="0" stop-color="gray" stop-opacity="0.251"/><stop offset="0.54" stop-color="gray" stop-opacity="0.122"/><stop offset="1" stop-color="gray" stop-opacity="0.102"/></linearGradient><linearGradient id="b" x1="0.5" y1="1" x2="0.5" y2="0" xlink:href="#a"/><linearGradient id="c" x1="-1.429" y1="1.019" x2="-0.642" y2="-0.015" xlink:href="#a"/><linearGradient id="d" x1="-2.26" y1="1" x2="-2.26" y2="0" xlink:href="#a"/><linearGradient id="e" x1="0.141" y1="1.022" x2="0.928" y2="-0.011" xlink:href="#a"/></defs><g transform="translate(0 -0.01)"><g class="a" transform="translate(197.74 0.01)"><path class="b" d="M828.654,63l-112.5.274a4.622,4.622,0,0,0-4.612,4.632l.494,210.415a4.622,4.622,0,0,0,4.652,4.608l112.5-.274a4.622,4.622,0,0,0,4.612-4.632L833.289,67.6A4.622,4.622,0,0,0,828.654,63Z" transform="translate(-711.54 -63)"/></g><rect class="c" width="118.461" height="213.822" rx="13.64" transform="translate(199.379 3.157) rotate(-0.14)"/><path class="d" d="M811.259,87.4a9.6,9.6,0,0,1-9.443,8.192l-40.92.095a9.6,9.6,0,0,1-9.474-8.144L729.75,87.6a4.5,4.5,0,0,0-4.49,4.51l.47,194.1a4.5,4.5,0,0,0,4.517,4.49l103.536-.25a4.5,4.5,0,0,0,4.49-4.51l-.47-194.1a4.5,4.5,0,0,0-4.51-4.49Z" transform="translate(-522.878 -79.101)"/><g class="a" transform="translate(225.129 23.435)"><path class="e" d="M861.517,166.744a34.512,34.512,0,1,0-53.768,28.645l.02.152a11.81,11.81,0,0,0,3.915,2.49l.044-.152c1.614,1.387,8.418,3.607,16.241,3.587h.169a31.7,31.7,0,0,0,15.053-3.431s.041-.091.105-.261a12.3,12.3,0,0,0,3.255-2.23q.027-.2.054-.393a34.474,34.474,0,0,0,14.911-28.408Z" transform="translate(-792.49 -132.234)"/></g><circle class="f" cx="33.477" cy="33.477" r="33.477" transform="translate(226.168 24.473)"/><rect class="g" width="26.398" height="1.651" rx="0.826" transform="translate(244.347 11.146) rotate(-0.86)"/><circle class="g" cx="0.991" cy="0.991" r="0.991" transform="translate(275.358 10.349) rotate(-0.86)"/><rect class="f" width="54.813" height="6.09" transform="translate(230.208 104.862)"/><rect class="f" width="79.174" height="6.09" transform="translate(218.027 117.043)"/><g class="a" transform="translate(0 0.01)"><path class="h" d="M132.266,63l112.5.274a4.622,4.622,0,0,1,4.612,4.632l-.494,210.415a4.622,4.622,0,0,1-4.652,4.608l-112.5-.274a4.622,4.622,0,0,1-4.612-4.632L127.631,67.6A4.622,4.622,0,0,1,132.266,63Z" transform="translate(-127.12 -63)"/></g><rect class="c" width="118.461" height="213.822" rx="13.64" transform="translate(120.1 216.977) rotate(-179.86)"/><path class="d" d="M167.744,87.4a9.6,9.6,0,0,0,9.443,8.192l40.917.1a9.6,9.6,0,0,0,9.474-8.144l21.672.054a4.5,4.5,0,0,1,4.49,4.51l-.47,194.1a4.5,4.5,0,0,1-4.514,4.487l-103.536-.25a4.5,4.5,0,0,1-4.49-4.51l.47-194.1a4.5,4.5,0,0,1,4.51-4.49Z" transform="translate(-136.125 -79.101)"/><g class="a" transform="translate(25.843 23.435)"><path class="i" d="M203.5,166.744a34.512,34.512,0,1,1,53.768,28.645l-.02.152a11.811,11.811,0,0,1-3.915,2.49l-.044-.152c-1.614,1.387-8.418,3.607-16.241,3.587h-.169a31.7,31.7,0,0,1-15.053-3.431s-.041-.091-.1-.261a12.3,12.3,0,0,1-3.255-2.23l-.054-.392A34.475,34.475,0,0,1,203.5,166.744Z" transform="translate(-203.5 -132.234)"/></g><circle class="f" cx="33.477" cy="33.477" r="33.477" transform="translate(26.879 24.473)"/><rect class="g" width="26.398" height="1.651" rx="0.826" transform="translate(75.625 12.792) rotate(-179.14)"/><circle class="g" cx="0.991" cy="0.991" r="0.991" transform="translate(42.629 12.296) rotate(-89.14)"/><rect class="f" width="54.813" height="6.09" transform="translate(89.792 110.952) rotate(180)"/><rect class="f" width="79.174" height="6.09" transform="translate(101.973 123.133) rotate(180)"/><g class="a" transform="translate(98.603 41.966)"><path class="j" d="M535.654,187l-112.5.274a4.622,4.622,0,0,0-4.612,4.632l.494,210.414a4.622,4.622,0,0,0,4.652,4.608l112.5-.274a4.622,4.622,0,0,0,4.612-4.632L540.289,191.6A4.622,4.622,0,0,0,535.654,187Z" transform="translate(-418.54 -187)"/></g><rect class="c" width="118.461" height="213.822" rx="13.64" transform="translate(100.243 45.114) rotate(-0.14)"/><path class="k" d="M518.259,211.4a9.6,9.6,0,0,1-9.443,8.191l-40.92.095a9.6,9.6,0,0,1-9.474-8.144l-21.672.054a4.5,4.5,0,0,0-4.49,4.51l.47,194.1a4.5,4.5,0,0,0,4.517,4.49l103.536-.25a4.5,4.5,0,0,0,4.49-4.51l-.47-194.1a4.5,4.5,0,0,0-4.51-4.49Z" transform="translate(-329.015 -161.145)"/><g class="a" transform="translate(125.992 65.391)"><path class="e" d="M568.517,290.744a34.512,34.512,0,1,0-53.768,28.645l.02.152a11.811,11.811,0,0,0,3.915,2.49l.044-.152c1.614,1.387,8.418,3.607,16.241,3.587h.169a31.7,31.7,0,0,0,15.053-3.431s.041-.091.1-.261a12.291,12.291,0,0,0,3.255-2.23l.054-.392A34.475,34.475,0,0,0,568.517,290.744Z" transform="translate(-499.49 -256.234)"/></g><circle class="f" cx="33.477" cy="33.477" r="33.477" transform="translate(127.031 66.429)"/><rect class="g" width="26.398" height="1.651" rx="0.826" transform="translate(145.207 53.099) rotate(-0.86)"/><circle class="g" cx="0.991" cy="0.991" r="0.991" transform="translate(176.218 52.302) rotate(-0.86)"/><rect class="f" width="54.813" height="6.09" transform="translate(131.071 146.818)"/><rect class="f" width="79.174" height="6.09" transform="translate(118.89 158.998)"/><path class="l" d="M413.542,620v15.06H333.227v4.984a1.056,1.056,0,0,1-1.529.944l-23.279-11.639a1.167,1.167,0,0,1-.051-2.061l23.685-13.324a.775.775,0,0,1,1.154.677l-.074,5.255Z" transform="translate(-246.65 -427.47)"/><path class="l" d="M696.63,620v15.06h80.315v4.984a1.056,1.056,0,0,0,1.529.944l23.279-11.639a1.168,1.168,0,0,0,.051-2.061l-23.685-13.324a.775.775,0,0,0-1.154.677l.074,5.255Z" transform="translate(-503.935 -427.47)"/><g class="a" transform="translate(161.523 180.315)"><circle class="e" cx="18.271" cy="18.271" r="18.271"/></g><circle class="m" cx="15.226" cy="15.226" r="15.226" transform="translate(164.568 183.36)"/><path class="n" d="M551.533,398.92s-7.975.653-5.867,15.185a11.46,11.46,0,0,0,3.8,2.416l4.487-15.185Z" transform="translate(-403.816 -285.251)"/><path class="n" d="M635.476,398.92s7.975.653,5.867,15.185a11.46,11.46,0,0,1-3.8,2.416l-4.487-15.185Z" transform="translate(-461.874 -285.251)"/><path class="o" d="M553.247,328.54s-3.8,11.044-5.867,10.009c0,0,19.963,17.256,37.618,0a52.6,52.6,0,0,0-7.593-10.009Z" transform="translate(-405.184 -238.684)"/><circle class="o" cx="14.84" cy="14.84" r="14.84" transform="translate(146.033 73.981)"/><path class="p" d="M583.352,398.92H557.469l-2.416,10.354s-1.418,4.794.338,6.9,18.254,6.9,30.371.338a13.5,13.5,0,0,0,.338-8.628c-1.38-4.832-.338-.338-.338-.338Z" transform="translate(-409.903 -285.251)"/><path class="p" d="M584.373,398.92H558.489l-2.416,10.354s-1.418,4.794.338,6.9,18.254,6.9,30.371.338a13.5,13.5,0,0,0,.338-8.628c-1.38-4.832-.338-.338-.338-.338Z" transform="translate(-410.578 -285.251)"/><path class="m" d="M583.8,398.92H557.919L555.5,409.274s-1.418,4.794.338,6.9,18.254,6.9,30.37.338a13.5,13.5,0,0,0,.338-8.628c-1.38-4.832-.338-.338-.338-.338Z" transform="translate(-410.201 -285.251)"/><path class="p" d="M460,310.55h10.354v8.273A5.177,5.177,0,0,1,465.177,324h0A5.177,5.177,0,0,1,460,318.823Z" transform="translate(-304.358 -205.468)"/><path class="n" d="M460,309.41h10.354v8.283a5.177,5.177,0,0,1-5.177,5.177h0A5.177,5.177,0,0,1,460,317.693V309.41Z" transform="translate(-304.358 -204.714)"/><path class="p" d="M587.22,374.385a14.888,14.888,0,0,0,10.354.027V373.14H587.22Z" transform="translate(-431.544 -268.194)"/><circle class="n" cx="14.84" cy="14.84" r="14.84" transform="translate(146.033 77.202)"/><path class="o" d="M560.64,297.354h28.3s-2.416-11.426-13.114-10.7S560.64,297.354,560.64,297.354Z" transform="translate(-413.957 -210.949)"/><ellipse class="n" cx="1.38" cy="2.588" rx="1.38" ry="2.588" transform="translate(144.957 88.821)"/><ellipse class="n" cx="1.38" cy="2.588" rx="1.38" ry="2.588" transform="translate(173.947 88.821)"/><path class="p" d="M560.64,298.494h28.3s-2.416-11.426-13.114-10.7S560.64,298.494,560.64,298.494Z" transform="translate(-413.957 -211.703)"/><path class="q" d="M839.533,272.92s-7.975.653-5.867,15.185a11.462,11.462,0,0,0,3.8,2.416l4.487-15.185Z" transform="translate(-594.37 -201.883)"/><path class="q" d="M923.476,272.92s7.975.653,5.867,15.185a11.457,11.457,0,0,1-3.8,2.416l-4.486-15.185Z" transform="translate(-652.429 -201.883)"/><circle class="o" cx="14.84" cy="14.84" r="14.84" transform="translate(243.478 31.348)"/><path class="q" d="M871.352,272.92H845.469l-2.416,10.354s-1.418,4.794.338,6.9,18.254,6.9,30.371.338a13.5,13.5,0,0,0,.338-8.628c-1.38-4.832-.338-.338-.338-.338Z" transform="translate(-600.458 -201.883)"/><path class="q" d="M872.373,272.92H846.489l-2.416,10.354s-1.418,4.794.338,6.9,18.254,6.9,30.37.338a13.5,13.5,0,0,0,.338-8.628c-1.38-4.832-.338-.338-.338-.338Z" transform="translate(-601.132 -201.883)"/><path class="q" d="M871.8,272.92H845.918L843.5,283.274s-1.418,4.794.338,6.9,18.254,6.9,30.37.338a13.5,13.5,0,0,0,.338-8.628c-1.38-4.832-.338-.338-.338-.338Z" transform="translate(-600.755 -201.883)"/><path class="p" d="M748,184.55h10.353v8.273A5.177,5.177,0,0,1,753.177,198h0A5.177,5.177,0,0,1,748,192.823Z" transform="translate(-494.913 -122.1)"/><path class="r" d="M748,183.41h10.353v8.283a5.177,5.177,0,0,1-5.177,5.177h0A5.177,5.177,0,0,1,748,191.693Z" transform="translate(-494.913 -121.346)"/><path class="p" d="M875.22,248.385a14.887,14.887,0,0,0,10.353.027V247.14H875.22Z" transform="translate(-622.099 -184.826)"/><circle class="r" cx="14.84" cy="14.84" r="14.84" transform="translate(243.478 34.569)"/><path class="p" d="M848.64,172.494h28.3s-2.416-11.426-13.115-10.7S848.64,172.494,848.64,172.494Z" transform="translate(-604.512 -128.335)"/><path class="o" d="M848.64,171.354h28.3s-2.416-11.426-13.115-10.7S848.64,171.354,848.64,171.354Z" transform="translate(-604.512 -127.581)"/><ellipse class="r" cx="1.38" cy="2.588" rx="1.38" ry="2.588" transform="translate(242.402 46.188)"/><ellipse class="r" cx="1.38" cy="2.588" rx="1.38" ry="2.588" transform="translate(271.392 46.188)"/><path class="o" d="M854.273,153.842a5.258,5.258,0,0,1,1.908-2.829,9.848,9.848,0,0,1,2.419-1.035,18.484,18.484,0,0,0,3.516-1.692,22.564,22.564,0,0,1,3.827-2.223c2.368-.883,5.038-.406,7.5.227a6.313,6.313,0,0,1,1.753.653,6.643,6.643,0,0,1,1.556,1.506l3.9,4.717a7.478,7.478,0,0,1,.971,1.353,4.7,4.7,0,0,1,.443,1.543,3.56,3.56,0,0,1-3.746,4.277,12.436,12.436,0,0,1-3.84-.694,75.992,75.992,0,0,0-12.333-2.781,34.792,34.792,0,0,0-6.277-.2c-.656.044-1.526.338-1.925-.338C853.6,155.767,854.094,154.414,854.273,153.842Z" transform="translate(-607.946 -117.628)"/><path class="s" d="M254.533,271.92s-7.975.653-5.867,15.185a11.46,11.46,0,0,0,3.8,2.416l4.487-15.185Z" transform="translate(-207.306 -201.221)"/><path class="s" d="M338.476,271.92s7.975.653,5.867,15.185a11.46,11.46,0,0,1-3.8,2.416l-4.487-15.185Z" transform="translate(-265.365 -201.221)"/><path class="o" d="M263.476,201.54s-.612,1.787-1.482,3.854c-1.9,4.524.267,21.895,4.811,23.746,5.1,2.077,11.8,3.407,18.765.87,6.053-2.206,7.917-21.993,3.641-26.794-.5-.565-1.015-1.127-1.573-1.671Z" transform="translate(-215.904 -154.655)"/><circle class="o" cx="14.84" cy="14.84" r="14.84" transform="translate(45.542 31.01)"/><path class="p" d="M286.353,271.92H260.469l-2.416,10.354s-1.418,4.794.338,6.9,18.254,6.9,30.37.338a13.5,13.5,0,0,0,.338-8.628c-1.38-4.832-.338-.338-.338-.338Z" transform="translate(-213.394 -201.221)"/><path class="p" d="M287.373,271.92H261.489l-2.416,10.354s-1.418,4.794.338,6.9,18.254,6.9,30.37.338a13.5,13.5,0,0,0,.338-8.628c-1.38-4.832-.338-.338-.338-.338Z" transform="translate(-214.069 -201.221)"/><path class="t" d="M286.8,271.92H260.919L258.5,282.274s-1.418,4.794.338,6.9,18.254,6.9,30.37.338a13.5,13.5,0,0,0,.338-8.628c-1.38-4.832-.338-.338-.338-.338Z" transform="translate(-213.691 -201.221)"/><path class="p" d="M163,183.55h10.354v8.273A5.177,5.177,0,0,1,168.177,197h0A5.177,5.177,0,0,1,163,191.823Z" transform="translate(-107.849 -121.439)"/><path class="s" d="M163,182.41h10.354v8.283a5.177,5.177,0,0,1-5.177,5.177h0A5.177,5.177,0,0,1,163,190.693Z" transform="translate(-107.849 -120.685)"/><path class="p" d="M290.22,247.385a14.888,14.888,0,0,0,10.354.027V246.14H290.22Z" transform="translate(-235.035 -184.164)"/><circle class="s" cx="14.84" cy="14.84" r="14.84" transform="translate(45.542 34.231)"/><path class="o" d="M263.64,170.354h28.3s-2.416-11.426-13.115-10.7S263.64,170.354,263.64,170.354Z" transform="translate(-217.448 -126.919)"/><ellipse class="s" cx="1.38" cy="2.588" rx="1.38" ry="2.588" transform="translate(44.466 45.85)"/><ellipse class="s" cx="1.38" cy="2.588" rx="1.38" ry="2.588" transform="translate(73.456 45.85)"/><path class="p" d="M263.64,171.494h28.3s-2.416-11.426-13.115-10.7S263.64,171.494,263.64,171.494Z" transform="translate(-217.448 -127.674)"/></g></svg>