<svg xmlns="http://www.w3.org/2000/svg" xmlns:xlink="http://www.w3.org/1999/xlink" width="161.891" height="154.122" viewBox="0 0 161.891 154.122"><defs><style>.a{fill:#e0e0e0;}.b,.l,.m,.n,.o{opacity:0.5;}.c{fill:url(#a);}.d{fill:#fafafa;}.e{fill:url(#b);}.f{fill:url(#c);}.g{fill:#3182ce;}.h{fill:url(#d);}.i{fill:#fff;}.j{fill:url(#f);}.k,.o{fill:#47e6b1;}.l{fill:#4d8af0;}.m{fill:#fdd835;}.n{fill:#f55f44;}</style><linearGradient id="a" x1="0.509" y1="0.997" x2="0.509" y2="-0.003" gradientUnits="objectBoundingBox"><stop offset="0" stop-color="gray" stop-opacity="0.251"/><stop offset="0.54" stop-color="gray" stop-opacity="0.122"/><stop offset="1" stop-color="gray" stop-opacity="0.102"/></linearGradient><linearGradient id="b" x1="0.813" y1="0.841" x2="0.813" y2="-0.159" xlink:href="#a"/><linearGradient id="c" x1="1.78" y1="0.849" x2="1.78" y2="-0.151" xlink:href="#a"/><linearGradient id="d" x1="0.5" y1="1" x2="0.5" y2="0" xlink:href="#a"/><linearGradient id="f" x1="0.5" y1="0.999" x2="0.5" y2="-0.001" xlink:href="#a"/></defs><rect class="a" width="86.262" height="119.186" transform="matrix(0.978, -0.21, 0.21, 0.978, 13.644, 26.744)"/><g class="b" transform="translate(15.493 10.923)"><rect class="c" width="83.347" height="115.158" transform="matrix(0.978, -0.21, 0.21, 0.978, 0, 17.485)"/></g><rect class="d" width="81.225" height="112.613" transform="matrix(0.978, -0.21, 0.21, 0.978, 16.707, 29.015)"/><rect class="e" width="40.295" height="9.761" transform="matrix(0.978, -0.21, 0.21, 0.978, 35.796, 19.926)"/><path class="f" d="M442.917,91.4a5.768,5.768,0,1,0,6.711,4.457A5.7,5.7,0,0,0,442.917,91.4Zm1.909,8.9a3.328,3.328,0,1,1,2.479-3.948,3.288,3.288,0,0,1-2.479,3.948Z" transform="translate(-389.423 -85.019)"/><rect class="g" width="39.446" height="9.33" transform="matrix(0.978, -0.21, 0.21, 0.978, 36.123, 19.427)"/><path class="g" d="M443.213,91.4a5.513,5.513,0,1,0,6.547,4.234A5.513,5.513,0,0,0,443.213,91.4Zm1.824,8.507a3.182,3.182,0,1,1,2.444-3.778A3.182,3.182,0,0,1,445.036,99.9Z" transform="translate(-389.719 -85.019)"/><rect class="a" width="86.262" height="119.186" transform="translate(50.904 23.077)"/><g class="b" transform="translate(52.363 25.092)"><rect class="h" width="83.347" height="115.158"/></g><rect class="i" width="81.225" height="112.613" transform="translate(53.423 25.941)"/><rect class="h" width="40.295" height="9.761" transform="translate(73.994 21.057)"/><path class="j" d="M643.953,118a5.769,5.769,0,1,0,5.633,5.768A5.7,5.7,0,0,0,643.953,118Zm0,9.1a3.328,3.328,0,1,1,3.249-3.328,3.288,3.288,0,0,1-3.249,3.312Z" transform="translate(-549.812 -106.471)"/><rect class="g" width="39.446" height="9.33" transform="translate(74.419 20.639)"/><path class="g" d="M644.443,118a5.513,5.513,0,1,0,5.513,5.513A5.513,5.513,0,0,0,644.443,118Zm0,8.695a3.2,3.2,0,1,0,0-.01Z" transform="translate(-550.301 -106.471)"/><g class="b" transform="translate(1.281 145.484)"><rect class="k" width="0.742" height="4.21" transform="translate(1.733)"/><rect class="k" width="0.742" height="4.21" transform="translate(4.21 1.735) rotate(90)"/></g><g class="b" transform="translate(87.385)"><rect class="k" width="0.742" height="4.21" transform="translate(1.733)"/><rect class="k" width="0.742" height="4.21" transform="translate(4.21 1.733) rotate(90)"/></g><path class="l" d="M948.632,825.3a.91.91,0,0,1-.507-1.1.435.435,0,0,0,.02-.1h0a.456.456,0,0,0-.819-.3h0a.442.442,0,0,0-.051.089.91.91,0,0,1-1.1.507.434.434,0,0,0-.1-.02h0a.456.456,0,0,0-.3.819h0a.434.434,0,0,0,.089.051.91.91,0,0,1,.507,1.1.442.442,0,0,0-.02.1h0a.456.456,0,0,0,.819.3h0a.439.439,0,0,0,.051-.089.91.91,0,0,1,1.1-.507.443.443,0,0,0,.1.02h0a.456.456,0,0,0,.3-.819h0A.443.443,0,0,0,948.632,825.3Z" transform="translate(-796.431 -672.811)"/><path class="m" d="M314.222,620.244a.91.91,0,0,1-.507-1.1.437.437,0,0,0,.02-.1h0a.456.456,0,0,0-.819-.3h0a.436.436,0,0,0-.051.089.91.91,0,0,1-1.1.507.439.439,0,0,0-.1-.02h0a.456.456,0,0,0-.3.819h0a.435.435,0,0,0,.089.051.91.91,0,0,1,.507,1.1.44.44,0,0,0-.02.1h0a.456.456,0,0,0,.819.3h0a.435.435,0,0,0,.051-.089.91.91,0,0,1,1.1-.507.438.438,0,0,0,.1.02h0a.456.456,0,0,0,.3-.819h0A.437.437,0,0,0,314.222,620.244Z" transform="translate(-287.246 -508.227)"/><path class="m" d="M842.632,120.924a.91.91,0,0,1-.507-1.1.436.436,0,0,0,.02-.1h0a.456.456,0,0,0-.819-.3h0a.438.438,0,0,0-.051.089.91.91,0,0,1-1.1.507.437.437,0,0,0-.1-.02h0a.456.456,0,0,0-.3.819h0a.436.436,0,0,0,.089.051.91.91,0,0,1,.507,1.1.439.439,0,0,0-.02.1h0a.456.456,0,0,0,.819.3h0a.436.436,0,0,0,.051-.089.91.91,0,0,1,1.1-.507.439.439,0,0,0,.1.02h0a.456.456,0,0,0,.3-.819h0A.436.436,0,0,0,842.632,120.924Z" transform="translate(-711.354 -107.467)"/><circle class="n" cx="1.486" cy="1.486" r="1.486" transform="translate(158.918 60.586)"/><circle class="n" cx="1.486" cy="1.486" r="1.486" transform="translate(44.057 145.893)"/><circle class="n" cx="1.486" cy="1.486" r="1.486" transform="translate(143.654 92.713)"/><circle class="l" cx="1.486" cy="1.486" r="1.486" transform="translate(15.714 17.532)"/><circle class="o" cx="1.486" cy="1.486" r="1.486" transform="translate(0 58.077)"/></svg>