<svg width="1440" height="688" viewBox="0 0 1440 688" fill="none" xmlns="http://www.w3.org/2000/svg">
<g clip-path="url(#clip0)">
<g opacity="0.5">
<path opacity="0.5" d="M787.579 163.007L502.009 293.312L681.991 688.011L967.56 557.706L787.579 163.007Z" fill="url(#paint0_linear)"/>
</g>
<path d="M785.268 167.573L506.964 294.562L682.968 680.538L961.272 553.548L785.268 167.573Z" fill="white"/>
<path d="M710.867 189.204L572.804 252.202L588.059 285.656L726.122 222.658L710.867 189.204Z" fill="url(#paint1_linear)"/>
<path d="M626.923 188.008C616.267 192.872 611.661 205.664 616.64 216.581C621.619 227.498 634.297 232.405 644.953 227.541C655.609 222.676 660.215 209.885 655.236 198.968C650.257 188.05 637.579 183.143 626.923 188.008ZM641.137 219.178C638.895 220.266 636.38 220.661 633.912 220.313C631.444 219.964 629.136 218.887 627.283 217.22C625.43 215.554 624.116 213.372 623.508 210.954C622.9 208.536 623.026 205.992 623.87 203.647C624.715 201.301 626.239 199.261 628.248 197.785C630.257 196.31 632.66 195.468 635.15 195.365C637.64 195.263 640.105 195.905 642.228 197.21C644.351 198.515 646.038 200.424 647.072 202.692C647.765 204.165 648.161 205.76 648.238 207.386C648.315 209.011 648.07 210.636 647.519 212.168C646.968 213.699 646.121 215.107 645.026 216.311C643.931 217.515 642.61 218.491 641.137 219.184V219.178Z" fill="url(#paint2_linear)"/>
<path d="M709.419 189.893L574.265 251.563L588.849 283.546L724.003 221.875L709.419 189.893Z" fill="#4D8AF0"/>
<path d="M627.584 189.466C623.847 191.17 620.699 193.945 618.538 197.44C616.378 200.934 615.301 204.991 615.446 209.098C615.59 213.204 616.949 217.176 619.349 220.51C621.75 223.844 625.085 226.391 628.933 227.829C632.781 229.266 636.969 229.53 640.967 228.587C644.965 227.644 648.593 225.537 651.393 222.531C654.194 219.525 656.04 215.755 656.699 211.7C657.358 207.644 656.799 203.484 655.095 199.746C652.809 194.733 648.627 190.835 643.468 188.907C638.309 186.979 632.595 187.18 627.584 189.466ZM641.174 219.27C639.019 220.253 636.62 220.575 634.282 220.194C631.944 219.814 629.77 218.748 628.038 217.133C626.305 215.517 625.089 213.423 624.546 211.117C624.002 208.81 624.154 206.394 624.983 204.174C625.812 201.954 627.28 200.03 629.202 198.645C631.124 197.259 633.413 196.475 635.781 196.391C638.149 196.307 640.488 196.927 642.503 198.173C644.518 199.419 646.119 201.235 647.102 203.391C648.42 206.282 648.536 209.579 647.424 212.555C646.312 215.532 644.064 217.945 641.174 219.264V219.27Z" fill="#4D8AF0"/>
<path d="M608.139 323.917L548.552 351.107L575.732 410.713L635.319 383.524L608.139 323.917Z" fill="url(#paint3_linear)"/>
<path d="M662.204 441.946L602.618 469.136L629.798 528.742L689.385 501.553L662.204 441.946Z" fill="url(#paint4_linear)"/>
<path d="M606.948 327.093L551.724 352.292L576.915 407.534L632.139 382.336L606.948 327.093Z" fill="#69F0AE"/>
<path d="M660.314 444.118L605.09 469.316L630.28 524.558L685.504 499.36L660.314 444.118Z" fill="#4D8AF0"/>
<path d="M726.752 293.03L651.057 327.57L653.466 332.854L729.162 298.314L726.752 293.03Z" fill="#E0E0E0"/>
<path d="M779.66 278.465L654.675 335.495L657.085 340.779L782.07 283.749L779.66 278.465Z" fill="#E0E0E0"/>
<path d="M774.465 290.406L658.283 343.419L660.693 348.703L776.874 295.69L774.465 290.406Z" fill="#E0E0E0"/>
<path d="M780.12 410.06L704.424 444.6L706.834 449.884L782.529 415.344L780.12 410.06Z" fill="#E0E0E0"/>
<path d="M833.025 395.489L708.04 452.519L710.45 457.803L835.435 400.773L833.025 395.489Z" fill="#E0E0E0"/>
<path d="M827.832 407.436L711.651 460.449L714.06 465.733L830.242 412.72L827.832 407.436Z" fill="#E0E0E0"/>
<path d="M577.898 369.738L592.119 374.358L596.798 346.979L603.718 348.872L595.934 382.72L574.487 373.316L577.898 369.738Z" fill="url(#paint5_linear)"/>
<path d="M579.711 369.377L592.076 373.39L596.142 349.583L602.156 351.231L595.389 380.662L576.74 372.489L579.711 369.377Z" fill="white"/>
<path d="M633.409 487.131L645.773 491.143L649.84 467.336L655.854 468.984L649.087 498.415L630.438 490.243L633.409 487.131Z" fill="white"/>
<path d="M870.803 489.892L694.227 570.464L721.074 629.34L897.65 548.768L870.803 489.892Z" fill="#E0E0E0"/>
<path d="M845.205 536.815C838.419 534.879 831.474 535.247 829.313 543.009C828.584 545.625 828.498 549.686 825.693 551.034C821.565 553.019 816.586 549.049 813.004 547.432C806.328 544.418 799.475 546.47 795.611 552.805C793.651 556.015 792.812 559.709 792.144 563.366C791.856 564.953 791.82 566.914 791.152 568.408C789.872 571.269 785.867 571.012 783.24 570.902C782.664 570.902 782.076 570.834 781.488 570.773C783.565 567.911 784.602 564.424 784.428 560.891C784.256 555.09 780.49 548.743 773.906 549.454C768.008 550.066 763.856 555.764 764.518 561.529C765.081 566.43 768.272 570.228 772.363 572.556C770.354 573.444 768.21 574.137 766.312 575.056C765.425 575.485 764.564 575.966 763.734 576.495C757.995 573.726 750.456 573.205 745.293 576.03C742.795 577.396 744.62 581.457 747.131 580.079C751.062 577.929 755.398 578.468 759.508 579.834L759.851 579.957C759.445 580.477 759.086 581.032 758.779 581.617C756.458 586.126 758.779 593.257 764.426 593.747C772.387 594.427 772.761 583.902 768.437 579.711C768.253 579.534 768.07 579.362 767.874 579.197C769.662 578.333 771.597 577.684 773.306 576.955C774.795 576.324 776.211 575.535 777.532 574.602L777.838 574.682C783.919 576.06 793.412 576.489 795.598 569.119C797.472 562.723 797.65 549.141 807.755 550.397C811.877 550.906 815.257 554.073 819.177 555.218C822.686 556.266 826.746 556.309 829.625 553.724C832.001 551.592 832.534 548.443 833.263 545.502C833.636 543.983 834.004 542.169 835.241 541.085C837.476 539.131 841.169 540.283 843.662 540.993C846.387 541.765 847.967 537.599 845.205 536.815ZM766.202 588.638C764.861 589.967 763.44 588.913 762.723 587.523C761.853 585.832 762.227 584.165 763.336 582.677C763.517 582.434 763.711 582.2 763.917 581.978C766.569 583.694 768.737 586.15 766.226 588.638H766.202ZM770.905 555.555C773.661 552.995 777.501 553.558 779.142 557.075C780.784 560.591 780.061 565.554 777.758 568.653C777.453 569.06 777.115 569.441 776.748 569.793C775.143 569.256 773.659 568.409 772.381 567.3C769.123 564.359 767.28 558.925 770.93 555.537L770.905 555.555Z" fill="#4D8AF0"/>
<path d="M881.932 298.826L832.497 318.106C823.2 317.414 803.639 314.89 784.225 305.731C762.613 295.537 737.852 295.561 716.858 306.239C668.476 307.397 641.848 301.197 627.639 295.328L631.388 287.634L581.279 268.091L456 211.925V442.127L499.844 461.67L523.361 405.234L575.007 429.127L584.923 403.923L618.833 429.096L621.142 431.038L617.963 434.34C615.049 437.419 613.425 441.498 613.425 445.738C613.425 449.978 615.049 454.057 617.963 457.136C619.373 458.628 621.073 459.815 622.958 460.627C624.843 461.439 626.873 461.858 628.926 461.858C630.978 461.858 633.008 461.439 634.893 460.627C636.778 459.815 638.478 458.628 639.888 457.136L638.149 458.974C635.234 462.053 633.61 466.132 633.61 470.372C633.61 474.612 635.234 478.691 638.149 481.77C639.559 483.261 641.259 484.449 643.143 485.261C645.028 486.073 647.059 486.492 649.111 486.492C651.163 486.492 653.194 486.073 655.079 485.261C656.964 484.449 658.663 483.261 660.074 481.77L670.118 471.325L663.222 478.493C660.307 481.571 658.683 485.65 658.683 489.891C658.683 494.131 660.307 498.21 663.222 501.289C664.632 502.78 666.331 503.968 668.216 504.78C670.101 505.591 672.132 506.01 674.184 506.01C676.236 506.01 678.267 505.591 680.152 504.78C682.037 503.968 683.736 502.78 685.147 501.289L695.062 490.978L690.891 495.315C688.854 497.466 687.718 500.316 687.718 503.28C687.718 506.243 688.854 509.093 690.891 511.244C691.876 512.285 693.063 513.114 694.379 513.681C695.696 514.248 697.113 514.54 698.546 514.54C699.98 514.54 701.397 514.248 702.714 513.681C704.03 513.114 705.217 512.285 706.202 511.244L712.816 504.37C724.177 512.671 733.369 518.73 737.871 520.298C756.629 526.805 756.629 513.774 756.629 513.774C781.684 526.798 794.214 500.749 794.214 500.749C825.534 513.774 825.534 481.207 825.534 481.207C833.361 486.634 839.007 484.147 842.951 479.369C848.322 472.887 848.978 463.74 845.291 456.401L875.226 428.729L888.173 455.206L939.819 431.314L963.336 483.467L997.969 467.998V240.204L881.932 298.826Z" fill="url(#paint6_linear)"/>
<path d="M873.616 419.374L819.097 467.845L776.699 389.073L873.616 364.837V419.374Z" fill="#BE7C5E"/>
<path d="M613.149 292.124C613.149 292.124 630.647 316.36 734.294 310.301L794.869 401.191L835.461 446.875C841.837 454.055 842.198 464.941 835.939 472.219C832.136 476.636 826.667 478.958 819.097 473.904C819.097 473.904 819.097 504.199 788.813 492.081C788.813 492.081 776.699 516.316 752.471 504.199C752.471 504.199 752.471 516.316 734.3 510.257C716.129 504.199 619.206 425.433 619.206 425.433L576.808 395.138L613.149 292.124Z" fill="#FDA57D"/>
<path d="M831.211 322.425C831.211 322.425 805.036 322.425 779.155 310.668C755.619 299.99 728.213 301.35 706.496 315.367C688.797 326.793 673.462 345.711 673.749 376.955C673.749 376.955 697.303 401.191 722.205 352.719H740.376C740.376 352.719 757.873 413.315 807.008 407.244C856.143 401.172 867.583 395.126 867.583 395.126L831.211 322.425Z" fill="#BE7C5E"/>
<path d="M672.187 442.069L670.221 440.103C664.909 434.789 656.297 434.789 650.985 440.103L636.906 454.186C631.594 459.499 631.594 468.115 636.906 473.428L638.872 475.395C644.184 480.709 652.796 480.709 658.108 475.395L672.187 461.312C677.499 455.998 677.499 447.383 672.187 442.069Z" fill="#BE7C5E"/>
<path d="M652.664 419.18L650.698 417.213C645.386 411.899 636.774 411.899 631.462 417.213L617.383 431.296C612.071 436.61 612.071 445.225 617.383 450.539L619.349 452.505C624.661 457.819 633.274 457.819 638.586 452.505L652.664 438.422C657.976 433.108 657.976 424.493 652.664 419.18Z" fill="#BE7C5E"/>
<path d="M699.441 457.212L697.475 455.246C692.163 449.932 683.551 449.932 678.239 455.246L661.133 472.357C655.821 477.671 655.821 486.286 661.133 491.599L663.099 493.566C668.411 498.88 677.023 498.88 682.335 493.566L699.441 476.455C704.753 471.141 704.753 462.526 699.441 457.212Z" fill="#BE7C5E"/>
<path d="M713.785 478.294L712.413 476.921C708.703 473.211 702.689 473.211 698.979 476.921L688.183 487.721C684.474 491.432 684.474 497.448 688.183 501.159L689.556 502.532C693.266 506.243 699.28 506.243 702.989 502.532L713.785 491.732C717.495 488.022 717.495 482.005 713.785 478.294Z" fill="#BE7C5E"/>
<path d="M934.185 431.492L879.672 455.727L825.154 322.425L873.616 304.248L934.185 431.492Z" fill="white"/>
<path d="M522.295 401.197L576.808 425.433L631.326 292.13L582.865 273.947L522.295 401.197Z" fill="white"/>
</g>
<rect x="875.085" y="304.499" width="676.277" height="197.371" transform="rotate(-23.9565 875.085 304.499)" fill="#4D8AF0"/>
<rect x="-41.4409" y="0.928223" width="676.808" height="197.371" transform="rotate(23.5265 -41.4409 0.928223)" fill="#333333"/>
<defs>
<linearGradient id="paint0_linear" x1="824.778" y1="622.857" x2="644.699" y2="228.203" gradientUnits="userSpaceOnUse">
<stop stop-color="#808080" stop-opacity="0.25"/>
<stop offset="0.54" stop-color="#808080" stop-opacity="0.12"/>
<stop offset="1" stop-color="#808080" stop-opacity="0.1"/>
</linearGradient>
<linearGradient id="paint1_linear" x1="87574.4" y1="-33269" x2="86658.3" y2="-35276.7" gradientUnits="userSpaceOnUse">
<stop stop-color="#808080" stop-opacity="0.25"/>
<stop offset="0.54" stop-color="#808080" stop-opacity="0.12"/>
<stop offset="1" stop-color="#808080" stop-opacity="0.1"/>
</linearGradient>
<linearGradient id="paint2_linear" x1="26201.2" y1="-6479.16" x2="24926.4" y2="-9272.91" gradientUnits="userSpaceOnUse">
<stop stop-color="#808080" stop-opacity="0.25"/>
<stop offset="0.54" stop-color="#808080" stop-opacity="0.12"/>
<stop offset="1" stop-color="#808080" stop-opacity="0.1"/>
</linearGradient>
<linearGradient id="paint3_linear" x1="35742.2" y1="8098.36" x2="32834.2" y2="1725.37" gradientUnits="userSpaceOnUse">
<stop stop-color="#808080" stop-opacity="0.25"/>
<stop offset="0.54" stop-color="#808080" stop-opacity="0.12"/>
<stop offset="1" stop-color="#808080" stop-opacity="0.1"/>
</linearGradient>
<linearGradient id="paint4_linear" x1="41621.9" y1="20805.3" x2="38713.7" y2="14431.7" gradientUnits="userSpaceOnUse">
<stop stop-color="#808080" stop-opacity="0.25"/>
<stop offset="0.54" stop-color="#808080" stop-opacity="0.12"/>
<stop offset="1" stop-color="#808080" stop-opacity="0.1"/>
</linearGradient>
<linearGradient id="paint5_linear" x1="16650.9" y1="4919.37" x2="15872.2" y2="3212.71" gradientUnits="userSpaceOnUse">
<stop stop-color="#808080" stop-opacity="0.25"/>
<stop offset="0.54" stop-color="#808080" stop-opacity="0.12"/>
<stop offset="1" stop-color="#808080" stop-opacity="0.1"/>
</linearGradient>
<linearGradient id="paint6_linear" x1="325432" y1="188530" x2="325432" y2="31473.2" gradientUnits="userSpaceOnUse">
<stop stop-color="#808080" stop-opacity="0.25"/>
<stop offset="0.54" stop-color="#808080" stop-opacity="0.12"/>
<stop offset="1" stop-color="#808080" stop-opacity="0.1"/>
</linearGradient>
<clipPath id="clip0">
<rect width="542" height="525" fill="white" transform="translate(456 163)"/>
</clipPath>
</defs>
</svg>
