<svg xmlns="http://www.w3.org/2000/svg" xmlns:xlink="http://www.w3.org/1999/xlink" width="332.012" height="288.407" viewBox="0 0 332.012 288.407"><defs><style>.a,.o,.x{opacity:0.1;}.b{fill:#3182ce;}.c{fill:url(#a);}.d{fill:#f6f7f9;}.e{fill:#dde1ec;}.f{fill:#e8eaf1;}.g{fill:#ff5252;}.h{fill:#ff0;}.i{fill:#69f0ae;}.j,.x{fill:#fff;}.k{fill:url(#b);}.l{fill:url(#c);}.m{fill:#e0a17e;}.n{fill:#f0f1f5;}.p{fill:#293158;}.q{opacity:0.02;}.r{fill:#463e3b;}.s{fill:#cd9494;}.t{opacity:0.05;}.u{fill:#ff7361;}.v{fill:none;stroke:#535461;stroke-miterlimit:10;}.w{fill:#febdd5;}.y{fill:#efc8c4;}.z{fill:#727a9c;}.aa{fill:#ffb9b9;}.ab{fill:#cbcdda;}.ac{fill:#4c4c78;}.ad{fill:#b96b6b;}</style><linearGradient id="a" x1="0.5" y1="1" x2="0.5" gradientUnits="objectBoundingBox"><stop offset="0" stop-color="gray" stop-opacity="0.251"/><stop offset="0.54" stop-color="gray" stop-opacity="0.122"/><stop offset="1" stop-color="gray" stop-opacity="0.102"/></linearGradient><linearGradient id="b" x1="0.501" y1="1" x2="0.501" y2="0" xlink:href="#a"/><linearGradient id="c" x1="0.704" y1="1" x2="0.704" y2="0" xlink:href="#a"/></defs><g transform="translate(12.024 24.942)"><g class="a" transform="translate(-12.024 30.484)"><path class="b" d="M73.134,131.505c3.1,5.622,1.381,12.92-1.982,18.371s-8.146,9.778-11.872,14.979c-7.408,10.376-9.323,26.762.018,35.288,2.012,1.837,4.5,3.291,5.727,5.768,1.693,3.418.44,7.535-.838,11.156l-.106.3c-4.829,13.661,2.285,28.8,15.618,33.087,7.378,2.372,14.036,6.218,18.965,12.435,4.307,5.435,6.8,12.141,9.636,18.539,5.135,11.558,11.763,22.609,20.923,31.025s21.111,13.994,33.311,13.534c27.866-1.048,48.385-31.674,76.224-33.286,2.006-.117,4.143-.038,5.821,1.115,2.367,1.628,3.093,4.824,4.088,7.6,5.272,14.706,21.144,21.485,35.357,26.635l26.707,9.686c14.507,5.258,29.742,10.6,44.916,8.159s29.991-15.441,29.332-31.456c-.54-13.154-10.986-24.731-9.618-37.822.947-9.046,7.439-16.645,8.525-25.675,1.132-9.4-3.791-18.422-9.457-25.821-16.3-21.3-39.539-35.336-62.215-48.876-15.973-9.54-32.027-19.119-49.223-25.973-42.391-16.854-88.983-16.129-134.142-20.728-7.766-.792-15.885-1.723-23-5.305-5.463-2.749-9.733-9.106-15.727-10.452-4.568-1.026-11.323,1.093-15.311,3.408C67.541,121.446,69.544,124.984,73.134,131.505Z" transform="translate(-52.988 -113.521)"/></g><g transform="translate(-18.062 -24.942)"><path class="c" d="M485.914,50.93H218.574a9.314,9.314,0,0,0-9.274,9.364V248.3a9.314,9.314,0,0,0,9.274,9.364h267.34a9.314,9.314,0,0,0,9.274-9.364V60.294a9.314,9.314,0,0,0-9.274-9.364Z" transform="translate(-163.589 -50.93)"/><path class="d" d="M496.617,110.81V286.022a9.194,9.194,0,0,1-9.194,9.194H222.444a9.194,9.194,0,0,1-9.194-9.194V110.81Z" transform="translate(-166.225 -90.891)"/><path class="e" d="M282.469,382.3v94.094H222.444a9.287,9.287,0,0,1-9.194-9.374V382.3Z" transform="translate(-166.225 -272.073)"/><rect class="e" width="115.366" height="3.243" transform="translate(136.794 41.37)"/><rect class="e" width="69.578" height="3.243" transform="translate(136.794 64.442)"/><rect class="e" width="23.435" height="3.243" transform="translate(221.877 64.442)"/><g class="a" transform="translate(68.294 145.377)"><rect class="b" width="23.435" height="3.243"/></g><rect class="e" width="23.435" height="3.243" transform="translate(221.877 94.726)"/><rect class="e" width="23.435" height="3.243" transform="translate(221.877 125.01)"/><rect class="e" width="23.435" height="3.243" transform="translate(221.877 74.538)"/><rect class="e" width="23.435" height="3.243" transform="translate(262.253 74.538)"/><rect class="e" width="23.435" height="3.243" transform="translate(221.877 84.63)"/><rect class="e" width="23.435" height="3.243" transform="translate(262.253 84.63)"/><rect class="e" width="23.435" height="3.243" transform="translate(262.253 103.378)"/><rect class="e" width="23.435" height="3.243" transform="translate(262.253 113.474)"/><rect class="e" width="23.435" height="3.243" transform="translate(262.253 135.105)"/><rect class="e" width="69.578" height="3.243" transform="translate(136.794 74.538)"/><rect class="e" width="69.578" height="3.243" transform="translate(136.794 84.63)"/><rect class="e" width="69.578" height="3.243" transform="translate(136.794 94.726)"/><rect class="e" width="69.578" height="3.243" transform="translate(136.794 104.822)"/><rect class="e" width="69.578" height="3.243" transform="translate(136.794 114.914)"/><rect class="e" width="69.578" height="3.243" transform="translate(136.794 125.01)"/><rect class="e" width="69.578" height="3.243" transform="translate(136.794 135.105)"/><rect class="b" width="69.219" height="92.291" transform="translate(47.025 19.739)"/><path class="f" d="M496.617,64.191A9.194,9.194,0,0,0,487.422,55H222.444a9.194,9.194,0,0,0-9.194,9.194V74.649H496.617Z" transform="translate(-166.225 -53.646)"/><circle class="g" cx="3.606" cy="3.606" r="3.606" transform="translate(54.595 7.481)"/><circle class="h" cx="3.606" cy="3.606" r="3.606" transform="translate(66.491 7.481)"/><circle class="i" cx="3.606" cy="3.606" r="3.606" transform="translate(78.389 7.481)"/><path class="j" d="M297,208.481a20.094,20.094,0,0,1-4.5,12.7c-.11.136-.22.269-.333.4h0a.542.542,0,0,0-.06.073,20.29,20.29,0,0,1-3.483,3.19l-.166.123c-.23.163-.462.333-.7.472l-.163.1-.349.216a1.774,1.774,0,0,1-.16.09,1.066,1.066,0,0,1-.136.083q-.768.449-1.583.828c-.06.033-.126.06-.19.09s-.136.067-.21.093-.216.1-.333.14a19.648,19.648,0,0,1-3.6,1.131,20.124,20.124,0,0,1-3.576.436H276.8a20.152,20.152,0,0,1-4.714-.542l-.289-.07q-1.018-.266-2-.619c-.4-.146-.788-.306-1.171-.476-.1-.043-.19-.083-.286-.13l-.289-.13-.253-.13h0l-.266-.136-.3-.156-.333-.19-.053-.03a20.267,20.267,0,0,1-3.918-2.9c-.1-.1-.2-.19-.3-.293s-.21-.206-.309-.313A20.188,20.188,0,1,1,297,208.481Z" transform="translate(-195.168 -142.595)"/><path class="k" d="M302.36,231.621a5.757,5.757,0,0,1-.2.888.817.817,0,0,1-.043.133c0-.126-.023-.259-.03-.4h0a22.575,22.575,0,0,1,.113-5.2c.283-1.3-1.776-.9-3.15.259h0a3.622,3.622,0,0,0-.958,1.2c-.03-.04-.06-.076-.093-.116a3.626,3.626,0,0,0-2.728-1.347,9.284,9.284,0,0,1-5.8-2.541c-.066-.269-.116-.536-.156-.8a2.21,2.21,0,0,0-.037-.253,5.013,5.013,0,0,0,1.54-2.6v-.04a5.025,5.025,0,0,0,.126-1.1,3.92,3.92,0,0,0-.017-.446.546.546,0,0,0-.017-.163c-.017-.053,0-.126-.027-.186a2.191,2.191,0,0,0,.243-.126,2.787,2.787,0,0,0,1.078-1.221v-.027a4.612,4.612,0,0,0,.213-.552h0a6.674,6.674,0,0,0,.276-1.663v-.216c0-.436-.086-.981-.512-1.071-.562-.12-.971.728-1.54.639a.865.865,0,0,1-.446-.269c-.386-.383-.645-.875-1.031-1.261a3.526,3.526,0,0,0-2.2-.935,8.316,8.316,0,0,0-2.422.223,4.078,4.078,0,0,0-1.251.426,1.49,1.49,0,0,0-.748,1.028,1.454,1.454,0,0,0,0,.283v.429a1.592,1.592,0,0,1-.023.183,1.52,1.52,0,0,1-.768.918c-.353.21-.745.356-1.081.6a2.831,2.831,0,0,0-1.041,1.663,4.393,4.393,0,0,0-.116,1.128,7.455,7.455,0,0,0,.057,1.025,11,11,0,0,0,.951,3.3,5.269,5.269,0,0,0,.472.832h0a2.055,2.055,0,0,0,.143.183,5.02,5.02,0,0,0,1.074.908l.229.156a.666.666,0,0,0,.569.146.606.606,0,0,0,.173-.1,1.33,1.33,0,0,0,.416-1.048v-.053a.33.33,0,0,1,0,.057.533.533,0,0,1,0,.077h.033a4.9,4.9,0,0,1,0,.509,1.86,1.86,0,0,1,0,.206v.116l-.053.047h0c-.11.093-.309.256-.585.472h0a17.588,17.588,0,0,1-3.739,2.225,5.322,5.322,0,0,0-3.064,3.4,11.94,11.94,0,0,1-1.454,3.15c-.16.233-.6,2-1.111,3.805.1.11.206.213.309.313s.2.2.3.293a20.268,20.268,0,0,0,3.918,2.9l.053.03.333.19.3.156c0-.25-.033-.479-.05-.7a3.293,3.293,0,0,0-.033-.373c.076-.126.143-.239.206-.333,0,.1.023.2.033.333h0c.037.333.073.742.113,1.211a3.426,3.426,0,0,0,.033.466c0-.163-.017-.333-.03-.466l.253.13.289.13c.093.047.186.086.286.13.382.17.775.333,1.171.476a20.464,20.464,0,0,0,2,.619l.289.07a20.156,20.156,0,0,0,4.72.556h.659a20.126,20.126,0,0,0,3.606-.449,19.644,19.644,0,0,0,3.6-1.131q.163-.066.333-.14c.073-.03.14-.06.21-.093s.13-.057.19-.09c-.333-1.168-.512-1.916-.512-1.916l.439-1.128.053-.136.133-.349h0a.381.381,0,0,0,.037.13h0a5.3,5.3,0,0,0,1.564,2.491,1.78,1.78,0,0,0,.16-.09l.349-.216.163-.1c.24-.156.469-.309.7-.472l.166-.123a20.294,20.294,0,0,0,3.483-3.19l.06-.073h0c.113-.133.223-.266.333-.4Zm-2.9,1.517a.362.362,0,0,1,.03.05l-.027-.023Z" transform="translate(-206.521 -158.543)"/><path class="l" d="M308.722,255.178v.027l.023.023C308.739,255.208,308.729,255.195,308.722,255.178Zm-20.344,9.979c-.033-.466-.067-.885-.1-1.244-.023-.253-.047-.479-.067-.665a.06.06,0,0,1,0-.027v-.133a7.652,7.652,0,0,0-.785,1.563l.053.03.333.19.3.156.266.136a3.433,3.433,0,0,0,.033.466c-.017-.16-.023-.313-.033-.462Zm4.427-19.017h0l.017.03h0a.078.078,0,0,1,0,.023.131.131,0,0,0-.017-.043Z" transform="translate(-215.73 -181.205)"/><path class="m" d="M304.411,235.93s-1.2,5.4,2.1,8.246-7.794,5.083-9.75,2.7,1.357-3.6,1.357-3.6,1.663-1.35,0-5.4Z" transform="translate(-221.545 -174.391)"/><path class="n" d="M306.8,272.082a20.129,20.129,0,0,1-3.576.436h-.659a20.155,20.155,0,0,1-4.71-.549l-.289-.07q-1.018-.266-2-.619l-.333-4.99,1.444-6.909.848-4.072.239-1.138.243.333.053.073.067.086,2.661,3.543,2.724-2.934.14-.153.748-.808.283-.3.133,1.028.479,3.7.888,6.816Z" transform="translate(-220.942 -186.457)"/><path class="o" d="M329.494,266.647c-.23.163-.462.333-.7.472l-.163.1-.349.216a1.773,1.773,0,0,1-.16.09,1.07,1.07,0,0,1-.136.083,5.349,5.349,0,0,1-1.593-2.348,3.63,3.63,0,0,1-.1-.353.33.33,0,0,1,0-.057l-.19.5-.582,1.44s.173.705.482,1.823q-.163.076-.333.14a19.649,19.649,0,0,1-3.6,1.131,20.123,20.123,0,0,1-3.576.436h-.183a33.071,33.071,0,0,1-.176-4.657l.439-8.372.223-4.225.123-2.329s.043.047.126.123.14.133.24.223h0a8.981,8.981,0,0,0,5.322,2.2,3.533,3.533,0,0,1,2.768,1.47,6.517,6.517,0,0,1,1.128,2.877l.1.915h0l.027.259.037.333Z" transform="translate(-236.209 -184.275)"/><path class="p" d="M329.967,266l-.166.123c-.23.163-.462.333-.7.472l-.163.1-.349.216a5.516,5.516,0,0,1-1.723-2.4h0a.914.914,0,0,1-.04-.12c-.037-.116-.07-.239-.1-.359l-.136.356-.186.482-.426,1.111s.2.8.542,2.029c-.07.033-.136.066-.21.093s-.216.1-.333.14a19.647,19.647,0,0,1-3.6,1.131,20.121,20.121,0,0,1-3.576.436,33.1,33.1,0,0,1-.21-4.963l.426-8.113.226-4.324.11-2.039.02-.422a.668.668,0,0,0,.057.057,9.011,9.011,0,0,0,5.655,2.491,3.533,3.533,0,0,1,2.741,1.434,6.5,6.5,0,0,1,1.158,2.914l.176,1.64v.023h0l.037.333Z" transform="translate(-236.516 -183.748)"/><path class="o" d="M285.14,253v.2l-.053.772-.186,2.641s-.11.762-.19,2.478c-.116,2.262-.186,6.18.083,12.208l-.289-.07q-1.018-.266-2-.619c-.4-.146-.788-.306-1.171-.476-.1-.043-.19-.083-.286-.13-.1-1.331-.213-2.146-.213-2.146a3.893,3.893,0,0,0-.226.333c-.057.09-.126.2-.2.333l-.017.03h0q-.1.166-.206.379a5.658,5.658,0,0,0-.246.542l-.333-.19-.053-.03a20.262,20.262,0,0,1-3.918-2.9c.536-1.886,1-3.782,1.164-4.025a11.563,11.563,0,0,0,1.414-3.084,5.226,5.226,0,0,1,2.994-3.326A12.142,12.142,0,0,0,285.134,253h.007Z" transform="translate(-207.862 -185.783)"/><path class="p" d="M284.483,252.613a17.988,17.988,0,0,1-4.261,2.684,5.226,5.226,0,0,0-2.994,3.326,11.564,11.564,0,0,1-1.414,3.084c-.163.243-.629,2.142-1.164,4.032.1.1.2.2.3.293a20.266,20.266,0,0,0,3.919,2.9l.053.03a7.614,7.614,0,0,1,.732-1.41l.017-.027c.116-.173.19-.266.19-.266s.03.22.073.615.1,1,.153,1.7l.289.13c.093.047.186.086.286.13.383.17.775.333,1.171.476a20.466,20.466,0,0,0,2,.619c-.273-5.968-.213-9.9-.1-12.218.086-1.869.2-2.7.2-2.7l.422-2.428.12-.685.057-.333Z" transform="translate(-207.201 -185.49)"/><path class="o" d="M304.927,241.786a4.926,4.926,0,0,1-2.159-.5,9.7,9.7,0,0,0-.689-2.5l6.294-1.946a12.047,12.047,0,0,0-.13,3.659A4.929,4.929,0,0,1,304.927,241.786Z" transform="translate(-225.507 -174.999)"/><circle class="m" cx="4.946" cy="4.946" r="4.946" transform="translate(74.474 56.595)"/><g class="a" transform="translate(88.867 80.279)"><path d="M339.645,296.485c-.389-1.367-.605-2.265-.605-2.265l.748-1.949a4.207,4.207,0,0,0,.256.8l.017.043-.426,1.111s.2.8.542,2.029c-.07.033-.136.067-.21.093S339.752,296.441,339.645,296.485Z" transform="translate(-339.04 -292.27)"/></g><path class="m" d="M349.956,262.409a29.1,29.1,0,0,1,0-6.447c.449-2.1-5.246.3-4.048,3.147a24.473,24.473,0,0,0,2.4,4.5Z" transform="translate(-254.645 -187.228)"/><path class="o" d="M351.611,276.888a20.3,20.3,0,0,1-3.483,3.19l-.166.123c-.229.163-.462.333-.7.472a14.054,14.054,0,0,1-1.43-2.039l-.043-.076,1.2-6.3.126.13c.053.05.123.116.206.183h.017c.622.532,1.936,1.331,2.568-.526a5.6,5.6,0,0,0,.23-1l.123.459h0l.073.269,1.331,5.02h0Z" transform="translate(-254.677 -197.829)"/><path class="p" d="M351.611,277.5a20.291,20.291,0,0,1-3.483,3.19l-.166.123c-.23.163-.462.333-.7.472l-.163.1a14.513,14.513,0,0,1-1.311-1.923l.043-.223,1.158-6.074s.06.07.163.166l.206.183a3.293,3.293,0,0,0,.3.226c.689.472,1.736.828,2.269-.832a5.615,5.615,0,0,0,.213-.945l.153.566Z" transform="translate(-254.677 -198.443)"/><path class="q" d="M351.611,277.5a20.291,20.291,0,0,1-3.483,3.19l-.166.123c-.23.163-.462.333-.7.472l-.163.1a14.513,14.513,0,0,1-1.311-1.923l.043-.223,1.158-6.074s.06.07.163.166l.206.183a3.293,3.293,0,0,0,.3.226c.689.472,1.736.828,2.269-.832a5.615,5.615,0,0,0,.213-.945l.153.566Z" transform="translate(-254.677 -198.443)"/><path class="o" d="M289.757,294.79l-.017.027v-.05a3.647,3.647,0,0,1,.569-1.367s.223,1.48.422,3.7c-.1-.043-.19-.083-.286-.13l-.289-.13c-.05-.715-.1-1.3-.153-1.7s-.073-.615-.073-.615S289.873,294.618,289.757,294.79Z" transform="translate(-217.272 -212.745)"/><path class="o" d="M298.356,220.124a1.357,1.357,0,0,1,.848-.153.968.968,0,0,1,.333.233,2.973,2.973,0,0,0,1.3.911,2.515,2.515,0,0,0,.975-.043,4.657,4.657,0,0,0,1.6-.489,4.059,4.059,0,0,0,1.54-3.4c.023-.436-.067-1-.5-1.091-.546-.116-.945.712-1.5.622a.835.835,0,0,1-.432-.263c-.376-.376-.632-.858-1-1.237a3.429,3.429,0,0,0-2.142-.918,8.009,8.009,0,0,0-2.358.223,3.874,3.874,0,0,0-1.214.416,1.46,1.46,0,0,0-.732,1c-.037.289.04.589-.017.875a1.47,1.47,0,0,1-.745.9,11,11,0,0,0-1.051.585,2.784,2.784,0,0,0-1.015,1.617,5.476,5.476,0,0,0-.053,1.939,10.737,10.737,0,0,0,.925,3.233,4.581,4.581,0,0,0,.6,1,5.591,5.591,0,0,0,1.214,1,.738.738,0,0,0,.609.183.528.528,0,0,0,.17-.1,1.522,1.522,0,0,0,.333-1.54,8.657,8.657,0,0,1-.386-1.61.775.775,0,0,1,.086-.449,1.993,1.993,0,0,1,.3-.3,1.81,1.81,0,0,0,.333-.562,5.5,5.5,0,0,0,.516-1.617,2.179,2.179,0,0,0-.289-1.331A1.72,1.72,0,0,0,298.356,220.124Z" transform="translate(-218.876 -159.946)"/><path class="r" d="M298.356,219.6a1.357,1.357,0,0,1,.848-.153.968.968,0,0,1,.333.233,2.973,2.973,0,0,0,1.3.911,2.515,2.515,0,0,0,.975-.043,4.657,4.657,0,0,0,1.6-.489,4.059,4.059,0,0,0,1.54-3.4c.023-.436-.067-1-.5-1.091-.546-.116-.945.712-1.5.622a.835.835,0,0,1-.432-.263c-.376-.376-.632-.858-1-1.237a3.43,3.43,0,0,0-2.142-.918,8.011,8.011,0,0,0-2.358.223,3.875,3.875,0,0,0-1.214.416,1.46,1.46,0,0,0-.732,1c-.037.289.04.589-.017.875a1.47,1.47,0,0,1-.745.9,10.99,10.99,0,0,0-1.051.585,2.784,2.784,0,0,0-1.015,1.617,5.476,5.476,0,0,0-.053,1.939,10.737,10.737,0,0,0,.925,3.233,4.579,4.579,0,0,0,.6,1,5.592,5.592,0,0,0,1.214,1,.738.738,0,0,0,.609.183.528.528,0,0,0,.17-.1,1.522,1.522,0,0,0,.333-1.54,8.657,8.657,0,0,1-.386-1.61.775.775,0,0,1,.086-.449,1.994,1.994,0,0,1,.3-.3,1.809,1.809,0,0,0,.333-.562,5.5,5.5,0,0,0,.516-1.617,2.179,2.179,0,0,0-.289-1.331A1.72,1.72,0,0,0,298.356,219.6Z" transform="translate(-218.876 -159.599)"/></g><g transform="translate(-23 9)"><ellipse class="s" cx="7.368" cy="2.706" rx="7.368" ry="2.706" transform="translate(44.105 160.251)"/><ellipse class="t" cx="3.759" cy="1.381" rx="3.759" ry="1.381" transform="translate(47.714 161.275)"/><path class="u" d="M202.87,606s8.12,4.51,14.737.6c0,0-.9,15.641-5.414,17.144h-6.011S201.068,613.207,202.87,606Z" transform="translate(-158.768 -443.637)"/><path class="b" d="M183.354,482.742c2.068,7.556-6.748,29.078-6.748,29.078S158.063,497.78,156,490.227a14.182,14.182,0,1,1,27.358-7.485Z" transform="translate(-125.519 -349.045)"/><path class="o" d="M183.354,482.742c2.068,7.556-6.748,29.078-6.748,29.078S158.063,497.78,156,490.227a14.182,14.182,0,1,1,27.358-7.485Z" transform="translate(-125.519 -349.045)"/><path class="v" d="M191.45,474.17s11.542,17.425,10.674,39.012" transform="translate(-150.961 -350.368)"/><path class="b" d="M238.426,553.5s-10.478-5.7-9.141,15.325c0,0,8.731-.313,11.829-7.436a6.178,6.178,0,0,0-2.533-7.8Z" transform="translate(-177.645 -405.995)"/><path class="v" d="M238.884,555.32s-1.351,10.911-9.313,15.289" transform="translate(-177.93 -407.781)"/><path class="t" d="M224.891,608.518c-.293,3.6-1.553,14.772-5.33,16.032H214.17c.173.383.278.6.278.6h6.017c4.508-1.506,5.411-17.153,5.411-17.153A10.949,10.949,0,0,1,224.891,608.518Z" transform="translate(-167.035 -445.052)"/></g><rect class="e" width="61.184" height="35.508" transform="translate(125.806 138.301)"/><path class="c" d="M707.286,213.657a2.585,2.585,0,0,0,0-.345c-.105-1.427-1.463-2.46-2.808-3.01a19.823,19.823,0,0,1-4.04-1.653c-2.012-1.41-2.633-4.045-2.814-6.456-.056-.749-.079-1.5-.082-2.249s.047-1.582.117-2.372a39.552,39.552,0,0,0,.293-3.981,7.651,7.651,0,0,0-.7-3.642c-1.193-2.358-3.873-3.563-6.353-4.589a6.686,6.686,0,0,0-6.16-.181,49.707,49.707,0,0,1-5.011,1.656,22.676,22.676,0,0,0-2.925.389c-1.819.667-2.208,2.3-2.179,4.1v.339c-.181-.167-.369-.325-.559-.477l-.111-.088a6.765,6.765,0,0,0-.623-.448l-.105-.067a10.487,10.487,0,0,0-1.4-.763l-.073-.032q-.366-.161-.743-.293l-.047-.018a10.664,10.664,0,0,0-1.6-.421h0a10.639,10.639,0,0,0-9.512,2.989l-2.01,2.048h0c-9.135-2.048-9.545,5.888-9.545,5.888l.067-.015-.023.056a28.2,28.2,0,0,0,.787,2.972l-70.544,72.054-7.131,22.1,4-1.427,18.294-6.535,65.5-66.914a122.5,122.5,0,0,1,10,8.152s-3.159,1.67-1.989,9.322c1.43,9.36-.72,22.684-.72,22.684v8.617l.4-.111c-.05.293-.1.585-.152.921a49.165,49.165,0,0,0-.252,13.081c1.082,9.144,5.405,21.628,5.405,21.628a39.459,39.459,0,0,1,1.983,7.912,7.38,7.38,0,0,0,.462,2.033,16.163,16.163,0,0,1,1.264,6.1,43.3,43.3,0,0,0,2.779,15.427,41.174,41.174,0,0,1,2.706,9.068c-1.3,1.714-2.989,3.583-4.326,3.77-2.522.351-7.389.7-4.145,4.923a2.981,2.981,0,0,0,.377.4c-2.463.4-5.172,1.275-2.539,4.7,3.244,4.221,22.345,2.287,22.345,2.287s.123-2.34,0-4.92c1.34-.094,2.167-.178,2.167-.178s.541-10.2-1.8-11.431a4.943,4.943,0,0,0-1.264.31c-.252-1.41-.445-3.162-.565-4.461l.927-.07v-15.3s-1.082-9.495-5.046-13.716a8.528,8.528,0,0,1-1.3-1.755c.029-1.22.032-2.925.017-4.894a4.073,4.073,0,0,1,.559-.737s2.162-2.633,9.55-19.344c4.358-9.855,3.387-15.544,1.857-18.557-.293-1.071-1.053-4.127-2.048-9.755a43.188,43.188,0,0,1,.181-14.245s4.68-12.133,6.848-17.056a8.01,8.01,0,0,0,.608-3.759,3.6,3.6,0,0,0,1.079-1.755l2.22-5.923a4.746,4.746,0,0,0,.433-1.989Zm-30.152-10.665a9.007,9.007,0,0,0,.8,1.071h0s-.331-.345-.878-.9C677.087,203.106,677.11,203.047,677.134,202.992Zm-10.916,12.16,6.11-6.242c2.112,1.931,4.373,3.9,6.263,5.525a18.083,18.083,0,0,1-.714,2.448,3.322,3.322,0,0,1-3.218-.178C672.574,215.579,668.724,215.245,666.217,215.151Z" transform="translate(-419.807 -145.441)"/><path class="w" d="M870.39,210.5s-4.531,2.615-3.136,6.289c0,0,4.707,1.4,6.622,4.882s16.734,16.035,16.734,16.035l10.805-5.414s-3.759-5.019-15.649-8.524c0,0-7.02-7.515-9.451-8.907A52.022,52.022,0,0,1,870.39,210.5Z" transform="translate(-628.897 -163.824)"/><path class="t" d="M870.39,210.5s-4.531,2.615-3.136,6.289c0,0,4.707,1.4,6.622,4.882s16.734,16.035,16.734,16.035l10.805-5.414s-3.759-5.019-15.649-8.524c0,0-7.02-7.515-9.451-8.907A52.022,52.022,0,0,1,870.39,210.5Z" transform="translate(-628.897 -163.824)"/><path class="b" d="M585.937,289.728l78.621-82.3a10.144,10.144,0,0,1,14.333-.328h0a10.144,10.144,0,0,1,.328,14.333L600.61,303.745l-21.57,7.9Z" transform="translate(-425.177 -159.432)"/><path class="x" d="M674.578,205.848h0a10.144,10.144,0,0,1,.328,14.333l-78.618,82.3-16.193,5.923L579,311.847l21.57-7.9L679.2,221.675a10.144,10.144,0,0,0-.328-14.333h0a10.1,10.1,0,0,0-5.941-2.753A10.187,10.187,0,0,1,674.578,205.848Z" transform="translate(-425.149 -159.643)"/><path class="y" d="M532.937,445.45l14.672,14.014-17.7,6.476-3.873,1.416,2.454-7.79Z" transform="translate(-372.177 -315.152)"/><path class="z" d="M581.466,544.63a4.314,4.314,0,0,1,1.509.606,1.719,1.719,0,0,1,.772,1.685,4.044,4.044,0,0,1-.608,1.1,3.443,3.443,0,0,0-.254,2.984L579,552.422Z" transform="translate(-425.149 -400.218)"/><path class="aa" d="M959.56,718.779s.524,7.67,1.4,8.541-7.845,1.4-7.845,1.4l1.22-9.945Z" transform="translate(-689.828 -523.421)"/><path class="t" d="M959.56,718.779s.524,7.67,1.4,8.541-7.845,1.4-7.845,1.4l1.22-9.945Z" transform="translate(-689.828 -523.421)"/><path class="ab" d="M931.121,733.16s-1.22,0-5.578,2.267c0,0-2.963-.524-4.183-4.706,0,0-3.659,6.274-6.1,6.622s-7.146.7-4.01,4.882,21.614,2.267,21.614,2.267S933.387,734.379,931.121,733.16Z" transform="translate(-659.473 -531.875)"/><path class="t" d="M931.121,733.16s-1.22,0-5.578,2.267c0,0-2.963-.524-4.183-4.706,0,0-3.659,6.274-6.1,6.622s-7.146.7-4.01,4.882,21.614,2.267,21.614,2.267S933.387,734.379,931.121,733.16Z" transform="translate(-659.473 -531.875)"/><path class="aa" d="M950.428,743.953l-1.22,3.311L941.19,745l.456-3.288.111-.793.293-2.194s6.8-1.755,6.8-.878a13.5,13.5,0,0,0,.448,2.124c.292,1.071.629,2.293.878,3.1C950.325,743.605,950.428,743.953,950.428,743.953Z" transform="translate(-681.395 -536.743)"/><path class="ac" d="M935.195,504.338a4.761,4.761,0,0,0-.015,4.85,8.445,8.445,0,0,0,1.252,1.738c3.835,4.183,4.882,13.6,4.882,13.6v15.164l-2.615.2-4.183.322-6.289-25.793s-3.659-18.826-1.916-22.137,3.311-24.053,3.311-24.053l1.448-1.5,3.434-3.557h9.945a6.683,6.683,0,0,1,1.933,2.162c1.667,2.761,3.165,8.5-1.41,19.1-7.146,16.559-9.237,19.174-9.237,19.174A4.013,4.013,0,0,0,935.195,504.338Z" transform="translate(-670.535 -342.586)"/><path class="t" d="M935.195,504.338a4.761,4.761,0,0,0-.015,4.85,8.445,8.445,0,0,0,1.252,1.738c3.835,4.183,4.882,13.6,4.882,13.6v15.164l-2.615.2-4.183.322-6.289-25.793s-3.659-18.826-1.916-22.137,3.311-24.053,3.311-24.053l1.448-1.5,3.434-3.557h9.945a6.683,6.683,0,0,1,1.933,2.162c1.667,2.761,3.165,8.5-1.41,19.1-7.146,16.559-9.237,19.174-9.237,19.174A4.013,4.013,0,0,0,935.195,504.338Z" transform="translate(-670.535 -342.586)"/><path class="o" d="M950.68,739.975l-7.55.942.293-2.194s6.8-1.755,6.8-.878A13.5,13.5,0,0,0,950.68,739.975Z" transform="translate(-682.767 -536.743)"/><path class="ac" d="M911.108,475.656s.433,13.722.506,22.345c.015,1.951,0,3.642-.015,4.85a10.755,10.755,0,0,1-.14,1.913c-.524,1.568.524,5.055.524,5.055a50.308,50.308,0,0,1,3.139,21.614V539.1l-8.372,1.047s1.4-1.047-2.44-11.156a44.127,44.127,0,0,1-2.688-15.292,16.361,16.361,0,0,0-1.223-6.049,7.469,7.469,0,0,1-.433-2.018,39.946,39.946,0,0,0-1.916-7.845s-4.183-12.376-5.23-21.441a49.927,49.927,0,0,1,.243-12.967,32.347,32.347,0,0,1,.629-3.244s17.039-10.723,23.474-3.311a8.391,8.391,0,0,1,1.463,2.44,16.1,16.1,0,0,1,.822,2.714C921.427,471.824,911.108,475.656,911.108,475.656Z" transform="translate(-646.954 -336.249)"/><circle class="aa" cx="8.889" cy="8.889" r="8.889" transform="translate(254.741 45.283)"/><path class="aa" d="M936.255,242.075s3.659,10.285,0,15.687,11.677,3.659,11.677,3.659l5.926-7.146s-6.974,0-7.313-12.2S936.255,242.075,936.255,242.075Z" transform="translate(-677.504 -182.327)"/><path class="o" d="M924.6,461.027a22.869,22.869,0,0,1-3.885.974c-2.17.333-4.73.348-6.227-.974-.877-.784-3.074-.878-5.7-.629a97.737,97.737,0,0,0-14.453,3,32.345,32.345,0,0,1,.629-3.244s17.039-10.723,23.474-3.311h3.718a6.68,6.68,0,0,1,1.933,2.162C924.409,460.393,924.6,461.027,924.6,461.027Z" transform="translate(-648.242 -336.263)"/><path class="o" d="M950.428,753.894l-1.22,3.311-8.018-2.267.456-3.288a5.639,5.639,0,0,0,3.727,3.46,28.432,28.432,0,0,1,4.8-2.1C950.325,753.546,950.428,753.894,950.428,753.894Z" transform="translate(-681.395 -546.683)"/><path class="ab" d="M923.974,750.44s-1.22,0-5.578,2.267c0,0-2.963-.524-4.183-4.707,0,0-3.659,6.274-6.1,6.622s-7.146.69-4.007,4.882,21.613,2.267,21.613,2.267S926.241,751.659,923.974,750.44Z" transform="translate(-654.417 -544.101)"/><path class="aa" d="M833.19,227.026s.395-7.866,9.232-5.836l-2.267,4.25Z" transform="translate(-604.986 -171.151)"/><path class="w" d="M874.506,252.319s-8.541-1.4-10.808-3.139c0,0-1.755,3.311-4.882,1.568s-10.457-1.568-10.457-1.568a15.78,15.78,0,0,1-7.313-10.808s-1.22-4.531-.877-5.751c0,0-4.531-4.706-6.8,1.568.878,4.358,1.568,4.01,1.4,7.494l2.788,7.67s.176,2.615,5.23,6.1a112.622,112.622,0,0,1,10.808,8.889s-3.051,1.656-1.916,9.237c1.384,9.267-.7,22.485-.7,22.485v8.541s17.431-5.055,20.394-2.44,10.109,0,10.109,0a99.239,99.239,0,0,1-2.091-10.109,44.028,44.028,0,0,1,.175-14.119s4.531-12.028,6.622-16.907-1.568-11.5-5.23-13.944-5.022-.974-5.022-.974S882.339,250.751,874.506,252.319Z" transform="translate(-605.113 -178.276)"/><path class="o" d="M912.746,201.873a3.083,3.083,0,0,0,.181,1.065,3.356,3.356,0,0,0,.816,1.015,10.16,10.16,0,0,1,2.91,4.557,13.869,13.869,0,0,1,.275,3.686c-.076,5-.292,10.407-3.376,14.333a31.26,31.26,0,0,1-3.969,3.823,1.2,1.2,0,0,0-.415.57,1.045,1.045,0,0,0,.129.69,7.457,7.457,0,0,0,3.253,2.875,4.123,4.123,0,0,0,1.866.7c1.585.053,2.633-1.623,4.075-2.282,2.1-.959,4.455.374,6.541,1.369a23.044,23.044,0,0,0,4.721,1.647c2.232.515,4.753.641,6.631-.667a5.064,5.064,0,0,0,2.065-3.232c.152-.851.129-1.84.772-2.416.333-.293.787-.421,1.144-.684a3.543,3.543,0,0,0,1.059-1.755l2.147-5.871a4.824,4.824,0,0,0,.418-1.971c-.1-1.413-1.407-2.44-2.714-2.984a18.667,18.667,0,0,1-3.908-1.638c-1.945-1.4-2.548-4.01-2.723-6.4a30.8,30.8,0,0,1,.035-4.929c.214-2.431.687-5.022-.4-7.21-1.155-2.34-3.747-3.531-6.143-4.549a8.415,8.415,0,0,0-2.869-.831,8.181,8.181,0,0,0-3.089.652,48.206,48.206,0,0,1-4.847,1.641,21.483,21.483,0,0,0-2.823.386C911.245,194.7,912.746,199.243,912.746,201.873Z" transform="translate(-658.731 -149.876)"/><path class="ad" d="M912.739,200.654a3.083,3.083,0,0,0,.181,1.065,3.358,3.358,0,0,0,.816,1.015,10.159,10.159,0,0,1,2.91,4.557,13.868,13.868,0,0,1,.275,3.686c-.076,5-.292,10.407-3.376,14.333a31.249,31.249,0,0,1-3.969,3.823,1.2,1.2,0,0,0-.418.559,1.045,1.045,0,0,0,.129.69,7.457,7.457,0,0,0,3.253,2.875,4.123,4.123,0,0,0,1.866.7c1.585.053,2.633-1.623,4.075-2.282,2.1-.959,4.455.374,6.54,1.369a23.049,23.049,0,0,0,4.721,1.647c2.232.515,4.753.641,6.631-.667a5.064,5.064,0,0,0,2.065-3.232c.152-.851.129-1.84.772-2.416.334-.292.787-.421,1.144-.684a3.542,3.542,0,0,0,1.059-1.755l2.147-5.871a4.824,4.824,0,0,0,.418-1.971c-.1-1.413-1.407-2.44-2.714-2.984a18.669,18.669,0,0,1-3.908-1.638c-1.945-1.4-2.548-4.01-2.723-6.4a30.818,30.818,0,0,1,.035-4.929c.214-2.431.688-5.022-.395-7.21-1.155-2.34-3.747-3.531-6.143-4.549a8.415,8.415,0,0,0-2.869-.831,8.181,8.181,0,0,0-3.089.652,48.21,48.21,0,0,1-4.847,1.641,21.481,21.481,0,0,0-2.823.386C911.238,193.488,912.739,198.025,912.739,200.654Z" transform="translate(-658.723 -149.006)"/><path class="t" d="M897.41,386.147s1.389-.331,8.363-1.384,19.174,1.4,19.174,1.4" transform="translate(-650.421 -286.928)"/></g></svg>