<svg xmlns="http://www.w3.org/2000/svg" width="320" height="259.555" viewBox="0 0 320 259.555"><defs><style>.a{fill:#3f3d56;}.b{fill:#2f2e41;}.c{fill:#fbbebe;}.d{fill:#3182ce;}.e{fill:#e6e6e6;}.f{fill:#fff;}</style></defs><g transform="translate(0.001 0)"><path class="a" d="M407.414,678.344a327.938,327.938,0,0,1-44.535-2.918c-.482-.062-.97-.13-1.456-.2-3.623-.515-7.249-1.1-10.773-1.751A232.687,232.687,0,0,1,306.2,660.881c-45.38-18.152-73.913-14.289-89.857-7.852-17.255,6.967-23.888,18.365-23.953,18.479l-.568-.322c.066-.116,6.784-11.684,24.228-18.742,10.228-4.139,22.093-5.947,35.268-5.377,16.446.712,34.993,5.156,55.124,13.209a232.063,232.063,0,0,0,44.328,12.556c3.516.645,7.133,1.233,10.75,1.747.483.072.967.14,1.448.2,40.014,5.5,78.616,2.185,103.954-1.569a333.409,333.409,0,0,0,34.459-6.747l.171.63a333.875,333.875,0,0,1-34.534,6.763,411.48,411.48,0,0,1-59.6,4.488Z" transform="translate(-191.82 -439.98)"/><path class="a" d="M407.457,200.494c-11.5,0-22.7-.538-33.51-1.614-24.831-2.473-47.625-7.809-67.751-15.859-45.38-18.152-73.912-14.289-89.857-7.852-17.255,6.966-23.888,18.364-23.953,18.479l-.568-.322c.066-.116,6.784-11.683,24.228-18.742,10.228-4.139,22.092-5.948,35.268-5.377,16.446.712,34.993,5.156,55.124,13.209,45.452,18.181,96.028,18.9,130.453,16.3,37.313-2.819,64.218-10.034,64.485-10.107l.171.63c-.268.073-27.221,7.3-64.592,10.127C426.948,200.115,417.1,200.494,407.457,200.494Z" transform="translate(-191.819 -149.432)"/><path class="b" d="M672.242,122.075s-12.83-4.582-21.078,13.747-21.078,38.49-21.078,38.49l7.331,1.833s1.833-12.83,6.415-14.663L642,177.977s54.986,19.245,79.73-1.833l-.916-6.415s3.666.916,3.666,6.415l2.749-2.749s-2.749-5.5-11-12.83c-5.414-4.812-7.274-13.967-7.913-19.691a23.828,23.828,0,0,0-5.486-12.976C697.351,121.546,687.363,114.794,672.242,122.075Z" transform="translate(-458.294 -118.919)"/><path class="c" d="M885.031,391.56s24.143,20.593,27.694,32.665-13.492,13.492-13.492,13.492l-36.926,3.551s-.71,17.042-7.1,19.173-1.3-28.182-1.3-28.182L890,422.094l-16.332-17.042Z" transform="translate(-593.213 -284.69)"/><path class="c" d="M608.763,445.907l-2.84,37.635L590.3,547.452s-14.2,29.114-2.13,29.824,11.361-27.694,11.361-27.694l22.723-60.359,2.13-41.186Z" transform="translate(-429.851 -317.734)"/><circle class="c" cx="23.433" cy="23.433" r="23.433" transform="translate(195.244 15.267)"/><path class="c" d="M711.114,246.635s8.521,30.534-4.971,38.346,34.085,13.492,46.866-9.941c0,0-22.723-7.811-16.332-28.4Z" transform="translate(-503.088 -196.573)"/><path class="d" d="M658.829,351.314l-4.261-1.42s-8.521,3.551-8.521,9.941-1.42,31.955-1.42,31.955l19.173,2.13Z" transform="translate(-467.135 -259.356)"/><path class="b" d="M732.366,612.893c-26.214,3.883-64.421,7.019-104.043,1.57,0-.392,0-.773,0-1.145q0-3.324.255-6.572c2.03-26.668,15.768-48.9,21.084-56.6.268-.392.516-.744.737-1.057.858-1.2,1.358-1.841,1.358-1.841s41.186-.672,62.489,7.848a9.164,9.164,0,0,1,2.774,1.814C724.959,564.234,729.625,588.03,732.366,612.893Z" transform="translate(-457.22 -379.34)"/><path class="d" d="M848.159,326.358s9.231-4.971,18.463,5.681l18.463,21.3-14.2,15.622L843.9,352.632Z" transform="translate(-588.296 -244.341)"/><path class="b" d="M683.786,174.736c8.3-6,15.011-12.919,19.453-21.144,0,0,15.224,16.915,24.527,17.761s.846-20.3.846-20.3L711.7,146.826l-16.07,1.692-12.687,8.458Z" transform="translate(-490.43 -135.887)"/><path class="d" d="M728.927,315.474s-9.937,15.712-39.764,8.211l-16.925,4.662-2.25.62s2.13,42.606,7.811,50.417,4.261,12.072,2.84,12.782-4.971-.71-2.84,2.84,4.971,1.42,2.13,3.551-4.261,9.941-4.261,9.941l66.75,8.521s-2.13-27.694,3.551-41.9,7.1-19.883,7.1-19.883l-4.261-35.505Z" transform="translate(-482.555 -238.428)"/><rect class="e" width="91.372" height="114.215" transform="translate(16.273 63.144)"/><rect class="f" width="19.58" height="13.053" transform="translate(22.637 72.771)"/><rect class="f" width="75.708" height="4.569" transform="translate(22.8 98.225)"/><rect class="f" width="75.708" height="4.569" transform="translate(22.8 110.299)"/><rect class="f" width="75.708" height="4.569" transform="translate(22.8 122.373)"/><rect class="f" width="75.708" height="4.569" transform="translate(22.8 134.448)"/><rect class="f" width="75.708" height="4.569" transform="translate(22.8 146.521)"/><path class="d" d="M456.7,543.181a17.9,17.9,0,1,1-2.774-9.588A17.9,17.9,0,0,1,456.7,543.181Z" transform="translate(-331.105 -365.984)"/><path class="f" d="M466.427,542.367,448.76,560.032c-1.11-1.719-7.3-9.708-7.3-9.708A25.03,25.03,0,0,1,444,548.088l5.13,6.84,15.233-15.233A17.869,17.869,0,0,1,466.427,542.367Z" transform="translate(-343.608 -374.758)"/></g></svg>