<svg xmlns="http://www.w3.org/2000/svg" width="320" height="226.527" viewBox="0 0 320 226.527"><defs><style>.a{opacity:0.1;}.b{fill:none;stroke:#3f3d56;stroke-miterlimit:10;stroke-width:4px;}.c{fill:#57b894;}.d{fill:#656380;}.e{opacity:0.2;}.f{fill:#3f3d56;}.g{fill:#a0616a;}.h{fill:#3182ce;}.i{fill:#f2f2f2;}.j{opacity:0.03;}</style></defs><g transform="translate(0 0.02)"><path class="a" d="M796.541,155.09h-58.41a203.986,203.986,0,0,0,0,72.377c17.1-3,36.978-2.476,58.41,0C792.193,202.812,791.994,178.66,796.541,155.09Z" transform="translate(-524.29 -152.476)"/><path class="b" d="M209.1,666.193c1.125-2.067-.15-4.6-1.609-6.445s-3.23-3.752-3.192-6.111c.056-3.376,3.639-5.368,6.5-7.158a31.513,31.513,0,0,0,5.837-4.693,8.627,8.627,0,0,0,1.793-2.4,9.745,9.745,0,0,0,.54-4.269q-.191-7.225-.717-14.436" transform="translate(-192.745 -443.402)"/><path class="c" d="M238.487,611.563a5.252,5.252,0,0,0-2.626-4.314l-1.178,2.33.038-2.821a5.252,5.252,0,1,0,3.751,4.806Z" transform="translate(-207.538 -434.566)"/><path class="c" d="M214.478,702.16a5.252,5.252,0,1,1,.255-4.239l-3.29,2.675,3.62-.837A5.252,5.252,0,0,1,214.478,702.16Z" transform="translate(-192.907 -489.528)"/><path class="c" d="M214.65,670.137a5.252,5.252,0,0,1-1.669-10.332l-.03,2.172,1.193-2.36h0a5.252,5.252,0,0,1,5.518,5.016,5.192,5.192,0,0,1-.225,1.8A5.252,5.252,0,0,1,214.65,670.137Z" transform="translate(-195.687 -467.728)"/><path class="c" d="M249.05,647.51a5.252,5.252,0,1,1,2.33-9.855l-.93,2.551,1.913-1.838a5.253,5.253,0,0,1,1.7,3.635,5.138,5.138,0,0,1-.131,1.448A5.271,5.271,0,0,1,249.05,647.51Z" transform="translate(-217.305 -453.605)"/><path class="a" d="M237.861,617.768c-1.215.135-2.4.514-3.616.589a3.944,3.944,0,0,1-3.331-1.163,17.084,17.084,0,0,1-.972-1.714,3.751,3.751,0,0,0-1.328-1.249,5.252,5.252,0,1,0,9.844,3.5C238.258,617.734,238.06,617.749,237.861,617.768Z" transform="translate(-207.616 -439.372)"/><path class="a" d="M248.929,652.5a5.252,5.252,0,0,1-5.008-7.5,3.9,3.9,0,0,1,1.058,1.062,17.655,17.655,0,0,0,1.043,1.741,4.3,4.3,0,0,0,3.493,1.219c1.272-.06,2.5-.417,3.751-.533.176,0,.353-.026.533-.034A5.271,5.271,0,0,1,248.929,652.5Z" transform="translate(-217.184 -458.598)"/><path class="a" d="M214.86,675.323a5.252,5.252,0,0,1-5.049-7.413,4.307,4.307,0,0,1,1.125,1.069c.409.578.664,1.242,1.125,1.774a4.859,4.859,0,0,0,3.725,1.305c1.343-.034,2.562-.349,3.857-.446a5.252,5.252,0,0,1-4.783,3.71Z" transform="translate(-195.896 -472.914)"/><path class="a" d="M214.244,707.765a5.259,5.259,0,1,1-9.6-4.3A5.179,5.179,0,0,1,205.8,704.5a22.252,22.252,0,0,0,1.411,1.876,6.557,6.557,0,0,0,4.363,1.534A23.328,23.328,0,0,0,214.244,707.765Z" transform="translate(-192.673 -495.134)"/><path class="d" d="M195.93,733.368a40.929,40.929,0,0,0,5.41-2.521c1.253-.893,6.378-1.958,6.7-.525s6.246,7.128,1.557,7.15-10.9.769-12.155,0S195.93,733.368,195.93,733.368Z" transform="translate(-187.515 -511.474)"/><path class="e" d="M209.679,743.19c-4.693.037-10.9.75-12.151,0-.953-.578-1.332-2.66-1.459-3.62h-.139s.263,3.35,1.5,4.127,7.462.03,12.155,0c1.354,0,1.819-.491,1.793-1.208C211.2,742.912,210.688,743.183,209.679,743.19Z" transform="translate(-187.515 -517.691)"/><path class="b" d="M964.529,616.75c-1.778-3.294.24-7.33,2.558-10.268s5.151-6,5.091-9.754c-.086-5.383-5.8-8.557-10.361-11.412a50.552,50.552,0,0,1-9.3-7.477,13.321,13.321,0,0,1-2.859-3.826,15.519,15.519,0,0,1-.859-6.8q.3-11.521,1.125-23.011" transform="translate(-657.933 -395.613)"/><path class="c" d="M928.751,529.785a8.369,8.369,0,0,1,4.187-6.873l1.876,3.714-.056-4.5a8.392,8.392,0,1,1-6,7.657Z" transform="translate(-645.418 -381.604)"/><path class="c" d="M967.109,674.148a8.388,8.388,0,1,0-.405-6.753l5.252,4.266-5.766-1.339A8.347,8.347,0,0,0,967.109,674.148Z" transform="translate(-668.815 -469.173)"/><path class="c" d="M966.365,623.158a8.392,8.392,0,0,0,2.66-16.461l.045,3.459-1.9-3.751h-.022a8.392,8.392,0,1,0-.784,16.766Z" transform="translate(-663.925 -434.476)"/><path class="c" d="M912.1,587.059a8.392,8.392,0,1,0-3.71-15.7l1.5,4.063-3.05-2.926a8.392,8.392,0,0,0,5.26,14.567Z" transform="translate(-630.03 -411.912)"/><path class="a" d="M930.179,539.657c1.939.214,3.823.818,5.766.938a6.214,6.214,0,0,0,5.3-1.876,25.635,25.635,0,0,0,1.553-2.731A6.025,6.025,0,0,1,944.915,534a8.392,8.392,0,1,1-15.685,5.571C929.549,539.6,929.864,539.627,930.179,539.657Z" transform="translate(-645.721 -389.24)"/><path class="a" d="M912.424,595a8.4,8.4,0,0,0,7.983-12,6.191,6.191,0,0,0-1.688,1.692,27.52,27.52,0,0,1-1.662,2.772,6.877,6.877,0,0,1-5.567,1.947c-2.026-.09-3.977-.668-6-.855-.281-.022-.563-.041-.848-.049A8.392,8.392,0,0,0,912.424,595Z" transform="translate(-630.355 -419.858)"/><path class="a" d="M966.98,631.4a8.392,8.392,0,0,0,8.051-11.813,6.688,6.688,0,0,0-1.774,1.707,28.8,28.8,0,0,1-1.823,2.828c-1.414,1.576-3.793,2.131-5.939,2.078-2.078-.045-4.078-.555-6.145-.713A8.388,8.388,0,0,0,966.98,631.4Z" transform="translate(-664.541 -442.721)"/><path class="a" d="M968.64,683.106a8.392,8.392,0,0,0,15.3-6.846A8.352,8.352,0,0,0,982.1,677.9a32.631,32.631,0,0,1-2.251,2.979c-1.714,1.684-4.483,2.378-6.948,2.442A36.44,36.44,0,0,1,968.64,683.106Z" transform="translate(-670.346 -478.131)"/><path class="d" d="M983.435,723.021s-6.621-1.7-8.628-3.125-10.189-3.117-10.684-.84-9.953,11.337-2.476,11.4,17.373.338,19.365-.878S983.435,723.021,983.435,723.021Z" transform="translate(-664.185 -504.177)"/><path class="e" d="M961.548,738.108c7.477.06,17.373.334,19.365-.878,1.5-.927,2.12-4.239,2.322-5.77h.221s-.42,5.342-2.412,6.554-11.888.938-19.365.878c-2.157,0-2.9-.784-2.862-1.921C959.117,737.665,959.939,738.093,961.548,738.108Z" transform="translate(-664.207 -512.623)"/><path class="a" d="M319.6,159.94H261.19c4.551,23.57,4.348,47.722,0,72.377,21.432-2.476,41.311-3,58.41,0A203.989,203.989,0,0,0,319.6,159.94Z" transform="translate(-228.293 -155.507)"/><path class="f" d="M514.783,243.267c-5.7.405-11.052,4.389-11.442,9.555-.214,2.81.96,5.676.484,8.448-.626,3.669-3.988,6.378-7.5,8.219s-7.4,3.23-10.324,5.766-4.633,6.753-2.57,10.058a26.635,26.635,0,0,0,3.054,3.376,11.234,11.234,0,0,1,2.386,11.071c-1.182,3.32-4.063,6.246-3.751,9.773.3,3.376,3.6,6.115,7.169,7.184s7.39.818,11.086.551c4.265-.3,9.049-.859,11.528-3.95,2.664-3.32,1.474-8.1,2.892-12.027,2.829-7.818,14.529-9.72,19.2-16.717,2.251-3.376,2.592-7.537,2.559-11.543C539.457,260.343,532.652,242,514.783,243.267Z" transform="translate(-366.593 -207.535)"/><path class="g" d="M555.319,310.686s1.876,6-4.5,9.379,5.252,11.63,5.252,11.63l9,3.376,10.129-4.5-1.876-15.381s-8.628,3-8.628-7.878Z" transform="translate(-408.074 -247.592)"/><path class="a" d="M555.319,310.686s1.876,6-4.5,9.379,5.252,11.63,5.252,11.63l9,3.376,10.129-4.5-1.876-15.381s-8.628,3-8.628-7.878Z" transform="translate(-408.074 -247.592)"/><path class="g" d="M601.151,676s-1.876,12.755-.75,14.256,6.378.75,6.378.75,1.125-12.755,1.5-14.255S601.151,676,601.151,676Z" transform="translate(-440.026 -477.85)"/><path class="f" d="M603.846,710.212s-5.443-.87-5.443.63c0,0-2.251,1.125-2.251,0s-2.063,11.817-.563,13.693,7.233-.18,8.628.75c1.125.75,9.566.563,9.941-1.313s.375-3.376-3-5.252S603.846,710.212,603.846,710.212Z" transform="translate(-436.902 -499.189)"/><path class="a" d="M603.846,710.212s-5.443-.87-5.443.63c0,0-2.251,1.125-2.251,0s-2.063,11.817-.563,13.693,7.233-.18,8.628.75c1.125.75,9.566.563,9.941-1.313s.375-3.376-3-5.252S603.846,710.212,603.846,710.212Z" transform="translate(-436.902 -499.189)"/><path class="g" d="M568,672.477s2.626,11.254,1.5,16.506l7.878-2.251s-4.877-13.13-4.5-14.256S568,672.477,568,672.477Z" transform="translate(-420.005 -475.455)"/><path class="f" d="M572.251,709.366s4.877-2.626,6.378,0,6,13.13,3.376,14.256-10.879.75-11.255-3.376-.75-10.129-.75-10.129S571.876,710.867,572.251,709.366Z" transform="translate(-421.254 -498.088)"/><path class="f" d="M535.54,455.31s-7.128,14.631,1.876,37.89c0,0,4.5,13.505,2.251,21.383s4.877,26.26,4.877,26.26l8.628-1.5s-3.376-24.76-2.251-27.386.375-30.762.375-30.762,10.129,19.132,8.628,34.513-1.876,24.009-1.876,24.009l9.754-.375a150.817,150.817,0,0,1,3-15.381c1.876-7.128,3-40.891-1.876-51.02l-1.125-12.38Z" transform="translate(-398.049 -340.07)"/><circle class="g" cx="9.004" cy="9.004" r="9.004" transform="translate(140.492 48.46)"/><ellipse class="f" cx="10.504" cy="5.627" rx="10.504" ry="5.627" transform="matrix(0.992, -0.127, 0.127, 0.992, 138.177, 47.773)"/><path class="a" d="M564.495,282.81c-.5,2.742-4.5,5.3-9.671,5.957-5.65.724-10.557-1.1-11.1-4.082a3.053,3.053,0,0,0-.03.96c.375,3.08,5.38,4.982,11.134,4.247s10.1-3.834,9.7-6.918C564.517,282.919,564.506,282.881,564.495,282.81Z" transform="translate(-404.799 -232.283)"/><path class="g" d="M459.024,339.654c-1.208-.5-2.6.274-3.406,1.3s-1.276,2.288-2.075,3.32a15.905,15.905,0,0,1-3.358,2.817,28.414,28.414,0,0,0-4.265,3.845,9.452,9.452,0,0,1-2.251,2.071,5.428,5.428,0,0,1-4.768,0,16.265,16.265,0,0,1-4.029-2.817q-5.537-4.828-10.924-9.878a17.065,17.065,0,0,0-9.709-3.969,3.072,3.072,0,0,0-2.435.476,2.221,2.221,0,0,0-.649,1.568c-.079,1.955,1.583,3.583,3.376,4.374s3.781,1.032,5.586,1.782a10.928,10.928,0,0,1,4.363,3.331c1.26,1.606,2.787,2.919,3.988,4.566.548.75,1.032,1.542,1.557,2.307a50.57,50.57,0,0,0,4.157,5.072c1.737,1.932,3.86,4.025,6.449,3.83a8.488,8.488,0,0,0,3.05-1.039,49.565,49.565,0,0,0,8.756-5.083c1.557-1.219,2.964-2.626,4.6-3.751,1.561-1.069,3.343-1.876,4.607-3.29a6.85,6.85,0,0,0,1.523-6.077A7.1,7.1,0,0,0,459.024,339.654Z" transform="translate(-321.998 -265.703)"/><path class="g" d="M623.049,329.654c1.208-.5,2.6.274,3.406,1.3s1.276,2.288,2.075,3.32a15.908,15.908,0,0,0,3.358,2.817,28.412,28.412,0,0,1,4.265,3.845,9.453,9.453,0,0,0,2.251,2.071,5.428,5.428,0,0,0,4.768,0,16.265,16.265,0,0,0,4.029-2.817q5.552-4.847,10.939-9.878a17.065,17.065,0,0,1,9.709-3.969,3.072,3.072,0,0,1,2.435.476,2.22,2.22,0,0,1,.649,1.568c.079,1.955-1.583,3.583-3.376,4.374s-3.781,1.032-5.586,1.782a10.927,10.927,0,0,0-4.363,3.331c-1.26,1.606-2.787,2.919-3.988,4.566-.548.75-1.032,1.542-1.557,2.307a50.569,50.569,0,0,1-4.172,5.072c-1.737,1.932-3.86,4.025-6.449,3.83a8.488,8.488,0,0,1-3.05-1.039,49.561,49.561,0,0,1-8.756-5.083c-1.557-1.219-2.964-2.626-4.6-3.751-1.561-1.069-3.343-1.876-4.607-3.29a6.85,6.85,0,0,1-1.523-6.077A7.1,7.1,0,0,1,623.049,329.654Z" transform="translate(-451.704 -259.454)"/><path class="h" d="M551.259,341.447a70.8,70.8,0,0,0-6.377-3.751c-3-1.5-6.378-6.378-6.378-6.378s-10.5,1.876-10.5,4.5,4.5,12,6,12.755,3.752.75,3.376,2.251,1.125,4.5,1.125,4.5,3,4.5,1.125,5.627-10.129,14.631-9,16.506,11.63,3.752,16.882,8.253,19.883-.375,19.883-1.5-1.5-3.376-1.5-3.376-.375-18.757,1.5-24.76.375-14.631-.375-15.756c0,0,4.5-7.878,2.626-10.129s-10.879-3.376-11.63-3l-.709,4.085a33.047,33.047,0,0,1-2.592,8.253c-.375.814-.7,1.542-.825,1.909C553.51,342.573,551.259,341.447,551.259,341.447Z" transform="translate(-395.011 -259.97)"/><path class="i" d="M732.131,220.447c17.1-3,36.978-2.476,58.41,0-4.348-24.655-4.547-48.807,0-72.377h-58.41a203.989,203.989,0,0,0,0,72.377Z" transform="translate(-520.541 -148.09)"/><rect class="h" width="36.014" height="4.877" transform="translate(221.149 12.154)"/><rect class="h" width="36.014" height="4.877" transform="translate(221.149 22.282)"/><path class="i" d="M326.6,224.317c-17.1-3-36.978-2.476-58.41,0,4.348-24.655,4.551-48.807,0-72.377H326.6A203.991,203.991,0,0,1,326.6,224.317Z" transform="translate(-232.667 -150.508)"/><rect class="h" width="36.014" height="4.877" transform="translate(48.206 14.78)"/><rect class="f" width="246.471" height="0.75" transform="translate(36.764 225.717)"/><rect class="f" width="30.012" height="0.75" transform="translate(289.988 225.717)"/><rect class="f" width="30.012" height="0.75" transform="translate(0 225.717)"/><path class="i" d="M380.169,465.566a5.252,5.252,0,0,0-2.626-4.314l-1.178,2.33.034-2.821a5.2,5.2,0,0,0-1.733-.21,5.252,5.252,0,1,0,5.507,5.016Z" transform="translate(-296.079 -343.341)"/><path class="j" d="M379.5,471.768c-1.215.135-2.4.514-3.616.589a3.944,3.944,0,0,1-3.331-1.163,17.079,17.079,0,0,1-.972-1.714,3.752,3.752,0,0,0-1.328-1.249,5.252,5.252,0,1,0,9.844,3.5C379.9,471.734,379.7,471.749,379.5,471.768Z" transform="translate(-296.121 -348.143)"/><path class="i" d="M727.943,608.976a5.252,5.252,0,0,0-5.031.5l1.583,2.078-2.525-1.264a5.25,5.25,0,1,0,5.972-1.3Z" transform="translate(-515.362 -435.825)"/><path class="j" d="M730.672,612.044c-.413,1.152-.585,2.378-1.05,3.511a3.931,3.931,0,0,1-2.5,2.487,16.327,16.327,0,0,1-1.966.128,3.754,3.754,0,0,0-1.7.649,5.293,5.293,0,1,0,7.439-7.349C730.81,611.669,730.739,611.86,730.672,612.044Z" transform="translate(-517.138 -437.647)"/><path class="i" d="M677.435,174.207a5.252,5.252,0,0,0-5.053-.041l1.362,2.232-2.382-1.5a5.252,5.252,0,1,0,6.074-.671Z" transform="translate(-483.5 -164.004)"/><path class="j" d="M679.512,178.025c-.525,1.1-.829,2.3-1.407,3.376a3.94,3.94,0,0,1-2.742,2.217,16.493,16.493,0,0,1-1.969-.075,3.751,3.751,0,0,0-1.763.469,5.277,5.277,0,1,0,8.159-6.513C679.692,177.688,679.6,177.845,679.512,178.025Z" transform="translate(-484.758 -166.479)"/></g></svg>