<svg xmlns="http://www.w3.org/2000/svg" xmlns:xlink="http://www.w3.org/1999/xlink" width="264.679" height="299" viewBox="0 0 264.679 299"><defs><style>.a{opacity:0.2;}.b{fill:#3f3d56;}.c{fill:#3182ce;}.d,.r{opacity:0.1;}.e{fill:url(#a);}.f{opacity:0.9;}.g{fill:#e5e7eb;}.h{fill:#fff;}.i{fill:#ececf3;}.j{opacity:0.4;}.k{fill:#d6d8e0;}.l{fill:url(#b);}.m{opacity:0.5;}.n{fill:url(#c);}.o{fill:#a0616a;}.p{fill:#2d293d;}.q{fill:#f86d70;}</style><linearGradient id="a" x1="0.5" y1="1" x2="0.5" gradientUnits="objectBoundingBox"><stop offset="0" stop-color="gray" stop-opacity="0.251"/><stop offset="0.54" stop-color="gray" stop-opacity="0.122"/><stop offset="1" stop-color="gray" stop-opacity="0.102"/></linearGradient><linearGradient id="b" x1="0.5" y1="1" x2="0.5" y2="0" xlink:href="#a"/><linearGradient id="c" x1="-0.001" y1="0.5" x2="1" y2="0.5" xlink:href="#a"/></defs><g transform="translate(-0.093 -0.05)"><g class="a" transform="translate(187.548 155.389)"><path class="b" d="M750.764,753.362a9.047,9.047,0,0,1-.821,1.265q-4.091-2.877-8.323-5.649l.183-.362a7.989,7.989,0,0,1,2.83-3.083,4.729,4.729,0,0,1,4.757-.389,4.781,4.781,0,0,1,2.336,4.154,8.018,8.018,0,0,1-.962,4.064Z" transform="translate(-741.62 -635.807)"/><ellipse class="b" cx="6.637" cy="5.069" rx="6.637" ry="5.069" transform="translate(0.877 111.548) rotate(-62.09)"/><ellipse class="b" cx="6.637" cy="5.069" rx="6.637" ry="5.069" transform="translate(4.674 104.38) rotate(-62.09)"/><ellipse class="b" cx="6.637" cy="5.069" rx="6.637" ry="5.069" transform="translate(8.472 97.212) rotate(-62.09)"/><ellipse class="b" cx="6.637" cy="5.069" rx="6.637" ry="5.069" transform="translate(12.266 90.047) rotate(-62.09)"/><path class="c" d="M771.594,493.631a24.008,24.008,0,0,1-.389-3.34L784.02,494.6l-12.781-6.649a24.312,24.312,0,0,1,8.6-17.218l12.383,17.907L782.6,468.728a24.28,24.28,0,1,1,22.719,42.779,24.3,24.3,0,0,1,.39,5.213l-19.465-.156,19.184,3.161a24.28,24.28,0,0,1-14.127,18.3,24.28,24.28,0,1,1-33.732-17.865,24.288,24.288,0,0,1,14.054-26.53Z" transform="translate(-742.541 -465.029)"/><path class="d" d="M802.84,611.347a24.19,24.19,0,0,1-11.616,10.834,24.28,24.28,0,1,1-33.732-17.865C756.55,599.143,804.117,608.938,802.84,611.347Z" transform="translate(-742.492 -549.185)"/></g><g class="a" transform="translate(0.093 0.525)"><path class="b" d="M476.248,664.19a16.853,16.853,0,0,0,.93,2.745q9-3.445,18.2-6.618c-.055-.249-.109-.506-.171-.779a15.389,15.389,0,0,0-3.827-7.093c-2.449-2.523-5.625-3.753-8.681-3.005s-5.306,3.3-6.322,6.653A15.4,15.4,0,0,0,476.248,664.19Z" transform="translate(-391.807 -422.654)"/><ellipse class="b" cx="9.76" cy="12.773" rx="9.76" ry="12.773" transform="translate(77.721 213.936) rotate(-13.72)"/><ellipse class="b" cx="9.76" cy="12.773" rx="9.76" ry="12.773" transform="translate(74.014 198.768) rotate(-13.72)"/><ellipse class="b" cx="9.76" cy="12.773" rx="9.76" ry="12.773" transform="translate(70.312 183.6) rotate(-13.72)"/><ellipse class="b" cx="9.76" cy="12.773" rx="9.76" ry="12.773" transform="translate(66.61 168.436) rotate(-13.72)"/><path class="c" d="M349.353,133.315a46.186,46.186,0,0,0,2.262-6.057l-25.907,1.989,27-6.388a46.839,46.839,0,0,0-7.914-36.2L313.215,114.24l27.352-32.634a46.742,46.742,0,1,0-62.6,69.119,46.453,46.453,0,0,0-3.157,9.545l36.434,8.907-37.294-3.161a46.769,46.769,0,0,0,17.728,40.876A46.742,46.742,0,1,0,363.06,189.47a46.746,46.746,0,0,0-13.707-56.155Z" transform="translate(-260.093 -67.221)"/><path class="d" d="M298.641,356.488a46.524,46.524,0,0,0,16.568,25.693,46.742,46.742,0,1,0,71.385-17.421C390.794,355.558,297.395,351.392,298.641,356.488Z" transform="translate(-283.627 -242.535)"/></g><path class="e" d="M590.026,131.5h-.868V84.686A18.833,18.833,0,0,0,570.176,66H463.848a18.838,18.838,0,0,0-18.982,18.686v19.406h-.253a1.109,1.109,0,0,0-1.117,1.1v9.343a1.109,1.109,0,0,0,1.117,1.1h.273v9.542h-.343a1.106,1.106,0,0,0-1.113,1.1v17.865a1.109,1.109,0,0,0,1.113,1.1h.343v7.007h-.3a1.106,1.106,0,0,0-1.117,1.1v18.04a1.106,1.106,0,0,0,1.117,1.1h.3V336.13a18.833,18.833,0,0,0,18.982,18.686h106.3a18.838,18.838,0,0,0,18.982-18.686V166.515h.872a1.109,1.109,0,0,0,1.117-1.1V132.6a1.109,1.109,0,0,0-1.117-1.1Z" transform="translate(-371.965 -65.95)"/><g class="f" transform="translate(73.567 1.996)"><rect class="g" width="4.193" height="34.577" rx="2.096" transform="translate(139.503 64.704)"/><rect class="g" width="2.355" height="11.383" rx="1.178" transform="translate(0.086 37.617)"/><rect class="g" width="2.655" height="19.811" rx="1.327" transform="translate(0 58.456)"/><rect class="g" width="2.527" height="19.982" rx="1.263" transform="translate(0.043 85.201)"/><rect class="h" width="140.348" height="285.238" rx="38.99" transform="translate(1.417)"/><rect class="g" width="19.601" height="3.979" rx="1.989" transform="translate(58.055 8.518)"/><circle class="g" cx="2.258" cy="2.258" r="2.258" transform="translate(80.615 8.249)"/></g><path class="i" d="M586.607,90.09H570.541v1.946a9.18,9.18,0,0,1-9.18,9.176H510.138a9.18,9.18,0,0,1-9.18-9.176V90.09H485.885a11.145,11.145,0,0,0-11.145,11.145V349.324a11.145,11.145,0,0,0,11.145,11.145H586.607a11.145,11.145,0,0,0,11.145-11.145V101.235A11.145,11.145,0,0,0,586.607,90.09Z" transform="translate(-391.087 -80.662)"/><ellipse class="c" cx="22.264" cy="3.764" rx="22.264" ry="3.764" transform="translate(11.763 289.617)"/><path class="c" d="M338.585,787.561a6.518,6.518,0,0,0,2.122-3.2,2.854,2.854,0,0,0-1.483-3.262c-1.363-.522-2.818.42-3.92,1.374s-2.371,2.044-3.815,1.841a5.8,5.8,0,0,0,1.795-5.45,2.246,2.246,0,0,0-.5-1.1c-.755-.81-2.126-.463-3.033.175-2.877,2.024-3.683,5.937-3.7,9.46A17.81,17.81,0,0,1,326,783.5a4.013,4.013,0,0,0-1.46-3.449,4.434,4.434,0,0,0-2.234-.522,4.624,4.624,0,0,0-3.617,1.028c-1.1,1.168-.814,3.15.14,4.446a13.983,13.983,0,0,0,3.749,3,8.3,8.3,0,0,1,2.674,2.554,2.3,2.3,0,0,1,.2.455h8.109A22.734,22.734,0,0,0,338.585,787.561Z" transform="translate(-295.351 -500.338)"/><g class="j" transform="translate(228.719 263.284)"><ellipse class="c" cx="12.707" cy="2.149" rx="12.707" ry="2.149" transform="translate(0 7.239)"/><path class="c" d="M875.063,748.058a3.715,3.715,0,0,0,1.215-1.826,1.631,1.631,0,0,0-.849-1.865,2.394,2.394,0,0,0-2.238.779,3.014,3.014,0,0,1-2.176,1.051,3.305,3.305,0,0,0,1.024-3.114,1.268,1.268,0,0,0-.284-.627c-.432-.463-1.214-.265-1.728.1-1.643,1.168-2.1,3.391-2.114,5.4a10.331,10.331,0,0,1-.027-2.223,2.3,2.3,0,0,0-.837-1.97,2.538,2.538,0,0,0-1.273-.3,2.652,2.652,0,0,0-2.067.584,2.057,2.057,0,0,0,.082,2.538,7.94,7.94,0,0,0,2.141,1.713,4.787,4.787,0,0,1,1.526,1.456,1.319,1.319,0,0,1,.113.261H872.2A12.846,12.846,0,0,0,875.063,748.058Z" transform="translate(-857.105 -742.185)"/></g><g class="j" transform="translate(34.104 239.135)"><ellipse class="c" cx="12.707" cy="2.149" rx="12.707" ry="2.149" transform="translate(0 7.24)"/><path class="c" d="M375.153,686.026a3.671,3.671,0,0,0,1.211-1.83,1.624,1.624,0,0,0-.849-1.861,2.385,2.385,0,0,0-2.235.779,3.013,3.013,0,0,1-2.176,1.051,3.325,3.325,0,0,0,1.024-3.114,1.316,1.316,0,0,0-.284-.631c-.432-.459-1.215-.261-1.732.1-1.643,1.168-2.1,3.387-2.11,5.4a10.09,10.09,0,0,1-.031-2.223,2.231,2.231,0,0,0-.833-1.947,2.515,2.515,0,0,0-1.277-.3,2.63,2.63,0,0,0-2.063.588,2.057,2.057,0,0,0,.082,2.538,8.057,8.057,0,0,0,2.137,1.713,4.707,4.707,0,0,1,1.526,1.456,1.6,1.6,0,0,1,.117.261h4.629A12.961,12.961,0,0,0,375.153,686.026Z" transform="translate(-357.191 -680.153)"/></g><rect class="k" width="19.889" height="19.889" transform="translate(93.09 30.026)"/><rect class="k" width="41.67" height="3.788" transform="translate(127.655 31.446)"/><rect class="k" width="68.66" height="3.788" transform="translate(127.655 38.076)"/><rect class="k" width="68.66" height="3.788" transform="translate(127.655 44.706)"/><rect class="k" width="19.889" height="19.889" transform="translate(93.242 66.487)"/><rect class="k" width="41.67" height="3.788" transform="translate(127.807 67.908)"/><rect class="k" width="68.66" height="3.788" transform="translate(127.807 74.537)"/><rect class="k" width="68.66" height="3.788" transform="translate(127.807 81.163)"/><rect class="k" width="19.889" height="19.889" transform="translate(93.394 102.948)"/><rect class="k" width="41.67" height="3.788" transform="translate(127.963 104.365)"/><rect class="k" width="68.66" height="3.788" transform="translate(127.963 110.994)"/><rect class="k" width="68.66" height="3.788" transform="translate(127.963 117.624)"/><rect class="k" width="19.889" height="19.889" transform="translate(93.545 139.405)"/><rect class="k" width="41.67" height="3.788" transform="translate(128.115 140.826)"/><rect class="k" width="68.66" height="3.788" transform="translate(128.115 147.456)"/><rect class="k" width="68.66" height="3.788" transform="translate(128.115 154.085)"/><rect class="k" width="19.889" height="19.889" transform="translate(93.701 175.866)"/><rect class="k" width="41.67" height="3.788" transform="translate(128.266 177.287)"/><rect class="k" width="68.66" height="3.788" transform="translate(128.266 183.917)"/><rect class="k" width="68.66" height="3.788" transform="translate(128.266 190.546)"/><rect class="k" width="19.889" height="19.889" transform="translate(93.853 212.327)"/><rect class="k" width="41.67" height="3.788" transform="translate(128.418 213.748)"/><rect class="k" width="68.66" height="3.788" transform="translate(128.418 220.378)"/><rect class="k" width="68.66" height="3.788" transform="translate(128.418 227.007)"/><rect class="k" width="19.889" height="19.889" transform="translate(94.005 248.788)"/><rect class="k" width="41.67" height="3.788" transform="translate(128.57 250.209)"/><rect class="k" width="68.66" height="3.788" transform="translate(128.57 256.839)"/><rect class="k" width="68.66" height="3.788" transform="translate(128.57 263.469)"/><rect class="l" width="169.517" height="42.141" transform="translate(60.401 89.996)"/><rect class="h" width="168.096" height="40.249" transform="translate(61.347 90.946)"/><rect class="c" width="19.889" height="19.889" transform="translate(93.783 101.126)"/><g class="m" transform="translate(128.352 102.547)"><rect class="c" width="41.67" height="3.788"/><rect class="c" width="68.66" height="3.788" transform="translate(0 6.63)"/><rect class="c" width="68.66" height="3.788" transform="translate(0 13.259)"/></g><path class="n" d="M476.671,387.338a3.463,3.463,0,0,0-4.091-.623,6.01,6.01,0,0,0-2.032,2.752c-.728,1.557-1.795,3.013-2.122,4.695-.9,4.636-4.59,8.237-6.069,12.718a25.269,25.269,0,0,1-1.616,4.777,15.2,15.2,0,0,1-1.324,1.822,51.311,51.311,0,0,0-5.061,7.72,6.211,6.211,0,0,0-2.3,1.433,7.954,7.954,0,0,1-3.114,1.475,2.938,2.938,0,0,0-1.277.467c-.537.448-.611,1.253-1.047,1.795a2.794,2.794,0,0,1-1.168.779c0-.136-.019-.272-.023-.413-.019-.72-.031-1.444-.031-2.168a8.152,8.152,0,0,0-.023-10.581,15.957,15.957,0,0,1,.448-3.344,1.486,1.486,0,0,0-.315-1.534c-.214-.167-.49-.23-.72-.389a3.135,3.135,0,0,1-.779-.989,4.2,4.2,0,0,0-5.287-1.351c-1.405.74-2.258,2.219-3.5,3.223-.638.514-1.374.9-2.013,1.417a8.358,8.358,0,0,0-2.6,4.236,24.256,24.256,0,0,0-.708,5,4.512,4.512,0,0,0,.058,1.518,4.01,4.01,0,0,0,.572,1.168,13.088,13.088,0,0,0,4.839,4.613,1.876,1.876,0,0,1,0,.3,2.154,2.154,0,0,1-.086.463l-.226-.062a8.936,8.936,0,0,1-2.48-.58c-1.277-.716-1.662-2.464-2.885-3.266a2.2,2.2,0,0,0-.327-.175,21.847,21.847,0,0,0-1.253-6.49,8.087,8.087,0,0,1-.744-3.075,7.56,7.56,0,0,1,.938-2.783,70.76,70.76,0,0,0,3.5-9.588q.969-3.064,1.946-6.131a9.666,9.666,0,0,0,1.709-1.627,8.678,8.678,0,0,0,1.981-4.255,6.026,6.026,0,0,0-1.094-4.5,2.6,2.6,0,0,0-1.83-1.121,2.378,2.378,0,0,0-1.709.779,7.6,7.6,0,0,0-1.464,2.515,11.225,11.225,0,0,0-1.222,4.706c.051,1.355.557,2.869-.234,3.971a94.984,94.984,0,0,0-6.595,11.706,20.94,20.94,0,0,0-1.331,2.935,16.35,16.35,0,0,0-.7,5.061,67.863,67.863,0,0,0,.856,9.592,12.325,12.325,0,0,0,1.133,4.2,17.634,17.634,0,0,0-.7,4.734,2.7,2.7,0,0,0,.171,1.086,4.483,4.483,0,0,0,.86,1.082,4.847,4.847,0,0,1,1.168,3.831,10.867,10.867,0,0,0,.346,3.838c.779,3.457,1.557,6.91,2.18,10.394a6.646,6.646,0,0,1,.148,1.978c-.121.942-.642,1.837-.529,2.783a10.536,10.536,0,0,1,.249,1.331,3.289,3.289,0,0,1-.234,1c-.888,2.581-3.274,8.5-3.247,11.231l.623-.148c-.627,3.546-2.094,6.937-2.865,10.472a35.036,35.036,0,0,0-.724,7.833,29.061,29.061,0,0,1-.062,3.543c-.121,1.047-.389,2.071-.537,3.114a28.206,28.206,0,0,0-.187,4.216,43.057,43.057,0,0,0,.389,6.618c.6,3.737-.448,7.451-.732,11.223a67.446,67.446,0,0,1-.9,7.872c-.214,1.1-.483,2.188-.631,3.3-.436,3.293.2,6.688-.487,9.939-.323,1.522-.9,3.231-.051,4.531.269.409.654.728.946,1.121a1.425,1.425,0,0,1,.273,1.374c-.167.358-.557.592-.654.973-.156.6.471,1.09,1.032,1.347l.16.062a1.444,1.444,0,0,0,.3,1.168,2.476,2.476,0,0,0,1.2.623l7.35,2.227a9.808,9.808,0,0,0,5.061.584,1.273,1.273,0,0,0,.292.631,2.476,2.476,0,0,0,1.2.623l7.3,2.211c1.876.568,3.936,1.129,5.738.358a3.259,3.259,0,0,0,1.316-.993,3.473,3.473,0,0,0,.467-2.908,2.371,2.371,0,0,0-.709-1.3,3.114,3.114,0,0,0-1.7-.557,3.431,3.431,0,0,1-1.487-.389,1.071,1.071,0,0,1-.339-.354q.631-.623,1.222-1.292c-.319-.109-.432-.568-.463-.9-.463-4.96,1.405-9.806,2.114-14.735a31.535,31.535,0,0,0,.187-7.467c-.086-.938-.214-1.872-.253-2.815-.183-4.905,2.161-9.623,2.079-14.532-.039-2.3,1.168-4.563,1.756-6.785a24.564,24.564,0,0,0,.541-6.073l.093-16.062a20.1,20.1,0,0,0-.693-6.447,8.175,8.175,0,0,1-.28-3.527c1.982-.876,3.858-2.172,5.976-1.947.565-1.5-.105-6.493-.635-8.008a34.437,34.437,0,0,1-1.168-18.546c.479-2.215-.179-4.57.354-6.778a4.1,4.1,0,0,1,.58-1.456,1.557,1.557,0,0,1,1.335-.7c0-1.351-.027-2.725-.117-4.1a9.732,9.732,0,0,0,2.168-2.5,38.468,38.468,0,0,0,2.639-6.256c1.429-3.737,3.379-7.245,5.018-10.9s1.8-7.653,3.114-11.437A8.6,8.6,0,0,1,475,394.645a6.678,6.678,0,0,0,2.172-1.308,3.5,3.5,0,0,0,.755-1.857A4.909,4.909,0,0,0,476.671,387.338ZM431.123,548.167c.16-.175.315-.35.463-.541-.491-.078-1.09-.436-1.1-.934a5.164,5.164,0,0,1,.319-1.46,5.841,5.841,0,0,0,.109-2.593c-.109-.6-.311-1.168-.436-1.783a16.648,16.648,0,0,1-.234-2.016,33.359,33.359,0,0,0-1.417-7.147c-.7-2.254.261-4.535.51-6.883a13.565,13.565,0,0,1,.455-3.309c.23-.623.607-1.168.837-1.8a8.231,8.231,0,0,0-.109-4.559c2.3-4.177,3.068-9.16,3.936-13.863q.732-3.959,1.464-7.914a7.71,7.71,0,0,1,1.168-3.34,41.038,41.038,0,0,1,.888,10.643,15.805,15.805,0,0,0,.039,3.114c.179,1.133.65,2.2.923,3.317.607,2.456.253,5.037.389,7.564.051,1.02.183,2.04.226,3.06.191,4.512-1.32,8.9-2.811,13.162-.915,2.612-1.117,5.582-1.557,8.319-.413,2.62-.821,5.244-1.032,7.887-.062.806-.113,1.635-.21,2.453a6.405,6.405,0,0,0-.759-.121,3.431,3.431,0,0,1-1.487-.389A1.733,1.733,0,0,1,431.123,548.167Z" transform="translate(-355.863 -260.558)"/><path class="b" d="M472.229,815.169a3.158,3.158,0,0,1,1.7.553,2.363,2.363,0,0,1,.708,1.292,3.441,3.441,0,0,1-.467,2.892,3.232,3.232,0,0,1-1.316.981c-1.8.779-3.862.214-5.738-.35l-7.35-2.215a2.467,2.467,0,0,1-1.2-.619,1.619,1.619,0,0,1-.031-1.888,3.686,3.686,0,0,1,1.557-1.242,17.5,17.5,0,0,1,7.4-1.417c.934-.02,1.853-.222,2.487.5.335.389.276.8.779,1.133a3.371,3.371,0,0,0,1.471.381Z" transform="translate(-381.016 -522.219)"/><path class="b" d="M436.559,804.786a3.115,3.115,0,0,1,1.7.549,2.4,2.4,0,0,1,.709,1.292,3.437,3.437,0,0,1-.467,2.892,3.237,3.237,0,0,1-1.316.985c-1.8.779-3.862.21-5.738-.354l-7.35-2.215a2.438,2.438,0,0,1-1.2-.619,1.619,1.619,0,0,1-.031-1.888,3.664,3.664,0,0,1,1.557-1.242,17.462,17.462,0,0,1,7.377-1.417c.93,0,1.853-.222,2.488.5.335.389.276.806.779,1.133A3.427,3.427,0,0,0,436.559,804.786Z" transform="translate(-359.232 -515.881)"/><path class="b" d="M439.514,600.936a90.5,90.5,0,0,0-13.033-.366,2.554,2.554,0,0,0-.845.132c-.958.389-1.106,1.643-1.2,2.67-.366,4.154-2.2,8.027-3.114,12.1a34.556,34.556,0,0,0-.724,7.786,28.631,28.631,0,0,1-.062,3.5c-.121,1.043-.389,2.059-.537,3.114a27.841,27.841,0,0,0-.187,4.189,42.5,42.5,0,0,0,.389,6.567c.6,3.714-.448,7.4-.732,11.149a66.7,66.7,0,0,1-.9,7.821c-.214,1.09-.483,2.172-.631,3.274-.436,3.274.2,6.649-.487,9.876-.323,1.51-.9,3.208-.051,4.5.269.409.654.724.946,1.113a1.413,1.413,0,0,1,.273,1.367c-.167.354-.557.588-.654.965-.156.6.471,1.086,1.032,1.339a10.755,10.755,0,0,0,12.52-3.095c-.49-.078-1.09-.432-1.1-.927a5.106,5.106,0,0,1,.319-1.452,5.761,5.761,0,0,0,.109-2.577c-.109-.6-.311-1.168-.436-1.771a16.421,16.421,0,0,1-.234-2,32.942,32.942,0,0,0-1.417-7.1c-.7-2.238.261-4.5.51-6.84a13.412,13.412,0,0,1,.455-3.286c.23-.619.607-1.168.837-1.787a8.122,8.122,0,0,0-.109-4.528c2.3-4.154,3.068-9.1,3.936-13.773l1.464-7.864a7.6,7.6,0,0,1,1.168-3.317,40.52,40.52,0,0,1,.888,10.577,15.573,15.573,0,0,0,.039,3.072c.179,1.125.65,2.188.923,3.3.607,2.437.253,5,.389,7.513.051,1.012.183,2.024.226,3.04.191,4.481-1.32,8.841-2.811,13.073-.915,2.6-1.117,5.547-1.557,8.265-.413,2.6-.821,5.209-1.032,7.836-.191,2.414-.272,5.026-1.775,6.922a12.735,12.735,0,0,0,4.4,2.106,8.152,8.152,0,0,0,5.423-1.047,17.13,17.13,0,0,0,4.282-3.644c-.319-.109-.432-.568-.463-.9-.463-4.925,1.405-9.732,2.114-14.637a31.147,31.147,0,0,0,.187-7.42c-.086-.93-.214-1.857-.253-2.791-.183-4.874,2.161-9.565,2.079-14.439-.039-2.281,1.168-4.535,1.756-6.743a24.189,24.189,0,0,0,.541-6.03l.093-15.961a19.858,19.858,0,0,0-.693-6.408c-.856-2.449.121-5.267.269-7.856A32.4,32.4,0,0,1,439.514,600.936Z" transform="translate(-355.802 -391.793)"/><path class="o" d="M510.134,428.19a50.893,50.893,0,0,1,5.96-9.413,15.339,15.339,0,0,0,1.324-1.806,24.972,24.972,0,0,0,1.615-4.745c1.479-4.453,5.17-8.031,6.069-12.636.327-1.67,1.394-3.114,2.122-4.672a5.891,5.891,0,0,1,2.032-2.725,3.463,3.463,0,0,1,4.091.623,4.85,4.85,0,0,1,1.25,4.107,3.43,3.43,0,0,1-.755,1.845,6.766,6.766,0,0,1-2.172,1.3,8.525,8.525,0,0,0-4.185,4.784c-1.3,3.761-1.464,7.739-3.114,11.363s-3.589,7.109-5.018,10.818a37.29,37.29,0,0,1-2.639,6.229,7.667,7.667,0,0,1-5.279,3.87,13.26,13.26,0,0,0-.654-4.142C510.309,431.449,509.426,429.623,510.134,428.19Z" transform="translate(-412.54 -264.902)"/><path class="o" d="M435.916,428.534a21.586,21.586,0,0,0-1.261-8.089,8.009,8.009,0,0,1-.744-3.056,7.468,7.468,0,0,1,.938-2.764,70.006,70.006,0,0,0,3.5-9.53l1.946-6.089a9.729,9.729,0,0,0,1.709-1.616,8.618,8.618,0,0,0,1.982-4.228,5.964,5.964,0,0,0-1.094-4.473,2.585,2.585,0,0,0-1.83-1.109,2.355,2.355,0,0,0-1.709.779,7.529,7.529,0,0,0-1.464,2.5,11.088,11.088,0,0,0-1.222,4.672c.051,1.347.557,2.85-.234,3.944a94.3,94.3,0,0,0-6.595,11.628,20.713,20.713,0,0,0-1.331,2.916,16.163,16.163,0,0,0-.7,5.037,66.992,66.992,0,0,0,.856,9.53c.273,1.978.638,4.134,2.137,5.45A31.862,31.862,0,0,1,435.916,428.534Z" transform="translate(-362.427 -262.341)"/><circle class="o" cx="8.078" cy="8.078" r="8.078" transform="translate(75.319 151.559)"/><path class="o" d="M458.217,489.646a10.778,10.778,0,0,1-1.74,4.029c-.463.779-1.047,1.608-1.946,1.693a38.929,38.929,0,0,0,7.334,2.951,8.341,8.341,0,0,0,2.682.432,6.551,6.551,0,0,0,2.231-.572,11.075,11.075,0,0,0,6.283-7.4,14.575,14.575,0,0,1-3-.23,2.212,2.212,0,0,1-1.471-.72,2.371,2.371,0,0,1-.3-1.3q-.058-2.02,0-4.041a15.963,15.963,0,0,0-5.87.72c-.779.253-1.557.561-2.355.759-.491.121-1.841,0-2.2.284C457.31,486.684,458.361,488.654,458.217,489.646Z" transform="translate(-378.744 -321.504)"/><path class="c" d="M447.5,492.255a5.08,5.08,0,0,0-3.862-4.508,8.934,8.934,0,0,1-2.48-.576c-1.277-.712-1.662-2.449-2.885-3.247a3.411,3.411,0,0,0-4.033.658,8.688,8.688,0,0,0-2.044,3.846,19.367,19.367,0,0,0-1.047,5.9,2.678,2.678,0,0,0,.171,1.082,4.542,4.542,0,0,0,.86,1.078,4.78,4.78,0,0,1,1.168,3.8,10.759,10.759,0,0,0,.346,3.819c.779,3.43,1.557,6.863,2.18,10.324a6.572,6.572,0,0,1,.148,1.946c-.121.934-.642,1.826-.529,2.76a10.464,10.464,0,0,1,.249,1.327,3.218,3.218,0,0,1-.234.985c-.888,2.569-3.274,8.448-3.247,11.161,4.146-1.063,10.258-1.3,14.536-1.316a30.561,30.561,0,0,1,3.531.156c2.815.3,5.7,1.121,8.424.362,2.53-.7,4.777-2.725,7.4-2.468.564-1.491-.105-6.454-.635-7.957a34,34,0,0,1-1.168-18.425c.479-2.2-.179-4.539.354-6.731a4.033,4.033,0,0,1,.58-1.448,1.557,1.557,0,0,1,1.335-.7,49.6,49.6,0,0,0-.973-10.484c-.261-1.226-.8-2.674-2.036-2.885-1.113-.187-2.052.751-2.943,1.444a8.043,8.043,0,0,1-3.114,1.464,2.931,2.931,0,0,0-1.277.463c-.537.444-.611,1.246-1.047,1.787-.779.969-2.519.884-3.072,2a7.013,7.013,0,0,0-.3,1.024,3.745,3.745,0,0,1-1.281,1.654A7.225,7.225,0,0,1,447.5,492.255Z" transform="translate(-364.461 -319.203)"/><path class="p" d="M465.877,446.558a1.477,1.477,0,0,0-.315-1.526c-.214-.167-.491-.23-.72-.389a3.115,3.115,0,0,1-.779-.985,4.227,4.227,0,0,0-5.3-1.335c-1.405.736-2.258,2.207-3.5,3.2-.638.514-1.374.9-2.013,1.405a8.308,8.308,0,0,0-2.6,4.212,23.977,23.977,0,0,0-.7,4.971,4.465,4.465,0,0,0,.058,1.51,3.968,3.968,0,0,0,.572,1.148,12.953,12.953,0,0,0,5.1,4.718,7.91,7.91,0,0,0,6.8.121,1.211,1.211,0,0,0,.522-.42,1.463,1.463,0,0,0,.078-.9,6.17,6.17,0,0,1,.681-3.441c.389-.779.969-1.448,1.285-2.258a8.021,8.021,0,0,0,.366-2.8A29.956,29.956,0,0,1,465.877,446.558Z" transform="translate(-375.917 -295.509)"/><rect class="c" width="19.889" height="19.889" transform="translate(93.701 101.363)"/><path class="o" d="M524.081,362.254a2.612,2.612,0,0,1-1.347,1.222,3.342,3.342,0,0,1-1.07.2,3.02,3.02,0,0,1-1.168-.144,2.681,2.681,0,0,1-1.234-.985,6.227,6.227,0,0,1-.716-1.433,1.587,1.587,0,0,1-.144-.81,1.168,1.168,0,0,0,.779-.44.985.985,0,0,0,.019-.779c-.023-.078-.047-.152-.074-.222-.058-.171-.261-.494-.121-.638s.467-.14.6-.2a5.619,5.619,0,0,1,1.211-.541,2.943,2.943,0,0,1,1.148.074.388.388,0,0,1,.144.054.335.335,0,0,1,.105.156c.109.265.171.557.257.829a1.708,1.708,0,0,0,.428.759,2.148,2.148,0,0,0,.6.358l.522.237a.742.742,0,0,1,.245.16.646.646,0,0,1,.117.319A2.985,2.985,0,0,1,524.081,362.254Z" transform="translate(-417.747 -243.949)"/><path class="d" d="M523.335,358.633a2.706,2.706,0,0,1-3.266.487c-.023-.078-.047-.152-.074-.222-.058-.171-.261-.494-.121-.638s.467-.14.6-.2a5.616,5.616,0,0,1,1.211-.541,2.943,2.943,0,0,1,1.148.074.388.388,0,0,1,.144.055.334.334,0,0,1,.105.156C523.187,358.08,523.249,358.36,523.335,358.633Z" transform="translate(-418.621 -243.967)"/><circle class="o" cx="2.702" cy="2.702" r="2.702" transform="translate(100.066 109.975)"/><path class="q" d="M523.167,368.747H510.453c-.389-.868-.74-1.74-1.133-2.608h0a1.809,1.809,0,0,1,.23-.584.635.635,0,0,1,.522-.292c.113,0,.241.043.323-.039s.054-.148.113-.2a.475.475,0,0,1,.308-.047.7.7,0,0,0,.6-.3.956.956,0,0,1,.152-.2.869.869,0,0,1,.327-.086c.315-.07.5-.389.74-.588a.444.444,0,0,1,.467-.128.289.289,0,0,1,.1.082.879.879,0,0,1,.128.323,2.888,2.888,0,0,0,1.016,1.639,2.3,2.3,0,0,0,3.48-.868,4.534,4.534,0,0,0,.319-1.475v-.066a1.114,1.114,0,0,1,.927.183,5.227,5.227,0,0,0,.825.518c.346.136.779.136,1.016.389.1.1.171.241.3.3a.9.9,0,0,0,.249.058,1.475,1.475,0,0,1,.977.856,6.67,6.67,0,0,1,.545,1.97Z" transform="translate(-412.205 -247.499)"/><path class="b" d="M515.784,343.263a2.045,2.045,0,0,0-.471.545,2.682,2.682,0,0,1-.942.927,1.167,1.167,0,0,0-.432.269.72.72,0,0,0-.113.3,5.691,5.691,0,0,0-.121,1.148,1.226,1.226,0,0,0,.093.568c.078.163.226.3.253.483a1.41,1.41,0,0,1-.047.42.366.366,0,0,0,.144.389.991.991,0,0,0,.218.051c.389.086.522.545.58.923.132,0,.191-.16.222-.284l.389-1.81c.047-.195.117-.424.315-.49a.985.985,0,0,1,.413,0c.537.047.989-.37,1.514-.487a2.065,2.065,0,0,1,.514-.031c.413,0,.9.191.985.576a.194.194,0,0,0,.082.171.327.327,0,0,0,.183,0c.261-.027.417.269.494.51l.273.884c.043.132.113.292.257.308a.272.272,0,0,0,.269-.237,1.079,1.079,0,0,0-.055-.389,4.212,4.212,0,0,1,.191-1.748,1.915,1.915,0,0,0-.265-1.693c-.148-.16-.343-.28-.479-.452s-.2-.354-.331-.514a3.4,3.4,0,0,0-1.888-.825A3.87,3.87,0,0,0,515.784,343.263Z" transform="translate(-414.881 -234.97)"/><g class="r" transform="translate(98.825 110.422)"><path d="M521.085,352.916c-.144,0-.214-.175-.257-.308l-.273-.884c-.078-.241-.234-.537-.494-.514a.327.327,0,0,1-.183,0c-.058-.031-.066-.105-.082-.171-.09-.389-.572-.557-.985-.576a1.9,1.9,0,0,0-.514.035c-.526.113-.977.529-1.514.483a1.137,1.137,0,0,0-.413,0c-.2.07-.269.3-.315.494-.136.6-.269,1.207-.389,1.806-.031.125-.09.276-.222.284-.058-.389-.191-.837-.58-.923a.807.807,0,0,1-.218-.051.245.245,0,0,1-.113-.128,1.259,1.259,0,0,1-.031.167.366.366,0,0,0,.144.389.992.992,0,0,0,.218.051c.389.086.522.545.58.923.132,0,.191-.16.222-.284.136-.6.269-1.207.389-1.81.047-.195.117-.424.315-.491a.986.986,0,0,1,.413,0c.537.047.989-.37,1.514-.487a2.063,2.063,0,0,1,.514-.031c.413,0,.9.191.985.576a.194.194,0,0,0,.082.171.328.328,0,0,0,.183,0c.261-.027.417.269.494.51l.273.884c.043.132.113.292.257.308a.273.273,0,0,0,.269-.237.777.777,0,0,0-.039-.311A.241.241,0,0,1,521.085,352.916Z" transform="translate(-514.187 -350.093)"/><path d="M514.057,352.583c-.027-.179-.175-.319-.253-.483a.99.99,0,0,1-.09-.35v.195a1.227,1.227,0,0,0,.093.568c.062.132.171.249.226.389A.87.87,0,0,0,514.057,352.583Z" transform="translate(-513.711 -350.882)"/><path d="M532.121,349.972a5.063,5.063,0,0,0-.222,1.557,9.468,9.468,0,0,1,.222-1.137,2.979,2.979,0,0,0,.066-.872A3.511,3.511,0,0,1,532.121,349.972Z" transform="translate(-524.818 -349.52)"/></g><path class="q" d="M510.083,372.724H507.05a9.532,9.532,0,0,1,.712-2.367.54.54,0,0,1,.128-.206.186.186,0,0,1,.043-.035c.09-.07.214-.1.311-.163s.109-.136.2-.164a2.689,2.689,0,0,1,.989.164.987.987,0,0,1,.261.066.88.88,0,0,1,.413.506A4.776,4.776,0,0,1,510.083,372.724Z" transform="translate(-410.819 -251.476)"/></g></svg>