<svg xmlns="http://www.w3.org/2000/svg" width="320" height="251.239" viewBox="0 0 320 251.239"><defs><style>.a{fill:#3f3d56;}.b{fill:#e6e6e6;}.c{fill:#fff;}.d{fill:#ffb9b9;}.e{fill:#3182ce;}.f{fill:#2f2e41;}</style></defs><g transform="translate(0 0)"><path class="a" d="M282.312,439.629a1.222,1.222,0,0,0-1.221,1.221V567.1a1.223,1.223,0,0,0,1.221,1.221h158.3a1.222,1.222,0,0,0,1.221-1.221V461.116a1.222,1.222,0,0,0-1.221-1.221H349.757a3.7,3.7,0,0,1-2.494-.964l-20.425-18.558a2.858,2.858,0,0,0-1.926-.744Z" transform="translate(-255.729 -318.388)"/><path class="b" d="M391.206,400.822a.866.866,0,0,0-1.184.307L343.145,480.9a.866.866,0,0,0,.307,1.184l64.264,37.765a.866.866,0,0,0,1.184-.307l46.878-79.771a.866.866,0,0,0-.307-1.184Z" transform="translate(-291.516 -295.896)"/><path class="c" d="M397.373,409.793a.866.866,0,0,0-1.184.307l-44.074,75a.866.866,0,0,0,.307,1.184l59.493,34.961a.866.866,0,0,0,1.184-.307l44.074-75a.866.866,0,0,0-.307-1.184Z" transform="translate(-296.7 -301.08)"/><path class="b" d="M431.976,494.406l43.837,25.761a1.3,1.3,0,0,0,1.314-2.237L433.29,492.169a1.3,1.3,0,1,0-1.314,2.237Z" transform="translate(-342.543 -348.643)"/><path class="b" d="M460.508,444.658l29.083,17.091c.41.241,1.036-.065,1.4-.682s.325-1.313-.085-1.554l-29.083-17.091c-.41-.241-1.036.065-1.4.682S460.1,444.417,460.508,444.658Z" transform="translate(-359.206 -319.954)"/><path class="b" d="M451.584,459.844l29.083,17.091c.41.241,1.036-.065,1.4-.682s.325-1.314-.085-1.554L452.9,457.608c-.41-.241-1.036.065-1.4.682S451.174,459.6,451.584,459.844Z" transform="translate(-354.05 -328.729)"/><path class="b" d="M421.91,511.535,465.747,537.3a1.3,1.3,0,1,0,1.314-2.237L423.225,509.3a1.3,1.3,0,0,0-1.314,2.237Z" transform="translate(-336.727 -358.54)"/><path class="b" d="M411.844,528.664l43.837,25.761A1.3,1.3,0,1,0,457,552.188l-43.837-25.761a1.3,1.3,0,0,0-1.314,2.237Z" transform="translate(-330.911 -368.438)"/><path class="b" d="M401.779,545.793l43.837,25.761a1.3,1.3,0,1,0,1.314-2.237l-43.837-25.761a1.3,1.3,0,0,0-1.314,2.236Z" transform="translate(-325.095 -378.335)"/><path class="b" d="M391.713,562.922l43.837,25.761a1.3,1.3,0,1,0,1.314-2.237l-43.837-25.761a1.3,1.3,0,0,0-1.314,2.237Z" transform="translate(-319.278 -388.233)"/><path class="b" d="M381.647,580.051l43.837,25.761a1.3,1.3,0,0,0,1.314-2.237l-43.837-25.761a1.3,1.3,0,0,0-1.314,2.237Z" transform="translate(-313.462 -398.13)"/><circle class="b" cx="6.831" cy="6.831" r="6.831" transform="translate(132.642 143.213)"/><path class="b" d="M503.889,539.457" transform="translate(-384.465 -376.07)"/><path class="b" d="M300.188,455.374a.866.866,0,0,0-1.026.666l-19.249,90.5a.866.866,0,0,0,.666,1.026l72.908,15.507a.866.866,0,0,0,1.026-.666l19.249-90.5a.866.866,0,0,0-.666-1.026Z" transform="translate(-255.038 -327.475)"/><path class="c" d="M306.81,463.148a.866.866,0,0,0-1.026.666l-18.1,85.088a.866.866,0,0,0,.666,1.026l67.5,14.356a.866.866,0,0,0,1.026-.666l18.1-85.088a.866.866,0,0,0-.666-1.026Z" transform="translate(-259.53 -331.967)"/><path class="b" d="M383.825,561.913l-49.733-10.578a1.3,1.3,0,1,1,.54-2.537l49.733,10.578a1.3,1.3,0,1,1-.54,2.537Z" transform="translate(-285.76 -381.451)"/><path class="b" d="M420.222,511.027l-32.995-7.018c-.465-.1-.721-.747-.572-1.448s.647-1.189,1.112-1.09l32.995,7.018c.465.1.721.747.572,1.448S420.686,511.126,420.222,511.027Z" transform="translate(-316.701 -354.115)"/><path class="b" d="M416.557,528.256l-32.995-7.018c-.465-.1-.721-.747-.572-1.448s.647-1.189,1.112-1.09l32.995,7.018c.465.1.721.747.572,1.448S417.021,528.355,416.557,528.256Z" transform="translate(-314.584 -364.07)"/><path class="b" d="M379.692,581.346l-49.733-10.578a1.3,1.3,0,0,1,.54-2.537l49.733,10.578a1.3,1.3,0,0,1-.54,2.537Z" transform="translate(-283.372 -392.679)"/><path class="b" d="M375.559,600.779,325.826,590.2a1.3,1.3,0,0,1,.54-2.537L376.1,598.241a1.3,1.3,0,1,1-.54,2.537Z" transform="translate(-280.984 -403.908)"/><path class="b" d="M371.426,620.212l-49.733-10.578a1.3,1.3,0,0,1,.54-2.537l49.733,10.578a1.3,1.3,0,1,1-.54,2.537Z" transform="translate(-278.596 -415.137)"/><path class="b" d="M367.293,639.645,317.56,629.067a1.3,1.3,0,0,1,.54-2.537l49.733,10.578a1.3,1.3,0,0,1-.54,2.537Z" transform="translate(-276.208 -426.366)"/><path class="b" d="M363.159,659.078,313.426,648.5a1.3,1.3,0,0,1,.54-2.537L363.7,656.541a1.3,1.3,0,1,1-.54,2.537Z" transform="translate(-273.819 -437.594)"/><circle class="b" cx="6.831" cy="6.831" r="6.831" transform="translate(51.42 143.017)"/><path class="b" d="M372.706,562.761" transform="translate(-308.666 -389.536)"/><path class="d" d="M694.33,445.988h0a5.313,5.313,0,0,0,8.134-1.477l5.6-10.266-4.238-3.513-9.238,7a5.313,5.313,0,0,0-.262,8.258Z" transform="translate(-493.441 -313.247)"/><path class="e" d="M712.393,336.466l6.544,5.277,35.675-27.653L752.5,265.961h0a19.436,19.436,0,0,0-7.187,13.131L739.2,306.28Z" transform="translate(-504.942 -218.04)"/><path class="d" d="M643.4,439.19h8.866l.844-77.682H635.375Z" transform="translate(-367.13 -208.885)"/><path class="d" d="M591.4,441.1h8.866l.844-82.748-17.732-.844Z" transform="translate(-337.084 -206.574)"/><path class="f" d="M791.866,462.357l21.954.844.844-4.644,1.266,6.333,20.265-.844c0-20.533-.442-43.222,2.111-51.084L791.443,417.6C787.753,433.514,787.3,448.585,791.866,462.357Z" transform="translate(-548.952 -302.979)"/><path class="f" d="M876.459,711.365h0c4.739,0,8.454,1.84,8.023-2.879l-1.228-15.958a3.488,3.488,0,0,0-2.191-3.116h0q-5.066-5.939-10.132-1.267h0a8.407,8.407,0,0,0-1.831,4.811l-.687,15.849C868.176,713.411,871.847,711.365,876.459,711.365Z" transform="translate(-595.087 -460.796)"/><path class="f" d="M777.876,715.987l22.533-.6a3.82,3.82,0,0,0,3.292-3.9l.425-11.011A2.084,2.084,0,0,0,802.2,698.3l-3.465-.266c-.411-3.77-2.706-4.685-5.91-4.222l-10.132,11.4-6.677,1.869a4.561,4.561,0,0,0-3.28,5.068h0A4.561,4.561,0,0,0,777.876,715.987Z" transform="translate(-539.782 -465.194)"/><circle class="d" cx="13.088" cy="13.088" r="13.088" transform="translate(250.935 5.703)"/><path class="d" d="M830.393,229.426l22.376-6.333c-5-1.947-6.936-5.342-5.911-10.132H832.082C833.981,220.177,833.989,226.066,830.393,229.426Z" transform="translate(-573.125 -187.415)"/><path class="e" d="M792.393,319.664c12.628,1.614,24.262-3.276,35.252-6.966,4.961-1.666,9.959.073,14.565-2.744-1.992-19.618-.058-41.715,4.173-65.264a5.58,5.58,0,0,0-3.794-6.31L828.7,233.961l-12.243,4.222-6.333,1.267-13.04,8.811a4.767,4.767,0,0,0-2.03,4.762,156.3,156.3,0,0,1-2.662,66.641Z" transform="translate(-551.168 -199.55)"/><path class="d" d="M655.375,267.352l4.222,10.977L663.819,272l-5.489-5.488Z" transform="translate(-378.686 -153.993)"/><path class="f" d="M812.676,166.577c5.089-3.266,10.163-4.342,15.225-3.423a11.434,11.434,0,0,1,8.976,14.088l-.032.123.757-1.422a19.1,19.1,0,0,0,1.945-12.31h0a13.549,13.549,0,0,0-13.9-11.169l-2.848.119a13.65,13.65,0,0,0-13.009,12.234h0a1.876,1.876,0,0,0,2.891,1.76Z" transform="translate(-561.211 -152.453)"/><path class="e" d="M881.393,317.843l5.91,7.6,20.687-30.819L906.2,263.313a23.683,23.683,0,0,0-12.143-19.351h0l.422,48.129Z" transform="translate(-602.594 -205.328)"/><path class="e" d="M495.68,354.22a.866.866,0,0,0-1.193.267l-49.549,78.14a.866.866,0,0,0,.267,1.193l62.95,39.918a.866.866,0,0,0,1.193-.267l49.549-78.14a.866.866,0,0,0-.267-1.193Z" transform="translate(-350.325 -268.96)"/><path class="c" d="M501.761,363.265a.866.866,0,0,0-1.193.267L453.982,437a.866.866,0,0,0,.267,1.193l58.276,36.954a.866.866,0,0,0,1.193-.267L560.3,401.412a.866.866,0,0,0-.267-1.193Z" transform="translate(-355.551 -274.186)"/><path class="e" d="M579.875,474.208l-42.94-27.229a1.3,1.3,0,0,1,1.389-2.191l42.94,27.229a1.3,1.3,0,1,1-1.389,2.191Z" transform="translate(-403.211 -321.252)"/><path class="e" d="M631.584,439.107,603.1,421.042c-.4-.255-.416-.951-.032-1.556s1.02-.889,1.421-.635l28.488,18.065c.4.255.416.951.032,1.556S631.986,439.361,631.584,439.107Z" transform="translate(-441.61 -306.329)"/><path class="e" d="M622.151,453.982l-28.488-18.065c-.4-.255-.416-.951-.032-1.556s1.02-.889,1.421-.635l28.488,18.065c.4.254.416.951.032,1.556S622.553,454.237,622.151,453.982Z" transform="translate(-436.159 -314.923)"/><path class="e" d="M569.234,490.987l-42.94-27.229a1.3,1.3,0,1,1,1.389-2.191l42.94,27.229a1.3,1.3,0,1,1-1.389,2.191Z" transform="translate(-397.063 -330.948)"/><path class="e" d="M558.594,507.765l-42.94-27.229a1.3,1.3,0,1,1,1.389-2.191l42.941,27.229a1.3,1.3,0,1,1-1.389,2.191Z" transform="translate(-390.915 -340.642)"/><path class="e" d="M547.955,524.544l-42.94-27.229a1.3,1.3,0,1,1,1.389-2.191l42.94,27.229a1.3,1.3,0,0,1-1.389,2.191Z" transform="translate(-384.768 -350.337)"/><path class="e" d="M537.315,541.323l-42.94-27.229a1.3,1.3,0,0,1,1.389-2.191l42.94,27.229a1.3,1.3,0,0,1-1.389,2.191Z" transform="translate(-378.62 -360.033)"/><path class="e" d="M526.677,558.1l-42.94-27.229a1.3,1.3,0,1,1,1.389-2.191l42.94,27.229a1.3,1.3,0,0,1-1.389,2.191Z" transform="translate(-372.473 -369.727)"/><circle class="e" cx="6.831" cy="6.831" r="6.831" transform="translate(143.165 103.566)"/><path class="b" d="M569.884,470.625" transform="translate(-422.598 -336.298)"/><path class="b" d="M256.828,518.175a1.221,1.221,0,0,0-1.213,1.358L266.2,613.469a1.22,1.22,0,0,0,1.213,1.084H426.057a1.22,1.22,0,0,0,1.213-1.084l10.584-93.937a1.221,1.221,0,0,0-.3-.95,1.207,1.207,0,0,0-.91-.407Z" transform="translate(-241.004 -363.773)"/><path class="c" d="M290.9,551.618l50.845-.275a1.3,1.3,0,1,0-.014-2.594l-50.845.275a1.3,1.3,0,1,0,.014,2.594Z" transform="translate(-260.643 -381.439)"/><path class="c" d="M290.9,570.618l30.158-.275a1.3,1.3,0,0,0-.014-2.594l-30.158.275a1.3,1.3,0,1,0,.014,2.594Z" transform="translate(-260.643 -392.417)"/><path class="a" d="M319.833,593.834H0v-.921H320Z" transform="translate(0 -342.595)"/></g></svg>