<svg xmlns="http://www.w3.org/2000/svg" width="950" height="664.698" viewBox="0 0 950 664.698"><defs><style>.a,.l{fill:#6c63ff;}.a,.h,.n{opacity:0.1;}.b{fill:#aaabb0;}.c{fill:#33323d;}.d{fill:#444053;}.e{fill:#4c4981;}.f{fill:#ffb9b9;}.g{fill:#504f60;}.i{fill:#ae6e79;}.j{fill:#767d9f;}.k{fill:#fff;}.m{fill:#b96b6b;}.o{fill:#464a5f;}.p{fill:#9c9ca1;}.q{fill:#939498;}</style></defs><g transform="translate(0 -0.01)"><path class="a" d="M462.076,96.263C423.46,81.577,382.652,69.309,341,70.851c-61.25,2.261-120.047,36.724-148.841,87.328-24.43,42.875-27.444,93.129-37.968,140.709C141.235,357.5,116.384,413.223,89.851,467.7,75.6,496.967,60.566,526.865,58.227,558.944c-3.242,44.54,19.514,88.923,55.2,118.549s83.087,45.259,130.659,48.667c25.315,1.814,51.769.131,74.254-10.892,23.79-11.663,41.132-32.737,65.018-44.233,22.134-10.655,48.028-12.145,72.878-10.76A345.807,345.807,0,0,1,551.384,679.2c34.735,12.2,67.034,29.872,101.646,42.244s73.378,19.278,108.8,8.955c33.3-9.7,59.586-33.254,83.288-57.106a1012.228,1012.228,0,0,0,106.22-125.647c21.39-29.977,41.3-61.6,50.753-96.537,18.086-66.8-6.8-142.155-62-187.773-45.732-37.793-107.1-54.2-167.181-64.151-54.784-9.078-118.128-9.639-168.557-33.3C556.265,143.3,512.5,115.453,462.076,96.263Z" transform="translate(-57.92 -70.71)"/><path class="b" d="M632.58,618.67V650.5h9.052l-1.753-34.174Z" transform="translate(-78.277 -76.265)"/><path class="b" d="M477.41,611.34v31.834h9.061L484.718,609Z" transform="translate(-59.076 -75.358)"/><rect class="b" width="11.681" height="56.668" rx="5.84" transform="translate(564.818 483.406)"/><rect class="b" width="11.681" height="69.224" rx="5.84" transform="translate(414.978 470.841)"/><path class="b" d="M732.84,235.068s11.68-4.968,13.433,0,2.629,47.9,2.629,47.9H737.8Z" transform="translate(-141.436 -90.774)"/><path class="b" d="M584.571,235.068s-11.689-4.968-13.442,0-2.629,47.9-2.629,47.9h11.1Z" transform="translate(-121.1 -90.774)"/><path class="b" d="M530.662,115.876l-1.753,35.637H536.8V115Z" transform="translate(-65.449 -14.229)"/><path class="c" d="M581.17,281.582l2.34-51.41s-.876-11.391,26.866-7.886S719.329,232.8,719.329,232.8v48.781Z" transform="translate(-122.668 -89.382)"/><path class="c" d="M687.133,598.72l-4.381,78.565s-64.265,35.637-142.252,1.753l7.01-82.657Z" transform="translate(-117.636 -135.757)"/><path class="d" d="M580.25,173.021l1.455,50.823h90.552L667,156.67Z" transform="translate(-71.802 -19.386)"/><rect class="e" width="85.295" height="108.069" transform="translate(432.354 429.367)"/><path class="f" d="M612.835,610.023s12.268-9.639,14.309-6.721-7.29,15.483-11.093,14.02S612.835,610.023,612.835,610.023Z" transform="translate(-126.583 -136.545)"/><rect class="g" width="559.902" height="280.402" transform="translate(266.829 189.273)"/><path class="c" d="M581.225,174.6s-4.381-40.895,0-45.855,77.987-52,146.046,3.207c0,0,6.423.3,5.258,14.9a175.254,175.254,0,0,0,.14,27.751S586.193,185.116,581.225,174.6Z" transform="translate(-122.434 -74.995)"/><path class="h" d="M581.225,174.6s-4.381-40.895,0-45.855,77.987-52,146.046,3.207c0,0,6.423.3,5.258,14.9a175.254,175.254,0,0,0,.14,27.751S586.193,185.116,581.225,174.6Z" transform="translate(-122.434 -74.995)"/><path class="c" d="M581.225,180.6s-4.381-40.895,0-45.855,77.987-52,146.046,3.207c0,0,6.423.3,5.258,14.9a175.253,175.253,0,0,0,.14,27.751S586.193,191.116,581.225,180.6Z" transform="translate(-122.434 -75.738)"/><path class="e" d="M751.483,169.05s4.67,17.525,3.216,20.443-1.192,11.1-1.192,11.1.315,5.258-2.024,5.836-4.381.876-2.489,2.629,0,4.381,0,4.381-1.025,4.092,0,6.721-5.994,3.724-5.4,7.01,2.559,12.557,0,12.855.876,11.68-1.428,11.68-3.943,20.443-3.943,20.443-16.211-13.722-27.015-9.928c0,0,.876-11.391,4.381-15.483s2.445-14.6,2.445-14.6l17.385-52.286Z" transform="translate(-138.76 -82.878)"/><path class="i" d="M654.213,436.074c-3.794,4.2-7.886-18.217-7.886-18.217s-10.8,14.9-17.814,4.968c-4.854-6.879-1.025-26.367,1.752-37.679,1.244-5.03,2.3-8.447,2.3-8.447l15.773-2.629s.053,3.435.4,7.606c.473,5.634,1.5,12.627,3.68,14.3C656.263,398.877,658.016,431.842,654.213,436.074Z" transform="translate(-128.239 -108.247)"/><path class="h" d="M642.631,144.225s-27.462-.289-34.174,14.309-7.01,19.576-9.639,21.906,28.619,14.607,28.619,14.607l1.463,50.236a16.693,16.693,0,0,1,16.062-3.4c9.928,2.813,22.494,0,22.494,0s-.587-1.06,7.6,0,34.174-12.662,34.174-12.662.429-21.977-.149-26.656S727.619,163.5,727.619,163.5s14.9-14.309-.578-19.278c0,0-5.477-8.254-19.567-8.175S642.631,144.225,642.631,144.225Z" transform="translate(-124.833 -78.794)"/><path class="e" d="M642.631,143.225s-27.462-.289-34.174,14.309-7.01,19.576-9.639,21.906,28.619,14.607,28.619,14.607l1.463,50.236a16.693,16.693,0,0,1,16.062-3.4c9.928,2.813,22.494,0,22.494,0s-.587-1.06,7.6,0,34.174-12.662,34.174-12.662,10.217-16.649,9.639-21.319,20.443-40.019,20.443-40.019,3.216-18.691-12.268-23.659c0,0-5.477-8.254-19.567-8.175S642.631,143.225,642.631,143.225Z" transform="translate(-124.833 -78.67)"/><path class="h" d="M649.391,381.651c-6.02-1.875-15.466,2.261-18.471,3.505,1.244-5.03,2.3-8.447,2.3-8.447l15.773-2.629S649.015,377.515,649.391,381.651Z" transform="translate(-128.824 -108.248)"/><path class="e" d="M607.195,185.71H598.73s-1.753,17.823,0,23.081,2.629,4.5,2.042,8.386,4.092,9.849,4.092,9.849.578,14.686,3.505,20.154-3.216,29.986-3.216,29.986a35.28,35.28,0,0,0,7.3,11.391c4.968,4.96,7.6,23.361,6.134,30.371s4.092,9.639,4.092,9.639,2.34,32.719,3.216,32.719,17.814-8.763,23.072-1.174l-4.092-30.082.3-58.122s-5.555-7.308-2.629-13.731-2.34-21.617-2.34-21.617l-7.6-33.876Z" transform="translate(-124.745 -84.939)"/><path class="c" d="M545.92,712.545s-12.268-2.629-12.557,0-14.607,29.5,3.216,37.39,65.421,24.824,142.83,2.918c0,0,4.96,1.753,3.794-9.052s-1.165-22.783-1.165-22.783-11.689-3.216-20.452-2.042S576.589,735.626,545.92,712.545Z" transform="translate(-116.046 -149.987)"/><path class="h" d="M545.92,712.545s-12.268-2.629-12.557,0-14.607,29.5,3.216,37.39,65.421,24.824,142.83,2.918c0,0,4.96,1.753,3.794-9.052s-1.165-22.783-1.165-22.783-11.689-3.216-20.452-2.042S576.589,735.626,545.92,712.545Z" transform="translate(-116.046 -149.987)"/><path class="c" d="M545.92,708.545s-12.268-2.629-12.557,0-14.607,29.5,3.216,37.39,65.421,24.824,142.83,2.918c0,0,4.96,1.752,3.794-9.052s-1.165-22.783-1.165-22.783-11.689-3.216-20.452-2.042S576.589,731.626,545.92,708.545Z" transform="translate(-116.046 -149.492)"/><path class="d" d="M629.751,197.443c-.754,4.285-2.462,8.4-2.725,12.741s1.411,9.271,5.415,10.971a18.256,18.256,0,0,1,3.233,1.314c1.542,1.043,2.173,3.006,2.5,4.846a26.465,26.465,0,0,1,.307,7.2c-.219,2.418-.736,5.021.456,7.133,2.094,3.742,7.553,3.19,11.707,2.138l-1.428,11.067a2.1,2.1,0,0,0,2.559,2.918c3.61-.228,7.326-.727,10.419-2.629s5.4-5.442,4.811-9.008c-.683-4.136-4.96-7.422-4.381-11.575.447-3.216,3.593-5.258,5.661-7.729,3.742-4.521,3.943-11.391,1.008-16.509s-8.6-8.289-14.441-8.868c-3.233-.324-6.6.07-9.639-1.051a7.308,7.308,0,0,1-4.469-4.714" transform="translate(-128.339 -86.174)"/><path class="j" d="M513.84,637.97l3.058-6.66s16.509-15.378,20.3-16.456,19.278-5.775,21.617-5.775,44.987-2.34,44.987-2.34l4.96,11.689L555.243,630.18,537.2,643.324Z" transform="translate(-114.337 -137.038)"/><path class="f" d="M656.062,434.4l-2.8,21.512-1.078,8.281-12.557,1.753s-1.358-2.909-3.277-7.378c-5.827-13.564-16.8-41.535-10.436-46.363,8.456-6.432,10.515,14.9,10.515,14.9l9.639-4.679Z" transform="translate(-127.968 -112.817)"/><rect class="k" width="63.415" height="95.801" transform="translate(462.585 361.606)"/><rect class="h" width="63.415" height="95.801" transform="translate(462.585 361.606)"/><rect class="k" width="63.415" height="95.801" transform="translate(491.769 357.522) rotate(8.41)"/><rect class="l" width="32.641" height="49.307" transform="translate(497.674 366.561) rotate(8.41)"/><rect class="l" width="39.545" height="10.708" transform="translate(487 429.219) rotate(8.41)"/><circle class="h" cx="36.654" cy="36.654" r="36.654" transform="translate(505.969 46.592)"/><circle class="i" cx="36.654" cy="36.654" r="36.654" transform="translate(505.969 45.716)"/><path class="d" d="M639.737,182.94a4.171,4.171,0,0,1,.254-2.83c1.393-2.9,5.363-3.155,8.578-3.006,7.562.35,15.86.394,21.775-4.381,2.453-1.963,5.2-6.9,8.763-5.959,3.172.832,4.5,5.135,7.8,6.09,2.392.692,4.872-.412,7.308-.876,3.505-.692,7.1-.114,10.655-.088s7.422-.648,9.849-3.251c3.277-3.505,2.743-8.982,2.453-13.784a74.208,74.208,0,0,1,1.253-18.524c1.192-6.064,3.023-12.846-.324-18.042-3.19-4.951-9.8-6.309-14.309-10.1-4.224-3.505-6.458-9.122-10.918-12.373-5.617-4.092-13.249-3.505-20.154-2.8l-14.984,1.595c-3.864.412-7.886.876-11.067,3.181-5.74,4.153-6.528,12.785-11.961,17.332-2.419,2.015-5.512,3.014-8.272,4.521s-5.424,3.891-5.74,7.01c-.263,2.629,1.157,5.056,1.849,7.588,1.639,6.046-.92,12.268-2.559,18.358s-1.954,13.486,2.8,17.525c.964.824,2.086,1.455,3.023,2.313,3.216,2.935,3.654,7.886,2.909,12.162" transform="translate(-127.336 -73.407)"/><ellipse class="d" cx="0.876" cy="2.191" rx="0.876" ry="2.191" transform="translate(544.734 123.773)"/><ellipse class="d" cx="0.876" cy="2.191" rx="0.876" ry="2.191" transform="translate(544.734 132.903)"/><path class="i" d="M657.2,441.862c.938-1.078,1.56-3.847,1.919-7.5L648.67,421.34S653.1,446.585,657.2,441.862Z" transform="translate(-131.021 -114.097)"/><path class="h" d="M651.417,682.109s-17.14,26.5-70.688,23.659c-50.446-2.629-75.069-27.453-73.895-36.216s-3.216-30.091,7.588-36.225c6.265-3.549,14.511-1.446,20.329.955a11.479,11.479,0,0,0,12.066-2.164c5.319-4.793,15.238-10.191,30.9-5.941a11.128,11.128,0,0,0,6.134-.114c6.519-1.989,22.038-5.442,33.3,2.226a11.391,11.391,0,0,0,12.2.464l.158-.1c5.258-3.216,29.793,27.164,29.793,27.164S660.469,679.191,651.417,682.109Z" transform="translate(-113.465 -139.118)"/><path class="j" d="M651.417,683.109s-17.14,26.5-70.688,23.659c-50.446-2.629-75.069-27.453-73.895-36.216s-3.216-30.091,7.588-36.224c6.265-3.549,14.511-1.446,20.329.955a11.479,11.479,0,0,0,12.066-2.164c5.319-4.793,15.238-10.191,30.9-5.941a11.129,11.129,0,0,0,6.134-.114c6.519-1.989,22.038-5.442,33.3,2.226a11.391,11.391,0,0,0,12.2.464l.158-.1c5.258-3.216,29.793,27.164,29.793,27.164S660.469,680.191,651.417,683.109Z" transform="translate(-113.465 -139.241)"/><circle class="h" cx="34.91" cy="34.91" r="34.91" transform="translate(432.354 484.423)"/><circle class="f" cx="34.91" cy="34.91" r="34.91" transform="translate(432.354 485.299)"/><path class="m" d="M575.684,629.823c-3.663.99-7.273,2.883-9.061,5.994-1.078,1.875-1.455,4.127-3.014,5.687-2.208,2.217-5.932,2.261-8.92,3.505s-4.96,5.625-2.033,7.01c-3.049.158-5.31,2.971-5.687,5.766s.683,5.582,1.709,8.246c3.347,8.622,6.949,17.622,14.327,23.755,12.022,10.007,30.143,9.542,46.293,8.482a7.571,7.571,0,0,0,3.794-.876c1.753-1.157,1.972-3.374,2.261-5.319,1.218-8.307,5.722-15.852,8.666-23.782s4.154-17.245-.806-24.264C615.913,633.617,587.969,626.493,575.684,629.823Z" transform="translate(-118.427 -139.793)"/><path class="h" d="M655.012,462.192l-1.078,8.281-12.557,1.753s-1.358-2.909-3.277-7.378l16.71-3.137Z" transform="translate(-129.713 -119.092)"/><path class="j" d="M667.93,645.269l7.308-8.473-1.463-46.731a75.8,75.8,0,0,0,1.463-10.226c.289-4.968-3.654-16.062-3.654-16.062a34.791,34.791,0,0,1,2.48-6.432c1.753-3.5-2.471-11.391-2.471-11.391s-6.292-20.443-3.663-30.669-.64-16.062-.64-16.062-2.567-11.391-2.278-16.062-5.845-9.061-5.845-9.061L654.5,462.71l-18.691,3.505v39.432s1.165,37.679,0,44.987,2.331,14.309,2.331,14.309-2.042,10.8-.289,14.9,5.258,14.02,5.258,14.02a22.783,22.783,0,0,0,.587,10.655c1.752,5.117,0,8.035,0,8.035Z" transform="translate(-129.4 -119.216)"/><g class="n" transform="translate(491.592 50.719)"><path d="M732.321,137.913A74.183,74.183,0,0,0,731,153.484a74.545,74.545,0,0,1,1.358-12.934c.771-3.891,1.753-8.079,1.542-11.961A72.73,72.73,0,0,1,732.321,137.913Z" transform="translate(-632.799 -128.59)"/><path d="M625.844,178.945c-.938-.876-2.059-1.49-3.023-2.322-2.559-2.182-3.636-5.345-3.847-8.763-.254,4.381.64,8.622,3.847,11.391.964.832,2.085,1.463,3.023,2.322a10.708,10.708,0,0,1,3.172,7.317C629.27,185.21,628.525,181.381,625.844,178.945Z" transform="translate(-618.934 -133.449)"/><path d="M623.3,141.6a16.517,16.517,0,0,0-.473-5.512c-.508-1.875-1.419-3.707-1.753-5.591a5.813,5.813,0,0,1-.1.631c-.254,2.629,1.165,5.056,1.849,7.588A14.9,14.9,0,0,1,623.3,141.6Z" transform="translate(-619.183 -128.826)"/><path d="M716.141,175.011c-2.427,2.629-6.292,3.277-9.849,3.251s-7.159-.6-10.655.1c-2.436.491-4.916,1.586-7.308.876-3.3-.955-4.627-5.258-7.79-6.09-3.6-.946-6.344,3.987-8.763,5.95-5.915,4.732-14.213,4.688-21.775,4.381-3.216-.149-7.185.105-8.57,3.014a4.066,4.066,0,0,0-.254,2.83L630.469,191a20.779,20.779,0,0,1-.289,2.629l11-1.753a4.066,4.066,0,0,1,.254-2.83c1.384-2.909,5.354-3.163,8.57-3.014,7.562.35,15.86.394,21.775-4.381,2.454-1.963,5.2-6.9,8.763-5.95,3.163.824,4.486,5.135,7.79,6.09,2.392.683,4.872-.412,7.308-.876,3.505-.7,7.1-.123,10.655-.1s7.422-.648,9.849-3.251,2.778-6.484,2.629-10.27C718.664,170.235,718.06,172.952,716.141,175.011Z" transform="translate(-620.325 -133.38)"/></g><g class="n" transform="translate(498.827 126.436)"><path d="M634.656,223.333a17.724,17.724,0,0,0-3.233-1.314,8.368,8.368,0,0,1-4.232-4.329c.657,3.023,2.322,5.775,5.109,6.957a17.726,17.726,0,0,1,3.233,1.314,4.854,4.854,0,0,1,1.551,1.814A6.761,6.761,0,0,0,634.656,223.333Z" transform="translate(-627.19 -215.333)"/><path d="M651.162,248.2c-4.04,1.025-9.315,1.56-11.532-1.866a6.02,6.02,0,0,0,.7,2.357c1.893,3.374,6.519,3.26,10.454,2.427Z" transform="translate(-628.729 -218.877)"/><path d="M669.053,251.2c.561,3.558-1.753,7.106-4.819,8.973s-6.809,2.383-10.419,2.629a3.575,3.575,0,0,1-1.7-.193,2.085,2.085,0,0,0,2.576,2.822c3.61-.228,7.326-.727,10.419-2.629s5.406-5.442,4.811-9.008a9.94,9.94,0,0,0-.867-2.594Z" transform="translate(-630.252 -219.479)"/><path d="M674.734,215a14.423,14.423,0,0,1-2.629,12.4c-2.068,2.506-5.214,4.513-5.661,7.729a7.3,7.3,0,0,0,.876,4.267,5.7,5.7,0,0,1,0-1.639c.447-3.216,3.593-5.258,5.661-7.729C676.382,225.918,676.855,219.863,674.734,215Z" transform="translate(-632.043 -215)"/></g><g class="n" transform="translate(428.462 488.817)"><path d="M555.312,646.3c2.979-1.235,6.7-1.279,8.92-3.505,1.56-1.56,1.937-3.812,3.014-5.678,1.753-3.12,5.389-5,9.052-5.994,12.268-3.33,40.238,3.785,47.528,14.1a19.148,19.148,0,0,1,3.347,10.585,19.786,19.786,0,0,0-3.339-12.329c-7.29-10.314-35.234-17.429-47.528-14.1-3.663.99-7.273,2.874-9.052,5.994-1.078,1.866-1.455,4.118-3.014,5.678-2.217,2.217-5.941,2.261-8.92,3.505-2.27.938-3.952,3.707-3.339,5.564a6.028,6.028,0,0,1,3.33-3.82Z" transform="translate(-547.503 -628.555)"/><path d="M546.986,662.314c.368-2.8,2.629-5.608,5.687-5.766a2.331,2.331,0,0,1-1.341-1.5,6.809,6.809,0,0,0-4.381,5.512,9.263,9.263,0,0,0,0,2.147A1.5,1.5,0,0,0,546.986,662.314Z" transform="translate(-546.889 -631.833)"/></g><rect class="k" width="79.739" height="103.985" transform="translate(534.438 201.751)"/><rect class="h" width="79.739" height="103.985" transform="translate(534.438 201.751)"/><rect class="k" width="79.739" height="103.985" transform="translate(566.06 221.371) rotate(-9.76)"/><rect class="l" width="18.734" height="24.43" transform="translate(585.106 291.232) rotate(-9.76)"/><rect class="l" width="18.734" height="24.43" transform="translate(610.655 286.833) rotate(-9.76)"/><rect class="l" width="65.698" height="24.54" transform="translate(582.422 259.499) rotate(-9.744)"/><rect class="l" width="65.698" height="5.475" transform="translate(577.025 230.633) rotate(-9.744)"/><rect class="l" width="65.698" height="5.475" transform="translate(579.148 240.559) rotate(-9.744)"/><path class="i" d="M715.693,268.71s-36.654,36.8-18.252,46.152,30.38-31.107,30.38-31.107l2.909-9.2Z" transform="translate(-136.416 -95.21)"/><path class="h" d="M714.7,264.253l-4.53,10.007s22.345,3.137,27.015,9.893L734.416,266.5l-3.286-7.536Z" transform="translate(-138.631 -94.003)"/><path class="e" d="M715.7,263.253l-4.53,10.007s22.344,3.137,27.015,9.893L735.416,265.5l-3.286-7.536Z" transform="translate(-138.755 -93.88)"/><path class="o" d="M812.712,403.26l-.482.333.666.3.719-.061.088-.5Z" transform="translate(-100.507 -49.899)"/><path class="h" d="M812.712,403.26l-.482.333.666.3.719-.061.088-.5Z" transform="translate(-100.507 -49.899)"/><path class="p" d="M812.656,403.173l-.491.315-.385-.473.237-.386.219-.07Z" transform="translate(-100.452 -49.813)"/><path class="h" d="M812.656,403.173l-.491.315-.385-.473.237-.386.219-.07Z" transform="translate(-100.452 -49.813)"/><path class="p" d="M951.67,397.282,915.8,345.469a4.267,4.267,0,0,0-5.941-1.1l-79.967,54.889a4.285,4.285,0,0,0-1.113,5.95l35.778,52.47Z" transform="translate(-153.215 -104.479)"/><path class="h" d="M951.67,397.282,915.8,345.469a4.267,4.267,0,0,0-5.941-1.1l-79.967,54.889a4.285,4.285,0,0,0-1.113,5.95l35.778,52.47Z" transform="translate(-153.215 -104.479)"/><path class="p" d="M952.669,397.422,916.8,345.609a4.276,4.276,0,0,0-5.95-1.1l-79.958,54.924a4.294,4.294,0,0,0-1.122,5.95l35.778,52.5Z" transform="translate(-153.338 -104.496)"/><path class="o" d="M987.838,415.339l-29.793-9.569-87.135,60.4,30.266,9.9a4.583,4.583,0,0,0,4.057-.613l82.85-58.5a.876.876,0,0,0-.245-1.621Z" transform="translate(-158.521 -112.17)"/><path class="h" d="M987.838,415.339l-29.793-9.569-87.135,60.4,30.266,9.9a4.583,4.583,0,0,0,4.057-.613l82.85-58.5a.876.876,0,0,0-.245-1.621Z" transform="translate(-158.521 -112.17)"/><path class="o" d="M987.628,414.647l-29.793-9.577L870.7,465.47l30.266,9.884a4.548,4.548,0,0,0,4.057-.6l82.85-58.5a.876.876,0,0,0-.245-1.6Z" transform="translate(-158.496 -112.083)"/><g class="n" transform="translate(698.9 268.907)"><path d="M953.077,401.863l-2.2-3.155a.876.876,0,0,0-1.192-.219l-3.268,2.182a.876.876,0,0,0-.237,1.183l2.024,3.111a.876.876,0,0,0,1.183.254l3.444-2.164A.876.876,0,0,0,953.077,401.863Z" transform="translate(-866.719 -380.158)"/><path d="M946.376,406.5l-2.208-3.146a.876.876,0,0,0-1.192-.219l-3.26,2.2a.876.876,0,0,0-.245,1.183l2.024,3.111a.876.876,0,0,0,1.183.263l3.452-2.164a.876.876,0,0,0,.245-1.227Z" transform="translate(-865.889 -380.734)"/><path d="M939.335,411.375l-2.208-3.146a.876.876,0,0,0-1.192-.219l-3.268,2.2a.876.876,0,0,0-.237,1.192l2.024,3.111a.876.876,0,0,0,1.183.254l3.444-2.164a.876.876,0,0,0,.254-1.227Z" transform="translate(-865.017 -381.336)"/><path d="M932.207,416.314,930,413.159a.876.876,0,0,0-1.183-.219l-3.268,2.208a.876.876,0,0,0-.237,1.183l2.024,3.111a.876.876,0,0,0,1.174.263l3.453-2.173a.876.876,0,0,0,.245-1.218Z" transform="translate(-864.136 -381.947)"/><path d="M925.086,421.244l-2.208-3.146a.876.876,0,0,0-1.192-.219l-3.26,2.2a.876.876,0,0,0-.245,1.183l2.024,3.111a.876.876,0,0,0,1.183.263l3.452-2.173a.876.876,0,0,0,.245-1.218Z" transform="translate(-863.254 -382.558)"/><path d="M918.212,426.543l-2.743-3.908a.394.394,0,0,0-.552-.105l-4.013,2.708a.394.394,0,0,0-.114.552l2.515,3.864a.4.4,0,0,0,.552.123l4.241-2.629a.4.4,0,0,0,.114-.6Z" transform="translate(-862.348 -383.142)"/><path d="M911.09,431.473l-2.76-3.908a.4.4,0,0,0-.561-.105l-4.013,2.708a.4.4,0,0,0-.105.552l2.515,3.864a.385.385,0,0,0,.552.123l4.232-2.629a.394.394,0,0,0,.14-.6Z" transform="translate(-861.464 -383.752)"/><path d="M904.783,435.85l-2.743-3.873a.4.4,0,0,0-.552-.1l-4.013,2.7a.412.412,0,0,0-.114.561L899.876,439a.412.412,0,0,0,.552.123l4.241-2.629a.4.4,0,0,0,.114-.648Z" transform="translate(-860.686 -384.299)"/><path d="M897.722,440.725l-2.743-3.908a.4.4,0,0,0-.552-.1l-4.013,2.7a.4.4,0,0,0-.114.561l2.515,3.864a.412.412,0,0,0,.552.123l4.241-2.629a.412.412,0,0,0,.114-.613Z" transform="translate(-859.812 -384.898)"/><path d="M890.882,445.423l-2.743-3.908a.394.394,0,0,0-.552-.105l-4.013,2.708a.394.394,0,0,0-.114.552l2.515,3.864a.4.4,0,0,0,.552.123l4.241-2.629a.4.4,0,0,0,.114-.6Z" transform="translate(-858.966 -385.479)"/><path d="M884.046,450.2l-2.716-3.917a.4.4,0,0,0-.552-.1l-4.013,2.7a.4.4,0,0,0-.114.561l2.515,3.864a.412.412,0,0,0,.552.123l4.241-2.629a.4.4,0,0,0,.088-.6Z" transform="translate(-858.123 -386.07)"/><path d="M877.2,454.933l-2.743-3.908a.394.394,0,0,0-.552-.105l-4.013,2.69a.394.394,0,0,0-.114.552l2.515,3.864a.4.4,0,0,0,.552.123l4.241-2.629a.4.4,0,0,0,.114-.587Z" transform="translate(-857.273 -386.655)"/><path d="M948.58,395.353l-2.208-3.155a.876.876,0,0,0-1.192-.219l-3.233,2.208a.876.876,0,0,0-.245,1.183l2.024,3.111a.876.876,0,0,0,1.183.254l3.452-2.164a.876.876,0,0,0,.219-1.218Z" transform="translate(-866.165 -379.353)"/><path d="M938.726,381.121l-2.208-3.172a.876.876,0,0,0-1.183-.219l-3.268,2.2a.876.876,0,0,0-.245,1.183l2.024,3.111a.876.876,0,0,0,1.183.263l3.452-2.164A.876.876,0,0,0,938.726,381.121Z" transform="translate(-864.942 -377.59)"/><path d="M941.867,399.995l-2.208-3.146a.876.876,0,0,0-1.183-.219l-3.268,2.2a.876.876,0,0,0-.237,1.183l2.015,3.111a.876.876,0,0,0,1.183.263l3.452-2.164a.876.876,0,0,0,.245-1.227Z" transform="translate(-865.331 -379.929)"/><path d="M934.826,404.864l-2.208-3.146a.876.876,0,0,0-1.192-.219l-3.26,2.173a.876.876,0,0,0-.245,1.192l2.024,3.111a.876.876,0,0,0,1.183.254l3.453-2.164A.876.876,0,0,0,934.826,404.864Z" transform="translate(-864.459 -380.531)"/><path d="M927.7,409.8l-2.2-3.155a.876.876,0,0,0-1.192-.219l-3.268,2.234a.876.876,0,0,0-.237,1.183l2.024,3.111a.876.876,0,0,0,1.183.254l3.444-2.164a.876.876,0,0,0,.245-1.244Z" transform="translate(-863.578 -381.141)"/><path d="M932.176,385.995l-2.208-3.146a.876.876,0,0,0-1.183-.219l-3.268,2.2a.876.876,0,0,0-.245,1.183l2.024,3.111a.876.876,0,0,0,1.183.263l3.452-2.164a.876.876,0,0,0,.245-1.227Z" transform="translate(-864.132 -378.196)"/><path d="M925.136,390.873l-2.208-3.155a.876.876,0,0,0-1.192-.219l-3.26,2.173a.876.876,0,0,0-.245,1.183l2.024,3.111a.876.876,0,0,0,1.183.254l3.452-2.164A.876.876,0,0,0,925.136,390.873Z" transform="translate(-863.26 -378.798)"/><path d="M918.007,395.8l-2.208-3.146a.876.876,0,0,0-1.183-.228l-3.268,2.234a.876.876,0,0,0-.237,1.183l2.024,3.111a.876.876,0,0,0,1.183.263l3.444-2.173a.876.876,0,0,0,.245-1.244Z" transform="translate(-862.379 -379.409)"/><path d="M920.581,414.734l-2.208-3.146a.876.876,0,0,0-1.183-.228l-3.242,2.208a.876.876,0,0,0-.237,1.183l1.989,3.111a.876.876,0,0,0,1.174.263l3.453-2.173a.876.876,0,0,0,.254-1.218Z" transform="translate(-862.701 -381.752)"/><path d="M913.456,419.665l-2.208-3.146a.876.876,0,0,0-1.192-.219l-3.26,2.2a.876.876,0,0,0-.245,1.183l2.024,3.111a.876.876,0,0,0,1.183.263l3.452-2.164a.876.876,0,0,0,.245-1.227Z" transform="translate(-861.815 -382.362)"/><path d="M906.582,424.963l-2.743-3.908a.394.394,0,0,0-.552-.105l-4.013,2.708a.394.394,0,0,0-.114.552l2.515,3.864a.394.394,0,0,0,.552.123l4.241-2.629a.4.4,0,0,0,.114-.6Z" transform="translate(-860.909 -382.947)"/><path d="M900.274,429.333l-2.743-3.917a.4.4,0,0,0-.552-.1l-4,2.7a.412.412,0,0,0-.114.561l2.515,3.864a.412.412,0,0,0,.552.123l4.241-2.629a.386.386,0,0,0,.105-.6Z" transform="translate(-860.129 -383.488)"/><path d="M893.212,434.215l-2.743-3.908a.4.4,0,0,0-.552-.1l-4.013,2.7a.394.394,0,0,0-.114.552l2.515,3.873a.412.412,0,0,0,.552.123l4.241-2.629a.412.412,0,0,0,.114-.613Z" transform="translate(-859.254 -384.093)"/><path d="M886.372,438.953l-2.743-3.908a.394.394,0,0,0-.552-.105l-4.013,2.673a.394.394,0,0,0-.114.552l2.515,3.864a.4.4,0,0,0,.552.123l4.241-2.629a.4.4,0,0,0,.114-.57Z" transform="translate(-858.408 -384.678)"/><path d="M930.137,398.1l-2.208-3.146a.876.876,0,0,0-1.183-.219l-3.268,2.208a.876.876,0,0,0-.237,1.183l2.024,3.111a.876.876,0,0,0,1.174.254l3.452-2.164a.876.876,0,0,0,.245-1.227Z" transform="translate(-863.88 -379.694)"/><path d="M923.006,403.033l-2.208-3.155a.876.876,0,0,0-1.192-.219l-3.26,2.208a.876.876,0,0,0-.245,1.183l2.024,3.111a.876.876,0,0,0,1.183.263l3.452-2.173a.876.876,0,0,0,.245-1.218Z" transform="translate(-862.997 -380.303)"/><path d="M915.9,407.964l-2.208-3.146a.876.876,0,0,0-1.192-.219l-3.268,2.2a.876.876,0,0,0-.237,1.183l2.024,3.111a.876.876,0,0,0,1.183.263l3.444-2.173a.876.876,0,0,0,.254-1.218Z" transform="translate(-862.117 -380.914)"/><path d="M908.767,412.9l-2.208-3.146a.876.876,0,0,0-1.183-.219l-3.268,2.2a.876.876,0,0,0-.237,1.183l2.024,3.146a.876.876,0,0,0,1.174.263l3.452-2.164a.876.876,0,0,0,.245-1.262Z" transform="translate(-861.236 -381.525)"/><path d="M901.943,418.193l-2.743-3.908a.394.394,0,0,0-.552-.105l-4.013,2.708a.4.4,0,0,0-.114.552l2.515,3.873a.394.394,0,0,0,.552.114l4.241-2.629a.4.4,0,0,0,.114-.6Z" transform="translate(-860.335 -382.109)"/><path d="M895.593,422.563l-2.743-3.917a.412.412,0,0,0-.561-.1l-4,2.7a.412.412,0,0,0-.114.561l2.515,3.864a.4.4,0,0,0,.552.123l4.241-2.629a.4.4,0,0,0,.114-.6Z" transform="translate(-859.549 -382.65)"/><path d="M888.532,427.423l-2.743-3.917a.412.412,0,0,0-.561-.1l-4.013,2.7a.421.421,0,0,0-.114.561l2.524,3.864a.4.4,0,0,0,.552.123l4.232-2.629a.394.394,0,0,0,.123-.6Z" transform="translate(-858.675 -383.251)"/><path d="M881.693,432.183l-2.743-3.908a.4.4,0,0,0-.561-.105l-4.013,2.708a.4.4,0,0,0-.105.552l2.515,3.864a.385.385,0,0,0,.552.123l4.232-2.629a.394.394,0,0,0,.123-.6Z" transform="translate(-857.829 -383.84)"/><path d="M879.532,443.685l-2.743-3.908a.4.4,0,0,0-.552-.1l-4.013,2.7a.394.394,0,0,0-.114.552l2.515,3.873a.412.412,0,0,0,.552.123l4.241-2.629a.412.412,0,0,0,.114-.613Z" transform="translate(-857.561 -385.265)"/><path d="M872.692,448.423l-2.743-3.908a.394.394,0,0,0-.552-.105l-4.013,2.708a.394.394,0,0,0-.114.552l2.515,3.864a.4.4,0,0,0,.552.123l4.241-2.629a.4.4,0,0,0,.114-.6Z" transform="translate(-856.715 -385.85)"/><path d="M883.445,420.108l-2.629-3.68a.543.543,0,0,0-.745-.131l-3.785,2.55a.534.534,0,0,0-.149.745l2.366,3.636a.526.526,0,0,0,.736.166l4-2.515a.543.543,0,0,0,.2-.771Z" transform="translate(-858.057 -382.368)"/><path d="M876.611,424.847l-2.585-3.68a.534.534,0,0,0-.745-.14L869.5,423.62a.526.526,0,0,0-.149.736L871.713,428a.543.543,0,0,0,.736.167l4-2.515a.543.543,0,0,0,.158-.806Z" transform="translate(-857.216 -382.953)"/><path d="M869.771,429.587l-2.585-3.689a.543.543,0,0,0-.745-.131l-3.785,2.55a.534.534,0,0,0-.149.745l2.366,3.636a.526.526,0,0,0,.736.167l4-2.515a.535.535,0,0,0,.158-.762Z" transform="translate(-856.37 -383.54)"/><path d="M863,434.423l-2.743-3.917a.4.4,0,0,0-.552-.1l-4.013,2.7a.412.412,0,0,0-.114.561l2.515,3.864a.412.412,0,0,0,.552.123l4.241-2.629a.386.386,0,0,0,.114-.6Z" transform="translate(-855.516 -384.117)"/><path d="M943.136,388.323l-2.375-3.374a.876.876,0,0,0-1.192-.21l-9.271,6.493a.876.876,0,0,0-.228,1.174l2.234,3.452a.876.876,0,0,0,1.218.237l9.411-6.581A.876.876,0,0,0,943.136,388.323Z" transform="translate(-864.725 -378.456)"/><path d="M873.963,436.745l-2.909-4.11a.394.394,0,0,0-.561-.1l-10.007,7.01a.394.394,0,0,0-.105.543l2.734,4.232a.4.4,0,0,0,.57.114l10.173-7.124A.412.412,0,0,0,873.963,436.745Z" transform="translate(-856.11 -384.38)"/><path d="M908.6,400.9l-2.681-3.926a.4.4,0,0,0-.552-.105l-22.222,15a.4.4,0,0,0-.114.552l2.743,4.206a.4.4,0,0,0,.57.114l22.152-15.282a.4.4,0,0,0,.105-.561Z" transform="translate(-858.913 -379.967)"/></g><path class="o" d="M953.746,401.983l-2.208-3.155a.876.876,0,0,0-1.192-.219l-3.26,2.208a.876.876,0,0,0-.245,1.183l2.024,3.111a.876.876,0,0,0,1.183.263L953.5,403.2a.876.876,0,0,0,.245-1.218Z" transform="translate(-167.901 -111.266)"/><path class="o" d="M947.006,406.625l-2.208-3.146a.876.876,0,0,0-1.183-.219l-3.269,2.2a.876.876,0,0,0-.245,1.183l2.024,3.111a.876.876,0,0,0,1.183.263l3.452-2.164a.876.876,0,0,0,.245-1.227Z" transform="translate(-167.067 -111.842)"/><path class="o" d="M940.006,411.5l-2.208-3.146a.876.876,0,0,0-1.192-.219l-3.26,2.208a.876.876,0,0,0-.245,1.183l2.024,3.111a.876.876,0,0,0,1.183.254l3.452-2.164a.876.876,0,0,0,.245-1.227Z" transform="translate(-166.201 -112.445)"/><path class="o" d="M932.865,416.434l-2.208-3.155a.876.876,0,0,0-1.183-.219l-3.268,2.208a.876.876,0,0,0-.228,1.227L928,419.606a.876.876,0,0,0,1.183.263l3.444-2.173a.876.876,0,0,0,.237-1.262Z" transform="translate(-165.316 -113.055)"/><path class="o" d="M925.747,421.365l-2.208-3.146a.876.876,0,0,0-1.183-.219l-3.268,2.2a.876.876,0,0,0-.237,1.183l2.015,3.111a.876.876,0,0,0,1.183.263l3.452-2.173a.876.876,0,0,0,.245-1.218Z" transform="translate(-164.437 -113.666)"/><path class="o" d="M918.872,426.663l-2.743-3.908a.394.394,0,0,0-.552-.105l-4.013,2.708a.394.394,0,0,0-.114.552l2.515,3.864a.4.4,0,0,0,.552.123l4.241-2.629a.4.4,0,0,0,.114-.6Z" transform="translate(-163.53 -114.25)"/><path class="o" d="M911.752,431.593l-2.743-3.908a.4.4,0,0,0-.561-.105l-4,2.708a.394.394,0,0,0-.114.552l2.515,3.873a.394.394,0,0,0,.552.114l4.241-2.629a.412.412,0,0,0,.114-.6Z" transform="translate(-162.649 -114.86)"/><path class="o" d="M905.443,435.963l-2.743-3.917a.4.4,0,0,0-.552-.1l-4.013,2.664a.412.412,0,0,0-.114.561l2.515,3.864a.412.412,0,0,0,.552.123l4.241-2.629a.4.4,0,0,0,.114-.57Z" transform="translate(-161.868 -115.401)"/><path class="o" d="M898.382,440.858l-2.743-3.882a.4.4,0,0,0-.552-.1l-4.013,2.7a.4.4,0,0,0-.114.561L893.475,444a.412.412,0,0,0,.552.123l4.241-2.629a.4.4,0,0,0,.114-.64Z" transform="translate(-160.994 -116.011)"/><path class="o" d="M891.542,445.583l-2.743-3.908a.394.394,0,0,0-.552-.105l-4.013,2.708a.394.394,0,0,0-.114.552l2.515,3.864a.394.394,0,0,0,.552.123l4.241-2.629a.4.4,0,0,0,.114-.6Z" transform="translate(-160.148 -116.591)"/><path class="o" d="M884.7,450.323l-2.743-3.917a.4.4,0,0,0-.552-.1l-4.013,2.7a.412.412,0,0,0-.114.561l2.515,3.864a.412.412,0,0,0,.552.123l4.241-2.629a.4.4,0,0,0,.114-.6Z" transform="translate(-159.302 -117.178)"/><path class="o" d="M877.862,455.053l-2.743-3.908a.394.394,0,0,0-.552-.105l-4.013,2.708a.394.394,0,0,0-.114.552l2.515,3.864a.394.394,0,0,0,.552.123l4.241-2.629a.4.4,0,0,0,.114-.6Z" transform="translate(-158.455 -117.763)"/><path class="o" d="M949.237,395.5l-2.208-3.155a.876.876,0,0,0-1.183-.219l-3.268,2.208a.876.876,0,0,0-.237,1.183l2.015,3.111a.876.876,0,0,0,1.183.263l3.452-2.173a.876.876,0,0,0,.245-1.218Z" transform="translate(-167.344 -110.465)"/><path class="o" d="M939.387,381.245l-2.208-3.146A.876.876,0,0,0,936,377.88l-3.268,2.2a.876.876,0,0,0-.237,1.183l2.024,3.111a.876.876,0,0,0,1.174.263l3.452-2.164a.876.876,0,0,0,.245-1.227Z" transform="translate(-166.125 -108.701)"/><path class="o" d="M942.527,400.113l-2.208-3.163a.876.876,0,0,0-1.183-.219l-3.268,2.2a.876.876,0,0,0-.237,1.183l2.024,3.111a.876.876,0,0,0,1.174.263l3.452-2.164a.876.876,0,0,0,.245-1.209Z" transform="translate(-166.514 -111.034)"/><path class="o" d="M935.492,404.985l-2.173-3.146a.876.876,0,0,0-1.183-.219l-3.268,2.2a.876.876,0,0,0-.237,1.192l2.015,3.111a.876.876,0,0,0,1.183.254l3.452-2.164a.876.876,0,0,0,.21-1.227Z" transform="translate(-165.647 -111.639)"/><path class="o" d="M928.366,409.923l-2.208-3.155a.876.876,0,0,0-1.192-.219l-3.26,2.208a.876.876,0,0,0-.245,1.183l2.024,3.111a.876.876,0,0,0,1.183.263l3.452-2.173a.876.876,0,0,0,.245-1.218Z" transform="translate(-164.76 -112.249)"/><path class="o" d="M932.837,386.113l-2.208-3.163a.876.876,0,0,0-1.183-.219l-3.268,2.2a.876.876,0,0,0-.237,1.183l2.024,3.111a.876.876,0,0,0,1.174.263l3.452-2.164A.876.876,0,0,0,932.837,386.113Z" transform="translate(-165.315 -109.302)"/><path class="o" d="M925.8,390.994l-2.208-3.155a.876.876,0,0,0-1.183-.219l-3.268,2.208a.876.876,0,0,0-.245,1.183l2.024,3.111a.876.876,0,0,0,1.183.263l3.452-2.173a.876.876,0,0,0,.245-1.218Z" transform="translate(-164.442 -109.907)"/><path class="o" d="M918.676,395.924l-2.208-3.146a.876.876,0,0,0-1.192-.219l-3.26,2.2a.876.876,0,0,0-.245,1.183l2.024,3.119a.876.876,0,0,0,1.183.263l3.444-2.173a.876.876,0,0,0,.254-1.227Z" transform="translate(-163.561 -110.517)"/><path class="o" d="M921.237,414.855l-2.208-3.146a.876.876,0,0,0-1.183-.219l-3.268,2.182a.876.876,0,0,0-.237,1.183l2.024,3.111a.876.876,0,0,0,1.174.263l3.452-2.173A.876.876,0,0,0,921.237,414.855Z" transform="translate(-163.879 -112.86)"/><path class="o" d="M914.116,419.785l-2.208-3.146a.876.876,0,0,0-1.183-.219l-3.268,2.243a.876.876,0,0,0-.245,1.183l2.024,3.111a.876.876,0,0,0,1.183.263l3.452-2.164a.876.876,0,0,0,.245-1.271Z" transform="translate(-162.997 -113.47)"/><path class="o" d="M907.247,425.083l-2.743-3.908a.394.394,0,0,0-.552-.105l-3.978,2.708a.394.394,0,0,0-.114.552l2.515,3.864a.394.394,0,0,0,.552.123l4.241-2.629a.412.412,0,0,0,.079-.6Z" transform="translate(-162.096 -114.055)"/><path class="o" d="M900.942,429.423l-2.743-3.917a.412.412,0,0,0-.561-.1l-4.013,2.7a.421.421,0,0,0-.114.561l2.523,3.864a.4.4,0,0,0,.552.123l4.232-2.629a.394.394,0,0,0,.123-.6Z" transform="translate(-161.311 -114.592)"/><path class="o" d="M893.873,434.343l-2.743-3.917a.4.4,0,0,0-.552-.1l-4.013,2.7a.412.412,0,0,0-.114.561l2.515,3.864a.412.412,0,0,0,.552.123l4.241-2.629a.386.386,0,0,0,.114-.6Z" transform="translate(-160.436 -115.2)"/><path class="o" d="M887.047,439.073l-2.716-3.908a.394.394,0,0,0-.552-.105l-4.013,2.708a.4.4,0,0,0-.114.552l2.515,3.864a.4.4,0,0,0,.552.123l4.241-2.629a.394.394,0,0,0,.088-.6Z" transform="translate(-159.595 -115.786)"/><path class="o" d="M930.8,398.223l-2.2-3.155a.876.876,0,0,0-1.192-.219l-3.268,2.208a.876.876,0,0,0-.237,1.183l2.024,3.111a.876.876,0,0,0,1.183.254l3.444-2.164a.876.876,0,0,0,.245-1.218Z" transform="translate(-165.062 -110.801)"/><path class="o" d="M923.677,403.154l-2.208-3.146a.876.876,0,0,0-1.183-.228l-3.268,2.208a.876.876,0,0,0-.237,1.183l2.024,3.111a.876.876,0,0,0,1.174.263l3.453-2.173a.876.876,0,0,0,.245-1.218Z" transform="translate(-164.181 -111.412)"/><path class="o" d="M916.562,408.086l-2.234-3.137a.876.876,0,0,0-1.192-.219l-3.19,2.191a.876.876,0,0,0-.245,1.183l2.024,3.111a.876.876,0,0,0,1.183.263l3.452-2.164a.876.876,0,0,0,.2-1.227Z" transform="translate(-163.305 -112.023)"/><path class="o" d="M909.427,413.015l-2.208-3.146a.876.876,0,0,0-1.183-.219l-3.268,2.2a.876.876,0,0,0-.237,1.183l2.024,3.111a.876.876,0,0,0,1.174.263l3.452-2.164a.876.876,0,0,0,.245-1.227Z" transform="translate(-162.418 -112.633)"/><path class="o" d="M902.562,418.313l-2.743-3.908a.4.4,0,0,0-.561-.105l-4.013,2.708a.4.4,0,0,0-.114.552l2.515,3.873a.4.4,0,0,0,.561.114l4.232-2.629a.4.4,0,0,0,.123-.6Z" transform="translate(-161.511 -113.217)"/><path class="o" d="M896.256,422.683l-2.743-3.908a.394.394,0,0,0-.552-.105l-3.987,2.7a.412.412,0,0,0-.114.561l2.515,3.864a.412.412,0,0,0,.552.123l4.241-2.629a.4.4,0,0,0,.088-.6Z" transform="translate(-160.735 -113.758)"/><path class="o" d="M889.193,427.573l-2.743-3.917a.412.412,0,0,0-.561-.1l-4,2.7a.412.412,0,0,0-.114.561l2.515,3.864a.4.4,0,0,0,.552.123l4.241-2.629a.4.4,0,0,0,.114-.6Z" transform="translate(-159.857 -114.363)"/><path class="o" d="M882.352,432.3,879.61,428.4a.4.4,0,0,0-.561-.105l-4,2.708a.394.394,0,0,0-.114.552l2.515,3.873a.394.394,0,0,0,.552.114l4.241-2.629a.412.412,0,0,0,.114-.6Z" transform="translate(-159.011 -114.948)"/><path class="o" d="M880.2,443.813l-2.743-3.917a.412.412,0,0,0-.561-.1l-4.013,2.7a.412.412,0,0,0-.114.561l2.515,3.864a.412.412,0,0,0,.552.123l4.241-2.629a.394.394,0,0,0,.123-.6Z" transform="translate(-158.744 -116.372)"/><path class="o" d="M873.362,448.543l-2.743-3.908a.4.4,0,0,0-.561-.105l-4.013,2.708a.4.4,0,0,0-.114.552l2.515,3.864a.4.4,0,0,0,.561.123l4.232-2.629a.394.394,0,0,0,.123-.6Z" transform="translate(-157.898 -116.957)"/><path class="o" d="M884.108,420.237l-2.585-3.689a.543.543,0,0,0-.745-.131l-3.812,2.55a.543.543,0,0,0-.149.745l2.366,3.645a.543.543,0,0,0,.745.158l4-2.515a.535.535,0,0,0,.184-.762Z" transform="translate(-159.242 -113.476)"/><path class="o" d="M877.272,424.967l-2.585-3.68a.535.535,0,0,0-.745-.14l-3.785,2.559a.535.535,0,0,0-.149.736l2.366,3.645a.552.552,0,0,0,.745.166l4-2.515a.552.552,0,0,0,.149-.771Z" transform="translate(-158.399 -114.061)"/><path class="o" d="M870.426,429.707l-2.629-3.689a.535.535,0,0,0-.736-.131l-3.794,2.55a.543.543,0,0,0-.149.745l2.366,3.645a.543.543,0,0,0,.745.158l4-2.515a.535.535,0,0,0,.193-.762Z" transform="translate(-157.546 -114.648)"/><path class="o" d="M863.672,434.553l-2.743-3.917a.412.412,0,0,0-.561-.1l-4.013,2.7a.412.412,0,0,0-.105.561l2.515,3.864a.4.4,0,0,0,.552.123l4.241-2.629a.4.4,0,0,0,.114-.6Z" transform="translate(-156.699 -115.226)"/><path class="o" d="M943.8,388.472l-2.34-3.382a.876.876,0,0,0-1.192-.21l-9.323,6.493a.876.876,0,0,0-.228,1.174L932.964,396a.876.876,0,0,0,1.218.237l9.4-6.581A.876.876,0,0,0,943.8,388.472Z" transform="translate(-165.906 -109.567)"/><path class="o" d="M874.623,436.865l-2.909-4.11a.394.394,0,0,0-.561-.1l-10.007,7.01a.4.4,0,0,0-.105.552l2.743,4.224a.4.4,0,0,0,.57.114l10.173-7.124A.412.412,0,0,0,874.623,436.865Z" transform="translate(-157.292 -115.488)"/><path class="o" d="M909.267,401.024l-2.629-3.9a.412.412,0,0,0-.561-.114l-22.213,14.984a.394.394,0,0,0-.114.552l2.734,4.206a.4.4,0,0,0,.57.114l22.152-15.282A.4.4,0,0,0,909.267,401.024Z" transform="translate(-160.102 -111.078)"/><path class="h" d="M906.173,383.761,894.361,366.6a2.19,2.19,0,0,0-3.032-.578l-32.536,21.845a2.2,2.2,0,0,0-.587,3.058l12.04,17.657a2.191,2.191,0,0,0,3.058.578L905.612,386.8a2.182,2.182,0,0,0,.561-3.041Z" transform="translate(-156.902 -107.204)"/><path class="q" d="M906.8,383.882l-11.812-17.166a2.2,2.2,0,0,0-3.032-.578L859.462,388a2.191,2.191,0,0,0-.6,3.058l12,17.639a2.191,2.191,0,0,0,3.058.578l32.325-22.353a2.182,2.182,0,0,0,.543-3.041Z" transform="translate(-156.984 -107.22)"/><path class="l" d="M982.32,416.919l-25.061-8.359L876.88,464.4l24.877,8.105a4.557,4.557,0,0,0,4.022-.6l76.769-53.382a.876.876,0,0,0-.228-1.6Z" transform="translate(-159.26 -112.515)"/></g></svg>