<svg xmlns="http://www.w3.org/2000/svg" width="320" height="191.301" viewBox="0 0 320 191.301"><defs><style>.a{fill:#f2f2f2;}.b{fill:#fff;}.c{fill:#ccc;}.d{fill:#3182ce;}.e{fill:#ffb8b8;}.f{fill:#2f2e41;}.g{fill:#3f3d56;}</style></defs><g transform="translate(0 0)"><path class="a" d="M820.717,598.921a16.536,16.536,0,0,1-5.933-14.254c.653-5.324,4.695-10.218,9.938-11.349s11.22,2,12.813,7.121c.876-9.875,1.886-20.163,7.136-28.572a30.259,30.259,0,0,1,21.91-14.037,27.149,27.149,0,0,1,23.883,9.75,24.64,24.64,0,0,1,3.03,25.368c-2.871,5.957-8.161,10.39-13.7,14A88.442,88.442,0,0,1,819.3,600.177Z" transform="translate(-575.718 -409.769)"/><path class="b" d="M922.917,545.661a145.932,145.932,0,0,0-42.879,57.981c-.409,1,1.219,1.439,1.623.447a144.31,144.31,0,0,1,42.446-57.239c.84-.684-.357-1.869-1.19-1.19Z" transform="translate(-616.994 -414.689)"/><path class="a" d="M268.013,557.047c5.627-4.755,9.045-12.266,8.149-19.578s-6.448-14.034-13.65-15.587-15.411,2.746-17.6,9.78c-1.2-13.563-2.591-27.694-9.8-39.243-6.529-10.458-17.838-17.941-30.094-19.28s-25.16,3.718-32.8,13.391-9.515,23.737-4.162,34.843c3.944,8.181,11.209,14.27,18.822,19.224a121.475,121.475,0,0,0,83.081,18.175" transform="translate(-165 -368.836)"/><path class="b" d="M214.082,483.894a198.752,198.752,0,0,1,27.7,27.5,199.33,199.33,0,0,1,31.2,52.133c.562,1.377-1.674,1.976-2.229.615a197.282,197.282,0,0,0-18.026-34.107,198.039,198.039,0,0,0-40.274-44.51c-1.154-.94.49-2.567,1.635-1.635Z" transform="translate(-194.747 -375.593)"/><path class="a" d="M558.753,380.828H424.5V243.081a53.21,53.21,0,0,1,53.149-53.149H505.6a53.21,53.21,0,0,1,53.149,53.149Z" transform="translate(-329.052 -189.931)"/><path class="c" d="M530.8,380.83H424.5V243.083a52.737,52.737,0,0,1,10.15-31.244c.244-.333.488-.661.739-.986a53.137,53.137,0,0,1,11.312-10.98c.243-.177.486-.35.733-.524A53.022,53.022,0,0,1,459.01,193.3c.243-.092.491-.184.738-.273a52.972,52.972,0,0,1,11.442-2.7c.242-.033.49-.059.739-.085a53.8,53.8,0,0,1,11.441,0c.248.026.5.052.741.085a52.963,52.963,0,0,1,11.439,2.7c.247.089.5.181.739.273a52.891,52.891,0,0,1,11.441,5.964c.247.17.494.343.738.517a53.7,53.7,0,0,1,6.762,5.725,53.073,53.073,0,0,1,4.68,5.352c.25.324.494.652.738.985A52.737,52.737,0,0,1,530.8,243.083Z" transform="translate(-329.051 -189.933)"/><circle class="d" cx="5.885" cy="5.885" r="5.885" transform="translate(187.218 117.518)"/><path class="e" d="M583.161,477.888h-4.509l-2.146-17.393h6.656Z" transform="translate(-364.458 -291.117)"/><path class="f" d="M564.171,504.28h8.7v5.476H558.7A5.476,5.476,0,0,1,564.171,504.28Z" transform="translate(-353.198 -318.797)"/><path class="e" d="M644.161,477.888h-4.509l-2.146-17.393h6.656Z" transform="translate(-403.021 -291.117)"/><path class="f" d="M625.171,504.28h8.7v5.476H619.7A5.476,5.476,0,0,1,625.171,504.28Z" transform="translate(-391.761 -318.797)"/><path class="e" d="M696.926,445.967a3.951,3.951,0,0,1,1.659-5.827l15.329-42.25,7.543,4.117-17.5,40.376a3.973,3.973,0,0,1-7.028,3.585Z" transform="translate(-500.844 -321.399)"/><path class="e" d="M804.346,463.116a3.951,3.951,0,0,1-1.064-5.965l-4.748-44.693,8.584.392,1.973,43.962a3.973,3.973,0,0,1-4.745,6.3Z" transform="translate(-565.509 -330.609)"/><circle class="e" cx="9.034" cy="9.034" r="9.034" transform="translate(216.109 50.598)"/><path class="d" d="M767.369,436.019H740.133l.033-.212c.049-.317,4.854-31.794,1.31-42.091a4.345,4.345,0,0,1,2.232-5.364h0c5.066-2.385,14.789-5.323,23,1.806a10.385,10.385,0,0,1,3.479,8.605Z" transform="translate(-528.59 -313.677)"/><path class="d" d="M733.279,413.857l-12.261-2.488,5.748-13.62a5.148,5.148,0,0,1,9.97,2.574Z" transform="translate(-516.506 -318.868)"/><path class="d" d="M795.609,420.114l-.737-16.9c-.559-3.177,1.259-6.179,4.056-6.67s5.529,1.714,6.09,4.914l2.771,15.79Z" transform="translate(-563.131 -320.506)"/><path class="f" d="M763.94,517.049c4.382,16.69,4.86,37.91,3.678,61.057l-5.885-.736-10.667-44.138-5.885,44.874-6.621-.368c-1.978-24.287-3.9-45.137-.736-58.851Z" transform="translate(-526.068 -396.729)"/><path class="f" d="M764.416,336.352a2.918,2.918,0,0,1-5.035-1.621,2.958,2.958,0,0,1,0-.572c.113-1.086.741-2.073.591-3.22a1.687,1.687,0,0,0-.309-.79c-1.343-1.8-4.5.8-5.763-.824-.777-1,.136-2.57-.46-3.686-.787-1.473-3.119-.746-4.581-1.553-1.627-.9-1.529-3.393-.459-4.911a7.726,7.726,0,0,1,5.857-2.982,15.712,15.712,0,0,1,6.618,1.292,13.225,13.225,0,0,1,6.253,4.336,10.584,10.584,0,0,1,1.07,9.012C767.656,332.658,765.793,334.886,764.416,336.352Z" transform="translate(-533.321 -269.739)"/><path class="g" d="M537.49,708.068H265.933a.438.438,0,0,1,0-.876H537.49a.438.438,0,1,1,0,.876Z" transform="translate(-228.532 -516.935)"/><path class="b" d="M547.707,408.879H499.891a2.378,2.378,0,0,1-2.391-2.36V299.79a2.378,2.378,0,0,1,2.391-2.36h47.816a2.378,2.378,0,0,1,2.391,2.36V406.519A2.378,2.378,0,0,1,547.707,408.879Z" transform="translate(-375.201 -257.89)"/><rect class="c" width="52.598" height="0.736" transform="translate(122.299 74.075)"/><rect class="c" width="52.598" height="0.736" transform="translate(122.483 116.046)"/><rect class="c" width="0.736" height="111.816" transform="translate(138.851 39.54)"/><rect class="c" width="0.736" height="111.816" transform="translate(157.241 39.54)"/></g></svg>