<svg xmlns="http://www.w3.org/2000/svg" xmlns:xlink="http://www.w3.org/1999/xlink" width="320" height="134.392" viewBox="0 0 320 134.392"><defs><style>.a{fill:#3f3d56;}.b{fill:#57b894;}.c,.j,.q{opacity:0.1;}.d{fill:#f2f2f2;}.e,.g{fill:#3182ce;}.f,.j,.r{fill:none;stroke-miterlimit:10;}.f{stroke:#f2f2f2;stroke-width:2px;}.g{opacity:0.3;}.h{fill:#192534;}.i{fill:#a0616a;}.j{stroke:#000;}.k{fill:#ffc1c7;}.l{opacity:0.05;}.m{fill:#fbbebe;}.n{fill:url(#a);}.o{fill:#575a89;}.p{fill:#cbceda;}.r{stroke:#3f3d56;stroke-width:4px;}.s{fill:#656380;}.t{opacity:0.2;}</style><linearGradient id="a" x1="-52.727" y1="1" x2="-52.727" gradientUnits="objectBoundingBox"><stop offset="0" stop-color="gray" stop-opacity="0.251"/><stop offset="0.54" stop-color="gray" stop-opacity="0.122"/><stop offset="1" stop-color="gray" stop-opacity="0.102"/></linearGradient></defs><g transform="translate(0 0.059)"><ellipse class="a" cx="160" cy="5.709" rx="160" ry="5.709" transform="translate(0 122.913)"/><path class="a" d="M1038.553,534.618a6.724,6.724,0,0,0,.889-3.409c0-3.08-1.9-5.579-4.263-5.579s-4.26,2.5-4.26,5.579a6.725,6.725,0,0,0,.889,3.409,6.982,6.982,0,0,0,0,6.819,6.976,6.976,0,0,0,0,6.816,6.981,6.981,0,0,0,0,6.819,6.727,6.727,0,0,0-.889,3.409c0,3.08,1.9,5.579,4.26,5.579s4.263-2.5,4.263-5.579a6.724,6.724,0,0,0-.889-3.409,6.981,6.981,0,0,0,0-6.819,6.976,6.976,0,0,0,0-6.816A6.982,6.982,0,0,0,1038.553,534.618Z" transform="translate(-753.762 -437.922)"/><ellipse class="a" cx="4.26" cy="5.579" rx="4.26" ry="5.579" transform="translate(277.147 80.889)"/><ellipse class="a" cx="4.26" cy="5.579" rx="4.26" ry="5.579" transform="translate(277.147 74.071)"/><path class="b" d="M976.178,235.86a20.51,20.51,0,0,1-1.588-2.335l11.2-1.838-12.112.09a20.451,20.451,0,0,1-.389-16.174l16.247,8.428-14.983-11.014a20.413,20.413,0,1,1,33.713,22.838,20.145,20.145,0,0,1,2.327,3.725l-14.535,7.555,15.5-5.2a20.423,20.423,0,0,1-3.292,19.167,20.413,20.413,0,1,1-32.081,0,20.412,20.412,0,0,1,0-25.241Z" transform="translate(-710.722 -202.87)"/><path class="c" d="M1012.672,369.986a20.323,20.323,0,0,1-4.369,12.621,20.413,20.413,0,1,1-32.082,0C973.472,379.134,1012.672,367.7,1012.672,369.986Z" transform="translate(-710.752 -324.375)"/><rect class="d" width="226.746" height="123.976" rx="20.42" transform="translate(46.627 1.86)"/><path class="e" d="M172,29.5h72.863V147.495H177.552A5.552,5.552,0,0,1,172,141.943Z" transform="translate(-125.237 -21.523)"/><path class="a" d="M409.746,215.429v3.151H183v-3.151a5.549,5.549,0,0,1,5.552-5.549H404.194A5.549,5.549,0,0,1,409.746,215.429Z" transform="translate(-136.373 -208.017)"/><circle class="e" cx="1.631" cy="1.631" r="1.631" transform="translate(50.841 4.715)"/><circle class="e" cx="1.631" cy="1.631" r="1.631" transform="translate(54.919 4.715)"/><circle class="e" cx="1.631" cy="1.631" r="1.631" transform="translate(58.997 4.715)"/><path class="f" d="M347.5,429.38" transform="translate(-256.149 -367.84)"/><path class="f" d="M333.5,428.38" transform="translate(-245.955 -367.112)"/><rect class="g" width="94.342" height="2.991" rx="1.24" transform="translate(165.981 25.274)"/><rect class="e" width="19.847" height="6.797" rx="1.24" transform="translate(239.116 30.983)"/><rect class="g" width="94.342" height="2.991" rx="1.24" transform="translate(165.981 61.64)"/><rect class="e" width="19.847" height="6.797" rx="1.24" transform="translate(239.116 67.35)"/><rect class="g" width="94.342" height="2.991" rx="1.24" transform="translate(165.981 98.616)"/><rect class="e" width="19.847" height="6.797" rx="1.24" transform="translate(239.116 104.325)"/><circle class="a" cx="13.463" cy="13.463" r="13.463" transform="translate(132.043 54.43)"/><path class="h" d="M545.028,441.474a.375.375,0,0,1-.057.09,8.45,8.45,0,0,1-.476.7,13.415,13.415,0,0,1-5.913,4.608c-.234.1-.473.188-.715.272a4.774,4.774,0,0,1-.62-.6,4.652,4.652,0,0,1-1.088-2.254,5.709,5.709,0,0,1-1.087.1.731.731,0,0,1-.109,0c-2.8-.049-5.2-2.1-6.278-5.024l-.043-.125a10.165,10.165,0,0,1-.212-5.911h0c.014-.065.035-.13.054-.193.919-3.156,3.344-5.457,6.229-5.639h.623c3.654.133,6.6,3.668,6.732,8.088a4.7,4.7,0,0,1,2.069,4.6A4.805,4.805,0,0,1,545.028,441.474Z" transform="translate(-387.641 -366.479)"/><path class="c" d="M545.189,441.491a8.426,8.426,0,0,1-.476.7,4.445,4.445,0,0,0-.726-.965,5.106,5.106,0,0,0,.049-.677,4.692,4.692,0,0,0-2.118-3.923c-.15-4.513-3.219-8.118-6.979-8.118a6.955,6.955,0,0,0-6.188,4.524c-.03.071-.057.139-.09.212h0c-.1.234-.185.47-.272.718a9.959,9.959,0,0,1,.4-1.463l.038-.038c1.047-2.885,3.385-4.932,6.131-5.054h.623c3.6.217,6.487,3.736,6.626,8.11a20.739,20.739,0,0,0,2.983,5.97Z" transform="translate(-387.859 -366.406)"/><path class="i" d="M536.531,460.134a1.768,1.768,0,0,1-.093.816c-.16.372-.544.707-.438,1.087a.835.835,0,0,0,.587.473,13.2,13.2,0,0,0,3.687.215,11.892,11.892,0,0,0,1.243.043,1.979,1.979,0,0,0,1.153-.4,9.874,9.874,0,0,1-1.813-1.139,2.038,2.038,0,0,1-.367-.351,2.151,2.151,0,0,1-.318-1.245v-1.294c-.886,0-1.77-.014-2.656-.014-.272,0-1.15-.068-1.251.239-.049.152.141.6.171.772A7.694,7.694,0,0,1,536.531,460.134Z" transform="translate(-393.388 -388.91)"/><path class="c" d="M536.531,460.134a1.768,1.768,0,0,1-.093.816c-.16.372-.544.707-.438,1.087a.835.835,0,0,0,.587.473,13.2,13.2,0,0,0,3.687.215,11.892,11.892,0,0,0,1.243.043,1.979,1.979,0,0,0,1.153-.4,9.874,9.874,0,0,1-1.813-1.139,2.038,2.038,0,0,1-.367-.351,2.151,2.151,0,0,1-.318-1.245v-1.294c-.886,0-1.77-.014-2.656-.014-.272,0-1.15-.068-1.251.239-.049.152.141.6.171.772A7.694,7.694,0,0,1,536.531,460.134Z" transform="translate(-393.388 -388.91)"/><circle class="i" cx="3.124" cy="3.124" r="3.124" transform="translate(141.841 64.585)"/><path class="e" d="M531.642,472.848a2.079,2.079,0,0,1-.03.272,8.274,8.274,0,0,1-.443,1.482,7.111,7.111,0,0,1-.413.946c-.117.209-.272.4-.4.606l-.179.291a3.962,3.962,0,0,0-.291.614,11.534,11.534,0,0,1-1.6.291,13.344,13.344,0,0,1-1.585.1,14.669,14.669,0,0,1-8.078-2.243s.318-.22.272-.272c0-.125-.014-.247-.014-.372a2.8,2.8,0,0,1,.155-.946,1.9,1.9,0,0,1,.47-.772c.272-.272.636-.44.927-.7a2.751,2.751,0,0,0,.759-1.319h0c.068-.217.117-.449.163-.672a3.26,3.26,0,0,1,.25-.884.782.782,0,0,1,.06-.1,1.059,1.059,0,0,1,.147-.193,3.181,3.181,0,0,1,.957-.642c.3-.152.712-.272.919-.019v.019a3.835,3.835,0,0,1,.171.479c.166.343.628.386,1,.378a31.8,31.8,0,0,0,3.964-.332l.636-.1c.459-.076.78.326,1.039.718A5.488,5.488,0,0,1,531.642,472.848Z" transform="translate(-380.753 -396.077)"/><path class="j" d="M528.911,486.18c-.291.065-.459.359-.6.625a2.417,2.417,0,0,0-.324,1.452,2.047,2.047,0,0,0,.063.59.783.783,0,0,0,.343.468" transform="translate(-387.561 -409.198)"/><ellipse class="h" cx="1.724" cy="3.494" rx="1.724" ry="3.494" transform="translate(141.953 66.27) rotate(-75.66)"/><path class="c" d="M538.191,441.609c-1.661-.424-2.89-1.359-2.991-2.219a.87.87,0,0,0-.163.329c-.237.922,1.087,2.055,2.955,2.534s3.575.117,3.806-.816a.881.881,0,0,0,.022-.315C541.323,441.807,539.819,442.024,538.191,441.609Z" transform="translate(-392.679 -375.129)"/><path class="i" d="M556.985,481.785c0,.473,0,.943-.03,1.411-.234.1-.473.188-.715.272a9.977,9.977,0,0,1-1.088.31,11.533,11.533,0,0,1-1.6.291,18.669,18.669,0,0,1-.2-3.352h0a5.4,5.4,0,0,1,.875-2.447,2.091,2.091,0,0,1,.791-.764.973.973,0,0,1,1.041.082,1.489,1.489,0,0,1,.375.693,11.5,11.5,0,0,1,.44,1.563,1.441,1.441,0,0,0,.027.179A10.772,10.772,0,0,1,556.985,481.785Z" transform="translate(-406.015 -402.799)"/><path class="a" d="M524.171,552.687a13.4,13.4,0,0,1-1.631,6.446c-.12.218-.245.438-.386.655a.379.379,0,0,1-.057.09,8.42,8.42,0,0,1-.476.7,13.305,13.305,0,0,1-3.847,3.567l-.079.054a13.9,13.9,0,0,1-1.536.8c-.147.065-.3.128-.451.19s-.294.12-.446.169c-.076.033-.158.06-.237.087h0a.1.1,0,0,0-.027,0c-.166.06-.337.111-.506.163l-.128.03c-.152.046-.3.084-.457.117a11.5,11.5,0,0,1-1.6.291h0a13.123,13.123,0,0,1-1.574.1h-.163a12.263,12.263,0,0,1-2.175-.2l-.13-.022c-.133-.022-.272-.049-.4-.082h0l-.253-.057a7.94,7.94,0,0,1-.794-.218,12.869,12.869,0,0,1-1.558-.579l-.057-.024a13.314,13.314,0,0,1-2.118-1.2,1.446,1.446,0,0,1-.163-.111A13.461,13.461,0,1,1,524.2,552.684Z" transform="translate(-365.204 -447.818)"/><path class="h" d="M543.379,568.811a2.857,2.857,0,0,1-5.709,0v-.136a2.855,2.855,0,0,1,5.709,0C543.377,568.718,543.379,568.764,543.379,568.811Z" transform="translate(-394.616 -467.185)"/><path class="c" d="M543.379,573.727a2.857,2.857,0,0,1-5.709,0v-.136a4.508,4.508,0,0,1,5.709,0C543.377,573.634,543.379,573.68,543.379,573.727Z" transform="translate(-394.616 -472.101)"/><circle class="h" cx="4.51" cy="4.51" r="4.51" transform="translate(141.395 100.723)"/><path class="h" d="M536.071,566.851a2.857,2.857,0,0,1,2.479-2.83,2.857,2.857,0,1,0,0,5.663A2.857,2.857,0,0,1,536.071,566.851Z" transform="translate(-392.898 -465.856)"/><path class="h" d="M525.386,586.833a2.857,2.857,0,0,1-.481-3.733,3.139,3.139,0,0,0-.272.272,2.857,2.857,0,1,0,4.285,3.779,3.034,3.034,0,0,0,.231-.3A2.858,2.858,0,0,1,525.386,586.833Z" transform="translate(-384.57 -479.767)"/><path class="k" d="M536.82,606.56a2.507,2.507,0,0,0-.674.237,1.169,1.169,0,0,0-.25,1.259,3.473,3.473,0,0,0,1.838,2.4,4.543,4.543,0,0,0,1.854.272,2.319,2.319,0,0,0,1.879-.631,2.494,2.494,0,0,0,.383-.941,7.471,7.471,0,0,0,.345-2.5,1.671,1.671,0,0,1-1.2-.2c-.326-.261-.4-.759-.544-1.172a.307.307,0,0,0-.106-.169.345.345,0,0,0-.19-.027,7.688,7.688,0,0,1-1.3-.054c-.272-.035-.93-.315-1.131-.079-.147.171-.054.693-.169.935A1.294,1.294,0,0,1,536.82,606.56Z" transform="translate(-393.274 -495.607)"/><path class="l" d="M536.82,606.56a2.507,2.507,0,0,0-.674.237,1.169,1.169,0,0,0-.25,1.259,3.473,3.473,0,0,0,1.838,2.4,4.543,4.543,0,0,0,1.854.272,2.319,2.319,0,0,0,1.879-.631,2.494,2.494,0,0,0,.383-.941,7.471,7.471,0,0,0,.345-2.5,1.671,1.671,0,0,1-1.2-.2c-.326-.261-.4-.759-.544-1.172a.307.307,0,0,0-.106-.169.345.345,0,0,0-.19-.027,7.688,7.688,0,0,1-1.3-.054c-.272-.035-.93-.315-1.131-.079-.147.171-.054.693-.169.935A1.294,1.294,0,0,1,536.82,606.56Z" transform="translate(-393.274 -495.607)"/><circle class="k" cx="3.154" cy="3.154" r="3.154" transform="translate(142.69 104.257)"/><path class="e" d="M538.17,613.468c-.022.027-.044.06-.068.087l-.133.174a10.228,10.228,0,0,0-1.612,2.678c-.147.065-.3.128-.451.19s-.294.12-.446.169c-.076.033-.158.06-.237.087h0a.1.1,0,0,0-.027,0c-.166.06-.337.111-.506.163l-.128.03c-.152.046-.3.084-.457.117a11.5,11.5,0,0,1-1.6.291h0a13.124,13.124,0,0,1-1.574.1h-.163a12.263,12.263,0,0,1-2.175-.2l-.13-.022c-.133-.022-.272-.049-.4-.082h0l-.253-.057a7.982,7.982,0,0,1-.794-.218,2.392,2.392,0,0,1,.585-1.223c-.612-.731-1.618-1.02-2.267-1.71a2.186,2.186,0,0,1-.158-.207.87.87,0,0,1-.084-.166.466.466,0,0,1-.035-.144,1.258,1.258,0,0,1-.025-.3,2.584,2.584,0,0,1,.617-2.137,2.813,2.813,0,0,1,.973-.435,11.949,11.949,0,0,0,1.767-.712,1.414,1.414,0,0,1,.1.381c.054.315.049.647.122.96a2.317,2.317,0,0,0,.968,1.359,3.7,3.7,0,0,0,1.593.579,3.059,3.059,0,0,0,1.533-.408,1.778,1.778,0,0,0,.634-.359,1.46,1.46,0,0,0,.356-.992c0-.359-.041-.718-.019-1.087a.524.524,0,0,1,.014-.112.454.454,0,0,1,.31-.427.579.579,0,0,1,.3.054l1.017.389a7.043,7.043,0,0,1,1.267.584A3.515,3.515,0,0,1,538.17,613.468Z" transform="translate(-385.412 -499.225)"/><path class="c" d="M528.9,625.176l-.13-.022c-.133-.022-.272-.049-.4-.082h0l-.253-.057a7.982,7.982,0,0,1-.794-.217,12.879,12.879,0,0,1-1.558-.579,6.73,6.73,0,0,1-.272-2.561,4.717,4.717,0,0,1,.228-1.087c.571.544,1.544.237,2.191.672a1.359,1.359,0,0,1,.419.479,3.611,3.611,0,0,1,.364,1.112c.041.212.079.427.112.642v.2c.022.152.041.31.049.465A8.237,8.237,0,0,1,528.9,625.176Z" transform="translate(-385.731 -507.05)"/><path class="e" d="M528.415,624.5c-.133-.022-.272-.049-.4-.082h0l-.253-.057a7.987,7.987,0,0,1-.794-.218,12.882,12.882,0,0,1-1.558-.579l-.057-.025a6.934,6.934,0,0,1-.345-2.847,5.084,5.084,0,0,1,.223-1.022c.571.544,1.544.242,2.191.677a1.528,1.528,0,0,1,.544.718,4.76,4.76,0,0,1,.237.862c.06.318.117.636.155.96a.764.764,0,0,1,.014.136c0,.03,0,.068,0,.1v.117A9.292,9.292,0,0,1,528.415,624.5Z" transform="translate(-385.378 -506.395)"/><path class="c" d="M563.421,623.443a13.894,13.894,0,0,1-1.536.8c-.147.065-.3.128-.451.19s-.294.12-.446.169c-.076.033-.158.06-.237.087h0a.1.1,0,0,0-.027,0c-.166.06-.337.111-.506.163l-.128.03a6.691,6.691,0,0,1,.027-.737c.019-.193.041-.386.068-.579a.286.286,0,0,1,.014-.106.288.288,0,0,0,0-.068c.033-.185.068-.372.1-.557a3.407,3.407,0,0,1,.364-1.112,1.359,1.359,0,0,1,.421-.468c.647-.435,1.631-.139,2.175-.672a4.8,4.8,0,0,1,.22.973,6.343,6.343,0,0,1-.063,1.89Z" transform="translate(-410.941 -507.057)"/><path class="e" d="M563.842,622.7l-.079.054a13.893,13.893,0,0,1-1.536.8c-.147.065-.3.128-.451.19s-.294.12-.446.169c-.076.033-.158.06-.237.087h0a.107.107,0,0,0-.027,0c-.166.06-.337.111-.506.163,0-.321,0-.639.027-.957a.954.954,0,0,1,.022-.247v-.2c.041-.294.09-.579.15-.867a4.764,4.764,0,0,1,.236-.862,1.529,1.529,0,0,1,.544-.718c.647-.435,1.631-.139,2.175-.677a4.652,4.652,0,0,1,.228,1.055,6.367,6.367,0,0,1-.1,2.009Z" transform="translate(-411.283 -506.373)"/><ellipse class="h" cx="3.785" cy="2.523" rx="3.785" ry="2.523" transform="translate(141.996 101.922)"/><path class="l" d="M535.444,631.472v.359a.076.076,0,0,0,0,.022h0l-.253-.057a.836.836,0,0,1,0-.144,1.756,1.756,0,0,1,.606-1.329.4.4,0,0,1,.084-.068,1.607,1.607,0,0,1,.489-.272,1.462,1.462,0,0,1,.511-.1.3.3,0,0,1,.071,0,1.035,1.035,0,0,1,.131,0h-.09a1.732,1.732,0,0,0-1.088.544.576.576,0,0,0-.084.1A1.74,1.74,0,0,0,535.444,631.472Z" transform="translate(-392.809 -513.83)"/><path class="e" d="M538.905,631.659a2.2,2.2,0,0,1-.06.506,12.263,12.263,0,0,1-2.175-.2l-.13-.022c-.133-.022-.272-.049-.4-.082h0v-.381a1.966,1.966,0,0,1,.359-1.014.6.6,0,0,1,.084-.1,1.25,1.25,0,0,1,.476-.364,1.06,1.06,0,0,1,.457-.1.182.182,0,0,1,.054,0,.756.756,0,0,1,.112,0A1.7,1.7,0,0,1,538.905,631.659Z" transform="translate(-393.502 -513.838)"/><path class="l" d="M558.4,631.416c-.076.033-.158.06-.237.087h0a1.718,1.718,0,0,0-.484-1.033l-.082-.082a1.786,1.786,0,0,0-.973-.443h-.09a.994.994,0,0,1,.125,0,.343.343,0,0,1,.073,0,1.6,1.6,0,0,1,.514.1,1.747,1.747,0,0,1,.372.179.319.319,0,0,1,.082.06A1.732,1.732,0,0,1,558.4,631.416Z" transform="translate(-408.348 -513.874)"/><path class="e" d="M555.137,631.48h0a.106.106,0,0,0-.027,0c-.166.06-.337.111-.506.163l-.128.03c-.152.046-.3.084-.457.117a11.5,11.5,0,0,1-1.6.291h0a2.074,2.074,0,0,1-.041-.416,1.678,1.678,0,0,1,1.226-1.751.7.7,0,0,1,.109,0,.166.166,0,0,1,.052,0,1.066,1.066,0,0,1,.462.1,1.237,1.237,0,0,1,.364.247.524.524,0,0,1,.082.076A1.952,1.952,0,0,1,555.137,631.48Z" transform="translate(-405.327 -513.852)"/><path class="c" d="M537.572,589.135c-2.028,0-3.684-1.06-3.782-2.4v.125c0,1.395,1.7,2.523,3.787,2.523s3.785-1.128,3.785-2.523v-.125C541.253,588.075,539.6,589.135,537.572,589.135Z" transform="translate(-391.791 -482.418)"/><path class="a" d="M497.17,282.916a13.43,13.43,0,0,0,1.631,6.444c.122.22.247.44.386.655a.4.4,0,0,0,.06.09,7.983,7.983,0,0,0,.487.7,12.9,12.9,0,0,0,1.941,2.145,5.132,5.132,0,0,0,.424.364,12.083,12.083,0,0,0,1.479,1.058l.082.054a14.622,14.622,0,0,0,1.533.8l.454.188c.15.063.291.122.446.171.076.03.155.057.237.084h.038q.247.09.506.163l.125.03c.152.046.307.087.459.117.207.054.411.1.623.139.318.063.647.117.973.155h0a13.1,13.1,0,0,0,1.574.092h.16a12.527,12.527,0,0,0,2.175-.2,1.018,1.018,0,0,0,.13-.022c.133-.022.272-.049.4-.082h0c.087-.016.166-.035.253-.057a7.687,7.687,0,0,0,.794-.215c.16-.052.318-.1.476-.155.318-.111.636-.231.941-.367a1.062,1.062,0,0,0,.139-.057l.06-.027a12.361,12.361,0,0,0,1.174-.606c.324-.185.639-.386.943-.6h.019a1.1,1.1,0,0,0,.141-.1,13.461,13.461,0,1,0-21.263-10.957Z" transform="translate(-365.127 -251.386)"/><path class="e" d="M545.153,334.437a1.25,1.25,0,0,1,.394.666,1.706,1.706,0,0,1-1.156-.272,14.74,14.74,0,0,0-3.553-1.145.544.544,0,0,1-.272-.1.462.462,0,0,1,.016-.571c.136-.141.391-.122.576-.131a5.25,5.25,0,0,1,3.994,1.544Z" transform="translate(-396.659 -297.573)"/><path class="m" d="M537.247,331.279a1.632,1.632,0,0,1-.9.905c-.22.079-.457.092-.68.155a.753.753,0,0,0-.527.416.891.891,0,0,0-.041.294,6.324,6.324,0,0,0,.313,2.773,6.074,6.074,0,0,0,1.5,1.89,6.374,6.374,0,0,0,2.314,1.612,1.735,1.735,0,0,0,1.588-.149,2.358,2.358,0,0,0,.443-.514,4.688,4.688,0,0,0,.878-4.345.245.245,0,0,0-.065-.163.256.256,0,0,0-.19-.033,1.12,1.12,0,0,1-1.134-.652,1.7,1.7,0,0,1-.063-.6l.019-1.164a.987.987,0,0,0-.044-.37.93.93,0,0,0-.487-.421,12.032,12.032,0,0,0-1.979-.78c-.3-.087-.527-.234-.661.087S537.4,330.942,537.247,331.279Z" transform="translate(-392.73 -295.497)"/><path class="c" d="M537.247,331.279a1.632,1.632,0,0,1-.9.905c-.22.079-.457.092-.68.155a.753.753,0,0,0-.527.416.891.891,0,0,0-.041.294,6.324,6.324,0,0,0,.313,2.773,6.074,6.074,0,0,0,1.5,1.89,6.374,6.374,0,0,0,2.314,1.612,1.735,1.735,0,0,0,1.588-.149,2.358,2.358,0,0,0,.443-.514,4.688,4.688,0,0,0,.878-4.345.245.245,0,0,0-.065-.163.256.256,0,0,0-.19-.033,1.12,1.12,0,0,1-1.134-.652,1.7,1.7,0,0,1-.063-.6l.019-1.164a.987.987,0,0,0-.044-.37.93.93,0,0,0-.487-.421,12.032,12.032,0,0,0-1.979-.78c-.3-.087-.527-.234-.661.087S537.4,330.942,537.247,331.279Z" transform="translate(-392.73 -295.497)"/><circle class="m" cx="3.551" cy="3.551" r="3.551" transform="translate(144.114 29.624)"/><path class="d" d="M536.9,350.265c.318.063.647.117.973.155h0a13.079,13.079,0,0,0,1.574.092h.16a12.52,12.52,0,0,0,2.175-.2,1,1,0,0,0,.13-.022c.133-.022.272-.049.4-.082h0c.087-.016.166-.035.253-.057a7.692,7.692,0,0,0,.794-.215c.16-.052.318-.1.476-.155.318-.111.636-.231.941-.367a6.657,6.657,0,0,1-.193-.737,8.135,8.135,0,0,1-.1-1.61c0-.432.019-.862,0-1.291a3.177,3.177,0,0,0-.15-1.028,1.313,1.313,0,0,0-.663-.769,1.829,1.829,0,0,0-1.414-.071.971.971,0,0,0-.13.084.677.677,0,0,0-.2.272c-.13.326-.272.655-.4.981a3.11,3.11,0,0,1-.318.647,1.6,1.6,0,0,1-1.759.579,1.046,1.046,0,0,1-.117-.046c-.544-.22-1.041-.7-1.609-.568a1.071,1.071,0,0,0-.71.614.276.276,0,0,0-.019.049,2.76,2.76,0,0,0-.2.892,11.893,11.893,0,0,0,.1,2.855Z" transform="translate(-393.952 -305.522)"/><path class="e" d="M513.74,338.942a5.126,5.126,0,0,0,.424.364,12.086,12.086,0,0,0,1.479,1.058l.082.054a14.611,14.611,0,0,0,1.533.8l.454.188c.15.063.291.122.446.171.076.03.155.057.237.084h.038q.247.09.506.163l.125.03a4.734,4.734,0,0,0,.459.117c.207.054.411.1.623.139.318.063.647.117.973.155h0a13.092,13.092,0,0,0,1.574.092h.16a12.521,12.521,0,0,0,2.175-.2,1,1,0,0,0,.13-.022c.133-.022.272-.049.4-.082h0c.087-.016.166-.035.253-.057a7.691,7.691,0,0,0,.794-.215c.16-.052.318-.1.476-.155.318-.111.636-.231.941-.367a1.059,1.059,0,0,0,.139-.057l.06-.027a12.389,12.389,0,0,0,1.174-.606,20.353,20.353,0,0,0,.68-2.175.259.259,0,0,1,0-.044c-.424-.753-.8-1.536-1.221-2.289a1.748,1.748,0,0,0-1.4-1.055,3.424,3.424,0,0,0-.911-.169,3.428,3.428,0,0,1-.522-.09c-.353-.079-.745-.155-.875,0h0a.046.046,0,0,0-.019.035.745.745,0,0,0,.063.544c.06.171.139.351.179.5a.745.745,0,0,1,.041.217,7.413,7.413,0,0,1-.033.954c-.076.462-.332.87-.451,1.319-.054.212-.082.432-.117.647a6.965,6.965,0,0,1-.378,1.419.97.97,0,0,1-.139.272c-.223.272-.593.169-.943.117-.256-.218-.242-.6-.272-.93a4.894,4.894,0,0,0-.495-1.571l-.092-.2c-.272-.563-.544-1.123-.8-1.688a2.979,2.979,0,0,1-.4-2.229c.079-.217.207-.411.294-.62a.671.671,0,0,0,.035-.1.906.906,0,0,0,.041-.247.544.544,0,0,0-.125-.421.218.218,0,0,0-.054-.057.087.087,0,0,0-.033-.022.647.647,0,0,0-.593-.027,2.481,2.481,0,0,0-.313.139,14.944,14.944,0,0,0-1.542,1,.772.772,0,0,0-.321.372,2.768,2.768,0,0,1-.052.307c-.076.193-.307.25-.506.294a6.19,6.19,0,0,0-3.948,2.9,3.188,3.188,0,0,0-.337.748A3.1,3.1,0,0,0,513.74,338.942Z" transform="translate(-377.192 -297.375)"/><path class="h" d="M541.078,308.294a2.58,2.58,0,0,1-1.939.5l.022-.272-.965.345a2.557,2.557,0,0,0,.633-.68.432.432,0,0,0-.47-.03.98.98,0,0,0-.351.348,3.17,3.17,0,0,0-.351,2.822.625.625,0,0,1-.623-.041,1.087,1.087,0,0,1-.4-.506.528.528,0,0,0-.253-.324.272.272,0,0,0-.3.136.576.576,0,0,0-.065.345c.019.272.223.544.272.816s.451.489.239.672a3.1,3.1,0,0,1-.772.182.334.334,0,0,1-.223-.22,9.4,9.4,0,0,1-.272-1.528,3.756,3.756,0,0,0-.56-1.112,1.556,1.556,0,0,0-.212-.285.715.715,0,0,1-.207-.237c-.035-.1.033-.242.136-.223a4.254,4.254,0,0,0-.544-.446c.19-.239.375-.484.544-.729.063-.087.128-.193.082-.288a.291.291,0,0,0-.109-.106l-.481-.326c0-.228.454-.144.525-.359a.294.294,0,0,0,0-.174l-.169-.614.642.291a.435.435,0,0,0,.245.057c.169-.024.25-.223.272-.394a1.118,1.118,0,0,1,.065-.506h.87a.569.569,0,0,0-.106-.411l2.142-.12a2.991,2.991,0,0,1,1.087.076.854.854,0,0,0,.362.082.216.216,0,0,0,.212-.247,3.891,3.891,0,0,1,.873.672.838.838,0,0,0,.247.2.272.272,0,0,0,.3-.035c.06-.063.087-.174.174-.179s.1.043.13.084a2.123,2.123,0,0,1,.3.517,1.853,1.853,0,0,0,.449-.12.484.484,0,0,0-.082.544c.071.182.2.337.288.511a2.12,2.12,0,0,1,.171.593c.044.256.044.579-.182.7a.609.609,0,0,1-.625-.141C541.575,307.772,541.48,307.881,541.078,308.294Z" transform="translate(-391.849 -277.123)"/><path class="e" d="M515.3,353.926a12.093,12.093,0,0,0,1.479,1.058l.082.054a14.622,14.622,0,0,0,1.533.8l.454.188c.15.063.291.122.446.171.076.03.155.057.237.084h0c-.1-.272-.158-.544-.242-.816a4.606,4.606,0,0,0-1.166-1.919c-.468-.468-1.213-1.15-1.9-.737a2.176,2.176,0,0,0-.544.525,2.433,2.433,0,0,0-.337.5A.694.694,0,0,0,515.3,353.926Z" transform="translate(-378.328 -311.994)"/><path class="e" d="M562.85,355.417c.318-.111.636-.231.941-.367a1.055,1.055,0,0,0,.139-.057l.06-.027a12.382,12.382,0,0,0,1.174-.606c.324-.185.639-.386.943-.6h.019a5.672,5.672,0,0,1,0-.911.714.714,0,0,0-.019-.3.726.726,0,0,0-.152-.209,1.242,1.242,0,0,1-.111-.128c-.307-.345-.557-.718-1.088-.663a1.632,1.632,0,0,0-1.21,1.02.937.937,0,0,0-.06.152,10.544,10.544,0,0,0-.353,1.444c-.071.3-.16.593-.226.895C562.891,355.167,562.866,355.292,562.85,355.417Z" transform="translate(-412.95 -311.163)"/><path class="n" d="M337.11,660.43h0l-.12.065Z" transform="translate(-248.497 -536.073)"/><path class="o" d="M274.558,548.9c-1.049,3.023.177,7.931.745,10.119a30.448,30.448,0,0,1,.745,4.818,10.151,10.151,0,0,0,3.855-.087l-.919-4.51c.655-2.673,0-9.812,0-9.812a17.158,17.158,0,0,0,1.631-6.966c.128-4.138,1.147-5.476,1.18-5.519h0c2.1,1.088,4.774,12.835,4.774,12.835a27.421,27.421,0,0,0,.919,9.592,11.9,11.9,0,0,1,.658,4.687,1.444,1.444,0,0,0,1.191.228,8.161,8.161,0,0,0,2.751-1.281s-.481-12.778-.832-13.27,0-3.241,0-3.241l-.571-4.47s.087-7.577-.745-8.89a9.063,9.063,0,0,1-.916-3.654v-.128l-1.267-1.52s-12.264-.919-13.186,0a2.641,2.641,0,0,0-.449,1.387,31.385,31.385,0,0,0,.038,5.228s.367,2.409.894,4.861a10.676,10.676,0,0,1,0,4.47,13.363,13.363,0,0,1-.5,5.122Z" transform="translate(-202.647 -439.231)"/><path class="p" d="M278.134,662.567c.544.723,3.768.416,4.315.19.334-.136.31-.767.22-1.414-.057-.413-.141-.835-.177-1.142a10.354,10.354,0,0,1,.272-2.387s-.723.767-.9,0a.837.837,0,0,0-.625-.593,1.631,1.631,0,0,0-1.136.071c-.571.245-1.52.772-1.359,1.484a4.22,4.22,0,0,1-.614,2.447,1.088,1.088,0,0,0,0,1.359Z" transform="translate(-205.466 -533.686)"/><path class="c" d="M278.149,673.793c.544.723,3.768.416,4.315.19.334-.136.31-.767.22-1.414a3.7,3.7,0,0,1-1.9.2,5.814,5.814,0,0,0-.688-.022,15.613,15.613,0,0,1-2.091-.041A1.044,1.044,0,0,0,278.149,673.793Z" transform="translate(-205.481 -544.912)"/><path class="c" d="M307.324,573.018a27.422,27.422,0,0,0,.919,9.592,11.9,11.9,0,0,1,.658,4.687,1.444,1.444,0,0,0,1.191.228c-.272-1.846-1.389-9.807-2.112-16.1a26.342,26.342,0,0,0-4.663-12.09l-.767.843C304.652,561.279,307.324,573.018,307.324,573.018Z" transform="translate(-223.42 -462.467)"/><path class="m" d="M283.62,426.253l.544,2.629,2.621,4.4,3.23-1.378s4.391-4.6,1.631-5.258a2.384,2.384,0,0,1-.916-.408,1.9,1.9,0,0,1-.715-1.585,4.85,4.85,0,0,1,.449-1.884L284.811,421a9.205,9.205,0,0,1,.405,2.289,3.022,3.022,0,0,1-1,2.659,1.7,1.7,0,0,1-.6.3Z" transform="translate(-209.637 -361.739)"/><path class="c" d="M288,421a9.205,9.205,0,0,1,.405,2.289,3.614,3.614,0,0,0,.329.348,4.445,4.445,0,0,0,3.072,1.237,4.385,4.385,0,0,0,1.381-.22,4.85,4.85,0,0,1,.449-1.884Z" transform="translate(-212.826 -361.739)"/><path class="m" d="M285.58,406.367a4.445,4.445,0,1,0,1.3-3.164,4.47,4.47,0,0,0-1.3,3.164Z" transform="translate(-211.064 -347.831)"/><path class="c" d="M283.62,439.5l.544,2.629,2.621,4.4,3.23-1.378s4.391-4.6,1.631-5.258a2.384,2.384,0,0,1-.916-.408c.5,1.359-1.558,4.22-1.558,4.22-.239.351-.788.13-.788.13-1.327-.2-3.766-4.01-4.162-4.644a1.7,1.7,0,0,1-.6.307Z" transform="translate(-209.637 -374.983)"/><path class="c" d="M274.31,529.193c.778.177,5.081,1.131,6.713.892,1.8-.272,5.288-.438,5.288-.438a10.311,10.311,0,0,0,2.906-.193v-.128l-1.267-1.52s-12.264-.919-13.186,0A2.643,2.643,0,0,0,274.31,529.193Z" transform="translate(-202.858 -439.209)"/><path class="a" d="M274.858,443.957s2.311-3.2,1.438-4.448l3.9,1.6s2.349-.285,3.2,3.222a6.123,6.123,0,0,1,.147,1.781,5.293,5.293,0,0,0,.642,2.662c.965,1.928.745,6.351-1.226,6.8a5.886,5.886,0,0,1-2.673.217s.272,8.015,1.4,8.937-2.9.7-2.9.7-3.491.174-5.288.438-6.832-.922-6.832-.922.745-3.371,1.006-5.519.878-6.715.878-6.715l-4.47-6.052s-.788-3.657,1.971-5.277a31.088,31.088,0,0,1,3.806-2.02s2.773,4.516,4.22,4.736C274.07,444.091,274.619,444.311,274.858,443.957Z" transform="translate(-195.334 -375.107)"/><path class="c" d="M318.976,460.94a6.564,6.564,0,0,1-.22,2.017c-.264.571-1.226,3.722-1.226,3.722h2.189s-1.183-1.27-1.087-1.884S318.976,460.94,318.976,460.94Z" transform="translate(-234.327 -390.82)"/><path class="m" d="M297.434,484.612s4.837-1.183,5.288-2.191,1.694-3.263,1.694-3.263l-.511-.688-2.352,1.846s-2.8,2.235-4.119,2.447S297.434,484.612,297.434,484.612Z" transform="translate(-219.269 -403.584)"/><path class="l" d="M297.434,484.612s4.837-1.183,5.288-2.191,1.694-3.263,1.694-3.263l-.511-.688-2.352,1.846s-2.8,2.235-4.119,2.447S297.434,484.612,297.434,484.612Z" transform="translate(-219.269 -403.584)"/><path class="m" d="M283.62,480.05v2.624h.421A12.268,12.268,0,0,1,290,484.215l.791.437.212.12,1.359-3.059-1.27-1.139h-.065a7.574,7.574,0,0,1-2.224-.049,3.6,3.6,0,0,0-2.808-.359c-.783.2-1.455,1.088-2.216.816Z" transform="translate(-209.637 -404.715)"/><path class="c" d="M265.725,454.6l-.875.984v2.4s.745,7.534,3.11,8.366,6.588-.481,6.588-.481,1.087-2.89.579-3.067-4.508-1.232-4.508-1.232.054-4.418-.816-5.731c0,0,.571-4.119-1.4-4.206S265.725,454.6,265.725,454.6Z" transform="translate(-195.97 -384.043)"/><path class="a" d="M265.238,454.6l-.878.984v2.4s.745,7.534,3.11,8.366,6.579-.481,6.579-.481,1.087-2.89.582-3.067-4.51-1.232-4.51-1.232.057-4.418-.816-5.731c0,0,.568-4.119-1.4-4.206S265.238,454.6,265.238,454.6Z" transform="translate(-195.613 -384.043)"/><path class="c" d="M286.793,408.288a1.732,1.732,0,0,1,.1-.851.661.661,0,0,1,.691-.4c.375.087.544.576.905.693a.715.715,0,0,0,.794-.411,2.061,2.061,0,0,0,.152-.954v-1.088a1.887,1.887,0,0,1,.258-1.142,2.022,2.022,0,0,1,1.5-.544,1.259,1.259,0,0,1,.856.345,1.115,1.115,0,0,0,.9.321.783.783,0,0,0,.631-.544.024.024,0,0,1,0-.014,4.467,4.467,0,1,0-6.645,5.93A11.5,11.5,0,0,1,286.793,408.288Z" transform="translate(-211.051 -347.855)"/><path class="a" d="M286.778,396.824a.788.788,0,0,0,.631-.544c.035-.141.027-.294.068-.432.1-.345.47-.525.715-.786a1.755,1.755,0,0,0,.111-2.015,1.43,1.43,0,0,0-1.4-.837c-.353.063-.661.315-1.02.337a2.131,2.131,0,0,1-.976-.315,3.679,3.679,0,0,0-2.422-.215,1.389,1.389,0,0,0-.666.337,5.459,5.459,0,0,0-.353.5,2.775,2.775,0,0,1-1.792.74c-.65.117-1.387.375-1.6,1a2.644,2.644,0,0,0,.076,1.3.373.373,0,0,1-.016.272c-.1.169-.356.1-.544.139-.367.076-.462.544-.476.93-.016.432-.027.865-.035,1.3a1.27,1.27,0,0,0,.411,1.087l1.446,1.737a3.727,3.727,0,0,1,1.194,2.664.62.62,0,0,0,.764-.446,1.969,1.969,0,0,0-.049-.987,12.022,12.022,0,0,1-.228-1.71,1.732,1.732,0,0,1,.1-.851.658.658,0,0,1,.693-.4c.375.087.544.574.905.693a.718.718,0,0,0,.794-.411,2.061,2.061,0,0,0,.152-.954v-1.088a1.844,1.844,0,0,1,.258-1.142,2.033,2.033,0,0,1,1.5-.544,1.286,1.286,0,0,1,.856.345A1.106,1.106,0,0,0,286.778,396.824Z" transform="translate(-204.867 -340.553)"/><path class="c" d="M304.779,460.54l-1.359,5.636S302.327,466.168,304.779,460.54Z" transform="translate(-223.877 -390.529)"/><path class="c" d="M291.83,457.08a8.979,8.979,0,0,1,1.087,5.981l-.334.024S293.189,461.68,291.83,457.08Z" transform="translate(-215.615 -388.009)"/><path class="c" d="M281.305,517.882s-2.2-.729-2.365.963C278.94,518.844,279.356,517.683,281.305,517.882Z" transform="translate(-206.229 -432.167)"/><path class="c" d="M310.151,482.53s.438,3.067-.351,4.293a9.573,9.573,0,0,0,3.861.525l.272-4.818Z" transform="translate(-228.699 -406.54)"/><path class="c" d="M310,486.128l.212.12,1.359-3.059-1.27-1.139h-.068C310.25,482.2,310.6,484.831,310,486.128Z" transform="translate(-228.845 -406.19)"/><path class="a" d="M310.151,482.05s.438,3.067-.351,4.293a9.633,9.633,0,0,0,3.861.525l1.533-4.818Z" transform="translate(-228.699 -406.19)"/><path class="p" d="M324.98,660.407a.99.99,0,0,0,.851.867,30.924,30.924,0,0,1,4.777.976c.922.438,4.557.13,4.731-.307a.688.688,0,0,0-.063-.525,1.4,1.4,0,0,0-.587-.634,1.765,1.765,0,0,0-.272-.117,5.771,5.771,0,0,1-2.327-1.221,14.8,14.8,0,0,1-2.072-2.175,1.052,1.052,0,0,0-.843-.525c-.383-.016-.816.177-.984,1.017,0,0-2.1,1.2-2.67.147a5.8,5.8,0,0,1-.438,2.058h0a.59.59,0,0,0-.1.438Z" transform="translate(-239.746 -533.391)"/><path class="c" d="M324.985,669.045a.99.99,0,0,0,.851.867,30.926,30.926,0,0,1,4.777.976c.922.438,4.557.13,4.731-.307a.688.688,0,0,0-.063-.525,1.4,1.4,0,0,0-.587-.633c-.593.394-1.9.78-4.8.326a21.273,21.273,0,0,1-4.8-1.139h0A.59.59,0,0,0,324.985,669.045Z" transform="translate(-239.751 -542.029)"/><g class="q" transform="translate(72.197 53.427)"><path d="M280.7,404.044v-.019a4.19,4.19,0,0,1-.133-1,6.174,6.174,0,0,0,.117.807A.491.491,0,0,1,280.7,404.044Z" transform="translate(-279.613 -402.081)"/><path d="M290.155,405.6a1.327,1.327,0,0,0-.109.5,1.514,1.514,0,0,1,.109-.7.661.661,0,0,1,.693-.4c.375.087.544.576.905.693a.715.715,0,0,0,.794-.411,2.055,2.055,0,0,0,.152-.954v-1.087a1.887,1.887,0,0,1,.258-1.142,2.022,2.022,0,0,1,1.5-.544,1.259,1.259,0,0,1,.856.345,1.115,1.115,0,0,0,.9.321.78.78,0,0,0,.631-.544c.035-.141.027-.294.068-.432.1-.345.47-.525.715-.786a1.414,1.414,0,0,0,.37-.924,1.484,1.484,0,0,1-.37,1.123c-.245.272-.612.44-.715.783-.041.141-.033.291-.068.432a.783.783,0,0,1-.631.544,1.106,1.106,0,0,1-.9-.324,1.272,1.272,0,0,0-.856-.345,2.022,2.022,0,0,0-1.5.544,1.842,1.842,0,0,0-.258,1.142c0,.4,0,.731,0,1.088a2.051,2.051,0,0,1-.152.952.71.71,0,0,1-.794.411c-.367-.117-.53-.6-.905-.691a.655.655,0,0,0-.693.405Z" transform="translate(-286.509 -399.54)"/><path d="M277.1,416.638a1.71,1.71,0,0,0,.372.6l1.446,1.737a3.922,3.922,0,0,1,1.2,2.512,4.29,4.29,0,0,0-1.2-2.316l-1.446-1.737a1.27,1.27,0,0,1-.411-1.087A1.106,1.106,0,0,0,277.1,416.638Z" transform="translate(-277.049 -411.78)"/><path d="M289.064,433.547a1.006,1.006,0,0,0,.044-.237,1.216,1.216,0,0,1-.044.432.615.615,0,0,1-.764.443,1.5,1.5,0,0,0,.014-.19.623.623,0,0,0,.75-.449Z" transform="translate(-285.241 -424.129)"/></g><path class="c" d="M338.975,660.15s-.457.816-2.115.1" transform="translate(-248.402 -535.869)"/><path class="c" d="M284.393,660.86a2.52,2.52,0,0,1-3.233.544" transform="translate(-207.845 -536.386)"/><path class="c" d="M277.74,587.58s1.009.631,1.044.992-.522-.272-.522-.272Z" transform="translate(-205.355 -483.029)"/><path class="c" d="M276.27,605.39a2.1,2.1,0,0,0,1.245.487c.756.033.693,1.017.2.723a12.391,12.391,0,0,1-1.444-1.21Z" transform="translate(-204.285 -495.997)"/><path class="c" d="M275.56,607.71s.487,2.384.881,1.925" transform="translate(-203.768 -497.686)"/><path class="r" d="M85.469,574.294c.816-1.5-.111-3.333-1.166-4.668s-2.341-2.719-2.314-4.429c.041-2.447,2.637-3.893,4.712-5.19a22.835,22.835,0,0,0,4.23-3.4,6.252,6.252,0,0,0,1.3-1.74,7.054,7.054,0,0,0,.389-3.091q-.136-5.239-.517-10.465" transform="translate(-62.824 -449.339)"/><path class="b" d="M113.33,530.873a3.806,3.806,0,0,0-1.9-3.127l-.854,1.688.024-2.044a3.806,3.806,0,1,0,2.735,3.483Z" transform="translate(-80.107 -439.092)"/><path class="b" d="M89.417,620.732a3.806,3.806,0,1,1,.185-3.072L87.218,619.6l2.624-.606a3.806,3.806,0,0,1-.424,1.74Z" transform="translate(-62.999 -503.125)"/><path class="b" d="M90.827,587.921a3.806,3.806,0,0,1-1.21-7.485l-.022,1.571.865-1.71h0a3.806,3.806,0,0,1,3.988,3.632,3.762,3.762,0,0,1-.163,1.3A3.806,3.806,0,0,1,90.827,587.921Z" transform="translate(-66.293 -477.724)"/><path class="b" d="M125.235,565.3a3.806,3.806,0,1,1,1.686-7.142l-.674,1.849,1.389-1.332a3.806,3.806,0,0,1,1.232,2.635,3.749,3.749,0,0,1-.1,1.052A3.82,3.82,0,0,1,125.235,565.3Z" transform="translate(-91.438 -461.265)"/><path class="c" d="M112.864,537.476c-.881.1-1.737.37-2.621.424a2.859,2.859,0,0,1-2.414-.843,12.083,12.083,0,0,1-.7-1.242,2.719,2.719,0,0,0-.962-.905,3.806,3.806,0,1,0,7.134,2.534Q113.081,537.452,112.864,537.476Z" transform="translate(-80.154 -444.679)"/><path class="c" d="M125.1,571.118a3.806,3.806,0,0,1-3.63-5.438,2.819,2.819,0,0,1,.767.767,12.482,12.482,0,0,0,.756,1.262,3.125,3.125,0,0,0,2.531.886c.922-.041,1.811-.3,2.719-.389.128,0,.256-.019.386-.022A3.82,3.82,0,0,1,125.1,571.118Z" transform="translate(-91.303 -467.083)"/><path class="c" d="M91.023,593.962a3.806,3.806,0,0,1-3.662-5.372,3.089,3.089,0,0,1,.816.775,12.788,12.788,0,0,0,.829,1.286,3.522,3.522,0,0,0,2.7.946c.973-.024,1.857-.25,2.795-.324A3.806,3.806,0,0,1,91.023,593.962Z" transform="translate(-66.489 -483.765)"/><path class="c" d="M89.145,627.263a3.811,3.811,0,1,1-6.957-3.113,3.7,3.7,0,0,1,.837.748,16.609,16.609,0,0,0,1.022,1.359,4.753,4.753,0,0,0,3.162,1.112,16.306,16.306,0,0,0,1.936-.106Z" transform="translate(-62.726 -509.657)"/><path class="s" d="M73.62,651.924s3.012-.079,3.91-.74,4.622-1.416,4.856-.381,4.527,5.166,1.126,5.182-7.9-.544-8.806-1.088S73.62,651.924,73.62,651.924Z" transform="translate(-56.731 -528.692)"/><path class="t" d="M83.584,659.961c-3.4.03-7.9-.527-8.806-1.087-.691-.422-.965-1.93-1.058-2.624h-.1s.19,2.428,1.088,2.991,5.408,1.109,8.806,1.088c.981,0,1.321-.356,1.3-.873C84.688,659.763,84.327,659.956,83.584,659.961Z" transform="translate(-56.731 -533.029)"/></g></svg>