<svg xmlns="http://www.w3.org/2000/svg" width="258.009" height="224.6" viewBox="0 0 258.009 224.6"><defs><style>.a{fill:#e6e6e6;}.b{fill:#3182ce;}.c{fill:#fff;}.d{fill:#2f2e41;}.e{fill:#9f616a;}</style></defs><ellipse class="a" cx="71.113" cy="3.574" rx="71.113" ry="3.574" transform="translate(45.027 217.453)"/><circle class="a" cx="35.29" cy="35.29" r="35.29" transform="translate(0 0)"/><circle class="b" cx="29.408" cy="29.408" r="29.408" transform="translate(5.882 5.882)"/><circle class="a" cx="35.29" cy="35.29" r="35.29" transform="translate(93.715 0)"/><circle class="c" cx="29.408" cy="29.408" r="29.408" transform="translate(99.596 5.882)"/><circle class="a" cx="35.29" cy="35.29" r="35.29" transform="translate(187.429 0)"/><circle class="c" cx="29.408" cy="29.408" r="29.408" transform="translate(193.311 5.882)"/><path class="c" d="M75.714,89.152,67.146,78.137l4.982-3.876,4.057,5.216,13.7-14.466,4.582,4.341Z" transform="translate(-43.151 -41.779)"/><path class="d" d="M509.492,206.22c-2.318-5.6-2.694-10.88.573-15.573h0a11.784,11.784,0,0,1,12.57-11.323l2.13.144a11.738,11.738,0,0,1,10.11,7.285c3.972,9.851,4.1,22.945,3.106,36.978H508.847C510.578,217.168,511.466,211.008,509.492,206.22Z" transform="translate(-411.669 -163.734)"/><path class="e" d="M387.389,276.3l-7.7-3.458a5.867,5.867,0,0,1-2.552-8.492h0a5.867,5.867,0,0,1,9.5-.564l3.557,4.367,16.582,14.707L417.8,275.5l5,8.47-17.88,10.8Z" transform="translate(-327.189 -216.641)"/><path class="b" d="M493.378,291.263,487.3,279.633l23.668-10.542.2,2.225a11.8,11.8,0,0,1-4.865,10.663Z" transform="translate(-398.569 -221.439)"/><path class="e" d="M544.231,251.678l-24.139,19.977-1.387-1.942,6.659-11.931,3.052-1.387c.731-3.1-1.136-7.253-3.607-11.654l11.654-1.665C537.025,246.856,539.586,249.736,544.231,251.678Z" transform="translate(-418.751 -204.721)"/><path class="d" d="M367.8,455.917l-4.023,5.965-32.047-18.174,4.439-21.919Z" transform="translate(-213.182 -271.061)"/><path class="d" d="M527.309,507.335l-6.52-2.913-1.665-76.3-6.243-41.481,24.278-4.578,4.994,10.821C554.427,409.714,536.535,461.292,527.309,507.335Z" transform="translate(-415.009 -294.039)"/><path class="d" d="M512.524,723.793l1.338,2.912a3.868,3.868,0,0,1-2.968,5.444l-17.688,2.527a3.635,3.635,0,0,1-4.009-2.6h0a3.635,3.635,0,0,1,1.669-4.142l14.86-7.438Z" transform="translate(-399.697 -511.534)"/><path class="d" d="M659.515,649.442l3.2-.235a3.868,3.868,0,0,1,4.062,4.685l-3.821,17.454a3.635,3.635,0,0,1-3.838,2.846h0a3.635,3.635,0,0,1-3.3-3.013l-1.769-16.523Z" transform="translate(-505.729 -465.714)"/><circle class="e" cx="11.099" cy="11.099" r="11.099" transform="translate(99.121 21.707)"/><path class="b" d="M533.318,307.381l-24.139,4.994-.555-16.093c-3.5-3.7,4.657-18.522,7.492-25.527l3.607-1.11-6.1,11.1,21.365-17.48,4.162,1.11,1.11,20.255Z" transform="translate(-411.723 -217.695)"/><path class="e" d="M555.684,355.514l-5.235,6.62a5.867,5.867,0,0,1-8.858.4h0a5.867,5.867,0,0,1,1.775-9.355l5.1-2.382,18.313-12.486-4.439-12.486,9.434-2.775,6.1,19.977Z" transform="translate(-432.423 -256.117)"/><path class="d" d="M550.217,227.072H530.109c.756-3.8,2.781-7.249,8.32-9.721,4.039-7.72,5.765-14.722,0-19.4-6.585-1.517-9.135-4.272-8.32-8.058L541.9,187.95C551.591,196.583,551.7,211.32,550.217,227.072Z" transform="translate(-425.986 -169.295)"/><path class="b" d="M604.234,286.515l-12.763,3.052-4.439-25.527,2.207.345a11.8,11.8,0,0,1,9.151,7.323Z" transform="translate(-462.661 -218.194)"/></svg>