<svg xmlns="http://www.w3.org/2000/svg" width="280" height="209.619" viewBox="0 0 280 209.619"><defs><style>.a{fill:#e6e6e6;}.b{fill:#3f3d56;}.c{fill:#3182ce;}.d{fill:#2f2e41;}.e{fill:#9f616a;}.f{fill:#d0cde1;}</style></defs><path class="a" d="M972.917,692.119l1.048-4.132a53.616,53.616,0,0,1,5.693-2.042l.132,1.92.536-2.116c2.4-.685,4.031-.987,4.031-.987a51.43,51.43,0,0,1-6.829,14.793l-5.391.946,4.186.6a21.657,21.657,0,0,1-1.872,1.984c-6.727,6.244-14.219,9.109-16.735,6.4s.9-9.969,7.625-16.213a28.577,28.577,0,0,1,7.327-4.712Z" transform="translate(-704.358 -505.929)"/><path class="a" d="M960.153,667.344l-1.239-4.079a53.619,53.619,0,0,1,3.818-4.691l1.106,1.576-.635-2.089c1.7-1.826,2.941-2.929,2.941-2.929a51.424,51.424,0,0,1,1.8,16.194l-4.123,3.6,3.9-1.647a21.729,21.729,0,0,1-.577,2.666c-2.531,8.822-7.464,15.148-11.018,14.128s-4.384-9-1.853-17.82a28.583,28.583,0,0,1,3.837-7.821Z" transform="translate(-701.56 -485.642)"/><rect class="b" width="162.702" height="0.631" transform="translate(116.666 204.134)"/><path class="a" d="M174.1,205.216c-2.2-3.269-3.149-9.075.947-11.936,2.031-1.419,4.5-1.246,6.632-.621a21.473,21.473,0,0,1,7.85,4.594,63.566,63.566,0,0,1,7.074,7.6c2.183,2.631,4.4,5.231,6.717,7.739a158.863,158.863,0,0,0,30.559,25.629q4.135,2.657,8.446,5.043a75.334,75.334,0,0,0,8.265,4.1c3.772,1.517,10.236,3.637,13.582-.619,1.774-2.256,1.863-5.318,1.462-7.89a37.745,37.745,0,0,0-2.908-8.846c-5.6-13.184-11.258-26.337-16.887-39.5-1.314-3.073-2.667-6.135-3.758-9.311a29.51,29.51,0,0,1-1.892-9.348c-.018-2.829.6-6.021,2.749-8.2a9.066,9.066,0,0,1,6.64-2.392c5.829.034,11.307,3,15.834,6.129,5.625,3.886,10.594,8.606,16.2,12.521,4.525,3.161,9.845,6.026,15.62,6.388a11.32,11.32,0,0,0,6.58-1.366,9.1,9.1,0,0,0,3.935-5.295,17.521,17.521,0,0,0,.261-7.74,31.962,31.962,0,0,0-2.7-8.474c-2.73-5.834-6.46-11.061-9.673-16.6a44.733,44.733,0,0,1-4.1-8.542c-.832-2.566-1.509-5.6-.687-8.385,1.7-5.74,8.59-3.58,12.085-1.923a55.962,55.962,0,0,1,6.831,3.979c.47.31.927-.513.459-.822a53.739,53.739,0,0,0-7.2-4.15,16.141,16.141,0,0,0-6.921-1.779,6.391,6.391,0,0,0-5.328,2.736c-1.426,2.173-1.327,4.983-.944,7.315a29.384,29.384,0,0,0,3.116,8.642c1.471,2.854,3.15,5.584,4.839,8.3,3.374,5.429,7.071,10.922,8.754,17.26,1.177,4.434,1.921,11.359-2.871,14.523a10.626,10.626,0,0,1-7.087,1.343,25.984,25.984,0,0,1-8.084-2.453c-11.8-5.538-19.66-17.037-32.239-21.289-4.277-1.446-10.262-2.369-14.026,1.541a11.82,11.82,0,0,0-2.916,7.5,25.833,25.833,0,0,0,1.352,9.236,91.354,91.354,0,0,0,3.48,9.061q2.115,4.956,4.236,9.91l8.571,20.05,4.259,9.962a49.515,49.515,0,0,1,3.37,9.392c.555,2.7.712,6.412-1.665,8.584-1.888,1.724-4.646,1.644-6.856,1.244a31.506,31.506,0,0,1-8.116-2.9c-2.955-1.442-5.833-3.042-8.657-4.706a153.163,153.163,0,0,1-16.707-11.408,159.222,159.222,0,0,1-15.149-13.511q-3.607-3.656-6.971-7.545c-2.311-2.673-4.481-5.472-6.875-8.072a33.657,33.657,0,0,0-7.291-6.188,14.689,14.689,0,0,0-7.85-2.451,7.116,7.116,0,0,0-5.225,2.507,8.776,8.776,0,0,0-1.937,5.558,11.309,11.309,0,0,0,2.019,6.377c.315.467,1.112-.033.8-.5Z" transform="translate(-166.469 -122.801)"/><rect class="a" width="37.781" height="33.545" transform="translate(5.926 6.35)"/><rect class="c" width="37.781" height="33.545" transform="translate(5.926 66.731)"/><rect class="c" width="37.781" height="33.545" transform="translate(127.322 6.35)"/><rect class="a" width="37.781" height="33.545" transform="translate(127.322 66.731)"/><rect class="c" width="37.781" height="33.545" transform="translate(67.053 6.35)"/><rect class="c" width="37.781" height="33.545" transform="translate(67.053 66.731)"/><ellipse class="b" cx="6" cy="7" rx="6" ry="7" transform="translate(61)"/><ellipse class="b" cx="6" cy="7" rx="6" ry="7" transform="translate(122)"/><ellipse class="b" cx="7" cy="6" rx="7" ry="6" transform="translate(0 61)"/><circle class="b" cx="6" cy="6" r="6" transform="translate(61 61)"/><path class="d" d="M817.983,754.74s-8.814.678-7.91,3.842,7.91,2.712,7.91,2.712,5.424-.452,8.362.452,6.328,0,6.554-1.582-1.582-2.712-1.582-2.712l-1.13-2.26Z" transform="translate(-603.791 -553.842)"/><path class="e" d="M756.471,530.767l-.9,3.616s-4.068,8.362.9,8.362,3.164-7.684,3.164-7.684l.452-3.616Z" transform="translate(-565.442 -400.49)"/><path class="e" d="M892.311,521.45l.9,3.616s4.068,8.362-.9,8.362-3.164-7.684-3.164-7.684l-.452-3.616Z" transform="translate(-657.667 -394.111)"/><circle class="e" cx="9.718" cy="9.718" r="9.718" transform="translate(201.424 46.434)"/><path class="e" d="M816.307,315.9s1.13,5.2.452,7.684,14.011-.452,14.011-.452-5.2-8.588-4.972-8.814Z" transform="translate(-608.103 -252.292)"/><path class="f" d="M791.577,335.639s-4.068-1.13-5.424.226-9.265,5.2-9.265,5.2l5.424,33.22,23.5-5.2,4.068-31.413s-6.409-3.758-7.5-3.009S791.577,335.639,791.577,335.639Z" transform="translate(-581.114 -266.154)"/><path class="f" d="M766.428,354.625l-1.085-.582s-4.113.808-3.887,3.972,1.13,20.791,1.13,20.791l-3.616,31.865,6.554,1.13,6.554-26.667Z" transform="translate(-568.845 -279.49)"/><path class="f" d="M867.11,345.308l1.085-.582s4.113.808,3.887,3.972-1.13,20.791-1.13,20.791l3.616,31.865-6.554,1.13-6.554-26.667Z" transform="translate(-639.019 -273.111)"/><path class="d" d="M786.464,442.908l-.9,13.786-2.938,27.571,4.294,57.176,14.916.452-4.52-54.464,4.52-18.757,14.774-.547s1.045-21.6-7.316-28.38Z" transform="translate(-585.039 -338.168)"/><path class="d" d="M683.539,397.468,681.166,447.3l-.791,25.2,13.334,1.356,3.364-74.1L691.9,394.53Z" transform="translate(-465.843 -270.129)"/><path class="d" d="M806.409,254.54s-8.813-1.13-11.3,3.164c0,0-.678,3.164-2.938,4.294s.452,4.972,1.13,6.1,2.486,7.684.452,9.266,3.616,6.1,3.616,6.1,2.712,3.616.452,6.328,2.938,3.616,2.938,3.616-1.13,7.684.9,5.65c0,0,.9,17.4,9.492,6.554s12.2-16.045,8.588-20.339-.9-8.136-.9-8.136,1.13-2.26-1.356-5.65S815,254.54,806.409,254.54Z" transform="translate(-590.973 -211.27)"/><path class="d" d="M781.432,759.041s-8.814.678-7.91,3.842,7.91,2.712,7.91,2.712,5.424-.452,8.361.452,6.328,0,6.554-1.582-1.582-2.712-1.582-2.712l-1.13-2.26Z" transform="translate(-578.764 -556.787)"/></svg>