<svg xmlns="http://www.w3.org/2000/svg" xmlns:xlink="http://www.w3.org/1999/xlink" width="332.996" height="229.153" viewBox="0 0 332.996 229.153"><defs><style>.a,.c{fill:#3182ce;}.a,.l,.n{opacity:0.1;}.b{fill:url(#a);}.d,.e{fill:#fff;}.d,.h{opacity:0.2;}.e{opacity:0.07;}.f{fill:#535461;}.g{fill:#774e55;}.i{fill:#5c3d53;}.j{opacity:0.05;}.k{fill:#f8bdc5;}.m{fill:#5e52ad;}.o{fill:#eb6475;}.p{fill:none;stroke:#535461;stroke-miterlimit:10;stroke-width:2px;}</style><linearGradient id="a" x1="0.5" y1="1" x2="0.5" gradientUnits="objectBoundingBox"><stop offset="0" stop-color="gray" stop-opacity="0.251"/><stop offset="0.54" stop-color="gray" stop-opacity="0.122"/><stop offset="1" stop-color="gray" stop-opacity="0.102"/></linearGradient></defs><g transform="translate(0 0.079)"><rect class="a" width="24.804" height="9.302" rx="4.651" transform="translate(102.317 23.819)"/><rect class="a" width="24.804" height="9.302" rx="4.651" transform="translate(176.109 15.448)"/><rect class="a" width="24.804" height="9.302" rx="4.651" transform="translate(162.467 110.014)"/><rect class="a" width="24.804" height="9.302" rx="4.651" transform="translate(173.629 120.246)"/><rect class="a" width="24.804" height="9.302" rx="4.651" transform="translate(239.98 115.595)"/><rect class="a" width="24.804" height="9.302" rx="4.651" transform="translate(38.136 123.036)"/><rect class="a" width="24.804" height="9.302" rx="4.651" transform="translate(154.716 130.477)"/><path class="b" d="M541.035,136.94l-11.366-33-4.087.62-3.659.468c.093-1.24.254-5.693-2.015-8.027a6.1,6.1,0,0,0-1.916-2.732c-5.438-4.986-6.57,5.212-6.57,5.212s-1.24,2.152-2.949,5.159l-.9-.171-.254,2.22c-3.783,6.688-8.809,15.738-8.809,16.588a11.208,11.208,0,0,1-.679,3.172s-3.851,6.344-5.212,9.519a15.22,15.22,0,0,1-3.411,4.986s-.329.251-.868.62a7.75,7.75,0,0,1,.31-1.77c.5-1.622,1.649-3.011,1.956-4.679a5.463,5.463,0,0,0,.081-1.212c.071-1.956-.881-3.882-1.277-5.838-.462-2.266-.214-4.762-1.423-6.731a6.947,6.947,0,0,0-4.294-2.871,32.985,32.985,0,0,0-4.713-.422c-1.457-.155-2.849-.8-4.307-1.039a5.559,5.559,0,0,0-2.363,0c-2.465.679-3.237,3.786-5.141,5.494-.685.62-1.525,1.048-2.146,1.727a5.19,5.19,0,0,0-1.169,3.721,7.929,7.929,0,0,0,.081,1.355c.236,1.622.862,3.156,1.24,4.747a16.432,16.432,0,0,1,.462,3.594c0,.273,0,.546-.025.815a2.862,2.862,0,0,1-.419,1.55,4.378,4.378,0,0,1-1.417,1.008,10.991,10.991,0,0,1-3.572-5.066s-.084.105-.226.31v-.31s-3.1-4.552-3.572-8.269l1.079.112,2.48-34.9-6.334-.93a14.455,14.455,0,0,0-1.932-6.322c1.063-2.1,1.6-4.933-3.063-5.215-5.457-.332-5.122,3.919-4.542,6.244a15.64,15.64,0,0,0-.31,3.86l-5.581-.812-.031.453h-1.327l-4.062,35.6,3.46-.174,12.681,1.321c1.014,9.218,2.608,20.609,4.5,23.294a2.293,2.293,0,0,0,.208.257v16.312s-.226,21.084-4.08,24.472a20.153,20.153,0,0,1,7.373-1.156q-.065.209-.13.446a39.559,39.559,0,0,0-1.175,6.35q-.081.71-.146,1.482a79.952,79.952,0,0,0,.2,14.179c1.587,16.768,4.08,28.779,4.08,28.779l.695,9.748s-.679,16.541,1.132,21.98a8.207,8.207,0,0,0,2.319,1.5c.016.155.034.31.05.474s.04.419.062.636c-.812.369-2.328,1.832-2.657,7.581,0,0,.453,4.307-.679,6.344s-.453,7.931,2.945,8.61a18.159,18.159,0,0,0,6.57,0s1.587,0,.453-5.665l-.2-1.451c-.025-2.806.093-5.81.651-6.706,1.132-1.814-.453-3.625-.453-3.625s-.112.062-.295.146a26.8,26.8,0,0,1-.536-6.049,4.337,4.337,0,0,1,.047-.481,9.542,9.542,0,0,0,1.919-1.324V251.547s-.226-33.083,2.266-33.765c0,0,1.132,12.008.679,17.9a56.24,56.24,0,0,0,.679,12.238l.453,24.02s.434.208,1.135.453l-.047.437c-.276,2.67-.719,6.7-1.122,9.168a1.823,1.823,0,0,0-1.1,1.271c-.679,2.266-.226,7.931-1.587,9.519-.8.93-1.764,2.825-1.293,4.164-.295,1.175-.164,3.011,3.333,3.314,5.212.453,7.478-2.266,7.478-2.266a3.991,3.991,0,0,0,0-3.172c-.679-2.04.226-5.665.226-5.665s.487-3.076-.31-3.479c-.068-.366-.13-.6-.13-.6a2.729,2.729,0,0,0-.716-1.885,39.2,39.2,0,0,1,.912-9.649c.05-.164.1-.31.152-.481a6.121,6.121,0,0,0,1.916-.673s-.226-5.212,1.361-8.836.679-18.129.679-18.129a17.085,17.085,0,0,1,.279-6.9,67.694,67.694,0,0,0,2.462-10.48l1.336-9.36s3.519-11.394-1.116-23.09q-.284-.726-.62-1.451c-.384-.84-.812-1.684-1.29-2.521-.074-.13-.155-.264-.233-.394.487-.121.763-.192.763-.192s-6.117-14.262-2.266-21.527a9.443,9.443,0,0,0,2.48-4.555c.384-3.153.8-6.3,1.491-9.4l.121-.546s.019-.105.05-.295c.087-.056.171-.115.254-.177,6.53-4.769,12.16-24.68,12.16-24.68l1.814-3.411.862-1.823-1.767,15.419,13.822,3.411,8.836-.679-.025-1.9,6.734-.524ZM453.415,91.982l-2.456-.36c-.431-2.217-.722-3.671-.722-3.671a13.468,13.468,0,0,0,1.361-2.037,14.118,14.118,0,0,1,1.817,6.055Zm-9.171-4.759c.171.583.326.958.326.958l.31,2.558-.837-.121a16.8,16.8,0,0,1,.2-3.407Zm77.451,17.862-3.324.428a12.462,12.462,0,0,0,.71-5.677,2.849,2.849,0,0,0,.912-2.372c1.975,2.359,1.789,6.527,1.7,7.612Zm-5.519-3.538a8.235,8.235,0,0,0,2.707-1.522,12.6,12.6,0,0,1-.763,5.519l-3.1.4-.856-.164Z" transform="translate(-318.136 -80.5)"/><path class="c" d="M678.087,111.476,670,114.853l-9.4-32.769,2.2-2.617,4.04-.626Z" transform="translate(-455.78 -54.45)"/><path class="d" d="M678.087,111.476,670,114.853l-9.4-32.769,2.2-2.617,4.04-.626Z" transform="translate(-455.78 -54.45)"/><path class="c" d="M636.469,80.86l-14.039,1.8,7.2,34.676,14.036-1.091Z" transform="translate(-429.444 -55.844)"/><path class="e" d="M636.469,80.86l-14.039,1.8,7.2,34.676,14.036-1.091Z" transform="translate(-429.444 -55.844)"/><path class="f" d="M709.081,142.63l-.223-.028c0-.084.93-8.269-4.207-9.3l.043-.22C710.051,134.156,709.1,142.546,709.081,142.63Z" transform="translate(-505.705 -116.832)"/><rect class="g" width="15.465" height="22.637" transform="translate(151.442 49.69)"/><rect class="h" width="15.465" height="22.637" transform="translate(151.442 49.69)"/><path class="c" d="M650.06,124.425l-8.74.673,1.346-34.065,2.911-1.792,4.034.673Z" transform="translate(-442.478 -61.626)"/><path class="h" d="M650.06,124.425l-8.74.673,1.346-34.065,2.911-1.792,4.034.673Z" transform="translate(-442.478 -61.626)"/><path class="c" d="M615.157,83.251,601.264,80.56l-4.034,35.188,13.67,3.361Z" transform="translate(-412.058 -55.637)"/><path class="c" d="M377.752,35.03h-2.018L371.7,70.215l8.964-.446Z" transform="translate(-256.454 -24.223)"/><path class="h" d="M377.752,35.03h-2.018L371.7,70.215l8.964-.446Z" transform="translate(-256.454 -24.223)"/><path class="c" d="M383.565,33.58,381.1,68.991l21.515,2.242,2.465-34.515Z" transform="translate(-262.939 -23.223)"/><path class="i" d="M526.3,706.809s-2.688-.223-3.138,7.621c0,0,.45,4.257-.673,6.275s-.45,7.844,2.914,8.517a17.959,17.959,0,0,0,6.511,0s1.569,0,.45-5.6l-2.242-16.361Z" transform="translate(-379.681 -512.675)"/><path class="j" d="M526.3,706.809s-2.688-.223-3.138,7.621c0,0,.45,4.257-.673,6.275s-.45,7.844,2.914,8.517a17.959,17.959,0,0,0,6.511,0s1.569,0,.45-5.6l-2.242-16.361Z" transform="translate(-379.681 -512.675)"/><path class="k" d="M554.493,261.368a15,15,0,0,0,.474,5.271l-5.826,1.569s-9.636,1.346-5.826-2.48c1.318-1.318,1.966-3.578,2.248-5.965a33.062,33.062,0,0,0,.164-4.911,43.769,43.769,0,0,0-.4-4.589s14.12-4.93,10.982,3.138a28.693,28.693,0,0,0-1.349,4.5A23.709,23.709,0,0,0,554.493,261.368Z" transform="translate(-393.778 -196.653)"/><path class="l" d="M562.782,253.409a28.7,28.7,0,0,0-1.349,4.5,9.655,9.655,0,0,1-9.236-3.045,43.77,43.77,0,0,0-.4-4.589S565.92,245.342,562.782,253.409Z" transform="translate(-400.247 -196.659)"/><circle class="k" cx="9.636" cy="9.636" r="9.636" transform="translate(149.538 41.734)"/><path class="k" d="M485.833,139.3v2.914l-4.93,12.774-1.346-1.346a2.266,2.266,0,0,1-.2-.254c-3.256-4.626-5.624-35.38-5.624-35.38l-3.135-26s-3.361-8.061,4.031-7.621,1.569,7.395,1.569,7.395,4.93,24.652,4.257,25.548,0,3.587,0,3.587,2.018,5.156,1.792,8.964S485.833,139.3,485.833,139.3Z" transform="translate(-343.692 -83.22)"/><path class="k" d="M638.356,132.664,626.7,157.316l-1.792,3.355s-5.581,19.694-12.027,24.41a5.889,5.889,0,0,1-1.2.691l-1.346-10.759,1.24-3.125.093-.239a15.054,15.054,0,0,0,3.361-4.93c1.346-3.138,5.156-9.413,5.156-9.413a11.08,11.08,0,0,0,.673-3.138c0-1.346,12.774-23.533,12.774-23.533s1.119-10.086,6.511-5.156S638.356,132.664,638.356,132.664Z" transform="translate(-440.636 -110.652)"/><path class="k" d="M539.941,706.57s-7.621,3.138-6.725.223c.546-1.767.344-5.107.1-7.441-.155-1.522-.329-2.632-.329-2.632l6.511.673a5.269,5.269,0,0,0-.375,1.783A31.386,31.386,0,0,0,539.941,706.57Z" transform="translate(-387.269 -505.714)"/><path class="k" d="M577.632,692.85c-1.175,4.08-.868,11.187-.868,11.187s-6.948.9-6.275-.9c.468-1.24,1.153-7.385,1.525-11,.164-1.578.267-2.673.267-2.673l6.275,1.346A6.269,6.269,0,0,0,577.632,692.85Z" transform="translate(-413.109 -500.712)"/><path class="l" d="M533,696.69l6.511.673a5.269,5.269,0,0,0-.375,1.783,6.645,6.645,0,0,1-5.8.177C533.174,697.8,533,696.69,533,696.69Z" transform="translate(-387.276 -505.694)"/><path class="l" d="M582.055,690.813a6.269,6.269,0,0,0-.93,2.037,12.054,12.054,0,0,1-5.615-.707c.164-1.578.267-2.673.267-2.673Z" transform="translate(-416.605 -500.712)"/><path class="m" d="M541.525,459.059l-1.321,9.258a66.956,66.956,0,0,1-2.437,10.365,16.864,16.864,0,0,0-.276,6.821s.9,14.343-.673,17.93-1.346,8.74-1.346,8.74c-3.587,2.018-8.74-.45-8.74-.45l-.45-23.756a55.615,55.615,0,0,1-.673-12.092c.446-5.817-.673-17.7-.673-17.7-2.48.673-2.242,33.393-2.242,33.393v21.291a7.222,7.222,0,0,1-10.086,0c-1.792-5.379-1.119-21.741-1.119-21.741l-.673-9.636a283.031,283.031,0,0,1-4.031-28.463,79.062,79.062,0,0,1-.192-14.024q.065-.763.143-1.467a39.125,39.125,0,0,1,1.16-6.279,14.132,14.132,0,0,1,.682-1.987l24.082,1.119,1.42.065,3.411.158c.372.561.722,1.132,1.048,1.7.471.828.9,1.662,1.274,2.48.217.477.422.958.62,1.436C545.013,447.782,541.525,459.059,541.525,459.059Z" transform="translate(-368.903 -321.181)"/><path class="l" d="M515.566,436.463s-1.054,10.542-8.486,7.491q.065-.763.143-1.467c1.749.474,6.589,1.129,6.772-6.027Z" transform="translate(-369.392 -326.149)"/><path class="l" d="M598.941,438.7c-5.147,1.839-7.088-3.057-7.751-5.851l1.42.065c.772,4.393,3.854,4.651,5.73,4.341Q598.656,437.991,598.941,438.7Z" transform="translate(-427.424 -323.658)"/><path class="i" d="M531.109,717.924c-1.144-.18-2.893-.809-2.344-3.008,0,0-2.118-.732-1.894,8.009,0,0-.223,4.257-.673,5.156s0,6.276,4.707,5.826c0,0,3.361,1.119,4.257-.673,0,0-.673-10.309.45-12.092s-.45-3.587-.45-3.587a4.848,4.848,0,0,1-2.728.62A12.015,12.015,0,0,0,531.109,717.924Z" transform="translate(-382.489 -518.259)"/><path class="i" d="M559.391,749.14s-2.242,3.811,2.914,4.257,7.395-2.242,7.395-2.242a3.942,3.942,0,0,0,0-3.138c-.673-2.018.223-5.6.223-5.6s.673-4.257-.9-3.361S559.391,749.14,559.391,749.14Z" transform="translate(-405.149 -534.837)"/><path class="j" d="M559.391,749.14s-2.242,3.811,2.914,4.257,7.395-2.242,7.395-2.242a3.942,3.942,0,0,0,0-3.138c-.673-2.018.223-5.6.223-5.6s.673-4.257-.9-3.361S559.391,749.14,559.391,749.14Z" transform="translate(-405.149 -534.837)"/><path class="i" d="M565.176,727.147s-2.688-1.119-3.361,1.119-.223,7.844-1.569,9.413-3.138,5.826,2.242,5.6S569,741.264,569,741.264s-.223-5.6.45-7.172a7.513,7.513,0,0,0,0-4.031S569.656,726.909,565.176,727.147Z" transform="translate(-405.105 -526.515)"/><circle class="h" cx="0.45" cy="0.45" r="0.45" transform="translate(126.002 13.045)"/><circle class="h" cx="0.45" cy="0.45" r="0.45" transform="translate(135.415 14.164)"/><path class="f" d="M479.691,104.009h-.223c0-.1.158-9.55-5.271-10.421a2.855,2.855,0,0,0-2.6.719c-2.242,2.223-1.315,8.5-1.305,8.564l-.22.034c-.04-.264-.952-6.455,1.37-8.756a3.061,3.061,0,0,1,2.79-.784C479.852,94.264,479.694,103.913,479.691,104.009Z" transform="translate(-343.715 -89.392)"/><path class="f" d="M703.247,145.185l-.2-.1c.034-.074,3.488-7.556-1.076-10.163l.112-.2C706.822,137.44,703.285,145.107,703.247,145.185Z" transform="translate(-503.856 -117.97)"/><path class="l" d="M554.968,291.057l-5.826,1.569s-9.636,1.346-5.826-2.48c1.318-1.318,1.966-3.578,2.248-5.965,1.522,2.387,3.355,1.708,3.355,1.708l5.556-.109h.022A14.921,14.921,0,0,0,554.968,291.057Z" transform="translate(-393.778 -221.083)"/><path class="l" d="M612.892,290.861a5.892,5.892,0,0,1-1.2.691l-1.346-10.759,1.24-3.125.31-.239C614.7,278.227,613.255,288.533,612.892,290.861Z" transform="translate(-440.643 -216.426)"/><path class="l" d="M507.02,261.54v2.914l-4.93,12.774-1.346-1.346a2.266,2.266,0,0,1-.2-.254C501.123,268.969,507.02,261.54,507.02,261.54Z" transform="translate(-364.88 -205.463)"/><path class="l" d="M541.929,432.285c-3.135.784-19.5,4.629-24.355.989a11.065,11.065,0,0,0-6.285-2.046,14.138,14.138,0,0,1,.682-1.987l24.082,1.119,1.42.065,3.411.158Q541.443,431.429,541.929,432.285Z" transform="translate(-372.297 -321.167)"/><path class="k" d="M474.1,90.59s3.361,5.6,5.6,0" transform="translate(-346.638 -87.516)"/><path class="k" d="M696.757,127.81s-1.346,6.725,4.031,3.587" transform="translate(-500.156 -113.196)"/><g class="n" transform="translate(139.53 108.082)"><path d="M547.58,524.707c-.109-1.364-.189-2.217-.189-2.217-2.48.673-2.242,33.393-2.242,33.393v21.291a7.794,7.794,0,0,1-4.449,2.068,7.4,7.4,0,0,0,5.581-2.068V555.883S546.107,532.173,547.58,524.707Z" transform="translate(-532.118 -493.587)"/><path d="M544.9,436.231c-.189-.477-.391-.958-.62-1.436-.378-.831-.8-1.665-1.274-2.48-.31-.57-.676-1.138-1.048-1.7l-3.411-.158-1.42-.065-24.082-1.119-.022.05L536,430.389l1.42.065,3.411.158c.372.561.722,1.132,1.048,1.7.471.828.9,1.662,1.274,2.48.217.477.422.958.62,1.436a37.9,37.9,0,0,1,1.1,22.835l-1.321,9.258a66.943,66.943,0,0,1-2.437,10.365,16.863,16.863,0,0,0-.276,6.821s.9,14.343-.673,17.93-1.346,8.74-1.346,8.74a6.511,6.511,0,0,1-2.809.775,7.132,7.132,0,0,0,3.928-.775s-.223-5.156,1.346-8.74.673-17.93.673-17.93a16.865,16.865,0,0,1,.276-6.821,66.95,66.95,0,0,0,2.437-10.365L546,459.066S549.479,447.789,544.9,436.231Z" transform="translate(-513.02 -429.27)"/></g><path class="o" d="M517.063,270.653c3.1,1.46,10.356-4.148,10.356-4.148,3.138.9.9,13.9.9,13.9l-.121.539c-.682,3.066-1.094,6.182-1.476,9.3a9.243,9.243,0,0,1-2.437,4.505c-3.811,7.172,2.242,21.291,2.242,21.291s-19.5,5.156-24.875,1.119-13.447-.9-13.447-.9c3.811-3.361,4.031-24.206,4.031-24.206V275.933c.45-6.725,6.511-14.343,6.511-14.343A11.262,11.262,0,0,0,508.115,269c1.529,2.48,3.411,1.783,3.411,1.783Z" transform="translate(-356.366 -205.497)"/><path class="l" d="M535.562,202.281a5.5,5.5,0,0,0-2.335,0c-2.437.673-3.2,3.745-5.085,5.432-.676.62-1.51,1.036-2.124,1.708a5.584,5.584,0,0,0-1.079,4.573c.233,1.6.853,3.122,1.24,4.694a16.244,16.244,0,0,1,.431,4.812,2.831,2.831,0,0,1-.416,1.522c-.45.62-1.277.815-1.86,1.312-1.78,1.532-.31,4.71-1.615,6.666-.561.846-1.612,1.4-1.826,2.4a3.28,3.28,0,0,0,.487,2.062,14.93,14.93,0,0,0,3.1,4.728,14.54,14.54,0,0,0,4.877,2.558c.524.2,1.181.366,1.581-.022.493-.484.121-1.3-.22-1.9a4.04,4.04,0,0,1-.645-3.1c.316-1.048,1.33-1.742,2.012-2.617,1.758-2.263,1.181-5.513.31-8.241a6.4,6.4,0,0,1-.471-3.544c.133-.5.4-.958.564-1.451.744-2.2-.505-4.6-.14-6.892a9.9,9.9,0,0,1,.93-2.564l1.969-4.232a4.183,4.183,0,0,1,.871-1.37,3.1,3.1,0,0,1,2.17-.676,5.891,5.891,0,0,1,4.226,1.925c2.108,2.344,1.975,5.891,1.721,9.016l-.183,2.257a8.259,8.259,0,0,1-1.333,4.623c-.8.98-2.084,1.646-2.412,2.868-.285,1.051.251,2.192-.031,3.243-.422,1.572-2.363,2.139-3.389,3.411a3.488,3.488,0,0,0-.254,3.922c.391.62,1.014,1.24.93,1.969-.071.586-.6,1.06-.6,1.649a1.312,1.312,0,0,0,.952,1.138,3.844,3.844,0,0,0,1.572.074l5.559-.5a1.957,1.957,0,0,0,.989-.273,1.741,1.741,0,0,0,.567-1.268c.223-1.978-.31-4.139.679-5.869.31-.555.766-1.017,1.11-1.55,1.9-2.977-.016-7.013,1.017-10.39.49-1.6,1.631-2.98,1.935-4.626.4-2.2-.741-4.341-1.184-6.511-.456-2.242-.211-4.71-1.408-6.66a6.85,6.85,0,0,0-4.245-2.84,32.732,32.732,0,0,0-4.651-.419C538.381,203.152,537,202.514,535.562,202.281Z" transform="translate(-378.896 -164.491)"/><path class="g" d="M535.562,200.831a5.5,5.5,0,0,0-2.335,0c-2.437.673-3.2,3.745-5.085,5.432-.676.62-1.51,1.036-2.124,1.708a5.584,5.584,0,0,0-1.079,4.573c.233,1.6.853,3.122,1.24,4.694a16.244,16.244,0,0,1,.431,4.812,2.831,2.831,0,0,1-.416,1.522c-.45.62-1.277.815-1.86,1.312-1.78,1.532-.31,4.71-1.615,6.666-.561.846-1.612,1.4-1.826,2.4a3.28,3.28,0,0,0,.487,2.062,14.93,14.93,0,0,0,3.1,4.728,14.54,14.54,0,0,0,4.877,2.558c.524.2,1.181.366,1.581-.022.493-.484.121-1.3-.22-1.9a4.04,4.04,0,0,1-.645-3.1c.316-1.048,1.33-1.742,2.012-2.617,1.758-2.263,1.181-5.513.31-8.241a6.4,6.4,0,0,1-.471-3.544c.133-.5.4-.958.564-1.451.744-2.2-.505-4.6-.14-6.892a9.9,9.9,0,0,1,.93-2.564l1.969-4.232a4.183,4.183,0,0,1,.871-1.37,3.1,3.1,0,0,1,2.17-.676,5.891,5.891,0,0,1,4.226,1.925c2.108,2.344,1.975,5.891,1.721,9.016l-.183,2.257a8.259,8.259,0,0,1-1.333,4.623c-.8.98-2.084,1.646-2.412,2.868-.285,1.051.251,2.192-.031,3.243-.422,1.572-2.363,2.139-3.389,3.411a3.488,3.488,0,0,0-.254,3.922c.391.62,1.014,1.24.93,1.969-.071.586-.6,1.06-.6,1.649a1.312,1.312,0,0,0,.952,1.138,3.845,3.845,0,0,0,1.572.074l5.559-.5a1.956,1.956,0,0,0,.989-.273,1.741,1.741,0,0,0,.567-1.268c.223-1.978-.31-4.139.679-5.869.31-.555.766-1.017,1.11-1.55,1.9-2.977-.016-7.013,1.017-10.39.49-1.6,1.631-2.98,1.935-4.626.4-2.2-.741-4.341-1.184-6.511-.456-2.242-.211-4.71-1.408-6.66a6.85,6.85,0,0,0-4.245-2.84,32.732,32.732,0,0,0-4.651-.419C538.381,201.705,537,201.067,535.562,200.831Z" transform="translate(-378.896 -163.49)"/><path class="l" d="M529.75,363.219s4.483,1.346,10.982-1.569h3.358s.223,3.138,8.964,1.792" transform="translate(-385.033 -274.534)"/><ellipse class="a" cx="166.498" cy="15.193" rx="166.498" ry="15.193" transform="translate(0 198.689)"/><rect class="a" width="24.804" height="9.302" rx="4.651" transform="translate(78.133 79.939)"/><rect class="a" width="24.804" height="9.302" rx="4.651" transform="translate(89.295 90.17)"/><rect class="a" width="24.804" height="9.302" rx="4.651" transform="translate(186.961 80.559)"/><rect class="a" width="24.804" height="9.302" rx="4.651" transform="translate(198.123 90.791)"/><rect class="a" width="24.804" height="9.302" rx="4.651" transform="translate(70.382 100.402)"/><rect class="a" width="24.804" height="9.302" rx="4.651" transform="translate(95.186 136.678)"/><rect class="a" width="24.804" height="9.302" rx="4.651" transform="translate(106.348 146.91)"/><rect class="a" width="24.804" height="9.302" rx="4.651" transform="translate(87.435 157.142)"/><rect class="a" width="24.804" height="9.302" rx="4.651" transform="translate(195.023 162.723)"/><rect class="a" width="24.804" height="9.302" rx="4.651" transform="translate(176.109 172.954)"/><g class="n" transform="translate(279.131 119.775)"><path class="p" d="M1005.835,586.775s-4.49-22.745,4.756-38.335a35.129,35.129,0,0,0,4.846-21.685,59.085,59.085,0,0,0-2.17-10.585" transform="translate(-991.887 -500.92)"/><path class="c" d="M1028.948,472.375c-.248,2.713-5.891,10.132-5.891,10.132s-4.192-8.322-3.941-11.038a4.936,4.936,0,1,1,9.83.9Z" transform="translate(-1001.794 -466.984)"/><path class="c" d="M1049.349,517.129c-1.684,2.142-10.449,5.308-10.449,5.308s1-9.264,2.688-11.407a4.936,4.936,0,1,1,7.751,6.1Z" transform="translate(-1015.452 -495.957)"/><path class="c" d="M1037.808,596.8c-2.536,1-11.7-.695-11.7-.695s5.544-7.491,8.08-8.489a4.936,4.936,0,1,1,3.619,9.184Z" transform="translate(-1006.627 -549.973)"/><path class="c" d="M1017.189,658.775c-2.332,1.414-11.649,1.293-11.649,1.293s4.2-8.319,6.53-9.733a4.936,4.936,0,1,1,5.119,8.44Z" transform="translate(-992.435 -592.992)"/><path class="c" d="M1002.817,532.872c1.774,2.071,10.663,4.862,10.663,4.862s-1.4-9.215-3.166-11.283a4.936,4.936,0,1,0-7.5,6.422Z" transform="translate(-989.737 -506.822)"/><path class="c" d="M976.954,602.521c2.31,1.445,11.63,1.448,11.63,1.448s-4.086-8.371-6.4-9.819a4.936,4.936,0,1,0-5.231,8.372Z" transform="translate(-971.111 -554.203)"/><path class="c" d="M965.048,676.288c2.034,1.814,11.218,3.4,11.218,3.4s-2.614-8.945-4.651-10.759a4.936,4.936,0,1,0-6.567,7.364Z" transform="translate(-963.273 -605.372)"/></g><g class="n" transform="translate(246.724 154.69)"><path class="p" d="M881.329,643.423s-2.409-12.213,2.552-20.584a18.864,18.864,0,0,0,2.6-11.646,31.728,31.728,0,0,0-1.16-5.683" transform="translate(-873.925 -597.474)"/><path class="c" d="M893.737,582.332c-.133,1.457-3.162,5.441-3.162,5.441s-2.251-4.468-2.118-5.925a2.651,2.651,0,0,1,5.271.484Z" transform="translate(-879.243 -579.591)"/><path class="c" d="M904.682,606.357c-.905,1.15-5.612,2.849-5.612,2.849s.539-4.961,1.445-6.124a2.651,2.651,0,0,1,4.167,3.274Z" transform="translate(-886.569 -595.143)"/><path class="c" d="M898.492,648.882c-1.361.536-6.282-.372-6.282-.372s2.976-4.031,4.341-4.558a2.651,2.651,0,0,1,1.944,4.93Z" transform="translate(-881.836 -623.889)"/><path class="c" d="M887.424,681.985c-1.24.76-6.254.695-6.254.695s2.254-4.468,3.507-5.227a2.651,2.651,0,1,1,2.747,4.533Z" transform="translate(-874.219 -646.822)"/><path class="c" d="M879.7,614.482c.952,1.113,5.727,2.611,5.727,2.611s-.747-4.961-1.7-6.058a2.652,2.652,0,0,0-4.031,3.448Z" transform="translate(-872.76 -600.645)"/><path class="c" d="M865.816,651.875c1.24.775,6.244.778,6.244.778s-2.2-4.5-3.435-5.271a2.651,2.651,0,1,0-2.809,4.5Z" transform="translate(-862.765 -626.086)"/><path class="c" d="M859.621,691.616c1.091.974,6.024,1.823,6.024,1.823s-1.4-4.8-2.48-5.776a2.651,2.651,0,1,0-3.529,3.957Z" transform="translate(-858.75 -653.691)"/></g><g class="n" transform="translate(50.461 156.55)"><path class="p" d="M248.329,649.423s-2.409-12.213,2.552-20.584a18.864,18.864,0,0,0,2.6-11.646,31.725,31.725,0,0,0-1.16-5.683" transform="translate(-240.925 -603.474)"/><path class="c" d="M260.737,588.332c-.133,1.457-3.163,5.441-3.163,5.441s-2.251-4.468-2.118-5.925a2.651,2.651,0,0,1,5.271.484Z" transform="translate(-246.243 -585.592)"/><path class="c" d="M271.682,612.357c-.905,1.15-5.612,2.849-5.612,2.849s.539-4.961,1.445-6.124a2.651,2.651,0,0,1,4.167,3.274Z" transform="translate(-253.569 -601.143)"/><path class="c" d="M265.492,654.882c-1.361.536-6.282-.372-6.282-.372s2.977-4.031,4.341-4.558a2.651,2.651,0,0,1,1.944,4.93Z" transform="translate(-248.836 -629.89)"/><path class="c" d="M254.424,687.984c-1.24.76-6.254.695-6.254.695s2.254-4.468,3.507-5.228a2.651,2.651,0,1,1,2.747,4.533Z" transform="translate(-241.219 -652.822)"/><path class="c" d="M246.7,620.482c.952,1.113,5.727,2.611,5.727,2.611s-.747-4.961-1.7-6.058a2.652,2.652,0,0,0-4.031,3.448Z" transform="translate(-239.76 -606.645)"/><path class="c" d="M232.816,657.875c1.24.775,6.244.778,6.244.778s-2.2-4.5-3.435-5.271a2.651,2.651,0,1,0-2.809,4.5Z" transform="translate(-229.765 -632.086)"/><path class="c" d="M226.621,697.616c1.091.974,6.024,1.823,6.024,1.823s-1.4-4.8-2.48-5.776a2.651,2.651,0,1,0-3.529,3.957Z" transform="translate(-225.75 -659.691)"/></g></g></svg>