<svg xmlns="http://www.w3.org/2000/svg" width="320" height="230.223" viewBox="0 0 320 230.223"><defs><style>.a{fill:#3f3d56;}.b{fill:#f2f2f2;}.c,.g{fill:#3182ce;}.d{fill:#ff6584;}.e{fill:#e6e6e6;}.f{fill:#fff;}.g{opacity:0.2;}.h{fill:#2f2e41;}.i{fill:#ffb9b9;}.j{opacity:0.1;}</style></defs><g transform="translate(0 0)"><path class="a" d="M414.554,594.493q-24.733-3.622-47.572-6.245L373,578.505c-2.03-.6-10.948,4.954-10.948,4.954l7.9-28.325c-10.208.983-15.4,29.918-15.4,29.918l-11.405-9.844,5.52,11.033c-46.6-4.81-86.846-6.7-120.7-6.918l5.153-8.339c-2.03-.6-10.948,4.955-10.948,4.955l7.9-28.325c-10.208.983-15.4,29.918-15.4,29.918l-11.4-9.844,5.847,11.686c-28.379.344-51.522,1.859-69.385,3.625,5.213-13,22.916-25.311,22.916-25.311-13.519,3.3-20.611,8.911-24.317,14.153a194.32,194.32,0,0,1,15.782-78.851s-27.95,50.778-24.39,84.965l.426,6.07c-23.689,2.73-35.6,5.63-35.6,5.63Z" transform="translate(-94.554 -364.271)"/><path class="a" d="M412.414,95.579V300.768a9.224,9.224,0,0,1-9.221,9.215h-83.3a9.205,9.205,0,0,1-9.221-9.215V95.579a9.221,9.221,0,0,1,9.222-9.221h12.465v1.6a7.593,7.593,0,0,0,7.592,7.594h42.366a7.53,7.53,0,0,0,4.5-1.481,7.039,7.039,0,0,0,.747-.627,7.571,7.571,0,0,0,2.342-5.486v-1.6h13.286a9.218,9.218,0,0,1,9.221,9.221Z" transform="translate(-242.259 -86.358)"/><circle class="b" cx="2.216" cy="2.216" r="2.216" transform="translate(89.402 31.972)"/><path class="c" d="M551.968,108.738a7.06,7.06,0,0,1-.747.627,39.647,39.647,0,0,0,25.6,19.053v-.988A38.714,38.714,0,0,1,551.968,108.738Z" transform="translate(-406.663 -101.654)"/><path class="c" d="M491.529,115.4h-1.038a57.507,57.507,0,0,0,44.82,35.786V150.2A56.52,56.52,0,0,1,491.529,115.4Z" transform="translate(-365.157 -106.205)"/><path class="c" d="M431.191,115.4h-1A75.824,75.824,0,0,0,494.1,169.566V168.6A74.86,74.86,0,0,1,431.191,115.4Z" transform="translate(-323.945 -106.205)"/><path class="b" d="M263.692,158.577h-.577V158H263v.577h-.577v.113H263v.577h.112v-.577h.577Z" transform="translate(-179.355 -107.985)"/><path class="b" d="M386.692,67.577h-.577V67H386v.577h-.577v.113H386v.577h.112v-.577h.577Z" transform="translate(-263.419 -45.791)"/><path class="b" d="M281.692,230.577h-.577V230H281v.577h-.577v.113H281v.577h.112v-.577h.577Z" transform="translate(-191.657 -157.193)"/><path class="b" d="M365.692,177.577h-.577V177H365v.577h-.577v.113H365v.577h.112v-.577h.577Z" transform="translate(-249.067 -120.97)"/><path class="b" d="M485.692,210.577h-.577V210H485v.577h-.577v.113H485v.577h.112v-.577h.577Z" transform="translate(-331.081 -143.524)"/><circle class="d" cx="1.266" cy="1.266" r="1.266" transform="translate(146.698 38.303)"/><path class="e" d="M417.13,305.158l-.719.111c.225,1.437.4,2.906.532,4.359l.725-.063C417.538,308.092,417.357,306.611,417.13,305.158Z" transform="translate(-314.527 -235.896)"/><path class="e" d="M410.967,277.818l-.7.212c.421,1.393.8,2.821,1.117,4.242l.712-.161C411.775,280.673,411.391,279.23,410.967,277.818Z" transform="translate(-310.331 -217.211)"/><path class="e" d="M401.133,251.6l-.662.3c.608,1.326,1.178,2.688,1.693,4.049l.681-.256C402.323,254.317,401.75,252.937,401.133,251.6Z" transform="translate(-303.633 -199.291)"/><path class="e" d="M387.835,227.018l-.614.389c.782,1.228,1.532,2.5,2.229,3.776l.639-.348C389.386,229.544,388.626,228.259,387.835,227.018Z" transform="translate(-294.577 -182.492)"/><path class="e" d="M371.3,204.488l-.554.472c.943,1.108,1.861,2.267,2.729,3.438l.582-.434C373.188,206.78,372.261,205.609,371.3,204.488Z" transform="translate(-283.321 -167.094)"/><path class="e" d="M351.875,184.428l-.484.541c1.089.972,2.156,1.994,3.172,3.036l.522-.51C354.056,186.441,352.977,185.409,351.875,184.428Z" transform="translate(-270.089 -153.384)"/><path class="e" d="M329.919,167.208l-.408.6c1.209.814,2.406,1.681,3.555,2.577l.449-.573C332.35,168.908,331.141,168.031,329.919,167.208Z" transform="translate(-255.135 -141.615)"/><path class="e" d="M310.671,155.248v.823c.757.4,1.507.81,2.241,1.235l.364-.63Q311.994,155.935,310.671,155.248Z" transform="translate(-242.259 -133.441)"/><path class="e" d="M418.161,516.524c.118-.708.226-1.43.321-2.148l.722.1c-.1.725-.206,1.456-.325,2.172Z" transform="translate(-315.723 -378.886)"/><path class="e" d="M411.752,539l.7.216c.437-1.407.831-2.848,1.174-4.283l-.709-.168C412.573,536.184,412.185,537.607,411.752,539Z" transform="translate(-311.343 -392.82)"/><path class="e" d="M401.71,565.263l.66.309c.628-1.332,1.216-2.7,1.749-4.078l-.679-.265C402.913,562.588,402.332,563.945,401.71,565.263Z" transform="translate(-304.479 -410.908)"/><path class="e" d="M388.2,590.084l.61.4c.805-1.234,1.577-2.514,2.3-3.8l-.635-.356C389.761,587.6,389,588.861,388.2,590.084Z" transform="translate(-295.246 -428.058)"/><path class="e" d="M371.482,612.978l.552.478c.968-1.117,1.907-2.279,2.8-3.454l-.583-.436C373.371,610.728,372.441,611.876,371.482,612.978Z" transform="translate(-283.82 -443.944)"/><path class="e" d="M351.907,633.5l.479.547c1.113-.971,2.2-2,3.241-3.037l-.515-.516C354.085,631.527,353.006,632.537,351.907,633.5Z" transform="translate(-270.442 -458.249)"/><path class="e" d="M329.855,651.3l.4.609c1.229-.812,2.45-1.677,3.621-2.568l-.44-.581C332.278,649.64,331.072,650.495,329.855,651.3Z" transform="translate(-255.37 -470.728)"/><path class="e" d="M313.359,664.648c-.88.5-1.779.978-2.688,1.434v-.817c.785-.4,1.564-.82,2.327-1.247Z" transform="translate(-242.259 -481.159)"/><path class="e" d="M418.836,333.435l.728-.013c.013.735.015,1.473,0,2.2l-.728-.011C418.85,334.892,418.849,334.162,418.836,333.435Z" transform="translate(-316.184 -255.214)"/><path class="f" d="M226.216,301.632h74.456a20.892,20.892,0,0,1,20.892,20.892v2.765H247.108A20.892,20.892,0,0,1,226.216,304.4v-2.766Z" transform="translate(-154.607 -206.15)"/><path class="b" d="M471.318,617.584c-.073-.119-1.786-2.979-2.379-8.918-.545-5.449-.195-14.633,4.569-27.444a55.345,55.345,0,0,0-2.193-44.048l.548-.318a48.616,48.616,0,0,1,4.586,12.993,56.681,56.681,0,0,1-2.348,31.594c-9.008,24.229-2.311,35.7-2.242,35.812Z" transform="translate(-350.295 -394.25)"/><circle class="c" cx="4.115" cy="4.115" r="4.115" transform="translate(113.379 133.268)"/><circle class="b" cx="4.115" cy="4.115" r="4.115" transform="translate(126.358 148.462)"/><circle class="c" cx="4.115" cy="4.115" r="4.115" transform="translate(117.494 158.592)"/><circle class="c" cx="4.115" cy="4.115" r="4.115" transform="translate(128.257 167.139)"/><circle class="b" cx="4.115" cy="4.115" r="4.115" transform="translate(114.329 180.434)"/><path class="b" d="M483.3,754.085s-4.115-10.13,8.23-17.727Z" transform="translate(-359.794 -530.6)"/><path class="b" d="M433.4,768.718s-1.873-10.772-16.368-10.68Z" transform="translate(-314.948 -545.417)"/><circle class="g" cx="25.324" cy="25.324" r="25.324" transform="translate(76.74 81.987)"/><circle class="g" cx="17.834" cy="17.834" r="17.834" transform="translate(84.23 89.477)"/><circle class="c" cx="11.77" cy="11.77" r="11.77" transform="translate(90.294 95.54)"/><path class="f" d="M414.5,412.716a2.14,2.14,0,1,0-3.492,1.658l-.788,5.517h4.28l-.788-5.517A2.135,2.135,0,0,0,414.5,412.716Z" transform="translate(-310.295 -307.944)"/><path class="h" d="M695,136.036s-7.06-6.329-16.554,5.6-24.344,17.771-27.752,22.4c0,0,14.119-5.843,18.988-8.277s4.625-1.948,4.625-1.948-6.573,4.625-7.79,9.251-.244,8.52-2.435,13.146,41.872,3.165,41.872,3.165,4.382-7.547,3.165-15.337S708.635,137.009,695,136.036Z" transform="translate(-474.649 -119.163)"/><path class="i" d="M727.66,202.56s1.535,10.746-5.044,13.158-4.167,5.7-4.167,5.7l9.869,4.825,10.527-3.29,3.509-5.263s-5.7-1.316-4.167-5.263,1.974-5.263,1.974-5.263Z" transform="translate(-520.66 -165.776)"/><path class="j" d="M727.66,202.56s1.535,10.746-5.044,13.158-4.167,5.7-4.167,5.7l9.869,4.825,10.527-3.29,3.509-5.263s-5.7-1.316-4.167-5.263,1.974-5.263,1.974-5.263Z" transform="translate(-520.66 -165.776)"/><path class="i" d="M816.357,299.551s-1.535,20.176-1.1,21.053,0,31.361,0,31.361,3.07,16.448-.877,17.325-3.07-18.422-3.07-18.422l-3.947-25.439.439-25.22Z" transform="translate(-581.725 -232.064)"/><path class="j" d="M816.357,299.551s-1.535,20.176-1.1,21.053,0,31.361,0,31.361,3.07,16.448-.877,17.325-3.07-18.422-3.07-18.422l-3.947-25.439.439-25.22Z" transform="translate(-581.725 -232.064)"/><path class="i" d="M685.514,491.454s-7.237,27.413-7.017,40.791,3.07,32.018,3.07,32.018.439,8.114-.219,8.992,3.29,4.605,3.29,4.605l4.167-2.412,1.535-1.754v-1.535s-2.412-7.456-.439-13.377,3.07-20.834,1.1-25.439l13.6-40.352Z" transform="translate(-493.646 -363.22)"/><path class="h" d="M668.282,748.1s-2.632-3.29-4.386-2.193-4.605,8.553-4.605,8.553-9.869,9.43-2.851,9.869,10.088-1.974,10.965-3.728,8.992-6.36,8.992-6.36-.877-8.333-2.193-8.553-3.29,3.29-3.29,3.29Z" transform="translate(-476.853 -536.969)"/><path class="i" d="M769.561,482.791v27.194a84.071,84.071,0,0,0,.658,9.869c.658,4.825-3.728,40.79-3.728,40.79l.439,6.36,5.483-.439.658-5.483,7.9-24.123s2.631-14.693,1.316-20.176,6.8-40.571,6.8-40.571Z" transform="translate(-553.789 -352.803)"/><path class="h" d="M761.327,752.748l1.624-.353s1.227-2.717,2.762-2.059a16.567,16.567,0,0,1,3.052,1.829l.676,1.241a26.2,26.2,0,0,0,3.509,5.483c1.974,2.193,4.167,7.018.877,7.456s-7.675.658-8.991-.439-.439-2.851-1.754-3.289-2.412-1.754-2.193-2.193S761.327,752.748,761.327,752.748Z" transform="translate(-549.941 -540.082)"/><circle class="i" cx="9.747" cy="9.747" r="9.747" transform="translate(206.026 24.844)"/><path class="c" d="M718,247.486l2.9-1.011s-1.142,1.889,5,2.985,12.5,1.485,15.351-2.109c0,0,1.1-.523,2.632,1.012s2.412,1.1,2.412,1.1l-1.1,5.7L743,265.689l-2.851,7.895-8.114-1.754-8.772-6.36-3.29-8.553v-7.9Z" transform="translate(-520.645 -195.79)"/><path class="c" d="M721.076,252.32l2.193-1.535s7.456,1.316,7.895,4.825l-5.7,10.965a12.481,12.481,0,0,1-.219,9.43c-2.193,5.044-1.974,6.14-1.974,6.14l-1.535,6.579-27.851,2.193a19.726,19.726,0,0,0-1.535-3.07c-.439-.439-.439-1.974,0-1.974s0-.658-.439-1.316-.658-.877,0-1.754-1.1-8.772-1.1-8.772v-8.553l-7.456-9.869s2.632-3.947,3.948-4.386,7.575-2.168,7.575-2.168l1.417,2.085,1.974,15.873,2.851,9.649,12-2.04,4.663-7.829,3.07-9.211Z" transform="translate(-496.97 -197.553)"/><path class="c" d="M816.992,265.6l1.754,1.316s1.535,12.281,1.1,13.158-8.114,1.754-8.333,1.316S816.992,265.6,816.992,265.6Z" transform="translate(-584.553 -208.863)"/><path class="h" d="M701.742,244.312l2.193,14.474s-1.974,21.492-1.535,25.878l.439,1.316s-.877-.439-1.1.439a20.517,20.517,0,0,0,0,3.728s-1.316,1.316-1.754,8.553-5.7,24.562-3.728,25.22,13.816,3.947,20.176,3.29,29.167-8.334,28.948-10.307S734.2,287.076,734.2,287.076a28.817,28.817,0,0,1-1.974-3.728c0-.438,2.632-2.193,1.974-3.947s-4.167-20.176-4.167-20.176l2.412-13.158-3.289-.877-2.412,12.72s-9.43,4.605-19.3.439l-2.193-14.913Z" transform="translate(-505.488 -193.712)"/><path class="h" d="M747.864,164.065s16.229,11.185,20.615,6.14-7.676-9.43-7.676-9.43l-10.088-1.1Z" transform="translate(-541.058 -136.469)"/><path class="c" d="M585.995,516.11a8.556,8.556,0,1,0-2.684-3.331l-22.382,18.636-2.98-3.537-1.339.9L555.119,527l1.224-1.032-1.49-1.769-1.9,1.6.917,1.088-2.04,1.719-.917-1.088-2.993,2.522,1.376,1.633,1.088-.917,1.49,1.768-1.361,1.146,2.751,3.265L550,539.7l3.324,3.945Zm5.588-12.5a5.66,5.66,0,1,1-6.122,5.158A5.66,5.66,0,0,1,591.583,503.609Z" transform="translate(-404.404 -369.533)"/><path class="i" d="M678.418,307.864s1.535,20.176,1.1,21.053,0,31.36,0,31.36-3.07,16.448.877,17.325,3.07-18.422,3.07-18.422l3.948-25.439-.439-25.22Z" transform="translate(-493.568 -237.746)"/><path class="c" d="M679.582,267.682l-1.754.658s-3.29,13.816-2.412,13.816,11.4,1.316,11.4.877-1.974-11.184-1.974-11.184Z" transform="translate(-491.441 -210.284)"/></g></svg>