<svg xmlns="http://www.w3.org/2000/svg" width="320" height="249.87" viewBox="0 0 320 249.87"><defs><style>.a{fill:#ffb8b8;}.b{fill:#3182ce;}.c{fill:#2f2e41;}.d{opacity:0.2;}.e{fill:#e6e6e6;}.f{fill:#fff;}</style></defs><g transform="translate(0 0.001)"><path class="a" d="M619.958,528.494h0a7.368,7.368,0,0,1-11.568-1.977l-6.815-13.085,2.711-5.875,14.61,9.35a7.368,7.368,0,0,1,1.062,11.586Z" transform="translate(-440.864 -356.614)"/><path class="b" d="M512.87,410.238l-55.865-29.015a2.045,2.045,0,0,1-1.042-1.322l-12.118-48.842a11.724,11.724,0,0,1,7.506-13.889l2.919-1.022a5.038,5.038,0,0,1,6.519,3.407l11.944,43a2.046,2.046,0,0,0,.666,1.027L518.916,401.3a2.045,2.045,0,0,1,.383,2.73l-3.8,5.551A2.045,2.045,0,0,1,512.87,410.238Z" transform="translate(-354.218 -251.544)"/><path class="a" d="M85.6,439.466l-23.95-5.875,1.356-13.556,23.95,10.845Z" transform="translate(-33.793 -230.23)"/><path class="c" d="M411.433,256.232c-27.095-14.265-55.457-21.428-85.857-17.172,9.164-15.531,15.97-29.889,15.515-40.638a21.158,21.158,0,0,1,8.3-18.025,25.685,25.685,0,0,1,15.308-5.052h0a21.035,21.035,0,0,1,15.581-.619,16.384,16.384,0,0,1,9.5,9.41c1.039,2.518,3.277,4.724,6.522,6.667a18.3,18.3,0,0,1,7.062,7.378c2.138,4.255,2.285,8.538-.517,12.863C413.342,222.066,413.371,238.628,411.433,256.232Z" transform="translate(-289.583 -173.523)"/><path class="c" d="M382.919,590.668h0a13.485,13.485,0,0,1-15.153,3.972c-19.926,1.842-36.073-12.182-53.366-25.5l4.067-10.845-33.891-23.95,14.46-9.038,31.18-11.749,52.464,59.564a13.485,13.485,0,0,1,.24,17.547Z" transform="translate(-267.11 -359.903)"/><circle class="a" cx="18.979" cy="18.979" r="18.979" transform="translate(64.462 9.053)"/><path class="a" d="M423.718,288.189l-22.142,2.259c1.188-12.946,1.656-24.892,0-33.891h22.142C419.513,270.884,419.882,281.1,423.718,288.189Z" transform="translate(-331.24 -219.036)"/><path class="b" d="M344.726,373.09l-36.15-19.431c13.038-15.114,18.551-38.709,21.117-65.626.434-4.552,3.916-4.4,8.481-4.642,4.819-.259,9.556-2.81,13.782-.226l12.2,13.556,5.874-6.326,11.543,4.947a5.313,5.313,0,0,1,3.025,6.309c-.215,21.773-2.852,40.908-14.116,50.652l-9.489,9.941Z" transform="translate(-280.265 -232.992)"/><path class="d" d="M385.453,636S368.21,619.924,356.5,620.732" transform="translate(-306.531 -418.631)"/><path class="a" d="M91.766,449.108l-4.091,24.318-13.62-.352,5.466-25.539Z" transform="translate(-40.591 -245.303)"/><path class="c" d="M343.632,695.824h0a7.45,7.45,0,0,1-2.554-.37L319.1,693.606a10.346,10.346,0,0,1-5.216-12.848l2.456-8.619c4.561,2.392,9.306,2.052,13.782-1.582l19.433,13.619a7.448,7.448,0,0,1-5.923,11.647Z" transform="translate(-282.831 -445.958)"/><path class="c" d="M259.914,617.279h0a7.45,7.45,0,0,1,.37-2.554l1.847-21.979a10.346,10.346,0,0,1,12.848-5.216l8.619,2.456c-2.392,4.561-2.052,9.306,1.582,13.782L271.561,623.2a7.448,7.448,0,0,1-11.647-5.923Z" transform="translate(-253.59 -400.106)"/><path class="c" d="M298.185,520.529l-15.816-.9.452-27.565-10.754.62c-15.781.911-28.6-13.1-25.741-28.651q.088-.48.194-.963a29.768,29.768,0,0,1,12.237-17.932l16.382-11.367,13.33,5.648,10.562-5.67a18.329,18.329,0,0,1,17.932,2.053h0a18.329,18.329,0,0,1,6.258,21.578Z" transform="translate(-245.924 -315.361)"/><path class="d" d="M333.807,513.557s-7.23,14.46-6.326,23.046" transform="translate(-290.584 -359.903)"/><path class="d" d="M155.152,179.535l3.959,18.166,24.058,20.7-21.238-21.69Z" transform="translate(-85.042 -98.407)"/><path class="d" d="M106.152,198.535l7.23,29.372,21.238,7.682-19.883-9.941Z" transform="translate(-58.184 -108.821)"/><path class="c" d="M427.908,210.651c-13.988-6.435-29.8-8.27-43.832-1.356l1.807-16.268,30.728-4.971Z" transform="translate(-321.648 -181.49)"/><path class="e" d="M523.335,526.057a2.262,2.262,0,0,0-2.259,2.259v84.05a2.262,2.262,0,0,0,2.259,2.259H714.481a2.262,2.262,0,0,0,2.259-2.259v-84.05a2.262,2.262,0,0,0-2.259-2.259Z" transform="translate(-396.74 -366.754)"/><path class="f" d="M528.061,530.557a2.488,2.488,0,0,0-2.485,2.485v79.531a2.488,2.488,0,0,0,2.485,2.485H714.688a2.488,2.488,0,0,0,2.485-2.485V533.042a2.488,2.488,0,0,0-2.485-2.485Z" transform="translate(-399.207 -369.221)"/><path class="a" d="M517.958,498.493h0a7.368,7.368,0,0,1-11.568-1.977l-6.815-13.085,2.711-5.875,14.61,9.35a7.368,7.368,0,0,1,1.061,11.586Z" transform="translate(-384.956 -340.17)"/><path class="b" d="M410.87,380.238l-55.865-29.015a2.045,2.045,0,0,1-1.042-1.322l-12.119-48.842a11.724,11.724,0,0,1,7.506-13.889l2.919-1.022a5.038,5.038,0,0,1,6.519,3.407l11.945,43a2.045,2.045,0,0,0,.666,1.027L416.916,371.3a2.045,2.045,0,0,1,.383,2.73l-3.8,5.551A2.045,2.045,0,0,1,410.87,380.238Z" transform="translate(-298.31 -235.1)"/><circle class="b" cx="13.214" cy="13.214" r="13.214" transform="translate(147.642 174.188)"/><path class="e" d="M666.762,568.744a2.2,2.2,0,0,0,0,4.4H770.59a2.2,2.2,0,1,0,0-4.4Z" transform="translate(-475.387 -390.152)"/><path class="e" d="M666.762,597.987a2.2,2.2,0,0,0,0,4.4H711.44a2.2,2.2,0,0,0,0-4.4Z" transform="translate(-475.387 -406.18)"/><path class="e" d="M575.78,644.739c-1.675,0-3.039.988-3.039,2.2s1.363,2.2,3.039,2.2H719.03c1.675,0,3.039-.988,3.039-2.2s-1.363-2.2-3.039-2.2Z" transform="translate(-425.059 -431.806)"/><path class="e" d="M575.78,673.982c-1.675,0-3.039.988-3.039,2.2s1.363,2.2,3.039,2.2H719.03c1.675,0,3.039-.988,3.039-2.2s-1.363-2.2-3.039-2.2Z" transform="translate(-425.059 -447.835)"/></g></svg>