<svg xmlns="http://www.w3.org/2000/svg" xmlns:xlink="http://www.w3.org/1999/xlink" width="320" height="227.582" viewBox="0 0 320 227.582"><defs><style>.a,.d{fill:#3182ce;}.a,.e,.p{opacity:0.1;}.b{opacity:0.2;}.c{fill:#3f3d56;}.f{fill:#35323e;}.g,.j{fill:#fff;}.h,.j{opacity:0.03;}.i{fill:#464353;}.k{fill:url(#a);}.l{fill:#be6f72;}.m{opacity:0.15;}.n{fill:#a1616a;}.o{fill:#a26565;}.q{fill:#efb7b9;}.r{fill:#f86d70;}.s{fill:#4c4981;}.t{fill:#ff6484;}.u{fill:#925978;}.v{fill:#444053;}</style><linearGradient id="a" x1="0.499" y1="1" x2="0.499" gradientUnits="objectBoundingBox"><stop offset="0" stop-color="gray" stop-opacity="0.251"/><stop offset="0.54" stop-color="gray" stop-opacity="0.122"/><stop offset="1" stop-color="gray" stop-opacity="0.102"/></linearGradient></defs><g transform="translate(0.004 0.003)"><path class="a" d="M281.149,126.329c-20.515-.713-40.053-7.335-58.71-14.581S185.3,96.473,165.279,92.635C152.4,90.166,137.67,89.817,127.3,96.717c-9.988,6.656-13.215,18.115-14.949,28.759-1.306,8.007-2.073,16.432,1.5,23.928,2.485,5.2,6.891,9.579,9.94,14.565,10.609,17.345,3.11,38.734-8.384,55.67-5.389,7.947-11.649,15.532-15.811,23.982s-6.086,18.147-2.444,26.775c3.607,8.558,12.207,14.974,21.523,19.491,18.92,9.173,41.207,11.8,62.954,13.288,48.126,3.293,96.506,1.867,144.759.441,17.858-.529,35.793-1.065,53.36-3.826,9.756-1.534,19.827-3.969,26.911-9.826,8.989-7.458,11.218-20.09,5.192-29.441-10.105-15.687-38.037-19.583-45.109-36.42-3.886-9.265.1-19.589,5.756-28.182,12.121-18.435,32.436-34.61,33.5-55.683.735-14.476-9.031-28.971-24.131-35.818-15.827-7.179-37.777-6.276-49.448,5.607C320.393,122.25,299.264,126.957,281.149,126.329Z" transform="translate(-95.23 -91.02)"/><g class="b" transform="translate(16.432 106.805)"><path class="c" d="M326.773,711.354a7.677,7.677,0,0,1,.475,1.132q-3.8,1.436-7.607,3.011c-.054-.092-.108-.19-.159-.288a6.479,6.479,0,0,1-.789-3.312,3.865,3.865,0,0,1,1.9-3.385,3.915,3.915,0,0,1,3.867.317,6.543,6.543,0,0,1,2.311,2.526Z" transform="translate(-264.294 -619.331)"/><ellipse class="c" cx="4.127" cy="5.404" rx="4.127" ry="5.404" transform="translate(49.574 85.256) rotate(-27.84)"/><ellipse class="c" cx="4.127" cy="5.404" rx="4.127" ry="5.404" transform="translate(46.491 79.416) rotate(-27.84)"/><ellipse class="c" cx="4.127" cy="5.404" rx="4.127" ry="5.404" transform="translate(43.406 73.577) rotate(-27.84)"/><ellipse class="c" cx="4.127" cy="5.404" rx="4.127" ry="5.404" transform="translate(40.32 67.737) rotate(-27.84)"/><path class="d" d="M158.8,465.823a20.262,20.262,0,0,1-2.415-1.268l8.758-6.656-10.33,5.557a19.8,19.8,0,0,1-7.649-13.677l17.725-.13L147.08,447a19.773,19.773,0,1,1,39.207,4.317,19.668,19.668,0,0,1,3.677,2.136l-9.031,13.04,10.92-11.465a19.8,19.8,0,0,1,5.851,17.906,19.773,19.773,0,1,1-27.482,14.511,19.773,19.773,0,0,1-11.411-21.614Z" transform="translate(-147.08 -427.975)"/><path class="e" d="M244.805,529.244a19.69,19.69,0,0,1,1.968,12.784,19.773,19.773,0,1,1-27.482,14.511C215.377,554.8,243.769,527.282,244.805,529.244Z" transform="translate(-196.15 -497.076)"/></g><g class="b" transform="translate(213.587 22.493)"><path class="c" d="M785.827,576.208a10.077,10.077,0,0,0-.437,1.648q5.522,1.239,11.047,2.691c.057-.136.114-.282.168-.428a9.046,9.046,0,0,0,.441-4.714,4.984,4.984,0,0,0-8.523-3.1A9.062,9.062,0,0,0,785.827,576.208Z" transform="translate(-780.216 -441.246)"/><ellipse class="c" cx="7.503" cy="5.731" rx="7.503" ry="5.731" transform="matrix(0.341, -0.94, 0.94, 0.341, 6.178, 133.389)"/><ellipse class="c" cx="7.503" cy="5.731" rx="7.503" ry="5.731" transform="matrix(0.34, -0.94, 0.94, 0.34, 8.975, 124.525)"/><ellipse class="c" cx="7.503" cy="5.731" rx="7.503" ry="5.731" transform="matrix(0.341, -0.94, 0.94, 0.341, 12.439, 116.149)"/><ellipse class="c" cx="7.503" cy="5.731" rx="7.503" ry="5.731" transform="matrix(0.341, -0.94, 0.94, 0.341, 15.568, 107.531)"/><path class="d" d="M834.209,212.768a27.327,27.327,0,0,0,3.081-2.219l-13.313-7.465,15.269,5.674a27.5,27.5,0,0,0,7.924-20.267l-24.407,3.2,24-7.043a27.456,27.456,0,1,0-53.109,13.4,27.572,27.572,0,0,0-4.65,3.636l14.9,16.22-17.2-13.7a27.469,27.469,0,0,0-4.628,25.745,27.453,27.453,0,1,0,40.573,14.733,27.463,27.463,0,0,0,11.589-31.91Z" transform="translate(-769.096 -161.988)"/><path class="e" d="M782.3,319.317a27.348,27.348,0,0,0-.273,17.963A27.453,27.453,0,1,0,822.6,352.013C827.646,348.888,783.355,316.423,782.3,319.317Z" transform="translate(-769.068 -269.323)"/></g><ellipse class="d" cx="21.332" cy="4.102" rx="21.332" ry="4.102" transform="translate(35.869 199.543)"/><ellipse class="c" cx="2.485" cy="3.252" rx="2.485" ry="3.252" transform="translate(54.358 198.65)"/><ellipse class="c" cx="2.485" cy="3.252" rx="2.485" ry="3.252" transform="translate(54.358 194.675)"/><ellipse class="c" cx="2.485" cy="3.252" rx="2.485" ry="3.252" transform="translate(54.358 190.7)"/><ellipse class="c" cx="2.485" cy="3.252" rx="2.485" ry="3.252" transform="translate(54.358 186.728)"/><ellipse class="c" cx="2.485" cy="3.252" rx="2.485" ry="3.252" transform="translate(54.358 182.753)"/><ellipse class="c" cx="2.485" cy="3.252" rx="2.485" ry="3.252" transform="translate(54.358 178.778)"/><ellipse class="c" cx="2.485" cy="3.252" rx="2.485" ry="3.252" transform="translate(54.358 174.807)"/><path class="d" d="M258.106,525.493a11.693,11.693,0,0,0,.922-1.363l-6.523-1.071,7.056.054a11.909,11.909,0,0,0,.228-9.427l-9.468,4.91,8.733-6.416A11.9,11.9,0,1,0,239.4,525.493a11.869,11.869,0,0,0-1.36,2.168l8.473,4.4-9.034-3.034A11.9,11.9,0,0,0,239.4,540.2a11.9,11.9,0,1,0,18.7,0,11.9,11.9,0,0,0,0-14.711Z" transform="translate(-191.962 -374.621)"/><path class="e" d="M236.849,589.8a11.836,11.836,0,0,0,2.536,7.357,11.9,11.9,0,1,0,18.7,0C259.693,595.133,236.849,588.477,236.849,589.8Z" transform="translate(-191.956 -431.583)"/><rect class="f" width="153.292" height="33.076" rx="7.42" transform="translate(85.076 56.537)"/><path class="g" d="M400.943,143.17s2.178,59.22-1.683,66.153H529.771s-5.544-45.552,0-66.153Z" transform="translate(-302.893 -126.642)"/><path class="h" d="M400.943,143.17s2.178,59.22-1.683,66.153H529.771s-5.544-45.552,0-66.153Z" transform="translate(-302.893 -126.642)"/><rect class="f" width="95.66" height="11.883" transform="translate(111.417 80.158)"/><path class="i" d="M480.473,479.836H303.17a9.452,9.452,0,0,1-9.4-10.5l3.626-32.677q.358-3.258.517-6.533l.682-22.156q.235-7.509,1.014-14.98.406-3.873.951-7.731l4.663-32.484a17.117,17.117,0,0,1,16.927-14.644h7.081a16.642,16.642,0,0,1,9.956,3.35c7.335,5.474,28.173,9.424,52.738,9.424s45.407-3.949,52.757-9.436a16.642,16.642,0,0,1,9.956-3.35h11.471a10.254,10.254,0,0,1,10.1,8.476l6.26,35.5q.951,5.414,1.613,10.872,1.1,9.075,1.385,18.229l.634,20.588a115.828,115.828,0,0,0,1.113,12.828l3.363,23.554a10.21,10.21,0,0,1-10.108,11.668Z" transform="translate(-230.804 -259.797)"/><rect class="e" width="169.334" height="72.787" rx="19.96" transform="translate(76.562 137.844)"/><ellipse class="d" cx="4.853" cy="4.06" rx="4.853" ry="4.06" transform="translate(82.601 142.298)"/><ellipse class="e" cx="4.853" cy="4.06" rx="4.853" ry="4.06" transform="translate(82.601 142.298)"/><ellipse class="d" cx="4.853" cy="4.06" rx="4.853" ry="4.06" transform="translate(82.601 141.407)"/><ellipse class="f" cx="4.853" cy="4.06" rx="4.853" ry="4.06" transform="translate(88.344 156.46)"/><ellipse class="e" cx="4.853" cy="4.06" rx="4.853" ry="4.06" transform="translate(88.344 156.46)"/><ellipse class="f" cx="4.853" cy="4.06" rx="4.853" ry="4.06" transform="translate(88.344 155.57)"/><ellipse class="f" cx="4.853" cy="4.06" rx="4.853" ry="4.06" transform="translate(91.514 170.623)"/><ellipse class="e" cx="4.853" cy="4.06" rx="4.853" ry="4.06" transform="translate(91.514 170.623)"/><ellipse class="f" cx="4.853" cy="4.06" rx="4.853" ry="4.06" transform="translate(91.514 169.732)"/><ellipse class="f" cx="4.853" cy="4.06" rx="4.853" ry="4.06" transform="translate(79.235 172.306)"/><ellipse class="e" cx="4.853" cy="4.06" rx="4.853" ry="4.06" transform="translate(79.235 172.306)"/><ellipse class="f" cx="4.853" cy="4.06" rx="4.853" ry="4.06" transform="translate(79.235 171.415)"/><ellipse class="f" cx="4.853" cy="4.06" rx="4.853" ry="4.06" transform="translate(97.454 184.782)"/><ellipse class="e" cx="4.853" cy="4.06" rx="4.853" ry="4.06" transform="translate(97.454 184.782)"/><ellipse class="f" cx="4.853" cy="4.06" rx="4.853" ry="4.06" transform="translate(97.454 183.891)"/><ellipse class="f" cx="4.853" cy="4.06" rx="4.853" ry="4.06" transform="translate(81.216 185.28)"/><ellipse class="e" cx="4.853" cy="4.06" rx="4.853" ry="4.06" transform="translate(81.216 185.28)"/><ellipse class="f" cx="4.853" cy="4.06" rx="4.853" ry="4.06" transform="translate(81.216 184.386)"/><ellipse class="f" cx="4.853" cy="4.06" rx="4.853" ry="4.06" transform="translate(110.824 184.782)"/><ellipse class="e" cx="4.853" cy="4.06" rx="4.853" ry="4.06" transform="translate(110.824 184.782)"/><ellipse class="f" cx="4.853" cy="4.06" rx="4.853" ry="4.06" transform="translate(110.824 183.891)"/><ellipse class="f" cx="4.853" cy="4.06" rx="4.853" ry="4.06" transform="translate(124.984 184.782)"/><ellipse class="e" cx="4.853" cy="4.06" rx="4.853" ry="4.06" transform="translate(124.984 184.782)"/><ellipse class="f" cx="4.853" cy="4.06" rx="4.853" ry="4.06" transform="translate(124.984 183.891)"/><ellipse class="f" cx="4.853" cy="4.06" rx="4.853" ry="4.06" transform="translate(138.056 184.782)"/><ellipse class="e" cx="4.853" cy="4.06" rx="4.853" ry="4.06" transform="translate(138.056 184.782)"/><ellipse class="f" cx="4.853" cy="4.06" rx="4.853" ry="4.06" transform="translate(138.056 183.891)"/><ellipse class="f" cx="4.853" cy="4.06" rx="4.853" ry="4.06" transform="translate(152.513 184.782)"/><ellipse class="e" cx="4.853" cy="4.06" rx="4.853" ry="4.06" transform="translate(152.513 184.782)"/><ellipse class="f" cx="4.853" cy="4.06" rx="4.853" ry="4.06" transform="translate(152.513 183.891)"/><ellipse class="f" cx="4.853" cy="4.06" rx="4.853" ry="4.06" transform="translate(165.585 184.782)"/><ellipse class="e" cx="4.853" cy="4.06" rx="4.853" ry="4.06" transform="translate(165.585 184.782)"/><ellipse class="f" cx="4.853" cy="4.06" rx="4.853" ry="4.06" transform="translate(165.585 183.891)"/><ellipse class="f" cx="4.853" cy="4.06" rx="4.853" ry="4.06" transform="translate(178.555 184.782)"/><ellipse class="e" cx="4.853" cy="4.06" rx="4.853" ry="4.06" transform="translate(178.555 184.782)"/><ellipse class="f" cx="4.853" cy="4.06" rx="4.853" ry="4.06" transform="translate(178.555 183.891)"/><ellipse class="f" cx="4.853" cy="4.06" rx="4.853" ry="4.06" transform="translate(192.62 184.782)"/><ellipse class="e" cx="4.853" cy="4.06" rx="4.853" ry="4.06" transform="translate(192.62 184.782)"/><ellipse class="f" cx="4.853" cy="4.06" rx="4.853" ry="4.06" transform="translate(192.62 183.891)"/><ellipse class="f" cx="4.853" cy="4.06" rx="4.853" ry="4.06" transform="translate(205.79 184.782)"/><ellipse class="e" cx="4.853" cy="4.06" rx="4.853" ry="4.06" transform="translate(205.79 184.782)"/><ellipse class="f" cx="4.853" cy="4.06" rx="4.853" ry="4.06" transform="translate(205.79 183.891)"/><ellipse class="f" cx="4.853" cy="4.06" rx="4.853" ry="4.06" transform="translate(220.345 184.782)"/><ellipse class="e" cx="4.853" cy="4.06" rx="4.853" ry="4.06" transform="translate(220.345 184.782)"/><ellipse class="f" cx="4.853" cy="4.06" rx="4.853" ry="4.06" transform="translate(220.345 183.891)"/><ellipse class="f" cx="4.853" cy="4.06" rx="4.853" ry="4.06" transform="translate(235.3 184.782)"/><ellipse class="e" cx="4.853" cy="4.06" rx="4.853" ry="4.06" transform="translate(235.3 184.782)"/><ellipse class="f" cx="4.853" cy="4.06" rx="4.853" ry="4.06" transform="translate(235.3 183.891)"/><ellipse class="f" cx="4.853" cy="4.06" rx="4.853" ry="4.06" transform="translate(104.982 170.623)"/><ellipse class="e" cx="4.853" cy="4.06" rx="4.853" ry="4.06" transform="translate(104.982 170.623)"/><ellipse class="f" cx="4.853" cy="4.06" rx="4.853" ry="4.06" transform="translate(104.982 169.732)"/><ellipse class="f" cx="4.853" cy="4.06" rx="4.853" ry="4.06" transform="translate(118.448 170.623)"/><ellipse class="e" cx="4.853" cy="4.06" rx="4.853" ry="4.06" transform="translate(118.448 170.623)"/><ellipse class="f" cx="4.853" cy="4.06" rx="4.853" ry="4.06" transform="translate(118.448 169.732)"/><ellipse class="f" cx="4.853" cy="4.06" rx="4.853" ry="4.06" transform="translate(132.312 170.623)"/><ellipse class="e" cx="4.853" cy="4.06" rx="4.853" ry="4.06" transform="translate(132.312 170.623)"/><ellipse class="f" cx="4.853" cy="4.06" rx="4.853" ry="4.06" transform="translate(132.312 169.732)"/><ellipse class="f" cx="4.853" cy="4.06" rx="4.853" ry="4.06" transform="translate(145.581 170.623)"/><ellipse class="e" cx="4.853" cy="4.06" rx="4.853" ry="4.06" transform="translate(145.581 170.623)"/><ellipse class="f" cx="4.853" cy="4.06" rx="4.853" ry="4.06" transform="translate(145.581 169.732)"/><ellipse class="f" cx="4.853" cy="4.06" rx="4.853" ry="4.06" transform="translate(159.147 170.623)"/><ellipse class="e" cx="4.853" cy="4.06" rx="4.853" ry="4.06" transform="translate(159.147 170.623)"/><ellipse class="f" cx="4.853" cy="4.06" rx="4.853" ry="4.06" transform="translate(159.147 169.732)"/><ellipse class="f" cx="4.853" cy="4.06" rx="4.853" ry="4.06" transform="translate(172.121 170.623)"/><ellipse class="e" cx="4.853" cy="4.06" rx="4.853" ry="4.06" transform="translate(172.121 170.623)"/><ellipse class="f" cx="4.853" cy="4.06" rx="4.853" ry="4.06" transform="translate(172.121 169.732)"/><ellipse class="f" cx="4.853" cy="4.06" rx="4.853" ry="4.06" transform="translate(186.182 170.623)"/><ellipse class="e" cx="4.853" cy="4.06" rx="4.853" ry="4.06" transform="translate(186.182 170.623)"/><ellipse class="f" cx="4.853" cy="4.06" rx="4.853" ry="4.06" transform="translate(186.182 169.732)"/><ellipse class="f" cx="4.853" cy="4.06" rx="4.853" ry="4.06" transform="translate(199.552 170.623)"/><ellipse class="e" cx="4.853" cy="4.06" rx="4.853" ry="4.06" transform="translate(199.552 170.623)"/><ellipse class="f" cx="4.853" cy="4.06" rx="4.853" ry="4.06" transform="translate(199.552 169.732)"/><ellipse class="f" cx="4.853" cy="4.06" rx="4.853" ry="4.06" transform="translate(213.217 170.623)"/><ellipse class="e" cx="4.853" cy="4.06" rx="4.853" ry="4.06" transform="translate(213.217 170.623)"/><ellipse class="f" cx="4.853" cy="4.06" rx="4.853" ry="4.06" transform="translate(213.217 169.732)"/><ellipse class="f" cx="4.853" cy="4.06" rx="4.853" ry="4.06" transform="translate(226.881 170.623)"/><ellipse class="e" cx="4.853" cy="4.06" rx="4.853" ry="4.06" transform="translate(226.881 170.623)"/><ellipse class="f" cx="4.853" cy="4.06" rx="4.853" ry="4.06" transform="translate(226.881 169.732)"/><ellipse class="f" cx="4.853" cy="4.06" rx="4.853" ry="4.06" transform="translate(102.009 156.46)"/><ellipse class="e" cx="4.853" cy="4.06" rx="4.853" ry="4.06" transform="translate(102.009 156.46)"/><ellipse class="f" cx="4.853" cy="4.06" rx="4.853" ry="4.06" transform="translate(102.009 155.57)"/><ellipse class="f" cx="4.853" cy="4.06" rx="4.853" ry="4.06" transform="translate(115.677 156.46)"/><ellipse class="e" cx="4.853" cy="4.06" rx="4.853" ry="4.06" transform="translate(115.677 156.46)"/><ellipse class="f" cx="4.853" cy="4.06" rx="4.853" ry="4.06" transform="translate(115.677 155.57)"/><ellipse class="f" cx="4.853" cy="4.06" rx="4.853" ry="4.06" transform="translate(128.847 156.46)"/><ellipse class="e" cx="4.853" cy="4.06" rx="4.853" ry="4.06" transform="translate(128.847 156.46)"/><ellipse class="f" cx="4.853" cy="4.06" rx="4.853" ry="4.06" transform="translate(128.847 155.57)"/><ellipse class="f" cx="4.853" cy="4.06" rx="4.853" ry="4.06" transform="translate(142.018 156.46)"/><ellipse class="e" cx="4.853" cy="4.06" rx="4.853" ry="4.06" transform="translate(142.018 156.46)"/><ellipse class="f" cx="4.853" cy="4.06" rx="4.853" ry="4.06" transform="translate(142.018 155.57)"/><ellipse class="f" cx="4.853" cy="4.06" rx="4.853" ry="4.06" transform="translate(155.286 156.46)"/><ellipse class="e" cx="4.853" cy="4.06" rx="4.853" ry="4.06" transform="translate(155.286 156.46)"/><ellipse class="f" cx="4.853" cy="4.06" rx="4.853" ry="4.06" transform="translate(155.286 155.57)"/><ellipse class="f" cx="4.853" cy="4.06" rx="4.853" ry="4.06" transform="translate(168.358 156.46)"/><ellipse class="e" cx="4.853" cy="4.06" rx="4.853" ry="4.06" transform="translate(168.358 156.46)"/><ellipse class="f" cx="4.853" cy="4.06" rx="4.853" ry="4.06" transform="translate(168.358 155.57)"/><ellipse class="f" cx="4.853" cy="4.06" rx="4.853" ry="4.06" transform="translate(182.22 156.46)"/><ellipse class="e" cx="4.853" cy="4.06" rx="4.853" ry="4.06" transform="translate(182.22 156.46)"/><ellipse class="f" cx="4.853" cy="4.06" rx="4.853" ry="4.06" transform="translate(182.22 155.57)"/><ellipse class="f" cx="4.853" cy="4.06" rx="4.853" ry="4.06" transform="translate(195.292 156.46)"/><ellipse class="e" cx="4.853" cy="4.06" rx="4.853" ry="4.06" transform="translate(195.292 156.46)"/><ellipse class="f" cx="4.853" cy="4.06" rx="4.853" ry="4.06" transform="translate(195.292 155.57)"/><ellipse class="f" cx="4.853" cy="4.06" rx="4.853" ry="4.06" transform="translate(209.254 156.46)"/><ellipse class="e" cx="4.853" cy="4.06" rx="4.853" ry="4.06" transform="translate(209.254 156.46)"/><ellipse class="f" cx="4.853" cy="4.06" rx="4.853" ry="4.06" transform="translate(209.254 155.57)"/><ellipse class="f" cx="4.853" cy="4.06" rx="4.853" ry="4.06" transform="translate(222.919 156.46)"/><ellipse class="e" cx="4.853" cy="4.06" rx="4.853" ry="4.06" transform="translate(222.919 156.46)"/><ellipse class="f" cx="4.853" cy="4.06" rx="4.853" ry="4.06" transform="translate(222.919 155.57)"/><ellipse class="f" cx="4.853" cy="4.06" rx="4.853" ry="4.06" transform="translate(95.277 142.298)"/><ellipse class="e" cx="4.853" cy="4.06" rx="4.853" ry="4.06" transform="translate(95.277 142.298)"/><ellipse class="f" cx="4.853" cy="4.06" rx="4.853" ry="4.06" transform="translate(95.277 141.407)"/><ellipse class="f" cx="4.853" cy="4.06" rx="4.853" ry="4.06" transform="translate(108.745 142.298)"/><ellipse class="e" cx="4.853" cy="4.06" rx="4.853" ry="4.06" transform="translate(108.745 142.298)"/><ellipse class="f" cx="4.853" cy="4.06" rx="4.853" ry="4.06" transform="translate(108.745 141.407)"/><ellipse class="f" cx="4.853" cy="4.06" rx="4.853" ry="4.06" transform="translate(121.716 142.298)"/><ellipse class="e" cx="4.853" cy="4.06" rx="4.853" ry="4.06" transform="translate(121.716 142.298)"/><ellipse class="f" cx="4.853" cy="4.06" rx="4.853" ry="4.06" transform="translate(121.716 141.407)"/><ellipse class="f" cx="4.853" cy="4.06" rx="4.853" ry="4.06" transform="translate(135.086 142.298)"/><ellipse class="e" cx="4.853" cy="4.06" rx="4.853" ry="4.06" transform="translate(135.086 142.298)"/><ellipse class="f" cx="4.853" cy="4.06" rx="4.853" ry="4.06" transform="translate(135.086 141.407)"/><ellipse class="f" cx="4.853" cy="4.06" rx="4.853" ry="4.06" transform="translate(148.256 142.298)"/><ellipse class="e" cx="4.853" cy="4.06" rx="4.853" ry="4.06" transform="translate(148.256 142.298)"/><ellipse class="f" cx="4.853" cy="4.06" rx="4.853" ry="4.06" transform="translate(148.256 141.407)"/><ellipse class="f" cx="4.853" cy="4.06" rx="4.853" ry="4.06" transform="translate(161.724 142.298)"/><ellipse class="e" cx="4.853" cy="4.06" rx="4.853" ry="4.06" transform="translate(161.724 142.298)"/><ellipse class="f" cx="4.853" cy="4.06" rx="4.853" ry="4.06" transform="translate(161.724 141.407)"/><ellipse class="f" cx="4.853" cy="4.06" rx="4.853" ry="4.06" transform="translate(174.894 142.298)"/><ellipse class="e" cx="4.853" cy="4.06" rx="4.853" ry="4.06" transform="translate(174.894 142.298)"/><ellipse class="f" cx="4.853" cy="4.06" rx="4.853" ry="4.06" transform="translate(174.894 141.407)"/><ellipse class="f" cx="4.853" cy="4.06" rx="4.853" ry="4.06" transform="translate(188.261 142.298)"/><ellipse class="e" cx="4.853" cy="4.06" rx="4.853" ry="4.06" transform="translate(188.261 142.298)"/><ellipse class="f" cx="4.853" cy="4.06" rx="4.853" ry="4.06" transform="translate(188.261 141.407)"/><ellipse class="f" cx="4.853" cy="4.06" rx="4.853" ry="4.06" transform="translate(202.027 142.298)"/><ellipse class="e" cx="4.853" cy="4.06" rx="4.853" ry="4.06" transform="translate(202.027 142.298)"/><ellipse class="f" cx="4.853" cy="4.06" rx="4.853" ry="4.06" transform="translate(202.027 141.407)"/><ellipse class="f" cx="4.853" cy="4.06" rx="4.853" ry="4.06" transform="translate(215.493 142.298)"/><ellipse class="e" cx="4.853" cy="4.06" rx="4.853" ry="4.06" transform="translate(215.493 142.298)"/><ellipse class="f" cx="4.853" cy="4.06" rx="4.853" ry="4.06" transform="translate(215.493 141.407)"/><ellipse class="d" cx="4.853" cy="4.06" rx="4.853" ry="4.06" transform="translate(228.663 142.298)"/><ellipse class="e" cx="4.853" cy="4.06" rx="4.853" ry="4.06" transform="translate(228.663 142.298)"/><ellipse class="d" cx="4.853" cy="4.06" rx="4.853" ry="4.06" transform="translate(228.663 141.407)"/><rect class="f" width="148.243" height="7.823" rx="3.911" transform="translate(87.454 198.352)"/><rect class="e" width="148.243" height="7.823" rx="3.911" transform="translate(87.454 198.352)"/><rect class="f" width="148.243" height="7.823" rx="3.911" transform="translate(87.454 197.756)"/><path class="e" d="M541.653,394.524c0,8.368-26.486,17.329-56.349,17.329S433.32,402.2,433.32,393.83s22.128-12.28,51.984-12.28S541.653,386.156,541.653,394.524Z" transform="translate(-326.157 -289.461)"/><ellipse class="i" cx="3.268" cy="8.07" rx="3.268" ry="8.07" transform="translate(238.467 64.363)"/><ellipse class="i" cx="3.268" cy="8.07" rx="3.268" ry="8.07" transform="translate(78.442 64.363)"/><rect class="e" width="157.647" height="2.377" transform="translate(84.087 70.503)"/><rect class="i" width="157.647" height="2.377" transform="translate(84.087 70.107)"/><path class="i" d="M609.1,321.539c-1.29-.4-3.664,7.427-3.664,7.427h7.227S610.394,321.935,609.1,321.539Zm-.1.989a.694.694,0,1,1-.691.694.694.694,0,0,1,.691-.694Zm.082,2.238c.846.206,2.346,3.9,2.346,3.9h-4.755s1.566-4.111,2.428-3.9Z" transform="translate(-443.719 -248.462)"/><path class="j" d="M496.779,392.979H312.3q.406-3.873.951-7.731l4.663-32.484A17.117,17.117,0,0,1,334.84,338.12h7.081a16.641,16.641,0,0,1,9.956,3.35c7.335,5.474,28.173,9.424,52.738,9.424s45.413-3.937,52.764-9.424a16.642,16.642,0,0,1,9.956-3.35h11.471a10.254,10.254,0,0,1,10.1,8.476l6.26,35.5Q496.117,387.53,496.779,392.979Z" transform="translate(-243.497 -259.797)"/><g transform="translate(134.185 144.985)"><path class="k" d="M539.852,577.137s-3.636-6.656-3.021-7.728a14.457,14.457,0,0,0,1.062-2.647s1.344-.919,1.344-1.3,1.062-1.242,1.623-1.62.279-2.162,0-2.377a4.8,4.8,0,0,1-.723-.973s.387-1.081,0-1.4.057-.634,0-.973a13.852,13.852,0,0,1,0-1.512,2.446,2.446,0,0,0-1.43-1.04l-.041-.171-.241-1.008s1.16-2.219-.723-3.4a3.7,3.7,0,0,0-.418-.222v-.146a9.447,9.447,0,0,0-.276-1.708c-.1-.317-.225-.523-.393-.475a.26.26,0,0,0-.1.06,1.152,1.152,0,0,0-.2.238h0a4.048,4.048,0,0,0-.444,1.236,7.123,7.123,0,0,0-.127.777h0a4.176,4.176,0,0,0-.216.482,2.738,2.738,0,0,0,0,2.384c.415.634.97,1.534,1.376,2.181v.022l.025.038-.041.029v.1l.035.545.317,4.707a1.912,1.912,0,0,0-.285-.06,2.343,2.343,0,0,0-.419-.029c-.273-1.071-1.024-2.073-1.157-3.192a2.4,2.4,0,0,1-.022-.336c0-.707.187-1.414.171-2.117a3.222,3.222,0,0,0,0-.39h0V555a3.17,3.17,0,0,0-1.731-2.409c-.317-.162-.675-.269-.992-.447a17.88,17.88,0,0,1-1.858-1.651,2.044,2.044,0,0,0-1.778-.387,8.1,8.1,0,0,0-.869.181h0a7.808,7.808,0,0,0-1.981.821c-.083.051-.168.1-.247.162a1.105,1.105,0,0,0-.4.466,1.234,1.234,0,0,0-.063.5v.371c-.038,2.067-2.266,3.674-2.45,5.706v.368h0v.162c.032.888.491,1.712.577,2.6v.234a3.931,3.931,0,0,1-.228,1.189,3.415,3.415,0,0,0-.805.317,5,5,0,0,0-2.346,2.628,3.821,3.821,0,0,0-.171,1.154,24.1,24.1,0,0,1-.377,4.121,8.113,8.113,0,0,1-.238,1.014.23.23,0,0,0,0,.1l-.266,3.487-.051.615-.067.875s.019.054.047.143.073.241.108.4a2.2,2.2,0,0,1,.035.907.634.634,0,0,1-.19.317l-.022.025a2.685,2.685,0,0,0-.2.888c-.025.184-.044.383-.067.605-.13,1.376-.212,3.439-.26,5.144s-.063,3.011-.063,3.011a3.409,3.409,0,0,0,.694.342,1.476,1.476,0,0,0-.054.143,6.639,6.639,0,0,0-.422,1.775,3.1,3.1,0,0,0,2.019,3.414,2.825,2.825,0,0,0,.349.117,1.1,1.1,0,0,0,.884-.054v.225c.019.317.035.6.041.846.057,1.512.431,4.159.431,4.159a5.459,5.459,0,0,1,.016,1.407,7.509,7.509,0,0,0,0,1.62s.393.634,0,.973a3.465,3.465,0,0,0-.39,2.162.135.135,0,0,0,0,.025c.086.536-.4,8.514-.4,8.514s-.456,1.22-.818,2.488-.634,2.514-.295,2.751a2.693,2.693,0,0,0,1.024.276v.162a4.714,4.714,0,0,1-.225,1.341,15.49,15.49,0,0,0-.4,2.853v.1a9.292,9.292,0,0,0-.418,1.211s-1.236,3.1-.818,3.908a.633.633,0,0,0,.155.19h0a.237.237,0,0,0,.041.038,5.716,5.716,0,0,0,2.631.6l-.019.767v.054h.707V631c0-.1.016-.542.038-1.138v-.59a4.755,4.755,0,0,0,.317-1.728,7.525,7.525,0,0,1,.273-2,5.4,5.4,0,0,1,.358-.976,4.453,4.453,0,0,0-.089-1.987,1.38,1.38,0,0,0-.254-.447.714.714,0,0,0,0-.082v-.177a7.307,7.307,0,0,1,.165-1.658.059.059,0,0,1,0-.025.479.479,0,0,1,.032-.133v-.028h.228c.7.022,1.217.022,1.217.022a25.932,25.932,0,0,0,.5-4.121v-.168a16.055,16.055,0,0,1,.339-2.913l.447-4.374a2.343,2.343,0,0,1,0-1.3c.139-.317.425-.951.634-1.379.092-.2.168-.355.2-.422v-.035a.947.947,0,0,1-.2-.1h0c-.184-.124-.346-.361.2-.71.84-.542.561-1.9.561-1.9a.973.973,0,0,1,.044-.919c.292-.431,0-2.054,0-2.054a6.69,6.69,0,0,0,.574-1.35c.209-.634.735-3.8.983-5.335.082-.5.133-.824.133-.824v.165h0l.07.72v.1l.127,1.363a41.877,41.877,0,0,1,.1,4.986.059.059,0,0,1,0,.025,1.548,1.548,0,0,1-.095.425,17.033,17.033,0,0,0-.225,3.937v.12a2.086,2.086,0,0,0-.158.913h0a.6.6,0,0,0,.1.273.685.685,0,0,1,.1.422h0v.187a3.594,3.594,0,0,1-.2.732,2.463,2.463,0,0,0-.187,1.2h0a.424.424,0,0,0,.076.146.357.357,0,0,1,.041.155h0c.1.872-.165,4.717-.317,6.818-.063.831-.111,1.392-.111,1.392l-.444,4.593.044.029c.051.038.146.1.273.174h0l-.019.139c-.063.444-.149.951-.241,1.35a.854.854,0,0,0-.022.086,1.245,1.245,0,0,0-.475.19c-.951,1.674-.526,3,0,3.385a1.347,1.347,0,0,1,.317.789l.13,1.667v.193a.5.5,0,0,0,.025.152l.041.5.054.7h.428v-.8h.025c.678.025,1.769.054,2.247.016h.127a.244.244,0,0,0,.076-.022c.25-.12.881-1.9.317-2.308a2.618,2.618,0,0,1-.691-1.547c-.051-.152-.1-.295-.149-.431a.771.771,0,0,1,0-.086,7.121,7.121,0,0,1,.067-1.483,11.747,11.747,0,0,0,.149-1.772v-.165a1.9,1.9,0,0,0,.289-.092h.022a2.047,2.047,0,0,0,.482-.285l1.569-7.024.165-.818.951-4.644s-.333-1.62,0-1.9c.124-.1.159-.513.149-1a16.274,16.274,0,0,0-.149-1.9s.447-.7.672-1.135a3.521,3.521,0,0,0,0-1.566l.447-2.593a24.494,24.494,0,0,1,1.737-5.677c.906-1.9.317-7.059-.263-9.8l-.048-.206.979-.475.136-.063c.46-.216.951-.437,1.382-.634h.029q.466-.2.951-.358a1.384,1.384,0,0,1,.295-.06C542.2,581.239,539.852,577.137,539.852,577.137Zm-17.5,8.793h.231c-.029.051-.054.1-.079.155a.807.807,0,0,0-.044.092,5.23,5.23,0,0,0-.228.536c.025-.193.057-.4.092-.634Zm-.634,3.373v-.019a.069.069,0,0,0-.022-.06l-.038-.124c.079-.025.162-.051.244-.082h0v.044c0,.016-.016.12-.022.181h0v.168c0,.048-.025.181-.035.269l-.076-.241c-.019-.057-.032-.1-.048-.143Z" transform="translate(-518.57 -548.429)"/><path class="l" d="M573.958,556.958l-1.395.5-.507-.843c-.39-.634-.929-1.531-1.325-2.174-.7-1.132.215-2.853.215-2.853a4.688,4.688,0,0,1,.754-2.263c.593-.539.754,2.263.754,2.263,2.368,1.075,1.1,3.607,1.1,3.607l.228,1Z" transform="translate(-554.017 -548.992)"/><path class="e" d="M577.382,571.84l-1.395.5-.507-.843v-.073a2.441,2.441,0,0,1,1.734-.342Z" transform="translate(-557.441 -563.874)"/><path class="d" d="M574.36,577.859l.7-.593-.352-5.331a2.219,2.219,0,0,1,3.151.713,13.733,13.733,0,0,0,0,1.509c.054.317-.377.634,0,.951s0,1.4,0,1.4a4.862,4.862,0,0,0,.694.97c.269.216.539,1.994,0,2.371s-1.563,1.239-1.563,1.617-1.29,1.29-1.29,1.29l-1.138-1.5Z" transform="translate(-556.676 -564.225)"/><path class="l" d="M522.379,678.769c-2.612-1.106-2.032-3.8-1.541-5.173a7.766,7.766,0,0,1,.346-.805l1.464-.891s.3.764.618,1.788C524.008,676.052,524.861,679.821,522.379,678.769Z" transform="translate(-519.83 -632.763)"/><path class="l" d="M530.574,769.932a4.384,4.384,0,0,0-.39,1.09,7.76,7.76,0,0,0-.162,1.854,7.072,7.072,0,0,0,.047.713l-2.91,2s.016-.234.044-.58a16.017,16.017,0,0,1,.38-2.834,4.757,4.757,0,0,0,.219-1.338c.044-.555.063-1.068.063-1.068S531.36,768.458,530.574,769.932Z" transform="translate(-524.437 -699.243)"/><path class="l" d="M553.451,775.385s0,.555-.019,1.2a12.338,12.338,0,0,1-.14,1.766,7.052,7.052,0,0,0-.067,1.477c.019.634.067,1.227.067,1.227s-2.97-2.805-2.669-3.027a1.405,1.405,0,0,0,.238-.634c.089-.393.171-.907.231-1.347.073-.523.117-.951.117-.951Z" transform="translate(-540.449 -703.251)"/><path class="e" d="M531.96,769.932a4.389,4.389,0,0,0-.39,1.09,23.423,23.423,0,0,1-2.38-.184c.044-.555.063-1.068.063-1.068S532.746,768.458,531.96,769.932Z" transform="translate(-525.824 -699.243)"/><path class="e" d="M554.508,775.419s0,.555-.019,1.2a3.23,3.23,0,0,1-2.339-.523c.073-.523.117-.951.117-.951Z" transform="translate(-541.506 -703.285)"/><path class="d" d="M542.551,664.258a25.1,25.1,0,0,0-1.67,5.658l-.431,2.583a3.66,3.66,0,0,1,0,1.563c-.216.431-.634,1.132-.634,1.132s.317,2.64,0,2.91,0,1.883,0,1.883l-1.078,5.442-1.506,6.992c-1.455,1.186-3.388-.317-3.388-.317l.428-4.58s.634-8.026.377-8.349.108-1.344.108-1.344.377-.97.108-1.347.054-1.186.054-1.186a18.976,18.976,0,0,1,.216-4.041c.323-.754,0-5.42,0-5.42L535,664.385l-.073-.805V663.5l-.13.824c-.238,1.518-.745,4.669-.951,5.319a6.709,6.709,0,0,1-.555,1.344s.282,1.617,0,2.048a1,1,0,0,0-.041.916s.269,1.347-.539,1.9,0,.808,0,.808-.593,1.293-.808,1.832a2.373,2.373,0,0,0,0,1.29l-.431,4.365a15.857,15.857,0,0,0-.317,3.072,27.082,27.082,0,0,1-.485,4.092s-4.146,0-4.786-.485,1.071-5.224,1.071-5.224.485-8.3.377-8.511a3.548,3.548,0,0,1,.377-2.155c.377-.323,0-.97,0-.97a7.924,7.924,0,0,1,0-1.616,5.848,5.848,0,0,0-.019-1.4s-.358-2.637-.412-4.146-.317-4.9-.317-4.9.279-2.1.317-3.1a3.6,3.6,0,0,1,.384-1.268,11.6,11.6,0,0,1,.8-1.411s12.768-3.769,13.313-3.392a4.861,4.861,0,0,1,.552,1.756C542.865,657.237,543.422,662.356,542.551,664.258Z" transform="translate(-523.466 -619.653)"/><path class="m" d="M542.551,664.258a25.1,25.1,0,0,0-1.67,5.658l-.431,2.583a3.66,3.66,0,0,1,0,1.563c-.216.431-.634,1.132-.634,1.132s.317,2.64,0,2.91,0,1.883,0,1.883l-1.078,5.442-1.506,6.992c-1.455,1.186-3.388-.317-3.388-.317l.428-4.58s.634-8.026.377-8.349.108-1.344.108-1.344.377-.97.108-1.347.054-1.186.054-1.186a18.976,18.976,0,0,1,.216-4.041c.323-.754,0-5.42,0-5.42L535,664.385l-.073-.805V663.5l-.13.824c-.238,1.518-.745,4.669-.951,5.319a6.709,6.709,0,0,1-.555,1.344s.282,1.617,0,2.048a1,1,0,0,0-.041.916s.269,1.347-.539,1.9,0,.808,0,.808-.593,1.293-.808,1.832a2.373,2.373,0,0,0,0,1.29l-.431,4.365a15.857,15.857,0,0,0-.317,3.072,27.082,27.082,0,0,1-.485,4.092s-4.146,0-4.786-.485,1.071-5.224,1.071-5.224.485-8.3.377-8.511a3.548,3.548,0,0,1,.377-2.155c.377-.323,0-.97,0-.97a7.924,7.924,0,0,1,0-1.616,5.848,5.848,0,0,0-.019-1.4s-.358-2.637-.412-4.146-.317-4.9-.317-4.9.279-2.1.317-3.1a3.6,3.6,0,0,1,.384-1.268,11.6,11.6,0,0,1,.8-1.411s12.768-3.769,13.313-3.392a4.861,4.861,0,0,1,.552,1.756C542.865,657.237,543.422,662.356,542.551,664.258Z" transform="translate(-523.466 -619.653)"/><circle class="n" cx="3.718" cy="3.718" r="3.718" transform="translate(7.503 4.251)"/><path class="e" d="M546.417,654.489c-.428.219-.713.371-.713.371s-6.022,2.853-7.753,2.694c-1.328-.127-4.717-.057-6.19-.019a11.617,11.617,0,0,1,.8-1.411s12.768-3.769,13.313-3.392A5.554,5.554,0,0,1,546.417,654.489Z" transform="translate(-527.579 -619.653)"/><path class="d" d="M530.121,590.257a19.354,19.354,0,0,0-4.254,1.078,4.439,4.439,0,0,0-2.425,3.769,21.444,21.444,0,0,1-.593,5.119c-.216.634,3.395,5.87,3.395,5.87l-1.293,7.924s5.176-.162,6.9,0,7.753-2.694,7.753-2.694a28.257,28.257,0,0,1,4.308-1.937c.754-.054-1.509-4.149-1.509-4.149s-3.487-6.625-2.907-7.7a14.724,14.724,0,0,0,1.024-2.64l-.634-5.493a2.114,2.114,0,0,0-1.778.269c-.808.593-3.556.269-3.556.269Z" transform="translate(-521.487 -576.354)"/><path class="e" d="M522.384,616.807l-1.347.377-.374,5.072s.482,1.347,0,1.778-.593,9.642-.593,9.642a3.515,3.515,0,0,0,3.392.269s-.269-1.024.539-4.755a29.328,29.328,0,0,0,.8-5.582s0-4.631.377-5.389a5.953,5.953,0,0,0,0-2.64s-.754-1.024-.7-1.4S522.384,616.807,522.384,616.807Z" transform="translate(-519.594 -593.316)"/><path class="e" d="M524.178,673.688a3.433,3.433,0,0,1-2.428-.092,7.753,7.753,0,0,1,.346-.805l1.464-.891S523.858,672.664,524.178,673.688Z" transform="translate(-520.742 -632.763)"/><path class="d" d="M522.127,616.807l-1.347.377-.377,5.072s.485,1.347,0,1.778-.593,9.642-.593,9.642a3.521,3.521,0,0,0,3.395.269s-.269-1.024.539-4.755a29.565,29.565,0,0,0,.805-5.582s0-4.631.377-5.389a5.952,5.952,0,0,0,0-2.64s-.751-1.024-.7-1.4S522.127,616.807,522.127,616.807Z" transform="translate(-519.417 -593.316)"/><path class="e" d="M564.7,625.09s-.7,6.023-2.748,7.164C561.966,632.254,566.53,630.96,564.7,625.09Z" transform="translate(-548.2 -600.79)"/><path class="e" d="M538.16,626.79s2.536,1.239,1.94,2.1S538.16,626.79,538.16,626.79Z" transform="translate(-531.95 -601.951)"/><path class="e" d="M538.16,634.6s1.617,1.67,1.293,2.263S538.16,634.6,538.16,634.6Z" transform="translate(-531.95 -607.286)"/><path class="e" d="M579.29,590.93a5.667,5.667,0,0,1,.691,1.778C580.038,593.409,579.29,590.93,579.29,590.93Z" transform="translate(-560.043 -577.458)"/><path class="e" d="M579.29,586.082s.317-.269,1.129,0S579.29,586.082,579.29,586.082Z" transform="translate(-560.043 -574.065)"/><path class="e" d="M559.361,683.177a7.473,7.473,0,0,1-3.937-.5l-.682,1.737-.073-.805c.111-.675.317-1.4.754-1.585A6.521,6.521,0,0,0,559.361,683.177Z" transform="translate(-543.227 -639.675)"/><path class="e" d="M534.62,692.81a23.728,23.728,0,0,0,4.241.564Z" transform="translate(-529.532 -647.045)"/><path class="e" d="M535.7,695.538a6.878,6.878,0,0,1,2.121.222Z" transform="translate(-530.27 -648.905)"/><path class="e" d="M536.21,697.39a12.357,12.357,0,0,0,1.959.263Z" transform="translate(-530.619 -650.173)"/><path class="e" d="M536,719.943c.063-.041,2.831-.685,3.17-.222Z" transform="translate(-530.475 -665.312)"/><path class="e" d="M536,723.19s2.406-.282,2.466,0S536,723.19,536,723.19Z" transform="translate(-530.475 -667.709)"/><path class="e" d="M536,724.972a17,17,0,0,1,2.853-.4A17,17,0,0,1,536,724.972Z" transform="translate(-530.475 -668.724)"/><path class="e" d="M530.07,780.677l-2.91,2s.016-.235.044-.58a7.981,7.981,0,0,1,1.49-2.431,1.217,1.217,0,0,1,1.328.3A7.072,7.072,0,0,0,530.07,780.677Z" transform="translate(-524.437 -706.324)"/><path class="f" d="M527.657,782.626a7.224,7.224,0,0,0-.605,2.97,4.58,4.58,0,0,1-.634,2.393,2.308,2.308,0,0,1-.2.292,5.775,5.775,0,0,1-2.729-.6.687.687,0,0,1-.187-.225c-.406-.808.786-3.9.786-3.9a8.581,8.581,0,0,1,1.9-3.655C528.262,779.314,527.657,782.626,527.657,782.626Z" transform="translate(-521.742 -706.482)"/><path class="e" d="M527.052,796.047a2.3,2.3,0,0,1-.2.292,5.775,5.775,0,0,1-2.729-.6c.349-1.151,1.458-4.634,1.978-4.041S526.935,794.915,527.052,796.047Z" transform="translate(-522.361 -714.539)"/><path class="f" d="M532.189,791.917l-.139,5.224h.678a35.822,35.822,0,0,1,.412-5.217C533.445,791.283,532.189,791.917,532.189,791.917Z" transform="translate(-527.777 -714.546)"/><path class="e" d="M553.293,785.94s-2.97-2.805-2.669-3.027a1.4,1.4,0,0,0,.238-.634c.571-.1,1.547.14,2.365,2.419C553.245,785.348,553.293,785.94,553.293,785.94Z" transform="translate(-540.449 -708.142)"/><path class="f" d="M552.136,789.286a.422.422,0,0,1-.073.022,20.708,20.708,0,0,1-2.355,0,.51.51,0,0,1-.495-.507v-.685c-.035-.8-.133-1.743-.415-1.959-.5-.384-.907-1.705,0-3.373,0,0,1.737-1.325,2.989,2.659a2.653,2.653,0,0,0,.666,1.544C553,787.393,552.377,789.165,552.136,789.286Z" transform="translate(-538.848 -708.355)"/><path class="e" d="M554.12,796.543a20.708,20.708,0,0,1-2.355,0,.51.51,0,0,1-.495-.507v-.685c.219-.951.532-1.959.951-2.184C552.192,793.164,553.419,793.024,554.12,796.543Z" transform="translate(-540.905 -715.59)"/><path class="f" d="M455.38,700.978l.323,4.342h.415v-4.71Z" transform="translate(-445.224 -623.521)"/><path class="e" d="M537.892,554.88a7.411,7.411,0,0,0-3.316,1.065,1.376,1.376,0,0,0-.634.634,2.106,2.106,0,0,0-.051.773c.035,2.219-2.45,3.915-2.371,6.14.032.884.476,1.705.555,2.587.136,1.468-.732,2.821-1.566,4.038a3.337,3.337,0,0,0,2.361-.783,17.9,17.9,0,0,1,.317,9.027h1.192a.918.918,0,0,1,.349.044.828.828,0,0,1,.276.206,4.531,4.531,0,0,1,1.433,4.26l2.536-.951a7.61,7.61,0,0,0,1.753-.834,2.536,2.536,0,0,0,1.081-1.56c.067-.387.048-.853.365-1.078a2.053,2.053,0,0,1,.5-.184,2.18,2.18,0,0,0,1.144-1.775,10.139,10.139,0,0,0,.162-2.7c-.111-1.512-.558-3.049-.19-4.523a12.368,12.368,0,0,0,.71-2.457c.06-1.411-1.043-2.628-1.208-4.032-.114-.976.238-1.965.124-2.945a3.17,3.17,0,0,0-1.664-2.4c-.317-.162-.653-.269-.951-.444a17.153,17.153,0,0,1-1.788-1.648c-.637-.5-1.7-.694-2.181-.038Z" transform="translate(-526.725 -552.835)"/><path class="o" d="M537.892,554.37a7.412,7.412,0,0,0-3.316,1.065,1.376,1.376,0,0,0-.634.634,2.106,2.106,0,0,0-.051.773c.035,2.219-2.45,3.915-2.371,6.14.032.884.476,1.709.555,2.587.136,1.471-.732,2.821-1.566,4.038a3.338,3.338,0,0,0,2.374-.773,17.9,17.9,0,0,1,.317,9.027h1.192a.919.919,0,0,1,.349.044.825.825,0,0,1,.276.206,4.531,4.531,0,0,1,1.433,4.26l2.536-.951a7.6,7.6,0,0,0,1.753-.834,2.535,2.535,0,0,0,1.081-1.56c.067-.387.048-.853.365-1.078a2.059,2.059,0,0,1,.5-.184,2.18,2.18,0,0,0,1.144-1.775,10.145,10.145,0,0,0,.162-2.7c-.111-1.512-.558-3.049-.19-4.523a12.675,12.675,0,0,0,.71-2.457c.06-1.41-1.043-2.628-1.208-4.032-.114-.976.238-1.965.124-2.945a3.17,3.17,0,0,0-1.664-2.4c-.317-.162-.653-.269-.951-.444a17.157,17.157,0,0,1-1.788-1.648c-.637-.5-1.7-.694-2.181-.038Z" transform="translate(-526.725 -552.487)"/><g class="p" transform="translate(3.804 3.814)"><path d="M541.2,560.46v.149C541.194,560.561,541.2,560.511,541.2,560.46Z" transform="translate(-537.828 -560.46)"/><path d="M570.879,572.367a13.663,13.663,0,0,0,.143-2.057,13.6,13.6,0,0,0-.143,2.057Z" transform="translate(-558.102 -567.188)"/><path d="M534.281,582.482c-.073-.8-.447-1.556-.536-2.352a2.9,2.9,0,0,0-.019.441c.032.875.466,1.69.552,2.561a3.157,3.157,0,0,0,0-.65Z" transform="translate(-532.725 -573.895)"/><path d="M572.168,592.778a5.492,5.492,0,0,0-.133,1.607,4.971,4.971,0,0,1,.133-.932,12.67,12.67,0,0,0,.71-2.457,2.758,2.758,0,0,0-.022-.457A18.762,18.762,0,0,1,572.168,592.778Z" transform="translate(-558.884 -581.005)"/><path d="M532.925,597.83a3.37,3.37,0,0,1-1.9.78c-.149.228-.317.456-.453.675a3.338,3.338,0,0,0,2.355-.767,17.887,17.887,0,0,1,.751,4.837A17.807,17.807,0,0,0,532.925,597.83Z" transform="translate(-530.57 -585.985)"/><path d="M556.672,616.913a2.181,2.181,0,0,1-1.147,1.775,1.94,1.94,0,0,0-.5.187c-.317.225-.3.691-.365,1.075a2.535,2.535,0,0,1-1.081,1.56,7.605,7.605,0,0,1-1.753.834l-2.419.907a3.311,3.311,0,0,1-.117.719l2.536-.951a7.6,7.6,0,0,0,1.753-.834,2.535,2.535,0,0,0,1.081-1.559c.067-.387.048-.853.365-1.078a2.055,2.055,0,0,1,.5-.184,2.19,2.19,0,0,0,1.147-1.775,10.272,10.272,0,0,0,.181-2.289A10.605,10.605,0,0,1,556.672,616.913Z" transform="translate(-543.356 -597.917)"/><path d="M540.856,626.536a.874.874,0,0,0-.276-.206.919.919,0,0,0-.349-.044h-1.056c-.041.225-.086.45-.136.672h1.192a.92.92,0,0,1,.349.044.826.826,0,0,1,.276.206,5.109,5.109,0,0,1,1.537,3.027A4.78,4.78,0,0,0,540.856,626.536Z" transform="translate(-536.355 -605.419)"/></g><path class="e" d="M526.12,640.611s.951-.406,1.179,0S526.12,640.611,526.12,640.611Z" transform="translate(-523.727 -611.269)"/><path class="e" d="M527.17,642.771s.951-.406,1.179,0S527.17,642.771,527.17,642.771Z" transform="translate(-524.444 -612.744)"/></g><path class="q" d="M311.82,141.454l.086.666,2.894.409s.238-.178.609-.418a9.068,9.068,0,0,1,2.818-1.309c1.512-.3,6.339-2.463,4.78-2.606s-1.392.181-1.392.181a2.565,2.565,0,0,0-3.487-.143,24.216,24.216,0,0,1-5.633,2.954Z" transform="translate(-243.169 -122.827)"/><path class="r" d="M339.05,124.8a5.037,5.037,0,0,1,1.385-.355,1.7,1.7,0,0,1,1.322.441c.187.193.317.441.488.634.881.951,2.593.238,3.655.973a3.606,3.606,0,0,1,1.087,2.067c.231.761.653,1.6,1.433,1.762a4.25,4.25,0,0,0,1.132-.044,1.109,1.109,0,0,1,1.014.374c.361.545-.136,1.464.387,1.854.466.346,1.315-.139,1.642.346a.72.72,0,0,1-.111.792,5.514,5.514,0,0,0-.533.666,1.011,1.011,0,0,0,1,1.477c.317-.032.682-.222.97-.057a.694.694,0,0,1,.292.542,1.423,1.423,0,0,1-1.268,1.506,3.219,3.219,0,0,1-1.585-.526,2,2,0,0,0-1.613-.263,2.575,2.575,0,0,0-.65.46,7.163,7.163,0,0,1-1.994,1.182,2.483,2.483,0,0,1-1.991.089c-.688-.352-1.043-1.211-1.772-1.471s-1.563.225-2.26.634-1.632.761-2.263.25-.469-1.648-.884-2.415a2.349,2.349,0,0,0-.662-.729c-.466-.361-1-.634-1.461-.983a2.444,2.444,0,0,1-1-1.4,2.862,2.862,0,0,1,.571-1.991,5.861,5.861,0,0,0,.951-1.883c.089-.52,0-1.062.117-1.585a1.946,1.946,0,0,1,1.268-1.331c.342-.117.406-.089.577-.39A1.246,1.246,0,0,1,339.05,124.8Z" transform="translate(-258.846 -113.844)"/><g class="p" transform="translate(75.944 17.02)"><path d="M384.814,144.72a2.648,2.648,0,0,1,.054.929A2.463,2.463,0,0,1,384.814,144.72Z" transform="translate(-368.955 -144.72)"/><path d="M388.615,152.567a1,1,0,0,0-.1.339,1.03,1.03,0,0,1,.035-.859,5.5,5.5,0,0,1,.533-.666,1.044,1.044,0,0,0,.155-.3.224.224,0,0,1,.022.029.707.707,0,0,1-.111.792A5.9,5.9,0,0,0,388.615,152.567Z" transform="translate(-371.444 -149.064)"/><path d="M335.783,150.472c.466.355,1,.634,1.461.983a2.391,2.391,0,0,1,.663.729c.415.767.206,1.867.884,2.415s1.569.168,2.263-.25a2.8,2.8,0,0,1,2.26-.634c.764.276,1.084,1.119,1.772,1.471a2.457,2.457,0,0,0,1.991-.089,7.164,7.164,0,0,0,1.994-1.182,2.575,2.575,0,0,1,.65-.46,1.972,1.972,0,0,1,1.613.263,3.126,3.126,0,0,0,1.585.526,1.433,1.433,0,0,0,1.268-1.268,1.006,1.006,0,0,1,.067.273,1.42,1.42,0,0,1-1.268,1.506,3.2,3.2,0,0,1-1.585-.526,2,2,0,0,0-1.617-.263,2.616,2.616,0,0,0-.634.46,7.207,7.207,0,0,1-1.994,1.182,2.483,2.483,0,0,1-1.991.089c-.691-.352-1.043-1.211-1.775-1.471a2.917,2.917,0,0,0-2.257.634c-.694.409-1.632.758-2.263.25-.682-.548-.472-1.648-.888-2.415a2.311,2.311,0,0,0-.662-.729c-.463-.361-.992-.634-1.461-.983a2.425,2.425,0,0,1-1-1.4,1.632,1.632,0,0,1-.032-.371A2.564,2.564,0,0,0,335.783,150.472Z" transform="translate(-334.828 -147.787)"/></g><path class="s" d="M339.489,203.258l-1.049.225a1.8,1.8,0,0,0,2.631.586C342.665,202.954,339.489,203.258,339.489,203.258Z" transform="translate(-261.351 -167.657)"/><path class="e" d="M339.489,203.258l-1.049.225a1.8,1.8,0,0,0,2.631.586C342.665,202.954,339.489,203.258,339.489,203.258Z" transform="translate(-261.351 -167.657)"/><path class="q" d="M413.65,248.112s1.455.751,2.812,1.623a7.846,7.846,0,0,1,2.2,1.819c.723,1.227,4.232,2.552,4.232,2.552l3.487,2.653a4.96,4.96,0,0,1,1.946,1.715c.1.136.155.222.155.222l1.4-.181.735-.951s.187-2.108-1.268-2.083a2.075,2.075,0,0,1-.818-.209,17.441,17.441,0,0,1-3.743-2.853s-3.712-4.637-4.821-4.789a1.819,1.819,0,0,1-.349-.089,11.317,11.317,0,0,1-2.745-1.851Z" transform="translate(-312.722 -196.665)"/><path class="q" d="M368.093,283.982a33.166,33.166,0,0,0,2.6,7.367,11.785,11.785,0,0,1,1.027,3.3l.2,1.528a1.823,1.823,0,0,0,.219.612,3.476,3.476,0,0,0,.193.317l2.8-.859s-.162-.634-.406-1.382a6.3,6.3,0,0,0-.951-2.006c-.681-.672-.786-3.037-.786-3.037s-.567-4.552-.742-5.122a7.785,7.785,0,0,1-.317-1.68c-.025-.317-.044-.653-.048-1.049a21.553,21.553,0,0,0-.441-3.379l-3.262.593-.086,3.642A2.441,2.441,0,0,0,368.093,283.982Z" transform="translate(-281.556 -219.137)"/><path class="e" d="M459.93,279.1c.1.136.155.222.155.222l1.4-.181.735-.951s.187-2.108-1.268-2.083a2.076,2.076,0,0,1-.818-.209c-.117.634.59,1.154.59,1.154s.292.212.222,1.2A.943.943,0,0,1,459.93,279.1Z" transform="translate(-344.332 -217.299)"/><path class="t" d="M459.45,273.147c.092.339.973.84,1.585,1.151.3.155.536.263.583.285.143.07.881-.754.983-1.417a12.408,12.408,0,0,1,1.867-2.732,7.414,7.414,0,0,0,.656-2.587c.067-.9-.317-.973-.751-.77a3.006,3.006,0,0,0-.84.659,2.219,2.219,0,0,1-1.084.561,5.311,5.311,0,0,0-1.566.669c-.428.276-.843.612-.919.91-.162.65.58,1.2.58,1.2s.292.216.225,1.2S459.44,273.116,459.45,273.147Z" transform="translate(-344.004 -211.209)"/><path class="e" d="M464.45,274.3c.3.155.536.263.583.285.143.07.881-.754.983-1.417a12.408,12.408,0,0,1,1.867-2.732,7.416,7.416,0,0,0,.656-2.587c.067-.9-.317-.973-.751-.77a9.485,9.485,0,0,1-.634,2.834C466.729,270.773,464.941,273.547,464.45,274.3Z" transform="translate(-347.419 -211.209)"/><path class="e" d="M380.8,331.675a.415.415,0,0,1-.025.054,3.5,3.5,0,0,0,.193.317l2.8-.859s-.162-.634-.406-1.382c-1.106-.317-2.691,1.626-2.691,1.626Z" transform="translate(-290.195 -254.094)"/><path class="t" d="M380.384,334.022a11.363,11.363,0,0,0,3.382.691c.8-.1.83-.466.777-1.227-.019-.241-.044-.523-.057-.849-.054-1.347-.6-1.617-.6-1.617-.888-2.33-3.445.8-3.445.8l.136.254a2.777,2.777,0,0,0-.263,1.268A3.606,3.606,0,0,0,380.384,334.022Z" transform="translate(-289.954 -254.359)"/><path class="e" d="M380.387,340.882a11.365,11.365,0,0,0,3.382.691c.8-.1.831-.466.777-1.227a2.463,2.463,0,0,1-1.9.548,7.532,7.532,0,0,1-2.323-.694A3.6,3.6,0,0,0,380.387,340.882Z" transform="translate(-289.956 -261.218)"/><path class="q" d="M344,154.961l.907,3.991.184.821,1.69.212,1.737.222,1.9-.688a6.34,6.34,0,0,0,.092-3.148,1.987,1.987,0,0,0-.875-1.154,1.776,1.776,0,0,1-.364-.285,1.52,1.52,0,0,1-.317-.434,1.839,1.839,0,0,1-.165-.634,4.519,4.519,0,0,1,.586-2.251s-4.013-1.369-3.7-.485c.2.574-.361,1.585-.783,2.2-.228.342-.415.577-.415.577Z" transform="translate(-265.149 -131.875)"/><circle class="e" cx="3.484" cy="3.484" r="3.484" transform="translate(78.997 14.589)"/><circle class="q" cx="3.484" cy="3.484" r="3.484" transform="translate(78.978 14.459)"/><path class="t" d="M344.089,176.106a8.444,8.444,0,0,0,.922,1.975l4.862,1.195,3.487-3.626v-.022c-.108-.339-1.436-4.628-.475-5.687s.634-4.2.634-4.2-1.737-2-2.086-2.482-2.606-.862-2.606-.862c.111.152.216.3.317.434a4.388,4.388,0,0,1,.555,1.179,1.756,1.756,0,0,1-.048,1.268,1.521,1.521,0,0,0-.117.317c-.38,1.664-2.111,1.433-2.8,1.268-.178-.044-.285-.082-.285-.082l-1.658.054-1.04.035s.472,8.2.361,8.85a.951.951,0,0,0-.022.384Z" transform="translate(-264.978 -139.776)"/><path class="u" d="M343.632,176.825l3.018-.4h-.057a2.96,2.96,0,0,1-.285-.079l-1.658.054-1.04.035S343.62,176.572,343.632,176.825Z" transform="translate(-264.883 -149.304)"/><path class="u" d="M259.12,121.41l1.309.32,2.057-.269.539-.561Z" transform="translate(-176.988 -82.579)"/><path class="u" d="M265.98,123.958l.593.146.244-.254Z" transform="translate(-181.674 -84.594)"/><path class="e" d="M343.973,173.551c.777.079,1.493.117,1.493.117l4.007-.149v-4.187a6.023,6.023,0,0,0-1.613-1.065c-.7-.241-1.521-.979-1.366-2.935a2.759,2.759,0,0,1,.035-.349,4.762,4.762,0,0,0,.035-.656,3.518,3.518,0,0,0-1.109-2.58l-.06-.051-.653-3.037a.738.738,0,0,0-.13.016c-.228.342-.415.577-.415.577l-.482,1.056.907,3.991-1.04.035s.472,8.2.361,8.85A.951.951,0,0,0,343.973,173.551Z" transform="translate(-264.862 -137.222)"/><path class="v" d="M336.347,173.7l4.007-.149v-4.184a5.931,5.931,0,0,0-1.6-1.075c-.739-.257-1.617-1.068-1.331-3.287a3.636,3.636,0,0,0-1.075-3.236l-.06-.051-.653-3.037a1.42,1.42,0,0,0-1.033.593,2.9,2.9,0,0,1-.241.336.634.634,0,0,1-.805.241c-.422-.187-2.238-.951-2.647-.2s-.485,5.236-.485,5.236a3.433,3.433,0,0,1,1.179,1.94c.279,1.268.745,1.312.745,1.312l.5,3.677s.456.8.117,1.239" transform="translate(-255.873 -137.235)"/><path class="v" d="M342.84,159.639l.681,2.044,1.306.114-.06-.051-.653-3.037a1.42,1.42,0,0,0-1.033.593,2.9,2.9,0,0,1-.241.336Z" transform="translate(-264.357 -137.256)"/><path class="e" d="M311.82,149.182l.086.666,2.894.409s.238-.178.609-.418c-.317-.07-1.743-.384-2.5-.634-.276-.086-.463-.158-.469-.209s.019-.057.063-.1Z" transform="translate(-243.169 -130.555)"/><path class="v" d="M299.429,151.565s3.277,2.488,5.309,2.891a14.458,14.458,0,0,1,3.981,1.823l1.233-4.72-.732-.517a2.614,2.614,0,0,1-1.67.371c-.773-.184-1.623-.292-1.623-.292a12.734,12.734,0,0,0-2.079-.571c-.552-.044-.317-.761.222-1.141a1.818,1.818,0,0,1,.231-.13.707.707,0,0,0,.929.209,2.066,2.066,0,0,0,.539-.5h0a6.6,6.6,0,0,0,.609-.922s-1.708-.365-2.561-.634c-.276-.086-.463-.158-.469-.206-.025-.2,1.525-.815,1.525-.815s-1.328-.634-1.867-.178c0,0,.346.263.067.52s-3.683,2.869-3.683,2.869S297.7,150.45,299.429,151.565Z" transform="translate(-234.173 -128.621)"/><path class="e" d="M310,152.409l1.813.26a1.815,1.815,0,0,1,.231-.13.707.707,0,0,0,.929.209,2.067,2.067,0,0,0,.539-.5h0a6.838,6.838,0,0,0,.5-.773s-1.712-.368-2.561-.634Z" transform="translate(-241.926 -131.88)"/><path class="v" d="M310.33,151.935l1.934.276a.707.707,0,0,0,.929.209,4.548,4.548,0,0,0,1.147-1.426s-1.708-.365-2.561-.634Z" transform="translate(-242.152 -131.552)"/><path class="e" d="M416.867,245.65l-3.217,2.434s1.455.751,2.812,1.623c1.185-.8,2.3-1.54,3.151-2.219A11.027,11.027,0,0,1,416.867,245.65Z" transform="translate(-312.722 -196.638)"/><path class="e" d="M368.09,283.927a10.988,10.988,0,0,0,2.358-.564s.593-.13,1.474-.425c-.025-.317-.044-.653-.047-1.049a21.562,21.562,0,0,0-.441-3.379l-3.262.593-.086,3.642A2.442,2.442,0,0,0,368.09,283.927Z" transform="translate(-281.552 -219.082)"/><path class="t" d="M345.729,216.63c.659.973,2.45,5.094,2.45,5.094a17.2,17.2,0,0,0,1.363,2.1c.713.9,1.208,2.916,1.75,4.53s-.162,1.309-.082,2.159,3.138-.244,3.138-.244,6.263-1.379,8.175-5.2,9.554-7.29,11.094-9.443-.441-1.268-.361-2.428a3.3,3.3,0,0,0-.808-2.143s-2.881-.811-3.35-1.379a20.109,20.109,0,0,0-2.77-1.984,16.215,16.215,0,0,1-2.444-1.268,16.785,16.785,0,0,0-3.636-1.54,3.711,3.711,0,0,1-1.56-1.315s-.488.063-1.208-.634-3.734-1.3-3.734-1.3c-5.157,3.778-8.717,3.239-8.717,3.239l-.082.716C342.21,209.162,345.076,215.66,345.729,216.63Z" transform="translate(-265.001 -166.578)"/><path class="e" d="M347.47,205.606s4.438,1.468,8.8-3.956c-5.157,3.778-8.717,3.24-8.717,3.24Z" transform="translate(-267.519 -166.585)"/><path class="e" d="M371.65,222.128s5.981,8.631,6.34,8.948S371.964,222.02,371.65,222.128Z" transform="translate(-284.035 -180.571)"/><path class="e" d="M362.93,220s4.143,6.431,4.057,7.29C366.987,227.309,362.978,221.128,362.93,220Z" transform="translate(-278.079 -179.118)"/><path class="e" d="M354.487,225.61s.764,3.6-.387,5.633Z" transform="translate(-272.048 -182.95)"/><path class="e" d="M349.439,226.27a16.746,16.746,0,0,1-.4,3.75Z" transform="translate(-268.591 -183.401)"/><path class="e" d="M287.07,126.49l5.5,2.155-2.013.263Z" transform="translate(-196.079 -86.398)"/><path class="e" d="M345.683,136.947c.276.181.5.475.83.517a1.287,1.287,0,0,0,.675-.168,2.5,2.5,0,0,1,1.737-.235c.808.269,1.252,1.2,2.057,1.474a1.417,1.417,0,0,0,1.838-1,1.807,1.807,0,0,0-.634-1.7,3.775,3.775,0,0,0-1.708-.777,17.014,17.014,0,0,0-4.948-.114.726.726,0,0,0-.387.1,2.305,2.305,0,0,0-.59,1.445C344.687,136.915,345.638,136.592,345.683,136.947Z" transform="translate(-265.519 -120.938)"/><path class="r" d="M345.628,136.537c.276.181.5.475.834.517a1.3,1.3,0,0,0,.675-.168,2.491,2.491,0,0,1,1.734-.235c.808.269,1.252,1.2,2.06,1.474a1.436,1.436,0,0,0,1.2-.133,1.407,1.407,0,0,0,.634-.872,1.8,1.8,0,0,0-.634-1.7,3.772,3.772,0,0,0-1.712-.777,16.994,16.994,0,0,0-4.945-.114.726.726,0,0,0-.387.1,2.287,2.287,0,0,0-.59,1.445C344.623,136.5,345.584,136.182,345.628,136.537Z" transform="translate(-265.484 -120.658)"/><path class="q" d="M415.28,140.825l.526,2.127.685-.412L420.2,140.3s2.808-.1,3.027-2.361-3.122-.022-3.3.152a7.427,7.427,0,0,1-.583.472l-3.455,1.924Z" transform="translate(-313.835 -122.382)"/><path class="e" d="M415.28,148.479l.526,2.127.685-.412a5.367,5.367,0,0,0-.6-2.054Z" transform="translate(-313.835 -130.036)"/><path class="e" d="M357.51,170.735l.754,4.438,4.476-.951c-.108-.339-1.436-4.628-.475-5.687s.634-4.2.634-4.2-1.737-2-2.086-2.482-2.606-.862-2.606-.862a1.838,1.838,0,0,1-.165-.634,2.435,2.435,0,0,0-.171.472,1.776,1.776,0,0,0,1.195,1.775l.241.1c.136.054.285.1.444.155l.073.022a2.511,2.511,0,0,1,1.753,1.29,3.287,3.287,0,0,1,.656,2.327C362.071,167.894,357.51,170.735,357.51,170.735Z" transform="translate(-274.377 -138.383)"/><path class="v" d="M358.33,162.335l.754,4.438,5.037-1.052a9.148,9.148,0,0,0-.5-2.358,12.45,12.45,0,0,1-.282-3.331c2.143-2.308,1.017-4.187,1.017-4.187s6.3-1.018,6.4-1.208a20.565,20.565,0,0,1,2.219-1.325,12.08,12.08,0,0,0,2.59-.91,3.116,3.116,0,0,1,.374-.339,1.027,1.027,0,0,1,.124-.079l.168,1.455h.063a2.048,2.048,0,0,0,1.014-.4c.52-.4-.136-4.755-.634-4.916a.6.6,0,0,0-.292,0,3.17,3.17,0,0,0-1.087.586l-.086.07-.032.025a21.441,21.441,0,0,0-3.42,1.632c-.567.514-5,1.17-5,1.17s-1.987.469-2.244.184-3.29-.748-3.544-.317-.951.368-.951.368c-.5-.574-.846-.352-1.059-.022a2.252,2.252,0,0,0-.266.634,1.87,1.87,0,0,0,1.436,1.88,4.863,4.863,0,0,0,.517.177,2.511,2.511,0,0,1,1.753,1.29,3.3,3.3,0,0,1,.656,2.33C362.891,159.482,358.33,162.335,358.33,162.335Z" transform="translate(-274.937 -130.011)"/><path class="e" d="M412.733,148.1a.454.454,0,0,1,.162,0c.5.155,1.16,4.517.634,4.916a2.025,2.025,0,0,1-.884.384h-.076l-.168-1.455a1.029,1.029,0,0,0-.124.079v-.06a3.8,3.8,0,0,0-.716-3.23Z" transform="translate(-311.294 -130.007)"/><path class="v" d="M412.6,151.945l.168,1.455a2.038,2.038,0,0,0,1.09-.406c.52-.4-.136-4.755-.634-4.916-.4-.124-1.1.374-1.379.586A3.779,3.779,0,0,1,412.6,151.945Z" transform="translate(-311.492 -129.981)"/><path class="v" d="M360.885,162.287l.723-.681-1.9-1.835a2.25,2.25,0,0,0-.266.634A1.867,1.867,0,0,0,360.885,162.287Z" transform="translate(-275.695 -137.98)"/><path class="e" d="M345.636,139.433c.276.181.5.475.83.517a1.287,1.287,0,0,0,.675-.168,2.5,2.5,0,0,1,1.737-.235c.808.269,1.268,1.2,2.057,1.474a1.4,1.4,0,0,0,1.873-1.392,1.482,1.482,0,0,1,0,.634,1.4,1.4,0,0,1-1.065,1.046,1.442,1.442,0,0,1-.77-.041c-.808-.276-1.252-1.2-2.057-1.474a2.515,2.515,0,0,0-1.737.235,1.286,1.286,0,0,1-.675.168c-.317-.041-.558-.336-.834-.517-.044-.355-1-.032-1.122-.456a.478.478,0,0,1,0-.193C344.729,139.366,345.585,139.1,345.636,139.433Z" transform="translate(-265.517 -123.814)"/><path class="e" d="M355.7,171.91s-.4,1.128.108,1.506c0,0-.558-1.49-.884-1.458" transform="translate(-272.608 -146.272)"/><path class="q" d="M432.988,137.3s-2.59,2.238-.72,2.6S432.988,137.3,432.988,137.3Z" transform="translate(-324.975 -122.632)"/><path class="g" d="M308.93,52.16l.5,13.107L323.844,52.16Z" transform="translate(-211.01 -35.628)"/><path class="h" d="M308.93,52.16l.5,13.107L323.844,52.16Z" transform="translate(-211.01 -35.628)"/><ellipse class="d" cx="10.714" cy="2.06" rx="10.714" ry="2.06" transform="translate(257.91 217.326)"/><ellipse class="c" cx="1.249" cy="1.632" rx="1.249" ry="1.632" transform="translate(267.194 216.879)"/><ellipse class="c" cx="1.249" cy="1.632" rx="1.249" ry="1.632" transform="translate(267.194 214.882)"/><ellipse class="c" cx="1.249" cy="1.632" rx="1.249" ry="1.632" transform="translate(267.194 212.885)"/><ellipse class="c" cx="1.249" cy="1.632" rx="1.249" ry="1.632" transform="translate(267.194 210.891)"/><ellipse class="c" cx="1.249" cy="1.632" rx="1.249" ry="1.632" transform="translate(267.194 208.894)"/><ellipse class="c" cx="1.249" cy="1.632" rx="1.249" ry="1.632" transform="translate(267.194 206.897)"/><ellipse class="c" cx="1.249" cy="1.632" rx="1.249" ry="1.632" transform="translate(267.194 204.903)"/><path class="d" d="M933.852,678.725a6.669,6.669,0,0,0,.463-.685l-3.274-.539,3.544.025a5.965,5.965,0,0,0,.114-4.732l-4.755,2.466,4.387-3.224a5.975,5.975,0,1,0-9.871,6.688,6.2,6.2,0,0,0-.681,1.087l4.257,2.219-4.539-1.525a5.994,5.994,0,0,0,.951,5.614,5.975,5.975,0,1,0,9.4,0,5.981,5.981,0,0,0,0-7.389Z" transform="translate(-660.736 -485.847)"/><path class="e" d="M923.179,710.98a5.967,5.967,0,0,0,1.268,3.7,5.975,5.975,0,1,0,9.4,0C934.651,713.658,923.179,710.308,923.179,710.98Z" transform="translate(-660.736 -514.409)"/></g></svg>