<svg xmlns="http://www.w3.org/2000/svg" width="320" height="252.258" viewBox="0 0 320 252.258"><defs><style>.a{fill:#3f3d56;}.b{fill:#3182ce;}.c{fill:#2f2e41;}.d{fill:#ffb8b8;}.e{fill:#d0cde1;}.f{opacity:0.2;}.g{fill:#ff6584;}.h{fill:#fff;}</style></defs><g transform="translate(0 51.419)"><ellipse class="a" cx="64.638" cy="3.751" rx="64.638" ry="3.751" transform="translate(173.587 183.814)"/><ellipse class="a" cx="85.847" cy="3.93" rx="85.847" ry="3.93" transform="translate(1.892 184.323)"/><ellipse class="a" cx="73.006" cy="3.751" rx="73.006" ry="3.751" transform="translate(109.814 193.336)"/><g transform="translate(-17.559 -23.936)"><path class="b" d="M742.266,663.747c.459,15.715-8.723,21.474-20.246,21.81q-.4.012-.8.015-.8.006-1.588-.027c-10.421-.433-18.671-5.965-19.1-20.579-.442-15.125,18.331-34.776,19.739-36.229h0l.081-.083S741.806,648.033,742.266,663.747Z" transform="translate(-511.518 -476.68)"/><path class="a" d="M732.774,683.178l7.32-10.885-7.305,12.057.015,1.225q-.8.006-1.588-.027l.363-15.745-.01-.121.013-.024.035-1.488L723.6,656.53l8.007,10.525.028.314.274-11.9-6.924-12.067,6.944,9.977-.073-24.646v-.082l0,.081.459,19.424,6.31-7.89-6.29,9.563.138,10.641,5.807-10.385L732.5,662.039l.077,5.917,8.445-14.466-8.419,16.53Z" transform="translate(-523.103 -476.682)"/></g><path class="b" d="M69.714,659.989c.266,9.106-5.055,12.444-11.733,12.639q-.233.007-.463.008-.464,0-.92-.015c-6.039-.251-10.82-3.456-11.067-11.926-.256-8.764,10.623-20.152,11.439-20.994h0l.047-.048S69.448,650.883,69.714,659.989Z" transform="translate(-45.527 -484.506)"/><path class="a" d="M73.917,671.251l4.242-6.308-4.233,6.987.009.71q-.465,0-.92-.016l.21-9.124-.006-.07.008-.014.02-.862L68.6,655.809l4.64,6.1.016.182.159-6.894L69.4,648.2l4.024,5.781L73.386,639.7v0l.266,11.256,3.657-4.572-3.645,5.542.08,6.166,3.365-6.018L73.758,659l.044,3.429,4.894-8.383-4.879,9.579Z" transform="translate(-61.943 -484.509)"/><path class="a" d="M1004.991,336.415l21.373-31.784-21.329,35.2.045,3.576q-2.34.018-4.635-.078l1.06-45.974-.029-.355.039-.069.1-4.344L978.21,258.609l23.379,30.732.083.918.8-34.735-20.217-35.233,20.274,29.131-.212-71.962v-.239l.007.236,1.342,56.715,18.425-23.038-18.365,27.924.4,31.07,16.955-30.323-16.892,34.89.224,17.276,24.657-42.239L1004.491,298Z" transform="translate(-709.073 -155.515)"/><g transform="translate(-33.296 -51.418)"><path class="c" d="M873.88,111.445c-5.322-8.993-15.851-9.412-15.851-9.412s-10.26-1.312-16.842,12.384c-6.135,12.766-14.6,25.091-1.363,28.079l2.391-7.443,1.481,8a51.808,51.808,0,0,0,5.664.1c14.177-.458,27.679.134,27.244-4.953C876.027,131.431,879,120.1,873.88,111.445Z" transform="translate(-586.994 -102)"/><path class="c" d="M852.781,359.475s-6.234,16.707-2.244,31.67S865,441.766,865,441.766l13.965,27.68s7.98,5.486,12.718-5.735l-12.718-23.939,12.449-43.253a55.8,55.8,0,0,0,1.471-24.917,31.372,31.372,0,0,0-3.945-11.377S856.521,355.236,852.781,359.475Z" transform="translate(-597.43 -264.862)"/><path class="c" d="M881.637,580.776l-7.481,38.9s7.73,5.486,12.219,3.741l7.481-28.677Z" transform="translate(-613.319 -406.864)"/><path class="c" d="M841.268,685.811l-7.98,16.209-3.242,6.483s-17.705,16.957-3.74,15.211,14.962-4.239,14.962-4.239l2.743-3.99.748,1.5s3.99-3.242,3.99-4.239-1.5-11.221-1.5-11.221l2-11.97Z" transform="translate(-579.433 -473.746)"/><path class="c" d="M934.984,656.661l4.239,11.471-2.494,9.975s-9.725,13.216.25,12.468,11.72-7.98,11.72-7.98l1.5-4.738,1.247.5,3.74-6.733L948.2,660.4l-4.738-8.229Z" transform="translate(-650.457 -452.326)"/><path class="d" d="M1003.835,400.913l1.5,7.73s6.234,13.965,0,14.463-6.234-13.715-6.234-13.715l.5-5.735Z" transform="translate(-692.875 -292.335)"/><path class="d" d="M671.232,279.27l-8.728-1.5S645.3,268.8,645.547,275.28s16.209,9.476,16.209,9.476l4.738,1.746Z" transform="translate(-467.748 -210.84)"/><circle class="d" cx="11.471" cy="11.471" r="11.471" transform="translate(258.842 9.081)"/><path class="d" d="M874.273,177.933s2.494,9.476-1.995,11.471-4.987,3.491-4.987,3.491,29.924,9.476,32.168-1.746l-10.224-5.735s-1-7.98-1.995-8.478S874.273,177.933,874.273,177.933Z" transform="translate(-608.947 -149.651)"/><path class="e" d="M800.306,220.909a2.993,2.993,0,0,0-1.292-1.827c-2.6-1.677-9.381-5.936-10.305-5.441-1.148.615-9.95,4.829-27.369-.52,0,0-13.179,3.629-16.919,6.122s-11.559,10.543-11.559,10.543-35.484,5.725-35.235,8.718-2.543,10.171-2.543,10.171,23.247,4.722,46.858-5.085c0,0,7.465,17.3,6.717,20.54s-.748,5.486,5.237,4.987,15.211-1.995,19.949-1.247,22.443,1.995,22.443.748v-7.731s5.486,26.932,8.977,26.932,8.9-2.1,11.141-10.084l-10.9-34.871Z" transform="translate(-499.293 -172.757)"/><rect class="f" width="53.753" height="1.09" transform="translate(267.359 175.204) rotate(-83.421)"/><path class="c" d="M845.239,15.194l-10.4-5.449-14.365,2.229L817.5,25.1l7.4-.285,2.067-4.822v4.743l3.414-.131,1.981-7.678L833.6,25.1l12.136-.248Z" transform="translate(-560.705 -6.206)"/><path class="g" d="M621.382,224.253a4.387,4.387,0,0,0-6.2,6.2l6.2,6.2,6.2-6.2a4.387,4.387,0,0,0-6.2-6.2Z" transform="translate(-447.595 -179.027)"/><path class="g" d="M666.382,164.253a4.387,4.387,0,0,0-6.2,6.2l6.2,6.2,6.2-6.2a4.387,4.387,0,1,0-6.2-6.2Z" transform="translate(-476.249 -140.822)"/><path class="g" d="M594.233,107.2a6.442,6.442,0,0,0-9.11,9.11l9.11,9.11,9.11-9.11a6.442,6.442,0,0,0-9.11-9.11Z" transform="translate(-428.074 -104.109)"/></g><g transform="translate(20.634 66.736)"><rect class="a" width="136.63" height="120.912" transform="translate(0 0)"/><rect class="h" width="114.564" height="71.942" transform="translate(11.184 12.091)"/><path class="c" d="M294.836,514.616l.405-.127a26.126,26.126,0,0,0,18.1-25.866,25.778,25.778,0,0,0-1.59-8,26.088,26.088,0,1,0-32.843,33.731c.136.048.275.094.411.136H286.8Z" transform="translate(-216.721 -430.153)"/><path class="c" d="M256.557,508.852l-.819,5.272-.021.136H247.7l.632-4.063.429-2.757Z" transform="translate(-193.547 -429.924)"/><path class="c" d="M308.439,520.9l.021-.127.469-2.584-7.8-1.412-.722,4Z" transform="translate(-230.324 -436.44)"/><ellipse class="h" cx="8.915" cy="8.915" rx="8.915" ry="8.915" transform="translate(63.466 44.196)"/><ellipse class="a" cx="2.972" cy="2.972" rx="2.972" ry="2.972" transform="translate(73.073 46.943)"/><path class="b" d="M279.389,413.721c-.392-9.657,7.931-17.836,18.589-18.269s19.618,7.044,20.01,16.7S310.972,424,300.313,424.437,279.782,423.378,279.389,413.721Z" transform="translate(-229.412 -382.607)"/><ellipse class="c" cx="13.042" cy="4.094" rx="13.042" ry="4.094" transform="matrix(0.975, -0.223, 0.223, 0.975, 81.012, 53.662)"/><ellipse class="c" cx="13.042" cy="4.094" rx="13.042" ry="4.094" transform="matrix(0.975, -0.223, 0.223, 0.975, 29.809, 62.177)"/><path class="h" d="M323.57,576.662a5.943,5.943,0,0,0,11.7,2.117c.585-3.23-1.913-4.373-5.142-4.958S324.155,573.432,323.57,576.662Z" transform="translate(-260.18 -506.892)"/><rect class="b" width="70.129" height="4.232" transform="translate(11.184 94.916)"/><rect class="b" width="114.564" height="4.232" transform="translate(11.184 103.984)"/></g></g></svg>