<svg xmlns="http://www.w3.org/2000/svg" width="950" height="696.038" viewBox="0 0 950 696.038"><defs><style>.a{fill:#e6e6e6;}.b{fill:#3f3d56;}.c{fill:#fff;}.d{fill:#3182ce;}.e{fill:#2f2e41;}.f{fill:#fbbebe;}</style></defs><path class="a" d="M467.572,655.238h-7.943l2.648-155.328h2.648Z" transform="translate(32.091 34.904)"/><path class="a" d="M632.188,537.894l12.8-19.782a296.594,296.594,0,0,0-13.132-30.741l-8.277,6.685,6.554-10.128c-6.246-12.295-11.16-20.041-11.16-20.041S593.3,504.34,584.725,547.172l16.426,25.385L582.967,557.87a119.983,119.983,0,0,0-1,15.046c0,50.727,16.567,91.849,37,91.849s37-41.122,37-91.849c0-15.726-3.558-32.178-8.465-47.4Z" transform="translate(-126.259 -101.012)"/><path class="a" d="M279.534,655.238h-7.942L274.24,499.91h2.647Z" transform="translate(18.963 34.904)"/><path class="a" d="M446.934,537.894l12.8-19.782A296.586,296.586,0,0,0,446.6,487.371l-8.277,6.685,6.554-10.128c-6.246-12.295-11.16-20.041-11.16-20.041s-25.671,40.454-34.248,83.285L415.9,572.557,397.713,557.87a119.989,119.989,0,0,0-1,15.046c0,50.727,16.567,91.849,37,91.849s37-41.122,37-91.849c0-15.726-3.558-32.178-8.465-47.4Z" transform="translate(-139.193 -101.012)"/><path class="a" d="M372.322,665.5H356.436l5.3-319.48h5.3Z" transform="translate(24.886 24.159)"/><path class="a" d="M546.952,292.391,573.345,251.6a611.513,611.513,0,0,0-27.077-63.386L529.2,202l13.513-20.884c-12.878-25.35-23.012-41.322-23.012-41.322s-52.932,83.412-70.616,171.726l33.868,52.342-37.494-30.283A247.394,247.394,0,0,0,443.4,364.6c0,104.594,34.16,189.383,76.3,189.383S596,469.2,596,364.6c0-32.425-7.336-66.349-17.455-97.729Z" transform="translate(-135.934 -123.64)"/><circle class="a" cx="73.251" cy="73.251" r="73.251" transform="translate(246.834 0)"/><rect class="b" width="950" height="2.397" transform="translate(0 689.221)"/><path class="b" d="M978.084,422.632a3.019,3.019,0,0,0,3.018-3.019v-32.2a2.99,2.99,0,0,0-4.025-2.834V348.175a10.062,10.062,0,0,0-10.062-10.062H638a10.062,10.062,0,0,0-10.062,10.062v441.71A10.062,10.062,0,0,0,638,799.947H967.016a10.062,10.062,0,0,0,10.062-10.062V467.725a2.99,2.99,0,0,0,4.025-2.834v-32.2a2.99,2.99,0,0,0-4.025-2.834v-7.413a2.989,2.989,0,0,0,1.005.185Z" transform="translate(-123.05 -109.793)"/><path class="c" d="M945.58,356.453a10.062,10.062,0,0,1,10.062,10.062V768.984a10.062,10.062,0,0,1-10.062,10.062H656.808a10.062,10.062,0,0,1-10.062-10.062V366.515a10.062,10.062,0,0,1,10.062-10.062H945.58" transform="translate(-121.736 -108.513)"/><circle class="c" cx="4.025" cy="4.025" r="4.025" transform="translate(675.433 234.357)"/><rect class="d" width="247.309" height="24.577" transform="translate(551.641 300.737)"/><rect class="a" width="247.309" height="9.309" transform="translate(551.641 358.629)"/><rect class="a" width="247.309" height="9.309" transform="translate(551.641 387.042)"/><rect class="a" width="127.785" height="9.309" transform="translate(551.641 415.814)"/><rect class="a" width="247.309" height="9.309" transform="translate(551.641 445.097)"/><rect class="a" width="247.309" height="9.309" transform="translate(551.641 474.381)"/><rect class="a" width="123.505" height="9.309" transform="translate(551.641 503.664)"/><rect class="a" width="247.309" height="9.309" transform="translate(551.641 532.947)"/><rect class="a" width="247.309" height="9.309" transform="translate(551.641 562.23)"/><rect class="d" width="78.097" height="25.676" transform="translate(721.148 598.147)"/><path class="b" d="M436.653,496.823h-1.759v-58.6a34.062,34.062,0,0,0-34.062-34.062H276.008a34.062,34.062,0,0,0-34.062,34.062V761.273a34.062,34.062,0,0,0,34.062,34.062H400.831a34.062,34.062,0,0,0,34.062-34.062V538.463h1.759Z" transform="translate(-149.999 -105.182)"/><path class="c" d="M426.657,435.313V759.94a25.438,25.438,0,0,1-25.438,25.438H276.155a25.438,25.438,0,0,1-25.438-25.438V435.313a22.929,22.929,0,0,1,22.929-22.929H291.3a12.413,12.413,0,0,0,.541,10.389,12.134,12.134,0,0,0,9.926,6.032h72.762a12.133,12.133,0,0,0,9.926-6.033,12.414,12.414,0,0,0,.54-10.388h18.73a22.929,22.929,0,0,1,22.929,22.929Z" transform="translate(-149.387 -104.607)"/><path class="e" d="M553.477,351.671s-13.268-4.739-21.8,14.216-21.8,39.8-21.8,39.8l7.582,1.9s1.9-13.268,6.634-15.164l-1.9,17.059s56.863,19.9,82.451-1.9l-.948-6.634s3.791.948,3.791,6.634l2.843-2.843s-2.843-5.686-11.373-13.268c-5.6-4.976-7.522-14.444-8.183-20.363a24.641,24.641,0,0,0-5.673-13.419C579.443,351.124,569.115,344.142,553.477,351.671Z" transform="translate(-131.292 -109.074)"/><path class="f" d="M321.794,379.047,334.2,394.838l7.9-9.024-6.768-11.279Z" transform="translate(22.468 26.15)"/><path class="f" d="M317.871,605.429l-4.511,23.686,11.279,5.64,7.9-5.64V605.429Z" transform="translate(21.879 42.271)"/><path class="f" d="M392.335,605.429l4.513,23.686-11.279,5.64-7.9-5.64V605.429Z" transform="translate(26.369 42.271)"/><path class="e" d="M350.655,406.165,334.863,518.956,312.3,621.6l27.071,3.384,21.431-95.874,27.07-81.21-3.384,97-5.639,80.083h20.3L413.818,516.7,430.032,436.2l-.424-30.031Z" transform="translate(21.805 28.358)"/><path class="e" d="M478.661,750.438s-5.64-6.768-9.023-3.384-11.279,16.919-11.279,16.919-18.047,10.151-3.384,12.407,19.175,0,19.175-1.128,2.256-4.512,2.256-4.512l5.64,1.128,7.9-2.256s3.384-20.782,0-19.978S479.788,753.821,478.661,750.438Z" transform="translate(-135.527 -81.307)"/><path class="e" d="M545.05,750.438s5.64-6.768,9.023-3.384,11.279,16.919,11.279,16.919,18.047,10.151,3.384,12.407-19.175,0-19.175-1.128-2.256-4.512-2.256-4.512l-5.64,1.128-7.9-2.256s-3.384-20.782,0-19.978S543.922,753.821,545.05,750.438Z" transform="translate(-129.729 -81.307)"/><circle class="f" cx="22.558" cy="22.558" r="22.558" transform="translate(403.477 255.748)"/><path class="f" d="M570.673,398.016s-2.256,19.175-1.128,23.686,3.384,11.279,3.384,11.279l-36.094-6.767s10.151-21.431,7.9-24.814S570.673,398.016,570.673,398.016Z" transform="translate(-129.41 -105.611)"/><path class="d" d="M575.456,423.834l-37.221-7.9L516.8,546.778a48.864,48.864,0,0,1,29.326,1.128c15.791,5.64,37.221,0,37.221,0L578.84,424.962Z" transform="translate(-130.809 -104.359)"/><path class="e" d="M548.318,406.253,535.1,413.231l-16.919,3.384-18.047,42.861,2.256,30.454s-19.175,34.966-21.431,54.14c0,0,2.256,29.326,39.477,28.2l24.814-68.8s10.151-51.884,0-66.547C545.249,436.917,552.515,409.425,548.318,406.253Z" transform="translate(-133.312 -105.036)"/><path class="e" d="M526.421,415.98l-3.652-.623-3.115.623s-7.9,1.128-16.919,9.023S463.258,457.713,461,464.48s-1.128,18.047,2.256,24.814,10.151,15.791,10.151,15.791l3.384,7.9,19.175-5.64S483.56,483.655,484.688,473.5l22.559-18.046Z" transform="translate(-134.787 -104.4)"/><path class="e" d="M567.666,411.019l17.04,21.054,9.023,11.279L582.45,481.7l-5.64,32.71s13.535,51.884,2.256,67.675c0,0-6.768,7.9-9.023-1.128s-2.256-51.884-2.256-51.884-9.023-56.4-4.512-71.059S563.034,413.652,567.666,411.019Z" transform="translate(-127.652 -104.703)"/><path class="f" d="M582.183,563.616v11.279s-2.256,37.221,9.023,32.71,3.384-32.71,3.384-32.71l-1.128-12.407Z" transform="translate(-126.257 -94.127)"/><path class="e" d="M530.783,387.845c8.579-6.209,15.523-13.36,20.117-21.866,0,0,15.744,17.493,25.365,18.368s.875-20.991.875-20.991l-17.493-4.373-16.618,1.749-13.12,8.746Z" transform="translate(-129.894 -108.336)"/><path class="e" d="M428.035,313.385l9.023,3.384,1.129,11.279,4.511,68.8-2.256,51.885-16.918,1.128-5.64-57.524-2.255-63.163Z" transform="translate(29.019 21.88)"/><rect class="d" width="137.102" height="13.625" transform="translate(120.503 399.78)"/><rect class="a" width="137.102" height="5.161" transform="translate(120.503 431.873)"/><rect class="a" width="137.102" height="5.161" transform="translate(120.503 447.624)"/><rect class="a" width="70.84" height="5.161" transform="translate(120.503 463.575)"/><rect class="a" width="137.102" height="5.161" transform="translate(120.503 479.809)"/><rect class="a" width="137.102" height="5.161" transform="translate(120.503 496.043)"/><rect class="a" width="68.468" height="5.161" transform="translate(120.503 512.277)"/><rect class="a" width="137.102" height="5.161" transform="translate(120.503 528.51)"/><rect class="a" width="137.102" height="5.161" transform="translate(120.503 544.745)"/><rect class="d" width="43.295" height="14.234" transform="translate(214.474 564.656)"/></svg>