<svg xmlns="http://www.w3.org/2000/svg" xmlns:xlink="http://www.w3.org/1999/xlink" width="232.828" height="231.387" viewBox="0 0 232.828 231.387"><defs><style>.a{fill:url(#a);}.b{fill:#eceff1;}.c{fill:url(#b);}.d{fill:#3182ce;}.e,.n{opacity:0.2;}.f{fill:#ffcc80;}.g{fill:url(#d);}.h{fill:#faf8e4;}.i{opacity:0.6;}.j{fill:url(#e);}.k{fill:url(#f);}.l,.n{fill:#fff;}.m{fill:url(#g);}.o{fill:url(#h);}.p{fill:url(#i);}</style><linearGradient id="a" x1="0.5" y1="1" x2="0.5" gradientUnits="objectBoundingBox"><stop offset="0" stop-color="gray" stop-opacity="0.251"/><stop offset="0.54" stop-color="gray" stop-opacity="0.122"/><stop offset="1" stop-color="gray" stop-opacity="0.102"/></linearGradient><linearGradient id="b" x1="0" y1="0.5" x2="1" y2="0.5" xlink:href="#a"/><linearGradient id="d" x1="-1.487" y1="0.893" x2="-1.487" y2="0.279" xlink:href="#a"/><linearGradient id="e" x1="-2.825" y1="0.844" x2="-2.825" y2="0.229" xlink:href="#a"/><linearGradient id="f" x1="-0.315" y1="0.895" x2="-0.315" y2="0.281" xlink:href="#a"/><linearGradient id="g" x1="-1.653" y1="0.845" x2="-1.653" y2="0.231" xlink:href="#a"/><linearGradient id="h" x1="-0.341" y1="5.17" x2="-0.341" y2="4.346" xlink:href="#a"/><linearGradient id="i" x1="2.396" y1="7.371" x2="2.396" y2="6.327" xlink:href="#a"/></defs><rect class="a" width="23.622" height="104.128" transform="translate(109.909 127.259)"/><rect class="b" width="19.892" height="102.265" transform="translate(112.083 127.259)"/><path class="c" d="M410.114,228.64H303.729A28.232,28.232,0,0,0,293.118,231c-10.814,4.793-17.109,12.316-18.886,29v38.544l-28.19-.3c-5.669,0-7.742,8.913-7.742,14.938H428.721V248.412C428.721,237.493,420.4,228.64,410.114,228.64Z" transform="translate(-221.629 -182.51)"/><path class="d" d="M270.85,158.06H376.258a12.913,12.913,0,0,1,12.912,12.913v64.175H270.85Z" transform="translate(-184.878 -107.889)"/><path class="d" d="M201.506,158.06h0a28.6,28.6,0,0,1,28.6,28.6v34.5a14,14,0,0,1-13.995,13.995H186.9a14,14,0,0,1-13.995-13.995v-34.5A28.6,28.6,0,0,1,201.506,158.06Z" transform="translate(-118.026 -107.889)"/><path class="e" d="M201.506,158.06h0a28.6,28.6,0,0,1,28.6,28.6v34.5a14,14,0,0,1-13.995,13.995H186.9a14,14,0,0,1-13.995-13.995v-34.5A28.6,28.6,0,0,1,201.506,158.06Z" transform="translate(-118.026 -107.889)"/><path class="a" d="M452.142,125.75H428.52v39.163h10.722V143.306h12.9Z" transform="translate(-292.501 -85.835)"/><path class="f" d="M454.282,125.75H434.39v36.055h7.459V141.913h12.433Z" transform="translate(-296.507 -85.835)"/><rect class="g" width="24.339" height="39.604" transform="matrix(0.121, -0.993, 0.993, 0.121, 52.175, 89.049)"/><rect class="h" width="22.714" height="38.261" transform="matrix(0.121, -0.993, 0.993, 0.121, 52.781, 88.095)"/><g class="i" transform="translate(56.522 67.471)"><rect class="d" width="4.869" height="3.603" transform="matrix(-0.993, -0.121, 0.121, -0.993, 4.833, 4.165)"/><rect class="d" width="18.693" height="1.168" transform="matrix(-0.993, -0.121, 0.121, -0.993, 21.673, 13.273)"/><rect class="d" width="13.63" height="0.778" transform="matrix(-0.993, -0.121, 0.121, -0.993, 21.368, 15.787)"/></g><rect class="j" width="24.339" height="39.604" transform="matrix(0.121, -0.993, 0.993, 0.121, 68.193, 94.364)"/><rect class="h" width="22.714" height="38.261" transform="matrix(0.121, -0.993, 0.993, 0.121, 68.799, 93.413)"/><g class="i" transform="translate(72.543 72.789)"><rect class="d" width="4.869" height="3.603" transform="matrix(-0.993, -0.121, 0.121, -0.993, 4.833, 4.165)"/><rect class="d" width="18.693" height="1.168" transform="matrix(-0.993, -0.121, 0.121, -0.993, 21.673, 13.273)"/><rect class="d" width="13.63" height="0.778" transform="matrix(-0.993, -0.121, 0.121, -0.993, 21.362, 15.787)"/></g><rect class="k" width="32.992" height="53.681" transform="matrix(0.121, -0.993, 0.993, 0.121, 33.112, 105.224)"/><rect class="l" width="30.793" height="51.863" transform="matrix(0.121, -0.993, 0.993, 0.121, 33.936, 103.929)"/><g class="i" transform="translate(39.008 75.975)"><rect class="d" width="6.599" height="4.882" transform="matrix(-0.993, -0.121, 0.121, -0.993, 6.551, 5.643)"/><rect class="d" width="25.339" height="1.584" transform="matrix(-0.993, -0.121, 0.121, -0.993, 29.374, 17.994)"/><rect class="d" width="18.477" height="1.057" transform="matrix(-0.993, -0.121, 0.121, -0.993, 28.962, 21.399)"/></g><rect class="m" width="32.992" height="53.681" transform="matrix(0.121, -0.993, 0.993, 0.121, 54.827, 112.428)"/><rect class="l" width="30.793" height="51.863" transform="matrix(0.121, -0.993, 0.993, 0.121, 55.647, 111.139)"/><g class="i" transform="translate(60.721 83.183)"><rect class="d" width="6.599" height="4.882" transform="matrix(-0.993, -0.121, 0.121, -0.993, 6.551, 5.643)"/><rect class="d" width="25.339" height="1.584" transform="matrix(-0.993, -0.121, 0.121, -0.993, 29.374, 17.994)"/><rect class="d" width="18.477" height="1.057" transform="matrix(-0.993, -0.121, 0.121, -0.993, 28.962, 21.399)"/></g><path class="e" d="M424.373,242.35h0a28.5,28.5,0,0,0-10.9,2.158,28.805,28.805,0,0,1,4.066-.292h0a28.6,28.6,0,0,1,28.6,28.6V318.2h6.837V270.946A28.6,28.6,0,0,0,424.373,242.35Z" transform="translate(-341.197 -191.868)"/><path class="d" d="M73.2,369.58h82.059v9.948H63.25A9.948,9.948,0,0,1,73.2,369.58Z" transform="translate(-43.173 -252.269)"/><path class="n" d="M73.2,369.58h82.059v9.948H63.25A9.948,9.948,0,0,1,73.2,369.58Z" transform="translate(-43.173 -252.269)"/><path class="o" d="M655.343,22.4l-.943.46.108-.194-.082.025.117-.086L667.246,0l6.494,5.539,5.574,5.158-1.6.781,1.8,3.171Z" transform="translate(-446.683)"/><path class="d" d="M674.621,19.31l5.091,4.723L656.63,35.508l12.284-15.744Z" transform="translate(-448.205 -13.181)"/><path class="e" d="M674.621,19.31l5.091,4.723L656.63,35.508l12.284-15.744Z" transform="translate(-448.205 -13.181)"/><path class="d" d="M668.679,3.35,656.63,24.614l17.991-16.2Z" transform="translate(-448.205 -2.287)"/><path class="d" d="M679.916,31.045,656.71,38.711l19.4-14.481Z" transform="translate(-448.259 -16.539)"/><path class="p" d="M38.62,30.623l1.517.235-.235-.222h.13l-.2-.07L12.259,4.42,5.567,14.98,0,24.614l2.577.4L1.435,30.232Z" transform="translate(0 -3.017)"/><path class="d" d="M10.245,35.475,5.16,44.289l37.277,6.069L18.428,33.64Z" transform="translate(-3.522 -22.962)"/><path class="e" d="M10.245,35.475,5.16,44.289l37.277,6.069L18.428,33.64Z" transform="translate(-3.522 -22.962)"/><path class="d" d="M27.3,8.99,53.372,33.533,21.18,18.649Z" transform="translate(-14.457 -6.136)"/><path class="d" d="M9.49,59.456l35.8.686L11.871,48.27Z" transform="translate(-6.478 -32.948)"/></svg>