<svg xmlns="http://www.w3.org/2000/svg" width="320" height="229.982" viewBox="0 0 320 229.982"><defs><style>.a{fill:#f2f2f2;}.b{fill:#3182ce;}.c{fill:#3f3d56;}.d{opacity:0.1;}.e{fill:#2f2e41;}.f{fill:#a0616a;}.g{fill:#d0cde1;}</style></defs><g transform="translate(0 -0.035)"><circle class="a" cx="98.951" cy="98.951" r="98.951" transform="translate(32.694 29.511)"/><path class="b" d="M930.3,243.912l-10.323,12.239c-.557,5.272-1.347,11.162-2.467,17.342l16.961-17.547.079.306a47.621,47.621,0,0,0-4.345-12.631Z" transform="translate(-665.643 -188.313)"/><path class="b" d="M926.365,230.676l10-11.856a25.087,25.087,0,0,0-8.25-9.426c-.172-.111-.345-.215-.518-.319C927.6,210.517,927.558,218.976,926.365,230.676Z" transform="translate(-671.938 -163.762)"/><path class="b" d="M910.357,399.693l.021.355q.868-3.263,1.484-6.535l-24.6,15.881-.016-.162q-.7,1.9-1.435,3.73Z" transform="translate(-643.12 -294.835)"/><path class="b" d="M926.037,305.708l.05.336a74.854,74.854,0,0,0-1.248-17.628L907.554,306.3q-1.614,8.681-3.8,16.524Z" transform="translate(-655.869 -220.147)"/><path class="b" d="M813.834,244.779a62.516,62.516,0,0,0-6.6,10.733l28.487,32.519c1.173-4.561,2.119-8.984,2.88-13.109L813.684,245.1Z" transform="translate(-587.275 -189.135)"/><path class="b" d="M800.279,287.116l.145-.326,29.254,32.457q.472-1.667.9-3.316l-28.592-32.639.147-.325Q801.166,284.97,800.279,287.116Z" transform="translate(-582.332 -216.274)"/><path class="b" d="M916.08,362.308l.035.347a89.4,89.4,0,0,0,1.381-11.972l-22.584,17.346q-1.488,5.222-3.223,10.028Z" transform="translate(-647.294 -264.398)"/><path class="b" d="M831.471,478.534A72.915,72.915,0,0,1,818.5,495.361c5.313-2.143,26.717-11.583,37.809-28.607Z" transform="translate(-595.284 -346.885)"/><path class="b" d="M783.614,354.407a86.506,86.506,0,0,0-.5,11.567l.178-.346,22.944,32.186a107.544,107.544,0,0,0,5.63-11.591Z" transform="translate(-570.118 -267.044)"/><path class="b" d="M888.068,224.828c1.287-12.659,1.218-21.479,1.217-21.606l.219-.089c-5.165-2.994-10.873-2.89-16.433-.229Z" transform="translate(-634.063 -157.95)"/><path class="b" d="M870.838,431.008c-.155.377-.309.756-.467,1.129a106.817,106.817,0,0,1-5.088,10.452L889.89,430.92l.012.349a42.357,42.357,0,0,0,4.578-9.659q.647-2.007,1.192-4.029Z" transform="translate(-628.529 -311.94)"/><path class="b" d="M855.46,248.171c1.1-6.11,1.881-11.932,2.431-17.142L842.549,208.6l.162-.306a36.053,36.053,0,0,0-11.966,10.3Z" transform="translate(-603.983 -163.207)"/><path class="b" d="M805.984,428l-22.776-31.951c.549,23.16,8.457,47.877,8.967,49.449A70.566,70.566,0,0,0,805.984,428Z" transform="translate(-570.2 -296.641)"/><path class="b" d="M813.669,345.782l.024-.013A145.124,145.124,0,0,0,818.787,331l-29.326-32.537q-1.189,2.912-2.208,6.067a52.005,52.005,0,0,0-2,9.252Z" transform="translate(-571.654 -227.288)"/><path class="b" d="M971.381,572.574l-15.757,2.842c-3.791,3.7-8.157,7.738-12.961,11.784l24.255-2.7-.134.287a47.625,47.625,0,0,0,4.71-12.5Z" transform="translate(-683.52 -421.887)"/><path class="b" d="M989.756,541.913l15.264-2.753a25.088,25.088,0,0,0-.342-12.521c-.062-.195-.129-.385-.2-.576C1003.564,527.175,998.136,533.663,989.756,541.913Z" transform="translate(-716.988 -389.035)"/><path class="b" d="M873,691.932l-.21.287q2.75-1.96,5.311-4.087l-29.073-3.457.091-.135q-1.749,1.019-3.484,1.958Z" transform="translate(-614.562 -501.66)"/><path class="b" d="M921.584,630.593l-.176.291a74.858,74.858,0,0,0,10.282-14.373l-24.717,2.748q-6.78,5.657-13.466,10.3Z" transform="translate(-648.586 -453.313)"/><path class="b" d="M911.116,489.409a62.51,62.51,0,0,0-11.928,4.057l1.2,43.215c3.813-2.765,7.362-5.568,10.579-8.26l-.171-38.86Z" transform="translate(-652.624 -362.986)"/><path class="b" d="M883.987,505.941l.32-.159,1.829,43.657q1.427-.983,2.811-1.978l-1.2-43.375.32-.156Q886.039,504.854,883.987,505.941Z" transform="translate(-641.821 -373.305)"/><path class="b" d="M888.832,672.667l-.195.29a89.4,89.4,0,0,0,8.7-8.34l-28.457-1.045q-4.476,3.073-8.878,5.668Z" transform="translate(-624.775 -486.758)"/><path class="b" d="M747.6,712.955a72.915,72.915,0,0,1-20.72,4.689c5.459,1.738,27.964,8.119,47.366,2.083Z" transform="translate(-530.173 -521.853)"/><path class="b" d="M810.519,545.049a86.475,86.475,0,0,0-7.761,8.591l.358-.153-2.858,39.423a107.516,107.516,0,0,0,11.73-5.336Z" transform="translate(-582.317 -402.527)"/><path class="b" d="M988.71,514.848c9.065-8.928,14.638-15.766,14.718-15.864l.225.071c-2.068-5.6-6.531-9.161-12.511-10.657Z" transform="translate(-716.244 -362.266)"/><path class="b" d="M813.877,692.962c-.36.191-.72.385-1.079.572a106.838,106.838,0,0,1-10.585,4.8l26.394,6.707-.213.276a42.348,42.348,0,0,0,9.687-4.519q1.778-1.133,3.488-2.342Z" transform="translate(-583.707 -507.645)"/><path class="b" d="M941.694,525.167c4.747-4,9.06-7.99,12.806-11.652l2.488-27.058.32-.133a36.051,36.051,0,0,0-15.784.3Z" transform="translate(-682.711 -360.27)"/><path class="b" d="M744.514,615.182l2.837-39.135c-14.349,18.188-24.024,42.268-24.634,43.8A70.573,70.573,0,0,0,744.514,615.182Z" transform="translate(-527.211 -424.557)"/><path class="b" d="M839.382,563.349l.026.005a145.1,145.1,0,0,0,13.342-8.123l-1.834-43.764q-2.773,1.485-5.57,3.264a52,52,0,0,0-7.442,5.85Z" transform="translate(-609.071 -378.661)"/><path class="b" d="M744.248,390.561l-6.035,14.831c1.1,5.186,2.169,11.032,3.015,17.255l10.707-21.93.17.267a47.624,47.624,0,0,0-8.036-10.67Z" transform="translate(-538.224 -292.562)"/><path class="b" d="M724.021,387.89l5.846-14.366a25.087,25.087,0,0,0-10.759-6.414c-.2-.052-.394-.1-.591-.143C718.964,368.337,721.539,376.395,724.021,387.89Z" transform="translate(-524.226 -275.97)"/><path class="b" d="M772.926,534.74l.13.331q-.183-3.372-.609-6.674L753.964,551.1l-.065-.149q-.076,2.023-.212,3.99Z" transform="translate(-549.221 -390.694)"/><path class="b" d="M766.474,444.279l.151.3A74.861,74.861,0,0,0,759.99,428.2l-10.911,22.348q1.149,8.755,1.494,16.89Z" transform="translate(-545.946 -319.49)"/><path class="b" d="M626.629,432.012a62.507,62.507,0,0,0-2.959,12.247l37.144,22.121c-.294-4.7-.762-9.2-1.313-13.357l-32.915-20.658Z" transform="translate(-456.822 -322.195)"/><path class="b" d="M621.825,480.065l.037-.355,37.854,21.826q-.066-1.731-.166-3.433L622.27,475.9l.039-.354Q622.005,477.751,621.825,480.065Z" transform="translate(-455.51 -353.134)"/><path class="b" d="M772.745,497.6l.14.319a89.422,89.422,0,0,0-2.388-11.812l-16.116,23.477q.2,5.426.035,10.533Z" transform="translate(-549.714 -360.639)"/><path class="b" d="M729.226,625.173a72.917,72.917,0,0,1-7.131,20.011c4.39-3.68,21.828-19.274,27.115-38.893Z" transform="translate(-526.769 -446.051)"/><path class="b" d="M624.847,550.225a86.508,86.508,0,0,0,3.1,11.154l.063-.385,31.768,23.518a107.532,107.532,0,0,0,1.772-12.764Z" transform="translate(-457.658 -406.206)"/><path class="b" d="M684.435,386.908c-2.689-12.437-5.481-20.8-5.521-20.924l.18-.152c-5.838-1.251-11.234.612-15.7,4.862Z" transform="translate(-485.053 -274.891)"/><path class="b" d="M749.242,573.439c-.031.406-.06.815-.095,1.218a106.8,106.8,0,0,1-1.608,11.513l19.795-18.7.12.328a42.35,42.35,0,0,0,1.368-10.6q-.005-2.108-.111-4.2Z" transform="translate(-544.851 -408.173)"/><path class="b" d="M666.933,418.3c-.84-6.152-1.9-11.929-2.987-17.054l-21.522-16.586.059-.341a36.049,36.049,0,0,0-8.2,13.492Z" transform="translate(-464.366 -288.299)"/><path class="b" d="M667.649,613.7l-31.536-23.346c7.681,21.856,22.841,42.919,23.812,44.256A70.575,70.575,0,0,0,667.649,613.7Z" transform="translate(-465.664 -434.725)"/><path class="b" d="M658.82,529.935l.018-.019a145.125,145.125,0,0,0,.281-15.618l-37.947-21.879q-.23,3.137-.225,6.452a51.993,51.993,0,0,0,.958,9.417Z" transform="translate(-454.887 -365.125)"/><ellipse class="c" cx="160" cy="9.259" rx="160" ry="9.259" transform="translate(0 211.5)"/><path class="d" d="M518.831,720.878c0,17.995-25.082,12.429-55.793,12.429s-55.421,5.566-55.421-12.429,25.079-21.908,55.79-21.908S518.831,702.883,518.831,720.878Z" transform="translate(-303.279 -511.914)"/><path class="c" d="M518.831,705.565c0,17.995-25.082,12.429-55.793,12.429s-55.421,5.566-55.421-12.429,25.079-21.908,55.79-21.908S518.831,687.57,518.831,705.565Z" transform="translate(-303.279 -501.031)"/><path class="e" d="M812.974,488.251s0,30.2,1.614,36.889,7.378,30.895,7.378,30.895l7.839-1.614s-1.383-32.047-2.767-36.659,1.614-23.517,5.533-27.667-1.844-6.686-1.844-6.686Z" transform="translate(-591.354 -358.722)"/><path class="d" d="M812.974,488.251s0,30.2,1.614,36.889,7.378,30.895,7.378,30.895l7.839-1.614s-1.383-32.047-2.767-36.659,1.614-23.517,5.533-27.667-1.844-6.686-1.844-6.686Z" transform="translate(-591.354 -358.722)"/><path class="e" d="M813.937,714.5s-10.375,4.15-11.067,4.15-1.153,11.989-1.153,11.989.692,7.147-10.606,9.453,8.992,7.378,12.681,4.842a30.669,30.669,0,0,0,5.3-4.381l1.383-2.306-.461,3.919,1.614.23,3.689-7.378s.922-5.533-.23-6.917S813.937,714.5,813.937,714.5Z" transform="translate(-573.411 -522.951)"/><path class="f" d="M651.225,512.144l1.614,8.992,7.609-.692-1.383-6.456Z" transform="translate(-462.805 -363.94)"/><path class="e" d="M720.255,411.121l-1.383,2.306s-39.886-5.533-39.886,9.222-1.844,23.517-2.306,24.209,11.989,8.07,14.756,7.608a9.613,9.613,0,0,0,1.614-5.764c-.231-3.228,1.844-15.217,0-15.908,0,0,2.306-.922,2.075-2.306,0,0,32.509,4.611,36.659,3.689s6.917-3.919,7.608-5.764,2.173-9.039,2.173-9.039l-.329-12.172-3.689-4.381-5.533-.692-8.531,5.3Z" transform="translate(-494.485 -300.959)"/><path class="f" d="M909.371,508.909s-3.228,7.378.461,7.378,5.072-6.456,5.072-6.456Z" transform="translate(-658.932 -376.844)"/><path class="g" d="M802.331,187.346l-1.153-1.383s-12.911-29.05-7.839-36.889,27.206-8.992,27.9-8.531,2.767,2.075,2.536,2.536-4.842,1.614-3.228,4.381c0,0-2.306.692-2.767-.231a1.318,1.318,0,0,0-2.306-.231c-.461.922-7.839,3-7.839,3.689s-1.153,4.15-2.306,4.611.231,7.378,2.536,9.222,3.92,6.917,3.92,6.917l-1.153,10.375Z" transform="translate(-576.561 -114.995)"/><path class="e" d="M825.055,165.47a8.313,8.313,0,0,0-3.582,3.012c-1.7,2.892-.615,6.848-1.669,10.1a24.263,24.263,0,0,1-1.945,3.847,7.239,7.239,0,0,0-1.05,4.179c.174,1.434,1.017,2.65,1.415,4.026.686,2.369,0,4.938-.776,7.273q-.636,1.918-1.352,3.8a3.376,3.376,0,0,1-1.246,1.859l5.456.448c1.586.13,3.338.207,4.585-.894a5.29,5.29,0,0,0,1.194-1.707,17.82,17.82,0,0,0,1.289-8.516c-.141-2.911-.6-5.8-.572-8.719a8.863,8.863,0,0,1,.382-2.828,15.965,15.965,0,0,1,1.025-2.074,27.932,27.932,0,0,0,2.253-7.88c.34-1.861.882-4.557-.09-6.306S826.367,164.8,825.055,165.47Z" transform="translate(-592.687 -131.915)"/><circle class="f" cx="9.453" cy="9.453" r="9.453" transform="translate(228.306 35)"/><path class="f" d="M856.005,227.761s1.5,5.879.576,8.876,12.565-4.035,12.565-4.035-4.15-5.533-4.15-7.378Z" transform="translate(-621.935 -175.238)"/><path class="g" d="M843.836,247.512s-3-2.306-3-3.458-2.075-3.689-2.075-3.689-9.914,5.072-10.375,5.072-.692-3-.692-3l-10.606,14.525s-3.458,8.3-2.306,14.756,3,13.142,2.075,19.136.231,8.069,1.614,7.378,0-3,3-2.767,13.142-3,13.833-4.381,3.458,3,3.689,5.533-.461,9.453,0,9.222,1.153-4.15,1.383-5.994.922-7.839,0-8.761a1.882,1.882,0,0,1,.461-2.767c.692-.461,11.989-29.05,11.989-29.05s-1.153-5.995-5.072-8.07S843.836,247.512,843.836,247.512Z" transform="translate(-592.475 -185.998)"/><path class="g" d="M913.144,292.161l3.689,3.919v20.75s4.842,24.9,1.844,26.284-4.38.922-4.38.922.692,12.681-1.383,12.681-5.3-.922-7.147-.461c0,0,.461-4.611,1.844-6.686s1.383-5.764,1.383-5.764-2.075,0-2.075-3a22.181,22.181,0,0,0-.461-5.533c-.231-.692-1.844-12.911-1.844-12.911Z" transform="translate(-656.479 -222.808)"/><path class="e" d="M853.438,160.176c1.6-1.014,3.712-.247,5.565-.62,2.015-.406,3.694-2.164,5.747-2.064,1.708.083,3.056,1.43,4.162,2.734a19.285,19.285,0,0,1,2.652,3.8,23.131,23.131,0,0,1,1.576,4.834l1.363,5.531a27.9,27.9,0,0,0,1.769,5.505,9.361,9.361,0,0,0,3.787,4.259,11.142,11.142,0,0,1-6.37.021,13.064,13.064,0,0,0,3.835,5.363c-1.538.469-3.195,0-4.8.1a6.811,6.811,0,0,0-5.519,3.617c-.838,1.634-.967,3.528-1.467,5.294a13.205,13.205,0,0,1-12.174,9.338c1.537-2.215,3.15-4.786,2.555-7.416-.36-1.589-1.493-2.924-1.829-4.518-.359-1.7.235-3.443.638-5.137s.571-3.639-.479-5.029c-1.114-1.473-3.348-1.96-4.066-3.661a5.22,5.22,0,0,1-.283-1.964l-.046-3.032a6.411,6.411,0,0,1,.16-1.893,6.76,6.76,0,0,1,1.3-2.161,11.528,11.528,0,0,0,2.327-4.182c.464-1.9-.256-3.072-1.18-4.607A3.032,3.032,0,0,1,853.438,160.176Z" transform="translate(-617.697 -127.1)"/><path class="f" d="M887.018,146.335s10.605,9.222,7.839,12.45-7.147-5.995-7.147-5.995l-4.611-3.458Z" transform="translate(-641.189 -119.174)"/><path class="e" d="M671.181,574.251s-12.22,3-13.6,5.533c0,0-1.614,7.839-1.614,11.067s-.692,9.222-7.147,10.375-11.067,3.228-2.306,4.842,11.3,2.075,13.833-1.383a19.616,19.616,0,0,1,3.919-4.38l1.844,4.611h1.153l4.38-9.453s.461-4.611-.692-7.378S671.181,574.251,671.181,574.251Z" transform="translate(-469.619 -423.28)"/><path class="g" d="M885.17,144.027s-.352,3.689-5.364,4.381l-1.092-3.458,3.458-3Z" transform="translate(-638.074 -116.059)"/><circle class="b" cx="24.882" cy="24.882" r="24.882" transform="translate(99.097 119.981)"/><path class="b" d="M300.957,160.456h0A19.507,19.507,0,0,1,276.932,149.9L249.961,89.324a26.119,26.119,0,0,1,15.553-35.387h0A26.119,26.119,0,0,1,299.31,73L313.789,137.7A19.507,19.507,0,0,1,300.957,160.456Z" transform="translate(-189.633 -52.545)"/><circle class="d" cx="24.882" cy="24.882" r="24.882" transform="translate(99.097 119.981)"/><path class="d" d="M300.957,160.456h0A19.507,19.507,0,0,1,276.932,149.9L249.961,89.324a26.119,26.119,0,0,1,15.553-35.387h0A26.119,26.119,0,0,1,299.31,73L313.789,137.7A19.507,19.507,0,0,1,300.957,160.456Z" transform="translate(-189.633 -52.545)"/><circle class="b" cx="19.964" cy="19.964" r="19.964" transform="translate(103.096 122.157)"/><path class="b" d="M303.551,157.634h0a17.9,17.9,0,0,1-22.044-9.688L256.76,92.369A23.965,23.965,0,0,1,271.03,59.9h0A23.965,23.965,0,0,1,302.04,77.387l13.285,59.369a17.9,17.9,0,0,1-11.774,20.877Z" transform="translate(-194.597 -56.862)"/></g></svg>