<svg xmlns="http://www.w3.org/2000/svg" xmlns:xlink="http://www.w3.org/1999/xlink" width="950" height="655.811" viewBox="0 0 950 655.811"><defs><style>.a,.b{fill:#3182ce;}.a,.l,.n{opacity:0.1;}.c{fill:#444053;}.d{fill:#3f3d56;}.e{fill:#fff;}.f{fill:#fa5959;}.f,.g,.h{opacity:0.8;}.g{fill:#fed253;}.h{fill:#8ccf4d;}.i{opacity:0.05;}.j{fill:url(#a);}.k{fill:#fbbebe;}.m{fill:#33313f;}</style><linearGradient id="a" y1="0.5" x2="1" y2="0.5" gradientUnits="objectBoundingBox"><stop offset="0" stop-color="gray" stop-opacity="0.251"/><stop offset="0.54" stop-color="gray" stop-opacity="0.122"/><stop offset="1" stop-color="gray" stop-opacity="0.102"/></linearGradient></defs><g transform="translate(0 0.006)"><path class="a" d="M554.255,136.75c-60.893.081-119.506-17.181-175.569-36.357S266.993,59.744,207.232,50.644C168.8,44.8,125.093,45.333,95.049,66.57,66.13,87,57.756,120.816,53.715,152.057c-3.039,23.5-4.44,48.169,6.941,69.667,7.9,14.924,21.425,27.225,30.956,41.448,33.269,49.48,13.262,112.688-19.07,163.317-15.16,23.755-32.919,46.523-44.381,71.638S12,551.722,23.688,576.511c11.584,24.569,37.75,42.4,65.83,54.58,57.024,24.781,123.416,30.092,188.024,32.137,143.016,4.538,286.309-4.717,429.22-13.971,52.886-3.421,106.008-6.867,157.8-16.781,28.756-5.5,58.368-13.661,78.758-31.551,25.881-22.712,31.176-59.794,12.342-86.448C924.081,469.771,840.8,461.339,818.154,412.967c-12.488-26.63-1.719-57.171,14.142-82.84,34.019-55.077,92.574-104.411,93.56-166.013.676-42.3-29.775-83.573-75.255-101.959C802.929,42.9,737.93,47.85,704.53,83.742,670.185,120.718,608.021,136.693,554.255,136.75Z" transform="translate(-16.91 -47.46)"/><path class="b" d="M1004.9,692S994.892,685.4,984.97,690.1c0,0,3.055,5.882,15.616,5.328Z" transform="translate(-196.36 -166.274)"/><path class="b" d="M1009.49,693.25s3.047,11.6-4.594,19.494c0,0-4.594-4.782,0-16.5Z" transform="translate(-199.676 -167.172)"/><path class="b" d="M1021.041,677.929s-.741-9.865-23.021-6.59c0,0-.106,6.362,7.714,9.376S1017.139,681.187,1021.041,677.929Z" transform="translate(-198.78 -162.987)"/><path class="b" d="M1026.514,679.5s9.417,3.022,1.018,23.918c0,0-6.216-1.385-7.332-9.7S1022.392,682.53,1026.514,679.5Z" transform="translate(-202.851 -164.623)"/><path class="b" d="M1038.542,658.977s1.279-16.236-21.49-14.574c0,0-1.629,14.663,17.474,18.476Z" transform="translate(-202.301 -158.095)"/><path class="b" d="M1056.021,636.648s-3.12-18.4-25.881-12.92c0,0-.082,15.91,22.166,17.3Z" transform="translate(-204.734 -154.095)"/><path class="b" d="M1069.089,613.474s-5.23-17.922-27.779-12.562c0,0,5.368,16.121,26.28,15.869Z" transform="translate(-206.804 -149.87)"/><path class="b" d="M1082.113,590.638s-5.108-18.6-26.883-13.034c0,0,7.266,17.669,25.441,16.179Z" transform="translate(-209.385 -145.542)"/><path class="b" d="M1090.977,568.065s-3.927-22.745-24.227-17.71c0,0,5.9,20.692,22.736,21.026Z" transform="translate(-211.52 -140.548)"/><path class="b" d="M1098.494,542.209s-4.717-22.924-25.254-16.293c0,0,8.048,21.669,23.8,19.429Z" transform="translate(-212.723 -135.93)"/><path class="b" d="M1103.684,516.85s-7.486-22.932-23.364-22.313c0,0,7.649,24.219,22.036,26.883Z" transform="translate(-214.036 -130.334)"/><path class="b" d="M1107.286,492.427s-8.146-27.6-21.066-25.473c0,0,5.637,21.1,20.61,29.775Z" transform="translate(-215.129 -125.201)"/><path class="b" d="M1109.186,464.557s-7.641-23-20.366-23.917c0,0,5.2,22.63,20.113,29.9Z" transform="translate(-215.611 -120.345)"/><path class="b" d="M1111.632,438.283s-9.523-23.021-17.922-23.543c0,0,4.138,22.671,17.107,27.323Z" transform="translate(-216.518 -115.544)"/><path class="b" d="M1113.752,412.958s-5.857-25-14.272-27.078c0,0,1.149,20.455,13.425,28.952Z" transform="translate(-217.587 -110.194)"/><path class="b" d="M1117.947,381.773s-6.159-19.934-12.977-22.973c0,0,1.344,23.5,11.4,27.844Z" transform="translate(-218.605 -105.175)"/><path class="b" d="M1122.964,358l1.238-35.143s-12.749,26.492-2.159,41.31Z" transform="translate(-220.99 -98.512)"/><path class="b" d="M1135.081,316.925s9.181-25.661,11.4-27.095c0,0-18,16.651-16.244,38.068Z" transform="translate(-223.267 -92.39)"/><path class="b" d="M1043.36,662.158s16.146-2.11,15.665,20.708c0,0-14.59,2.379-19.356-16.5Z" transform="translate(-206.5 -161.399)"/><path class="b" d="M1062,639.06s18.655-.057,17.107,23.3c0,0-15.665,2.8-20.83-18.883Z" transform="translate(-209.95 -157.127)"/><path class="b" d="M1075.289,618.066s16.936-7.943,27.771,12.562c0,0-15.641,6.615-29.27-9.246Z" transform="translate(-212.825 -152.954)"/><path class="b" d="M1088.364,593.647s17.344-8.448,27.526,11.576c0,0-18.069,6.224-28.96-8.407Z" transform="translate(-215.261 -148.381)"/><path class="b" d="M1096.046,571.27s16.692-15.942,30.011.179c0,0-17.05,13.124-30.777,3.373Z" transform="translate(-216.809 -143.257)"/><path class="b" d="M1102.943,543.922s16.79-16.293,30,.749c0,0-18.842,13.384-30.605,2.672Z" transform="translate(-218.118 -138.189)"/><path class="b" d="M1106.93,517.38s12.936-20.366,28.17-15.82c0,0-13.425,21.563-28.023,20.6Z" transform="translate(-218.968 -131.515)"/><path class="b" d="M1111.534,493.152s13.034-25.645,25.367-21.18c0,0-9.4,19.714-25.7,25.506Z" transform="translate(-219.76 -126.057)"/><path class="b" d="M1112.423,464.281s13.4-20.187,25.954-17.718c0,0-10.957,20.472-27.257,23.559Z" transform="translate(-219.745 -121.404)"/><path class="b" d="M1114,437.9s10.386-22.655,18.826-22.81c0,0-4.986,22.492-18.126,26.655Z" transform="translate(-220.279 -115.609)"/><path class="b" d="M1116.5,413.289s11.543-22.94,20.219-22.989c0,0-5.906,19.616-19.836,25Z" transform="translate(-220.742 -111.014)"/><path class="b" d="M1118.63,383.951s8.635-18.981,15.787-21.131c0,0-4.318,23.135-14.834,26.166Z" transform="translate(-221.137 -105.92)"/><path class="b" d="M1124.749,358.46l19.3-29.4s-4.945,29-22.117,35.029Z" transform="translate(-221.749 -99.662)"/><path class="b" d="M1139.524,321.909s22.427-15.478,23.241-17.979c0,0-11.4,21.677-32.585,25.506Z" transform="translate(-223.278 -95.003)"/><path class="b" d="M1143.159,311.822s25.75-24.757,32.324-24.732c0,0-21.237.969-32.944,23.412Z" transform="translate(-225.569 -91.882)"/><path class="c" d="M1118.94,378.752l.937.122c4.839-37.872,11.894-60.283,19.861-63.028l-.31-.9C1130.98,317.883,1123.877,339.951,1118.94,378.752Z" transform="translate(-221.195 -97.046)"/><path class="c" d="M1110.2,483.2l1.417.114c.3-3.536.529-7.152.684-10.761,1.352-31.347,3.446-60.136,6.2-81.715l-.815-1.018c-2.761,21.628-5.45,51.281-6.8,82.677C1110.729,476.081,1110.5,479.682,1110.2,483.2Z" transform="translate(-219.575 -110.925)"/><path class="c" d="M976.826,675.355c.244-.106,25.2-11.25,51.094-37.823a205.469,205.469,0,0,0,37.351-52.951c11.975-24.382,19.274-54.344,21.718-83.451l-1.474.692c-5.5,65.333-35.241,109.975-58.89,134.292-25.645,26.337-50.32,37.367-50.564,37.473Z" transform="translate(-194.709 -131.559)"/><path class="d" d="M876.6,132.69H93.843a6.973,6.973,0,0,0-6.973,6.973V159.98H883.577V139.663A6.973,6.973,0,0,0,876.6,132.69Z" transform="translate(-29.879 -63.26)"/><path class="e" d="M86.87,166.19v457.2a14.061,14.061,0,0,0,14.06,14.061H869.516a14.06,14.06,0,0,0,14.06-14.06V166.19Z" transform="translate(-29.879 -69.47)"/><circle class="f" cx="3.259" cy="3.259" r="3.259" transform="translate(66.352 79.613)"/><circle class="g" cx="3.259" cy="3.259" r="3.259" transform="translate(75.312 79.613)"/><circle class="h" cx="3.259" cy="3.259" r="3.259" transform="translate(84.273 79.613)"/><rect class="i" width="640.298" height="281.552" transform="translate(131.049 172.953)"/><rect class="d" width="630.523" height="275.345" transform="translate(135.937 175.087)"/><path class="b" d="M380.506,349.38a62.726,62.726,0,1,0,62.726,62.726A62.726,62.726,0,0,0,380.506,349.38Zm11.25,64.233v29.7H369.582v-29.7a18.37,18.37,0,1,1,22.174,0Z" transform="translate(-72.683 -103.428)"/><path class="i" d="M380.506,349.38a62.726,62.726,0,1,0,62.726,62.726A62.726,62.726,0,0,0,380.506,349.38Zm11.25,64.233v29.7H369.582v-29.7a18.37,18.37,0,1,1,22.174,0Z" transform="translate(-72.683 -103.428)"/><path class="b" d="M376.428,327.38a80.648,80.648,0,1,0,80.648,80.648,80.648,80.648,0,0,0-80.648-80.648Zm14.46,82.587v38.182H362.376V409.967a23.624,23.624,0,1,1,28.512,0Z" transform="translate(-68.604 -99.35)"/><rect class="e" width="260.681" height="27.697" transform="translate(421.872 298.096)"/><rect class="b" width="56.209" height="27.697" transform="translate(626.344 348.603)"/><path class="b" d="M563.592,428.582h-4.717l4.2-4.187a.416.416,0,0,0,0-.578.407.407,0,0,0-.578,0l-4.2,4.2v-4.725a.407.407,0,0,0-.407-.407.415.415,0,0,0-.407.407v4.725l-4.187-4.22a.407.407,0,0,0-.578,0,.415.415,0,0,0,0,.578l4.2,4.187h-4.725a.415.415,0,0,0-.407.407.407.407,0,0,0,.407.407h4.725l-4.2,4.2a.415.415,0,0,0,0,.578.424.424,0,0,0,.578,0l4.187-4.2v4.717a.407.407,0,1,0,.815,0v-4.717l4.2,4.2a.424.424,0,0,0,.578,0,.416.416,0,0,0,0-.578l-4.2-4.2h4.717a.4.4,0,1,0,0-.79Z" transform="translate(-116.06 -117.053)"/><path class="b" d="M584.592,428.582h-4.717l4.2-4.187a.416.416,0,0,0,0-.578.407.407,0,0,0-.578,0l-4.2,4.2v-4.725a.407.407,0,0,0-.407-.407.415.415,0,0,0-.407.407v4.725l-4.187-4.22a.407.407,0,0,0-.578,0,.415.415,0,0,0,0,.578l4.2,4.187h-4.725a.415.415,0,0,0-.407.407.407.407,0,0,0,.407.407h4.725l-4.2,4.2a.415.415,0,0,0,0,.578.424.424,0,0,0,.578,0l4.187-4.2v4.717a.407.407,0,0,0,.815,0v-4.717l4.2,4.2a.424.424,0,0,0,.578,0,.416.416,0,0,0,0-.578l-4.2-4.2h4.717a.4.4,0,1,0,0-.79Z" transform="translate(-119.952 -117.053)"/><path class="b" d="M605.592,428.582h-4.717l4.2-4.187a.416.416,0,0,0,0-.578.407.407,0,0,0-.578,0l-4.2,4.2v-4.725a.407.407,0,0,0-.407-.407.415.415,0,0,0-.407.407v4.725l-4.187-4.22a.407.407,0,0,0-.578,0,.415.415,0,0,0,0,.578l4.2,4.187h-4.725a.415.415,0,0,0-.407.407.407.407,0,0,0,.407.407h4.725l-4.2,4.2a.415.415,0,0,0,0,.578.424.424,0,0,0,.578,0l4.187-4.2v4.717a.407.407,0,0,0,.815,0v-4.717l4.2,4.2a.424.424,0,0,0,.578,0,.416.416,0,0,0,0-.578l-4.2-4.2h4.717a.4.4,0,1,0,0-.79Z" transform="translate(-123.845 -117.053)"/><path class="b" d="M626.592,428.582h-4.717l4.2-4.187a.416.416,0,0,0,0-.578.407.407,0,0,0-.578,0l-4.2,4.2v-4.725a.407.407,0,0,0-.407-.407.415.415,0,0,0-.407.407v4.725l-4.187-4.22a.407.407,0,0,0-.578,0,.415.415,0,0,0,0,.578l4.2,4.187h-4.725a.415.415,0,0,0-.407.407.407.407,0,0,0,.407.407h4.725l-4.2,4.2a.415.415,0,0,0,0,.578.424.424,0,0,0,.578,0l4.187-4.2v4.717a.407.407,0,1,0,.815,0v-4.717l4.2,4.2a.424.424,0,0,0,.578,0,.415.415,0,0,0,0-.578l-4.2-4.2h4.717a.4.4,0,1,0,0-.79Z" transform="translate(-127.738 -117.053)"/><path class="b" d="M647.592,428.582h-4.717l4.2-4.187a.416.416,0,0,0,0-.578.407.407,0,0,0-.578,0l-4.2,4.2v-4.725a.407.407,0,0,0-.407-.407.415.415,0,0,0-.407.407v4.725l-4.187-4.22a.407.407,0,0,0-.578,0,.415.415,0,0,0,0,.578l4.2,4.187h-4.725a.415.415,0,0,0-.407.407.407.407,0,0,0,.407.407h4.725l-4.2,4.2a.415.415,0,0,0,0,.578.424.424,0,0,0,.578,0l4.187-4.2v4.717a.407.407,0,1,0,.815,0v-4.717l4.2,4.2a.424.424,0,0,0,.578,0,.416.416,0,0,0,0-.578l-4.2-4.2h4.717a.4.4,0,1,0,0-.79Z" transform="translate(-131.631 -117.053)"/><path class="b" d="M668.592,428.582h-4.717l4.2-4.187a.416.416,0,0,0,0-.578.407.407,0,0,0-.578,0l-4.2,4.2v-4.725a.407.407,0,0,0-.407-.407.415.415,0,0,0-.407.407v4.725l-4.187-4.22a.407.407,0,0,0-.578,0,.415.415,0,0,0,0,.578l4.2,4.187h-4.725a.415.415,0,0,0-.407.407.407.407,0,0,0,.407.407h4.725l-4.2,4.2a.415.415,0,0,0,0,.578.423.423,0,0,0,.578,0l4.187-4.2v4.717a.407.407,0,1,0,.815,0v-4.717l4.2,4.2a.424.424,0,0,0,.578,0,.416.416,0,0,0,0-.578l-4.2-4.2h4.717a.4.4,0,1,0,0-.79Z" transform="translate(-135.524 -117.053)"/><path class="b" d="M689.592,428.582h-4.717l4.2-4.187a.416.416,0,0,0,0-.578.407.407,0,0,0-.578,0l-4.2,4.2v-4.725a.407.407,0,0,0-.407-.407.415.415,0,0,0-.407.407v4.725l-4.187-4.22a.407.407,0,0,0-.578,0,.415.415,0,0,0,0,.578l4.2,4.187h-4.725a.415.415,0,0,0-.407.407.407.407,0,0,0,.407.407h4.725l-4.2,4.2a.415.415,0,0,0,0,.578.424.424,0,0,0,.578,0l4.187-4.2v4.717a.407.407,0,1,0,.815,0v-4.717l4.2,4.2a.424.424,0,0,0,.578,0,.416.416,0,0,0,0-.578l-4.2-4.2h4.717a.4.4,0,1,0,0-.79Z" transform="translate(-139.416 -117.053)"/><path class="b" d="M710.592,428.582h-4.717l4.2-4.187a.416.416,0,0,0,0-.578.407.407,0,0,0-.578,0l-4.2,4.2v-4.725a.407.407,0,0,0-.407-.407.415.415,0,0,0-.407.407v4.725l-4.187-4.22a.407.407,0,0,0-.578,0,.415.415,0,0,0,0,.578l4.2,4.187h-4.725a.415.415,0,0,0-.407.407.407.407,0,0,0,.407.407h4.725l-4.2,4.2a.415.415,0,0,0,0,.578.423.423,0,0,0,.578,0l4.187-4.2v4.717a.407.407,0,1,0,.815,0v-4.717l4.2,4.2a.424.424,0,0,0,.578,0,.416.416,0,0,0,0-.578l-4.2-4.2h4.717a.4.4,0,1,0,0-.79Z" transform="translate(-143.309 -117.053)"/><path class="b" d="M731.592,428.582h-4.717l4.2-4.187a.416.416,0,0,0,0-.578.407.407,0,0,0-.578,0l-4.2,4.2v-4.725a.407.407,0,0,0-.407-.407.415.415,0,0,0-.407.407v4.725l-4.187-4.22a.407.407,0,0,0-.578,0,.415.415,0,0,0,0,.578l4.2,4.187h-4.725a.415.415,0,0,0-.407.407.407.407,0,0,0,.407.407h4.725l-4.2,4.2a.415.415,0,0,0,0,.578.424.424,0,0,0,.578,0l4.187-4.2v4.717a.407.407,0,1,0,.815,0v-4.717l4.2,4.2a.424.424,0,0,0,.578,0,.416.416,0,0,0,0-.578l-4.2-4.2h4.717a.4.4,0,1,0,0-.79Z" transform="translate(-147.202 -117.053)"/><path class="b" d="M752.592,428.582h-4.717l4.2-4.187a.415.415,0,0,0,0-.578.407.407,0,0,0-.578,0l-4.2,4.2v-4.725a.407.407,0,0,0-.407-.407.415.415,0,0,0-.407.407v4.725l-4.187-4.22a.407.407,0,0,0-.578,0,.415.415,0,0,0,0,.578l4.2,4.187h-4.725a.415.415,0,0,0-.407.407.407.407,0,0,0,.407.407h4.725l-4.2,4.2a.415.415,0,0,0,0,.578.424.424,0,0,0,.578,0l4.187-4.2v4.717a.407.407,0,1,0,.815,0v-4.717l4.2,4.2a.424.424,0,0,0,.578,0,.415.415,0,0,0,0-.578l-4.2-4.2h4.717a.4.4,0,1,0,0-.79Z" transform="translate(-151.095 -117.053)"/><path class="b" d="M773.592,428.582h-4.717l4.2-4.187a.415.415,0,0,0,0-.578.407.407,0,0,0-.578,0l-4.2,4.2v-4.725a.407.407,0,0,0-.407-.407.415.415,0,0,0-.407.407v4.725l-4.187-4.22a.407.407,0,0,0-.578,0,.415.415,0,0,0,0,.578l4.2,4.187h-4.725a.415.415,0,0,0-.407.407.407.407,0,0,0,.407.407h4.725l-4.2,4.2a.415.415,0,0,0,0,.578.424.424,0,0,0,.578,0l4.187-4.2v4.717a.407.407,0,1,0,.815,0v-4.717l4.2,4.2a.424.424,0,0,0,.578,0,.415.415,0,0,0,0-.578l-4.2-4.2h4.717a.4.4,0,1,0,0-.79Z" transform="translate(-154.988 -117.053)"/><path class="j" d="M909.126,535.926a14.576,14.576,0,0,0-.366-2.924c-.733-2.754-2.387-6.085-5.108-6.916a42.884,42.884,0,0,1-8.1-3.421c-.489-8.733,1.515-17.669-.668-26.133-.815-3.1-2.159-6.061-2.517-9.23-.448-3.943.627-8.146-.945-11.779a11.626,11.626,0,0,0-6.884-5.947,36.679,36.679,0,0,0-9.181-1.629c-3.91-.318-16.57-1.817-20.985,1.678h0a4.609,4.609,0,0,0-.815.815h0a3.244,3.244,0,0,0-.261.424l-.041.065a3.306,3.306,0,0,0-.22.529h0a4.12,4.12,0,0,0-.138.611v1.466c.057.733.163,1.466.163,2.191a4.723,4.723,0,0,1-.1,1.075,7.529,7.529,0,0,1-1.352,2.639h0l-.147.212c-.09.13-.179.253-.261.383s-.147.228-.212.342-.13.187-.187.293a3.98,3.98,0,0,0-.212.415c0,.081-.09.155-.122.236a4.009,4.009,0,0,0-.244.684,4.545,4.545,0,0,0-.049,2.167,8.068,8.068,0,0,0,1.116,2.566c.2.334.424.66.652.986l.57.774a17.565,17.565,0,0,0-.171,2.281,16.853,16.853,0,0,0,6.433,13.244,49.9,49.9,0,0,1-.1,10.339c-.073.717-.163,1.442-.261,2.159s-.171,1.189-.269,1.784a8.27,8.27,0,0,1-3.56-.269,16.783,16.783,0,0,0-1.629-.627c-2.371-.595-4.79,1.768-7.136,1.051a.956.956,0,0,1-.106.326,3.193,3.193,0,0,0-1.629-.481c-1.393-.065-2.525-1.075-3.536-2.028l-3.1-2.925a3.428,3.428,0,0,1-.538-.6,4.231,4.231,0,0,1-.375-1,11.545,11.545,0,0,0-3.006-4.309,2.036,2.036,0,0,0-.888-.643,1.37,1.37,0,0,0-.407,0,3.571,3.571,0,0,0-.269-.326,7.667,7.667,0,0,0-.676-.684c-1.483-1.369-1.629-2.542-2.917-4.073a39.149,39.149,0,0,1-3.047-4.6c-.106-.855-.252-1.735-.432-2.623a33.757,33.757,0,0,0-1.784-5.947l-1.629-3.609-.187.187c-1.181-1.76-2.444-2.721-3.576-2.493-1.9.391-2.835,4.073-2.533,8.888l.652,4.888a1.506,1.506,0,0,0,.09.367,9.019,9.019,0,0,0-.179,1.76c0,.684.635,1.189.969,1.8a5.092,5.092,0,0,1,.815,2.778c-.041.35-.147.684-.163,1.026a3.95,3.95,0,0,0,.766,2.118l4.073,6.843.815,1.434.049.065a3.477,3.477,0,0,0,1.092,1.255,14.919,14.919,0,0,0,1.344,4.945c.138.31.293.6.456.9a28.816,28.816,0,0,0,3.845,4.994l1.939,2.175c1.914,2.134,3.829,4.277,5.906,6.248a7.911,7.911,0,0,0,2.639,1.849,2.99,2.99,0,0,0,2.965-.432q0,1.515,0,3.03a1.7,1.7,0,0,1,1.287,2.68,67.188,67.188,0,0,1-6.028,12.757,27.157,27.157,0,0,1,5.051,3.853,22.7,22.7,0,0,1,2.631,3.56c.073.6.13,1.2.163,1.792.6,9.71-3.153,19.348-6.517,28.6-.969,2.623-2.028,5.368-1.947,8.1a15.9,15.9,0,0,0-1.825,1.312c.668,1.743.407,3.3.334,5.165a9.152,9.152,0,0,1-.676,3.259,22.887,22.887,0,0,1-1.173,2.094c-2.11,3.723-2.574,8.146-3,12.4-.253,2.566.741,5.7-.424,8-2.012,3.943-3.8,8.146-4.073,12.529a12.561,12.561,0,0,1-.375,2.925c-.253.815-.7,1.507-.929,2.305a9.862,9.862,0,0,0-.163,3.258,31.186,31.186,0,0,1-1.711,11.494c-1.018,2.908-2.143,6.02-1.344,9.01a12.7,12.7,0,0,0-3.446,7.568,11.949,11.949,0,0,1-.261,2.159,10.5,10.5,0,0,1-.978,2.077,18.183,18.183,0,0,0-2.216,9.776,27.192,27.192,0,0,0-4.391,11.47c-.725,4.065-1.043,8.2-1.971,12.219-1.238,5.311-3.479,10.68-3.918,16.121-2.639,1.686-3.78,4.953-4.285,8.04s-.586,6.33-1.882,9.181c-.668,1.483-1.629,2.81-2.265,4.326a19.862,19.862,0,0,0-.978,3.723,14.526,14.526,0,0,0-.253,6.11,9.209,9.209,0,0,1-2.387,1.817c.13-.505.236-1.01.326-1.523-2.1,1.906-5.914,1.238-7.592,3.527a3.438,3.438,0,0,0,.815,4.717,6.519,6.519,0,0,0,1.686.725c4.073,1.3,8.26,2.615,12.448,1.923a3.716,3.716,0,0,0,1.409-.448,4.534,4.534,0,0,0,1.312-1.515q.941-1.491,1.874-2.982a38.7,38.7,0,0,0,4.57,1.067c.155,1.3.269,2.607.326,3.91.815.163,1.906.212,2.289-.546a1.981,1.981,0,0,0,.138-.9c0-.578.081-1.344.13-2.126h.163a15.476,15.476,0,0,0,7.209-1.458c-.872-7.218,2-14.272,4.5-21.1,2.631-7.185,4.888-14.5,7.161-21.816,1.629-5.148,3.43-10.134,5.026-15.291q3.014-9.776,6.053-19.551c.88-2.867,1.768-5.7,2.778-8.554a133.268,133.268,0,0,1,7.552-16.806c.815-1.54,1.629-3.063,2.3-4.66.814-1.947,1.393-3.984,2.045-6a92.877,92.877,0,0,1,5.116-12.04c.057-.106.1-.2.155-.3.66,2.7,1.32,5.434,1.76,8.146a30.956,30.956,0,0,1,.138,10.069c-.391,2.273-1.132,4.521-1.043,6.827.122,3.185,1.825,6.077,2.664,9.148a34.816,34.816,0,0,1,.912,7.006c.228,3.666,2.216,7.78.815,11.177-4.358,10.761-2.248,22.916-4.733,34.214-1.279,5.8-5.2,11.25-4.888,17.181q.326,6.313,1.108,12.594a11.988,11.988,0,0,0,1.019,3.821,14.042,14.042,0,0,0,1.116,1.825c-.358.138-.66.505-.921,1.279a5.026,5.026,0,0,0,1.808,5.7,7.919,7.919,0,0,0,2.354.815,12.4,12.4,0,0,0,3.405.472,7.931,7.931,0,0,0,1.067-.13,38.841,38.841,0,0,0,3.853,1.385,8.354,8.354,0,0,0,.106,1,1.247,1.247,0,0,0,.424.92,1.27,1.27,0,0,0,.652.114h4.423V779.94a3.642,3.642,0,0,0,2.81-.912,4.351,4.351,0,0,0,.815-1.694q1.808-6.134,3.592-12.276a39.242,39.242,0,0,0,1.751-14.012c-1.572-15.014,1.882-30.076.758-45.13a108.1,108.1,0,0,1,1.385-27.078c.367-2.02.815-4.073.978-6.085.359-3.8-.081-7.633.187-11.4.09-1.32.269-2.631.432-3.943a189.327,189.327,0,0,0,1.751-24.561,77.381,77.381,0,0,0-.505-8.146,4.651,4.651,0,0,0,2.224-1.3c.725-.945.538-2.273.53-3.479,0-2.884,1.214-5.6,2.191-8.326a98.929,98.929,0,0,0,3.079-11.454,39.991,39.991,0,0,0,1.369-9.572q0-.489-.049-.978a2.523,2.523,0,0,0,.75-.815,4.733,4.733,0,0,0,.391-1.507c.293-2.077.595-4.163.888-6.248q.326-2.24.644-4.472l2.59-18.077c.22-1.572.448-3.136.668-4.7l.676-4.676c.073-.554.155-1.108.212-1.629C911.236,544.138,909.338,539.706,909.126,535.926Zm-21.612,67.679c-.961-2.281-1.857-4.619-1.629-7.079h-.09a3.633,3.633,0,0,0-.106-2.3c-.253-.595-.692-1.1-.961-1.695a6.206,6.206,0,0,1-.44-2.281,62.181,62.181,0,0,1,1.165-14.777c.106-.57.22-1.149.326-1.719a4.258,4.258,0,0,0,.929-.725,6.606,6.606,0,0,0,1.051-1.629c.921-1.849,1.76-3.731,2.533-5.645.253-.619.619-1.336,1.247-1.491-.13,4.766.358,9.629-1.58,13.93a8.81,8.81,0,0,0-.815,2.2c-.179,1.214.326,2.444.147,3.65-.09.627-.358,1.206-.464,1.825a1.784,1.784,0,0,0,.473,1.727,1.424,1.424,0,0,0,.35.179c-.049.326-.09.66-.122.978-.065.668-.1,1.3-.138,1.686a52.6,52.6,0,0,0-.22,6c0,2.159.081,4.318.049,6.517a4.425,4.425,0,0,1-.309,1.849,3.21,3.21,0,0,1-.619.815,21.128,21.128,0,0,0-.774-2.012Z" transform="translate(-159.374 -125.297)"/><ellipse class="k" cx="4.595" cy="13.01" rx="4.595" ry="13.01" transform="matrix(0.98, -0.201, 0.201, 0.98, 654.115, 359.218)"/><path class="d" d="M878.342,839.186a4.932,4.932,0,0,0,1.808,5.645,8.055,8.055,0,0,0,2.338.815,12.331,12.331,0,0,0,3.4.464c1.409-.065,2.762-.619,4.171-.815a.653.653,0,0,1,.481.065.693.693,0,0,1,.179.57,21.565,21.565,0,0,0,.179,2.4,1.231,1.231,0,0,0,.424.921,1.273,1.273,0,0,0,.652.114h4.415a43.055,43.055,0,0,0-1.263-11.519,2.571,2.571,0,0,0-.326-.815,2.7,2.7,0,0,0-1.409-.815,7.878,7.878,0,0,0-3.413-.595,10,10,0,0,0-3.829,1.874,5.833,5.833,0,0,1-4.342,1.051C880.33,838.151,879.1,836.921,878.342,839.186Z" transform="translate(-176.548 -193.561)"/><path class="k" d="M797.576,835.229a12.219,12.219,0,0,1-4.456,3.03l-.75.358a.52.52,0,0,0-.252.2.439.439,0,0,0,.081.367,5.271,5.271,0,0,0,5.979,2.175,3.169,3.169,0,0,0,1.312-.684,4.3,4.3,0,0,0,1.01-2.623,5.369,5.369,0,0,0-.122-3.006C799.246,832.5,798.83,833.657,797.576,835.229Z" transform="translate(-160.609 -193.18)"/><path class="d" d="M813.368,845.372a1.981,1.981,0,0,1-.138.9c-.383.749-1.45.709-2.281.546a54.83,54.83,0,0,0-1-8.228c-1.58-.073-2.721,1.426-3.568,2.77l-2.183,3.462a4.515,4.515,0,0,1-1.3,1.515,3.864,3.864,0,0,1-1.409.448c-4.171.692-8.383-.619-12.407-1.923a6.569,6.569,0,0,1-1.686-.717,3.446,3.446,0,0,1-.815-4.708c1.686-2.281,5.474-1.629,7.576-3.519a18.968,18.968,0,0,1-1.075,3.886c2.81-.424,4.7-3,6.965-4.717a4.286,4.286,0,0,1,1.988-.945,4.376,4.376,0,0,1,1.629.171,19.114,19.114,0,0,1,7.169,3.527c.855.676,2.191,1.629,2.566,2.672C813.792,841.763,813.368,844.044,813.368,845.372Z" transform="translate(-159.474 -193.287)"/><circle class="k" cx="16.83" cy="16.83" r="16.83" transform="translate(693.102 349.646)"/><path class="d" d="M925.119,618.1a39.917,39.917,0,0,1-1.36,9.523,98.253,98.253,0,0,1-3.079,11.4c-.969,2.713-2.183,5.433-2.175,8.309,0,1.2.2,2.525-.538,3.47a5.067,5.067,0,0,1-2.379,1.36,2.974,2.974,0,0,0-2,1.784,12.585,12.585,0,0,1-1.694-3.731q-2.191-6.712-4.073-13.5a1.751,1.751,0,0,1,.114-1.629,2.019,2.019,0,0,1,.709-.4,7.333,7.333,0,0,0,2.257-1.45,3.3,3.3,0,0,0,.75-.969,4.392,4.392,0,0,0,.318-1.841c0-2.159,0-4.309-.057-6.468a54.051,54.051,0,0,1,.228-5.971c0-.391.073-1.018.139-1.686.122-1.279.367-2.762,1.059-3.259,1.035-.692,4.13.236,5.3.4,2.02.277,4.073.6,6.045.986A16.136,16.136,0,0,1,925.119,618.1Z" transform="translate(-182.031 -152.259)"/><path class="d" d="M841.476,516.623c-.652,1.3-2.216,1.931-3.421,2.753l-4.13,2.835a2.753,2.753,0,0,1-2.045.7,2.688,2.688,0,0,1-1.523-1.425.287.287,0,0,0,0-.065l-.855-1.434-4.073-6.827a3.886,3.886,0,0,1-.758-2.1c0-.35.122-.676.155-1.026a4.928,4.928,0,0,0-.815-2.77c-.326-.611-.978-1.116-.961-1.8a6.516,6.516,0,0,1,.456-2.631,5.328,5.328,0,0,1,1.784-1.906c.383-.277.774-.538,1.181-.815a2.328,2.328,0,0,1,.709-.326c.676-.138,1.344.424,2.028.448,2.941,1.971,4.073,5.7,6.387,8.391,1.3,1.531,1.434,2.7,2.908,4.073.236.212.464.44.684.676a4.732,4.732,0,0,1,.733,1.059C840.189,515.133,841.81,515.955,841.476,516.623Z" transform="translate(-166.344 -131.305)"/><path class="k" d="M879.4,515.182a15.165,15.165,0,0,1,1.808,8.2,5.124,5.124,0,0,1-.709,2.159c-1.173,1.8-3.633,2.126-5.776,2.232a3.405,3.405,0,0,0-2.509.815,2.281,2.281,0,0,0,.155,2.786,6.287,6.287,0,0,0,2.493,1.629c3.389,1.491,7.047,2.721,10.729,2.379,1.711-.163,3.373-.66,5.075-.912a53.286,53.286,0,0,1,5.588-.31c2.216-.082,4.423-.3,6.631-.521l5.849-.578a1.3,1.3,0,0,0,.872-.318c.432-.505-.122-1.246-.66-1.629-3.1-2.3-7.055-3.878-8.822-7.332a43.1,43.1,0,0,1-1.67-5.328,44.709,44.709,0,0,1-1.939-5.14,34.048,34.048,0,0,1-.269-4.741,6.362,6.362,0,0,0-1.629-4.334,6.792,6.792,0,0,0-4.432-1.426c-3.894-.171-8.04.758-10.8,3.5-.741.741-1.377,1.629-2.142,2.3s-1.808.863-1.3,1.743,1.5,1.426,2.037,2.2a18.755,18.755,0,0,1,1.426,2.623Z" transform="translate(-175.385 -131.867)"/><path class="d" d="M908.57,542.325a92.562,92.562,0,0,1-4.986,18.354,69.139,69.139,0,0,0-2.933,8.228c-.627,2.525-.505,5.23-1.083,7.763-.717,3.153-1.434,6.313-2.012,9.49A62.226,62.226,0,0,0,896.4,600.9a6.166,6.166,0,0,0,.44,2.273c.269.587.7,1.092.953,1.694a4.072,4.072,0,0,1-.228,3.259,9.437,9.437,0,0,1-1.678,2.542c-7.592,2.265-15.714,1.523-23.624,2-7.291.44-14.663,1.939-21.848.692-.815-3.258.546-6.672,1.711-9.849,3.381-9.23,7.12-18.842,6.517-28.512a29.552,29.552,0,0,0-.383-3.364c-1.181-6.851.106-13.946,2.167-20.586,1.279-4.138,1.222-8.545.929-12.855a23.46,23.46,0,0,1-.057-4.212,7.4,7.4,0,0,1,1.531-3.935c0-.057.073-.114.114-.171a1.118,1.118,0,0,1,.611,0h0a.522.522,0,0,0,.407,0l.09-.057a.2.2,0,0,1,.236,0c.187.114.293.505.7.578a16.219,16.219,0,0,0,1.817.171,9.781,9.781,0,0,1,2.167.31h.1a6.363,6.363,0,0,0,3.161-.269,8.4,8.4,0,0,0,1.939-.749c.179-.2,1.3-.375,1.531-.513.741-.448.578-2.55.733-3.413a9.388,9.388,0,0,1,.611-2.525,4.3,4.3,0,0,1,3.487-2.028,18.559,18.559,0,0,1,4.179.375c3.039.432,6.151.358,9.132,1.059,1.5.35,3.136.88,4.513.2.375.09.432.416.432.815a5.221,5.221,0,0,1-.228,1.116c-.521,2.248,1.246,4.318,2.876,5.947a9.22,9.22,0,0,0,2.4,1.914c.815.375,1.629.529,2.444.937a4.446,4.446,0,0,1,1.629,1.491,6.225,6.225,0,0,1,.929,2.371,14.179,14.179,0,0,1-.269,4.717Z" transform="translate(-171.372 -135.313)"/><path class="l" d="M910.315,544.237a92.554,92.554,0,0,1-4.986,18.354,69.142,69.142,0,0,0-2.933,8.228c-.627,2.525-.505,5.23-1.083,7.763-.717,3.153-1.434,6.313-2.012,9.49-.171.1-.35.187-.53.269a12.5,12.5,0,0,1-3.193,1.026,19.55,19.55,0,0,1-5.963-.2l-11.625-1.556c-4.643-.627-9.588-1.385-13.034-4.529a27.811,27.811,0,0,1-4.546-6.207,29.553,29.553,0,0,0-.383-3.364c-1.181-6.851.106-13.946,2.167-20.586,1.279-4.138,1.222-8.545.929-12.855a23.477,23.477,0,0,1-.057-4.212,7.405,7.405,0,0,1,1.532-3.935,5.8,5.8,0,0,1,.725-.163h0a3.6,3.6,0,0,1,.5-.065h.236a3.553,3.553,0,0,1,.815.1,14.758,14.758,0,0,1,1.629.627h.1a6.238,6.238,0,0,0,2.167.31c1.075,0,2.183-.171,3.259-.244a6.012,6.012,0,0,1,3.861.693,23.156,23.156,0,0,1,2.151,1.963,9.237,9.237,0,0,0,2.713,1.474,28.829,28.829,0,0,0,21.685-.456,4.244,4.244,0,0,1,2.175-.554,4.076,4.076,0,0,1,1.564.668c.489.285.969.562,1.466.815a6.223,6.223,0,0,1,.929,2.371A14.175,14.175,0,0,1,910.315,544.237Z" transform="translate(-173.116 -137.225)"/><path class="b" d="M915.809,538.489a43.475,43.475,0,0,1-9.287-4.073,4.163,4.163,0,0,0-1.564-.668,4.374,4.374,0,0,0-2.183.554,28.814,28.814,0,0,1-21.677.456,9.424,9.424,0,0,1-2.713-1.475,24.35,24.35,0,0,0-2.151-1.963c-2.68-1.735-6.387.3-9.385-.815a16.584,16.584,0,0,0-1.629-.627c-2.371-.595-4.782,1.768-7.112,1.051a39.64,39.64,0,0,0-1.914,7.266,79.211,79.211,0,0,0-.529,8.57c0,1.719-.082,3.438,0,5.157a1.691,1.691,0,0,1,1.287,2.672,66.787,66.787,0,0,1-6.012,12.716,27.632,27.632,0,0,1,5.034,3.845c2.851,3.014,4.252,7.242,7.332,10.028,3.47,3.136,8.415,3.9,13.034,4.521l11.625,1.556a19.871,19.871,0,0,0,5.971.2,12.565,12.565,0,0,0,3.185-1.035,5.7,5.7,0,0,0,1.776-1.173,6.518,6.518,0,0,0,1.051-1.629c.921-1.841,1.76-3.723,2.533-5.629.269-.676.676-1.466,1.409-1.523,4.318-3.894,8.391-7.886,12.708-11.78a28.157,28.157,0,0,0,4.635-4.888c2.143-3.169.2-7.657,0-11.486a14.5,14.5,0,0,0-.367-2.908C920.167,542.635,918.522,539.311,915.809,538.489Z" transform="translate(-171.515 -136.87)"/><path class="l" d="M843.138,519.686c-.652,1.3-2.216,1.931-3.422,2.753l-4.13,2.835a2.753,2.753,0,0,1-2.045.7,2.688,2.688,0,0,1-1.523-1.425v-.587a5.461,5.461,0,0,1,.261-1.947,6.067,6.067,0,0,1,1.825-2.346,14.94,14.94,0,0,1,5.352-3.258,1.833,1.833,0,0,1,.978-.1,1.289,1.289,0,0,1,.358.155,4.729,4.729,0,0,1,.733,1.059C841.851,518.2,843.472,519.018,843.138,519.686Z" transform="translate(-168.007 -134.368)"/><path class="b" d="M853.095,528.393c-1.385-.065-2.517-1.067-3.527-2.02L846.48,523.5a2.885,2.885,0,0,1-.538-.6,4.226,4.226,0,0,1-.375-1,11.5,11.5,0,0,0-3-4.3,1.955,1.955,0,0,0-.888-.635,1.785,1.785,0,0,0-.986.1,14.9,14.9,0,0,0-5.352,3.258,6.086,6.086,0,0,0-1.825,2.346,5.417,5.417,0,0,0-.261,1.947,14.959,14.959,0,0,0,1.418,6.224c.138.3.293.6.456.9a28.208,28.208,0,0,0,3.829,4.977l1.939,2.167c1.906,2.134,3.812,4.269,5.882,6.232a7.771,7.771,0,0,0,2.639,1.841,2.949,2.949,0,0,0,3.03-.489,4.384,4.384,0,0,0,.864-1.548c1.255-3.258,2.444-6.647,2.517-10.158a38.368,38.368,0,0,0-.179-4.212C855.53,529.06,854.48,528.482,853.095,528.393Z" transform="translate(-168.236 -134.488)"/><path class="m" d="M895.958,662.458a188.234,188.234,0,0,1-1.743,24.5c-.163,1.312-.342,2.623-.432,3.935-.269,3.8.171,7.625-.187,11.4-.187,2.045-.611,4.073-.969,6.069a107.924,107.924,0,0,0-1.385,27c1.124,15.014-2.322,30.035-.757,45.008a36.39,36.39,0,0,1-.481,8.708,36.914,36.914,0,0,1-1.263,5.263q-1.784,6.118-3.584,12.219a4.237,4.237,0,0,1-.815,1.694,3.861,3.861,0,0,1-3.055.9c-4.7-.147-9.124-2.175-13.393-4.155a4.665,4.665,0,0,1-1.344-.815c-.888-.921-.815-2.371-1.206-3.584s-1.45-2.354-2.053-3.6a11.756,11.756,0,0,1-.888-3.707q-.815-6.256-1.108-12.562c-.31-5.914,3.6-11.356,4.888-17.107,2.444-11.307.375-23.429,4.717-34.157,1.369-3.389-.619-7.495-.815-11.144a35.334,35.334,0,0,0-.912-6.99c-.815-3.063-2.534-5.947-2.656-9.124-.09-2.3.652-4.537,1.035-6.8a30.573,30.573,0,0,0-.138-10.044c-.432-2.737-1.092-5.474-1.752-8.146l-.147.3a92.049,92.049,0,0,0-5.108,12.016c-.652,2-1.222,4.032-2.036,5.971-.668,1.629-1.491,3.12-2.3,4.652a133.578,133.578,0,0,0-7.535,16.74c-1.01,2.819-1.9,5.7-2.778,8.529l-6.036,19.551c-1.629,5.14-3.413,10.11-5.01,15.242-2.257,7.332-4.513,14.6-7.136,21.767-2.444,6.8-5.352,13.849-4.48,21.034a15.476,15.476,0,0,1-7.193,1.458,42.117,42.117,0,0,1-12.219-2.965,9.5,9.5,0,0,1-4.22-2.509c-1.808-2.208-1.36-5.442-.815-8.252a19.944,19.944,0,0,1,.977-3.715c.619-1.5,1.629-2.827,2.265-4.309,1.279-2.843,1.36-6.061,1.865-9.148s1.629-6.346,4.269-8.024c.448-5.425,2.68-10.777,3.91-16.081.929-4.016,1.238-8.146,1.971-12.219s1.914-8.146,4.375-11.446a18.142,18.142,0,0,1,2.216-9.776,10.693,10.693,0,0,0,.969-2.077,11.938,11.938,0,0,0,.261-2.151,12.717,12.717,0,0,1,3.438-7.552c-.815-2.973.318-6.077,1.336-8.961a31.135,31.135,0,0,0,1.711-11.462,10.047,10.047,0,0,1,.155-3.259c.228-.815.676-1.507.937-2.289a13.031,13.031,0,0,0,.367-2.925c.318-4.407,2.1-8.562,4.073-12.5,1.173-2.3.179-5.417.424-7.975.424-4.252.888-8.651,3-12.358.391-.7.815-1.369,1.165-2.094a9.066,9.066,0,0,0,.676-3.259c.073-1.865.334-3.413-.334-5.148,4.358-3.625,10.3-4.643,15.975-4.888s11.4.269,16.952-.937c1.629-.367,3.259-.872,4.977-1.116,3.9-.57,7.861.318,11.714,1.2-.269,2.444.627,4.79,1.629,7.063a75.818,75.818,0,0,1,6.036,29.1Z" transform="translate(-161.733 -154.505)"/><path class="l" d="M892.1,673.29l-9.36,21.05c-.432-2.737-1.092-5.474-1.751-8.146l-.147.3v-.44l5.1-11.217Z" transform="translate(-177.058 -163.472)"/><path class="l" d="M926.154,618.1a3.521,3.521,0,0,1-1.857.692,9.033,9.033,0,0,1-3.047-.416l-7.332-1.833a3.6,3.6,0,0,1-.668-.236c.122-1.279.367-2.762,1.059-3.259,1.035-.692,4.13.236,5.3.4,2.02.277,4.073.6,6.045.986A16.14,16.14,0,0,1,926.154,618.1Z" transform="translate(-183.066 -152.259)"/><path class="b" d="M932.18,559.218c.155.676.375,1.344.5,2.028a15.477,15.477,0,0,1-.171,5.043l-.668,4.66-.668,4.684L928.6,593.661l-.635,4.464-.9,6.232a4.481,4.481,0,0,1-.391,1.5,3.12,3.12,0,0,1-2.55,1.507,9.243,9.243,0,0,1-3.047-.416l-7.332-1.841a2.3,2.3,0,0,1-.9-.367,1.768,1.768,0,0,1-.472-1.719c.106-.619.375-1.2.464-1.817.179-1.206-.326-2.444-.147-3.641a9.058,9.058,0,0,1,.815-2.191c2.444-5.4,1.026-11.706,1.857-17.571a26.637,26.637,0,0,1,5.653-12.578,36.1,36.1,0,0,1,6.24-6.126c.912-.709,2.362-2.167,3.511-2.444C932.245,556.343,931.936,558.192,932.18,559.218Z" transform="translate(-182.893 -141.844)"/><path class="m" d="M866.86,472.729c-.538,1.711.3,3.592-.081,5.336-.415,1.923-2.224,3.259-2.737,5.189-.815,2.941,1.678,5.621,3.5,8.065,6.761,9.075,5.873,21.637,3.56,32.707a168.873,168.873,0,0,1-7.7,26.068c-1.018,2.631-2.143,5.3-4.147,7.275,3.747-1.075,7.731-2.159,11.486-1.116,4.757,1.32,8.863,5.939,13.686,4.888,2.9-.643,4.937-3.218,7.543-4.643,4.888-2.631,10.777-.978,16.227-.13a6.37,6.37,0,0,0,3.544-.179,5.888,5.888,0,0,0,2.151-1.979,20.089,20.089,0,0,0,4.187-10.835,13.9,13.9,0,0,0-4-10.7,22.888,22.888,0,0,1-3.43-3.259,10.118,10.118,0,0,1-1.344-4.937c-.644-8.961,1.54-18.109-.709-26.777-.815-3.087-2.142-6.045-2.5-9.205-.448-3.935.619-8.146-.945-11.747a11.52,11.52,0,0,0-6.867-5.93,37.621,37.621,0,0,0-9.156-1.629C884.668,468.819,868.726,466.9,866.86,472.729Z" transform="translate(-173.057 -125.527)"/><g class="n" transform="translate(686.203 345.336)"><path d="M872.058,526.782a168.56,168.56,0,0,1-7.658,25.962c.562-1.116,1.035-2.289,1.483-3.454a168,168,0,0,0,7.7-26.068c2.322-11.079,3.21-23.624-3.552-32.707-1.629-2.167-3.723-4.513-3.65-7.055a8.684,8.684,0,0,0-1.385,2.558c-.815,2.941,1.678,5.621,3.5,8.065C875.259,503.15,874.371,515.711,872.058,526.782Z" transform="translate(-860.213 -473.619)"/><path d="M868.561,477.759A7.927,7.927,0,0,0,870,475.013a13.96,13.96,0,0,0-.1-3.633,3.919,3.919,0,0,0-1.352,1.866C868.064,474.687,868.618,476.252,868.561,477.759Z" transform="translate(-860.945 -471.38)"/><path d="M915.429,568.639a5.866,5.866,0,0,1-2.151,1.971,6.223,6.223,0,0,1-3.543.179c-5.45-.815-11.405-2.493-16.228.138-2.615,1.417-4.643,3.992-7.552,4.643-4.815,1.075-8.92-3.544-13.678-4.888-3.373-.937-6.924-.163-10.321.815a14.232,14.232,0,0,1-2.7,3.894c3.747-1.075,7.731-2.159,11.486-1.116,4.757,1.32,8.863,5.939,13.686,4.888,2.9-.643,4.937-3.218,7.543-4.643,4.888-2.631,10.778-.978,16.227-.13a6.37,6.37,0,0,0,3.544-.179,5.889,5.889,0,0,0,2.151-1.979,21.9,21.9,0,0,0,3.373-6.452,23.7,23.7,0,0,1-1.841,2.859Z" transform="translate(-859.26 -488.879)"/></g></g></svg>