<svg xmlns="http://www.w3.org/2000/svg" width="320" height="185.012" viewBox="0 0 320 185.012"><defs><style>.a{fill:#3f3d56;}.b{fill:#a0616a;}.c{fill:#2f2e41;}.d{fill:#575a89;}.e{opacity:0.2;}.f{fill:#3182ce;}.g{fill:#fbbebe;}.h{fill:#cfcce0;}</style></defs><g transform="translate(0 -0.041)"><rect class="a" width="80.417" height="0.667" transform="translate(239.583 133.333)"/><path class="b" d="M771.744,379.532l2.336,12.346,5.005,1.335-1.335-14.682Z" transform="translate(-514.228 -252.195)"/><path class="b" d="M855.744,379.532l2.336,12.346,5.005,1.335-1.335-14.682Z" transform="translate(-570.199 -252.195)"/><path class="c" d="M891.518,584.227s-5.339-.334-5.339,1.335-2.669,7.341-2.669,7.341-2,6.674,3.337,6.006,8.676-6.674,8.676-6.674l-1.335-6.34Z" transform="translate(-628.663 -446.879)"/><path class="c" d="M981.753,581.02s-3.561-2.289-3.307-.763.509,5.6,2.289,5.851,7.123,1.781,7.377,2.289,6.359,2.544,6.359-.763-3.816-5.851-3.816-5.851l-4.324-3.307s-2.8-.254-3.307,1.526S981.753,581.02,981.753,581.02Z" transform="translate(-692.157 -443.058)"/><path class="b" d="M870.956,331.37s-5.672-8.342-7.675-5.673,5.005,7.675,5.005,7.675Z" transform="translate(-615.19 -274.284)"/><path class="d" d="M880.34,349.759c-.334-.334-6.34-6.006-6.34-6.006l4.338-3,5.005,5.005Z" transform="translate(-622.571 -284.664)"/><path class="d" d="M887.468,290.25s-4.338.334-4,4,3.17,15.85,3.17,15.85l1.668,3.337S894.475,294.254,887.468,290.25Z" transform="translate(-628.865 -251.015)"/><path class="c" d="M886.7,219.935l1.2,4h15.049l.434-4.338,1.3,4.338h1.935l.434-4.338,1.3,4.338h2.035l-1.914-4.61a37.168,37.168,0,0,1-2.018-6.821,12.851,12.851,0,0,0-12.586-10.258h0q-.266,0-.53.011a12.234,12.234,0,0,0-10.6,16.972l1.954,4.707h1.6Z" transform="translate(-627.767 -192.379)"/><path class="c" d="M880.249,359.75s-10.344,8.676-7.341,20.355,4,48.384,4,48.384l10.344-1V381.439L901.6,408.8l2.336,19.687,11.679-2-5.339-24.025-10.267-30.625L898.935,363Z" transform="translate(-621.479 -297.324)"/><circle class="b" cx="7.007" cy="7.007" r="7.007" transform="translate(258.936 13.875)"/><path class="b" d="M905,247.751s3,11.011,1.335,12.346,11.679-4.338,11.679-4.338-5.673-6.34-5.005-9.009Z" transform="translate(-643.227 -222.03)"/><path class="d" d="M907.994,264s-5.343,4.6-10.513,4.967c0,0-6.839,3.708-6.5,4.042a37.734,37.734,0,0,1,1.335,5.005s1.668,2.576,1.668,8.008c0,.667-2.336,10.01-2.336,10.01l19.687,2.669s5.339-17.351,5.673-23.358,2.336-12.346-.667-12.68S907.994,264,907.994,264Z" transform="translate(-633.875 -232.603)"/><path class="d" d="M956.338,265.9s2.336-2,3.67,2.669,6.674,19.354,5.339,22.357S956,307.275,956,307.275l-4-2.669,8.008-15.016-4.671-10.678Z" transform="translate(-674.544 -234.505)"/><path class="b" d="M941.683,381.75s-10.344,6.34-7.007,7.675,9.009-5.673,9.009-5.673Z" transform="translate(-662.559 -311.983)"/><path class="c" d="M774,38.5v7.007h2.669l1-3,.25,3h7.424l1-3,.25,3h3.087V38.5Z" transform="translate(-515.731 -25.626)"/><path class="e" d="M894.065,310.25s-.667,6.674.334,8.008S894.065,310.25,894.065,310.25Z" transform="translate(-635.796 -264.342)"/><rect class="a" width="141.481" height="0.667" transform="translate(59.062 162.363)"/><path class="a" d="M499.672,417.526l-41.049,41.049a33.464,33.464,0,0,1-47.323,0c-.554-.554-1.088-1.124-1.595-1.712a32.319,32.319,0,0,1-2.332-3,32.96,32.96,0,0,1-5.286-12.68q-.285-1.487-.43-3-.155-1.617-.157-3.263a33.62,33.62,0,0,1,1.241-9.083q.425-1.527,1-3a33.39,33.39,0,0,1,7.561-11.575l17.909-17.909a5,5,0,0,1,7.077,7.077L418.378,418.33a23.651,23.651,0,0,0-3.527,4.5,23.286,23.286,0,0,0-3.34,12.086,24.039,24.039,0,0,0,.224,3.263,22.827,22.827,0,0,0,.621,3A23.448,23.448,0,0,0,451.545,451.5l10.317-10.317,18.352-18.352,12.38-12.38a23.492,23.492,0,0,0,2.626-30.038,5.007,5.007,0,1,1,8.212-5.729A33.521,33.521,0,0,1,499.672,417.526Z" transform="translate(-307.736 -305.846)"/><path class="a" d="M672.922,206.239q0,.37-.01.741a33.3,33.3,0,0,1-2.78,12.68,32.3,32.3,0,0,1-1.5,3,33.556,33.556,0,0,1-5.509,7.238l-17.909,17.909a5,5,0,0,1-7.077-7.077l17.909-17.909c.053-.053.107-.107.157-.16a23.316,23.316,0,0,0,6.7-15.683c.01-.247.013-.494.013-.741q0-1.141-.107-2.262a23.427,23.427,0,0,0-6.76-14.322c-.357-.357-.721-.7-1.1-1.028a23.454,23.454,0,0,0-30.972,0c-.377.327-.741.671-1.1,1.028L581.828,230.7a23.483,23.483,0,0,0,0,33.168,5,5,0,0,1-7.077,7.077,33.5,33.5,0,0,1,0-47.323L615.8,182.577a33.5,33.5,0,0,1,52.124,6.05,32.1,32.1,0,0,1,1.658,3,33.177,33.177,0,0,1,3.263,12.346Q672.921,205.1,672.922,206.239Z" transform="translate(-416.655 -172.75)"/><path class="f" d="M228.932,676.826c-1.529,5.651-6.765,9.15-6.765,9.15s-2.758-5.662-1.229-11.313,6.764-9.151,6.764-9.151S230.461,671.175,228.932,676.826Z" transform="translate(-187.117 -501.06)"/><path class="f" d="M203.218,676.826c1.529,5.651,6.764,9.15,6.764,9.15s2.757-5.662,1.229-11.313-6.764-9.151-6.764-9.151S201.69,671.175,203.218,676.826Z" transform="translate(-175.309 -501.06)"/><path class="a" d="M189.939,686.937c4.195,4.083,4.707,10.36,4.707,10.36s-6.288-.344-10.483-4.427-4.707-10.36-4.707-10.36S185.744,682.853,189.939,686.937Z" transform="translate(-159.783 -512.386)"/><path class="a" d="M229.685,686.937c-4.195,4.083-4.707,10.36-4.707,10.36s6.288-.344,10.483-4.427,4.707-10.36,4.707-10.36S233.879,682.853,229.685,686.937Z" transform="translate(-190.116 -512.386)"/><path class="a" d="M776.847,257.909a6.747,6.747,0,0,1-.133,1.333,6.687,6.687,0,1,1,.133-1.333Z" transform="translate(-548.943 -225.014)"/><path class="a" d="M481.847,560.909a6.753,6.753,0,0,1-.133,1.333,6.687,6.687,0,1,1,.133-1.333Z" transform="translate(-352.379 -426.909)"/><rect class="a" width="77.08" height="0.667" transform="translate(0 184.386)"/><path class="f" d="M693.183,220.25h14.225c-.377.327-.741.671-1.1,1.028l-1.975,1.975H690.18Z" transform="translate(-500.089 -204.373)"/><path class="f" d="M849.265,223.253H837.493a23.412,23.412,0,0,0-1.765-1.975c-.357-.357-.721-.7-1.1-1.028h12.977A32.114,32.114,0,0,1,849.265,223.253Z" transform="translate(-596.339 -204.373)"/><path class="f" d="M526.683,93.5h14.155l-3,3H523.68Z" transform="translate(-348.938 -62.274)"/><path class="f" d="M776.637,266.25a6.73,6.73,0,0,1,.077,3h-13.08a6.734,6.734,0,0,1,.077-3Z" transform="translate(-548.943 -235.024)"/><path class="f" d="M868.3,268.512q0,.37-.01.741H858.273c.01-.247.013-.494.013-.741q0-1.141-.107-2.262h10.04Q868.3,267.376,868.3,268.512Z" transform="translate(-612.03 -235.024)"/><path class="f" d="M479.683,140.5h14.155l-3,3H476.68Z" transform="translate(-317.621 -93.591)"/><path class="f" d="M852.321,313.25a32.277,32.277,0,0,1-1.5,3H838.39a23.17,23.17,0,0,0,2.5-3Z" transform="translate(-598.844 -266.341)"/><path class="f" d="M417.329,523.25a23.267,23.267,0,0,0-1.525,3H405.22q.425-1.527,1-3Z" transform="translate(-310.214 -406.268)"/><path class="f" d="M525.058,350.5l-3,3H507.9l3-3Z" transform="translate(-338.423 -233.518)"/><path class="f" d="M412.668,572.253H402.4q-.285-1.487-.43-3h10.077A22.85,22.85,0,0,0,412.668,572.253Z" transform="translate(-308.049 -436.918)"/><path class="f" d="M481.847,570.918a6.752,6.752,0,0,1-.133,1.333l-13.081,0a6.732,6.732,0,0,1,.077-3h12.927A6.723,6.723,0,0,1,481.847,570.918Z" transform="translate(-352.379 -436.918)"/><path class="f" d="M479.058,396.5l-3,3H461.9l3-3Z" transform="translate(-307.773 -264.168)"/><path class="f" d="M438.4,619.253H421.432a32.307,32.307,0,0,1-2.332-3h13.761A23.218,23.218,0,0,0,438.4,619.253Z" transform="translate(-319.463 -468.235)"/><path class="f" d="M546.708,616.25l-3,3H526.62a23.214,23.214,0,0,0,5.539-3Z" transform="translate(-391.106 -468.235)"/><path class="c" d="M396.784,333.443a9.91,9.91,0,0,0-7.6-4.512s-4.918-.629-8.073,5.936c-2.941,6.119-7,12.027-.653,13.46l1.146-3.568.71,3.833a24.83,24.83,0,0,0,2.715.046c6.8-.219,13.268.064,13.06-2.375C397.813,343.023,399.239,337.59,396.784,333.443Z" transform="translate(-291.477 -276.778)"/><path class="g" d="M260.5,453.667l.334,8.676h6.006L266.506,453Z" transform="translate(-173.576 -301.815)"/><path class="c" d="M388.652,441.751l-.607,2.019-7.868,26.137-.868,2.876.667,30.7-8.342,1s-.244-3.223-.6-7.982c-.717-9.423-1.892-24.876-2.573-33.285-.25-3.11-.43-5.255-.5-5.783-.334-2.669,4-16.017,4-16.017l8.676-.667Z" transform="translate(-285.378 -351.296)"/><path class="c" d="M361.58,647.93s-2.336-2.669-2.669-.667-4.338,9.677-4.338,9.677-11.679,7.675-1.668,8.342c0,0,5.005-.667,6.674-3.337,0,0,2.669-1.668,3.337-1.668s4.672-1.335,4-3.337-.334-9.343-.334-9.343Z" transform="translate(-272.654 -488.404)"/><path class="g" d="M265.5,424.337l3,5.673,4.671-2.336-3-6.674Z" transform="translate(-176.908 -280.493)"/><path class="e" d="M372.67,503.443A45.025,45.025,0,0,1,369.5,489.6c4.832-5.4,10.678-11.345,10.678-11.345l7.007-.334,2.169-.167c.507,5.072-3.784,11.605-8.142,16.811A93.176,93.176,0,0,1,372.67,503.443Z" transform="translate(-286.413 -375.95)"/><path class="c" d="M367.774,455.429s-21.356,18.686-18.352,26.361,11.345,17.018,11.345,17.018l6.445-3.847L361.1,480.789s2.562-2.272,5.681-5.638c5.075-5.478,11.623-13.855,11-20.055l-.334-11.345-5.673.667Z" transform="translate(-272.842 -353.295)"/><path class="c" d="M394.937,613.241s-2.336,0-2,2,1,5.339,1,5.339-2.669,15.683,3.671,12.013,4.672-13.347,4.672-13.347,2.336-6.006-.667-6.674-4-1.335-4.338-1S394.937,613.241,394.937,613.241Z" transform="translate(-302.007 -465.06)"/><circle class="g" cx="6.006" cy="6.006" r="6.006" transform="translate(91.595 54.417)"/><path class="g" d="M403.335,360.75S406,367.757,405,368.091a15,15,0,0,0-3,2l3.337,3,8.676-4.672s-4-5.339-3.671-7.675Z" transform="translate(-308.069 -297.991)"/><path class="h" d="M395.649,379.75s-6.982,3.442-9.5,1.22c0,0-4.184-.219-4.851,2.116s.667,4.338-1,5.005-2.836,2.5-1.835,5.506.834,3.5-.5,4.5-2.669,3-2.669,3.67-1.335.667-.667,1.335-.667,0,.667.667,5.005-5.339,7.675-2.336,11.012,8.008,11.679,5.005,2.669-10.344,2.669-10.344,7.007-13.014,5.005-14.348S395.649,379.75,395.649,379.75Z" transform="translate(-289.705 -310.651)"/><path class="g" d="M417.234,449.574s-3.671-.667-4.672,1.668-6.674,7.675-3,8.008,6.34-5.673,6.34-5.673l3.67-.667Z" transform="translate(-312.292 -357.117)"/><path class="h" d="M437.338,385.75l4.364.243a9.8,9.8,0,0,1,2.31,4.095c.334,2,6.674,17.018,2.669,18.686S434,411.443,434,411.443l-1-4.672,5.673-2-4-8.342Z" transform="translate(-328.725 -314.649)"/><path class="e" d="M264,370.506l5.489,13.722L263,370.506l5.673-6.006Z" transform="translate(-175.242 -242.846)"/><path class="e" d="M256.143,427.766l2.288,2.914h-1.668Z" transform="translate(-170.673 -285.001)"/><circle class="c" cx="3.649" cy="3.649" r="3.649" transform="translate(94.678 48.525)"/><path class="c" d="M401.552,318.864a3.649,3.649,0,0,1,3.265-3.629,3.649,3.649,0,1,0,0,7.258A3.65,3.65,0,0,1,401.552,318.864Z" transform="translate(-307.258 -267.649)"/><path class="c" d="M285.661,163.274l-4.987-2.612-6.886,1.068-1.425,6.292,3.547-.136.991-2.312v2.274l1.636-.063.95-3.68.594,3.918,5.817-.119Z" transform="translate(-181.481 -107.025)"/></g></svg>