<svg xmlns="http://www.w3.org/2000/svg" width="300" height="276.233" viewBox="0 0 300 276.233"><defs><style>.a{fill:#2f2e41;}.b{fill:#3182ce;}.c{fill:#3f3d56;}.d{opacity:0.1;}.e{fill:#f1f1f1;}.f{fill:#ffb8b8;}</style></defs><g transform="translate(0 0)"><path class="a" d="M256.432,317.961c4.9,9.086,15.3,12.987,15.3,12.987s2.455-10.831-2.445-19.918-15.3-12.987-15.3-12.987S251.533,308.875,256.432,317.961Z" transform="translate(-240.02 -219.831)"/><path class="b" d="M239.281,335.26c8.846,5.322,12.252,15.892,12.252,15.892s-10.935,1.942-19.78-3.38S219.5,331.881,219.5,331.881,230.435,329.938,239.281,335.26Z" transform="translate(-219.5 -240.12)"/><path class="c" d="M824.208,714.491c0,9.579-22.768,30.355-50.854,30.355S722.5,724.071,722.5,714.491s22.768-4.336,50.854-4.336S824.208,704.911,824.208,714.491Z" transform="translate(-524.208 -468.613)"/><path class="d" d="M824.208,714.491c0,9.579-22.768,30.355-50.854,30.355S722.5,724.071,722.5,714.491s22.768-4.336,50.854-4.336S824.208,704.911,824.208,714.491Z" transform="translate(-524.208 -468.613)"/><ellipse class="c" cx="50.854" cy="17.346" rx="50.854" ry="17.346" transform="translate(198.292 228.532)"/><rect class="e" width="161.629" height="92.247" transform="translate(29.961 118.939)"/><ellipse class="a" cx="15.572" cy="14.586" rx="15.572" ry="14.586" transform="translate(251.511 1.463)"/><path class="f" d="M755.322,370.855l-3.942,5.519s-18.922,3.942-11.826,9.855S756.9,380.71,756.9,380.71l5.519-7.1Z" transform="translate(-533.574 -263.939)"/><path class="b" d="M798.994,211.855s-5.125,0-6.307,7.1-2.365,30.749-2.365,30.749-16.557,21.682-13.8,24.442,5.913,7.884,7.884,7.1S803.33,257.19,803.33,257.19Z" transform="translate(-556.747 -167.62)"/><path class="d" d="M798.994,211.855s-5.125,0-6.307,7.1-2.365,30.749-2.365,30.749-16.557,21.682-13.8,24.442,5.913,7.884,7.884,7.1S803.33,257.19,803.33,257.19Z" transform="translate(-556.747 -167.62)"/><path class="f" d="M860.891,160.855s-.394,15.374-5.125,16.163-3.154,5.913-3.154,5.913,15.375,9.067,25.624,0l1.971-4.731s-7.1-5.125-3.942-12.221Z" transform="translate(-602.875 -136.725)"/><path class="a" d="M781.609,400.855s-23.259,43.364-14.586,56.767,21.682,41,23.653,41,13.009-5.519,12.221-9.067-12.615-29.961-15.769-32.326-1.577-8.673-1.183-9.067,13.4-21.288,13.4-21.288-.394,33.114,1.183,38.239-.394,41.787,1.577,43.364,11.038,4.337,12.615,1.971,6.307-38.239,3.154-46.518l5.913-56.767Z" transform="translate(-550.006 -282.113)"/><path class="a" d="M833.84,667.855l-9.855,18.134s-14.192,10.25-4.336,11.826,15.769-2.365,15.769-2.365l8.673-6.308V671.009Z" transform="translate(-580.949 -443.856)"/><path class="a" d="M827,631.268l5.125,12.221s1.971,5.125,0,6.308-7.49,8.278-3.942,9.067a11.573,11.573,0,0,0,2.166.215,21.9,21.9,0,0,0,15.926-6.481l3.2-3.2s-10.948-25.21-10.8-25.023S827,631.268,827,631.268Z" transform="translate(-587.513 -417.519)"/><circle class="f" cx="13.403" cy="13.403" r="13.403" transform="translate(254.468 6.784)"/><path class="b" d="M848.193,198.318l-4.139,4.139s-12.615,4.731-18.528,0c0,0,2.168-4.534,2.168-4.139s-17.149,2.957-18.725,10.053,1.183,19.317,1.183,19.317-11.038,52.037-6.7,53.219S848.39,291.944,848,284.454s3.154-38.239,3.154-38.239l13.8-26.413s-1.971-8.673-6.7-11.432S848.193,198.318,848.193,198.318Z" transform="translate(-572.634 -159.404)"/><path class="f" d="M847.046,393.855l-5.125,3.154s-19.711,13.4-9.461,15.769,16.163-9.461,16.163-9.461l3.942-4.731Z" transform="translate(-589.031 -277.872)"/><path class="d" d="M896.175,246.855l3.548,3.548s2.365,33.114-2.365,39.816-26.413,24.836-27.6,23.653-8.673-7.1-7.1-7.884,22.543-22.695,22.543-22.695l-1.649-30.525Z" transform="translate(-608.987 -188.822)"/><path class="b" d="M900.175,243.855l3.548,3.548s2.365,33.114-2.365,39.816-26.413,24.836-27.6,23.653-8.673-7.1-7.1-7.884,22.542-22.695,22.542-22.695l-1.649-30.524Z" transform="translate(-611.41 -187.005)"/><path class="a" d="M864.889,100.794s-4.556-1.657-10.769,1.864l3.314.828s-4.97.414-5.592,7.041h2.278s-1.45,5.8,0,7.456l.932-1.76,2.692,5.385.621-2.692,1.242.414.828-4.349s2.071,3.106,3.728,3.314V115.6s4.556,5.177,6.006,4.97l-2.071-2.9,2.9.621-1.243-2.071,7.455,2.071-1.657-2.071,5.177,1.657,2.485,1.035s3.521-8.077-1.45-13.669S869.549,98.412,864.889,100.794Z" transform="translate(-602.561 -99.645)"/><path class="c" d="M508.995,460.405q-.5.313-1.028.581a12.172,12.172,0,0,1-16.331-5.381l-2.622-5.2,1.76-.887,2.622,5.2a10.187,10.187,0,0,0,18.192-9.175l-11.013-21.837a10.187,10.187,0,1,0-18.192,9.175l3.9,7.731-1.76.887-3.9-7.731a12.158,12.158,0,1,1,21.712-10.95l11.013,21.837a12.16,12.16,0,0,1-4.353,15.749Z" transform="translate(-376.893 -291.367)"/><path class="c" d="M511.715,528.767q-.49.309-1.016.575a12.172,12.172,0,0,1-16.331-5.381l-11.013-21.837a12.158,12.158,0,1,1,21.712-10.95l2.893,5.736-1.76.888-2.893-5.737a10.187,10.187,0,0,0-18.192,9.175l11.013,21.837A10.187,10.187,0,1,0,514.32,513.9l-3.791-7.517,1.76-.888,3.791,7.517A12.176,12.176,0,0,1,511.715,528.767Z" transform="translate(-378.548 -332.776)"/><path class="a" d="M476.629,481.669H294.5V380.355H476.629Zm-181.34-.788H475.84V381.143H295.288Z" transform="translate(-264.934 -269.694)"/></g></svg>