<svg xmlns="http://www.w3.org/2000/svg" xmlns:xlink="http://www.w3.org/1999/xlink" width="320" height="237.018" viewBox="0 0 320 237.018"><defs><style>.a,.ae,.af,.ag{fill:#3182ce;}.a,.ai,.k{opacity:0.1;}.b{fill:url(#a);}.c{fill:url(#b);}.d{fill:#f6bac2;}.e{fill:#b77983;}.f,.m{opacity:0.05;}.g{fill:#d39999;}.au,.h{fill:none;}.i{fill:#4b4442;}.j{fill:#8499f0;}.ad,.k{fill:#fff;}.l{fill:#7e646b;}.n{fill:#b7b6cc;}.aa,.af,.o,.s,.w{opacity:0.5;}.p{fill:url(#c);}.q{fill:#f9fafb;}.r,.s,.t{fill:#f7b643;}.ab,.ag,.t,.x{opacity:0.3;}.u{fill:url(#d);}.v,.w,.x{fill:#f97878;}.y{fill:url(#e);}.aa,.ab,.z{fill:#73b53b;}.ac{fill:url(#f);}.ah{fill:#e6ecf8;}.aj{fill:#a8a8a8;}.ak,.an{opacity:0.2;}.al{fill:url(#g);}.am{fill:#f6f7f9;}.ao{fill:url(#h);}.ap{fill:#ae6e79;}.aq{fill:#bebed0;}.ar{fill:#5c5c8e;}.as{fill:#42383c;}.at{fill:#e6e8ee;}.au{stroke:#565987;stroke-miterlimit:10;}.av{fill:#ffd037;}</style><linearGradient id="a" x1="0.5" y1="1" x2="0.5" gradientUnits="objectBoundingBox"><stop offset="0" stop-color="gray" stop-opacity="0.251"/><stop offset="0.54" stop-color="gray" stop-opacity="0.122"/><stop offset="1" stop-color="gray" stop-opacity="0.102"/></linearGradient><linearGradient id="b" x1="0.5" y1="1" x2="0.5" y2="0" xlink:href="#a"/><linearGradient id="c" x1="-0.211" y1="3.614" x2="-0.211" y2="0.343" xlink:href="#a"/><linearGradient id="d" x1="-0.036" y1="4.542" x2="-0.036" y2="1.284" xlink:href="#a"/><linearGradient id="e" x1="-0.017" y1="4.446" x2="-0.017" y2="1.187" xlink:href="#a"/><linearGradient id="f" x1="-1.04" y1="1.715" x2="-1.04" y2="0.715" xlink:href="#a"/><linearGradient id="g" x1="0.551" y1="0.784" x2="0.551" y2="0.225" xlink:href="#a"/><linearGradient id="h" x1="0.5" y1="1" x2="0.5" y2="0" xlink:href="#a"/></defs><g transform="translate(0 -0.002)"><path class="a" d="M235.735,67.9c-10.5-4.268-21.594-7.841-32.92-7.386a48.947,48.947,0,0,0-40.467,25.378c-6.643,12.459-7.462,27.065-10.324,40.891-3.525,17.038-10.276,33.228-17.49,49.062-3.875,8.493-7.962,17.193-8.6,26.517-.884,12.942,5.3,25.842,15.007,34.459s22.6,13.151,35.524,14.142c6.883.528,14.075.04,20.19-3.163,6.468-3.389,11.182-9.516,17.676-12.854,6.019-3.107,13.058-3.531,19.814-3.127a88.728,88.728,0,0,1,25.87,5.5c9.442,3.548,18.224,8.683,27.647,12.278s19.95,5.6,29.581,2.6c9.039-2.825,16.2-9.66,22.644-16.594a290.4,290.4,0,0,0,28.867-36.521c5.816-8.711,11.228-17.9,13.8-28.056a56.056,56.056,0,0,0-16.86-54.57c-12.428-10.982-29.118-15.75-45.452-18.642-14.894-2.638-32.115-2.8-45.825-9.677C261.343,81.565,249.446,73.472,235.735,67.9Z" transform="translate(-99.779 -51.985)"/><path class="b" d="M778.528,137.512c-4.033.161-4.237,10.575-3.985,11.03s-.915,5.155-.915,5.155-1.83,7.126-1.618,8.451a2.468,2.468,0,0,1-.986,2.192c-1.791.706-4.036,2.983-4.632,3.607l-.15.161a13.037,13.037,0,0,0-2.04,1.576c-.3.446-1.13.09-1.13.09a22.022,22.022,0,0,0-2.649-.136c-.209.062-.537-.322-.723-.565-.088-.116-.144-.2-.144-.2l-.071-2.1a1.722,1.722,0,0,0-.282-.175c.048-.237.107-.483.181-.734a6.292,6.292,0,0,0,2.568-2.3c.068-.107.13-.217.189-.328a.847.847,0,0,0,.534.15,1.06,1.06,0,0,0,.249-.023,2.009,2.009,0,0,0,.723-.364,3.869,3.869,0,0,0,1.345-1.576,2.607,2.607,0,0,0,.127-.376c-.042.071-.087.141-.133.209a2.173,2.173,0,0,0-.15-1.833,6.02,6.02,0,0,1-.706-1.039c-.237-.681.212-1.384.489-2.051a3.449,3.449,0,0,0,.251-1.932,2.468,2.468,0,0,0-1.045-1.63c-1.11-.72-2.615-.325-3.9-.672a10.581,10.581,0,0,1-1.342-.539,10.165,10.165,0,0,0-2.053-.638,2.009,2.009,0,0,0-1.977.393,4.093,4.093,0,0,0-.322.545,2.019,2.019,0,0,1-1.262.907,4.734,4.734,0,0,1-.777.082.754.754,0,0,0,0-.322c-.328-1.073.61-1.87,1.83-2.35a30.486,30.486,0,0,0,6.4-5c.54-.867,4.316-3.587,4.316-3.587a11.857,11.857,0,0,0,7.5-7.423c1.853-5.824-8.863,4.067-9.942,4.364a10.987,10.987,0,0,0-2.624,1.412L752.8,143.9a24.873,24.873,0,0,0-3.706,2.559,12.443,12.443,0,0,0-2.718,3.881s-.658,1.073-1.618,2.627a7.148,7.148,0,0,1-2.1,2.229l.031-.056c-.077.093-2.441,3.079-2.649,4.384s-1.172,6.624-1.172,6.624-.847,4.177-1.429,5a14.316,14.316,0,0,1-.751,2.72c-.279.322-1.412,3.72-1.22,4.065,0,0-1.079,2.353-.89,3.243l-1.946,4.66a10.727,10.727,0,0,0-.986,3.652c.034.652.062,1.412.082,2.034v.282h0v.282c-.1.175-.373.621-.652,1.161a6.045,6.045,0,0,0-.8,2.37c.045,1.062.048,3.655-.441,4.607l-.144-.057a1.978,1.978,0,0,0-.282.938l.034.017c0,.082-.025.167-.034.257-.119,1.082.054,2.587-.218,2.918-.376.458-.189,10.6-.189,10.6s-.61,6.347.61,10.369l-.093,3.149a29.362,29.362,0,0,0,.093,3.39,33.077,33.077,0,0,1,.189,3.426l.7,5.025s-.941,7.765-.141,9.682a10.556,10.556,0,0,1,.847,3.336,5.186,5.186,0,0,0,1.293.5v.282l-.183,4.723v.26s-.023.124-.04.33h0v.116a.113.113,0,0,0,0,.034v.1a.568.568,0,0,0,0,.076.627.627,0,0,1,0,.068v.427h0v.412a.835.835,0,0,0,.022.141.131.131,0,0,0,0,.034.726.726,0,0,0,.031.155h0a.6.6,0,0,0,.037.153.033.033,0,0,1,0,.017h0a.282.282,0,0,0,.022.079.154.154,0,0,0,0,.037.452.452,0,0,0,.028.1v.023c.028.079.056.158.09.237a.111.111,0,0,0,0,.025c0,.028.025.059.04.088l.017.04.037.076.022.042.04.071.025.042c0,.023.025.045.04.068s.02.028.028.045l.042.065.031.042.045.065.034.042.051.062.034.04.059.068.031.034.1.093a.144.144,0,0,0,.031.028.733.733,0,0,0,.071.065l.045.037.062.051.054.04.062.045.059.039.062.04.065.037.065.04.068.034.071.034.071.034.071.031.076.031.076.028.079.028.085.025.133.04.11.028.087.017.091.02h.1l.093.014h1.192l.153-.014h.093l.257-.028s3.2.477,3.3-.788a1.01,1.01,0,0,1,.014-.2v-.161a.48.48,0,0,1,0-.059V260.5c-.02-.627-.051-1.209-.071-1.534a2.064,2.064,0,0,0-.017-.282s-1.09-1.644-.912-2.26a16.257,16.257,0,0,0,.138-2.706s-.424-1-.709-1.89c-.023-.068-.042-.136-.062-.2a10.421,10.421,0,0,0,.667-.847,10.734,10.734,0,0,0-.8-6.44.4.4,0,0,1-.172-.33.132.132,0,0,1,0-.034l.545-6.669-.331-3.881a10.686,10.686,0,0,1,.282-3.793l1.031-10.047,1.463-5.844s.469-.229.847.87,1.311,6.073,1.311,6.073l2.26,8.222a16.3,16.3,0,0,0,.7,3.336,6.364,6.364,0,0,1,.331,2.237,5.78,5.78,0,0,1,.61,2.1,9.093,9.093,0,0,0,.232,2.969,40.228,40.228,0,0,1,.331,4.8,9.7,9.7,0,0,0,.093,4.158,14.641,14.641,0,0,1,.235,4.751,3.224,3.224,0,0,0,.192.266c-.023.062-.048.124-.071.181-.147.381-.263.65-.263.65a16.64,16.64,0,0,0,.141,2.706c.175.616-.915,2.26-.915,2.26s0,.1-.017.282c-.02.325-.051.9-.071,1.534v1.61a.328.328,0,0,0,0,.054v.164a1.038,1.038,0,0,0,.014.2c.107,1.265,3.307.788,3.307.788l.257.031h1.429l.1-.017.093-.014.091-.02.09-.017.11-.028.133-.04.082-.025.079-.028a.635.635,0,0,0,.076-.028l.076-.031.073-.031.071-.031.071-.037.065-.034.068-.037.063-.04.065-.04.056-.04.062-.045a.372.372,0,0,0,.054-.04.512.512,0,0,0,.062-.048l.048-.04.071-.062.031-.031.1-.093.028-.034.062-.065.031-.042a.545.545,0,0,0,.053-.062l.031-.042.048-.065.028-.042.045-.065a.4.4,0,0,1,.028-.045c0-.023.025-.045.04-.068l.025-.042c0-.025.025-.048.037-.071a.307.307,0,0,0,.023-.042c0-.025.025-.051.037-.076l.02-.04c0-.028.025-.056.039-.088v-.025c.031-.079.062-.158.088-.237v-.023a.3.3,0,0,1,.031-.093.214.214,0,0,1,0-.04.107.107,0,0,1,.023-.079V261.7a.04.04,0,0,0,0-.017.679.679,0,0,1,.04-.15h0a.967.967,0,0,1,.031-.153v-.037a1.1,1.1,0,0,1,.022-.138.112.112,0,0,0,0-.048v-.367h0v-.494q0-.038,0-.076v-.1a.157.157,0,0,1,0-.034v-.113h0c-.017-.206-.037-.331-.037-.331v-.257l-.178-4.57v-.282c.263-.147.531-.314.811-.508,0,0-.048-2.6.7-3.652s-.376-3.793-.376-3.793l-.469-9.821.186-4.519a4.494,4.494,0,0,1-.565-2.192,7.972,7.972,0,0,0-.751-2.825s-.469-1.553.1-2.011-.61-10.451-.61-10.451a94.318,94.318,0,0,0-.254-11.637v-.071l.15-.068c-.045-.347-.093-.672-.147-.974l-.158.048a7.959,7.959,0,0,0-.282-1.13l-.751-3.449s-.017-.181-.037-.443c-.025-.311-.053-.732-.059-1.1a1.872,1.872,0,0,1,.051-.463l-.04-.034a1.027,1.027,0,0,1,.04-.24l-.164-.138s-.023-.155-.04-.393a4.421,4.421,0,0,1,.2-1.957c.376-.754,4.237-3.61,4.237-3.61l2.164-4.33s2.158-3.039,3.8-3.632a61.555,61.555,0,0,0,6.754-3.994,16.86,16.86,0,0,0,1.924-2.26l.059-.09h.034v-.059l4.8-7.194c1.921-1.554,1.991-4.864,1.991-4.864l.5-7.564-.164-4.474.232-2.542S782.559,137.354,778.528,137.512Zm-27.505,19.574a6.052,6.052,0,0,0-.8,3v.274a6.03,6.03,0,0,0,.641,2.705,2.214,2.214,0,0,0-.466.828,4.491,4.491,0,0,1-.972-1.822,1.9,1.9,0,0,0-.751-1.231,5.175,5.175,0,0,1,.045-1.621l.025-.023s.02-.034.059-.09h0c.2-.3.876-1.322,1.573-2.483a2.225,2.225,0,0,0,.359.119l.429.107Z" transform="translate(-532.457 -103.54)"/><path class="c" d="M855.352,216.539c.042-.1.076-.2.11-.3a6.255,6.255,0,0,0-.283.692C855.239,216.8,855.3,216.669,855.352,216.539Z" transform="translate(-623.105 -163.756)"/><path class="d" d="M804.33,238.906s-.884,4.214-2.514,4.759,1.977,5.367,1.977,5.367l7.477-.41.136-1.562a7.719,7.719,0,0,1,.952-6.931C814.721,236.324,804.33,238.906,804.33,238.906Z" transform="translate(-584.51 -179.406)"/><path class="e" d="M751.154,563.116c-.1,1.257-3.195.782-3.195.782-5.129.712-4.282-4.316-4.282-4.316v-.257l.178-4.689.051-1.308s5.649-2.582,5.5-2.039a3.218,3.218,0,0,0,.229,1.22c.282.878.687,1.872.687,1.872a16.868,16.868,0,0,1-.136,2.683c-.169.61.884,2.243.884,2.243s0,.1.017.282A32.907,32.907,0,0,1,751.154,563.116Z" transform="translate(-543.059 -404.116)"/><path class="e" d="M797.11,565.915s-3.093.478-3.195-.782a32.131,32.131,0,0,1,.054-3.533,2.557,2.557,0,0,1,.014-.283s1.054-1.633.884-2.243a16.92,16.92,0,0,1-.135-2.686s.11-.263.254-.641a7.8,7.8,0,0,0,.664-2.449c-.135-.545,5.505,2.036,5.505,2.036l.057,1.463.172,4.533v.257S802.242,566.63,797.11,565.915Z" transform="translate(-579.126 -405.556)"/><path class="d" d="M804.106,137.722a11.579,11.579,0,0,1-7.248,7.364s-3.649,2.706-4.169,3.553A29.965,29.965,0,0,1,786.5,153.6c-1.181.477-2.082,1.268-1.765,2.33.282.986-2.808,5.81-3.274,6.527h0l-.057.09-.974,1.02-3.308,1.675-2.695-.862-.342-3.237,1.429-2.542h0a7.015,7.015,0,0,0,2.025-2.212c.929-1.542,1.565-2.6,1.565-2.6a12.427,12.427,0,0,1,2.627-3.853,23.762,23.762,0,0,1,3.579-2.542l6.64-3.954a10.7,10.7,0,0,1,2.542-1.412C795.545,141.724,805.9,131.946,804.106,137.722Z" transform="translate(-564.919 -106.108)"/><path class="f" d="M777.126,220.846l4.418-.884a.282.282,0,0,0-.079.184h0l-.057.09-.974,1.02-3.308,1.675-2.695-.861-.342-3.237,1.429-2.542h0a5.067,5.067,0,0,0-.034,4.83Z" transform="translate(-564.919 -163.792)"/><path class="f" d="M860.779,267.562c-.012.03-.022.06-.031.09a1.238,1.238,0,0,1-.164.282l-1.782.87-2.72.282-1.412-3.421.94-3.748.52-.7.144-.158c.054.678.327,4.214.311,5.276-.023,1.178.847,1.271.847,1.271Z" transform="translate(-622.739 -195.916)"/><path class="g" d="M779.452,235.511a.9.9,0,0,0-.031.09,16.52,16.52,0,0,1-1.855,2.243,58,58,0,0,1-6.525,3.954c-1.584.579-3.672,3.6-3.672,3.6l-2.084,4.3s-3.737,2.825-4.1,3.582a4.46,4.46,0,0,0-.195,1.943,2.012,2.012,0,0,0,.034.39l-1.1,1.15-.878.915-1.237,1.288-2.014-.282-6.276-1-1.2-.678-6.68-3.762s0-.234-.017-.593c0-.158,0-.339-.017-.539-.02-.61-.048-1.37-.079-2.017a10.887,10.887,0,0,1,.952-3.624l1.878-4.624c-.181-.881.862-3.217.862-3.217a13.433,13.433,0,0,1,1.178-4.031,14.357,14.357,0,0,0,.726-2.7c.565-.813,1.381-4.96,1.381-4.96s.929-5.256,1.13-6.57,2.486-4.257,2.559-4.347a5.148,5.148,0,0,0-.2,5.163l1.633-.282,4.42-.862c-.2.136-.068,1.63-.068,1.63a1.883,1.883,0,0,1,.723,1.223,4.693,4.693,0,0,0,1,1.878l.023.025a2.212,2.212,0,0,1,1.065-1.52l1.02,1.361.342,1.63s-.093.229-.681.681.249,1.63.249,1.63a8.312,8.312,0,0,1,.365,2.243h0a3.3,3.3,0,0,1,1.923-.655,5.825,5.825,0,0,0,1.155-1.655.683.683,0,0,1,.974-.452,6.272,6.272,0,0,1,1.11-.771c.545-.282,1.178.282,1.178.282l.068,2.087s.054.085.141.2c.178.249.5.63.7.565a20.689,20.689,0,0,1,2.559.136s.794.339,1.087-.09a13.415,13.415,0,0,1,1.977-1.562s.325,4.206.325,5.381.847,1.271.847,1.271Z" transform="translate(-541.547 -163.605)"/><path class="h" d="M875.849,284.681h-.059C875.9,284.4,875.849,284.681,875.849,284.681Z" transform="translate(-637.893 -212.775)"/><circle class="i" cx="0.407" cy="0.407" r="0.407" transform="translate(218.961 68.745)"/><circle class="i" cx="0.407" cy="0.407" r="0.407" transform="translate(215.992 74.66)"/><circle class="i" cx="0.407" cy="0.407" r="0.407" transform="translate(210.148 87.322)"/><circle class="i" cx="0.407" cy="0.407" r="0.407" transform="translate(212.911 80.933)"/><path class="f" d="M750.3,552.51a5.456,5.456,0,0,1-5.785,2.127l.051-1.308s5.649-2.582,5.5-2.039A3,3,0,0,0,750.3,552.51Z" transform="translate(-543.701 -404.116)"/><path class="f" d="M804.024,556.838c-3.607,2.084-5.723-.359-6.214-1.051a7.805,7.805,0,0,0,.664-2.449c-.135-.545,5.505,2.036,5.505,2.036Z" transform="translate(-581.939 -405.585)"/><path class="j" d="M758.245,403.349c-.723,1.042-.681,3.624-.681,3.624-4.666,3.353-7.112-.726-7.112-.726a15.007,15.007,0,0,0-.226-4.711,9.83,9.83,0,0,1-.09-4.124,39.775,39.775,0,0,0-.319-4.756,9.1,9.1,0,0,1-.226-2.946,5.813,5.813,0,0,0-.587-2.082,6.4,6.4,0,0,0-.319-2.22,16.347,16.347,0,0,1-.678-3.31l-2.172-8.155s-.907-4.937-1.268-6.025-.816-.861-.816-.861l-1.3,5.844-1,9.968a10.936,10.936,0,0,0-.283,3.762l.317,3.85-.525,6.615a.132.132,0,0,0,0,.034.4.4,0,0,0,.164.328,10.887,10.887,0,0,1,.76,6.389c-3.443,4.985-7.612,2.4-7.612,2.4a10.572,10.572,0,0,0-.813-3.3c-.771-1.9.135-9.6.135-9.6l-.681-4.985a33.339,33.339,0,0,0-.181-3.389,29.847,29.847,0,0,1-.09-3.353l.09-3.127c-1.178-3.988-.59-10.284-.59-10.284s-.181-10.058.184-10.513c.262-.328.1-1.819.209-2.9a2.024,2.024,0,0,1,.266-.929l.045-.045c.59-.726.59-3.624.542-4.759a6.109,6.109,0,0,1,.777-2.35c.282-.548.54-1,.635-1.164l.04-.065s2.582.635,9.423,3.9a12.855,12.855,0,0,0,3.892,1.206,8.662,8.662,0,0,0,2.031.031,7.09,7.09,0,0,0,2.921-.949,5.135,5.135,0,0,0,1.262-1.014,8.445,8.445,0,0,0,0,1.825c.017.263.037.441.037.441l.754,3.361a8.846,8.846,0,0,1,.282,1.217c.054.3.1.624.141.969a93.948,93.948,0,0,1,.246,11.544s1.13,9.923.59,10.375-.093,1.994-.093,1.994a8.046,8.046,0,0,1,.726,2.808,4.524,4.524,0,0,0,.545,2.175l-.184,4.485.475,9.73S758.971,402.307,758.245,403.349Z" transform="translate(-534.711 -256.491)"/><path class="f" d="M806.13,488.943s3.432-1.977,4.18-1.087S806.13,488.943,806.13,488.943Z" transform="translate(-587.909 -358.487)"/><path class="f" d="M813.145,496.14s-.565.282.681.644S813.145,496.14,813.145,496.14Z" transform="translate(-592.851 -364.597)"/><path class="f" d="M739.992,476.78a5.266,5.266,0,0,0,5.539.373A41.322,41.322,0,0,0,739.992,476.78Z" transform="translate(-540.45 -350.674)"/><path class="f" d="M751.787,490.24a3.642,3.642,0,0,1-2.48,1.836C747.64,492.313,751.787,490.24,751.787,490.24Z" transform="translate(-546.852 -360.363)"/><path class="f" d="M797.71,502.52s3.909,6.214,3.161,7.68S797.71,502.52,797.71,502.52Z" transform="translate(-581.867 -369.175)"/><path class="f" d="M773.337,369.09l-.407,12.165s2.412-.1,2.824-4.11.715-7.273.715-7.273Z" transform="translate(-564.087 -273.433)"/><path class="j" d="M772.856,368.13,772.45,380.3s2.412-.1,2.824-4.113.72-7.27.72-7.27Z" transform="translate(-563.742 -272.744)"/><path class="f" d="M740.669,369.106s-1.9,5.1-6.259,2.632a2.01,2.01,0,0,1,.266-.929c1.192.5,3.954,1.231,5.084-2.079Z" transform="translate(-536.447 -273.174)"/><path class="f" d="M740.189,367.183s-1.9,5.1-6.259,2.632a2.023,2.023,0,0,1,.266-.929c1.192.5,3.954,1.231,5.084-2.076Z" transform="translate(-536.102 -271.797)"/><path class="j" d="M740.189,368.143s-1.9,5.1-6.259,2.632a2.023,2.023,0,0,1,.266-.929c1.192.5,3.954,1.231,5.084-2.076Z" transform="translate(-536.102 -272.485)"/><path class="f" d="M798.479,377.48c-4.785,2.276-6.539-3.09-6.539-3.09l1.13.034c.2,3.432,3.98,2.508,5.276,2.087C798.391,376.822,798.436,377.135,798.479,377.48Z" transform="translate(-577.727 -277.236)"/><path class="f" d="M799.438,376.033c-4.782,2.274-6.539-3.093-6.539-3.093l1.13.034c.2,3.432,3.98,2.511,5.276,2.09C799.351,375.363,799.4,375.688,799.438,376.033Z" transform="translate(-578.416 -276.195)"/><path class="j" d="M798.959,376.513c-4.782,2.274-6.539-3.093-6.539-3.093l1.13.034c.2,3.435,3.98,2.511,5.276,2.09C798.871,375.844,798.917,376.168,798.959,376.513Z" transform="translate(-578.072 -276.54)"/><path class="k" d="M740.189,368.143s-1.9,5.1-6.259,2.632a2.023,2.023,0,0,1,.266-.929c1.192.5,3.954,1.231,5.084-2.076Z" transform="translate(-536.102 -272.485)"/><path class="k" d="M798.959,376.513c-4.782,2.274-6.539-3.093-6.539-3.093l1.13.034c.2,3.435,3.98,2.511,5.276,2.09C798.871,375.844,798.917,376.168,798.959,376.513Z" transform="translate(-578.072 -276.54)"/><path class="f" d="M751.191,582.541a8.011,8.011,0,0,1-.034.941c-.1,1.257-3.195.782-3.195.782-2.824.393-3.841-.963-4.177-2.26a5.172,5.172,0,0,1-.155-1.288,5.331,5.331,0,0,1,.051-.774v-.257a1.89,1.89,0,0,1,1.757.359,2.984,2.984,0,0,0,2.924.238,3.921,3.921,0,0,1,1.695.508c.265.229.7-.322,1.037-.847.02.339.051.952.071,1.607C751.185,581.886,751.191,582.225,751.191,582.541Z" transform="translate(-543.062 -424.487)"/><path class="f" d="M746.231,585.32s-.847.831-2.446-.452a5.169,5.169,0,0,1-.156-1.288A14.789,14.789,0,0,0,746.231,585.32Z" transform="translate(-543.062 -427.339)"/><path class="f" d="M768.068,587.474a.638.638,0,0,1-.918-.147,6.037,6.037,0,0,0,.9-.847C768.062,586.819,768.068,587.158,768.068,587.474Z" transform="translate(-559.939 -429.42)"/><path class="f" d="M793.868,584.606a8.7,8.7,0,0,0,.031.94c.1,1.26,3.195.782,3.195.782,2.824.4,3.841-.96,4.177-2.26a5.432,5.432,0,0,0,.1-2.062v-.257a1.913,1.913,0,0,0-1.76.359,2.977,2.977,0,0,1-2.92.237,3.942,3.942,0,0,0-1.695.511c-.266.229-.7-.322-1.034-.847-.02.339-.053.952-.073,1.607C793.871,583.948,793.865,584.287,793.868,584.606Z" transform="translate(-579.11 -425.97)"/><path class="f" d="M811.43,587.367s.847.831,2.443-.452a5.137,5.137,0,0,0,.158-1.285A15.089,15.089,0,0,1,811.43,587.367Z" transform="translate(-591.712 -428.81)"/><path class="f" d="M793.868,589.534a.635.635,0,0,0,.915-.147,5.977,5.977,0,0,1-.9-.847C793.871,588.876,793.865,589.215,793.868,589.534Z" transform="translate(-579.11 -430.898)"/><path class="f" d="M772.9,285s-4.35,12.007-2.675,13.049S772.9,285,772.9,285Z" transform="translate(-561.87 -213.094)"/><path class="f" d="M790.568,271.88s-.819,3.988-.41,4.35S790.568,271.88,790.568,271.88Z" transform="translate(-576.367 -203.68)"/><path class="f" d="M810.291,304.77s-5.347,4.982-4.986,5.392S810.291,304.77,810.291,304.77Z" transform="translate(-587.305 -227.28)"/><path class="f" d="M820.163,259.238c-2.025.619-6.759,2.065-6.813,2.053l.263-1.079a3.3,3.3,0,0,1,1.923-.655,5.821,5.821,0,0,0,1.155-1.655.684.684,0,0,1,.975-.452,6.445,6.445,0,0,1,1.11-.771c.545-.282,1.178.282,1.178.282l.068,2.085S820.075,259.122,820.163,259.238Z" transform="translate(-593.09 -192.716)"/><path class="g" d="M820.163,258.3c-2.025.619-6.759,2.065-6.813,2.051l.263-1.076a3.3,3.3,0,0,1,1.923-.655,5.818,5.818,0,0,0,1.155-1.655.684.684,0,0,1,.975-.452,6.266,6.266,0,0,1,1.11-.771c.545-.283,1.178.282,1.178.282l.068,2.087S820.075,258.177,820.163,258.3Z" transform="translate(-593.09 -192.041)"/><path class="f" d="M807.38,247.517a8.28,8.28,0,0,1,.361,2.243l-.788.627-1.5-4.316-.068-2.243-.028-.127.022.025a2.2,2.2,0,0,1,1.065-1.517l1.02,1.359.342,1.63s-.093.229-.681.681S807.38,247.517,807.38,247.517Z" transform="translate(-587.357 -182.39)"/><path class="g" d="M807.87,247.022a8.3,8.3,0,0,1,.364,2.243l-.788.635-1.5-4.316-.068-2.243-.031-.127.023.025a2.212,2.212,0,0,1,1.065-1.52l1.02,1.361.342,1.63s-.093.229-.681.681S807.87,247.022,807.87,247.022Z" transform="translate(-587.708 -182.039)"/><path class="f" d="M817.29,218.807a6.064,6.064,0,1,1-1.775-4.341,6.115,6.115,0,0,1,1.775,4.341Z" transform="translate(-587.141 -161.208)"/><path class="d" d="M817.276,217.845a6.081,6.081,0,1,1-1.781-4.334A6.118,6.118,0,0,1,817.276,217.845Z" transform="translate(-587.127 -160.519)"/><path class="f" d="M819.242,217.826a6.081,6.081,0,0,1-.89,3.178c-.09-.161-.144-.347-.235-.511-.127-.229-.421-.421-.638-.282a.653.653,0,0,0-.2.282c-.178.376-.494.751-.909.743a.9.9,0,0,1-.774-.661,2.71,2.71,0,0,1-.045-1.079,2.459,2.459,0,0,0-.472-2.076,3.09,3.09,0,0,0-1.181-.528,1.549,1.549,0,0,1-1.017-.751c-.113-.282-.085-.582-.186-.847a1.483,1.483,0,0,0-1.1-.808,2.88,2.88,0,0,1-1.924.658,7.2,7.2,0,0,1-1.892-.3,6.118,6.118,0,0,1,11.462,2.974Z" transform="translate(-589.093 -160.5)"/><path class="l" d="M810.179,207.316c.1.282.073.587.187.847a1.541,1.541,0,0,0,1.017.751,3.1,3.1,0,0,1,1.18.525,2.467,2.467,0,0,1,.472,2.079,2.715,2.715,0,0,0,.045,1.079.906.906,0,0,0,.774.661,1.124,1.124,0,0,0,.91-.743.657.657,0,0,1,.2-.282c.217-.144.511.048.638.282a2.794,2.794,0,0,0,.364.686.814.814,0,0,0,.743.169,1.872,1.872,0,0,0,.7-.362,3.825,3.825,0,0,0,1.3-1.562,2.243,2.243,0,0,0-.082-1.977,5.923,5.923,0,0,1-.681-1.034c-.232-.675.2-1.37.472-2.031a3.529,3.529,0,0,0,.24-1.918,2.464,2.464,0,0,0-1.009-1.618c-1.073-.715-2.525-.322-3.768-.667a9.561,9.561,0,0,1-1.3-.534,9.6,9.6,0,0,0-1.977-.633,1.925,1.925,0,0,0-1.918.387,4.319,4.319,0,0,0-.311.542,1.951,1.951,0,0,1-1.22.9c-.365.088-.746.065-1.13.119a1.243,1.243,0,0,0-.941.539,1.873,1.873,0,0,0-.062,1.13,1.147,1.147,0,0,1-.282,1.065c-.144.11-.342.164-.429.319a.449.449,0,0,0,.133.534,1.275,1.275,0,0,0,.54.237,8.252,8.252,0,0,0,2.166.37,2.858,2.858,0,0,0,2.017-.743c-.048.048-.359.028-.415.025A1.65,1.65,0,0,1,810.179,207.316Z" transform="translate(-586.578 -152.789)"/><g class="m" transform="translate(217.779 50.524)"><path d="M817.963,224.56a1.925,1.925,0,0,1-.7.364.82.82,0,0,1-.74-.172,2.755,2.755,0,0,1-.367-.686c-.127-.229-.421-.421-.639-.282a.692.692,0,0,0-.2.282,1.106,1.106,0,0,1-.909.743.9.9,0,0,1-.771-.661,2.715,2.715,0,0,1-.048-1.079,2.461,2.461,0,0,0-.469-2.076,3.108,3.108,0,0,0-1.184-.528,1.555,1.555,0,0,1-1.017-.751c-.113-.282-.085-.582-.187-.847a1.476,1.476,0,0,0-1.1-.808,2.931,2.931,0,0,1-1.923.661,8.375,8.375,0,0,1-2.167-.373,1.307,1.307,0,0,1-.54-.234.6.6,0,0,1-.088-.1.791.791,0,0,0-.316.246.449.449,0,0,0,.133.534,1.274,1.274,0,0,0,.54.237,8.254,8.254,0,0,0,2.166.37,2.908,2.908,0,0,0,1.921-.658,1.477,1.477,0,0,1,1.1.8c.1.282.073.587.186.847a1.549,1.549,0,0,0,1.017.751,3.105,3.105,0,0,1,1.181.525,2.468,2.468,0,0,1,.472,2.079,2.714,2.714,0,0,0,.045,1.079.907.907,0,0,0,.774.661,1.124,1.124,0,0,0,.91-.743.657.657,0,0,1,.2-.282c.218-.144.511.048.638.282a2.7,2.7,0,0,0,.367.686.807.807,0,0,0,.74.169,1.875,1.875,0,0,0,.7-.362,3.825,3.825,0,0,0,1.3-1.562,2.531,2.531,0,0,0,.122-.373A4.029,4.029,0,0,1,817.963,224.56Z" transform="translate(-804.565 -215.55)"/><path d="M854,219.836c.059-.13.116-.26.169-.387a2.589,2.589,0,0,0,.1-.3A6.669,6.669,0,0,0,854,219.836Z" transform="translate(-840.037 -216.368)"/><path d="M807.062,210.992a1.159,1.159,0,0,0,.257-1.039,4.6,4.6,0,0,1-.054-.652.963.963,0,0,0-.156.2,1.873,1.873,0,0,0-.062,1.13A2.189,2.189,0,0,1,807.062,210.992Z" transform="translate(-806.307 -209.3)"/></g><path class="f" d="M759.8,350.268c-.525.037-1.263.076-2.15.107-.616.02-1.3.034-2.042.034-.644,0-1.325,0-2.031-.031a43.565,43.565,0,0,1-6.657-.686c-2.935-.565-5.649-1.539-7.344-3.189.282-.548.54-1,.636-1.164,0-.158,0-.342-.017-.539,2.98,1.412,12.27,5.336,19.39,3.107a2.015,2.015,0,0,0,.034.39l.161.135A8.552,8.552,0,0,0,759.8,350.268Z" transform="translate(-540.156 -256.003)"/><path class="i" d="M759.8,349.3c-.525.037-1.263.076-2.15.1-.616.023-1.3.034-2.042.034-.644,0-1.325,0-2.031-.031a43.534,43.534,0,0,1-6.657-.683c-2.935-.565-5.649-1.542-7.344-3.192.282-.548.54-1,.636-1.164,0-.158,0-.339-.017-.539,2.98,1.412,12.27,5.338,19.39,3.121a2.011,2.011,0,0,0,.034.39l.161.136A8.445,8.445,0,0,0,759.8,349.3Z" transform="translate(-540.156 -255.307)"/><path class="n" d="M309.793,481.885a3.884,3.884,0,0,1-.867-2.957l12.468-102.014,1.034-8.474a3.912,3.912,0,0,1,3.853-3.435l36.518-.243a3.906,3.906,0,0,0,3.881-4.014l-.014-.387a3.909,3.909,0,0,1,3.906-4.042h38.374a3.906,3.906,0,0,1,3.906,3.9,4.2,4.2,0,0,1-.034.525,3.906,3.906,0,0,0,3.773,4.423l36.855.941a3.9,3.9,0,0,1,3.751,4.564L438.772,478.286l-.347,2.034a3.82,3.82,0,0,1-.565,1.457Z" transform="translate(-231.121 -264.27)"/><g class="o" transform="translate(147.377 69.612)"><rect class="p" width="74.237" height="22.698" transform="matrix(0.568, -0.823, 0.823, 0.568, 0, 61.078)"/></g><rect class="q" width="21.579" height="73.243" transform="matrix(0.823, 0.568, -0.568, 0.823, 189.89, 70.438)"/><rect class="r" width="15.235" height="15.235" transform="matrix(0.821, 0.571, -0.571, 0.821, 191.169, 73.293)"/><rect class="s" width="15.255" height="15.255" transform="matrix(0.823, 0.568, -0.568, 0.823, 181.37, 88.368)"/><rect class="t" width="15.255" height="15.255" transform="matrix(0.823, 0.568, -0.568, 0.823, 170.898, 103.521)"/><g class="o" transform="translate(143.483 65.976)"><rect class="u" width="73.96" height="22.698" transform="matrix(0.28, -0.96, 0.96, 0.28, 0, 70.991)"/></g><rect class="q" width="21.579" height="72.966" transform="matrix(0.96, 0.28, -0.28, 0.96, 164.805, 66.663)"/><rect class="v" width="15.255" height="15.255" transform="matrix(0.96, 0.28, -0.28, 0.96, 167.524, 68.685)"/><rect class="w" width="15.255" height="15.255" transform="matrix(0.96, 0.28, -0.28, 0.96, 162.357, 86.363)"/><rect class="x" width="15.255" height="15.255" transform="matrix(0.96, 0.28, -0.28, 0.96, 157.191, 104.038)"/><g class="o" transform="translate(143.522 67.209)"><rect class="y" width="73.96" height="22.698" transform="matrix(0.08, -0.997, 0.997, 0.08, 0, 73.722)"/></g><rect class="q" width="21.579" height="72.966" transform="matrix(0.997, 0.08, -0.08, 0.997, 150.133, 67.768)"/><rect class="z" width="15.255" height="15.255" transform="matrix(0.997, 0.08, -0.08, 0.997, 153.195, 69.199)"/><rect class="aa" width="15.255" height="15.255" transform="matrix(0.997, 0.08, -0.08, 0.997, 151.716, 87.553)"/><rect class="ab" width="15.255" height="15.255" transform="matrix(0.997, 0.08, -0.08, 0.997, 150.24, 105.913)"/><g class="o" transform="translate(139.689 69.195)"><rect class="ac" width="22.698" height="73.96" transform="translate(0 1.034) rotate(-2.61)"/></g><rect class="ad" width="21.579" height="72.966" transform="translate(140.456 70.692) rotate(-2.61)"/><rect class="ae" width="15.255" height="15.255" transform="translate(143.67 71.722) rotate(-2.61)"/><rect class="af" width="15.274" height="15.274" transform="translate(145.106 89.538) rotate(-2.862)"/><rect class="ag" width="15.255" height="15.255" transform="translate(145.346 108.519) rotate(-2.61)"/><path class="ah" d="M310.1,412.234l-19.173,7.417L262.9,430.483c-1.059-1.977-2.618-4.649-4.547-7.838-6.638-11-17.62-28.107-27.4-43.142-11.016-16.947-20.5-31.248-20.5-31.248l6.864-1.977L273.391,330Z" transform="translate(-160.488 -245.384)"/><path class="ai" d="M327.542,412.234l-19.173,7.417a144.11,144.11,0,0,1-32.578,2.994c-6.638-11-17.619-28.107-27.4-43.142L234.77,346.266,290.834,330Z" transform="translate(-177.932 -245.384)"/><path class="ae" d="M335.025,386.824s-29.785,17.619-74.254,13.634L225.32,314.027l16.99-2.921,58.733-10.086,33.33,84.123Z" transform="translate(-171.151 -224.589)"/><path class="ai" d="M377.522,385.183a140.769,140.769,0,0,1-23.291-.664c-8.835-1.039-17.721-3.18-25.339-7.107a76.783,76.783,0,0,1-16.563-11.126c-12.352-11.109-19.995-27-26.859-55.141L344.2,301.06Z" transform="translate(-214.311 -224.618)"/><path class="q" d="M389.248,316.41s-21.955,4.3-44.3,1.652c-8.835-1.039-17.721-3.18-25.339-7.107a76.861,76.861,0,0,1-16.563-11.126C287.756,286.077,279.684,265,271.36,222.438c0,0,36.5,8.81,72.591-10.487C343.939,211.964,356.1,287.882,389.248,316.41Z" transform="translate(-204.187 -160.677)"/><path class="ai" d="M425.432,520.554c-8.835-1.039-17.721-3.18-25.339-7.107a76.852,76.852,0,0,1-16.563-11.126c13.015-1.056,14.885-8.171,14.885-8.171C408.064,509.462,425.432,520.554,425.432,520.554Z" transform="translate(-284.674 -363.169)"/><path class="ag" d="M338.2,283.885s29.68-1.678,37.968-8.075l1.257,4.039s-19.611,8.652-39.224,8.756Z" transform="translate(-252.148 -206.5)"/><path class="ag" d="M338.2,344.361s28.737-1.573,50.449-12.061l.734,1.678s-17.23,10.058-51.183,12.691Z" transform="translate(-252.148 -247.034)"/><path class="ag" d="M346.39,371.871s28.737-1.573,50.446-12.061l.734,1.678s-17.23,10.055-51.181,12.691Z" transform="translate(-258.024 -266.774)"/><path class="ag" d="M354.57,399.421s28.737-1.573,50.449-12.061l.732,1.678s-17.23,10.058-51.181,12.691Z" transform="translate(-263.894 -286.542)"/><path class="ag" d="M362.76,426.971S391.5,425.4,413.206,414.91l.734,1.678s-17.23,10.058-51.181,12.691Z" transform="translate(-269.771 -306.311)"/><path class="ag" d="M370.94,454.531s28.737-1.573,50.449-12.061l.732,1.678s-17.23,10.055-51.181,12.691Z" transform="translate(-275.64 -326.086)"/><path class="ae" d="M1059.253,827.2s-11.942-.72-10.536,7.649a2.035,2.035,0,0,0,1.062,2.149s.02-.622,1.223-.41a5.5,5.5,0,0,0,1.3.062,2.685,2.685,0,0,0,1.584-.655h0s3.358-1.387,4.664-6.872c0,0,.966-1.2.926-1.506l-2.014.847a3.609,3.609,0,0,1,.147,2.661s-.065-2.607-.452-2.542c-.079,0-1.048.5-1.048.5s1.183,2.542.282,4.372c0,0,.339-3.121-.661-4.189l-1.412.828s1.384,2.615.447,4.751c0,0,.24-3.274-.746-4.551l-1.285,1s1.3,2.579.509,4.35c0,0-.1-3.813-.788-4.1a7.308,7.308,0,0,0-1.294,1.412s.89,1.87.336,2.858c0,0-.339-2.542-.616-2.542a8.394,8.394,0,0,0-1.237,2.824,6.109,6.109,0,0,1,.966-3,3.388,3.388,0,0,0-1.717.89s.175-1.192,1.994-1.293a7.923,7.923,0,0,1,1.172-1.356,7.379,7.379,0,0,0-2.9.336s.966-1.13,3.237-.613l1.268-1.034a10.417,10.417,0,0,0-3.39.034s1.161-.994,3.731-.283l1.381-.825a12.583,12.583,0,0,0-3.237-.282,4.961,4.961,0,0,1,3.644.056l.986-.443s-1.486-.282-1.921-.339-.46-.164-.46-.164a5.127,5.127,0,0,1,2.794.311A12.556,12.556,0,0,0,1059.253,827.2Z" transform="translate(-761.894 -602.137)"/><ellipse class="a" cx="8.451" cy="1.429" rx="8.451" ry="1.429" transform="translate(280.683 234.161)"/><ellipse class="a" cx="28.81" cy="2.61" rx="28.81" ry="2.61" transform="translate(201.036 227.645)"/><path class="ae" d="M1090.764,729.407s-6.731-.406-5.931,4.313a1.15,1.15,0,0,0,.6,1.212s.014-.35.692-.232a3.137,3.137,0,0,0,.731.034,1.51,1.51,0,0,0,.893-.367h0s1.892-.783,2.629-3.875c0,0,.545-.675.522-.847l-1.13.483a2.049,2.049,0,0,1,.082,1.5s-.037-1.472-.255-1.438c-.045,0-.59.282-.59.282a3.351,3.351,0,0,1,.164,2.466s.192-1.76-.373-2.364l-.8.469a3.535,3.535,0,0,1,.251,2.678,5.018,5.018,0,0,0-.421-2.564l-.723.565a3.45,3.45,0,0,1,.282,2.451s-.059-2.149-.443-2.31a4.493,4.493,0,0,0-.731.788s.5,1.056.192,1.613c0,0-.192-1.432-.347-1.438a4.724,4.724,0,0,0-.7,1.6,3.462,3.462,0,0,1,.545-1.695,1.892,1.892,0,0,0-.969.5s.1-.672,1.13-.729a4.5,4.5,0,0,1,.661-.765,4.167,4.167,0,0,0-1.638.189,1.841,1.841,0,0,1,1.825-.344l.717-.585a5.906,5.906,0,0,0-1.912.02,2.306,2.306,0,0,1,2.1-.153l.78-.466a7.035,7.035,0,0,0-1.827-.155,2.79,2.79,0,0,1,2.053.031l.565-.249s-.848-.167-1.084-.192-.26-.093-.26-.093a2.915,2.915,0,0,1,1.576.175A6.827,6.827,0,0,0,1090.764,729.407Z" transform="translate(-787.844 -531.971)"/><ellipse class="a" cx="4.765" cy="0.805" rx="4.765" ry="0.805" transform="translate(293.523 202.566)"/><path class="ae" d="M946.908,743.9s-8.129-.491-7.169,5.206a1.387,1.387,0,0,0,.72,1.463s0-.424.847-.283a3.7,3.7,0,0,0,.884.042,1.825,1.825,0,0,0,1.079-.446h0s2.285-.943,3.175-4.677c0,0,.658-.814.63-1.025l-1.387.587a2.451,2.451,0,0,1,.1,1.811s-.045-1.774-.308-1.734c-.054,0-.712.345-.712.345a4.062,4.062,0,0,1,.2,2.977s.231-2.124-.449-2.853l-.966.565a4.273,4.273,0,0,1,.3,3.234s.164-2.229-.506-3.107l-.876.684s.887,1.754.345,2.96c0,0-.068-2.6-.534-2.791a5.3,5.3,0,0,0-.881.952s.6,1.274.229,1.946c0,0-.232-1.729-.421-1.737a5.906,5.906,0,0,0-.847,1.929,4.173,4.173,0,0,1,.658-2.039,2.288,2.288,0,0,0-1.167.607s.119-.811,1.356-.881a5.218,5.218,0,0,1,.8-.921,5,5,0,0,0-1.977.226,2.216,2.216,0,0,1,2.2-.415l.864-.706a7.18,7.18,0,0,0-2.308.023,2.808,2.808,0,0,1,2.542-.181l.94-.565a8.546,8.546,0,0,0-2.206-.189,3.376,3.376,0,0,1,2.48.04l.672-.3s-1.011-.2-1.308-.229-.311-.113-.311-.113a3.493,3.493,0,0,1,1.9.209A8.7,8.7,0,0,0,946.908,743.9Z" transform="translate(-683.724 -542.371)"/><ellipse class="a" cx="5.754" cy="0.972" rx="5.754" ry="0.972" transform="translate(251.833 207.727)"/><ellipse class="a" cx="8.451" cy="1.429" rx="8.451" ry="1.429" transform="translate(6.985 229.902)"/><path class="aj" d="M68.1,819.319s4.819-.147,6.273-1.181,7.414-2.26,7.776-.613,7.245,8.253,1.8,8.3-12.645-.847-14.1-1.731S68.1,819.319,68.1,819.319Z" transform="translate(-58.338 -594.628)"/><path class="ak" d="M84.033,831.832c-5.443.045-12.645-.847-14.1-1.731-1.1-.672-1.542-3.087-1.695-4.2H68.08s.305,3.89,1.754,4.773,8.674,1.78,14.1,1.751c1.57-.014,2.113-.565,2.085-1.412C85.8,831.51,85.2,831.823,84.033,831.832Z" transform="translate(-58.324 -601.215)"/><rect class="al" width="48.206" height="86.267" transform="matrix(0.309, -0.951, 0.951, 0.309, 223.056, 45.846)"/><rect class="am" width="47.543" height="85.075" transform="matrix(0.309, -0.951, 0.951, 0.309, 223.725, 45.716)"/><g class="an" transform="translate(238.272 16.669)"><circle class="ae" cx="8.858" cy="8.858" r="8.858"/></g><g class="an" transform="translate(268.322 21.626)"><rect class="ae" width="2.426" height="38.592" transform="matrix(0.309, -0.951, 0.951, 0.309, 0, 2.307)"/></g><g class="an" transform="translate(266.409 27.508)"><rect class="ae" width="2.426" height="19.659" transform="matrix(0.309, -0.951, 0.951, 0.309, 0, 2.307)"/></g><g class="an" transform="translate(264.493 33.395)"><rect class="ae" width="2.426" height="31.796" transform="matrix(0.309, -0.951, 0.951, 0.309, 0, 2.307)"/></g><g class="an" transform="translate(262.581 39.279)"><rect class="ae" width="2.426" height="38.592" transform="matrix(0.309, -0.951, 0.951, 0.309, 0, 2.307)"/></g><g class="o" transform="translate(285.663 56.406)"><rect class="ae" width="4.692" height="10.68" transform="matrix(0.309, -0.951, 0.951, 0.309, 0, 4.462)"/></g><path class="ao" d="M819.7,451.667a2.55,2.55,0,0,0-.028-.282,1.443,1.443,0,0,0-.048-.282c-.037-.192-.076-.381-.121-.565-.023-.088-.045-.178-.071-.263a7.163,7.163,0,0,0-1.412-2.731c-.037-.045-.076-.087-.113-.13s-.153-.164-.229-.24-.147-.144-.22-.209-.141-.124-.209-.181c-.135-.11-.262-.2-.373-.282a2.289,2.289,0,0,0-.229-.147,1.252,1.252,0,0,0-.531-.172l-1.172-.116h0l-1.6-.158-5.725-2.223-.226.079a12.986,12.986,0,0,1-.424-1.412,1.266,1.266,0,0,0,.452-.331,1.031,1.031,0,0,0,.311-.4c.144-.333-.133-1.042-.076-1.449a6.836,6.836,0,0,1,.707-1.873,8.686,8.686,0,0,0,.946-4.036,4.553,4.553,0,0,0-1.881-3.581c-.607-.4-1.322-.619-1.955-.986-.492-.282-.924-.661-1.393-.983a8,8,0,0,0-7.886-.565,38.5,38.5,0,0,0-3.325,2.164,5.611,5.611,0,0,1-3.757,1.034.921.921,0,0,0-.04.164l-.11-.014c-.226.616.328,1.226.847,1.647a5.722,5.722,0,0,0,3.33,1.624,3.5,3.5,0,0,1,1.449.107,1.33,1.33,0,0,1,.282.169,6.293,6.293,0,0,0,1.977,6.273l-2.924-1.051s-.121.062-.311.181l-4.056-2.7s-8.132-2.949-10.391,1.644,9.793,2.223,9.793,2.223l2.579,1.412a2.347,2.347,0,0,0,.282,1.548l7.031,4.344a37.125,37.125,0,0,1-4.169,1.13c-.6,0-2.26.593-3.313,2.963s-4.822,13.931-8.135,15.857-12.049,14.82-12.049,14.82l.039.1c-.155.042-.308.085-.458.135a9.259,9.259,0,0,0-4.539,3.423,1.452,1.452,0,0,0,1.017,2.291,6.342,6.342,0,0,0,6.24-2.353c.059-.076.113-.153.164-.229a1.206,1.206,0,0,0,.848.04l4.217-3.409s-3.3,3.248-1.365,6.214l-.147.206a47.135,47.135,0,0,0-7.061,15.371s-1.808,1.333-1.958,6.669a102.09,102.09,0,0,1-1.96,13.931s-1.2,10.228-.452,13.338c0,0,.088.124.249.314-.056.068-.119.141-.186.215a3.658,3.658,0,0,1-3.226,1.412c-2.107-.446-2.107,3.26.9,3.556a80.3,80.3,0,0,1,8.225,1.65,1.731,1.731,0,0,0,2.146-1.847,15.653,15.653,0,0,0-.9-4.079c-.031-.071-.062-.141-.093-.206.088-.085.178-.169.265-.26,0,0,0-6.522,1.056-8.3,0,0,2.861-13.487,2.709-16.9-.116-2.666,7.426-13.052,10.708-17.438l-.028-.167c.847-1.13,1.373-1.808,1.373-1.808l2.539,16.156a23.108,23.108,0,0,0,2.712,5.482s6.477,12.3,7.231,16.154a12.149,12.149,0,0,0,2.282,5.316l-.195.186a3.3,3.3,0,0,1-2.842,1.02c-2.107-.446-2.107,3.26.9,3.556a80.837,80.837,0,0,1,8.222,1.652,1.734,1.734,0,0,0,2.149-1.85,13.358,13.358,0,0,0-1.158-4.593,3.13,3.13,0,0,0-.172-.282,1.589,1.589,0,0,0,.6-.421s-3.917-9.338-3.917-11.863c0,0-1.655-9.632-7.228-13.188,0,0,.525-12.049,2.113-18.755.039-.164.079-.328.118-.486a44.7,44.7,0,0,0,4.4-.915l.15-4.446.754,3.556,8.434-5.186s-.073-.935-.214-2.367c-.073-.717-.161-1.559-.266-2.472-.084-.729-.181-1.5-.282-2.293-.028-.2-.054-.4-.082-.6-.11-.8-.232-1.607-.362-2.4q-.077-.446-.153-.881c-.071-.387-.141-.766-.215-1.13-.037-.184-.076-.367-.113-.545s-.079-.356-.119-.528-.079-.339-.119-.506c-.023-.082-.042-.164-.062-.243-.042-.161-.085-.319-.127-.472a8.459,8.459,0,0,1-.3-1.943V469.5a5.619,5.619,0,0,1,.076-.78c.017-.127.04-.257.065-.384a8.617,8.617,0,0,1,.427-1.514c.093-.246.2-.489.316-.729.282-.565.565-1.167.865-1.808.152-.319.3-.647.458-.98s.308-.672.463-1.017a44.612,44.612,0,0,0,3.3-9.3c.04-.251.071-.489.085-.712A4.543,4.543,0,0,0,819.7,451.667Z" transform="translate(-555.614 -315.251)"/><path class="ap" d="M840.513,471.111l-4.968-3.358s-7.889-2.923-10.081,1.607,9.5,2.192,9.5,2.192l4.968,2.774Z" transform="translate(-601.586 -343.562)"/><rect class="q" width="47.521" height="73.978" transform="matrix(0.541, -0.841, 0.841, 0.541, 185.025, 155.414)"/><rect class="n" width="13.445" height="3.163" transform="matrix(0.536, -0.844, 0.844, 0.536, 194.246, 152.625)"/><rect class="n" width="29.528" height="2.901" transform="matrix(0.536, -0.844, 0.844, 0.536, 202.781, 154.924)"/><rect class="n" width="29.528" height="2.901" transform="matrix(0.536, -0.844, 0.844, 0.536, 208.011, 158.244)"/><rect class="n" width="29.528" height="2.901" transform="matrix(0.536, -0.844, 0.844, 0.536, 213.24, 161.57)"/><rect class="n" width="29.486" height="2.897" transform="matrix(0.541, -0.841, 0.841, 0.541, 218.651, 166.388)"/><rect class="ad" width="29.528" height="2.901" transform="matrix(0.536, -0.844, 0.844, 0.536, 223.699, 168.214)"/><rect class="ad" width="29.528" height="2.901" transform="matrix(0.536, -0.844, 0.844, 0.536, 228.93, 171.534)"/><rect class="n" width="7.646" height="7.646" transform="matrix(0.536, -0.844, 0.844, 0.536, 250.888, 157.376)"/><path class="aq" d="M905.322,825.249a77.561,77.561,0,0,0-7.977-1.627c-2.923-.282-2.923-3.954-.875-3.508a3.164,3.164,0,0,0,2.754-1,6.39,6.39,0,0,0,.565-.618,1.7,1.7,0,0,1,.946-.579c1.1-.237,3.389-.6,4.776.155a2.065,2.065,0,0,1,.757.831,13.564,13.564,0,0,1,1.13,4.519,1.695,1.695,0,0,1-2.076,1.831Z" transform="translate(-651.698 -595.27)"/><path class="aq" d="M774.458,830.449a77.3,77.3,0,0,0-7.974-1.627c-2.924-.283-2.924-3.955-.878-3.505a3.5,3.5,0,0,0,3.127-1.381c.079-.085.15-.167.209-.243a1.7,1.7,0,0,1,.943-.565c1.1-.24,3.39-.6,4.779.155a2.585,2.585,0,0,1,1,1.336,15.819,15.819,0,0,1,.875,4.019,1.7,1.7,0,0,1-2.084,1.811Z" transform="translate(-557.799 -599.011)"/><path class="ai" d="M787.264,824.608c-3.488,3.6-6.479-.068-6.934-.672.079-.085.15-.167.209-.243a1.694,1.694,0,0,1,.943-.565c1.1-.24,3.389-.6,4.779.155A2.438,2.438,0,0,1,787.264,824.608Z" transform="translate(-569.396 -599.011)"/><path class="ai" d="M916.939,818.9c-1.511,1.031-6.6.777-6.6.777a4.777,4.777,0,0,1-.46-.565,6.421,6.421,0,0,0,.565-.618,1.7,1.7,0,0,1,.946-.579c1.1-.237,3.39-.6,4.776.155A2.068,2.068,0,0,1,916.939,818.9Z" transform="translate(-662.355 -595.27)"/><path class="ar" d="M823.494,695.088c-1.025,1.316-6.866,1.022-6.866,1.022a11.2,11.2,0,0,1-2.485-5.55c-.732-3.8-7.013-15.925-7.013-15.925a22.978,22.978,0,0,1-2.63-5.406L802.016,653.3s-11.979,15.778-11.832,19.139-2.632,16.665-2.632,16.665c-1.022,1.754-1.022,8.191-1.022,8.191-3.8,3.955-7.011-.731-7.011-.731-.731-3.067.438-13.148.438-13.148a102.2,102.2,0,0,0,1.9-13.733c.144-5.259,1.9-6.573,1.9-6.573a46.855,46.855,0,0,1,6.861-15.156c.881-1.262,1.466-1.937,1.466-1.937l23.667,2.777a14.893,14.893,0,0,0-1.017,3.135c-1.54,6.609-2.051,18.487-2.051,18.487,5.406,3.505,7.013,12.993,7.013,12.993C819.695,685.883,823.494,695.088,823.494,695.088Z" transform="translate(-568.641 -472.143)"/><g class="m" transform="translate(213.995 173.872)"><path d="M809.247,673.756l-.305-1.946s-11.979,15.778-11.832,19.139-2.63,16.665-2.63,16.665c-1.025,1.754-1.025,8.191-1.025,8.191a4.992,4.992,0,0,1-2.285,1.466c1.15.3,2.542.079,4.039-1.466,0,0,0-6.428,1.022-8.191,0,0,2.777-13.3,2.63-16.665C798.748,688.319,806.061,678.078,809.247,673.756Z" transform="translate(-791.17 -664.52)"/><path d="M852.338,683.386s-1.607-9.5-7.01-12.993c0,0,.511-11.877,2.048-18.487a14.915,14.915,0,0,1,1.02-3.135L824.728,646s-.057.062-.158.187l22.071,2.59a14.9,14.9,0,0,0-1.017,3.135c-1.539,6.609-2.051,18.487-2.051,18.487,5.406,3.505,7.013,12.993,7.013,12.993,0,2.483,3.8,11.688,3.8,11.688-.6.774-2.881.991-4.652,1.039,1.412.037,5.556.051,6.4-1.039C856.137,695.074,852.338,685.869,852.338,683.386Z" transform="translate(-815.136 -646)"/></g><path class="ap" d="M788.774,632.36a5.336,5.336,0,0,1-.692,1.209,6.107,6.107,0,0,1-6.05,2.319,1.438,1.438,0,0,1-.989-2.26,9,9,0,0,1,4.4-3.389,8.038,8.038,0,0,1,1.867-.378Z" transform="translate(-569.717 -460.547)"/><path class="as" d="M882.595,483.165l-11.716-4.285s-3.362,1.754-2.045,4.237l11.408,7.16Z" transform="translate(-632.682 -352.212)"/><path class="ai" d="M882.748,483.335l-11.719-4.285s-3.361,1.751-2.045,4.237l11.394,7.157Z" transform="translate(-632.79 -352.334)"/><path class="ap" d="M903.81,468.317s-.147,6.866,2.923,9.205-8.914,3.652-8.914,3.652,1.9-7.013,0-10.665S903.81,468.317,903.81,468.317Z" transform="translate(-653.488 -344.426)"/><path class="ai" d="M844.553,648.727a14.9,14.9,0,0,0-1.017,3.135c-14.123,2.158-23.966-3.72-23.966-3.72-.054-.085-.1-.169-.15-.254.881-1.262,1.466-1.938,1.466-1.938Z" transform="translate(-597.445 -472.092)"/><path class="ai" d="M800.637,632.4a5.349,5.349,0,0,1-.692,1.209c-1.353-.226-2.435-2.824-2.635-3.316a8.038,8.038,0,0,1,1.867-.378Z" transform="translate(-581.58 -460.583)"/><path class="as" d="M834.1,490.78l-5.259,1.9-2.192,2.923s-4.519,1.46-5.112,1.46-2.192.585-3.214,2.921-4.675,13.739-7.889,15.634-11.688,14.609-11.688,14.609,1.46,3.954,3.214,3.361l4.09-3.361s-3.214,3.214-1.316,6.138c0,0,11.982,7.157,28.491,2.774l.144-4.381.731,3.505,8.191-5.112s-.732-9.431-2.051-14.23a8.677,8.677,0,0,1,.565-6.047c2.121-4.42,5.395-11.8,5-14.5a6.724,6.724,0,0,0-2.949-4.966,1.223,1.223,0,0,0-.514-.172l-2.675-.266Z" transform="translate(-582.614 -360.751)"/><path class="f" d="M845.713,542.76s-2.923,13.586-6.137,15.778-11.832,9.205-12.126,10.375" transform="translate(-603.207 -398.049)"/><path class="as" d="M841.061,541.21s-2.921,13.586-6.135,15.778-11.835,9.205-12.126,10.372" transform="translate(-599.87 -396.937)"/><path class="ai" d="M897.28,500.906s10.081-3.361,12.993-2.486" transform="translate(-653.314 -366.129)"/><g class="m" transform="translate(250.997 130.029)"><path d="M930.181,518.836c2.121-4.421,5.4-11.8,5-14.5a6.724,6.724,0,0,0-2.949-4.966,1.22,1.22,0,0,0-.514-.172l-1.13-.113a1.13,1.13,0,0,1,.339.139,6.741,6.741,0,0,1,2.946,4.968c.4,2.689-2.875,10.075-4.994,14.5a8.671,8.671,0,0,0-.565,6.045c1.322,4.8,2.053,14.23,2.053,14.23l-7.045,4.4.178.847,8.191-5.112s-.731-9.431-2.051-14.23A8.678,8.678,0,0,1,930.181,518.836Z" transform="translate(-922.995 -496.743)"/><path d="M893.361,462.395l1.265.127-5.5-2.172-.494.178Z" transform="translate(-888.63 -460.35)"/></g><path class="f" d="M887.45,586.185s4.519-2.483,5.991-1.9,6.866-.147,6.866-.147" transform="translate(-646.26 -427.741)"/><path class="f" d="M903.331,471.63c-.167-1.466.511-1.243.511-1.243s-7.889-1.46-5.991,2.192a8.367,8.367,0,0,1,.8,3.211h.076C900.921,475.794,902.2,473.342,903.331,471.63Z" transform="translate(-653.512 -345.911)"/><circle class="ap" cx="6.282" cy="6.282" r="6.282" transform="translate(238.928 116.734)"/><path class="ai" d="M878.441,445.142a8.762,8.762,0,0,0,.918-3.98,4.513,4.513,0,0,0-1.825-3.533c-.587-.4-1.282-.607-1.9-.969-.477-.282-.9-.652-1.353-.969a7.657,7.657,0,0,0-7.649-.565,35.132,35.132,0,0,0-3.223,2.135,5.4,5.4,0,0,1-3.644,1.02c-.22.607.319,1.206.813,1.624a5.5,5.5,0,0,0,3.231,1.6,3.378,3.378,0,0,1,1.412.107,2.026,2.026,0,0,1,.718.667,13.145,13.145,0,0,1,1.491,2.528,2.1,2.1,0,0,0,.667.983c.565.361,1.3.059,1.977.034a4.068,4.068,0,0,1,2.745,1.313,8.384,8.384,0,0,0,2.474,1.873c.726.282,2.178.266,2.542-.6.138-.328-.13-1.028-.073-1.429a6.919,6.919,0,0,1,.672-1.836Z" transform="translate(-626.363 -320.268)"/><path class="as" d="M878.908,444.612a8.721,8.721,0,0,0,.918-3.977A4.518,4.518,0,0,0,878,437.1c-.59-.4-1.285-.61-1.9-.972-.477-.282-.9-.65-1.353-.969a7.657,7.657,0,0,0-7.649-.565,35.1,35.1,0,0,0-3.223,2.132,5.387,5.387,0,0,1-3.644,1.02c-.22.61.316,1.209.813,1.624a5.519,5.519,0,0,0,3.231,1.6,3.335,3.335,0,0,1,1.412.107,1.977,1.977,0,0,1,.718.667,12.986,12.986,0,0,1,1.488,2.525,2.1,2.1,0,0,0,.67.983c.565.361,1.3.059,1.977.034a4.073,4.073,0,0,1,2.743,1.316,8.308,8.308,0,0,0,2.477,1.87c.726.282,2.178.266,2.542-.6.141-.328-.127-1.028-.071-1.429a6.919,6.919,0,0,1,.667-1.833Z" transform="translate(-626.699 -319.888)"/><path class="ai" d="M437.854,531.465a2.912,2.912,0,0,1-1.87.661l-126.192-.537a3.884,3.884,0,0,1-.867-2.957l12.468-102.014,7.818-.085a2.955,2.955,0,0,1,2.881,2.18l1.46,5.389a2.954,2.954,0,0,0,2.921,2.18l31.2-.749a2.954,2.954,0,0,0,2.884-2.954v-3.57a2.955,2.955,0,0,1,2.921-2.955l43.238-.466a2.954,2.954,0,0,1,2.929,2.4l19.122,99.989.124.644A2.938,2.938,0,0,1,437.854,531.465Z" transform="translate(-231.121 -313.974)"/><path class="at" d="M350.007,430.6l-43.238.466a2.954,2.954,0,0,0-2.923,2.952v3.573a2.954,2.954,0,0,1-2.881,2.952l-31.2.749a2.951,2.951,0,0,1-2.923-2.181l-1.466-5.386a2.952,2.952,0,0,0-2.884-2.181l-41.676.449a2.952,2.952,0,0,0-2.881,3.446L234.7,534.116a2.955,2.955,0,0,0,2.9,2.46l131.663.565a2.955,2.955,0,0,0,2.912-3.508L352.936,433A2.952,2.952,0,0,0,350.007,430.6Z" transform="translate(-165.821 -317.569)"/><path class="d" d="M867.833,164.641l-.226,2.514.164,4.446-.477,7.5s-.068,3.285-1.924,4.824l-4.737,7.273-.028.014-1.782.87-2.72.282-1.412-3.421.935-3.757.52-.7.144-.158a16.352,16.352,0,0,1,4.477-3.582,2.45,2.45,0,0,0,.952-2.175c-.2-1.328,1.559-8.383,1.559-8.383s1.13-4.666.884-5.121-.045-10.784,3.853-10.942S867.833,164.641,867.833,164.641Z" transform="translate(-622.753 -119.184)"/><ellipse class="a" cx="4.579" cy="0.63" rx="4.579" ry="0.63" transform="translate(38.193 197.338)"/><ellipse class="a" cx="4.579" cy="0.63" rx="4.579" ry="0.63" transform="translate(20.656 199.114)"/><ellipse class="a" cx="4.579" cy="0.63" rx="4.579" ry="0.63" transform="translate(0 196.708)"/><ellipse class="a" cx="3.254" cy="0.446" rx="3.254" ry="0.446" transform="translate(29 204.362)"/><ellipse class="a" cx="3.254" cy="0.446" rx="3.254" ry="0.446" transform="translate(10.798 203.916)"/><path class="ae" d="M73,648.8s6.42-21.049-1.006-29.48c-5.556-6.307-11.863-5.553-14.688-4.773a5.222,5.222,0,0,0-3.367,2.8c-.989,2.13-.811,5.587,6.16,9.623C71.772,633.721,72.5,642.989,72.5,642.989Z" transform="translate(-47.868 -449.19)"/><path class="au" d="M70.54,626.41s18.924,5.932,14.688,31.268" transform="translate(-60.089 -458.072)"/><path class="au" d="M104.752,633.92s-2.607,1.757-1.777,4.4" transform="translate(-83.246 -463.461)"/><path class="au" d="M77.26,636.931a3.286,3.286,0,0,1,3.534-.726" transform="translate(-64.911 -464.906)"/><path class="au" d="M103.75,666.964s2.8-1.412,3.522.359" transform="translate(-83.919 -486.789)"/><path class="au" d="M122.828,678.764s-2.1-.167-2.138.847" transform="translate(-96.074 -495.631)"/><path class="ae" d="M94.624,699.657s-7.522-15.3-9.587-14.97c-.98.161-1.432,1.13-1.638,2.1a6.155,6.155,0,0,0,.41,3.723A16.484,16.484,0,0,0,94.624,699.657Z" transform="translate(-69.229 -499.884)"/><path class="au" d="M89.71,695s7.892,11.445,9.417,11.948" transform="translate(-73.845 -507.288)"/><line class="au" x2="1.842" transform="translate(15.14 189.5)"/><line class="au" x2="2.89" y2="0.124" transform="translate(17.345 193.686)"/><line class="au" x1="0.314" y2="1.505" transform="translate(18.792 190.336)"/><line class="au" x1="0.056" y2="1.367" transform="translate(22.119 194.914)"/><path class="ae" d="M122.66,699.657s7.519-15.3,9.584-14.97c.983.161,1.435,1.13,1.638,2.1a6.155,6.155,0,0,1-.41,3.723A16.492,16.492,0,0,1,122.66,699.657Z" transform="translate(-97.488 -499.884)"/><path class="au" d="M132.47,695s-7.909,11.445-9.42,11.948" transform="translate(-97.768 -507.288)"/><line class="au" x1="1.842" transform="translate(33.587 189.5)"/><line class="au" x1="2.89" y2="0.124" transform="translate(30.333 193.686)"/><line class="au" x2="0.314" y2="1.505" transform="translate(31.463 190.336)"/><line class="au" x2="0.056" y2="1.367" transform="translate(28.392 194.914)"/><path class="ae" d="M75.805,745.07a1.3,1.3,0,0,1-.426-.647.565.565,0,0,1,.3-.658.83.83,0,0,1,.791.282,1.01,1.01,0,0,0,.765.359,1.169,1.169,0,0,1-.362-1.1.446.446,0,0,1,.1-.223c.152-.164.429-.093.613.037a2.318,2.318,0,0,1,.746,1.906,3.646,3.646,0,0,0,0-.785.8.8,0,0,1,.316-.686.884.884,0,0,1,.449-.107.932.932,0,0,1,.732.209.726.726,0,0,1-.028.9,2.887,2.887,0,0,1-.757.6,1.7,1.7,0,0,0-.539.517.374.374,0,0,0-.04.091H76.819A4.556,4.556,0,0,1,75.805,745.07Z" transform="translate(-63.547 -541.725)"/><path class="ae" d="M177.254,723.293a1.279,1.279,0,0,1-.427-.644.565.565,0,0,1,.3-.658.83.83,0,0,1,.791.282,1.041,1.041,0,0,0,.771.37,1.169,1.169,0,0,1-.364-1.093.45.45,0,0,1,.1-.223c.152-.164.429-.093.613.034a2.285,2.285,0,0,1,.746,1.909,3.663,3.663,0,0,0,0-.788.808.808,0,0,1,.282-.7.9.9,0,0,1,.449-.1.944.944,0,0,1,.732.206.726.726,0,0,1-.031.9,2.818,2.818,0,0,1-.754.6,1.681,1.681,0,0,0-.539.514.465.465,0,0,0-.04.093h-1.607A4.519,4.519,0,0,1,177.254,723.293Z" transform="translate(-136.341 -526.111)"/><path class="ae" d="M143.438,745.106a1.323,1.323,0,0,1-.429-.647.565.565,0,0,1,.3-.658.829.829,0,0,1,.791.282,1.05,1.05,0,0,0,.771.373,1.177,1.177,0,0,1-.364-1.1.449.449,0,0,1,.1-.223c.153-.164.429-.093.613.037a2.285,2.285,0,0,1,.746,1.906,3.639,3.639,0,0,0,0-.785.807.807,0,0,1,.3-.695.871.871,0,0,1,.449-.108.937.937,0,0,1,.732.209.723.723,0,0,1-.031.9,2.87,2.87,0,0,1-.754.6,1.7,1.7,0,0,0-.539.517.371.371,0,0,0-.04.09h-1.638A4.607,4.607,0,0,1,143.438,745.106Z" transform="translate(-112.074 -541.761)"/><path class="ae" d="M45.187,706.25s-.613.8.282,2.014,1.635,2.234,1.336,2.988c0,0-1.353-2.26-2.455-2.279S43.976,707.592,45.187,706.25Z" transform="translate(-40.908 -515.361)"/><path class="ai" d="M45.193,706.25a1.016,1.016,0,0,0-.124.251c-1.073,1.263-1.647,2.441-.613,2.472.96.028,2.116,1.745,2.39,2.18a1,1,0,0,1-.031.1s-1.353-2.26-2.455-2.279S43.981,707.592,45.193,706.25Z" transform="translate(-40.913 -515.361)"/><path class="av" d="M44.66,709.41c0,.283.031.511.071.511s.071-.229.071-.511-.04-.15-.079-.15S44.66,709.128,44.66,709.41Z" transform="translate(-41.519 -517.498)"/><path class="av" d="M42.885,710.578c.249.135.463.215.483.181s-.167-.169-.415-.305-.15-.037-.169,0S42.636,710.443,42.885,710.578Z" transform="translate(-40.136 -518.327)"/><path class="ae" d="M55.876,706.25s.616.8-.282,2.014-1.635,2.234-1.336,2.988c0,0,1.353-2.26,2.455-2.279S57.088,707.592,55.876,706.25Z" transform="translate(-48.357 -515.361)"/><path class="ai" d="M55.962,706.25a1.073,1.073,0,0,1,.127.251c1.073,1.263,1.647,2.441.613,2.472-.96.028-2.116,1.745-2.392,2.18a.577.577,0,0,0,.034.1s1.353-2.26,2.455-2.279S57.174,707.592,55.962,706.25Z" transform="translate(-48.443 -515.361)"/><path class="av" d="M63.841,709.41c0,.283-.031.511-.071.511s-.071-.229-.071-.511.04-.15.079-.15S63.841,709.128,63.841,709.41Z" transform="translate(-55.181 -517.498)"/><path class="av" d="M64.36,710.578c-.249.135-.466.215-.483.181s.167-.169.415-.305.15-.037.167,0S64.606,710.443,64.36,710.578Z" transform="translate(-55.308 -518.327)"/><path class="aj" d="M47.3,721.236a6.308,6.308,0,0,1-2.231-.421c-.517-.367-2.638-.808-2.768-.218s-2.576,2.938-.641,2.952a16.5,16.5,0,0,0,5.016-.616C47.189,722.62,47.3,721.236,47.3,721.236Z" transform="translate(-38.831 -525.449)"/><path class="ak" d="M41.625,725.69a16.311,16.311,0,0,0,5.016-.616c.393-.238.548-1.1.6-1.494H47.3s-.107,1.384-.624,1.695a16.482,16.482,0,0,1-5.016.616c-.565,0-.751-.2-.74-.5C41,725.577,41.224,725.676,41.625,725.69Z" transform="translate(-38.834 -527.796)"/><circle class="a" cx="6.109" cy="6.109" r="6.109" transform="translate(3.477 29.682)"/><circle class="a" cx="6.109" cy="6.109" r="6.109" transform="translate(297.254 78.504)"/><circle class="a" cx="6.109" cy="6.109" r="6.109" transform="translate(187.431 10.28)"/><circle class="a" cx="10.239" cy="10.239" r="10.239" transform="translate(11.566 59.258)"/><path class="am" d="M462.51,608.34l-.361-.361a.387.387,0,0,1,0-.565l3.172-3.175a.387.387,0,0,1,.565,0l3.172,3.172a.393.393,0,0,1,0,.565l-.362.361a.393.393,0,0,1-.565,0l-1.875-1.977v4.692a.389.389,0,0,1-.39.392h-.523a.392.392,0,0,1-.393-.392v-4.686l-1.876,1.977a.392.392,0,0,1-.565,0Z" transform="translate(-340.999 -442.075)"/><path class="am" d="M456.164,592.188a6.437,6.437,0,1,1-6.437,6.437,6.437,6.437,0,0,1,6.437-6.437m0-.847a7.285,7.285,0,1,0,7.284,7.285A7.285,7.285,0,0,0,456.164,591.34Z" transform="translate(-331.566 -432.907)"/></g></svg>