<svg xmlns="http://www.w3.org/2000/svg" width="320" height="201.242" viewBox="0 0 320 201.242"><defs><style>.a{fill:#a0616a;}.b{fill:#575a89;}.c{opacity:0.1;}.d{fill:#3f3d56;}.e{fill:#2f2e41;}.f{fill:#d0cde1;}.g{fill:#3182ce;}</style></defs><g transform="translate(-0.001 0)"><path class="a" d="M466.492,398.128s26.237,1.264,27.818,10.432-30.663.948-30.663.948Z" transform="translate(-346.75 -313.904)"/><path class="b" d="M337.544,306.128s4.426,1.264,7.9,8.851,10.432,14.541,10.432,14.541l28.134,5.374-4.742,14.225-26.87-3.477-16.754-9.483Z" transform="translate(-259.213 -250.987)"/><path class="c" d="M337.544,306.128s4.426,1.264,7.9,8.851,10.432,14.541,10.432,14.541l28.134,5.374-4.742,14.225-26.87-3.477-16.754-9.483Z" transform="translate(-259.213 -250.987)"/><rect class="d" width="33.192" height="0.632" transform="translate(260.57 29.378)"/><rect class="d" width="105.266" height="0.632" transform="translate(129.383 29.378)"/><rect class="d" width="249.413" height="95.15" transform="translate(9.576 105.561)"/><path class="a" d="M115.793,112.021l2.845,18.018,19.6.948-2.213-26.553Z" transform="translate(-79.189 -71.421)"/><path class="e" d="M142.1,627.609l-.948,39.83h29.715l4.426-15.806,3.477,15.806h30.979s.632-45.52-2.845-45.836S142.1,627.609,142.1,627.609Z" transform="translate(-126.197 -466.728)"/><circle class="a" cx="17.07" cy="17.07" r="17.07" transform="translate(25.856 11.202)"/><path class="b" d="M132.492,398.615l8.851-43.624-11.7-57.849,26.937-10.108,13.209-1.588,6.64-1.24,4.74,1.24s18.967,4.742,19.915,8.219-3.793,31.927-3.793,31.927l-4.426,23.392,9.8,42.043s-40.779,13.909-69.545,7.587Z" transform="translate(-118.332 -235.995)"/><path class="c" d="M82.293,243.934v11.7l37.3.051-35.4-3.844Z" transform="translate(-56.279 -166.823)"/><path class="c" d="M72.159,331.631l46.827-6.7L72.159,338.2Z" transform="translate(-49.348 -222.218)"/><path class="c" d="M296.432,248.934l-5.02,18.09,8.5-17.493Z" transform="translate(-199.293 -170.242)"/><path class="e" d="M193.007,142.846l3.139-1.257s-6.563-7.226-15.7-6.6l2.568-2.828s-6.278-2.513-11.985,4.084c-3,3.468-6.472,7.545-8.636,12.137h-3.361l1.4,3.089-4.911,3.089,5.04-.555a17.263,17.263,0,0,0-.137,5.124,6.63,6.63,0,0,0,2.428,4.337h0s3.893-8.058,3.893-9.315V157.3s3.139-2.828,3.139-4.713l1.712,2.2.856-3.456,10.559,3.456-1.712-2.828,6.563.943-2.568-3.456s7.419,4.084,7.7,7.54a16.593,16.593,0,0,0,2.457,6.73S201.283,147.558,193.007,142.846Z" transform="translate(-136.032 -131.694)"/><rect class="f" width="121.387" height="126.761" transform="translate(73.747 74.266)"/><rect class="g" width="89.776" height="12.645" transform="translate(86.392 102.084)"/><rect class="g" width="58.795" height="6.322" transform="translate(101.825 135.592)"/><rect class="g" width="58.795" height="6.322" transform="translate(101.939 146.656)"/><rect class="g" width="29.398" height="6.322" transform="translate(102.052 157.72)"/><rect class="g" width="13.593" height="6.322" transform="translate(164.156 189.647)"/><path class="a" d="M299.647,414.16s27.5-4.109,31.611,1.9-29.082,9.167-29.082,9.167Z" transform="translate(-234.593 -323.93)"/><path class="b" d="M108.33,324.128h-1.981a3.229,3.229,0,0,0-2.2.856c-1.88,1.746-5.856,6.251-7.517,14.318-2.213,10.748-6.006,31.611,2.529,33.192s64.487-6.006,64.487-6.006l-4.109-14.541-40.462.316s.632-6.954-.632-11.38S108.33,324.128,108.33,324.128Z" transform="translate(-93.853 -263.297)"/><circle class="f" cx="12.961" cy="12.961" r="12.961" transform="translate(116.423 16.733)"/><circle class="d" cx="12.961" cy="12.961" r="12.961" transform="translate(175.536 16.733)"/><path class="d" d="M848.424,210.181A13.277,13.277,0,1,1,861.7,196.9,13.277,13.277,0,0,1,848.424,210.181Zm0-25.921A12.645,12.645,0,1,0,861.068,196.9,12.645,12.645,0,0,0,848.424,184.26Z" transform="translate(-600.814 -167.211)"/><path class="d" d="M1035.427,210.181A13.277,13.277,0,1,1,1048.7,196.9,13.277,13.277,0,0,1,1035.427,210.181Zm0-25.921a12.645,12.645,0,1,0,12.644,12.645,12.645,12.645,0,0,0-12.644-12.645Z" transform="translate(-728.703 -167.211)"/><path class="d" d="M391.49,64.587,385.873,57.1l2.023-1.518,3.867,5.156,17.778-17.778,1.788,1.788Z" transform="translate(-263.893 -29.379)"/><rect class="d" width="258.136" height="0.879" transform="translate(5.215 200.362)"/></g></svg>