<svg xmlns="http://www.w3.org/2000/svg" width="216.055" height="151.27" viewBox="0 0 216.055 151.27"><defs><style>.a{fill:#f2f2f2;}.b{fill:#3f3d56;}.c{opacity:0.1;}.d{fill:#2f2e41;}.e{fill:#3182ce;}.f{fill:#ffb9b9;}.g{fill:#d0cde1;}.h{fill:#a8a8a8;}.i{opacity:0.2;}</style></defs><path class="a" d="M898.854,328.085c0,21.149-12.573,28.534-28.082,28.534s-28.082-7.384-28.082-28.534,28.082-48.054,28.082-48.054S898.854,306.936,898.854,328.085Z" transform="translate(-685.242 -239.007)"/><path class="b" d="M861.931,274.812l.288-17.7,11.969-21.9-11.924,19.121.129-7.959,8.249-15.842-8.215,13.737h0l.232-14.314,8.834-12.612-8.8,10.362.145-26.247-.913,34.746.075-1.433-8.981-13.747,8.837,16.5-.837,15.986-.025-.424-10.354-14.467,10.322,15.966-.1,2-.019.03.009.164-2.123,40.558h2.837l.34-20.949,10.3-15.926Z" transform="translate(-677.424 -160.435)"/><path class="a" d="M547.581,178.431c0,27.353-16.261,36.9-36.32,36.9s-36.32-9.551-36.32-36.9,36.32-62.15,36.32-62.15S547.581,151.078,547.581,178.431Z" transform="translate(-392.38 -108.602)"/><path class="b" d="M520.215,132.578l.372-22.892,15.48-28.321L520.645,106.1l.167-10.293,10.669-20.49L520.856,93.078h0l.3-18.513,11.425-16.312L521.2,71.655l.188-33.946-1.181,44.938.1-1.854L508.693,63.014l11.429,21.338-1.082,20.675-.032-.549-13.391-18.71,13.35,20.649L518.832,109l-.024.039.011.212-2.746,52.455h3.669l.44-27.094,13.317-20.6Z" transform="translate(-402.656 -30.03)"/><path class="b" d="M280.866,728.94c0,2.059-5.983,3.981-16.319,5.6-18.73,2.936-51.754,4.885-89.365,4.885-58.366,0-105.682-4.694-105.682-10.485,0-.8.908-1.584,2.629-2.334a45.088,45.088,0,0,1,8.791-2.413c7.984-1.558,19.781-2.89,34.17-3.879,16.7-1.146,36.9-1.829,58.689-1.855q.7,0,1.4,0,3.937,0,7.805.029,1.817.012,3.619.033c12.833.136,24.978.5,36.015,1.051l1.472.075.5.026c.045,0,.09,0,.134.008q3.253.171,6.364.365,1.02.061,2.022.128c6.49.422,12.481.912,17.869,1.464q1.381.14,2.708.287c6.818.747,12.558,1.6,16.981,2.519C277.209,725.8,280.866,727.329,280.866,728.94Z" transform="translate(-69.5 -588.155)"/><ellipse class="c" cx="23.027" cy="5.336" rx="23.027" ry="5.336" transform="translate(130.301 134.795)"/><path class="c" d="M991.925,752.346c0,2.059-5.983,3.981-16.319,5.6-7.815-.853-13.226-2.7-13.226-4.83,0-2.657,8.381-4.861,19.351-5.268C988.268,749.21,991.925,750.736,991.925,752.346Z" transform="translate(-780.56 -611.561)"/><path class="c" d="M194.355,733.093c0,3.516-25.062,6.365-55.977,6.365-30.624,0-55.505-2.8-55.97-6.266,5.944-2.595,21.593-4.823,42.96-6.292,4.175-.112,8.531-.172,13.01-.172C169.292,726.728,194.355,729.577,194.355,733.093Z" transform="translate(-79.779 -594.741)"/><rect class="b" width="92.858" height="139.1" transform="translate(11.42)"/><rect class="d" width="87.242" height="42.685" transform="translate(17.037 48.301)"/><rect class="b" width="86.306" height="40.626" transform="translate(52.233 49.237)"/><rect class="e" width="19.283" height="6.927" transform="translate(57.522 55.228)"/><rect class="e" width="70.954" height="1.872" transform="translate(62.296 67.397)"/><rect class="e" width="70.954" height="1.872" transform="translate(62.296 72.265)"/><rect class="e" width="70.954" height="1.872" transform="translate(62.296 77.132)"/><rect class="e" width="70.954" height="1.872" transform="translate(62.296 82)"/><rect class="a" width="19.283" height="6.927" transform="translate(17.598 15.726)"/><rect class="a" width="70.954" height="1.872" transform="translate(22.372 27.895)"/><rect class="a" width="70.954" height="1.872" transform="translate(22.372 32.763)"/><rect class="a" width="70.954" height="1.872" transform="translate(22.372 37.63)"/><rect class="a" width="70.954" height="1.872" transform="translate(22.372 42.498)"/><rect class="a" width="19.283" height="6.927" transform="translate(18.347 95.292)"/><rect class="a" width="70.954" height="1.872" transform="translate(23.121 107.461)"/><rect class="a" width="70.954" height="1.872" transform="translate(23.121 112.329)"/><rect class="a" width="70.954" height="1.872" transform="translate(23.121 117.196)"/><rect class="a" width="70.954" height="1.872" transform="translate(23.121 122.064)"/><path class="f" d="M792.563,195.918s3.849,4.932,3.368,8.421,7.939-4.812,7.939-4.812-2.887-6.015-1.323-8.9S792.563,195.918,792.563,195.918Z" transform="translate(-645.323 -167.316)"/><path class="d" d="M799.162,709.342s5.052,5.533,4.21,6.736-15.638,5.774-17.322,5.534-2.526-1.443-1.925-1.8,4.451-2.406,4.451-2.406l3.248-3.729s2.406-1.323,2.406-2.045S799.162,709.342,799.162,709.342Z" transform="translate(-638.449 -580.896)"/><path class="f" d="M807.686,739.469a23.243,23.243,0,0,1-2.286,3.248c-.361.12,1.8,4.451,1.8,4.451l5.052-1.564,2.767-2.286-.6-3.128Z" transform="translate(-655.514 -604.888)"/><path class="g" d="M764.1,446.464,761.7,457.17s-8.3,18.646-2.526,21.893L771.8,503.243l6.737-3.007-11.308-24.781,5.173-28.51Z" transform="translate(-617.104 -371.549)"/><path class="c" d="M764.1,446.464,761.7,457.17s-8.3,18.646-2.526,21.893L771.8,503.243l6.737-3.007-11.308-24.781,5.173-28.51Z" transform="translate(-617.104 -371.549)"/><path class="g" d="M790.655,451.912h-1.22a68,68,0,0,0,.619,11.067c.842,6.135,3.007,20.209,3.007,20.209s-.241,2.646.481,3.489.842-.241.962,1.684,1.263,15.307,1.263,15.307.782,2.738-.06,3.339-2.526,3.849-1.323,4.331,9.5,1.083,9.864.722,0-22.976,0-22.976a36.156,36.156,0,0,0-.481-4.812c-.241-.241-1.323-3.489-.962-4.21s.12-2.887.12-3.248-1.083,0-.12-1.564,1.083-14.074,1.083-14.074,5.173-7.939,3.609-9.984Z" transform="translate(-642.814 -375.313)"/><circle class="f" cx="7.939" cy="7.939" r="7.939" transform="translate(142.669 14.528)"/><path class="d" d="M796.167,230.255s-4.812,1.2-6.736,4.09l-1.684.361v1.684s-3.128,9.984-2.406,14.315,0,12.751-1.2,15.037-1.564,2.767-.962,3.729,1.443,4.21.842,5.654,0,2.887,5.534,3.248,13.353.361,13.353-1.564-.481-7.338,0-8.781a6.847,6.847,0,0,0,.481-3.729c-.241-1.323.481-16.119.481-16.119S803.986,233.383,796.167,230.255Z" transform="translate(-637.619 -199.367)"/><path class="f" d="M747.127,412.792l-6.616,9.864s-6.977,6.376-4.451,9.263,9.142-8.42,9.142-8.42l7.218-8.18Z" transform="translate(-599.887 -344.734)"/><path class="d" d="M763.126,752.257s-.241-1.564-1.083-1.564-6.5,3.849-6.5,3.849-7.458.842-4.571,2.406,20.57,1.8,20.691,1.2.361-6.533-.481-6.514-7.578,1.342-7.578,1.342Z" transform="translate(-611.676 -613.827)"/><path class="d" d="M778.373,134.807a1.991,1.991,0,0,1-.907.205c-.324.018-.712,0-.884-.277a1.268,1.268,0,0,1-.11-.578,1.9,1.9,0,0,0-2.224-1.621,2.738,2.738,0,0,0,.354,1.129,2.414,2.414,0,0,1-2.122-.282l-.122,1.62a1.322,1.322,0,0,1-1.361-.046.754.754,0,0,1,.019-1.206c-.526-.11-1.169-.345-1.208-.881-.035-.489.484-.847.579-1.327.078-.392-.137-.818.015-1.188.2-.486.925-.61,1.071-1.115a4.369,4.369,0,0,0-.007-.8c.067-.7.943-.986,1.642-.947a3.472,3.472,0,0,0,2.056-.146,5.958,5.958,0,0,0,.742-.694,2.2,2.2,0,0,1,2.559-.223,4.348,4.348,0,0,0,.84.523c.642.217,1.311-.194,1.982-.289a1.647,1.647,0,0,1,1.38.4,1.13,1.13,0,0,1,.206,1.361,2.213,2.213,0,0,1,1.182.017.763.763,0,0,1,.483.952,1.233,1.233,0,0,0-.15.306c-.035.21.167.389.371.449s.425.049.625.122c.825.3.627,1.62,1.276,2.211a5.169,5.169,0,0,0,.7.43,1.712,1.712,0,0,1,.6,2.068,1.9,1.9,0,0,0-.322.878c.037.442.51.684.842.977a1.96,1.96,0,0,1,.456,2.25c-.305.637-.967,1.12-1.034,1.823-.029.306.063.611.057.918a1.891,1.891,0,0,1-.813,1.428,4.229,4.229,0,0,1-1.56.649c-.262.063-.575.161-.639.423-.075.311.271.593.236.911a.528.528,0,0,1-.212.343,1.079,1.079,0,0,1-1.5-.47,3.125,3.125,0,0,1-.206-1.749l.162-2.16c.05-.672.046-1.47-.5-1.863-.606-.434-1.488-.083-2.173-.376a1.991,1.991,0,0,1-.941-1.976,11.566,11.566,0,0,0,.123-2.319c-.159-.949-1-1.587-1.855-.972C778.836,133.6,778.965,134.459,778.373,134.807Z" transform="translate(-627.2 -116.442)"/><path class="c" d="M800.955,258.357s-4.812,1.925-4.812,6.015.241,9.5-.6,11.308-1.564,2.406-1.083,3.849,1.323,1.2,0,2.286-1.2-.722-1.323,1.083,1.2,2.045,0,2.887-4.331,4.21-3.007,5.293,4.812,4.571,6.015,3.248,1.8-4.691,3.489-4.451,1.925.361,1.684-.842-1.323-1.2.12-1.564,2.045.481,1.564-.722-.842-1.684.12-3.007,1.444-1.684,1.323-3.007S807.09,267.5,807.09,267.5,807.932,257.395,800.955,258.357Z" transform="translate(-643.129 -221.696)"/><path class="c" d="M794.457,257.176s-4.812,1.925-4.812,6.015.241,9.5-.6,11.308-1.564,2.406-1.083,3.849,1.323,1.2,0,2.286-1.2-.722-1.323,1.083,1.2,2.045,0,2.887-4.331,4.21-3.007,5.293,4.812,4.571,6.015,3.248,1.8-4.691,3.489-4.451,1.925.361,1.684-.842-1.323-1.2.12-1.564,2.045.481,1.564-.722-.842-1.684.12-3.007,1.443-1.684,1.323-3.007,2.646-13.232,2.646-13.232S801.434,256.214,794.457,257.176Z" transform="translate(-637.954 -220.755)"/><path class="d" d="M797.411,255.4s-4.812,1.925-4.812,6.015.241,9.5-.6,11.308-1.564,2.406-1.083,3.849,1.323,1.2,0,2.286-1.2-.722-1.323,1.083,1.2,2.045,0,2.887-4.331,4.21-3.007,5.293,4.812,4.571,6.015,3.248,1.8-4.691,3.489-4.451,1.925.361,1.684-.842-1.323-1.2.12-1.564,2.045.481,1.564-.722-.842-1.684.12-3.007,1.444-1.684,1.323-3.007,2.646-13.232,2.646-13.232S804.388,254.442,797.411,255.4Z" transform="translate(-640.307 -219.344)"/><path class="d" d="M964.5,663.787c0,10.525,6.6,19.041,14.762,19.041" transform="translate(-782.248 -544.618)"/><path class="e" d="M1036.99,681.991c0-10.643,7.368-19.255,16.474-19.255" transform="translate(-839.976 -543.781)"/><path class="e" d="M990.766,668.472c0,10,4.21,18.087,9.414,18.087" transform="translate(-803.165 -548.349)"/><path class="d" d="M1036.99,661.074c0-13.6,8.516-24.6,19.041-24.6" transform="translate(-839.976 -522.863)"/><path class="h" d="M1021.74,753.529a7.673,7.673,0,0,0,2.724-.514c.631-.449,3.22-.986,3.377-.265s3.146,3.584.783,3.6-5.492-.368-6.122-.752S1021.74,753.529,1021.74,753.529Z" transform="translate(-827.832 -615.184)"/><path class="i" d="M1028.674,760.515c-2.364.019-5.492-.368-6.122-.752-.48-.292-.671-1.34-.735-1.824l-.07,0s.133,1.688.762,2.072,3.758.771,6.122.752c.682-.005.918-.248.9-.608C1029.441,760.375,1029.181,760.511,1028.674,760.515Z" transform="translate(-827.838 -619.597)"/></svg>