<svg xmlns="http://www.w3.org/2000/svg" width="320" height="247.841" viewBox="0 0 320 247.841"><defs><style>.a{fill:#3f3d56;}.b{fill:#3182ce;}.c{fill:#d0cde1;}.d{fill:#2f2e41;}.e{fill:#ffb8b8;}.f{fill:#575a89;}.g{opacity:0.2;}.h{fill:#a0616a;}.i{opacity:0.1;}</style></defs><g transform="translate(0.134 0)"><path class="a" d="M577.427,345.456H514.693c2.92-31.486,4.745-61.246,0-80.658h62.734C576.348,289.93,576.473,317.02,577.427,345.456Z" transform="translate(-382.403 -200.793)"/><rect class="b" width="40.329" height="26.886" transform="translate(143.492 76.776)"/><rect class="b" width="47.499" height="0.896" transform="translate(139.907 113.072)"/><rect class="b" width="47.499" height="0.896" transform="translate(139.907 117.105)"/><rect class="b" width="47.499" height="0.896" transform="translate(139.907 121.138)"/><rect class="b" width="47.499" height="0.896" transform="translate(139.907 125.17)"/><rect class="b" width="47.499" height="0.896" transform="translate(139.907 129.203)"/><path class="b" d="M735.244,480.391a2.141,2.141,0,0,0-1.262.444c-1.076-2.843-2.741-4.669-4.612-4.669s-3.536,1.827-4.611,4.669a2.14,2.14,0,0,0-1.262-.444c-2.125,0-3.848,3.594-3.848,8.028h19.444C739.093,483.985,737.37,480.391,735.244,480.391Z" transform="translate(-521.053 -343.78)"/><path class="a" d="M719.457,477.1H691.948v-.448c0-6.413,2.51-11.437,5.715-11.437a3.184,3.184,0,0,1,1.508.391c1.606-3.932,3.969-6.174,6.532-6.174s4.926,2.242,6.532,6.174a3.184,3.184,0,0,1,1.507-.391c3.2,0,5.715,5.024,5.715,11.437Zm-26.609-.9h25.708c-.112-5.515-2.271-10.092-4.814-10.092a2.49,2.49,0,0,0-1.465.522l-.475.344-.207-.548c-1.468-3.878-3.615-6.1-5.893-6.1s-4.425,2.224-5.893,6.1l-.207.548-.475-.344a2.49,2.49,0,0,0-1.465-.522C695.12,466.108,692.96,470.685,692.849,476.2Z" transform="translate(-502.313 -332.458)"/><path class="b" d="M458.226,480.391a2.141,2.141,0,0,0-1.262.444c-1.076-2.843-2.741-4.669-4.612-4.669s-3.536,1.827-4.612,4.669a2.141,2.141,0,0,0-1.262-.444c-2.125,0-3.848,3.594-3.848,8.028h19.444C462.075,483.985,460.352,480.391,458.226,480.391Z" transform="translate(-333.654 -343.78)"/><path class="a" d="M442.438,477.1h-27.51v-.448c0-6.413,2.51-11.437,5.715-11.437a3.185,3.185,0,0,1,1.508.391c1.606-3.932,3.969-6.174,6.532-6.174s4.926,2.242,6.532,6.174a3.184,3.184,0,0,1,1.507-.391c3.2,0,5.715,5.024,5.715,11.437Zm-26.609-.9h25.708c-.112-5.515-2.271-10.092-4.814-10.092a2.49,2.49,0,0,0-1.465.522l-.475.344-.207-.548c-1.467-3.878-3.615-6.1-5.893-6.1s-4.425,2.224-5.893,6.1l-.207.548-.475-.344a2.49,2.49,0,0,0-1.465-.522C418.1,466.108,415.942,470.685,415.83,476.2Z" transform="translate(-314.914 -332.458)"/><path class="b" d="M894.078,202.837A47.924,47.924,0,1,1,845.1,154.97l.45-.01c.214,0,.43,0,.647,0,.544,0,1.087.01,1.627.029q1.786.058,3.533.246c.673.071,1.336.159,2,.256.074.013.152.023.226.036a47.3,47.3,0,0,1,8.052,1.977A47.9,47.9,0,0,1,894.078,202.837Z" transform="translate(-574.211 -126.487)"/><ellipse class="a" cx="0.321" cy="0.855" rx="0.321" ry="0.855" transform="matrix(0.535, -0.845, 0.845, 0.535, 233.733, 78.291)"/><path class="c" d="M0,0H0A1.5,1.5,0,0,1,1.5,1.5v22.44a1.5,1.5,0,0,1-1.5,1.5H0Z" transform="matrix(0.535, -0.845, 0.845, 0.535, 233.95, 76.151)"/><path class="d" d="M0,0H1.115A1.022,1.022,0,0,1,2.137,1.022v25.55A1.211,1.211,0,0,1,.926,27.783H0Z" transform="matrix(0.535, -0.845, 0.845, 0.535, 232.156, 76.786)"/><rect class="c" width="0.427" height="1.71" transform="matrix(0.535, -0.845, 0.845, 0.535, 235.141, 77.665)"/><rect class="c" width="0.427" height="1.71" transform="matrix(0.535, -0.845, 0.845, 0.535, 237.127, 78.922)"/><circle class="e" cx="13.475" cy="13.475" r="13.475" transform="translate(252.492 7.742)"/><path class="e" d="M926.655,150.661s6.573,10.353,4.93,13.311-6.738,11.01-6.738,11.01,22.677-16.762,19.719-20.377c0,0-6.737-5.752-7.066-9.367Z" transform="translate(-659.866 -119.913)"/><path class="d" d="M917.728,371.868A48.105,48.105,0,0,1,884.81,369.3l1.035-27.661.078-2.151.029-.7.036-1.029.026-.657s.042,0,.123-.006c.22-.016.728-.052,1.456-.094.844-.049,1.98-.11,3.3-.165.314-.013.637-.026.97-.042,6.969-.259,17.852-.314,19.291,1.786l.181,1.236.291,2,.6,4.08S918.993,359.348,917.728,371.868Z" transform="translate(-632.781 -249.41)"/><path class="f" d="M929.384,189.165l-11.641,25.755L912.688,226.1l-1.873,4.146-27.115-.329,2.794-18.9c-3.944-10.188,5.423-14.3,5.423-14.3l7.889-8.405v1.339s7.723-9.2,11.174-14.461,8.217-3.287,8.217-3.287C927.414,171.089,929.384,189.165,929.384,189.165Z" transform="translate(-632.03 -137.711)"/><path class="g" d="M972.381,237.053l-5.055,11.181c-1.624-3.037-2.859-6.476-2.859-8.507,0-5.587,5.587-2.629,5.587-2.629s-4.519-24.732-4.519-32.126C965.535,200.059,969.63,221.858,972.381,237.053Z" transform="translate(-686.668 -159.844)"/><path class="e" d="M891.428,310.307l-24.485-.493s-17.912,1.479-15.283,8.709,16.926,0,16.926,0l28.593,4.437Z" transform="translate(-610.178 -231.246)"/><path class="f" d="M971.489,176.693s-8.545.657-8.545,8.052,7.724,33.688,7.724,33.688-5.587-2.958-5.587,2.629,9.367,21.856,10.353,11.01c0,0,14.132,6.9,13.311-6.08s-9.7-40.425-9.7-40.425S978.064,176.2,971.489,176.693Z" transform="translate(-685.638 -141.179)"/><path class="d" d="M898.518,86.708c-.944-.913-.926-2.453-1.687-3.524-1.194-1.681-3.681-1.568-5.722-1.278a15.771,15.771,0,0,0-3.993.928,3.935,3.935,0,0,0-2.31,2.645c-.16.662-.512-1.217-.871-3.65a11.853,11.853,0,0,1,6.488-12.369l.079-.039a22.476,22.476,0,0,1,7.281-2.392,9.929,9.929,0,0,1,7.277,1.833c.915.735,1.659,1.678,2.64,2.322,1.723,1.132,3.906,1.186,5.953,1.425a16.546,16.546,0,0,1,6.637,2.036A8.968,8.968,0,0,1,924.5,80c.648,2.641-.41,5.764-3.007,6.91a3.131,3.131,0,0,0-1.174.861c-2.133,2.607,1.31,4.033,1.809,6.3.417,1.893-1.4,3.608-3.271,4.129a7.8,7.8,0,0,1-8.956-4.279,16.268,16.268,0,0,1-.961-4.737c-.2-1.841-5.028-5.175-1.768-2.667a4.552,4.552,0,0,1,1.446,1.829c.991,2.374-1.066,3.721-2.17,5.416a6.029,6.029,0,0,0-.034,6.375,6.95,6.95,0,0,1-3.195-8.272c.3-.805.745-1.55,1.014-2.365.42-1.271.049-3.742-1.828-3.241C901.067,86.621,899.922,88.068,898.518,86.708Z" transform="translate(-632.102 -66.957)"/><path class="b" d="M201.17,546.837A47.881,47.881,0,0,1,170.81,591.4c-.694.278-1.409.54-2.127.783q-1.2.412-2.433.757-.854.238-1.724.446a48.179,48.179,0,0,1-26.4-1.126c-.67-.223-1.333-.463-1.99-.712-.883-.34-1.757-.705-2.614-1.1-.065-.026-.126-.055-.188-.084-.336-.155-.663-.311-1-.476h0q-.684-.33-1.356-.686-1.543-.815-3.018-1.737-.767-.476-1.511-.987a47.861,47.861,0,0,1,17.146-86.547q1.267-.262,2.559-.453c.54-.084,1.087-.155,1.634-.217.391-.045.783-.087,1.181-.12h0q1.6-.146,3.222-.181l.45-.01c.084,0,.168,0,.252,0h0c.129,0,.259,0,.391,0,.544,0,1.087.01,1.627.029q1.786.058,3.533.246c.673.071,1.336.159,2,.256.074.013.152.023.226.036.22.036.443.071.663.11.466.074.928.162,1.391.256.434.087.864.178,1.294.275a46.629,46.629,0,0,1,4.7,1.336,48.013,48.013,0,0,1,25.215,20.035q.247.393.485.8c.123.2.239.4.356.6q.063.1.116.2c.026.039.045.078.068.116.214.372.421.751.621,1.129A47.668,47.668,0,0,1,201.17,546.837Z" transform="translate(-105.5 -359.198)"/><path class="h" d="M333.738,582.878s11.114-9.77,15.243-2.941-11.567,9.593-12.474,9.24S333.738,582.878,333.738,582.878Z" transform="translate(-259.99 -412.34)"/><path class="f" d="M266.915,596.392s13.152-4.277,15.4-6.014,4.309-3.021,4.763-2.845,3.427-.754,3.427-.754l3.523,9.726s-14.059,3.924-14.412,4.831S266.915,596.392,266.915,596.392Z" transform="translate(-214.785 -418.608)"/><path class="d" d="M233.022,731.637a48.179,48.179,0,0,1-26.4-1.126l.582-5.506.54-5.144,8.1-12.53,2.6-4.015,10.705,3.892,1.09,6.875,1.737,10.964Z" transform="translate(-173.996 -497.444)"/><path class="d" d="M225.379,735.757c-.7.281-1.417.543-2.135.786q-1.2.412-2.433.757-.854.238-1.724.446a48.178,48.178,0,0,1-26.4-1.126c-.67-.223-1.333-.463-1.99-.712a37.257,37.257,0,0,1-.175,5.742,67.873,67.873,0,0,1-2.439-6.839c-.049-.155-.094-.311-.139-.466-.226-.783-.427-1.53-.608-2.232-.207-.812-.385-1.566-.534-2.255-.592-2.7-.78-4.377-.78-4.377l6.325-13.135,1.265.146.524.058,3.17.362,4.607.527,7.464.851,6.93,5.9,6.208,5.29s.518,1.76,1.33,4.675C224.282,731.722,224.8,733.621,225.379,735.757Z" transform="translate(-160.061 -503.553)"/><circle class="h" cx="11.191" cy="11.191" r="11.191" transform="translate(42.811 119.539)"/><path class="h" d="M232.192,472.787l-5.857,12.529,16.443,11.389s-1.935-13.564,1.711-17S232.192,472.787,232.192,472.787Z" transform="translate(-187.333 -341.494)"/><path class="f" d="M205,516.342s-7.785-16.056-14.11-16.056-22.868,11.191-22.381,13.623a16.759,16.759,0,0,1,.487,4.379c0,1.46-3.406,1.46-.487,2.433s3.406,1.946,3.406,1.946l-2.433,62.278s10.7,3.892,14.6,2.433,7.785-11.191,7.785-11.191-.973,13.137,2.919,12.65,18.489-1.46,18.975-3.406-2.919-44.763-2.919-44.763Z" transform="translate(-147.417 -360.097)"/><path class="h" d="M178.2,782.341v.007c-.5,4.312-2.009,8.683-5.959,9.612-6.71,1.579-4.135-12.209-2.925-17.473.285-1.226.492-1.99.492-1.99l.391.023,4.814.285,3.067.181s.126.89.223,2.284c.029.4.055.851.071,1.33A37.26,37.26,0,0,1,178.2,782.341Z" transform="translate(-147.739 -544.244)"/><path class="f" d="M174.261,537.161l-14.11,36s-1.946,3.892,0,6.812-.973,20.435.973,24.327,1.946,10.7,1.946,10.7l11.191.973,2.433-42.816,12.65-27.247S188.371,534.728,174.261,537.161Z" transform="translate(-141.976 -384.809)"/><path class="i" d="M192.437,534.125s-8.758,2.433-11.677,11.191Z" transform="translate(-156.502 -382.989)"/><path class="d" d="M232.446,437.866a17.145,17.145,0,0,1,3.233.447,8.183,8.183,0,0,0,8.747-6.1,4.682,4.682,0,0,1,.447-1.458,2.887,2.887,0,0,1,3.069-.934,23.689,23.689,0,0,0,3.315.806,5.077,5.077,0,0,0,4.381-2.48,8.409,8.409,0,0,0,1.075-5.079l-.842.884a4.279,4.279,0,0,1-.382-2.326,2.7,2.7,0,0,0-2.556.654c-.743.079-.182-1.378-.734-1.882a1.276,1.276,0,0,0-.9-.168c-1.581.015-2.859-1.194-4.1-2.167a17.441,17.441,0,0,0-7.366-3.36,9.692,9.692,0,0,0-5.375.261,11.481,11.481,0,0,0-3.63,2.575,22.159,22.159,0,0,0-6.1,9.049,15.233,15.233,0,0,0-.073,8.833c.444,1.5,1.783,6.634,3.743,6.753C230.859,442.324,229.381,438.048,232.446,437.866Z" transform="translate(-185.778 -302.031)"/><path class="i" d="M115.365,530.5l-11.459,16.807-3.665,39.039Z" transform="translate(-67.902 -358.876)"/><ellipse class="a" cx="0.855" cy="0.321" rx="0.855" ry="0.321" transform="translate(92.1 162) rotate(-54.492)"/><path class="c" d="M0,0H0A1.5,1.5,0,0,1,1.5,1.5v22.44a1.5,1.5,0,0,1-1.5,1.5H0Z" transform="translate(77.838 179.782) rotate(-144.492)"/><path class="d" d="M0,0H.926A1.211,1.211,0,0,1,2.137,1.211V26.76a1.022,1.022,0,0,1-1.022,1.022H0V0Z" transform="translate(78.373 181.608) rotate(-144.492)"/><rect class="c" width="0.427" height="1.71" transform="translate(91.083 162.322) rotate(-144.492)"/><rect class="c" width="0.427" height="1.71" transform="translate(89.717 164.236) rotate(-144.492)"/><rect class="a" width="144.288" height="0.647" transform="translate(91.465 143.964)"/></g></svg>