<svg xmlns="http://www.w3.org/2000/svg" xmlns:xlink="http://www.w3.org/1999/xlink" width="320" height="296.675" viewBox="0 0 320 296.675"><defs><style>.a{fill:#3182ce;}.b{opacity:0.4;}.c{fill:#ff6584;}.d,.i{opacity:0.1;}.e{fill:url(#a);}.f{fill:url(#b);}.g{fill:#fbbebe;}.h{fill:#3f3d56;}.j{fill:#fff;}.k{fill:#ffd037;}.l{fill:#a8a8a8;}.m{opacity:0.2;}.n{fill:none;stroke:#535461;stroke-miterlimit:10;stroke-width:2px;}</style><linearGradient id="a" x1="0.5" y1="1" x2="0.5" gradientUnits="objectBoundingBox"><stop offset="0" stop-color="gray" stop-opacity="0.251"/><stop offset="0.54" stop-color="gray" stop-opacity="0.122"/><stop offset="1" stop-color="gray" stop-opacity="0.102"/></linearGradient><linearGradient id="b" x1="0.507" y1="1.003" x2="0.507" y2="0" xlink:href="#a"/></defs><g transform="translate(0.003 -0.18)"><ellipse class="a" cx="77.304" cy="5.912" rx="77.304" ry="5.912" transform="translate(94.653 285.032)"/><ellipse class="b" cx="77.304" cy="5.912" rx="77.304" ry="5.912" transform="translate(94.653 285.032)"/><path class="a" d="M241.15,87.58c10.838-9.673,27.888-11.645,43.4-10.866,48.724,2.419,92.711,25.944,130.751,52.552,13.771,9.635,27.332,20.015,36.275,33.279,18.2,27,12.8,64.414-12.509,86.659-8.611,7.569-19.046,13.372-29.762,18.529-19.053,9.146-39.613,16.487-61.236,18.574-15.421,1.493-31.034.28-46.364-1.8-42.826-5.831-84.869-18.658-120.109-40.655-15.456-9.639-30.024-21.619-36.394-37.215s-2.293-35.352,13.488-44.581c6.527-3.818,14.334-5.541,21.972-7.16,11.247-2.384,22.675-4.734,32.824-9.576,10.488-5.006,22.892-14.683,20.819-25.755C232.081,107.682,230.312,97.243,241.15,87.58Z" transform="translate(-142.33 -58.631)"/><path class="b" d="M241.15,87.58c10.838-9.673,27.888-11.645,43.4-10.866,48.724,2.419,92.711,25.944,130.751,52.552,13.771,9.635,27.332,20.015,36.275,33.279,18.2,27,12.8,64.414-12.509,86.659-8.611,7.569-19.046,13.372-29.762,18.529-19.053,9.146-39.613,16.487-61.236,18.574-15.421,1.493-31.034.28-46.364-1.8-42.826-5.831-84.869-18.658-120.109-40.655-15.456-9.639-30.024-21.619-36.394-37.215s-2.293-35.352,13.488-44.581c6.527-3.818,14.334-5.541,21.972-7.16,11.247-2.384,22.675-4.734,32.824-9.576,10.488-5.006,22.892-14.683,20.819-25.755C232.081,107.682,230.312,97.243,241.15,87.58Z" transform="translate(-142.33 -58.631)"/><path class="c" d="M571.953,51.231v.626a4.052,4.052,0,0,1-.024.538v.112c0,.15-.018.3-.031.447v.129a.5.5,0,0,1,0,.07,4.036,4.036,0,0,1-.035.409c-.014.136-.024.217-.035.329-.031.269-.066.538-.108.808-.024.178-.052.35-.08.531a.145.145,0,0,0,0,.038c-.017.087-.031.175-.049.266s-.018.1-.028.154a.383.383,0,0,1-.028.14,1.792,1.792,0,0,0-.056.28c-.021.091-.038.185-.059.28s-.028.136-.045.206-.052.234-.08.35a.047.047,0,0,0,0,.021l-.063.241-.073.294c-.032.119-.066.238-.1.35a.121.121,0,0,1-.028.094l-.1.35c-.112.371-.234.741-.35,1.108l-.126.35-.073.192a24.824,24.824,0,0,1-3.409,6.125c-.084.119-.175.234-.262.35a26.106,26.106,0,0,1-2.15,2.447l-35.747,35.75-35.743-35.75a25.307,25.307,0,0,1-2.8-3.328,24.462,24.462,0,0,1-1.454-2.321,25.293,25.293,0,0,1-3.056-14.372c.039-.458.091-.916.154-1.37.112-.8.266-1.6.454-2.4.038-.161.08-.322.122-.479.021-.08.042-.164.063-.241s.024-.1.039-.147l.1-.35h0c.084-.276.168-.552.259-.829l.129-.378c.189-.535.392-1.049.615-1.587l.136-.311c.07-.157.14-.315.213-.472.119-.252.241-.5.35-.752l.031-.056h0c.056-.115.115-.224.175-.35l.206-.381c.087-.157.178-.315.269-.472.042-.073.087-.147.129-.224s.052-.08.077-.126a.156.156,0,0,0,0-.024h0c.056-.091.112-.182.171-.273s.129-.206.2-.308c.147-.227.3-.454.451-.678l.164-.234.206-.283c.07-.1.143-.2.22-.3l.266-.35c.084-.1.164-.206.245-.308l.087-.1.178-.217c.091-.112.185-.22.28-.329l.122-.143.021-.024.213-.238.238-.262c.224-.241.454-.482.7-.7l.276-.273.43-.406c.094-.087.189-.175.287-.259s.224-.2.35-.3l.224-.189c.073-.066.15-.129.224-.189a5.682,5.682,0,0,1,.454-.35L495.52,31c.385-.294.773-.577,1.171-.85l.238-.161.241-.157.227-.147.35-.21.168-.1.245-.143c.329-.192.657-.378.989-.552l.2-.1.308-.157.255-.126.255-.119.255-.122.259-.115.259-.112c.35-.15.7-.29,1.049-.423l.227-.14.28-.1.248-.087.21-.07.482-.154.248-.077.2-.056.2-.056q.175-.052.35-.094l.461-.119c.476-.115.954-.22,1.433-.308l.2-.035.273-.045.28-.045.35-.052.206-.028c.461-.059.923-.108,1.4-.143h3.248a2.017,2.017,0,0,1,.35.021h.238c.371.028.741.066,1.108.108l.5.066.35.049.276.045.276.045.182.031q.717.133,1.426.3l.58.15.161.045.248.07c.161.045.322.091.479.143l.21.066q.524.161,1.049.35l.238.087.311.119.469.189c.182.077.35.154.535.234l.21.091.287.136.255.119.252.126.318.161.252.133c.2.1.392.21.584.322l.245.14c.287.164.566.35.846.514l.227.147.241.157.238.161h0l.157.108c.35.234.668.479,1,.731l.231.182c.15.119.3.241.454.35.073.059.15.122.224.189l.224.189.35.3c.1.084.192.171.287.259l.4.427.276.273.28-.273.427-.406c.094-.087.189-.175.287-.259s.224-.2.35-.3l.224-.189c.073-.066.15-.129.224-.189a5.651,5.651,0,0,1,.454-.35l.231-.182c.385-.294.773-.577,1.171-.85l.238-.161.241-.157.227-.147.332-.21.168-.1.245-.143c.329-.192.657-.378.989-.552l.2-.1.308-.157.255-.126.255-.119.255-.122.259-.115.259-.112c.35-.15.7-.29,1.049-.423.084-.031.171-.066.259-.094l.276-.1.252-.087.206-.07.482-.154.248-.077.2-.056.2-.056c.115-.035.231-.066.35-.094l.458-.119c.475-.115.954-.22,1.433-.308l.2-.035.273-.045.28-.045.35-.052.206-.028c.461-.059.923-.108,1.4-.143h3.216a2.015,2.015,0,0,1,.35.021h.238c.371.028.741.066,1.108.108l.5.066.35.049.276.045.276.045.182.031q.717.133,1.426.3l.58.15.161.045.248.07c.161.045.322.091.482.143l.206.066c.35.108.7.227,1.049.35l.234.087.311.119.469.189c.182.077.35.154.535.234l.21.091.287.136.255.119.252.126.318.161.255.133c.192.1.388.21.58.322l.245.14c.287.164.57.35.846.514l.227.147.241.157.238.161h.017l.157.108c.35.234.668.479,1,.731l.231.182c.15.119.3.241.455.35.073.059.15.122.224.189l.224.189.29.259c.1.087.2.175.29.266l.164.15h0a.161.161,0,0,1,.024.024c.094.084.185.175.28.262l.126.122c.049.052.1.1.15.15l.276.283c.14.143.28.29.416.44.08.084.161.171.238.259.133.147.262.294.392.444l.413.493c.472.58.912,1.175,1.328,1.783l.168.255c.063.091.119.182.178.273l.15.234c.084.136.168.269.248.406l.22.378c.045.077.091.154.133.231l.1.182.1.182.147.276.143.276q.493.965.895,1.968l.115.283c.108.276.21.549.308.829l.087.252c.038.119.08.238.115.35s.07.213.1.322l.063.2c.031.1.059.2.087.294s.067.241.1.35c.053.2.1.392.15.591l.073.308c.035.147.066.294.1.44a.9.9,0,0,0,.038.189c.014.063.035.168.049.252s.028.133.038.2l.031.168a.314.314,0,0,0,.028.157c.028.052,0,.1.025.154l.052.315a1.953,1.953,0,0,0,.045.315c.018.1.031.234.045.35s.028.224.039.35l.021.192c0,.115.024.231.035.35v.171c0,.119.021.238.028.35a.053.053,0,0,1,0,.024V49.7a2.734,2.734,0,0,0,.017.378h0v.388A4.466,4.466,0,0,1,571.953,51.231Z" transform="translate(-365.638 -25.61)"/><path class="d" d="M573.243,51.231v.626a4.052,4.052,0,0,1-.024.538v.112c0,.15-.018.3-.031.447v.129a.514.514,0,0,1,0,.07,4.019,4.019,0,0,1-.035.409c-.014.136-.024.217-.035.329-.031.269-.066.538-.108.808-.025.178-.052.35-.08.531a.162.162,0,0,0,0,.038c-.018.087-.032.175-.049.266s-.018.1-.028.154a.384.384,0,0,1-.028.14,1.785,1.785,0,0,0-.056.28c-.021.091-.038.185-.059.28s-.028.136-.045.206-.052.234-.08.35a.047.047,0,0,0,0,.021l-.063.241-.073.294c-.031.119-.066.238-.1.35a.121.121,0,0,1-.028.094l-.1.35c-.112.371-.234.741-.35,1.108l-.126.35-.073.192A25.294,25.294,0,0,0,560.64,32.674q-.682-.434-1.377-.818a25.269,25.269,0,0,0-30.1,4.321,25.34,25.34,0,0,0-3.087-2.622h0A24.909,24.909,0,0,0,523.46,31.9a25.329,25.329,0,0,0-24.339,0,24.988,24.988,0,0,0-3.59,2.4,25.819,25.819,0,0,0-6.293,7.366.126.126,0,0,1,0,.031,24,24,0,0,0-1.08,2.164c-.182.406-.35.818-.507,1.231.038-.161.08-.322.122-.479.021-.08.042-.164.063-.241s.024-.1.038-.147l.1-.35h0c.084-.276.168-.552.259-.829l.129-.378c.189-.535.392-1.049.615-1.587l.136-.311c.07-.157.14-.315.213-.472.119-.252.241-.5.35-.752l.031-.056h0c.056-.115.115-.224.175-.35l.206-.381c.087-.157.178-.315.269-.472.042-.073.087-.147.129-.224s.052-.08.077-.126a.164.164,0,0,0,0-.024h0c.056-.091.112-.182.171-.273s.129-.206.2-.308c.147-.227.3-.454.451-.678l.164-.234.206-.283c.07-.1.143-.2.22-.3l.266-.35c.084-.1.164-.206.245-.308l.087-.1.178-.217c.091-.112.185-.22.28-.329l.122-.143.021-.024.213-.238.238-.262c.224-.241.455-.482.7-.7l.276-.273.43-.406c.094-.087.189-.175.287-.259s.224-.2.35-.3l.224-.189c.073-.066.15-.129.224-.189a5.629,5.629,0,0,1,.454-.35l.231-.182c.384-.294.773-.577,1.171-.85l.238-.161.241-.157.227-.147.35-.21.168-.1.245-.143c.329-.192.657-.378.989-.552l.2-.1.308-.157.255-.126.255-.119.255-.122.259-.115.259-.112c.35-.15.7-.29,1.049-.423l.234-.154.28-.1.248-.087.21-.07.482-.154.248-.077.2-.056.2-.056q.175-.052.35-.094l.461-.119c.476-.115.954-.22,1.433-.308l.2-.035.273-.045.28-.045.35-.052.206-.028c.461-.059.923-.108,1.4-.143h3.248a2.017,2.017,0,0,1,.35.021h.238c.371.028.741.066,1.108.108l.5.066.35.049.276.045.276.045.182.031q.716.133,1.426.3l.58.15.161.045.248.07c.161.045.322.091.479.143l.21.066q.524.161,1.049.35l.238.087.311.119.469.189c.182.077.35.154.535.234l.21.091.287.136.255.119.252.126.318.161.252.133c.2.1.392.21.584.322l.245.14c.287.164.566.35.846.514l.227.147.241.157.238.161h0l.157.108c.35.234.668.479,1,.731l.231.182c.15.119.3.241.454.35.073.059.15.122.224.189l.224.189.35.3c.1.084.192.171.287.259l.4.427.276.273.28-.273.427-.406c.094-.087.189-.175.287-.259s.224-.2.35-.3l.224-.189c.073-.066.15-.129.224-.189a5.673,5.673,0,0,1,.454-.35l.231-.182c.385-.294.773-.577,1.171-.85l.238-.161.241-.157.227-.147.332-.21.168-.1.245-.143c.329-.192.657-.378.989-.552l.2-.1.308-.157.255-.126.255-.119.255-.122.259-.115.259-.112c.349-.15.7-.29,1.049-.423.084-.031.171-.066.259-.094l.276-.1.252-.087.206-.07.482-.154.248-.077.2-.056.2-.056c.115-.035.231-.066.35-.094l.458-.119c.475-.115.954-.22,1.433-.308l.2-.035.273-.045.28-.045.35-.052.206-.028c.462-.059.923-.108,1.4-.143H549.3a2.017,2.017,0,0,1,.35.021h.238c.371.028.741.066,1.108.108l.5.066.35.049.276.045.276.045.182.031q.717.133,1.427.3l.58.15.161.045.248.07c.161.045.322.091.483.143l.206.066c.35.108.7.227,1.049.35l.234.087.311.119.469.189c.182.077.35.154.535.234l.21.091.287.136.255.119.252.126.318.161.255.133c.192.1.388.21.58.322l.245.14c.287.164.57.35.846.514l.227.147.241.157.238.161h.018l.157.108c.35.234.668.479,1,.731l.231.182c.15.119.3.241.454.35.073.059.15.122.224.189l.224.189.29.259c.1.087.2.175.29.266l.164.15h0a.158.158,0,0,1,.024.024c.094.084.185.175.28.262l.126.122c.049.052.1.1.15.15l.276.283c.14.143.28.29.416.44.08.084.161.171.238.259.133.147.262.294.391.444l.413.493c.472.58.912,1.175,1.328,1.783l.168.255c.063.091.119.182.178.273l.15.234c.084.136.168.269.248.406l.22.378c.046.077.091.154.133.231l.1.182.1.182.147.276.143.276q.493.965.9,1.968l.115.283c.108.276.21.549.308.829l.087.252c.038.119.08.238.115.35s.07.213.1.322l.063.2c.031.1.059.2.087.294s.066.241.1.35c.052.2.1.392.15.591l.073.308c.035.147.066.294.1.44a.91.91,0,0,0,.038.189c.014.063.035.168.049.252s.028.133.038.2l.031.168a.314.314,0,0,0,.028.157c.028.052,0,.1.024.154l.052.315a1.953,1.953,0,0,0,.046.315c.017.1.031.234.045.35s.028.224.038.35l.021.192c0,.115.024.231.035.35v.171c0,.119.021.238.028.35a.055.055,0,0,1,0,.024V49.7a2.753,2.753,0,0,0,.017.378h0v.388A4.485,4.485,0,0,1,573.243,51.231Z" transform="translate(-366.928 -25.61)"/><path class="c" d="M850.81,307.114v.556a.047.047,0,0,1,0,.021v.224l-.031.248a1.262,1.262,0,0,1-.024.161h0v.129a.166.166,0,0,1,0,.042v.087a.679.679,0,0,1-.017.084v.063a.2.2,0,0,1-.024.108h0l-.021.073-.021.087-.031.108v.031a.724.724,0,0,1-.035.108c-.031.115-.07.227-.108.35,0,.038-.028.073-.038.108a.433.433,0,0,1-.025.059,7.527,7.527,0,0,1-1.021,1.863l-.08.108a7.68,7.68,0,0,1-.657.745L837.644,323.4l-10.911-10.911a7.786,7.786,0,0,1-.857-1.014,8.01,8.01,0,0,1-.444-.7,7.747,7.747,0,0,1-.933-4.388,2.856,2.856,0,0,1,.049-.419c.035-.245.08-.489.14-.731a.559.559,0,0,1,.035-.147l.021-.073v-.046l.031-.108h0c.024-.084.052-.168.08-.252s.024-.077.038-.115q.084-.248.189-.482l.042-.1.063-.143c.038-.077.073-.154.115-.227v-.017h0l.056-.1.063-.115c.025-.049.053-.1.08-.147l.042-.066.021-.038h0c0-.028.031-.056.049-.084s.042-.063.059-.094.091-.14.14-.206l.049-.073.063-.087.066-.087.084-.108.073-.094.028-.031.052-.066.087-.1.035-.042h0l.066-.073c.021-.028.049-.052.073-.08s.136-.147.21-.22l.084-.08.129-.126.087-.08.1-.091.066-.056.07-.059.136-.112.073-.056c.115-.087.234-.175.35-.259l.073-.049.07-.049.07-.042.1-.066.049-.028.077-.045c.1-.059.2-.115.3-.168l.059-.031.094-.049.077-.038.08-.038.077-.035.077-.035.08-.035.318-.129.08-.028.084-.031.077-.028.063-.021.147-.045.077-.024.06-.017.059-.017.108-.028.14-.035c.143-.038.29-.07.437-.094h.4c.14-.017.28-.035.423-.045h1.171l.35.035.154.021h.325c.147.024.29.056.437.091l.175.045h.049l.077.021.147.045.063.017c.108.035.213.07.318.112l.073.024.094.038.143.056.161.07.066.031.087.038.077.038.077.038.1.049.077.042.178.094.073.045c.087.049.175.1.259.157l.07.042.074.049.073.049h0l.049.035.3.22a.555.555,0,0,0,.07.056l.14.112.066.059.07.056.1.091.087.08.129.126a.928.928,0,0,1,.087.08.613.613,0,0,1,.084-.08l.129-.126.087-.08.1-.091.07-.056.066-.059.14-.112a.543.543,0,0,0,.07-.056l.35-.259.073-.049.073-.049.07-.042.1-.066.052-.028.073-.045q.15-.091.3-.168l.059-.031.094-.049.077-.038.077-.038.08-.035.077-.035.08-.035.318-.129.08-.028.084-.031.077-.028.063-.021.147-.046.077-.024.059-.017.059-.018.1-.028.14-.035q.22-.056.44-.094h.4c.143-.018.283-.035.423-.045h1.171l.35.035a.365.365,0,0,1,.15.021h.329c.143.024.29.056.434.091l.178.045h.049l.077.021.147.045.063.017c.1.035.213.07.318.112l.07.024.094.038.143.056.164.07.063.031.087.038.08.038.077.038.094.049.08.042.175.094.077.045c.087.049.171.1.259.157l.07.042.07.049.073.049h0l.045.035q.157.1.3.22l.073.056.136.112.07.059.066.056.091.08.087.08.049.045h0l.084.08.038.035.045.045.084.087.129.133c.025.028.049.052.07.08l.122.136.126.15a5.81,5.81,0,0,1,.405.545l.053.077.052.084.045.07.077.126.066.112.042.073.031.056.028.056a.6.6,0,0,1,.045.08l.042.087c.1.2.192.4.276.6,0,.031.024.059.035.087l.094.252a.1.1,0,0,0,.025.08c.024.028.024.07.038.108a.847.847,0,0,1,.028.1l.021.059a.44.44,0,0,0,.024.091l.032.112c.017.059.031.119.045.178q.014.047.024.094a.949.949,0,0,0,.028.136.131.131,0,0,1,0,.056v1.014h0v.066a.432.432,0,0,0,0,.07v.115h0v.119C850.6,306.915,850.814,307.037,850.81,307.114Z" transform="translate(-585.996 -203.585)"/><path class="d" d="M851.446,307.062v.556a.047.047,0,0,1,0,.021v.224l-.031.248a1.272,1.272,0,0,1-.025.161h0v.129a.178.178,0,0,1,0,.042v.087a.712.712,0,0,1-.017.084v.063a.2.2,0,0,1-.025.108h0l-.021.073-.021.087-.032.108v.031a.741.741,0,0,1-.035.108c-.032.115-.07.227-.108.35a.4.4,0,0,1-.039.108.448.448,0,0,1-.024.059,7.511,7.511,0,0,0,.213-1.87,7.733,7.733,0,0,0-3.576-6.45c-.14-.091-.28-.171-.423-.252a7.737,7.737,0,0,0-7.426,0,8.031,8.031,0,0,0-.734.458,7.7,7.7,0,0,0-1.007.853,7.809,7.809,0,0,0-.944-.8h0a8.027,8.027,0,0,0-.8-.507,7.691,7.691,0,0,0-8.527.734,8.266,8.266,0,0,0-.643.577,7.624,7.624,0,0,0-.846,1c-.154.217-.3.441-.426.668h0a7.282,7.282,0,0,0-.329.661c-.056.126-.108.252-.154.378a.561.561,0,0,1,.035-.147l.021-.073v-.045l.031-.108h0c.024-.084.052-.168.08-.252s.025-.077.039-.115q.084-.248.189-.482l.042-.1.063-.143c.038-.077.073-.154.115-.227v-.017h0l.056-.1.063-.115c.025-.049.053-.1.081-.147l.042-.066.021-.038h0c0-.028.031-.056.049-.084s.042-.063.059-.094.091-.14.14-.206l.049-.073.063-.087.066-.087.084-.108.073-.094.028-.031.052-.066.087-.1.035-.042h0l.066-.073c.021-.028.049-.052.073-.08s.136-.147.21-.22l.084-.08.129-.126.087-.08.1-.091.067-.056.07-.059.136-.112.073-.056c.115-.087.234-.175.35-.259l.074-.049.07-.049.07-.042.1-.066.049-.028.077-.045c.1-.059.2-.115.3-.168l.059-.031.094-.049.077-.038.08-.038.077-.035.077-.035.08-.035.318-.129.08-.028.084-.031.077-.028.063-.021.147-.045.077-.024.059-.017.059-.018.108-.028.14-.035c.143-.038.29-.07.437-.094h.4c.14-.017.28-.035.423-.045H833.5l.35.035.154.021h.325c.147.024.29.056.437.091l.175.045h.049l.077.021.147.046.063.017c.108.035.213.07.318.112l.073.025.094.038.143.056.161.07.066.031.087.038.077.038.077.038.1.049.077.042.178.094.073.045c.087.049.175.1.259.157l.07.042.073.049.073.049h0l.049.035.3.22a.539.539,0,0,0,.07.056l.14.112.066.059.07.056.1.091.087.08.129.126a.955.955,0,0,1,.087.08.611.611,0,0,1,.084-.08l.129-.126.087-.08.1-.091.07-.056.066-.059.14-.112a.548.548,0,0,0,.07-.056l.35-.259.073-.049.073-.049.07-.042.1-.066.052-.028.073-.045q.15-.091.3-.168l.059-.031.094-.049.077-.038.077-.038.08-.035.077-.035.081-.035.318-.129.08-.028.084-.031.077-.028.063-.021.147-.045.077-.024.059-.017.059-.017.1-.028.14-.035q.22-.056.44-.094h.4c.143-.017.283-.035.423-.045h1.171l.35.035a.365.365,0,0,1,.15.021h.329c.143.024.29.056.433.091l.178.045h.049l.077.021.147.045.063.017c.1.035.213.07.318.112l.07.024.094.038.143.056.164.07.063.031.088.038.08.038.077.038.094.049.081.042.175.094.077.045c.087.049.171.1.259.157l.07.042.07.049.073.049h0l.046.035q.157.1.3.22l.074.056.136.112.07.059.066.056.091.08.088.08.049.045h0l.084.08.038.035.045.045.084.087.129.133c.024.028.049.052.07.08l.122.136.126.15a5.817,5.817,0,0,1,.406.545l.052.077.052.084.045.07.077.126.066.112.042.073.032.056.028.056a.585.585,0,0,1,.045.08l.042.087c.1.2.192.4.276.6,0,.031.024.059.035.087l.094.252a.1.1,0,0,0,.024.08c.025.028.025.07.038.108a.8.8,0,0,1,.028.1l.021.059a.442.442,0,0,0,.025.091l.031.112c.017.059.032.119.045.178a.9.9,0,0,1,.025.094.924.924,0,0,0,.028.136.131.131,0,0,1,0,.056v1.014h0v.066a.431.431,0,0,0,0,.07v.115h0v.119C851.362,306.835,851.45,306.985,851.446,307.062Z" transform="translate(-586.632 -203.533)"/><path class="c" d="M706.4,265.633v.713a.97.97,0,0,1,0,.1.663.663,0,0,1-.032.248c-.031.08,0,.108-.024.161h0a.631.631,0,0,1,0,.08.263.263,0,0,1,0,.049v.126l-.021.084a.387.387,0,0,1,0,.063.979.979,0,0,1-.024.108h0a.59.59,0,0,0,0,.073.913.913,0,0,0-.024.091l-.031.108a.086.086,0,0,1,0,.028l-.032.112c-.035.112-.07.227-.112.35a.317.317,0,0,1-.038.1l-.021.059a7.688,7.688,0,0,1-1.024,1.867l-.08.1a7.684,7.684,0,0,1-.654.748l-10.911,10.908L682.457,271.01a7.744,7.744,0,0,1-.853-1.017,7.543,7.543,0,0,1-.448-.7,7.692,7.692,0,0,1-.93-4.384,3.352,3.352,0,0,1,.045-.42c.035-.248.08-.489.14-.734a.51.51,0,0,1,.038-.143.5.5,0,0,1,.017-.077.2.2,0,0,1,0-.042l.031-.112h0c.024-.084.049-.168.077-.252l.042-.115c.056-.164.119-.325.185-.486l.042-.094c.021-.049.042-.1.066-.143s.073-.154.112-.231v-.017h0l.052-.1.063-.115.084-.143a.7.7,0,0,1,.039-.07l.024-.038h0l.052-.084c.017-.031.038-.063.059-.094l.136-.206.052-.07.063-.087.066-.091.08-.108a.967.967,0,0,1,.077-.091.31.31,0,0,1,.025-.035l.056-.063.084-.1.038-.045h0l.063-.073.073-.08.21-.217.084-.084.133-.122a.964.964,0,0,1,.087-.08l.1-.091.07-.059.066-.056.14-.112.07-.056c.115-.091.238-.178.35-.259l.073-.049.073-.049.07-.045.1-.063.049-.031.077-.045c.1-.056.2-.115.3-.168l.063-.031-.007-.08.077-.038.077-.035.077-.038.08-.035.077-.035.322-.129.077-.028.084-.031.077-.024.066-.021.147-.049.073-.021.063-.017.059-.017.1-.031.14-.035.437-.094h.4c.14-.017.283-.031.423-.042h1.171a3.166,3.166,0,0,1,.35.031l.15.021h.325c.147.028.294.059.437.094l.178.045h.049a.589.589,0,0,1,.073.021l.147.042.066.021.315.108.073.028.094.035.143.059.164.07.063.028.087.042.077.035.077.038.1.049.077.042.178.1.077.042.255.157.07.045.073.049.073.049h0l.049.031c.1.073.206.147.3.224a.539.539,0,0,1,.07.056c.049.035.094.073.14.112l.07.056.066.059.1.091a.98.98,0,0,1,.087.08l.133.122.084.084.084-.084.129-.122.087-.08.1-.091.066-.059.07-.056c.045-.038.091-.077.14-.112a.535.535,0,0,1,.07-.056c.115-.091.234-.178.35-.259l.073-.049.073-.049.066-.045.1-.063.049-.031.077-.045c.1-.056.2-.115.3-.168l.059-.031.094-.049.08-.038.077-.035.077-.038.08-.035.077-.035.318-.129.08-.028.084-.031.077-.024.063-.021.147-.049.077-.021.059-.017.059-.018.108-.031.14-.035c.147-.035.29-.066.437-.094h.4c.14-.017.28-.031.423-.042h1.171l.35.031.15.021h.325c.147.028.29.059.437.094l.178.045h.045a.5.5,0,0,1,.077.021l.147.042.063.021.318.108.073.028.094.035.143.059.164.07.063.028.087.042.077.035.077.038.1.049.077.042.178.1.074.042.259.157.07.045.073.049.073.049h0l.049.031.3.224.07.056.14.112.066.056.07.059.087.077.091.08.049.049h0l.087.08.038.038.045.045.084.084.126.136.073.08c.042.042.08.087.119.133l.126.15a6.3,6.3,0,0,1,.406.545l.052.077.052.084a.834.834,0,0,1,.045.073,1.436,1.436,0,0,1,.077.122c.024.042.045.077.066.115l.042.07.031.056.031.056.042.084c0,.028.032.056.045.084.1.2.192.4.273.6a.651.651,0,0,1,.035.087q.053.126.094.252a.225.225,0,0,0,.028.077l.035.108.032.1a.087.087,0,0,0,.017.063c.017.021,0,.059.028.087l.031.112a.866.866,0,0,0,.046.182l.021.094.032.133v.059a.505.505,0,0,1,0,.077.358.358,0,0,1,0,.059.279.279,0,0,1,0,.052v.094a.9.9,0,0,1,0,.094.97.97,0,0,1,0,.1.221.221,0,0,0,.018.1v.43h0v.255h0v.115C706.4,265.472,706.4,265.549,706.4,265.633Z" transform="translate(-492.16 -176.581)"/><path class="d" d="M706.536,265.633v.713a.97.97,0,0,1,0,.1.663.663,0,0,1-.032.248c-.031.08,0,.108-.024.161h0a.61.61,0,0,1,0,.08.274.274,0,0,1,0,.049v.126l-.021.084a.387.387,0,0,1,0,.063.979.979,0,0,1-.025.108h0a.567.567,0,0,0,0,.073.9.9,0,0,0-.024.091l-.031.108a.086.086,0,0,1,0,.028l-.032.112c-.035.112-.07.227-.112.35a.317.317,0,0,1-.039.1l-.021.059a7.724,7.724,0,0,0-3.367-8.32c-.136-.087-.276-.171-.419-.248a7.723,7.723,0,0,0-7.429,0,6.907,6.907,0,0,0-.731.458,7.425,7.425,0,0,0-1.01.85,7.879,7.879,0,0,0-.944-.8h0a7.632,7.632,0,0,0-.8-.5,7.726,7.726,0,0,0-9.17,1.307,7.612,7.612,0,0,0-.993,1c-.154.217-.294.441-.423.668h0c-.119.217-.231.437-.329.661-.056.122-.1.248-.154.374a.513.513,0,0,1,.038-.143.488.488,0,0,1,.017-.077.2.2,0,0,1,0-.042l.032-.112h0c.024-.084.049-.168.077-.252l.042-.115c.056-.164.119-.325.185-.486l.042-.094c.021-.049.042-.1.066-.143s.073-.154.112-.231v-.017h0l.052-.1.063-.115.084-.143a.687.687,0,0,1,.038-.07l.025-.038h0l.052-.084c.017-.031.038-.063.059-.094l.136-.206.052-.07.063-.087.066-.091.08-.108a.971.971,0,0,1,.077-.091.308.308,0,0,1,.025-.035l.056-.063.084-.1.038-.045h0l.063-.073.073-.08.21-.217.084-.084.133-.122a.976.976,0,0,1,.087-.08l.1-.091.07-.059.066-.056.14-.112.07-.056c.115-.091.238-.178.35-.259l.073-.049.073-.049.07-.045.1-.063.049-.031.077-.045c.1-.056.2-.115.3-.168l.063-.031.133-.059.077-.038.077-.035.077-.038.08-.035.077-.035.322-.129.077-.028.084-.031.077-.024.066-.021.147-.049.074-.021.063-.017.059-.017.1-.031.14-.035.437-.094h.4c.14-.017.283-.031.423-.042h1.171a3.163,3.163,0,0,1,.35.031l.15.021h.325c.147.028.294.059.437.094l.178.045h.049a.582.582,0,0,1,.073.021l.147.042.066.021.315.108.073.028.094.035.143.059.164.07.063.028.087.042.077.035.077.038.1.049.077.042.178.1.077.042.255.157.07.045.074.049.073.049h0l.049.031c.1.073.206.147.3.224a.538.538,0,0,1,.07.056c.049.035.094.073.14.112l.07.056.066.059.1.091a.972.972,0,0,1,.087.08l.133.122.084.084.084-.084.129-.122.087-.08.1-.091.066-.059.07-.056c.045-.038.091-.077.14-.112a.538.538,0,0,1,.07-.056c.115-.091.234-.178.35-.259l.073-.049.073-.049.066-.045.1-.063.049-.031.077-.045c.1-.056.2-.115.3-.168l.059-.031.094-.049.08-.038.077-.035.077-.038.08-.035.077-.035.318-.129.08-.028.084-.031.077-.024.063-.021.147-.049.077-.021.059-.017.059-.018.108-.031.14-.035c.147-.035.29-.066.437-.094h.4c.14-.017.28-.031.423-.042H699.4l.35.031.15.021h.325c.147.028.29.059.437.094l.178.045h.045a.5.5,0,0,1,.077.021l.147.042.063.021.318.108.073.028.094.035.143.059.164.07.063.028.087.042.077.035.077.038.1.049.077.042.178.1.073.042.259.157.07.045.073.049.073.049h0l.049.031.3.224.07.056.14.112.066.056.07.059.087.077.091.08.049.049h0l.087.08.038.038.045.045.084.084.126.136.073.08c.042.042.08.087.119.133l.126.15a6.3,6.3,0,0,1,.406.545l.052.077.052.084a.863.863,0,0,1,.045.073c.028.038.052.08.077.122s.045.077.066.115l.042.07.032.056.031.056.042.084c0,.028.031.056.045.084.1.2.192.4.273.6a.651.651,0,0,1,.035.087q.052.126.094.252a.227.227,0,0,0,.028.077l.035.108.032.1a.087.087,0,0,0,.018.063c.017.021,0,.059.028.087l.031.112a.869.869,0,0,0,.045.182l.021.094.032.133v.059a.505.505,0,0,1,0,.077.372.372,0,0,1,0,.059.289.289,0,0,1,0,.052v.094a.936.936,0,0,1,0,.094q0,.049,0,.1a.223.223,0,0,0,.018.1v.43h0v.255h0v.115C706.536,265.472,706.536,265.549,706.536,265.633Z" transform="translate(-492.299 -176.581)"/><path class="c" d="M411.316,287.611a.447.447,0,0,1,0,.066v.633a1,1,0,0,1,0,.1,1.5,1.5,0,0,1-.031.248c-.014.084,0,.108-.024.161h0a.544.544,0,0,1,0,.08v.178l-.021.084a.4.4,0,0,1,0,.063.177.177,0,0,1-.024.108h0a.57.57,0,0,0-.018.073.818.818,0,0,0-.024.087l-.031.108a.1.1,0,0,1,0,.031l-.031.108c-.035.115-.07.227-.112.35a.978.978,0,0,1-.038.108l-.021.059a7.657,7.657,0,0,1-1.024,1.863l-.08.108a7.659,7.659,0,0,1-.654.745l-10.911,10.911-10.911-10.911a7.785,7.785,0,0,1-.857-1.014c-.161-.231-.308-.468-.444-.7a7.716,7.716,0,0,1-.93-4.387,3.417,3.417,0,0,1,.045-.42c.035-.245.08-.489.14-.731a.745.745,0,0,1,.035-.147l.021-.073a.226.226,0,0,1,0-.045.412.412,0,0,1,.028-.108h0c.024-.084.049-.168.077-.252s.028-.077.038-.115q.087-.248.189-.482l.042-.1c.021-.046.042-.094.066-.143s.073-.154.112-.227v-.018h0l.052-.1.063-.115.084-.147.038-.066.024-.038h0l.052-.084c.017-.031.038-.063.059-.094l.136-.206.052-.073.063-.087c.021-.028.042-.059.066-.087a1.238,1.238,0,0,1,.08-.108l.077-.094.024-.031.052-.066.087-.1.038-.042h0l.063-.073.073-.08.21-.22.084-.08.133-.126.087-.08.1-.091.07-.056.066-.059.14-.112.07-.056c.115-.087.234-.175.35-.259l.073-.049.073-.049.07-.042a1.023,1.023,0,0,1,.1-.066l.049-.028.077-.045c.1-.059.2-.115.3-.168l.063-.035.031-.049.077-.038.077-.038.077-.035.08-.035.077-.035.322-.129.077-.028.084-.031.077-.028.066-.021.147-.045.073-.025.063-.017h.059l.1-.028.14-.035c.147-.038.29-.07.437-.094h.231l.1-.017h.063c.14,0,.283-.035.423-.045h1.161l.35.035.15.017.1.017h.224c.147.024.294.056.437.091l.178.045h.049l.073.021.147.045.063.017c.108.035.213.07.318.112l.073.024.094.038.143.056.164.07.063.031.087.038.077.038.077.038.1.049.077.042.178.094.073.045c.087.049.175.1.259.157l.07.042.073.049.073.049h0a.248.248,0,0,1,.049.035q.154.1.3.22l.07.056.14.112.066.059.07.056.1.091.087.08.133.126.084.08.084-.08.129-.126.087-.08.1-.091.066-.056.07-.059.14-.112.07-.056c.115-.087.234-.175.35-.259l.073-.049.073-.049.066-.042.1-.066.049-.028.077-.045c.1-.059.2-.115.3-.168a.351.351,0,0,0,.059-.035l.094-.045.077-.038.08-.038.077-.035.08-.035.077-.035.318-.129.08-.028.084-.031.077-.028.063-.021.147-.045.077-.024.059-.018h.059l.108-.028.14-.035c.143-.039.29-.07.437-.094h.227l.108-.018h.063c.14,0,.28-.035.423-.045h1.171l.35.035.154.018.1.018h.224c.147.024.29.056.437.091l.175.045h.049l.077.021.147.045.063.017c.108.035.213.07.318.112l.073.024.094.038.143.056.161.07.066.031.087.038.077.038.077.038.1.049.077.042.178.094.073.045c.087.049.175.1.259.157l.07.042.073.049.073.049h0l.049.035.3.22.07.056.14.112.066.059.07.056.087.08a.956.956,0,0,1,.087.08l.052.045h0l.087.08.035.035.049.045.084.087.126.133.073.08.119.136.126.15a5.806,5.806,0,0,1,.406.545l.052.077.052.084a.483.483,0,0,1,.045.07c.028.042.052.084.077.126l.066.112.042.073.031.056.031.056.042.08c.017.028.031.059.045.087a6.525,6.525,0,0,1,.273.6l.035.087q.052.126.094.252l.028.08a.484.484,0,0,0,.035.108l.031.1a.075.075,0,0,0,.017.059l.028.091a1.055,1.055,0,0,1,.028.112c.017.059.031.119.049.178l.021.094.031.136V286a.6.6,0,0,1,0,.077.424.424,0,0,1,0,.063.212.212,0,0,1,0,.049v.192a.9.9,0,0,1,0,.094v.108q0,.051,0,.1v.22a1.061,1.061,0,0,1,0,.108h0a.42.42,0,0,0,0,.066c0,.024,0,.049,0,.07v.115h0v.119C411.155,287.426,411.316,287.534,411.316,287.611Z" transform="translate(-300.228 -190.896)"/><path class="d" d="M411.479,287.611a.455.455,0,0,1,0,.066v.633q0,.051,0,.1a1.5,1.5,0,0,1-.032.248c-.014.084,0,.108-.024.161h0a.561.561,0,0,1,0,.08v.178l-.021.084a.394.394,0,0,1,0,.063.176.176,0,0,1-.025.108h0a.57.57,0,0,0-.017.073.811.811,0,0,0-.024.087l-.031.108a.1.1,0,0,1,0,.031l-.032.108c-.035.115-.07.227-.112.35a.985.985,0,0,1-.038.108l-.021.059a7.533,7.533,0,0,0-3.5-8.3c-.136-.091-.28-.171-.42-.252a7.744,7.744,0,0,0-7.429,0,7.524,7.524,0,0,0-.731.458,7.732,7.732,0,0,0-1.01.853,7.557,7.557,0,0,0-.944-.8h0a7.66,7.66,0,0,0-.8-.507,7.744,7.744,0,0,0-7.429,0,7.478,7.478,0,0,0-1.094.734,7.685,7.685,0,0,0-1.493,1.58c-.154.217-.294.441-.423.668h0c-.119.217-.231.437-.329.661-.056.126-.1.252-.154.378a.747.747,0,0,1,.035-.147l.021-.073a.222.222,0,0,1,0-.045.414.414,0,0,1,.028-.108h0c.024-.084.049-.168.077-.252s.028-.077.038-.115q.087-.248.189-.482l.042-.1c.021-.046.042-.094.066-.143s.073-.154.112-.227v-.018h0l.052-.1.063-.115.084-.147.038-.066.024-.038h0l.052-.084c.018-.031.039-.063.06-.094l.136-.206.052-.073.063-.087c.021-.028.042-.059.066-.087a1.239,1.239,0,0,1,.08-.108l.077-.094.024-.031.052-.066.087-.1.038-.042h0l.063-.073.073-.08.21-.22.084-.08.133-.126.087-.08.1-.091.07-.056.066-.059.14-.112.07-.056c.115-.087.234-.175.35-.259l.073-.049.073-.049.07-.042a1.034,1.034,0,0,1,.1-.066l.049-.028.077-.045c.1-.059.2-.115.3-.168l.063-.035.157-.049.077-.038.077-.038.077-.035.08-.035.077-.035.322-.129.077-.028.084-.031.077-.028.066-.021.147-.045.073-.025.063-.017h.059l.1-.028.14-.035c.147-.038.29-.07.437-.094h.231l.1-.017h.063c.14,0,.283-.035.423-.045h1.161l.35.035.15.017.1.017h.224c.147.024.294.056.437.091l.178.045h.049l.073.021.147.045.063.017c.108.035.213.07.318.112l.073.024.094.038.143.056.164.07.063.031.087.038.077.038.077.038.1.049.077.042.178.094.073.045c.087.049.175.1.259.157l.07.042.073.049.073.049h0a.247.247,0,0,1,.049.035q.154.1.3.22l.07.056.14.112.066.059.07.056.1.091.087.08.133.126.084.08.084-.08.129-.126.087-.08.1-.091.066-.056.07-.059.14-.112.07-.056c.115-.087.234-.175.35-.259l.073-.049.073-.049.066-.042.1-.066.049-.028.077-.045c.1-.059.2-.115.3-.168a.351.351,0,0,0,.059-.035l.094-.045.077-.038.08-.038.077-.035.08-.035.077-.035.318-.129.08-.028.084-.031.077-.028.063-.021.147-.045.077-.024.059-.018h.06l.108-.028.14-.035c.143-.039.29-.07.437-.094h.227l.108-.018h.063c.14,0,.28-.035.423-.045h1.171l.35.035.154.018.1.018h.224c.147.024.29.056.437.091l.175.045h.049l.077.021.147.045.063.017c.108.035.213.07.318.112l.073.024.094.038.143.056.161.07.066.031.087.038.077.038.077.038.1.049.077.042.178.094.073.045c.087.049.175.1.259.157l.07.042.073.049.073.049h0l.049.035.3.22.07.056.14.112.066.059.07.056.087.08a.956.956,0,0,1,.087.08l.052.045h0l.087.08.035.035.049.045.084.087.126.133.073.08.119.136.126.15a5.816,5.816,0,0,1,.406.545l.052.077.053.084a.478.478,0,0,1,.045.07c.028.042.052.084.077.126l.066.112.042.073.032.056.031.056.042.08c.017.028.031.059.045.087a6.533,6.533,0,0,1,.273.6l.035.087q.052.126.094.252l.028.08a.485.485,0,0,0,.035.108l.031.1a.075.075,0,0,0,.017.059l.028.091a1.07,1.07,0,0,1,.028.112c.017.059.031.119.049.178l.021.094.031.136V286a.588.588,0,0,1,0,.077.408.408,0,0,1,0,.063.205.205,0,0,1,0,.049v.192a.886.886,0,0,1,0,.094v.108q0,.051,0,.1v.22a1.052,1.052,0,0,1,0,.108h0a.431.431,0,0,0,0,.066c0,.024,0,.049,0,.07v.115h0v.119C411.318,287.426,411.479,287.534,411.479,287.611Z" transform="translate(-300.392 -190.896)"/><path class="c" d="M401.638,446.877V447a.469.469,0,0,1,0,.07v.374a.045.045,0,0,1,0,.021v.224l-.031.248a.37.37,0,0,1-.024.161h0v.126a.179.179,0,0,1,0,.042.647.647,0,0,1-.018.087.7.7,0,0,1-.017.084v.063a.2.2,0,0,1-.024.108h0l-.021.073-.021.091-.031.108v.028a.878.878,0,0,1-.035.112c-.031.112-.07.227-.108.35l-.038.1a.306.306,0,0,1-.024.059,7.552,7.552,0,0,1-1.021,1.867l-.08.1a7.689,7.689,0,0,1-.657.745l-10.908,10.911-10.911-10.911a7.788,7.788,0,0,1-.857-1.014,7.984,7.984,0,0,1-.444-.7,7.692,7.692,0,0,1-.93-4.388,2.75,2.75,0,0,1,.045-.416c.035-.248.08-.49.14-.734a.561.561,0,0,1,.035-.147l.021-.073v-.042l.031-.112h0c.028-.084.052-.168.08-.252l.038-.115c.059-.164.119-.325.189-.486l-.052-.1.063-.143c.038-.077.073-.154.115-.231v-.018h0l.056-.1.063-.115c.024-.049.052-.1.08-.143l.042-.07.021-.039h0c0-.028.031-.056.049-.084s.042-.063.059-.094l.14-.206c.017-.024.031-.049.049-.07l.063-.087.066-.091.084-.108.073-.094.028-.031.052-.066.087-.1.038-.042h0l.066-.073.1-.087c.066-.073.136-.147.21-.217l.084-.084.129-.126.087-.077.1-.091.066-.059.07-.056c.045-.038.091-.077.14-.112a.546.546,0,0,1,.07-.056c.115-.091.234-.178.35-.259l.073-.049a.533.533,0,0,1,.073-.049l.066-.045.1-.063.049-.031.077-.045c.1-.059.2-.115.3-.168l.059-.031.094-.049.077-.038.08-.035.077-.038.077-.035.08-.035.318-.129.08-.028.084-.031.077-.025.063-.021.147-.049.077-.024.059-.018h.059l.108-.031.14-.035c.143-.035.29-.066.437-.094h.4c.14-.017.28-.031.423-.042H383.6l.35.031.154.021h.325c.147.025.29.056.437.091l.175.049h.049l.077.024.147.042.063.021c.108.031.213.07.318.108l.073.028.094.035.143.059.161.07.066.028.087.042.077.035.077.038.1.049.077.042.178.1.073.042c.087.052.175.1.259.157l.07.045.073.049.073.049h0l.049.031.3.224.07.056.14.112.066.056.07.059.1.091.087.077.129.126.087.084.084-.084.129-.126.087-.077.1-.091.07-.059.066-.056.14-.112.07-.056c.119-.091.238-.178.35-.259l.073-.049.073-.049.07-.045.1-.063.052-.031.073-.045.3-.168.059-.031.094-.049.077-.038.077-.035.08-.038.077-.035.08-.035.318-.129.08-.028.084-.031.077-.025.063-.021.147-.049.077-.024.059-.017h.059l.1-.031.143-.035c.143-.035.29-.066.437-.094h.4l.423-.042H394.5a3.076,3.076,0,0,1,.35.031l.15.021h.329c.147.025.29.056.434.091l.178.049h.049l.077.025.147.042.063.021c.1.031.213.07.318.108l.07.028.094.035.143.059.164.07.063.028.087.042.08.035.077.038.1.049.077.042c.059.031.119.063.175.1l.077.042.259.157.07.045.073.049.07.049h0l.045.031c.1.073.206.147.3.224l.073.056.136.112.07.056.066.059.091.077.087.08.049.049h0l.084.08.038.038.045.045.084.084.129.136.073.077.119.136.126.15a6.315,6.315,0,0,1,.406.545l.052.077.052.084.045.073.077.122.066.115.042.07.031.056c0,.017.017.038.028.056s.031.056.045.084.028.056.045.084c.1.2.189.4.273.6,0,.028.024.056.035.087l.094.252.024.077a.337.337,0,0,0,.038.108.6.6,0,0,1,.028.1l.021.063.024.087.031.112c.017.059.031.119.045.182a.949.949,0,0,1,.024.094,1,1,0,0,0,.028.133v1.07h0v.07a.5.5,0,0,0,0,.07v.115h0v.119C401.45,446.7,401.642,446.8,401.638,446.877Z" transform="translate(-293.925 -294.491)"/><path class="d" d="M401.881,446.877V447a.461.461,0,0,1,0,.07v.374a.046.046,0,0,1,0,.021v.224l-.031.248a.369.369,0,0,1-.024.161h0v.126a.182.182,0,0,1,0,.042.651.651,0,0,1-.017.087.692.692,0,0,1-.018.084v.063a.2.2,0,0,1-.024.108h0l-.021.073-.021.091-.031.108v.028a.873.873,0,0,1-.035.112c-.031.112-.07.227-.108.35l-.038.1a.306.306,0,0,1-.024.059,7.493,7.493,0,0,0,.213-1.87,7.588,7.588,0,0,0-.262-1.94,7.75,7.75,0,0,0-3.314-4.51c-.14-.087-.28-.171-.423-.248a7.716,7.716,0,0,0-7.426,0,10.975,10.975,0,0,0-1.832,1.311,7.823,7.823,0,0,0-.944-.8h0a8.013,8.013,0,0,0-.8-.5,7.723,7.723,0,0,0-8.527.731,8.253,8.253,0,0,0-.643.577,7.611,7.611,0,0,0-.846,1,7.113,7.113,0,0,0-.423.668h0a7.258,7.258,0,0,0-.329.661c-.056.122-.108.248-.154.374a.561.561,0,0,1,.035-.147l.021-.073v-.042l.031-.112h0c.028-.084.052-.168.08-.252l.038-.115c.059-.164.119-.325.189-.486l.031-.08.063-.143.115-.231v-.018h0l.056-.1.063-.115c.024-.049.052-.1.08-.143l.042-.07.021-.039h0c0-.028.031-.056.049-.084s.042-.063.059-.094l.14-.206c.017-.024.031-.049.049-.07l.063-.087.066-.091.084-.108.073-.094.028-.031.052-.066.087-.1.038-.042h0l.066-.073.1-.087c.066-.073.136-.147.21-.217l.084-.084.129-.126.087-.077.1-.091.066-.059.07-.056c.045-.038.091-.077.14-.112a.551.551,0,0,1,.07-.056c.115-.091.234-.178.35-.259l.073-.049a.534.534,0,0,1,.073-.049l.066-.045.1-.063.049-.031.077-.045c.1-.059.2-.115.3-.168l.059-.031.094-.049.077-.038.08-.035.077-.038.077-.035.08-.035.318-.129.08-.028.084-.031.077-.025.063-.021.147-.049.077-.024.059-.018h.059l.108-.031.14-.035c.143-.035.29-.066.437-.094h.4c.14-.017.28-.031.423-.042h1.161l.35.031.154.021h.325c.147.025.29.056.437.091l.175.049h.049l.077.024.147.042.063.021c.108.031.213.07.318.108l.073.028.094.035.143.059.161.07.066.028.087.042.077.035.077.038.1.049.077.042.178.1.073.042c.087.052.175.1.259.157l.07.045.073.049.073.049h0l.049.031.3.224.07.056.14.112.066.056.07.059.1.091.087.077.129.126.087.084.084-.084.129-.126.087-.077.1-.091.07-.059.066-.056.14-.112.07-.056c.119-.091.238-.178.35-.259l.073-.049.073-.049.07-.045.1-.063.052-.031.073-.045.3-.168.059-.031.094-.049.077-.038.077-.035.08-.038.077-.035.08-.035.318-.129.08-.028.084-.031.077-.025.063-.021.147-.049.077-.024.059-.017h.059l.1-.031.143-.035c.143-.035.29-.066.437-.094h.4l.423-.042h1.161a3.076,3.076,0,0,1,.35.031l.15.021h.329c.147.025.29.056.433.091l.178.049h.049l.077.025.147.042.063.021c.1.031.213.07.318.108l.07.028.094.035.143.059.164.07.063.028.087.042.08.035.077.038.1.049.077.042c.059.031.119.063.175.1l.077.042.259.157.07.045.073.049.07.049h0l.045.031c.1.073.206.147.3.224l.073.056.136.112.07.056.066.059.091.077.087.08.049.049h0l.084.08.038.038.045.045.084.084.129.136.073.077.119.136.126.15a6.3,6.3,0,0,1,.406.545l.052.077.052.084.045.073.077.122.066.115.042.07.031.056c0,.017.017.038.028.056s.031.056.045.084.028.056.045.084c.1.2.189.4.273.6,0,.028.025.056.035.087l.094.252.024.077a.337.337,0,0,0,.039.108.6.6,0,0,1,.028.1l.021.063.025.087.031.112c.017.059.031.119.045.182a.966.966,0,0,1,.025.094,1.015,1.015,0,0,0,.028.133v1.07h0v.07a.5.5,0,0,0,0,.07v.115h0v.119C401.692,446.7,401.885,446.8,401.881,446.877Z" transform="translate(-294.168 -294.491)"/><path class="c" d="M499.163,348.807v.087a.188.188,0,0,1,0,.045v.367a.5.5,0,0,1,0,.07l-.021.175-.021.112h0v.056a.124.124,0,0,1,0,.035v.192c0,.026,0,.051,0,.077h0v.049a.1.1,0,0,1-.017.066l-.021.077v.017l-.021.081c-.024.08-.052.161-.08.238s0,.052-.024.077l-.018.042a5.512,5.512,0,0,1-.72,1.318l-.059.073a5.032,5.032,0,0,1-.462.528L489.99,360.3l-7.709-7.709a5.467,5.467,0,0,1-1.577-4.318,2.219,2.219,0,0,1,.035-.3,5.117,5.117,0,0,1,.1-.514.562.562,0,0,1,.024-.1.3.3,0,0,0,0-.052v-.031l.021-.077h0c.017-.063.038-.122.056-.178l.028-.084c.042-.115.084-.227.133-.35l.031-.066c0-.035.028-.067.045-.1l.077-.161h0a.742.742,0,0,0,.038-.073l.045-.08a.973.973,0,0,1,.06-.1.23.23,0,0,1,.028-.049v-.028h0l.039-.056.042-.066.1-.147.035-.052.042-.059.049-.066.059-.073a.484.484,0,0,1,.052-.066l.017-.025.039-.045c.021-.024.038-.049.059-.07l.028-.031h0l.045-.049.052-.06.147-.154.059-.059.094-.087a.448.448,0,0,0,.059-.056l.073-.063.049-.042.049-.038.1-.08.049-.038.252-.185.052-.035.052-.031.049-.031.07-.045.038-.021.052-.031c.07-.042.14-.084.213-.119l.042-.024.066-.035.056-.024.056-.028.052-.024.056-.024.056-.025.227-.091.056-.021.059-.021.052-.021h.046l.1-.035h.136l.077-.021.1-.024c.1-.028.206-.049.311-.066h.28c.1,0,.2-.024.3-.031h.829l.238.024h.339c.1.018.206.039.308.063l.126.035h.087l.1.028h.042l.227.077.049.021.066.024.1.042.115.049.045.021.063.028.056.028.052.024.07.035.052.031.126.066.052.031.185.112.049.031.049.031.052.035h0l.035.025c.073.049.143.1.213.157l.049.039.1.08.045.038.049.042.073.063.063.056a1.059,1.059,0,0,0,.091.087l.059.059.059-.059a1.069,1.069,0,0,0,.091-.087l.063-.056.073-.063.049-.042.045-.038.1-.08.049-.039c.08-.063.164-.126.252-.185l.052-.035.049-.031.049-.031.073-.045.035-.021.052-.031c.073-.042.143-.084.217-.119l.042-.024.066-.035.052-.024.056-.028.056-.024.056-.024.056-.024.224-.091.056-.021.059-.021.056-.021h.045l.1-.035h.14l.073-.021.1-.024c.1-.028.206-.049.308-.066h.283c.1,0,.2-.024.3-.031h.829l.238.025h.339l.3.063.126.035h.091l.1.028h.045l.224.077.052.021.066.024.1.042.115.049.045.021.059.028.056.028.056.025.066.035.056.031.126.066.052.031c.063.035.122.073.182.112l.049.031.052.031.052.035h0l.031.024c.073.049.147.1.217.157l.049.039a1.083,1.083,0,0,1,.1.08l.049.038.049.042.063.056.063.056.035.035h0l.059.059.024.025.035.031.059.063.091.094.049.056.084.094.091.108c.1.122.2.252.287.385l.035.052c0,.021.024.042.038.059l.031.052c.018.028.038.056.056.087l.045.08a.356.356,0,0,1,.028.049l.024.039.021.042.031.059.031.059c.07.136.133.28.192.423l.024.063c.024.059.045.115.066.178a.312.312,0,0,1,.018.052.086.086,0,0,0,.028.077l.021.07a.333.333,0,0,0,0,.045.087.087,0,0,0,.018.063l.021.077a.562.562,0,0,0,.035.126.153.153,0,0,1,0,.07l.021.094v.094a.186.186,0,0,0,0,.042v.315a.507.507,0,0,1,0,.073v.038a.539.539,0,0,0,0,.077.15.15,0,0,0,0,.038v.077h0a.235.235,0,0,1,0,.049.218.218,0,0,1,0,.049.664.664,0,0,1,0,.084h0a.664.664,0,0,1,0,.084Z" transform="translate(-362.398 -232.196)"/><path class="d" d="M499.511,348.768v.087a.2.2,0,0,1,0,.045v.367a.515.515,0,0,1,0,.07l-.021.175-.021.112h0v.056a.12.12,0,0,1,0,.035v.192c0,.026,0,.051,0,.077h0v.049a.1.1,0,0,1-.017.066l-.021.077v.017l-.021.08c-.025.08-.052.161-.08.238s0,.052-.024.077l-.017.042a5.441,5.441,0,0,0,.15-1.322,5.555,5.555,0,0,0-.185-1.374,5.467,5.467,0,0,0-1.4-2.447,5.543,5.543,0,0,0-.933-.748c-.1-.059-.2-.119-.3-.175a5.464,5.464,0,0,0-5.244,0,6.053,6.053,0,0,0-.517.322,5.755,5.755,0,0,0-.7.6,5.591,5.591,0,0,0-.664-.566h0a4.812,4.812,0,0,0-.566-.35,5.464,5.464,0,0,0-5.244,0,5.316,5.316,0,0,0-.773.517,5.534,5.534,0,0,0-.455.406,5.728,5.728,0,0,0-.6.7c-.108.154-.206.311-.3.472h0a4.877,4.877,0,0,0-.234.468c-.039.087-.073.175-.108.266a.572.572,0,0,1,.024-.1.289.289,0,0,0,0-.052v-.031l.021-.077h0c.018-.063.039-.122.056-.178l.028-.084c.042-.115.084-.227.133-.35l.031-.066c0-.035.028-.066.045-.1l.077-.161h0a.743.743,0,0,0,.039-.073l.045-.08a.949.949,0,0,1,.059-.1.223.223,0,0,1,.028-.049v-.028h0l.038-.056.042-.066.1-.147.035-.052.042-.059.049-.066.059-.073a.48.48,0,0,1,.052-.066l.017-.024.039-.045c.021-.025.038-.049.059-.07l.028-.031h0l.045-.049.052-.059.147-.154.059-.059.094-.087a.448.448,0,0,0,.059-.056l.073-.063.049-.042L483,344.5l.1-.08.049-.038.252-.185.052-.035.052-.031.049-.031.07-.045.038-.021.052-.031c.07-.042.14-.084.213-.119l.042-.024.066-.035.056-.024.056-.028.052-.025.056-.024.056-.025.227-.091.056-.021.059-.021.052-.021h.045l.1-.035h.136l.077-.021.1-.024c.1-.028.206-.049.311-.066h.28c.1,0,.2-.024.3-.031h.828l.238.024h.339c.1.017.206.038.308.063l.126.035h.087l.1.028h.042l.227.077.049.021.066.024.1.042.115.049.045.021.063.028.056.028.052.024.07.035.052.031.126.066.052.031.185.112.049.031.049.031.052.035h0l.035.024c.073.049.143.1.213.157l.049.038.1.08.045.038.049.042.073.063.063.056a1.074,1.074,0,0,0,.091.087l.059.059.059-.059a1.055,1.055,0,0,0,.091-.087l.063-.056.073-.063.049-.042.045-.038.1-.08.049-.038c.08-.063.164-.126.252-.185l.052-.035.049-.031.049-.031.073-.045.035-.021.052-.031c.073-.042.143-.084.217-.119l.042-.025.066-.035.052-.024.056-.028.056-.024.056-.024.056-.024.224-.091.056-.021.059-.021.056-.021h.045l.1-.035h.14l.073-.021.1-.025c.1-.028.206-.049.308-.066h.283c.1,0,.2-.025.3-.031h.829l.238.024h.339l.3.063.126.035h.091l.1.028h.045l.224.077.052.021.066.024.1.042.115.049.045.021.059.028.056.028.056.024.066.035.056.031.126.066.052.031c.063.035.122.073.182.112l.049.031.052.031.052.035h0l.031.025c.073.049.147.1.217.157l.049.038a1.1,1.1,0,0,1,.1.08l.049.038.049.042.063.056.063.056.035.035h0l.059.059.024.024.035.031.059.063.091.094.049.056.084.094.091.108c.1.122.2.252.287.385l.035.052c0,.021.024.042.038.059l.031.052c.018.028.039.056.056.087l.046.08a.364.364,0,0,1,.028.049l.024.038.021.042.031.059.031.059c.07.136.133.28.192.423l.024.063c.024.059.045.115.066.178a.3.3,0,0,1,.017.052.086.086,0,0,0,.028.077l.021.07a.315.315,0,0,0,0,.046.088.088,0,0,0,.017.063l.021.077a.568.568,0,0,0,.035.126c.01.042,0,.045,0,.07l.021.094v.094a.186.186,0,0,0,0,.042v.315a.526.526,0,0,1,0,.073v.038a.539.539,0,0,0,0,.077.145.145,0,0,0,0,.039v.077h0a.243.243,0,0,1,0,.049.234.234,0,0,1,0,.049.688.688,0,0,1,0,.084h0a.641.641,0,0,1,0,.084Z" transform="translate(-362.746 -232.157)"/><path class="c" d="M735.249,433.229v.087a.252.252,0,0,1,0,.049v.14a.839.839,0,0,0,0,.094v.133a.5.5,0,0,1,0,.07l-.021.175v.115h0v.056a.1.1,0,0,1,0,.035v.031a.45.45,0,0,1,0,.059v.182h0a.307.307,0,0,0,0,.052q0,.031,0,.063l-.021.077v.021a.654.654,0,0,0-.024.077c-.024.08-.049.161-.077.241a.655.655,0,0,0-.028.073l-.018.042a5.445,5.445,0,0,1-.72,1.318l-.056.073a5.527,5.527,0,0,1-.465.528l-7.709,7.709-7.691-7.709a5.056,5.056,0,0,1-.6-.717,4.993,4.993,0,0,1-.315-.5,5.456,5.456,0,0,1-.657-3.1,1.4,1.4,0,0,1,.031-.294,5.168,5.168,0,0,1,.1-.517.15.15,0,0,1,.028-.1.29.29,0,0,1,0-.052.1.1,0,0,1,0-.031l.021-.077h0a.7.7,0,0,1,.056-.178.805.805,0,0,0,.028-.084c.042-.115.087-.227.133-.35l.031-.07a.286.286,0,0,1,.045-.1c.018-.035.053-.108.08-.161h0l.035-.073.045-.08c.021-.035.038-.07.059-.1a.348.348,0,0,1,.028-.049s0-.018,0-.028h0c0-.021.025-.042.038-.059l.042-.066.1-.147.035-.049.046-.063.045-.063.059-.077.052-.066v-.024l.038-.045.06-.07.028-.031h0l.046-.052.052-.056c.049-.052.1-.1.15-.154a.474.474,0,0,1,.059-.059,1.069,1.069,0,0,1,.091-.087l.063-.056a.634.634,0,0,1,.07-.066l.049-.042.049-.038.1-.08.049-.038c.084-.063.168-.126.252-.182l.052-.035.052-.035.049-.031.073-.045.035-.021.052-.031.213-.119.042-.024.066-.031.056-.028.056-.025.056-.028.052-.025.056-.024.227-.091.056-.021.059-.021.053-.017.045-.017.1-.031h.136l.077-.021.1-.024c.1-.024.206-.049.311-.066h.28l.3-.031h.825l.241.025h.336a2.994,2.994,0,0,1,.308.066l.126.031h.087l.1.031h.045l.224.077h.049l.066.025.1.042.115.049.045.021.063.031.056.025.052.028.07.035.056.028.122.07.056.028.182.112.049.031.052.035.049.035h0l.035.025.213.157.052.039.1.08.049.038.045.042.073.066.063.056.091.087a.48.48,0,0,1,.059.059c.021-.021.038-.042.059-.059l.094-.087a.46.46,0,0,1,.059-.056l.073-.066.049-.042.049-.038.1-.08.049-.039c.084-.063.168-.126.252-.182l.052-.035.052-.035.049-.031.07-.045.038-.021.052-.031.213-.119.042-.025.066-.031.056-.028.052-.025.056-.028.056-.024.056-.025.224-.091.056-.021.059-.021.056-.017.045-.018.1-.031h.136l.077-.021.1-.025c.1-.024.206-.049.308-.066h.283l.3-.031h.828l.238.025h.339c.1.017.206.038.308.066l.126.031h.087l.1.031h.045l.224.077h.053l.066.024.1.042.115.049.046.021.063.031.052.024.056.028.07.035.052.028.126.07.052.028c.063.035.122.073.182.112l.049.031.052.035.052.035h0l.035.024.213.157.049.038.1.08.049.038.049.042.063.056.063.056a.343.343,0,0,0,.035.035h0c0,.021.038.038.059.059l.028.024.031.035.059.059.091.094.049.056a1.125,1.125,0,0,1,.084.1l.091.1c.1.126.2.252.287.385,0,.017.024.035.035.056l.038.056.032.052c.021.028.038.059.056.087l.045.08.032.049.021.042.021.038.031.059.031.059c.07.14.136.28.192.423a.474.474,0,0,1,.025.063c.024.059.045.119.066.178l.021.056a.607.607,0,0,0,.024.073l.021.07v.108l.021.077a.6.6,0,0,0,.035.129c.01.042,0,.042,0,.066l.021.094v.755h0a.2.2,0,0,0,0,.045v.049a.687.687,0,0,1,0,.084h0a.688.688,0,0,1,0,.084Z" transform="translate(-515.981 -287.083)"/><path class="d" d="M735.553,433.242v.087a.243.243,0,0,1,0,.049v.14a.869.869,0,0,0,0,.094v.133a.478.478,0,0,1,0,.07l-.021.175v.115h0v.056a.105.105,0,0,1,0,.035v.031a.483.483,0,0,1,0,.059v.182h0a.279.279,0,0,0,0,.052v.063l-.021.077v.021a.651.651,0,0,0-.024.077c-.024.08-.049.161-.077.241a.632.632,0,0,0-.028.073l-.017.042a5.441,5.441,0,0,0-2.377-5.866c-.1-.063-.2-.122-.3-.178a5.464,5.464,0,0,0-5.244,0,5.337,5.337,0,0,0-.517.325,5.455,5.455,0,0,0-.7.6,5.352,5.352,0,0,0-.664-.57h0a6.337,6.337,0,0,0-.563-.35,5.471,5.471,0,0,0-5.244,0,5.62,5.62,0,0,0-.773.517,4.994,4.994,0,0,0-.454.409,5.161,5.161,0,0,0-.6.7,4.528,4.528,0,0,0-.3.475h0c-.087.154-.164.311-.234.468-.039.087-.073.175-.108.266a.15.15,0,0,1,.028-.1.3.3,0,0,1,0-.052.1.1,0,0,1,0-.031l.021-.077h0a.7.7,0,0,1,.056-.178.808.808,0,0,0,.028-.084c.042-.115.087-.227.133-.35l.031-.07a.284.284,0,0,1,.045-.1c.017-.035.052-.108.08-.161h0l.035-.073.045-.08c.021-.035.038-.07.059-.1a.333.333,0,0,1,.028-.049v-.028h0c0-.021.024-.042.038-.059l.042-.066.1-.147.035-.049.045-.063.045-.063.059-.077.052-.066v-.024l.038-.045.059-.07.028-.031h0l.045-.052.052-.056c.049-.052.1-.1.15-.154a.483.483,0,0,1,.059-.059,1.079,1.079,0,0,1,.091-.087l.063-.056a.639.639,0,0,1,.07-.066l.049-.042.049-.038.1-.08.049-.038c.084-.063.168-.126.252-.182l.052-.035.052-.035.049-.031.073-.045.035-.021.052-.031.213-.119.042-.024.066-.031.056-.028.056-.025.056-.028.052-.025.056-.024.227-.091.056-.021.059-.021.052-.017.045-.017.1-.031h.136l.077-.021.1-.024c.1-.024.206-.049.311-.066h.28l.3-.031h.825l.241.024h.336a3.014,3.014,0,0,1,.308.066l.126.031h.087l.1.031h.045l.224.077h.049l.066.024.1.042.115.049.045.021.063.031.056.024.052.028.07.035.056.028.122.07.056.028.182.112.049.031.052.035.049.035h0l.035.025.213.157.052.038.1.08.049.038.045.042.073.066.063.056.091.087a.479.479,0,0,1,.059.059c.021-.021.038-.042.059-.059l.094-.087a.454.454,0,0,1,.059-.056l.073-.066.049-.042.049-.038.1-.08.049-.038c.084-.063.168-.126.252-.182l.052-.035.052-.035.049-.031.07-.045.038-.021.052-.031.213-.119.042-.024.066-.031.056-.028.052-.025.056-.028.056-.025.056-.024.224-.091.056-.021.059-.021.056-.017.045-.017.1-.031h.136l.077-.021.1-.024c.1-.024.206-.049.308-.066h.283l.3-.031h.828l.238.024h.339c.1.017.206.038.308.066l.126.031h.087l.1.031h.045l.224.077h.052l.066.024.1.042.115.049.045.021.063.031.052.025.056.028.07.035.052.028.126.07.052.028c.063.035.122.073.182.112l.049.031.052.035.052.035h0l.035.025.213.157.049.038.1.08.049.038.049.042.063.056.063.056a.328.328,0,0,0,.035.035h0c0,.021.039.038.06.059l.028.024.031.035.059.059.091.094.049.056a1.129,1.129,0,0,1,.084.1l.091.1c.1.126.2.252.287.385,0,.017.025.035.035.056l.038.056.032.052c.021.028.038.059.056.087l.045.08.031.049.021.042.021.038.031.059.031.059c.07.14.136.28.192.423a.463.463,0,0,1,.024.063c.024.059.045.119.066.178l.021.056a.611.611,0,0,0,.024.073l.021.07v.108l.021.077a.6.6,0,0,0,.035.129c.01.042,0,.042,0,.066l.021.094v.755h0a.2.2,0,0,0,0,.045v.049a.712.712,0,0,1,0,.084h0a.713.713,0,0,1,0,.084Z" transform="translate(-516.285 -287.096)"/><path class="e" d="M565.16,288.279h0a40.189,40.189,0,0,0-3.552-3.2c.15-1.874.5-6.359.531-7.223.035-1.094-1.577-2.493-5.024-3.783s-2.447,4.727-2.4,5.268a4.057,4.057,0,0,0,2.1,2.72c.465.192.591.434.559.661l-.108-.017a13.485,13.485,0,0,1-4.115-1.007,21.731,21.731,0,0,0-1.049,4.657v.238a1.8,1.8,0,0,0,.084.811h.241a2.631,2.631,0,0,1-.192,1.2h0a9.244,9.244,0,0,1-.35.86,24.052,24.052,0,0,1-.164-2.591,21.862,21.862,0,0,0-1.279-4.248,5.947,5.947,0,0,1-1.724-1.566,6.878,6.878,0,0,0-2.891-2.182c-.794-.28-3.671-4.024-4.856-4.894-.944-.7-1.325-.287-1.44-.091l-.07.049a4.143,4.143,0,0,1-.94-2.007c0-.381.038-1.164.108-2.157a9.1,9.1,0,0,1,1.147,1.049c.8.891,1.4,1.954,2.276,2.776a3.706,3.706,0,0,0,2.51,1.1,2.319,2.319,0,0,0,.909-.143c1.168-.451,1.919-1.874,3.146-1.93.965.049,1.675.94,2.465,1.528a3.3,3.3,0,0,0,2.031.7,2.315,2.315,0,0,0,.857-.136,1.835,1.835,0,0,0,1.115-2.335c-.643-1.356-2.832-1.049-3.765-2.23a.923.923,0,0,1-.217-.867.6.6,0,0,1,.566-.413,1.972,1.972,0,0,1,1.171.559c.454.461,1.049,1.049,1.612.986a.766.766,0,0,0,.458-.087c.017-.416.038-.832.056-1.248a4.352,4.352,0,0,0,1.944.552,2.274,2.274,0,0,0,.378-.017,1.521,1.521,0,0,0,1.356-1.5,1.7,1.7,0,0,0,1.164.388,1.586,1.586,0,0,0,.559-.07,1.692,1.692,0,0,0,1.133-1.454,3.319,3.319,0,0,0-.884-2.1l-2.286-3.125a1.266,1.266,0,0,1-.35-.9,1.878,1.878,0,0,1,.392-.7,2.439,2.439,0,0,0-.475-3.007,4.239,4.239,0,0,0-3.049-1.01,4,4,0,0,1-2.416-.315,2.752,2.752,0,0,1-.944-1.647c-.486-1.839-.514-3.769-.853-5.639a7.738,7.738,0,0,0-2.587-4.933,2.4,2.4,0,0,0-1.2-.524,8.5,8.5,0,0,0-1.112.091,4.062,4.062,0,0,1-3.174-1.783,28.28,28.28,0,0,0-2.311-3,5.641,5.641,0,0,0-5.363-1.241c-.818.227-1.468.891-2.314.926a27.673,27.673,0,0,1-3.825-.35,10.568,10.568,0,0,0-3.5.077,3.719,3.719,0,0,0-2.447,1.814l-.3-2.521a43.972,43.972,0,0,0-.892-5.143,1.282,1.282,0,0,1,.035-1.122l.056.052c.042-.126.087-.255.133-.385a.919.919,0,0,0,0-.294c.108-.954-1.626-7.031-1.626-7.031h-1.559a1.255,1.255,0,0,0-.038-.224c-.455-2.472-1.22-6.335-1.748-7.265a4.332,4.332,0,0,1-.315-2.349,18.855,18.855,0,0,0,.073-2.772,7.586,7.586,0,0,1,.063-1.336,1.874,1.874,0,0,0-.745-1.748c-2.045-1.517-7.017-4.971-9.925-5.059-3.727-.112,1.168,6.429,1.112,7.044s3.727,1.175,3.727,1.175.224,1.9.448,2.961c.154.738.413,6.209.559,9.492a10.426,10.426,0,0,1-2.507-.94s-4.339-1.171-4.73,0,5.286,6.821,5.286,6.821,2,5.31,1.4,6.992-.168,9.614-.168,9.614.056,9.439.472,11.851a4.645,4.645,0,0,1-.752,3.744s-.5,5.926,0,6.485a17.321,17.321,0,0,1,1.37,2.2l.147.266c-1.643,2.007-3.276,3.926-4.132,4.2-1.668.5-13.068,5.244-13.068,5.244s-3.723,3.559-4.286,3.559,3.391,3.8,3.391,3.8,3.559,2.849,3.95,3.3,10.138,5.758,10.138,5.758,1.671.5,1.835,1.007,2.391,1.9,2.391,1.9a14.527,14.527,0,0,1,2.154,3.23.754.754,0,0,0,.024.241c.021.35.045.51.066.427.3.818,2.3,2.905,1.336,4.394-.448.7,0,1.954.863,2.968a10.664,10.664,0,0,1-.909,3.146c-.668.895-.371,2.161-1.049,2.311s-.891,3.43-.891,3.43l-.577,7.226s-.15,1.489-.965,1.863,0,2.384,0,2.384-.874,1.713-.35,2.681-1.049,5.443-1.049,5.443-.668,8.646,0,9.838a9.788,9.788,0,0,1,1.049,3.8c0,.745.371,14.683.371,14.683s-.892,5.664-1.189,6.705.818,3.356.077,4.545-.594,3.874-.594,3.874-1.112,10.509-.444,14.386-.213,4.7-.213,4.7a7.941,7.941,0,0,0,1.44.636c.018.147.035.3.052.465.35,3.251.864,8.852.4,10.138a20.435,20.435,0,0,0-.647,5.09v.227h0l-1.3,2.1a6.712,6.712,0,0,1-.594,2.147c-.336.3-3.122,5.356-3.5,6.006l-.038.07s-2.818,5.181,4.153,5.328,6.08-3.426,6.08-3.426.021-.7.087-1.556a7.509,7.509,0,0,1,.507-2.657,37.333,37.333,0,0,0,1.891-3.391v-4.1H518.4a.72.72,0,0,1,.024-.224,15.479,15.479,0,0,1,.388-2.535c.22-.521-.482-3.653-.482-3.653a82.251,82.251,0,0,1,.842-9.831c.031-.168.063-.332.094-.489a11.881,11.881,0,0,0,1.5-.783s0-7.6.891-8.943.7-5.143.7-5.143.22-3.353.888-4.024.51-3.653.51-3.653.591-1.937,1.258-3.5a30.267,30.267,0,0,0,1.049-5.961,7.566,7.566,0,0,1,1.049-2.164c.745-1.049,0-3.353,0-3.353a4.083,4.083,0,0,1-.294-2.982c.521-1.493,3.409-13.565,3.409-13.565l1.115-4.321,1.629,5.513a37.864,37.864,0,0,0,0,5.069,15.823,15.823,0,0,0,1.78,3.5v11.7s.15,7.9.745,9.167.888,5.964.888,5.964,2,13.788.741,15.8a12.059,12.059,0,0,0,2.049,1.122v8.121s-1.454,4.915-.958,8.261a1.3,1.3,0,0,0,.032.2c-.133.1-.28.182-.371.147l.234,5.594a17.312,17.312,0,0,1-.531,4.737,6.744,6.744,0,0,0-.35,1.776c-.129,2.213.724,5.244,5.594,4.929,6.485-.412,5.485-4.545,5.485-4.545s0-.161-.024-.444a16.849,16.849,0,0,0-1.608-6.076,15.3,15.3,0,0,1-1.332-6.859,2.393,2.393,0,0,1-.395.1,1.017,1.017,0,0,1,.017-.227c.084-1.049.213-2.409.35-3.045a19.959,19.959,0,0,0,0-3.723l.836-8.163.045-.455a6.688,6.688,0,0,0,1.15-.7h0a8.367,8.367,0,0,1-.43-2.272,2.007,2.007,0,0,1,.43-1.437c.965-.968,1.629-13.117,1.629-13.117s.524-4.276.528-5.719v-.259c-.059-.87-.521-4.279-.514-6.268a3.942,3.942,0,0,1,.143-1.245c.444-1.119,1.049-22.137,1.049-22.137l.741-9.313v-7.649a45.119,45.119,0,0,0-1.328-10.872c2.023,1.059,5.488,3.443,6.121,2.807.78-.783,1.168-14.2.944-15.54a1.412,1.412,0,0,0-.052-.273c-.052-.245-.129-.573-.224-.954l.308-.535c1.521-2.633,3.846-6.814,4.031-8.041a53.029,53.029,0,0,1,1.01-6.621,3.078,3.078,0,0,1,.15-.374h0c.136-.276.283-.427.451-.385.947.224,1.559.951,2.059.671a.245.245,0,0,0,.066-.056h0a.836.836,0,0,0,.126-.178h0a1.744,1.744,0,0,0,.115-.255h0c.035-.091.066-.192.1-.3v-.031a.651.651,0,0,1,.035-.136.236.236,0,0,0,0-.046.488.488,0,0,1,.028-.119l.021-.087v-.046c.087-.395.154-.8.2-1.091a1.452,1.452,0,0,1,.035-.259v-.14Z" transform="translate(-369.004 -140.494)"/><path class="f" d="M559.337,489.616a1.188,1.188,0,0,0-.077-.626C559.285,489.493,559.313,489.724,559.337,489.616Z" transform="translate(-413.503 -326.875)"/><path class="g" d="M675.277,418.68s1.322-.9.032-1.433a4.052,4.052,0,0,1-2.1-2.706c-.049-.538-1.049-6.524,2.4-5.244s5.059,2.671,5.024,3.762-.594,8.006-.594,8.006Z" transform="translate(-487.505 -274.926)"/><path class="a" d="M678.028,437.878a2.047,2.047,0,0,1-.052.4c-.1.7-.35,2.14-.727,2.346-.5.28-1.112-.444-2.059-.668-.168-.038-.315.108-.451.385a3.272,3.272,0,0,0-.15.371,52.715,52.715,0,0,0-1.01,6.593c-.189,1.227-2.51,5.391-4.031,8.009-.227.4-.44.755-.622,1.049-.42.7-.7,1.157-.7,1.157l-3.846-7.209V439.678a9.437,9.437,0,0,0,.7-1.472h0a2.6,2.6,0,0,0,.192-1.189.609.609,0,0,0-.164-.35.419.419,0,0,1-.073-.108.551.551,0,0,1-.035-.091,1.157,1.157,0,0,1-.049-.273v-.231A21.608,21.608,0,0,1,666,431.33a13.006,13.006,0,0,0,4.115,1C672.949,432.662,678.028,437.878,678.028,437.878Z" transform="translate(-481.873 -289.373)"/><path class="d" d="M679.035,439.129c-.1.7-.35,2.14-.727,2.346-.5.28-1.112-.444-2.059-.668-.168-.038-.315.108-.451.385a3.249,3.249,0,0,0-.15.371c-1.912-.93-5.244-2.615-5.457-3.09s-2.535-.584-3.846-.6h-.238a1.773,1.773,0,0,1-.084-.808,24.267,24.267,0,0,1,1.049-4.419,13,13,0,0,0,4.115,1C673.861,433.948,678.5,438.59,679.035,439.129Z" transform="translate(-482.932 -290.225)"/><path class="a" d="M679.128,437.862s-.28,2.465-.78,2.741-1.112-.444-2.059-.664c-.168-.042-.315.1-.451.381-1.884-.916-5.4-2.678-5.594-3.164s-2.839-.6-4.083-.612c-.458-.958.965-5.244.965-5.244a13.051,13.051,0,0,0,4.115,1C674.076,432.639,679.128,437.862,679.128,437.862Z" transform="translate(-482.972 -289.353)"/><path class="a" d="M646.146,457.515c-.78.78-5.842-3-7.23-3.227s-6.433-21.354-6.433-21.354l.759-11.907-2.958-10.956-.385-1.433s.294-.874,1.482,0,4.076,4.6,4.856,4.877a6.963,6.963,0,0,1,2.891,2.175,5.891,5.891,0,0,0,1.724,1.556,21.733,21.733,0,0,1,1.28,4.227c-.056.832.448,6.51,1.049,7.01s1.612,5.062,1.612,5.062,1.839,6.408,2.227,8.237a2.607,2.607,0,0,1,.052.273C647.314,443.388,646.926,456.736,646.146,457.515Z" transform="translate(-459.447 -274.361)"/><path class="d" d="M647.511,473.33l3.671.982s.7,6.342.958,6.677,1.154,13.348,1.154,13.348l-5.782-2.615-2.171-6.992v-7.737Z" transform="translate(-469.489 -316.689)"/><path class="g" d="M558.09,765.327a12.382,12.382,0,0,0-.528,2.1,79.23,79.23,0,0,0-.842,9.789s.7,3.115.482,3.636a15.244,15.244,0,0,0-.388,2.521c-.06.545-.094.961-.094.961l-6.789-.444s0-.4.021-1.017a20.717,20.717,0,0,1,.647-5.062c.458-1.279-.042-6.866-.4-10.1-.15-1.4-.273-2.356-.273-2.356S559.233,762.349,558.09,765.327Z" transform="translate(-407.435 -505.746)"/><path class="g" d="M634.058,767.146l-.836,8.121a19.775,19.775,0,0,1,0,3.706c-.126.633-.255,1.982-.35,3.031-.063.794-.1,1.419-.1,1.419s-5.192,3.636-6.377.444a5.646,5.646,0,0,1-.294-1.2c-.5-3.332.958-8.223.958-8.223V764l7.195,1.175Z" transform="translate(-456.907 -505.741)"/><path class="d" d="M558.122,765.326a12.383,12.383,0,0,0-.528,2.1,10.359,10.359,0,0,1-7.342.276c-.15-1.4-.273-2.356-.273-2.356S559.265,762.347,558.122,765.326Z" transform="translate(-407.467 -505.745)"/><path class="d" d="M636.255,765.158l-.2,1.968a8.568,8.568,0,0,1-6.992-.35v-2.8Z" transform="translate(-458.9 -505.728)"/><path class="h" d="M553.547,506.21s-.591,4.377-1.259,5.268-.371,2.15-1.049,2.3-.891,3.412-.891,3.412l-.566,7.195s-.15,1.482-.965,1.853,0,2.374,0,2.374-.874,1.706-.35,2.671-1.049,5.412-1.049,5.412-.668,8.6,0,9.789a9.732,9.732,0,0,1,1.049,3.783c0,.741.371,14.61.371,14.61s-.891,5.639-1.189,6.677.818,3.335.077,4.524-.594,3.846-.594,3.846-1.147,10.471-.479,14.316-.213,4.671-.213,4.671a10.38,10.38,0,0,0,10.446-.444s0-7.565.891-8.9.745-5.115.745-5.115.22-3.339.888-4.006.51-3.625.51-3.625.591-1.93,1.259-3.5a30.244,30.244,0,0,0,1.049-5.943,7.48,7.48,0,0,1,1.049-2.154c.745-1.049,0-3.335,0-3.335a4.051,4.051,0,0,1-.294-2.968c.521-1.482,3.409-13.5,3.409-13.5l1.115-4.3,1.629,5.489a37.46,37.46,0,0,0,0,5.041,15.994,15.994,0,0,0,1.779,3.5v11.645s.15,7.863.745,9.121.888,5.943.888,5.943,2,13.722.741,15.732c0,0,5.713,4.076,10.236.741,0,0-.965-2.744,0-3.709s1.629-13.054,1.629-13.054.594-4.821.521-5.943-.815-6.377-.371-7.488,1.049-22.025,1.049-22.025l.741-9.268v-7.586a44.564,44.564,0,0,0-1.678-12.145c-1.255-4.422-2.993-9.5-4.454-9.813C580.939,507.3,557.924,509.846,553.547,506.21Z" transform="translate(-405.165 -338.074)"/><path class="d" d="M556.814,816.283c-.059.545-.094.961-.094.961l-6.789-.444s0-.4.021-1.017c3.185-2.825,6.359.5,6.359.5Z" transform="translate(-407.435 -538.68)"/><path class="h" d="M546.121,816.943v4.118a33.055,33.055,0,0,1-1.891,3.374,7.38,7.38,0,0,0-.507,2.643c-.066.839-.087,1.545-.087,1.545s.891,3.563-6.079,3.412-4.153-5.3-4.153-5.3l.039-.066c.35-.65,3.171-5.7,3.5-5.978a6.825,6.825,0,0,0,.594-2.136l1.3-2.1c3.192-2.853,6.38.483,6.38.483Z" transform="translate(-396.319 -539.106)"/><path class="d" d="M543.635,849.754s.891,3.562-6.079,3.412-4.153-5.289-4.153-5.289l.039-.066c.192,1.049,1.014,2.136,3.632,2a16.073,16.073,0,0,0,6.642-1.584C543.656,849.048,543.635,849.754,543.635,849.754Z" transform="translate(-396.319 -560.251)"/><path class="d" d="M633.1,814.256c-.063.794-.1,1.419-.1,1.419s-5.192,3.636-6.377.444a5.654,5.654,0,0,1-.294-1.2,2.829,2.829,0,0,0,.294-.252c.85-1.258,5.373-1.3,5.594-.7C632.344,814.316,632.774,814.316,633.1,814.256Z" transform="translate(-457.118 -537.999)"/><path class="h" d="M629.136,832.651c-4.894.308-5.737-2.7-5.594-4.894a6.643,6.643,0,0,1,.35-1.765,17.167,17.167,0,0,0,.531-4.716l-.234-5.562c.185.073.633-.371.633-.371.849-1.258,5.373-1.3,5.594-.7s1.262.192,1.262.192a15.134,15.134,0,0,0,1.332,6.821,16.739,16.739,0,0,1,1.608,6.048c.021.28.024.441.024.441S635.622,832.242,629.136,832.651Z" transform="translate(-455.303 -538.435)"/><path class="d" d="M629.136,857.627c-4.894.308-5.737-2.7-5.594-4.894,0,0,1.269,2.157,5.789,1.64a12.688,12.688,0,0,0,5.279-1.7c.021.28.024.441.024.441S635.622,857.218,629.136,857.627Z" transform="translate(-455.303 -563.411)"/><g class="i" transform="translate(173.743 169.237)"><path d="M644.446,514.8c-1-2.867-2.1-5.244-3.091-5.443l-.884.091c.923.5,1.937,2.706,2.863,5.352a55.46,55.46,0,0,1,3.042,18.263V538.9l-.741,9.271s-.594,20.913-1.049,22.025.3,6.377.371,7.492-.521,5.943-.521,5.943-.668,12.089-1.629,13.051,0,3.709,0,3.709a6.643,6.643,0,0,1-3.5,1.29,6.8,6.8,0,0,0,4.618-1.29s-.965-2.744,0-3.709,1.629-13.051,1.629-13.051.594-4.821.521-5.943-.815-6.38-.37-7.492,1.049-22.025,1.049-22.025l.741-9.271v-5.838A55.46,55.46,0,0,0,644.446,514.8Z" transform="translate(-639.31 -509.36)"/></g><g class="i" transform="translate(141.3 168.136)"><path d="M547.845,598.917s.881-.818.213-4.674.444-14.313.444-14.313-.147-2.671.594-3.846-.371-3.5-.077-4.524,1.189-6.677,1.189-6.677-.381-13.876-.381-14.62a9.7,9.7,0,0,0-1.049-3.779c-.668-1.189,0-9.789,0-9.789s1.556-4.45,1.049-5.412.35-2.671.35-2.671-.815-2,0-2.374.965-1.853.965-1.853l.591-7.195s.224-3.262.891-3.412.371-1.4,1.049-2.3c.5-.668.961-3.3,1.157-4.573a4.624,4.624,0,0,1-1.231-.7s-.594,4.373-1.262,5.265-.371,2.15-1.049,2.3-.888,3.412-.888,3.412l-.573,7.2s-.15,1.482-.965,1.853,0,2.374,0,2.374-.874,1.706-.35,2.671-1.049,5.412-1.049,5.412-.668,8.6,0,9.789a9.7,9.7,0,0,1,1.049,3.779c0,.745.371,14.61.371,14.61s-.892,5.639-1.185,6.677.815,3.335.073,4.524-.594,3.846-.594,3.846-1.122,10.474-.455,14.32-.213,4.674-.213,4.674a10.216,10.216,0,0,0,5.5,1.171A9.962,9.962,0,0,1,547.845,598.917Z" transform="translate(-546.51 -506.21)"/></g><path class="h" d="M590.833,305.439a27.568,27.568,0,0,1,2.311,2.982,4.083,4.083,0,0,0,3.174,1.776,8.518,8.518,0,0,1,1.112-.094,2.394,2.394,0,0,1,1.2.524,7.67,7.67,0,0,1,2.587,4.894c.339,1.853.35,3.783.853,5.615a2.8,2.8,0,0,0,.944,1.64,4.068,4.068,0,0,0,2.416.311,4.267,4.267,0,0,1,3.048,1.007,2.421,2.421,0,0,1,.476,2.993,1.819,1.819,0,0,0-.392.678,1.252,1.252,0,0,0,.35.9l2.286,3.111a3.319,3.319,0,0,1,.884,2.1,1.643,1.643,0,0,1-2.895.94c.248.773-.514,1.573-1.318,1.678a4.233,4.233,0,0,1-2.318-.608l-.059,1.318c-.671.35-1.381-.35-1.916-.895s-1.636-.86-1.891-.147a.923.923,0,0,0,.217.867c.933,1.164,3.122.867,3.765,2.217a1.818,1.818,0,0,1-1.115,2.325,3.054,3.054,0,0,1-2.734-.559c-.78-.559-1.542-1.535-2.559-1.528-1.269,0-2.028,1.468-3.213,1.926a3.279,3.279,0,0,1-3.262-.947c-.87-.818-1.475-1.877-2.279-2.765-2.07-2.283-5.206-3.188-8.128-4.164s-6.017-2.3-7.527-4.989a20.407,20.407,0,0,0-1.328-2.507c-.986-1.287-2.643-1.888-3.723-3.094a4.779,4.779,0,0,1-.731-5.108,17.107,17.107,0,0,1,2.129-2.874,9.663,9.663,0,0,0,1.9-5.671,7.184,7.184,0,0,1,.164-2.293,3.57,3.57,0,0,1,2.59-2.133,10.648,10.648,0,0,1,3.5-.08,32.062,32.062,0,0,0,3.825.35c.846-.039,1.5-.7,2.314-.923A5.654,5.654,0,0,1,590.833,305.439Z" transform="translate(-419.601 -206.556)"/><g class="i" transform="translate(149.187 105.753)"><path d="M658.855,330.105c.35,1.863.35,3.783.857,5.611a3.538,3.538,0,0,0,.556,1.262c-.042-.122-.08-.248-.112-.371-.486-1.832-.514-3.751-.853-5.615a9.987,9.987,0,0,0-1.122-3.223A11.1,11.1,0,0,1,658.855,330.105Z" transform="translate(-627.027 -327.77)"/><path d="M681.514,364.19a1.8,1.8,0,0,0-.4.7,1.244,1.244,0,0,0,.35.895c.031.042.059.084.091.122a.533.533,0,0,1,0-.129,1.831,1.831,0,0,1,.4-.678,2.372,2.372,0,0,0-.213-2.7A2.157,2.157,0,0,1,681.514,364.19Z" transform="translate(-641.946 -350.293)"/><path d="M615.646,382.844a1.913,1.913,0,0,1-1.238,1.888,3.054,3.054,0,0,1-2.734-.563c-.78-.563-1.542-1.531-2.556-1.524-1.273,0-2.028,1.468-3.216,1.923a3.272,3.272,0,0,1-3.262-.947c-.871-.818-1.475-1.877-2.276-2.762-2.07-2.283-5.206-3.192-8.132-4.167s-6-2.3-7.513-4.971c.136.3.276.591.433.874,1.51,2.685,4.6,4.013,7.523,4.989s6.062,1.881,8.132,4.164c.8.888,1.4,1.947,2.276,2.765a3.283,3.283,0,0,0,3.262.947c1.189-.458,1.944-1.916,3.216-1.926,1.014,0,1.748.923,2.559,1.528a2.936,2.936,0,0,0,2.73.559,1.82,1.82,0,0,0,1.119-2.325,1.635,1.635,0,0,0-.325-.451Z" transform="translate(-579.249 -356.355)"/><path d="M671.687,384.87a1.911,1.911,0,0,1,.1.717,1.647,1.647,0,0,1-2.9.944c.248.769-.514,1.57-1.318,1.678a4.2,4.2,0,0,1-2.318-.608c-.021.437-.038.878-.059,1.315-.671.35-1.4-.35-1.912-.891s-1.636-.864-1.895-.147a.926.926,0,0,0,.217.863,1.774,1.774,0,0,0,.192.206.64.64,0,0,1,.035-.182c.259-.7,1.36-.392,1.895.147s1.241,1.248,1.916.9c0-.44.039-.878.056-1.318a4.4,4.4,0,0,0,2.321.608c.8-.091,1.566-.905,1.315-1.678a1.647,1.647,0,0,0,2.9-.94A2.634,2.634,0,0,0,671.687,384.87Z" transform="translate(-629.091 -364.908)"/><path d="M573.2,357.742c-.982-1.286-2.643-1.884-3.72-3.094a4.047,4.047,0,0,1-.409-.538,4.442,4.442,0,0,0,.853,1.43c1.077,1.206,2.737,1.807,3.72,3.094a4.746,4.746,0,0,1,.374.573,7.891,7.891,0,0,0-.818-1.465Z" transform="translate(-569.07 -344.902)"/></g><path class="g" d="M593.048,362.39s.815,9.048-2.895,11.789,7.936,10.236,7.936,10.236l8.828-1.93s-4.3-4-4.3-5.709.741-11.275,1.93-12.386S593.048,362.39,593.048,362.39Z" transform="translate(-433.121 -244.534)"/><path class="a" d="M551.985,296.134l-2.017,4.408s-3.007,1.783-3.227,1.947-2.615,2.895-2.615,2.895l-5.9,3.783s-.143-.269-.35-.65a17.607,17.607,0,0,0-1.37-2.189c-.5-.556,0-6.45,0-6.45a4.626,4.626,0,0,0,.752-3.727c-.416-2.391-.472-11.792-.472-11.792s-.444-7.9.168-9.569-1.4-6.954-1.4-6.954-5.67-5.636-5.282-6.8,4.73,0,4.73,0a9.785,9.785,0,0,0,2.612.947c.538.031,3.416.045,5.622.049h2.612s1.835,6.394,1.615,7.062c-.045.129-.091.259-.133.385-.178.514-.315.972-.091,1.283a43.775,43.775,0,0,1,.891,5.118l.612,5.118a44.2,44.2,0,0,1,.888,4.562c-.056.559-1.447,1.724-.836,2.779s.839,4.283.839,4.283a12.173,12.173,0,0,0,2.031,3.269,1.712,1.712,0,0,0,.318.241Z" transform="translate(-394.638 -178.278)"/><circle class="d" cx="10.68" cy="10.68" r="10.68" transform="translate(156.05 102.512)"/><circle class="g" cx="10.68" cy="10.68" r="10.68" transform="translate(156.05 102.068)"/><path class="j" d="M590.419,415.106c-.965,1.049-1.185,11.187-.615,12.089s-2.87,2.671-4.873,2.594-7.485,1.633-7.485,1.633-10.981-2.968-13.285-1.482-5.562-2.671-4.6-4.153-1.049-3.559-1.336-4.374a6.526,6.526,0,0,1-.119-1.049h0c-.269-3.734-.549-15.7-.549-15.7V390.931l10.089-7.121a48.391,48.391,0,0,1,4.681,2.709,22.924,22.924,0,0,1,3.028,2.332c2.748,2.6,9.569,5.342,9.569,5.342s7.492,8.974,8.453,9.866S591.38,414.068,590.419,415.106Z" transform="translate(-412.397 -258.466)"/><path class="d" d="M557.57,421.45V409.64s.308,21.511.549,27.507C557.85,433.413,557.57,421.45,557.57,421.45Z" transform="translate(-412.404 -275.266)"/><path class="d" d="M559.26,490.86a1.175,1.175,0,0,1,.077.622C559.312,491.587,559.284,491.356,559.26,490.86Z" transform="translate(-413.503 -328.091)"/><path class="d" d="M572.4,390.337a9.056,9.056,0,0,0-1.612,2.279c-.556,1.224-13.222.224-13.222.224v-1.909l10.09-7.121a48.4,48.4,0,0,1,4.681,2.709C572.4,388.61,572.4,390.337,572.4,390.337Z" transform="translate(-412.404 -258.466)"/><path class="d" d="M559.26,488.31a1.178,1.178,0,0,1,.077.622C559.312,489.041,559.284,488.81,559.26,488.31Z" transform="translate(-413.503 -326.432)"/><path class="d" d="M566.167,361.948l-2.017,4.409s-3.007,1.783-3.227,1.947-2.615,2.895-2.615,2.895l-5.9,3.783s-.143-.269-.35-.65a41.07,41.07,0,0,1,4.2-4.748c1.891-1.444-.056-1.612,0-1.891s4.174-1.779,5.286-2.835a46.7,46.7,0,0,1,4.314-3.146A1.708,1.708,0,0,0,566.167,361.948Z" transform="translate(-408.82 -244.092)"/><path class="a" d="M526.366,362.39a50.377,50.377,0,0,0-4.632,3.335c-1.112,1.056-5.244,2.559-5.286,2.839s1.891.444,0,1.891-6.506,8.23-8.177,8.74-13.068,5.244-13.068,5.244-3.727,3.5-4.283,3.5,3.391,3.783,3.391,3.783,3.559,2.839,3.951,3.283,10.131,5.709,10.131,5.709,1.671.5,1.835,1,2.391,1.891,2.391,1.891,2.486,2.856,2.244,3.874-.668-29.017-.668-29.017,12.666,1,13.222-.224a9.056,9.056,0,0,1,1.612-2.279s-.035-10.289-.745-11.051S526.38,363.334,526.366,362.39Z" transform="translate(-369.02 -244.534)"/><path class="d" d="M508.2,416.711s3.335,3.615,4.894,4.227a4.213,4.213,0,0,1,2.168,2.227,12.732,12.732,0,0,0,2.839,1.224,7.029,7.029,0,0,1,2.5,1.668s3.727,1.049,3.727,1.835,1.5,1.839,1.5,1.839l-.374-21.361s-6.192.776-7.971,3.391S508.2,416.711,508.2,416.711Z" transform="translate(-380.293 -274.439)"/><path class="d" d="M529,418.956c.28-.168,7.873-9.95,7.873-9.95l1.4-.287s-3.6,5.4-3.549,5.842S529,418.956,529,418.956Z" transform="translate(-393.822 -274.667)"/><path class="d" d="M538.11,425.974s2-4.618,2.559-5.4,3.549-6.006,3.549-6.006a3.518,3.518,0,0,1,0,1.335C544.06,416.405,538.11,425.974,538.11,425.974Z" transform="translate(-399.747 -278.472)"/><path class="d" d="M568.853,348.7s-4.45,8.121-4.059,8.513S568.853,348.7,568.853,348.7Z" transform="translate(-417.086 -235.63)"/><path class="d" d="M574.659,357.93s-3.671,5.366-3.339,5.3S574.659,357.93,574.659,357.93Z" transform="translate(-421.333 -241.633)"/><path class="g" d="M544.643,228.387l-7.009.5s0-.227-.025-.619c-.1-2.314-.451-10.383-.64-11.285-.224-1.049-.448-2.947-.448-2.947s-3.783-.556-3.727-1.168-4.839-7.121-1.112-6.992c2.909.087,7.88,3.524,9.925,5.031a1.867,1.867,0,0,1,.745,1.727,7.5,7.5,0,0,0-.063,1.328,18.624,18.624,0,0,1-.073,2.758,4.232,4.232,0,0,0,.315,2.339c.517.926,1.283,4.769,1.748,7.226C544.5,227.5,544.643,228.387,544.643,228.387Z" transform="translate(-394.656 -142.737)"/><path class="d" d="M558,272.549l-.133.381c-1.521-1.507-11.047-2.468-11.047-2.468-.836-.972-.087-1.4.8-2.587.521-.7,3.643-1.692,6.15-2.395h2.612S558.224,271.881,558,272.549Z" transform="translate(-405.178 -181.504)"/><path class="d" d="M558.274,266.329l-7.01.5s0-.227-.024-.619a30.515,30.515,0,0,1,5.646-2H557.9C558.127,265.441,558.274,266.329,558.274,266.329Z" transform="translate(-408.287 -180.678)"/><path class="a" d="M558,271.909c-.046.129-.091.259-.133.385-1.521-1.51-11.047-2.472-11.047-2.472-.836-.972-.087-1.4.8-2.584.521-.7,3.643-1.7,6.15-2.4h2.612S558.224,271.241,558,271.909Z" transform="translate(-405.178 -181.088)"/><path class="d" d="M596.175,442.57s-.78,14.963,0,15.687S596.175,442.57,596.175,442.57Z" transform="translate(-437.287 -296.683)"/><path class="d" d="M612.339,460.55s-.28,16.466,0,16.631S612.339,460.55,612.339,460.55Z" transform="translate(-447.944 -308.377)"/><path class="d" d="M631,466.12s1.049,11.348,2,11.792S631,466.12,631,466.12Z" transform="translate(-460.162 -312)"/><path class="d" d="M646.41,442.4a2.318,2.318,0,0,1-.891-.35c-.944-.612-2-7.177-3.391-8.065s-6.4-9.625-6.4-9.625A45.9,45.9,0,0,0,633,419.963c-.78-.9-.388-4.894-.388-4.894a21.8,21.8,0,0,1-2.951-4.395,3.988,3.988,0,0,1-.385-1.43s.3-.878,1.482,0,4.076,4.6,4.856,4.877a6.973,6.973,0,0,1,2.895,2.171,6.021,6.021,0,0,0,1.724,1.559,21.656,21.656,0,0,1,1.279,4.227c-.056.836.444,6.506,1.049,7.01s1.612,5.059,1.612,5.059S646.023,440.569,646.41,442.4Z" transform="translate(-459.044 -274.754)"/><path class="d" d="M666.05,444.831V444.6a2.178,2.178,0,0,1,.059.5A1.158,1.158,0,0,1,666.05,444.831Z" transform="translate(-482.959 -298.003)"/><path class="d" d="M669.586,468.067c-.227.4-.441.755-.622,1.049-.919-.947-1.954-7.128-3.3-7.988a6.293,6.293,0,0,1-1.224-1.374v-7.342a9.436,9.436,0,0,0,.7-1.472c.164,1.986.542,4.929.975,5.286.612.5,1.612,5.062,1.612,5.062S668.922,465.5,669.586,468.067Z" transform="translate(-481.912 -302.127)"/><path class="a" d="M647.05,441.76a2.193,2.193,0,0,1-.891-.35c-.947-.612-2-7.174-3.395-8.065s-6.394-9.621-6.394-9.621a45.911,45.911,0,0,0-2.727-4.395c-.78-.9-.388-4.894-.388-4.894a21.912,21.912,0,0,1-2.951-4.394,4.023,4.023,0,0,1-.385-1.433s.294-.874,1.482,0,4.076,4.6,4.856,4.877a6.963,6.963,0,0,1,2.891,2.174,5.891,5.891,0,0,0,1.724,1.556,21.733,21.733,0,0,1,1.28,4.227c-.056.832.447,6.51,1.049,7.009s1.612,5.062,1.612,5.062S646.663,439.932,647.05,441.76Z" transform="translate(-459.46 -274.341)"/><circle class="h" cx="0.752" cy="0.752" r="0.752" transform="translate(175.491 145.139)"/><circle class="h" cx="0.752" cy="0.752" r="0.752" transform="translate(180.427 151.897)"/><path class="d" d="M671.194,454.3s-3.618-1.654-3.062-.762S671.194,454.3,671.194,454.3Z" transform="translate(-484.275 -303.646)"/><path class="d" d="M671.413,461.986s-3.674-1-2.895-.416S671.413,461.986,671.413,461.986Z" transform="translate(-484.493 -308.921)"/><path class="d" d="M671.562,468.258s-2.5-1.811-1.891-1.143A5.888,5.888,0,0,0,671.562,468.258Z" transform="translate(-485.251 -312.551)"/><path class="d" d="M679.637,476.14s-2.552,5.02-1.332,5.349S679.637,476.14,679.637,476.14Z" transform="translate(-490.715 -318.517)"/><path class="d" d="M570.484,711.77s-5.859,5.562-4.153,5.489S570.484,711.77,570.484,711.77Z" transform="translate(-417.899 -471.77)"/><path class="d" d="M555.24,732.093c.3,0,6.23-.594,4.671-.892S555.24,732.093,555.24,732.093Z" transform="translate(-410.888 -484.377)"/><path class="d" d="M637.76,709.23s6.293.22,6.156.888S637.76,709.23,637.76,709.23Z" transform="translate(-464.559 -470.118)"/><path class="d" d="M634.79,716.44s3.632,2.744,4.45,1.853S634.79,716.44,634.79,716.44Z" transform="translate(-462.627 -474.808)"/><path class="g" d="M572.283,597.907a1.846,1.846,0,0,1-.231.563.569.569,0,0,1-.161.168,10,10,0,0,1-2.968,1.4c-.136-.035-.668-.2-1.252-.35-.682-.2-1.437-.413-1.72-.451s-.448-.49-.489-.93,0-.783.185-.85a.44.44,0,0,0,.157-.231,2.753,2.753,0,0,0,.1-.311l.028-.1c.1-.406.178-.919.234-1.343.031-.227.052-.43.07-.566v-.161h0v-.028l.489-.024h.465a28.81,28.81,0,0,1,4.241.042,1.193,1.193,0,0,1,.773.888,4.083,4.083,0,0,1,.175,1A4.476,4.476,0,0,1,572.283,597.907Z" transform="translate(-417.527 -395.584)"/><path class="g" d="M638.462,603.293a.491.491,0,0,0,0,.073c0,.759-.052,1.332-.052,1.426,0,.294-7.712,2.374-9.638,2.223-1.266-.1-.325-.965.381-1.86a2.936,2.936,0,0,0,.559-.948.7.7,0,0,0,0-.381c-.038-.14-.073-.266-.1-.381h0c-.182-.8-.091-1.049.1-1.245a1.482,1.482,0,0,0,.255-.479,1.91,1.91,0,0,0,.108-.5,1.5,1.5,0,0,0-.283-1.073c-.594-.79,2.227-1.213,2.227-1.213h5.359c.524,0,.8.741.944,1.7a.1.1,0,0,0,0,.031c.038.28.07.577.087.881s.031.573.035.853S638.462,603.009,638.462,603.293Z" transform="translate(-458.307 -398.386)"/><path class="g" d="M580.648,670.825s-5.943,1.4-5.338,1.049c.227-.143.28-.626.259-1.171a7.793,7.793,0,0,0-.07-.808c-.077-.619-.189-1.136-.189-1.136s3.115-.668,4.227-.371a1.325,1.325,0,0,1,.836.9,1.265,1.265,0,0,1,.046.122A5.085,5.085,0,0,1,580.648,670.825Z" transform="translate(-423.913 -443.505)"/><path class="d" d="M593.916,322.718a25.678,25.678,0,0,0,2.314-1.129,3.181,3.181,0,0,1,2.489-.245,3.973,3.973,0,0,1,1.091.766c.7.619,1.4,1.238,2.056,1.9a12.076,12.076,0,0,0,2.143,1.912c1.835,1.122,4.167.87,6.293.535a3.876,3.876,0,0,0,1.241-.35,2.577,2.577,0,0,0,1.073-2.779,6.226,6.226,0,0,0-1.6-2.723,22.374,22.374,0,0,0-7.3-5.4c-2.944-1.353-6.447-2.028-9.383-.668a10.176,10.176,0,0,0-2.447,1.671c-1.021.909-3.66,3.22-3.077,4.783C589.458,322.749,592.395,323.228,593.916,322.718Z" transform="translate(-432.671 -212.927)"/><path class="h" d="M593.916,322.083a24.8,24.8,0,0,0,2.314-1.129,3.2,3.2,0,0,1,2.489-.245,4.13,4.13,0,0,1,1.091.766c.7.619,1.4,1.238,2.056,1.9a11.941,11.941,0,0,0,2.143,1.912c1.835,1.122,4.167.871,6.293.535a3.788,3.788,0,0,0,1.241-.35,2.575,2.575,0,0,0,1.073-2.779,6.226,6.226,0,0,0-1.6-2.723,22.321,22.321,0,0,0-7.3-5.394c-2.944-1.353-6.447-2.028-9.383-.671a10.277,10.277,0,0,0-2.447,1.671c-1.021.909-3.66,3.223-3.076,4.786C589.458,322.118,592.395,322.6,593.916,322.083Z" transform="translate(-432.671 -212.516)"/><path class="d" d="M611.525,337.027a3.751,3.751,0,0,1-1.238.35c-2.126.35-4.454.584-6.293-.535a12.083,12.083,0,0,1-2.154-1.93c-.657-.664-1.36-1.28-2.056-1.9a4.064,4.064,0,0,0-1.091-.769,3.189,3.189,0,0,0-2.493.248,24.705,24.705,0,0,1-2.311,1.129c-1.521.51-4.457.031-5.115-1.72a1.308,1.308,0,0,1-.066-.262,1.45,1.45,0,0,0,.066.7c.657,1.748,3.594,2.23,5.115,1.72a25.171,25.171,0,0,0,2.311-1.129,3.186,3.186,0,0,1,2.493-.245,3.97,3.97,0,0,1,1.091.766c.7.619,1.4,1.238,2.056,1.9a12.08,12.08,0,0,0,2.143,1.912c1.835,1.122,4.164.871,6.293.535a3.845,3.845,0,0,0,1.238-.35,2.484,2.484,0,0,0,1.129-2.4A2.349,2.349,0,0,1,611.525,337.027Z" transform="translate(-432.646 -224.534)"/><path class="d" d="M567.138,595.454a14.438,14.438,0,0,1-.388,1.989,16.591,16.591,0,0,0,.35-2.014Z" transform="translate(-418.374 -396.103)"/><path class="d" d="M571.894,598.652a9.994,9.994,0,0,1-2.968,1.4c-.3-.084-2.447-.741-2.972-.815s-.661-1.633-.3-1.779a.44.44,0,0,0,.157-.231,2.99,2.99,0,0,1-.126.311,1.548,1.548,0,0,0,.35,1.633l3.084.8,2.905-1.587c.7-.961-.084-3.178-.482-3.538s-5.164,0-5.164,0l-.1-.1h0v-.028l.489-.024h.465a28.818,28.818,0,0,1,4.241.042C572.635,594.943,572.635,598.134,571.894,598.652Z" transform="translate(-417.53 -395.584)"/><path class="d" d="M637.382,598.92h-5.359s-2.821.423-2.227,1.213a1.792,1.792,0,0,1-.08,2.049c-.213.224-.3.521,0,1.633s-2.881,3.042-.954,3.188,9.639-1.93,9.639-2.223S638.816,598.92,637.382,598.92Zm.724,5.754c0,.28-7.268,2.234-9.09,2.1s1.185-1.954.9-3-.2-1.329,0-1.538a1.691,1.691,0,0,0,.077-1.933c-.559-.745,2.1-1.143,2.1-1.143h5.052C638.5,599.151,638.106,604.395,638.106,604.674Z" transform="translate(-458.301 -398.373)"/><path class="d" d="M579.539,668.358c-1.112-.3-4.227.371-4.227.371s.594,2.744,0,3.115,5.342-1.049,5.342-1.049S580.654,668.655,579.539,668.358Zm-4.136,3.426c.573-.35,0-3.01,0-3.01s3.01-.643,4.083-.35,1.073,2.363,1.073,2.363S574.826,672.141,575.4,671.784Z" transform="translate(-423.916 -443.486)"/><path class="d" d="M641.2,607.256,632.37,608.3h0l8.8-1.895C641.187,606.686,641.2,606.966,641.2,607.256Z" transform="translate(-461.053 -403.244)"/><path class="h" d="M489.81,581.945l9.177-1.975.2.86Z" transform="translate(-318.574 -377.095)"/><path class="d" d="M640.317,611.39a.491.491,0,0,0,0,.073L631,613.253a2.932,2.932,0,0,0,.559-.947Z" transform="translate(-460.162 -406.483)"/><path class="h" d="M485.81,586.055,497,584.88l-10.89,2.094Z" transform="translate(-315.972 -380.288)"/><path class="d" d="M641.735,603.78l-8.247.587a1.922,1.922,0,0,1-.108.5l8.359-1.049Z" transform="translate(-461.71 -401.534)"/><path class="h" d="M489.55,578.088l9.373-.668-9.513,1.2Z" transform="translate(-318.314 -375.436)"/><path class="d" d="M573.294,598.183l-6.464.21c.1-.405.178-.919.234-1.342l6.055.129a4.093,4.093,0,0,1,.175,1Z" transform="translate(-418.426 -397.157)"/><path class="h" d="M423.12,570.76l8.817.185-1.077.94-7.74.248Z" transform="translate(-275.199 -371.104)"/><path class="d" d="M572.311,604a1.842,1.842,0,0,1-.231.563l-4.38,1.213c-.682-.2-1.437-.412-1.72-.451s-.447-.489-.489-.93Z" transform="translate(-417.555 -401.677)"/><path class="h" d="M419.81,578.018l10.271-.6-9.418,2.608Z" transform="translate(-273.046 -375.436)"/><path class="d" d="M580.849,671.182l-4.849,1.3a7.776,7.776,0,0,0-.07-.807c1.353-.182,3.608-.458,4.874-.612Q580.829,671.12,580.849,671.182Z" transform="translate(-424.345 -445.293)"/><path class="h" d="M572.74,670.978c.185-.073,6.936-.888,6.936-.888l-6.936,1.853Z" transform="translate(-422.27 -444.662)"/><circle class="a" cx="7.562" cy="7.562" r="7.562" transform="translate(252.557 25.876)"/><circle class="a" cx="5.947" cy="5.947" r="5.947" transform="translate(287.737 46.016)"/><circle class="b" cx="7.562" cy="7.562" r="7.562" transform="translate(252.557 25.876)"/><circle class="b" cx="5.947" cy="5.947" r="5.947" transform="translate(287.737 46.016)"/><circle class="a" cx="19.085" cy="19.085" r="19.085" transform="translate(26.921 32.878)"/><circle class="b" cx="19.085" cy="19.085" r="19.085" transform="translate(26.921 32.878)"/><circle class="a" cx="2.098" cy="2.098" r="2.098" transform="translate(289.832 23.31)"/><circle class="b" cx="2.098" cy="2.098" r="2.098" transform="translate(289.832 23.31)"/><path class="a" d="M449.876,788s2.175,2.842-1,7.135-5.8,7.915-4.737,10.593c0,0,4.793-7.971,8.695-8.083S454.158,792.8,449.876,788Z" transform="translate(-338.47 -521.35)"/><path class="d" d="M450.106,788a3.5,3.5,0,0,1,.444.891c3.807,4.475,5.835,8.649,2.178,8.74-3.409.094-7.5,6.191-8.478,7.73a3.2,3.2,0,0,0,.115.35s4.793-7.971,8.695-8.083S454.388,792.8,450.106,788Z" transform="translate(-338.7 -521.35)"/><path class="k" d="M471.6,797.185c0,1-.112,1.811-.252,1.811s-.248-.811-.248-1.811.14-.531.276-.531S471.6,796.182,471.6,797.185Z" transform="translate(-356.164 -526.906)"/><path class="k" d="M473.312,800.515c-.878.479-1.647.769-1.709.647s.591-.608,1.468-1.087.531-.129.6,0S474.186,800.036,473.312,800.515Z" transform="translate(-356.488 -529.045)"/><path class="a" d="M419.054,788s-2.174,2.842,1,7.135,5.8,7.915,4.737,10.593c0,0-4.793-7.971-8.695-8.083S414.761,792.8,419.054,788Z" transform="translate(-319.14 -521.35)"/><path class="d" d="M419.054,788a3.5,3.5,0,0,0-.444.891c-3.807,4.475-5.835,8.649-2.178,8.74,3.409.094,7.5,6.191,8.478,7.73a3.2,3.2,0,0,1-.115.35S420,797.74,416.1,797.628,414.761,792.8,419.054,788Z" transform="translate(-319.14 -521.35)"/><path class="k" d="M416.57,797.185c0,1,.112,1.811.252,1.811s.248-.811.248-1.811-.14-.531-.276-.531S416.57,796.182,416.57,797.185Z" transform="translate(-320.697 -526.906)"/><path class="k" d="M411.608,800.515c.878.479,1.643.769,1.71.647s-.591-.608-1.468-1.087-.531-.129-.6,0S410.731,800.036,411.608,800.515Z" transform="translate(-317.123 -529.045)"/><path class="l" d="M418.55,831.538s6.076-.185,7.908-1.493,9.352-2.86,9.806-.769,9.132,10.4,2.269,10.46-15.942-1.07-17.77-2.182S418.55,831.538,418.55,831.538Z" transform="translate(-321.985 -547.531)"/><path class="m" d="M438.656,845.088c-6.859.056-15.942-1.07-17.77-2.182-1.4-.849-1.947-3.894-2.133-5.3h-.2s.385,4.894,2.213,6.017,10.911,2.237,17.77,2.182c1.982,0,2.667-.72,2.629-1.766C440.886,844.69,440.131,845.088,438.656,845.088Z" transform="translate(-321.985 -553.617)"/><path class="n" d="M811.695,771.856s-3.884-13.19.727-22.9a20.834,20.834,0,0,0,1.685-13.072,35.084,35.084,0,0,0-1.849-6.135" transform="translate(-576.691 -483.464)"/><path class="a" d="M813.466,706.938c0,1.619-2.926,6.293-2.926,6.293s-2.93-4.688-2.93-6.293a2.93,2.93,0,0,1,5.856,0Z" transform="translate(-575.029 -466.788)"/><path class="a" d="M827.254,729.414c-.878,1.356-5.884,3.7-5.884,3.7s.091-5.524.968-6.88a2.928,2.928,0,0,1,4.915,3.181Z" transform="translate(-583.979 -480.307)"/><path class="a" d="M824.667,771.277c-1.44.727-6.947.224-6.947.224s2.87-4.723,4.311-5.454a2.935,2.935,0,1,1,2.636,5.244Z" transform="translate(-581.605 -506.868)"/><path class="a" d="M817.01,804.776c-1.3.961-6.81,1.4-6.81,1.4s2.028-5.139,3.328-6.1a2.931,2.931,0,0,1,3.5,4.706Z" transform="translate(-576.714 -528.827)"/><path class="a" d="M802.141,739.947c1.161,1.126,6.562,2.293,6.562,2.293s-1.325-5.366-2.482-6.492a2.926,2.926,0,1,0-4.08,4.2Z" transform="translate(-570.896 -486.827)"/><path class="a" d="M792.145,777.756c1.444.727,6.947.224,6.947.224s-2.867-4.723-4.311-5.454a2.93,2.93,0,0,0-2.636,5.23Z" transform="translate(-563.973 -511.106)"/><path class="a" d="M789.434,817.01c1.3.961,6.807,1.4,6.807,1.4s-2.028-5.143-3.328-6.1a2.932,2.932,0,1,0-3.5,4.709Z" transform="translate(-562.425 -536.782)"/><path class="a" d="M813.466,706.938c0,1.619-2.926,6.293-2.926,6.293s-2.93-4.688-2.93-6.293a2.93,2.93,0,0,1,5.856,0Z" transform="translate(-575.029 -466.788)"/><path class="a" d="M827.254,729.414c-.878,1.356-5.884,3.7-5.884,3.7s.091-5.524.968-6.88a2.928,2.928,0,0,1,4.915,3.181Z" transform="translate(-583.979 -480.307)"/><path class="a" d="M824.667,771.277c-1.44.727-6.947.224-6.947.224s2.87-4.723,4.311-5.454a2.935,2.935,0,1,1,2.636,5.244Z" transform="translate(-581.605 -506.868)"/><path class="a" d="M817.01,804.776c-1.3.961-6.81,1.4-6.81,1.4s2.028-5.139,3.328-6.1a2.931,2.931,0,0,1,3.5,4.706Z" transform="translate(-576.714 -528.827)"/><path class="a" d="M802.141,739.947c1.161,1.126,6.562,2.293,6.562,2.293s-1.325-5.366-2.482-6.492a2.926,2.926,0,1,0-4.08,4.2Z" transform="translate(-570.896 -486.827)"/><path class="a" d="M792.145,777.756c1.444.727,6.947.224,6.947.224s-2.867-4.723-4.311-5.454a2.93,2.93,0,0,0-2.636,5.23Z" transform="translate(-563.973 -511.106)"/><path class="a" d="M789.434,817.01c1.3.961,6.807,1.4,6.807,1.4s-2.028-5.143-3.328-6.1a2.932,2.932,0,1,0-3.5,4.709Z" transform="translate(-562.425 -536.782)"/><path class="l" d="M788.27,839.228s4.734-.94,5.992-2.192,6.94-3.444,7.572-1.877,8.513,6.887,3.146,7.828-12.617,1.252-14.194.626S788.27,839.228,788.27,839.228Z" transform="translate(-562.451 -551.669)"/><path class="m" d="M804.988,850.906c-5.363.94-12.617,1.255-14.194.629-1.2-.479-2.035-2.769-2.367-3.846l-.157.031s.947,3.758,2.524,4.384,8.831.315,14.194-.626c1.545-.273,1.989-.909,1.821-1.713C806.677,850.3,806.138,850.707,804.988,850.906Z" transform="translate(-562.451 -560.172)"/><path class="c" d="M262.59,97.065v.126a.409.409,0,0,0,0,.066v.374a.046.046,0,0,1,0,.021v.227l-.031.245a.816.816,0,0,1-.028.161h0a.643.643,0,0,0,0,.08v.049a.175.175,0,0,1,0,.042.146.146,0,0,1-.018.084c-.017.028,0,.056-.017.084s0,.042,0,.063a1.1,1.1,0,0,1-.024.108h0a.566.566,0,0,1-.017.073.89.89,0,0,1-.024.091.414.414,0,0,1-.028.108.081.081,0,0,0,0,.028.346.346,0,0,1-.035.112c-.032.112-.07.227-.108.35,0,.035-.028.07-.039.1a.383.383,0,0,1-.024.059,7.605,7.605,0,0,1-1.021,1.867l-.08.1a7.761,7.761,0,0,1-.657.748L249.42,113.363l-10.908-10.908a7.772,7.772,0,0,1-.857-1.017,7.51,7.51,0,0,1-.444-.7,7.73,7.73,0,0,1-.933-4.384,2.855,2.855,0,0,1,.049-.42q.052-.35.136-.734a.511.511,0,0,1,.038-.143l.021-.077v-.042l.031-.112h0c.024-.084.052-.168.08-.252s.024-.077.038-.115c.056-.164.119-.325.189-.486l.042-.094.063-.143.112-.231h0c0-.035.035-.07.056-.1a.932.932,0,0,1,.063-.115c.024-.049.052-.094.08-.143a.694.694,0,0,0,.038-.07.144.144,0,0,0,.024-.038h0l.052-.084c.021-.031.038-.063.059-.091l.14-.21.049-.07.063-.087.066-.091.084-.108.073-.091.028-.035.052-.063a1.216,1.216,0,0,1,.087-.1.511.511,0,0,1,.035-.045h0l.063-.073.077-.08c.066-.073.136-.147.21-.217l.084-.084.129-.122.087-.08.1-.091.066-.059.07-.056.136-.112.07-.056c.119-.091.238-.178.35-.259l.07-.049.073-.049.07-.045.1-.063.052-.031.073-.045c.1-.056.2-.115.3-.168l.059-.031.094-.049.077-.035.08-.038.077-.038.077-.035.08-.035c.1-.045.213-.087.318-.126l.08-.031.084-.031.077-.024.063-.021.147-.049.119-.08.059-.017h.059l.108-.031.14-.035c.143-.035.29-.066.437-.094h.4c.14,0,.28-.031.423-.042h1.171c.115,0,.227.021.35.031l.154.021h.325c.147.028.29.059.433.094l.178.045h.049l.077.021.147.042.063.021.318.108.07.028.094.035.147.059.161.07.063.028.091.042.077.038.077.035.1.052.077.038.178.1.073.042.259.157.07.045.073.049.07.049h0l.049.031.3.224.07.056.136.112.07.056.066.059.1.091.087.08.129.122.084.084.087-.084c.042-.042.084-.084.129-.122a.958.958,0,0,1,.087-.08l.1-.091.07-.059.066-.056.14-.112.07-.056c.119-.091.238-.178.35-.259l.073-.049.073-.049.07-.045.1-.063.052-.031.073-.045c.1-.056.2-.115.3-.168l.059-.031.094-.049.077-.035.077-.038.08-.038.077-.035.08-.035c.1-.045.21-.087.318-.126l.077-.031.087-.031.077-.024.063-.021.147-.049.073-.021.063-.017h.059l.1-.031.14-.035q.22-.052.44-.094h.4c.14,0,.283-.031.423-.042h1.171l.35.031.15.021h.329c.143.028.29.059.434.094l.178.045h.049l.077.021.147.042.063.021.318.108.07.028.094.035.143.059.164.07.063.028.087.042.077.038.08.035.094.052.077.038.178.1.077.042.259.157.066.045.073.049.077.056h0l.046.031c.1.073.206.147.3.224a.542.542,0,0,1,.07.056c.049.035.094.073.14.112l.07.056.066.059.091.077.087.08.049.049h0l.084.08.038.038.045.045.084.084.129.136a.769.769,0,0,1,.07.08c.042.042.08.087.122.133l.126.15a6.266,6.266,0,0,1,.4.545.524.524,0,0,1,.073.059.655.655,0,0,1,.056.08l.045.073.077.122.066.115.039.07.031.056.031.056.045.084.042.084c.1.2.192.4.276.6l.035.087c.031.084.063.168.091.252a.7.7,0,0,1,.028.077.392.392,0,0,0,.035.108l.031.1.021.063a.359.359,0,0,0,.025.087l.032.112c.017.059.031.122.045.182s.017.063.024.094.018.087.028.133a.339.339,0,0,0,0,.059v1.01h0a.469.469,0,0,1,0,.07.469.469,0,0,1,0,.07V96.7h0v.119Z" transform="translate(-203.418 -66.962)"/><path class="d" d="M263,97.065v.126a.4.4,0,0,0,0,.066v.374a.046.046,0,0,1,0,.021v.227l-.031.245a.814.814,0,0,1-.028.161h0a.655.655,0,0,0,0,.08v.049a.172.172,0,0,1,0,.042.147.147,0,0,1-.017.084c-.017.028,0,.056-.017.084s0,.042,0,.063a1.081,1.081,0,0,1-.024.108h0a.556.556,0,0,1-.017.073.867.867,0,0,1-.024.091.413.413,0,0,1-.028.108.083.083,0,0,0,0,.028.344.344,0,0,1-.035.112c-.031.112-.07.227-.108.35,0,.035-.028.07-.038.1a.391.391,0,0,1-.024.059,7.691,7.691,0,0,0-2.045-7.261,7.817,7.817,0,0,0-1.318-1.049c-.14-.087-.28-.171-.423-.248a7.691,7.691,0,0,0-8.261.458,7.408,7.408,0,0,0-1.007.85,8.453,8.453,0,0,0-.944-.8h0a8.016,8.016,0,0,0-.8-.5,7.723,7.723,0,0,0-7.429,0,7.988,7.988,0,0,0-1.1.731,7.82,7.82,0,0,0-1.489,1.58c-.154.217-.3.441-.427.668h0a7.241,7.241,0,0,0-.329.661c-.056.122-.108.248-.157.374a.512.512,0,0,1,.038-.143l.021-.077v-.042l.031-.112h0c.024-.084.052-.168.08-.252s.024-.077.038-.115c.056-.164.119-.325.189-.486l.042-.094.063-.143.112-.231h0c0-.035.035-.07.056-.1a.929.929,0,0,1,.063-.115c.024-.049.052-.094.08-.143a.7.7,0,0,0,.038-.07.144.144,0,0,0,.024-.038h0l.052-.084c.021-.031.038-.063.059-.091l.14-.21.049-.07.063-.087.066-.091.084-.108.073-.091.028-.035.052-.063a1.228,1.228,0,0,1,.087-.1.524.524,0,0,1,.035-.045h0l.063-.073.077-.08c.066-.073.136-.147.21-.217l.084-.084.129-.122.087-.08.1-.091.066-.059.07-.056.136-.112.07-.056c.119-.091.238-.178.35-.259l.07-.049.073-.049.07-.045.1-.063.052-.031.073-.045c.1-.056.2-.115.3-.168l.059-.031.094-.049.077-.035.08-.038.077-.038.077-.035.08-.035c.1-.045.213-.087.318-.126l.08-.031.084-.031.077-.024.063-.021.147-.049.112-.056.059-.017h.059l.108-.031.14-.035c.143-.035.29-.066.437-.094h.4c.14,0,.28-.031.423-.042h1.171c.115,0,.227.021.35.031l.154.021h.325c.147.028.29.059.434.094l.178.045h.049l.077.021.147.042.063.021.318.108.07.028.094.035.147.059.161.07.063.028.091.042.077.038.077.035.1.052.077.038.178.1.073.042.259.157.07.045.073.049.07.049h0l.049.031.3.224.07.056.136.112.07.056.066.059.1.091.087.08.129.122.084.084.087-.084c.042-.042.084-.084.129-.122a.958.958,0,0,1,.087-.08l.1-.091.07-.059.066-.056.14-.112.07-.056c.119-.091.238-.178.35-.259l.073-.049.073-.049.07-.045.1-.063.052-.031.073-.045c.1-.056.2-.115.3-.168l.059-.031.094-.049.077-.035.077-.038.08-.038.077-.035.08-.035c.1-.045.21-.087.318-.126l.077-.031.087-.031.077-.024.063-.021.147-.049.073-.021.063-.017h.059l.1-.031.14-.035q.22-.052.44-.094h.4c.14,0,.283-.031.423-.042h1.171l.35.031.15.021h.329c.143.028.29.059.434.094l.178.045h.049l.077.021.147.042.063.021.318.108.07.028.094.035.143.059.164.07.063.028.087.042.077.038.08.035.094.052.077.038.178.1.077.042.259.157.066.045.073.049.077.056h0l.045.031c.1.073.206.147.3.224a.543.543,0,0,1,.07.056c.049.035.094.073.14.112l.07.056.066.059.091.077.087.08.049.049h0l.084.08.038.038.045.045.084.084.129.136a.768.768,0,0,1,.07.08c.042.042.08.087.122.133l.126.15a6.279,6.279,0,0,1,.4.545.527.527,0,0,1,.073.059.658.658,0,0,1,.056.08l.046.073.077.122.066.115.038.07.031.056.031.056.045.084.042.084c.1.2.192.4.276.6l.035.087c.031.084.063.168.091.252a.7.7,0,0,1,.028.077.394.394,0,0,0,.035.108l.031.1.021.063a.361.361,0,0,0,.024.087l.031.112c.017.059.031.122.045.182s.017.063.024.094.018.087.028.133a.351.351,0,0,0,0,.059v1.01h0a80.1,80.1,0,0,1,0,.14V96.7h0v.119Z" transform="translate(-203.827 -66.962)"/></g></svg>