<?xml version="1.0" encoding="UTF-8"?>
<svg xmlns="http://www.w3.org/2000/svg" width="15" height="19" viewBox="0 0 15 19"><defs><style>.a{fill:#fff;}</style></defs><path class="a" d="M12.5,19H2.5A2.55,2.55,0,0,1,0,16.409V2.59A2.549,2.549,0,0,1,2.5,0H9.367a2.478,2.478,0,0,1,2.05,1.114L14.55,5.777A2.646,2.646,0,0,1,15,7.254v9.155A2.549,2.549,0,0,1,12.5,19ZM10.535,8.654a1.291,1.291,0,0,1,1.043.424,1.9,1.9,0,0,1,.357,1.249v.554a10.266,10.266,0,0,0-2.044.22,4.906,4.906,0,0,0-1.351.493,2.041,2.041,0,0,0-.75.689,1.568,1.568,0,0,0-.23.808,2.05,2.05,0,0,0,.157.837,1.631,1.631,0,0,0,.427.584,1.8,1.8,0,0,0,.634.347,2.556,2.556,0,0,0,.777.116,3.465,3.465,0,0,0,.739-.074,3.1,3.1,0,0,0,.626-.21,3.172,3.172,0,0,0,.56-.337,6.923,6.923,0,0,0,.546-.458l.14.671a.4.4,0,0,0,.154.235.544.544,0,0,0,.28.059h.553V10.328a3.523,3.523,0,0,0-.161-1.092,2.31,2.31,0,0,0-.476-.847,2.166,2.166,0,0,0-.777-.546,2.7,2.7,0,0,0-1.057-.2,3.939,3.939,0,0,0-1.506.28,4.076,4.076,0,0,0-1.266.847l.224.4a.613.613,0,0,0,.154.165.354.354,0,0,0,.217.066.561.561,0,0,0,.325-.115c.1-.073.233-.158.392-.259a2.909,2.909,0,0,1,.539-.258A2.243,2.243,0,0,1,10.535,8.654ZM3.7,5.469a.28.28,0,0,0-.193.067.31.31,0,0,0-.095.172L3.129,7.9l-1.162.148v.5a.258.258,0,0,0,.077.206.281.281,0,0,0,.189.067h.854v4.34a1.88,1.88,0,0,0,.451,1.351,1.717,1.717,0,0,0,1.292.47,2.653,2.653,0,0,0,.939-.172,2.324,2.324,0,0,0,.777-.472l-.364-.595a.216.216,0,0,0-.175-.119.236.236,0,0,0-.13.052c-.051.037-.111.075-.178.115a1.464,1.464,0,0,1-.248.116.989.989,0,0,1-.339.052.762.762,0,0,1-.561-.217.912.912,0,0,1-.217-.665V8.816H6.385v-.9H4.334V5.469ZM9.927,14.1a1.713,1.713,0,0,1-.459-.059,1,1,0,0,1-.371-.189.9.9,0,0,1-.248-.332,1.189,1.189,0,0,1-.091-.483.891.891,0,0,1,.171-.532,1.374,1.374,0,0,1,.554-.413,4.149,4.149,0,0,1,.986-.283,10.526,10.526,0,0,1,1.467-.137v1.471a4.115,4.115,0,0,1-.43.4,2.969,2.969,0,0,1-.463.3,2.282,2.282,0,0,1-.514.192A2.532,2.532,0,0,1,9.927,14.1Z"/></svg>