<svg xmlns="http://www.w3.org/2000/svg" xmlns:xlink="http://www.w3.org/1999/xlink" width="120" height="120" viewBox="0 0 120 120"><defs><style>.a{fill:#fff;stroke:#707070;stroke-width:6px;}.b{clip-path:url(#a);}.c{opacity:0.5;}.d{fill:url(#c);}.e{fill:#f5f5f5;}.f{fill:#3182ce;}.g{fill:#333;}.h{opacity:0.1;}.i{fill:#fdb797;}</style><clipPath id="a"><circle class="a" cx="60" cy="60" r="60" transform="translate(141 109)"/></clipPath><linearGradient id="c" x1="0.5" y1="1" x2="0.5" gradientUnits="objectBoundingBox"><stop offset="0" stop-color="gray" stop-opacity="0.251"/><stop offset="0.54" stop-color="gray" stop-opacity="0.122"/><stop offset="1" stop-color="gray" stop-opacity="0.102"/></linearGradient></defs><g class="b" transform="translate(-141 -109)"><g class="b"><g transform="translate(141 109)"><g class="c"><circle class="d" cx="60" cy="60" r="60"/></g><circle class="e" cx="58.735" cy="58.735" r="58.735" transform="translate(1.382 0.882)"/><path class="f" d="M103.324,135.947a58.453,58.453,0,0,0,32.285-9.662c-2.164-11.828-10.4-12.5-10.4-12.5H79.786s-7.772.638-10.2,11.519a58.465,58.465,0,0,0,33.738,10.645Z" transform="translate(-43.152 -17.364)"/><circle class="g" cx="28.35" cy="28.35" r="28.35" transform="translate(31.198 30.029)"/><path class="h" d="M50.4,81.992H68.563V96.524a9.083,9.083,0,0,1-9.079,9.083h0A9.083,9.083,0,0,1,50.4,96.524V81.992Z"/><path class="i" d="M50.974,81.318h17.02a.576.576,0,0,1,.576.576V95.85a9.083,9.083,0,0,1-9.088,9.084h0A9.083,9.083,0,0,1,50.4,95.852V81.894a.576.576,0,0,1,.573-.576Z"/><path class="h" d="M93.583,106.215a26.144,26.144,0,0,0,18.165.05V104.03H93.583Z" transform="translate(-43.152 -17.364)"/><circle class="i" cx="26.037" cy="26.037" r="26.037" transform="translate(33.511 37.993)"/><path class="h" d="M84.153,57.71s10.974,22.274,41.928,9.339l-7.207-11.3L106.1,51.163Z" transform="translate(-43.152 -17.364)"/><path class="g" d="M84.153,57.383s10.974,22.274,41.928,9.335l-7.207-11.3L106.1,50.833Z" transform="translate(-43.152 -17.364)"/><path class="g" d="M84.057,55.874a15.041,15.041,0,0,1,3.729-6.064c5.121-5.063,13.518-6.131,17.825-11.9a3.371,3.371,0,0,1-1.547,4.754c4.126-.028,8.907-.389,11.24-3.782a7.717,7.717,0,0,1-1.3,8.149c3.657.172,7.564,2.648,7.795,6.3a7.29,7.29,0,0,1-3.368,6.134,18.659,18.659,0,0,1-6.8,2.562C104.675,63.559,79.52,69.983,84.057,55.874Z" transform="translate(-43.152 -17.364)"/><ellipse class="i" cx="2.422" cy="4.542" rx="2.422" ry="4.542" transform="translate(31.078 59.464)"/><ellipse class="i" cx="2.422" cy="4.542" rx="2.422" ry="4.542" transform="translate(83.159 59.464)"/></g></g></g></svg>