<svg xmlns="http://www.w3.org/2000/svg" xmlns:xlink="http://www.w3.org/1999/xlink" width="29.173" height="33.036" viewBox="0 0 29.173 33.036"><defs><style>.a{fill:url(#a);}</style><linearGradient id="a" x1="0.069" x2="1" y2="0.922" gradientUnits="objectBoundingBox"><stop offset="0" stop-color="#319795"/><stop offset="1" stop-color="#3182ce"/></linearGradient></defs><path class="a" d="M29.136,10.983a1.059,1.059,0,0,0-.275-1.013L19.2.311a1.056,1.056,0,0,0-.85-.3c-.032,0-.062-.01-.095-.01H5.893A5.9,5.9,0,0,0,0,5.893v21.25a5.9,5.9,0,0,0,5.893,5.893H23.28a5.9,5.9,0,0,0,5.893-5.893v-15.9A1.053,1.053,0,0,0,29.136,10.983Zm-2.959-.69-.242-.026c-.172-.022-.349-.057-.535-.084s-.38-.049-.572-.1-.393-.087-.6-.127l-.607-.172c-.208-.052-.4-.147-.607-.212a2.008,2.008,0,0,1-.3-.124l-.294-.135c-.2-.089-.375-.209-.566-.31a5.775,5.775,0,0,1-.991-.8c-.16-.139-.276-.319-.421-.473a6.089,6.089,0,0,1-.356-.528,6.49,6.49,0,0,1-.563-1.15,9.535,9.535,0,0,1-.372-1.205c-.094-.4-.167-.789-.222-1.156-.037-.26-.069-.508-.094-.739ZM23.28,30.91H5.893a3.771,3.771,0,0,1-3.766-3.766V5.893A3.771,3.771,0,0,1,5.893,2.126H17.231c-.035.14-.07.29-.1.452a9.741,9.741,0,0,0-.155,2.6,8.618,8.618,0,0,0,.279,1.609c.034.14.081.278.129.418s.089.283.152.422l.185.419c.062.141.143.275.216.414a7.978,7.978,0,0,0,.517.8,6.973,6.973,0,0,0,.643.723,7.113,7.113,0,0,0,1.53,1.147c.281.132.554.28.834.387l.42.15a3.311,3.311,0,0,0,.416.128q.207.053.412.1a3.513,3.513,0,0,0,.4.081c.266.04.527.078.78.106A10.824,10.824,0,0,0,25.3,12.1c.215-.011.422-.016.615-.037l.547-.072c.171-.023.33-.047.477-.072l.106-.024V27.143A3.771,3.771,0,0,1,23.28,30.91Z" transform="translate(0)"/><path class="a" d="M145.889,133.718a3.144,3.144,0,0,0-1.126-.791,3.894,3.894,0,0,0-1.531-.284,5.669,5.669,0,0,0-2.181.406,5.868,5.868,0,0,0-1.836,1.227l.324.578a.882.882,0,0,0,.223.238.517.517,0,0,0,.314.1.819.819,0,0,0,.472-.167q.238-.167.568-.375a4.21,4.21,0,0,1,.781-.375,3.248,3.248,0,0,1,1.121-.167,1.865,1.865,0,0,1,1.511.614,2.746,2.746,0,0,1,.517,1.81v.8a14.937,14.937,0,0,0-2.962.32,7.123,7.123,0,0,0-1.957.715,2.934,2.934,0,0,0-1.085,1,2.261,2.261,0,0,0-.335,1.171,2.96,2.96,0,0,0,.228,1.212l.008.015a3.109,3.109,0,0,1-.53.246,2.114,2.114,0,0,1-.726.112,1.62,1.62,0,0,1-1.2-.464,1.936,1.936,0,0,1-.464-1.422v-9.1h4.387V129.2h-4.387v-5.225h-1.347a.59.59,0,0,0-.412.142.652.652,0,0,0-.2.367l-.614,4.686-2.485.314v1.063a.552.552,0,0,0,.165.442.6.6,0,0,0,.4.142h1.827v9.283a4,4,0,0,0,.966,2.89,3.656,3.656,0,0,0,2.762,1,5.644,5.644,0,0,0,2.006-.367,5.056,5.056,0,0,0,1.442-.826,3.718,3.718,0,0,0,1.061.15,4.969,4.969,0,0,0,1.07-.107,4.41,4.41,0,0,0,.908-.3,4.539,4.539,0,0,0,.811-.487,10.084,10.084,0,0,0,.791-.664l.2.974a.586.586,0,0,0,.223.34.786.786,0,0,0,.406.086h.8v-6.572a5.113,5.113,0,0,0-.233-1.582A3.353,3.353,0,0,0,145.889,133.718Zm-.842,6.887a5.766,5.766,0,0,1-.624.578,4.2,4.2,0,0,1-.669.436,3.29,3.29,0,0,1-.745.279,3.685,3.685,0,0,1-.872.1,2.461,2.461,0,0,1-.664-.086,1.44,1.44,0,0,1-.538-.274,1.3,1.3,0,0,1-.36-.482,1.7,1.7,0,0,1-.132-.7,1.287,1.287,0,0,1,.248-.771,1.975,1.975,0,0,1,.8-.6,6.054,6.054,0,0,1,1.43-.411,15.082,15.082,0,0,1,2.125-.2Z" transform="translate(-122.497 -115.956)"/></svg>