<?xml version="1.0" encoding="UTF-8"?>
<svg xmlns="http://www.w3.org/2000/svg" xmlns:xlink="http://www.w3.org/1999/xlink" viewBox="0 0 17 20" version="1.1">
<path style=" stroke:none;fill-rule:nonzero;fill:rgb(19.215686%,59.215686%,58.431373%);fill-opacity:1;" d="M 10.683594 0.0625 C 12.554688 1.039062 15.730469 4.132812 17 5.796875 C 15.453125 4.867188 13.613281 4.515625 11.824219 4.8125 C 12.011719 3.589844 11.664062 1.035156 10.683594 0.0625 Z M 17 9.167969 L 17 20 L 0 20 L 0 0 L 7.148438 0 C 11.277344 0 9.980469 6.667969 9.980469 6.667969 C 12.539062 6.046875 17 6.316406 17 9.167969 Z M 3.398438 13.332031 L 7.648438 13.332031 L 7.648438 10 L 3.398438 10 Z M 13.601562 15 L 3.398438 15 L 3.398438 15.832031 L 13.601562 15.832031 Z M 13.601562 12.5 L 9.351562 12.5 L 9.351562 13.332031 L 13.601562 13.332031 Z M 13.601562 10 L 9.351562 10 L 9.351562 10.832031 L 13.601562 10.832031 Z M 13.601562 10 "/>
</svg>
