<?xml version="1.0" encoding="UTF-8"?>
<svg xmlns="http://www.w3.org/2000/svg" xmlns:xlink="http://www.w3.org/1999/xlink" viewBox="0 0 20 20" version="1.1">
<path style=" stroke:none;fill-rule:nonzero;fill:rgb(19.215686%,59.215686%,58.431373%);fill-opacity:1;" d="M 10 0 C 4.476562 0 0 4.476562 0 10 C 0 15.523438 4.476562 20 10 20 C 15.523438 20 20 15.523438 20 10 C 20 4.476562 15.523438 0 10 0 Z M 16.460938 15.253906 C 16.148438 14.667969 15.5625 14.28125 14.902344 14.21875 C 12.992188 13.777344 11.210938 13.390625 12.074219 11.765625 C 14.695312 6.8125 12.769531 4.167969 10 4.167969 C 7.175781 4.167969 5.296875 6.917969 7.925781 11.765625 C 8.8125 13.402344 6.96875 13.789062 5.097656 14.21875 C 4.4375 14.28125 3.851562 14.671875 3.542969 15.257812 C 0.773438 11.859375 1.109375 6.898438 4.3125 3.902344 C 7.511719 0.910156 12.488281 0.910156 15.691406 3.902344 C 18.894531 6.898438 19.230469 11.859375 16.460938 15.257812 Z M 16.460938 15.253906 "/>
</svg>
