<?xml version="1.0" encoding="UTF-8"?>
<svg xmlns="http://www.w3.org/2000/svg" xmlns:xlink="http://www.w3.org/1999/xlink" viewBox="0 0 20 20" version="1.1">
<path style=" stroke:none;fill-rule:nonzero;fill:rgb(19.215686%,59.215686%,58.431373%);fill-opacity:1;" d="M 10 0 C 4.476562 0 0 4.476562 0 10 C 0 15.523438 4.476562 20 10 20 C 15.523438 20 20 15.523438 20 10 C 20 4.476562 15.523438 0 10 0 Z M 10 18.332031 C 7.496094 18.332031 5.121094 17.203125 3.542969 15.257812 C 3.851562 14.671875 4.4375 14.28125 5.097656 14.21875 C 6.96875 13.789062 8.8125 13.402344 7.925781 11.765625 C 5.296875 6.917969 7.175781 4.167969 10 4.167969 C 12.769531 4.167969 14.695312 6.8125 12.074219 11.765625 C 11.210938 13.390625 12.992188 13.777344 14.902344 14.21875 C 15.5625 14.28125 16.148438 14.667969 16.460938 15.25 C 14.882812 17.199219 12.507812 18.332031 10 18.332031 Z M 10 18.332031 "/>
</svg>
