<?xml version="1.0" encoding="UTF-8"?>
<svg xmlns="http://www.w3.org/2000/svg" xmlns:xlink="http://www.w3.org/1999/xlink" viewBox="0 0 20 20" version="1.1">
<path style=" stroke:none;fill-rule:evenodd;fill:rgb(19.215686%,59.215686%,58.431373%);fill-opacity:1;" d="M 10.832031 1.667969 L 12.5 1.667969 L 12.5 3.332031 L 13.332031 3.332031 L 13.332031 19.167969 L 14.167969 19.167969 L 14.167969 6.667969 L 19.167969 9.167969 L 19.167969 19.167969 L 20 19.167969 L 20 20 L 0 20 L 0 19.167969 L 0.832031 19.167969 L 0.832031 10 L 6.667969 10 L 6.667969 19.167969 L 7.5 19.167969 L 7.5 3.332031 L 8.332031 3.332031 L 8.332031 1.667969 L 10 1.667969 L 10 0 L 10.832031 0 Z M 17.5 19.167969 L 17.5 17.5 L 15.832031 17.5 L 15.832031 19.167969 Z M 5 19.167969 L 5 17.5 L 2.5 17.5 L 2.5 19.167969 Z M 11.667969 19.167969 L 11.667969 17.5 L 9.167969 17.5 L 9.167969 19.167969 Z M 10 15.832031 L 10 5 L 9.167969 5 L 9.167969 15.832031 Z M 17.5 15.832031 L 17.5 15 L 15.832031 15 L 15.832031 15.832031 Z M 2.5 15.832031 L 2.5 14.167969 L 1.667969 14.167969 L 1.667969 15.832031 Z M 5.832031 15.832031 L 5.832031 14.167969 L 5 14.167969 L 5 15.832031 Z M 4.167969 15.832031 L 4.167969 14.167969 L 3.332031 14.167969 L 3.332031 15.832031 Z M 11.667969 15.832031 L 11.667969 5 L 10.832031 5 L 10.832031 15.832031 Z M 17.5 14.167969 L 17.5 13.332031 L 15.832031 13.332031 L 15.832031 14.167969 Z M 2.5 13.332031 L 2.5 11.667969 L 1.667969 11.667969 L 1.667969 13.332031 Z M 4.167969 13.332031 L 4.167969 11.667969 L 3.332031 11.667969 L 3.332031 13.332031 Z M 5.832031 13.332031 L 5.832031 11.667969 L 5 11.667969 L 5 13.332031 Z M 17.5 12.5 L 17.5 11.667969 L 15.832031 11.667969 L 15.832031 12.5 Z M 17.5 10.71875 L 17.5 9.882812 L 15.832031 9.882812 L 15.832031 10.71875 Z M 17.5 10.71875 "/>
</svg>
