<?xml version="1.0" encoding="UTF-8"?>
<svg xmlns="http://www.w3.org/2000/svg" xmlns:xlink="http://www.w3.org/1999/xlink" viewBox="0 0 20 20" version="1.1">
<path style=" stroke:none;fill-rule:nonzero;fill:rgb(19.215686%,59.215686%,58.431373%);fill-opacity:1;" d="M 19.851562 17.398438 L 14.558594 12.105469 C 16.699219 8.722656 15.972656 4.273438 12.863281 1.75 C 9.757812 -0.769531 5.253906 -0.570312 2.382812 2.21875 C -0.484375 5.007812 -0.8125 9.503906 1.621094 12.683594 C 4.054688 15.859375 8.480469 16.710938 11.921875 14.667969 L 17.25 20 L 19.847656 17.398438 Z M 2.941406 7.890625 C 2.941406 5.15625 5.15625 2.941406 7.890625 2.941406 C 10.621094 2.941406 12.839844 5.15625 12.839844 7.890625 C 12.839844 10.625 10.621094 12.839844 7.890625 12.839844 C 5.15625 12.835938 2.945312 10.621094 2.941406 7.890625 Z M 2.941406 7.890625 "/>
</svg>
