<?xml version="1.0" encoding="UTF-8"?>
<svg xmlns="http://www.w3.org/2000/svg" xmlns:xlink="http://www.w3.org/1999/xlink" viewBox="0 0 19 13" version="1.1">
<path style=" stroke:none;fill-rule:nonzero;fill:rgb(19.215686%,59.215686%,58.431373%);fill-opacity:1;" d="M 0 13 L 4.75 13 C 4.730469 7.683594 7.125 9.996094 7.125 5.769531 C 7.179688 5.097656 6.949219 4.4375 6.496094 3.953125 C 6.039062 3.472656 5.402344 3.214844 4.75 3.25 C 2.777344 3.25 1.40625 5.1875 3.273438 8.808594 C 3.886719 10 2.617188 10.277344 1.257812 10.601562 C 0.078125 10.882812 0 11.472656 0 12.496094 Z M 16.230469 7.3125 C 14.699219 7.3125 13.457031 8.585938 13.457031 10.15625 C 13.457031 11.726562 14.699219 13 16.230469 13 C 17.757812 13 19 11.726562 19 10.15625 C 19 8.585938 17.757812 7.3125 16.230469 7.3125 Z M 17.417969 10.5625 L 16.625 10.5625 L 16.625 11.375 L 15.832031 11.375 L 15.832031 10.5625 L 15.042969 10.5625 L 15.042969 9.75 L 15.832031 9.75 L 15.832031 8.9375 L 16.625 8.9375 L 16.625 9.75 L 17.417969 9.75 Z M 13.605469 13 L 6.332031 13 L 6.332031 12.328125 C 6.332031 10.960938 6.4375 10.175781 8.011719 9.800781 C 9.785156 9.382812 11.539062 9.003906 10.695312 7.410156 C 8.199219 2.679688 9.984375 0 12.667969 0 C 15.878906 0 16.511719 3.347656 15.109375 6.421875 C 13.804688 6.820312 12.8125 7.90625 12.503906 9.265625 C 12.191406 10.621094 12.613281 12.046875 13.605469 13 Z M 13.605469 13 "/>
</svg>
