<?xml version="1.0" encoding="UTF-8"?>
<svg xmlns="http://www.w3.org/2000/svg" xmlns:xlink="http://www.w3.org/1999/xlink" viewBox="0 0 20 13" version="1.1">
<path style=" stroke:none;fill-rule:nonzero;fill:rgb(19.215686%,59.215686%,58.431373%);fill-opacity:1;" d="M 17.082031 7.3125 C 15.472656 7.3125 14.167969 8.585938 14.167969 10.15625 C 14.167969 11.726562 15.472656 13 17.082031 13 C 18.695312 13 20 11.726562 20 10.15625 C 20 8.585938 18.695312 7.3125 17.082031 7.3125 Z M 18.332031 10.5625 L 17.5 10.5625 L 17.5 11.375 L 16.667969 11.375 L 16.667969 10.5625 L 15.832031 10.5625 L 15.832031 9.75 L 16.667969 9.75 L 16.667969 8.9375 L 17.5 8.9375 L 17.5 9.75 L 18.332031 9.75 Z M 7.5 5.769531 C 7.5 7.144531 6.863281 8.125 6.496094 8.9375 L 5.328125 8.9375 C 5.515625 8.125 6.957031 6.164062 6.179688 4.890625 C 5.898438 4.535156 5.46875 4.328125 5.007812 4.328125 C 4.550781 4.324219 4.117188 4.527344 3.832031 4.875 C 3.410156 5.558594 3.632812 6.839844 4.425781 8.300781 C 4.765625 8.839844 4.816406 9.503906 4.5625 10.085938 C 4.222656 10.808594 3.472656 11.160156 2.628906 11.398438 C 0.953125 11.875 1.109375 11.441406 1.109375 13 L 0 13 L 0 12.496094 C 0 11.472656 0.0820312 10.882812 1.324219 10.601562 C 2.757812 10.277344 4.089844 9.996094 3.445312 8.808594 C 1.476562 5.1875 2.921875 3.25 5 3.25 C 5.6875 3.214844 6.359375 3.472656 6.835938 3.953125 C 7.316406 4.4375 7.558594 5.097656 7.5 5.769531 Z M 12.242188 6.902344 C 12.640625 7.523438 12.703125 8.292969 12.414062 8.96875 C 11.863281 10.144531 10.355469 10.480469 8.753906 10.839844 C 7.710938 11.078125 7.777344 11.320312 7.777344 13 L 6.667969 13 L 6.667969 12.328125 C 6.667969 10.964844 6.777344 10.175781 8.433594 9.800781 C 10.34375 9.371094 12.121094 8.992188 11.261719 7.40625 C 8.636719 2.582031 10.566406 0 13.332031 0 C 15.96875 0 17.78125 2.339844 15.867188 6.5 L 14.632812 6.5 C 15.597656 4.609375 15.824219 2.984375 15.222656 2.003906 C 14.472656 0.773438 12.207031 0.777344 11.460938 1.984375 C 10.824219 3.019531 11.109375 4.8125 12.242188 6.902344 Z M 12.242188 6.902344 "/>
</svg>
