<?xml version="1.0" encoding="UTF-8"?>
<svg xmlns="http://www.w3.org/2000/svg" xmlns:xlink="http://www.w3.org/1999/xlink" viewBox="0 0 20 20" version="1.1">
<path style=" stroke:none;fill-rule:nonzero;fill:rgb(19.215686%,59.215686%,58.431373%);fill-opacity:1;" d="M 17.351562 15.082031 C 14.484375 14.421875 11.816406 13.839844 13.109375 11.402344 C 17.042969 3.972656 14.152344 0 10 0 C 5.765625 0 2.945312 4.125 6.890625 11.398438 C 8.222656 13.851562 5.453125 14.433594 2.648438 15.078125 C 0.167969 15.652344 0 16.867188 0 18.964844 L 0 20 L 1.667969 20 C 1.667969 17.386719 1.5625 17.042969 3.199219 16.667969 C 5.574219 16.121094 7.816406 15.601562 8.636719 13.785156 C 9.066406 12.746094 8.960938 11.558594 8.355469 10.609375 C 6.640625 7.4375 6.207031 4.699219 7.167969 3.082031 C 8.296875 1.1875 11.6875 1.195312 12.804688 3.054688 C 13.765625 4.648438 13.339844 7.402344 11.640625 10.617188 C 11.042969 11.574219 10.945312 12.757812 11.378906 13.796875 C 12.207031 15.601562 14.46875 16.125 16.867188 16.679688 C 18.433594 17.042969 18.332031 17.417969 18.332031 20 L 20 20 L 20 18.964844 C 20 16.867188 19.832031 15.652344 17.351562 15.082031 Z M 17.351562 15.082031 "/>
</svg>
