<?xml version="1.0" encoding="UTF-8"?>
<svg xmlns="http://www.w3.org/2000/svg" xmlns:xlink="http://www.w3.org/1999/xlink" viewBox="0 0 20 20" version="1.1">
<path style=" stroke:none;fill-rule:nonzero;fill:rgb(19.215686%,59.215686%,58.431373%);fill-opacity:1;" d="M 20 11.347656 L 20 8.652344 C 18.625 8.164062 17.753906 8.027344 17.316406 6.972656 C 16.878906 5.910156 17.402344 5.191406 18.023438 3.882812 L 16.121094 1.976562 C 14.816406 2.59375 14.089844 3.121094 13.03125 2.683594 C 11.972656 2.246094 11.832031 1.371094 11.347656 0 L 8.652344 0 C 8.167969 1.363281 8.027344 2.242188 6.972656 2.683594 C 5.910156 3.121094 5.195312 2.597656 3.882812 1.976562 L 1.976562 3.878906 C 2.597656 5.1875 3.121094 5.910156 2.683594 6.96875 C 2.242188 8.03125 1.363281 8.167969 0 8.652344 L 0 11.347656 C 1.359375 11.828125 2.242188 11.972656 2.683594 13.027344 C 3.121094 14.085938 2.582031 14.832031 1.976562 16.117188 L 3.878906 18.023438 C 5.183594 17.402344 5.910156 16.878906 6.96875 17.316406 C 8.027344 17.753906 8.167969 18.632812 8.652344 20 L 11.347656 20 C 11.832031 18.636719 11.972656 17.757812 13.035156 17.316406 C 14.085938 16.878906 14.800781 17.398438 16.121094 18.023438 L 18.023438 16.121094 C 17.402344 14.816406 16.878906 14.089844 17.316406 13.03125 C 17.753906 11.96875 18.640625 11.832031 20 11.347656 Z M 10 13.332031 C 8.160156 13.332031 6.667969 11.839844 6.667969 10 C 6.667969 8.160156 8.160156 6.667969 10 6.667969 C 11.839844 6.667969 13.332031 8.160156 13.332031 10 C 13.332031 11.839844 11.839844 13.332031 10 13.332031 Z M 10 13.332031 "/>
</svg>
