<?xml version="1.0" encoding="UTF-8"?>
<svg xmlns="http://www.w3.org/2000/svg" xmlns:xlink="http://www.w3.org/1999/xlink" viewBox="0 0 20 20" version="1.1">
<path style=" stroke:none;fill-rule:nonzero;fill:rgb(19.215686%,59.215686%,58.431373%);fill-opacity:1;" d="M 20 11.824219 L 20 8.175781 C 18.210938 7.539062 17.726562 7.511719 17.476562 6.902344 C 17.226562 6.296875 17.546875 5.929688 18.359375 4.21875 L 15.78125 1.640625 C 14.09375 2.441406 13.710938 2.777344 13.097656 2.523438 C 12.484375 2.269531 12.457031 1.78125 11.824219 0 L 8.175781 0 C 7.539062 1.785156 7.511719 2.269531 6.902344 2.523438 C 6.277344 2.785156 5.902344 2.4375 4.21875 1.640625 L 1.640625 4.21875 C 2.453125 5.929688 2.773438 6.296875 2.523438 6.902344 C 2.269531 7.511719 1.789062 7.539062 0 8.175781 L 0 11.824219 C 1.78125 12.457031 2.269531 12.488281 2.523438 13.097656 C 2.773438 13.703125 2.453125 14.070312 1.640625 15.78125 L 4.21875 18.359375 C 5.882812 17.566406 6.277344 17.214844 6.902344 17.476562 C 7.511719 17.726562 7.539062 18.210938 8.175781 20 L 11.824219 20 C 12.453125 18.222656 12.488281 17.730469 13.101562 17.472656 C 13.71875 17.21875 14.089844 17.558594 15.78125 18.359375 L 18.359375 15.78125 C 17.546875 14.074219 17.226562 13.703125 17.476562 13.097656 C 17.730469 12.488281 18.210938 12.460938 20 11.824219 Z M 15.9375 12.460938 C 15.457031 13.621094 15.878906 14.507812 16.34375 15.441406 L 15.441406 16.34375 C 14.53125 15.890625 13.640625 15.449219 12.464844 15.9375 C 11.296875 16.421875 10.972656 17.347656 10.640625 18.332031 L 9.363281 18.332031 C 9.027344 17.347656 8.703125 16.417969 7.542969 15.9375 C 6.539062 15.585938 5.429688 15.738281 4.558594 16.34375 L 3.65625 15.441406 C 4.121094 14.507812 4.546875 13.625 4.0625 12.457031 C 3.582031 11.289062 2.652344 10.972656 1.667969 10.640625 L 1.667969 9.363281 C 2.652344 9.027344 3.582031 8.703125 4.0625 7.542969 C 4.542969 6.378906 4.121094 5.492188 3.65625 4.558594 L 4.558594 3.65625 C 5.429688 4.265625 6.539062 4.414062 7.542969 4.0625 C 8.703125 3.582031 9.03125 2.652344 9.363281 1.667969 L 10.640625 1.667969 C 10.972656 2.652344 11.300781 3.582031 12.460938 4.0625 C 13.460938 4.414062 14.570312 4.261719 15.441406 3.65625 L 16.347656 4.558594 C 15.882812 5.492188 15.457031 6.382812 15.9375 7.542969 C 16.421875 8.703125 17.347656 9.027344 18.332031 9.363281 L 18.332031 10.640625 C 17.34375 10.972656 16.417969 11.300781 15.9375 12.460938 Z M 10 7.5 C 11.378906 7.5 12.5 8.621094 12.5 10 C 12.5 11.378906 11.378906 12.5 10 12.5 C 8.621094 12.5 7.5 11.378906 7.5 10 C 7.5 8.621094 8.621094 7.5 10 7.5 Z M 10 5.832031 C 7.699219 5.832031 5.832031 7.699219 5.832031 10 C 5.832031 12.300781 7.699219 14.167969 10 14.167969 C 12.300781 14.167969 14.167969 12.300781 14.167969 10 C 14.167969 7.699219 12.300781 5.832031 10 5.832031 Z M 10 5.832031 "/>
</svg>
