<?xml version="1.0" encoding="UTF-8"?>
<svg xmlns="http://www.w3.org/2000/svg" xmlns:xlink="http://www.w3.org/1999/xlink" viewBox="0 0 20 10" version="1.1">
<path style=" stroke:none;fill-rule:nonzero;fill:rgb(19.215686%,59.215686%,58.431373%);fill-opacity:1;" d="M 14.996094 10 L 5 10 L 5 9.480469 C 5 8.433594 5.082031 7.824219 6.324219 7.539062 C 7.726562 7.214844 9.109375 6.925781 8.445312 5.699219 C 6.472656 2.0625 7.882812 0 10 0 C 12.074219 0 13.523438 1.984375 11.554688 5.699219 C 10.910156 6.917969 12.242188 7.210938 13.675781 7.539062 C 14.917969 7.828125 15 8.433594 15 9.484375 L 15 10 Z M 19.007812 8.15625 C 17.933594 7.90625 16.933594 7.6875 17.414062 6.773438 C 18.890625 3.988281 17.808594 2.5 16.25 2.5 C 15.734375 2.472656 15.230469 2.671875 14.871094 3.042969 C 14.511719 3.414062 14.332031 3.921875 14.375 4.4375 C 14.375 7.6875 16.265625 5.910156 16.246094 10 L 19.996094 10 L 19.996094 9.613281 C 20 8.824219 19.9375 8.371094 19.007812 8.15625 Z M 0 10 L 3.75 10 C 3.734375 5.910156 5.625 7.691406 5.625 4.4375 C 5.667969 3.921875 5.488281 3.414062 5.128906 3.042969 C 4.769531 2.671875 4.265625 2.472656 3.75 2.5 C 2.191406 2.5 1.109375 3.988281 2.582031 6.773438 C 3.066406 7.691406 2.066406 7.90625 0.992188 8.15625 C 0.0625 8.371094 0 8.824219 0 9.613281 Z M 0 10 "/>
</svg>
