<?xml version="1.0" encoding="UTF-8"?>
<svg xmlns="http://www.w3.org/2000/svg" xmlns:xlink="http://www.w3.org/1999/xlink" viewBox="0 0 20 10" version="1.1">
<path style=" stroke:none;fill-rule:nonzero;fill:rgb(19.215686%,59.215686%,58.431373%);fill-opacity:1;" d="M 14.996094 10 L 14.167969 10 C 14.167969 8.707031 14.214844 8.519531 13.433594 8.339844 C 12.234375 8.0625 11.101562 7.800781 10.6875 6.898438 C 10.472656 6.378906 10.519531 5.785156 10.816406 5.308594 C 11.667969 3.703125 11.882812 2.324219 11.402344 1.527344 C 10.839844 0.597656 9.144531 0.59375 8.582031 1.542969 C 8.101562 2.347656 8.316406 3.71875 9.175781 5.300781 C 9.480469 5.777344 9.53125 6.371094 9.316406 6.890625 C 8.90625 7.800781 7.785156 8.058594 6.597656 8.332031 C 5.777344 8.519531 5.828125 8.695312 5.828125 10 L 5 10 L 5 9.480469 C 5 8.429688 5.082031 7.824219 6.324219 7.539062 C 7.726562 7.214844 9.109375 6.925781 8.445312 5.699219 C 6.472656 2.0625 7.878906 0 10 0 C 12.078125 0 13.523438 1.984375 11.554688 5.699219 C 10.910156 6.917969 12.242188 7.210938 13.675781 7.539062 C 14.917969 7.828125 15 8.433594 15 9.484375 Z M 19.003906 8.15625 C 17.933594 7.90625 16.933594 7.6875 17.414062 6.773438 C 18.890625 3.988281 17.808594 2.5 16.25 2.5 C 15.734375 2.472656 15.230469 2.671875 14.871094 3.042969 C 14.511719 3.414062 14.332031 3.921875 14.375 4.4375 C 14.375 5.496094 14.851562 6.25 15.128906 6.875 L 16.003906 6.875 C 15.863281 6.25 14.78125 4.738281 15.363281 3.761719 C 15.574219 3.488281 15.898438 3.332031 16.242188 3.328125 C 16.585938 3.324219 16.910156 3.480469 17.125 3.75 C 17.441406 4.277344 17.277344 5.261719 16.679688 6.382812 C 16.425781 6.800781 16.386719 7.3125 16.578125 7.757812 C 16.832031 8.3125 17.394531 8.582031 18.027344 8.765625 C 19.285156 9.132812 19.167969 8.800781 19.167969 10 L 20 10 L 20 9.613281 C 20 8.828125 19.9375 8.371094 19.003906 8.15625 Z M 0 10 L 0.832031 10 C 0.832031 8.800781 0.71875 9.132812 1.972656 8.765625 C 2.605469 8.582031 3.167969 8.316406 3.421875 7.761719 C 3.613281 7.3125 3.574219 6.800781 3.320312 6.386719 C 2.722656 5.261719 2.558594 4.277344 2.875 3.75 C 3.085938 3.480469 3.414062 3.324219 3.757812 3.328125 C 4.101562 3.328125 4.425781 3.488281 4.636719 3.761719 C 5.21875 4.742188 4.140625 6.25 3.996094 6.875 L 4.871094 6.875 C 5.148438 6.25 5.625 5.496094 5.625 4.4375 C 5.671875 3.921875 5.488281 3.414062 5.128906 3.042969 C 4.769531 2.667969 4.265625 2.472656 3.75 2.5 C 2.191406 2.5 1.109375 3.988281 2.582031 6.773438 C 3.066406 7.691406 2.066406 7.90625 0.992188 8.15625 C 0.0625 8.371094 0 8.824219 0 9.613281 Z M 0 10 "/>
</svg>
