<?xml version="1.0" encoding="UTF-8"?>
<svg xmlns="http://www.w3.org/2000/svg" xmlns:xlink="http://www.w3.org/1999/xlink" viewBox="0 0 20 19" version="1.1">
<path style=" stroke:none;fill-rule:nonzero;fill:rgb(19.215686%,59.215686%,58.431373%);fill-opacity:1;" d="M 13.820312 8.691406 C 15.882812 10.515625 16.0625 13.648438 14.222656 15.691406 C 12.382812 17.734375 9.222656 17.914062 7.164062 16.089844 C 5.101562 14.269531 4.921875 11.132812 6.761719 9.09375 C 8.601562 7.050781 11.757812 6.875 13.820312 8.691406 Z M 10.496094 5.78125 C 7.277344 5.78125 4.519531 8.054688 3.9375 11.191406 C 3.351562 14.328125 5.109375 17.429688 8.117188 18.566406 C 11.121094 19.703125 14.515625 18.550781 16.1875 15.824219 C 17.859375 13.101562 17.332031 9.582031 14.929688 7.460938 C 13.710938 6.378906 12.132812 5.78125 10.496094 5.78125 Z M 11.351562 10.324219 C 10.894531 10.835938 10.101562 10.882812 9.585938 10.425781 C 9.070312 9.972656 9.027344 9.1875 9.488281 8.675781 C 9.945312 8.167969 10.738281 8.121094 11.25 8.578125 C 11.765625 9.03125 11.8125 9.816406 11.351562 10.324219 Z M 10.726562 0.03125 C -2.5625 1.277344 -2.804688 16.628906 6.160156 19 C 1.5 16.546875 1.046875 10 4.59375 6.472656 C 6.175781 4.953125 8.296875 4.117188 10.5 4.144531 C 12.859375 4.140625 15.125 5.050781 16.816406 6.679688 L 20 2.273438 C 17.1875 0.664062 13.96875 -0.113281 10.726562 0.03125 Z M 16.496094 4.296875 C 14.816406 3.179688 12.851562 2.558594 10.832031 2.503906 L 10.832031 1.679688 L 10.859375 1.679688 C 13.136719 1.5625 15.410156 1.984375 17.488281 2.917969 Z M 16.496094 4.296875 "/>
</svg>
