<?xml version="1.0" encoding="UTF-8"?>
<svg xmlns="http://www.w3.org/2000/svg" xmlns:xlink="http://www.w3.org/1999/xlink" viewBox="0 0 19 19" version="1.1">
<path style=" stroke:none;fill-rule:nonzero;fill:currentColor;fill-opacity:1;" d="M 14.183594 7.460938 C 11.574219 5.03125 7.570312 5.269531 5.242188 7.992188 C 2.914062 10.714844 3.140625 14.894531 5.75 17.324219 C 8.363281 19.753906 12.367188 19.515625 14.695312 16.789062 C 17.023438 14.066406 16.792969 9.890625 14.183594 7.460938 Z M 10.785156 9.5 C 10.347656 10.011719 9.597656 10.054688 9.109375 9.601562 C 8.617188 9.144531 8.574219 8.363281 9.011719 7.851562 C 9.445312 7.339844 10.199219 7.292969 10.6875 7.75 C 10.921875 7.96875 11.066406 8.273438 11.082031 8.605469 C 11.101562 8.933594 10.996094 9.253906 10.785156 9.5 Z M 10.191406 0.03125 C -2.4375 1.277344 -2.664062 16.628906 5.851562 19 C 1.425781 16.546875 0.992188 10 4.363281 6.472656 C 5.867188 4.953125 7.882812 4.117188 9.976562 4.144531 C 12.214844 4.140625 14.371094 5.050781 15.976562 6.679688 L 19 2.273438 C 16.328125 0.664062 13.273438 -0.113281 10.191406 0.03125 Z M 15.667969 4.296875 C 14.074219 3.179688 12.210938 2.558594 10.292969 2.503906 L 10.292969 1.679688 L 10.316406 1.679688 C 12.480469 1.5625 14.640625 1.984375 16.617188 2.917969 Z M 15.667969 4.296875 "/>
</svg>
