<?xml version="1.0" encoding="UTF-8"?>
<svg xmlns="http://www.w3.org/2000/svg" xmlns:xlink="http://www.w3.org/1999/xlink" viewBox="0 0 16 19" version="1.1">
<path style=" stroke:none;fill-rule:nonzero;fill:currentColor;fill-opacity:1;" d="M 8 2.449219 L 8 9.207031 C 8 9.507812 8.566406 9.515625 8.566406 9.207031 L 8.566406 3.53125 C 8.566406 2.460938 10.535156 2.421875 10.535156 3.53125 L 10.535156 9.964844 C 10.535156 10.359375 10.9375 10.417969 11.089844 10.117188 C 11.242188 9.820312 11.832031 8.554688 11.839844 8.542969 C 12.113281 8.011719 12.78125 7.796875 13.332031 8.0625 C 13.882812 8.328125 14.105469 8.96875 13.832031 9.5 C 13.675781 9.890625 11.738281 14.117188 11.246094 15.183594 C 10.71875 16.539062 9.367188 17.433594 7.863281 17.417969 L 4.632812 17.417969 C 2.671875 17.417969 1.640625 16.292969 1.640625 14.328125 L 1.640625 5.773438 C 1.625 5.492188 1.769531 5.222656 2.015625 5.070312 C 2.265625 4.917969 2.578125 4.910156 2.835938 5.042969 C 3.09375 5.179688 3.257812 5.4375 3.261719 5.722656 L 3.261719 9.476562 C 3.261719 9.785156 3.847656 9.78125 3.847656 9.476562 L 3.847656 3.445312 C 3.847656 2.960938 4.253906 2.570312 4.753906 2.570312 C 5.253906 2.570312 5.660156 2.960938 5.660156 3.445312 L 5.660156 9.136719 C 5.660156 9.453125 6.207031 9.4375 6.207031 9.132812 L 6.207031 2.449219 C 6.207031 1.96875 6.609375 1.582031 7.105469 1.582031 C 7.597656 1.582031 8 1.96875 8 2.449219 Z M 7.113281 0 C 6.292969 -0.0078125 5.519531 0.371094 5.039062 1.011719 C 4.332031 0.925781 3.621094 1.136719 3.085938 1.582031 C 2.546875 2.03125 2.230469 2.679688 2.214844 3.363281 C 0.929688 3.472656 -0.0429688 4.53125 0 5.773438 L 0 14.332031 C -0.132812 15.570312 0.304688 16.800781 1.199219 17.699219 C 2.089844 18.597656 3.34375 19.074219 4.632812 19 L 7.863281 19 C 10.019531 19.03125 11.96875 17.765625 12.75 15.828125 C 13.109375 15.050781 15.105469 10.6875 15.351562 10.09375 C 15.792969 9.164062 15.640625 8.074219 14.960938 7.289062 C 14.285156 6.5 13.199219 6.160156 12.171875 6.414062 L 12.171875 3.53125 C 12.164062 2.824219 11.84375 2.15625 11.289062 1.699219 C 10.730469 1.242188 9.996094 1.039062 9.273438 1.140625 C 8.816406 0.417969 7.992188 -0.015625 7.113281 0 Z M 7.113281 0 "/>
</svg>
