<?xml version="1.0" encoding="UTF-8"?>
<svg xmlns="http://www.w3.org/2000/svg" xmlns:xlink="http://www.w3.org/1999/xlink" width="19pt" height="19pt" viewBox="0 0 19 19" version="1.1">
<defs>
<clipPath id="clip1">
  <path d="M 0 0.613281 L 19 0.613281 L 19 18.851562 L 0 18.851562 Z M 0 0.613281 "/>
</clipPath>
</defs>
<g id="surface1">
<g clip-path="url(#clip1)" clip-rule="nonzero">
<path style=" stroke:none;fill-rule:evenodd;fill:rgb(29.019608%,33.333333%,40.784314%);fill-opacity:1;" d="M 4.75 5.929688 L 4.75 0.613281 L 15.042969 0.613281 L 15.042969 8.210938 L 19 8.210938 L 19 18.851562 L 0.792969 18.851562 L 0.792969 5.929688 Z M 4.75 18.089844 L 4.75 15.050781 L 3.957031 15.050781 L 3.957031 18.089844 Z M 11.082031 15.050781 L 8.707031 15.050781 L 8.707031 18.089844 L 11.082031 18.089844 Z M 15.832031 15.050781 L 15.042969 15.050781 L 15.042969 18.089844 L 15.832031 18.089844 Z M 17.417969 9.730469 L 15.042969 9.730469 L 15.042969 14.292969 L 16.625 14.292969 L 16.625 17.332031 L 17.417969 17.332031 Z M 13.457031 2.132812 L 6.332031 2.132812 L 6.332031 17.332031 L 7.125 17.332031 L 7.125 13.53125 L 12.667969 13.53125 L 12.667969 17.332031 L 13.457031 17.332031 Z M 3.167969 17.332031 L 3.167969 14.292969 L 4.75 14.292969 L 4.75 7.453125 L 2.375 7.453125 L 2.375 17.332031 Z M 16.625 12.769531 L 15.832031 12.769531 L 15.832031 11.25 L 16.625 11.25 Z M 3.167969 11.25 L 3.957031 11.25 L 3.957031 12.769531 L 3.167969 12.769531 Z M 9.5 12.011719 L 7.917969 12.011719 L 7.917969 10.492188 L 9.5 10.492188 Z M 11.875 12.011719 L 10.292969 12.011719 L 10.292969 10.492188 L 11.875 10.492188 Z M 3.957031 8.972656 L 3.957031 10.492188 L 3.167969 10.492188 L 3.167969 8.972656 Z M 9.5 9.730469 L 7.917969 9.730469 L 7.917969 8.210938 L 9.5 8.210938 Z M 11.875 9.730469 L 10.292969 9.730469 L 10.292969 8.210938 L 11.875 8.210938 Z M 9.5 7.453125 L 7.917969 7.453125 L 7.917969 5.929688 L 9.5 5.929688 Z M 11.875 7.453125 L 10.292969 7.453125 L 10.292969 5.929688 L 11.875 5.929688 Z M 9.5 5.171875 L 7.917969 5.171875 L 7.917969 3.652344 L 9.5 3.652344 Z M 11.875 5.171875 L 10.292969 5.171875 L 10.292969 3.652344 L 11.875 3.652344 Z M 11.875 5.171875 "/>
</g>
</g>
</svg>
