<?xml version="1.0" encoding="UTF-8"?>
<svg viewBox="0 0 20 20" version="1.1" xmlns="http://www.w3.org/2000/svg"><path d="M 4.167969 3.332031 L 1.667969 3.332031 L 1.667969 2.5 L 4.167969 2.5 Z M 10.832031 8.332031 C 9.453125 8.332031 8.332031 9.453125 8.332031 10.832031 C 8.332031 12.210938 9.453125 13.332031 10.832031 13.332031 C 12.210938 13.332031 13.332031 12.210938 13.332031 10.832031 C 13.332031 9.453125 12.210938 8.332031 10.832031 8.332031 Z M 20 4.167969 L 20 18.332031 L 0 18.332031 L 0 4.167969 L 4.941406 4.167969 C 5.5 4.167969 6.019531 3.886719 6.328125 3.425781 L 7.5 1.667969 L 14.167969 1.667969 L 15.339844 3.425781 C 15.648438 3.886719 16.167969 4.167969 16.726562 4.167969 Z M 4.167969 7.5 C 4.167969 7.039062 3.792969 6.667969 3.332031 6.667969 C 2.871094 6.667969 2.5 7.039062 2.5 7.5 C 2.5 7.960938 2.871094 8.332031 3.332031 8.332031 C 3.792969 8.332031 4.167969 7.960938 4.167969 7.5 Z M 15 10.832031 C 15 8.53125 13.132812 6.667969 10.832031 6.667969 C 8.53125 6.667969 6.667969 8.53125 6.667969 10.832031 C 6.667969 13.132812 8.53125 15 10.832031 15 C 13.132812 15 15 13.132812 15 10.832031 Z M 15 10.832031"></path></svg>