<?xml version="1.0" encoding="UTF-8"?>
<svg viewBox="0 0 20 15" version="1.1" xmlns="http://www.w3.org/2000/svg"><path d="M 18.332031 1.667969 L 18.332031 13.332031 L 1.667969 13.332031 L 1.667969 1.667969 Z M 20 0 L 0 0 L 0 15 L 20 15 Z M 11.667969 11.332031 L 11.667969 11.667969 L 3.332031 11.667969 L 3.332031 11.320312 C 3.332031 10.390625 3.371094 9.863281 4.4375 9.617188 C 5.601562 9.347656 6.757812 9.105469 6.203125 8.082031 C 4.5625 5.050781 5.734375 3.332031 7.5 3.332031 C 9.230469 3.332031 10.433594 4.988281 8.796875 8.082031 C 8.257812 9.101562 9.371094 9.339844 10.5625 9.617188 C 11.632812 9.863281 11.671875 10.398438 11.667969 11.332031 Z M 16.667969 3.332031 L 13.332031 3.332031 L 13.332031 5 L 16.667969 5 Z M 16.667969 6.667969 L 13.332031 6.667969 L 13.332031 8.332031 L 16.667969 8.332031 Z M 16.667969 10 L 13.332031 10 L 13.332031 11.667969 L 16.667969 11.667969 Z M 16.667969 10"></path></svg>