<?xml version="1.0" encoding="UTF-8"?>
<svg viewBox="0 0 20 20" version="1.1" xmlns="http://www.w3.org/2000/svg"><path d="M 17.300781 7.609375 C 17.863281 11.328125 16.125 15.015625 12.941406 16.851562 C 9.757812 18.683594 5.808594 18.273438 3.042969 15.824219 C 0.273438 13.375 -0.722656 9.402344 0.542969 5.871094 C 1.804688 2.339844 5.066406 -0.00390625 8.707031 0 C 10.492188 0 12.234375 0.570312 13.695312 1.628906 L 12.574219 2.824219 C 9.851562 1 6.277344 1.3125 3.886719 3.578125 C 1.496094 5.84375 0.886719 9.492188 2.40625 12.453125 C 3.925781 15.414062 7.191406 16.941406 10.347656 16.167969 C 13.503906 15.394531 15.753906 12.515625 15.824219 9.164062 Z M 16.546875 0.953125 L 9.105469 8.839844 L 6.0625 5.882812 L 3.613281 8.421875 L 9.105469 13.910156 L 19 3.488281 Z M 16.546875 0.953125"></path></svg>