<?xml version="1.0" encoding="UTF-8"?>
<svg xmlns="http://www.w3.org/2000/svg" xmlns:xlink="http://www.w3.org/1999/xlink" viewBox="0 0 20 20" version="1.1">
<path style=" stroke:none;fill-rule:evenodd;fill:currentColor;fill-opacity:1;" d="M 10 0 C 15.523438 0 20 4.476562 20 10 C 20 15.523438 15.523438 20 10 20 C 4.476562 20 0 15.523438 0 10 C 0 4.476562 4.476562 0 10 0 Z M 10 0.832031 C 15.0625 0.832031 19.167969 4.9375 19.167969 10 C 19.167969 15.0625 15.0625 19.167969 10 19.167969 C 4.9375 19.167969 0.832031 15.0625 0.832031 10 C 0.835938 4.9375 4.9375 0.835938 10 0.832031 Z M 14.375 7.5 L 10 12.867188 L 5.613281 7.5 L 5 8.066406 L 10 14.167969 L 15 8.054688 Z M 14.375 7.5 "/>
</svg>
