<?xml version="1.0" encoding="UTF-8"?>
<svg xmlns="http://www.w3.org/2000/svg" xmlns:xlink="http://www.w3.org/1999/xlink" viewBox="0 0 20 20" version="1.1">
<path style=" stroke:none;fill-rule:evenodd;fill:currentColor;fill-opacity:1;" d="M 10 1.667969 L 11.667969 1.667969 L 11.667969 3.332031 L 13.332031 3.332031 L 13.332031 6.417969 L 19.167969 8.597656 L 19.167969 19.167969 L 20 19.167969 L 20 20 L 0 20 L 0 19.167969 L 0.832031 19.167969 L 0.832031 10 L 5.832031 10 L 5.832031 3.332031 L 7.5 3.332031 L 7.5 1.667969 L 9.167969 1.667969 L 9.167969 0 L 10 0 Z M 12.5 4.167969 L 6.667969 4.167969 L 6.667969 19.167969 L 7.5 19.167969 L 7.5 17.5 L 11.667969 17.5 L 11.667969 19.167969 L 12.5 19.167969 Z M 10.832031 18.332031 L 8.332031 18.332031 L 8.332031 19.167969 L 10.832031 19.167969 Z M 17.5 19.167969 L 18.332031 19.167969 L 18.332031 9.175781 L 13.332031 7.308594 L 13.332031 19.167969 L 14.167969 19.167969 L 14.167969 17.5 L 17.5 17.5 Z M 5.832031 10.832031 L 1.667969 10.832031 L 1.667969 19.167969 L 2.5 19.167969 L 2.5 17.5 L 5 17.5 L 5 19.167969 L 5.832031 19.167969 Z M 4.167969 18.332031 L 3.332031 18.332031 L 3.332031 19.167969 L 4.167969 19.167969 Z M 16.667969 18.332031 L 15 18.332031 L 15 19.167969 L 16.667969 19.167969 Z M 3.332031 14.167969 L 3.332031 15.832031 L 2.5 15.832031 L 2.5 14.167969 Z M 5 14.167969 L 5 15.832031 L 4.167969 15.832031 L 4.167969 14.167969 Z M 9.167969 5.832031 L 9.167969 15.832031 L 8.332031 15.832031 L 8.332031 5.832031 Z M 17.5 15 L 17.5 15.832031 L 14.167969 15.832031 L 14.167969 15 Z M 10.832031 5.832031 L 10.832031 15.832031 L 10 15.832031 L 10 5.832031 Z M 17.5 13.332031 L 17.5 14.167969 L 14.167969 14.167969 L 14.167969 13.332031 Z M 3.332031 11.667969 L 3.332031 13.332031 L 2.5 13.332031 L 2.5 11.667969 Z M 5 11.667969 L 5 13.332031 L 4.167969 13.332031 L 4.167969 11.667969 Z M 17.5 11.667969 L 17.5 12.5 L 14.167969 12.5 L 14.167969 11.667969 Z M 17.5 10 L 17.5 10.832031 L 14.167969 10.832031 L 14.167969 10 Z M 10.832031 2.5 L 8.332031 2.5 L 8.332031 3.332031 L 10.832031 3.332031 Z M 10.832031 2.5 "/>
</svg>
