<?xml version="1.0" encoding="UTF-8"?>
<svg xmlns="http://www.w3.org/2000/svg" xmlns:xlink="http://www.w3.org/1999/xlink" viewBox="0 0 20 12" version="1.1">
<path style=" stroke:none;fill-rule:nonzero;fill:currentColor;fill-opacity:1;" d="M 18.332031 1.714844 L 18.332031 10.285156 L 1.667969 10.285156 L 1.667969 1.714844 L 18.332031 1.714844 M 20 0 L 0 0 L 0 12 L 20 12 Z M 10 2.570312 C 8.160156 2.570312 6.667969 4.105469 6.667969 6 C 6.667969 7.894531 8.160156 9.429688 10 9.429688 C 11.839844 9.429688 13.332031 7.894531 13.332031 6 C 13.332031 4.105469 11.839844 2.570312 10 2.570312 Z M 10.167969 7.695312 L 10.167969 8.054688 L 9.832031 8.054688 L 9.832031 7.714844 C 9.484375 7.710938 9.144531 7.625 8.832031 7.464844 L 8.984375 6.902344 C 9.320312 7.0625 9.691406 7.125 10.058594 7.085938 C 10.441406 7 10.523438 6.59375 10.097656 6.402344 C 9.789062 6.253906 8.835938 6.125 8.835938 5.285156 C 8.867188 4.742188 9.304688 4.316406 9.832031 4.308594 L 9.832031 3.941406 L 10.167969 3.941406 L 10.167969 4.292969 C 10.441406 4.300781 10.71875 4.351562 10.980469 4.4375 L 10.859375 5 C 10.601562 4.894531 10.324219 4.839844 10.046875 4.839844 C 9.546875 4.871094 9.503906 5.3125 9.851562 5.496094 C 10.421875 5.773438 11.164062 5.980469 11.164062 6.714844 C 11.164062 7.300781 10.71875 7.617188 10.164062 7.695312 Z M 10.167969 7.695312 "/>
</svg>
