<?xml version="1.0" encoding="UTF-8"?>
<svg viewBox="0 0 20 20" version="1.1" xmlns="http://www.w3.org/2000/svg"><path d="M 4.546875 10.5 L 13.636719 10.5 L 13.636719 11.375 L 4.546875 11.375 Z M 11.652344 7.875 L 4.546875 7.875 L 4.546875 8.75 L 12.769531 8.75 C 12.363281 8.503906 11.984375 8.210938 11.652344 7.875 Z M 16.363281 9.601562 L 16.363281 11.851562 C 16.363281 15.445312 10.910156 14 10.910156 14 C 10.910156 14 12.289062 19.25 8.511719 19.25 L 1.816406 19.25 L 1.816406 1.75 L 10.453125 1.75 C 10.738281 1.101562 11.144531 0.507812 11.652344 0 L 0 0 L 0 21 L 9.261719 21 C 12.136719 21 18.183594 14.679688 18.183594 12.585938 L 18.183594 9.1875 C 17.601562 9.417969 16.988281 9.558594 16.363281 9.601562 Z M 4.546875 6.125 L 10.453125 6.125 C 10.332031 5.839844 10.238281 5.546875 10.164062 5.25 L 4.546875 5.25 Z M 20 3.9375 C 20 6.113281 18.167969 7.875 15.910156 7.875 C 13.648438 7.875 11.816406 6.113281 11.816406 3.9375 C 11.816406 1.761719 13.648438 0 15.910156 0 C 18.167969 0 20 1.761719 20 3.9375 Z M 18.183594 3.5 L 16.363281 3.5 L 16.363281 1.75 L 15.453125 1.75 L 15.453125 3.5 L 13.636719 3.5 L 13.636719 4.375 L 15.453125 4.375 L 15.453125 6.125 L 16.363281 6.125 L 16.363281 4.375 L 18.183594 4.375 Z M 18.183594 3.5"></path></svg>