<?xml version="1.0" encoding="UTF-8"?>
<svg viewBox="0 0 20 20" version="1.1" xmlns="http://www.w3.org/2000/svg"><path d="M 13.453125 1.667969 L 18.332031 6.546875 L 18.332031 13.453125 L 13.453125 18.332031 L 6.546875 18.332031 L 1.667969 13.453125 L 1.667969 6.546875 L 6.546875 1.667969 Z M 14.140625 0 L 5.859375 0 L 0 5.859375 L 0 14.140625 L 5.859375 20 L 14.140625 20 L 20 14.140625 L 20 5.859375 Z M 8.910156 6.273438 C 8.867188 5.949219 8.96875 5.625 9.183594 5.382812 C 9.398438 5.140625 9.707031 5 10.03125 5 C 10.339844 5 10.632812 5.132812 10.835938 5.363281 C 11.042969 5.59375 11.136719 5.902344 11.097656 6.210938 L 10.46875 11.25 C 10.4375 11.484375 10.238281 11.664062 10 11.664062 C 9.761719 11.664062 9.5625 11.484375 9.53125 11.25 Z M 10 15.207031 C 9.425781 15.207031 8.957031 14.742188 8.957031 14.167969 C 8.957031 13.589844 9.425781 13.125 10 13.125 C 10.574219 13.125 11.042969 13.589844 11.042969 14.167969 C 11.042969 14.742188 10.574219 15.207031 10 15.207031 Z M 10 15.207031"></path></svg>