<?xml version="1.0" encoding="UTF-8"?>
<svg viewBox="0 0 20 20" version="1.1" xmlns="http://www.w3.org/2000/svg"><path d="M6.777,12.952a4.092,4.092,0,0,1-.955-2.622A4.167,4.167,0,0,1,9.987,6.165a4.091,4.091,0,0,1,2.622.954l1.58-1.58A9.119,9.119,0,0,0,10,4.5C4.9,4.5,1.645,8.96.964,9.984a16.893,16.893,0,0,0,4.259,4.522l1.554-1.554ZM12.02,7.709A3.27,3.27,0,0,0,9.987,7,3.334,3.334,0,0,0,6.655,10.33a3.273,3.273,0,0,0,.711,2.032Zm6.3-5.12L2.247,18.66l-.59-.589,2.956-2.956A16.366,16.366,0,0,1-.009,9.977C2.005,6.559,5.775,3.666,10,3.666a10.249,10.249,0,0,1,4.817,1.25L17.729,2l.589.589ZM16.264,5.82l-.611.611a14,14,0,0,1,3.383,3.56c-.616,1.085-3.787,6.169-9.04,6.169A7.648,7.648,0,0,1,6.7,15.38L6.081,16A8.7,8.7,0,0,0,10,16.994c4.393,0,8.129-3.337,10-7.027A13.509,13.509,0,0,0,16.264,5.82Zm-2.945,4.51a3.319,3.319,0,0,0-.264-1.3l.611-.611a4.108,4.108,0,0,1,.486,1.913A4.167,4.167,0,0,1,9.987,14.5a4.117,4.117,0,0,1-1.912-.486l.611-.612a3.331,3.331,0,0,0,4.632-3.067Z"></path></svg>