<?xml version="1.0" encoding="UTF-8"?>
<svg viewBox="0 0 20 20" version="1.1" xmlns="http://www.w3.org/2000/svg"><path d="M10,17.328c-4.219,0-7.985-3.508-10-7.017C2.014,6.893,5.784,4,10,4c4.278,0,8.026,2.876,10,6.3-1.867,3.69-5.6,7.027-10,7.027ZM.973,10.318C1.675,11.426,5.153,16.5,10,16.5c5.252,0,8.424-5.084,9.039-6.169-.643-1-3.837-5.494-9.039-5.494C4.91,4.833,1.654,9.294.973,10.318ZM10,6.5a4.165,4.165,0,1,1-4.165,4.165A4.167,4.167,0,0,1,10,6.5Zm0,.833a3.332,3.332,0,1,1-3.332,3.332A3.333,3.333,0,0,1,10,7.332Z"></path></svg>