<?xml version="1.0" encoding="UTF-8"?>
<svg viewBox="0 0 20 20" version="1.1" xmlns="http://www.w3.org/2000/svg"><path d="M 10 0 C 4.476562 0 0 4.476562 0 10 C 0 15.523438 4.476562 20 10 20 C 15.523438 20 20 15.523438 20 10 C 20 4.476562 15.523438 0 10 0 Z M 8.304688 13.34375 C 8.777344 11.851562 9.667969 10.070312 9.824219 9.613281 C 10.050781 8.960938 9.648438 8.667969 8.371094 9.789062 L 8.089844 9.253906 C 9.546875 7.671875 12.535156 7.316406 11.519531 9.765625 C 10.882812 11.292969 10.425781 12.328125 10.167969 13.125 C 9.789062 14.285156 10.746094 13.8125 11.683594 12.949219 C 11.808594 13.15625 11.851562 13.222656 11.980469 13.464844 C 9.898438 15.445312 7.585938 15.621094 8.304688 13.34375 Z M 12.257812 6.535156 C 11.839844 6.914062 11.199219 6.90625 10.789062 6.515625 C 10.617188 6.320312 10.53125 6.058594 10.558594 5.792969 C 10.582031 5.53125 10.714844 5.292969 10.925781 5.132812 C 11.34375 4.753906 11.984375 4.761719 12.394531 5.148438 C 12.566406 5.347656 12.652344 5.609375 12.625 5.871094 C 12.601562 6.132812 12.46875 6.375 12.257812 6.535156 Z M 12.257812 6.535156"></path></svg>