<?xml version="1.0" encoding="UTF-8"?>
<svg xmlns="http://www.w3.org/2000/svg" viewBox="0 0 20 19.999">
<path class="a" d="M11.436,15.545,8.427,18.552a4.937,4.937,0,0,1-6.982-6.981L5.5,7.517A4.907,4.907,0,0,1,13.388,8.79l-1.327,1.327A3.191,3.191,0,0,0,6.725,8.739v0L2.668,12.795A3.206,3.206,0,0,0,7.2,17.328l2.021-2.02A6.235,6.235,0,0,0,11.436,15.545Zm.134-14.1L8.592,4.427a6.308,6.308,0,0,1,2.211.236L12.8,2.672A3.206,3.206,0,1,1,17.33,7.206L13.3,11.232l0,0a3.214,3.214,0,0,1-4.532,0,3.139,3.139,0,0,1-.8-1.369l-.07.057L6.638,11.182a4.9,4.9,0,0,0,7.888,1.273l4.027-4.026A4.938,4.938,0,0,0,11.57,1.447Z"/>
</svg>