<?xml version="1.0" encoding="UTF-8"?>
<svg viewBox="0 0 14 20" version="1.1" xmlns="http://www.w3.org/2000/svg"><path d="M 6.789062 1.667969 C 8.574219 1.644531 10.0625 3 10.183594 4.75 C 10.183594 6.460938 8.726562 8.875 6.789062 11.886719 C 4.847656 8.875 3.394531 6.460938 3.394531 4.75 C 3.511719 3 5.003906 1.644531 6.789062 1.667969 Z M 6.789062 0 C 4.066406 -0.0195312 1.816406 2.078125 1.695312 4.75 C 1.695312 7.375 3.90625 10.5 6.789062 15 C 9.671875 10.507812 11.878906 7.375 11.878906 4.75 C 11.757812 2.078125 9.507812 -0.0195312 6.789062 0 Z M 6.789062 6.667969 C 5.851562 6.664062 5.089844 5.917969 5.09375 5 C 5.09375 4.078125 5.851562 3.332031 6.789062 3.332031 C 7.726562 3.332031 8.484375 4.078125 8.484375 5 C 8.484375 5.921875 7.726562 6.667969 6.789062 6.667969 Z M 13.574219 16.667969 C 13.574219 18.507812 10.535156 20 6.789062 20 C 3.039062 20 0 18.507812 0 16.667969 C 0 15.332031 1.601562 14.183594 3.910156 13.648438 L 4.886719 15.171875 C 4.550781 15.21875 4.21875 15.285156 3.890625 15.371094 C 1.078125 16.164062 0.960938 17.128906 3.871094 17.957031 C 5.78125 18.460938 7.792969 18.460938 9.703125 17.957031 C 12.777344 17.082031 12.390625 16.058594 9.476562 15.316406 C 9.222656 15.253906 8.949219 15.21875 8.683594 15.175781 L 9.664062 13.652344 C 11.972656 14.183594 13.578125 15.332031 13.578125 16.667969 Z M 13.574219 16.667969"></path></svg>