<?xml version="1.0" encoding="UTF-8"?>
<svg viewBox="0 0 20 20" version="1.1" xmlns="http://www.w3.org/2000/svg"><path d="M 19.683594 7.511719 C 20.910156 12.21875 18.582031 17.128906 14.160156 19.15625 C 9.738281 21.183594 4.496094 19.746094 1.730469 15.746094 C -1.035156 11.742188 -0.53125 6.332031 2.925781 2.910156 C 6.382812 -0.511719 11.800781 -0.957031 15.773438 1.851562 L 17.199219 0 L 18.8125 5.011719 L 13.332031 5.011719 L 14.753906 3.171875 C 11.417969 0.871094 6.90625 1.316406 4.089844 4.226562 C 1.269531 7.136719 0.964844 11.660156 3.371094 14.917969 C 5.777344 18.179688 10.1875 19.222656 13.796875 17.386719 C 17.410156 15.550781 19.167969 11.375 17.953125 7.511719 Z M 13.332031 14.167969 L 6.667969 14.167969 L 6.667969 9.167969 L 7.5 9.167969 L 7.5 7.5 C 7.5 6.121094 8.621094 5 10 5 C 11.378906 5 12.5 6.121094 12.5 7.5 L 12.5 9.167969 L 13.332031 9.167969 Z M 9.167969 7.5 L 9.167969 9.167969 L 10.835938 9.167969 L 10.835938 7.5 C 10.835938 7.039062 10.460938 6.667969 10 6.667969 C 9.539062 6.667969 9.167969 7.039062 9.167969 7.5 Z M 9.167969 7.5"></path></svg>