<?xml version="1.0" encoding="UTF-8"?>
<svg xmlns="http://www.w3.org/2000/svg" xmlns:xlink="http://www.w3.org/1999/xlink" viewBox="0 0 20 24" version="1.1">
<path style=" stroke:none;fill-rule:nonzero;fill:currentColor;fill-opacity:1;" d="M 9.363281 2 C 13.519531 2 12 8 12 8 C 12 8 18 6.351562 18 10.457031 L 18 22 L 2 22 L 2 2 Z M 10.1875 0 L 0 0 L 0 24 L 20 24 L 20 9.613281 C 20 7.222656 13.351562 0 10.1875 0 Z M 15 13 L 12 13 L 12 12 L 15 12 Z M 15 15 L 12 15 L 12 16 L 15 16 Z M 15 18 L 5 18 L 5 19 L 15 19 Z M 10 12 L 5 12 L 5 16 L 10 16 Z M 10 12 "/>
</svg>
