<?xml version="1.0" encoding="UTF-8"?>
<svg viewBox="0 0 20 20" version="1.1" xmlns="http://www.w3.org/2000/svg"><path d="M 14.027344 0 C 12.648438 0 11.527344 1.121094 11.527344 2.5 C 11.527344 3.878906 12.648438 5 14.027344 5 C 15.410156 5 16.527344 3.878906 16.527344 2.5 C 16.527344 1.121094 15.410156 0 14.027344 0 M 14.027344 0.832031 C 14.949219 0.832031 15.695312 1.578125 15.695312 2.5 C 15.695312 3.421875 14.949219 4.167969 14.027344 4.167969 C 13.109375 4.167969 12.363281 3.421875 12.363281 2.5 C 12.363281 1.578125 13.109375 0.835938 14.027344 0.832031 M 5.972656 0 C 4.589844 0 3.472656 1.121094 3.472656 2.5 C 3.472656 3.878906 4.589844 5 5.972656 5 C 7.351562 5 8.472656 3.878906 8.472656 2.5 C 8.472656 1.121094 7.351562 0 5.972656 0 M 5.972656 0.832031 C 6.890625 0.832031 7.636719 1.578125 7.636719 2.5 C 7.636719 3.421875 6.890625 4.167969 5.972656 4.167969 C 5.050781 4.167969 4.304688 3.421875 4.304688 2.5 C 4.304688 1.578125 5.050781 0.835938 5.972656 0.832031 M 14.011719 13.191406 C 14.589844 13.191406 15.0625 13.648438 15.074219 14.226562 C 15.117188 14.84375 15.21875 16.0625 15.308594 17.136719 L 15.433594 18.714844 C 15.425781 18.957031 15.617188 19.15625 15.859375 19.167969 C 16.195312 19.167969 16.234375 18.8125 16.242188 18.703125 L 16.636719 9.164062 C 16.644531 8.976562 16.773438 8.820312 16.957031 8.777344 C 17.136719 8.734375 17.324219 8.816406 17.417969 8.980469 L 18.792969 11.460938 C 18.835938 11.539062 18.929688 11.574219 19.015625 11.554688 C 19.101562 11.53125 19.164062 11.453125 19.167969 11.363281 L 17.832031 6.632812 C 17.753906 6.355469 17.5 6.160156 17.207031 6.160156 L 2.789062 6.160156 C 2.5 6.160156 2.246094 6.355469 2.164062 6.632812 L 0.839844 11.308594 C 0.816406 11.40625 0.867188 11.507812 0.957031 11.546875 C 1.050781 11.582031 1.160156 11.546875 1.210938 11.460938 L 2.585938 8.980469 C 2.675781 8.816406 2.863281 8.734375 3.046875 8.777344 C 3.226562 8.820312 3.359375 8.976562 3.367188 9.164062 L 3.75 18.703125 C 3.742188 18.820312 3.777344 18.933594 3.855469 19.023438 C 3.933594 19.109375 4.042969 19.160156 4.160156 19.167969 C 4.402344 19.160156 4.59375 18.957031 4.589844 18.714844 L 4.722656 17.097656 C 4.8125 16.035156 4.914062 14.839844 4.953125 14.222656 C 4.96875 13.648438 5.441406 13.1875 6.019531 13.1875 C 6.589844 13.203125 7.050781 13.652344 7.078125 14.222656 C 7.117188 14.835938 7.21875 16.03125 7.308594 17.097656 L 7.441406 18.714844 C 7.433594 18.953125 7.617188 19.15625 7.859375 19.167969 C 8.175781 19.167969 8.222656 18.84375 8.234375 18.703125 C 8.332031 16.238281 8.757812 8.460938 8.761719 8.382812 C 8.773438 8.160156 8.957031 7.988281 9.175781 7.988281 L 10.8125 7.988281 C 11.03125 7.988281 11.214844 8.164062 11.226562 8.382812 C 11.226562 8.460938 11.640625 16.238281 11.742188 18.703125 C 11.726562 18.863281 11.804688 19.015625 11.9375 19.101562 C 12.074219 19.1875 12.246094 19.1875 12.382812 19.105469 C 12.519531 19.027344 12.597656 18.875 12.589844 18.714844 L 12.726562 17.0625 C 12.8125 16.007812 12.914062 14.832031 12.953125 14.226562 C 12.980469 13.65625 13.441406 13.203125 14.011719 13.1875 M 15.863281 20 C 15.1875 19.992188 14.636719 19.453125 14.613281 18.777344 C 14.585938 18.402344 14.539062 17.828125 14.488281 17.203125 C 14.398438 16.125 14.296875 14.902344 14.253906 14.28125 C 14.242188 14.089844 14.128906 14.023438 14.019531 14.023438 C 13.890625 14.039062 13.792969 14.152344 13.796875 14.28125 C 13.753906 14.890625 13.65625 16.074219 13.566406 17.132812 C 13.511719 17.78125 13.460938 18.382812 13.429688 18.78125 C 13.417969 19.472656 12.847656 20.027344 12.152344 20.015625 C 11.460938 20.003906 10.90625 19.433594 10.917969 18.738281 C 10.820312 16.601562 10.5 10.445312 10.417969 8.824219 L 9.570312 8.824219 C 9.484375 10.449219 9.152344 16.601562 9.0625 18.738281 C 9.074219 19.066406 8.953125 19.386719 8.726562 19.625 C 8.5 19.859375 8.1875 19.996094 7.859375 20 C 7.183594 19.996094 6.628906 19.457031 6.609375 18.777344 L 6.476562 17.167969 C 6.386719 16.097656 6.285156 14.898438 6.246094 14.28125 C 6.246094 14.152344 6.148438 14.039062 6.019531 14.023438 C 5.914062 14.023438 5.796875 14.089844 5.785156 14.28125 C 5.746094 14.898438 5.644531 16.101562 5.554688 17.167969 L 5.421875 18.78125 C 5.394531 19.457031 4.839844 19.996094 4.164062 20 C 3.832031 19.996094 3.515625 19.863281 3.28125 19.628906 C 3.046875 19.390625 2.917969 19.070312 2.921875 18.738281 L 2.589844 10.683594 L 1.9375 11.863281 C 1.675781 12.324219 1.113281 12.515625 0.625 12.3125 C 0.246094 12.148438 -0.00390625 11.777344 0 11.363281 C 0 11.265625 0.0117188 11.171875 0.0390625 11.078125 L 1.363281 6.40625 C 1.546875 5.769531 2.128906 5.328125 2.789062 5.328125 L 17.207031 5.328125 C 17.871094 5.328125 18.453125 5.769531 18.636719 6.40625 L 19.960938 11.082031 C 20.101562 11.582031 19.847656 12.113281 19.367188 12.3125 L 19.335938 12.328125 C 18.851562 12.503906 18.3125 12.308594 18.058594 11.859375 L 17.410156 10.683594 L 17.078125 18.738281 C 17.089844 19.066406 16.964844 19.386719 16.738281 19.625 C 16.507812 19.863281 16.191406 19.996094 15.863281 20"></path></svg>