<?xml version="1.0" encoding="UTF-8"?>
<svg viewBox="0 0 20 20" version="1.1" xmlns="http://www.w3.org/2000/svg"><path d="M 11.25 1.667969 C 6.84375 1.667969 3.210938 4.929688 2.601562 9.167969 L 0 9.167969 L 3.332031 14.097656 L 6.667969 9.167969 L 4.292969 9.167969 C 4.886719 5.855469 7.773438 3.332031 11.25 3.332031 C 15.15625 3.332031 18.332031 6.511719 18.332031 10.417969 C 18.332031 14.324219 15.15625 17.5 11.25 17.5 C 8.738281 17.5 6.53125 16.179688 5.273438 14.203125 L 4.273438 15.683594 C 5.871094 17.796875 8.398438 19.167969 11.25 19.167969 C 16.082031 19.167969 20 15.25 20 10.417969 C 20 5.585938 16.082031 1.667969 11.25 1.667969 Z M 11.25 1.667969"></path></svg>