<?xml version="1.0" encoding="UTF-8"?>
<svg xmlns="http://www.w3.org/2000/svg" xmlns:xlink="http://www.w3.org/1999/xlink" viewBox="0 0 20 20" version="1.1">
<g id="surface1">
<path style=" stroke:none;fill-rule:nonzero;fill:currentColor;fill-opacity:1;" d="M 13.453125 1.667969 L 18.328125 6.546875 L 18.328125 13.453125 L 13.453125 18.332031 L 6.546875 18.332031 L 1.671875 13.453125 L 1.671875 6.546875 L 6.546875 1.667969 Z M 14.140625 0 L 5.859375 0 L 0 5.859375 L 0 14.140625 L 5.859375 20 L 14.140625 20 L 20 14.140625 L 20 5.859375 Z M 14.917969 9.722656 C 14.8125 9.996094 13.507812 12.960938 13.167969 13.710938 C 12.808594 14.664062 11.894531 15.289062 10.875 15.277344 L 8.691406 15.277344 C 8.117188 15.324219 7.550781 15.109375 7.15625 14.6875 C 6.761719 14.265625 6.582031 13.6875 6.667969 13.113281 L 6.667969 7.109375 C 6.652344 6.910156 6.75 6.71875 6.917969 6.609375 C 7.085938 6.5 7.300781 6.496094 7.476562 6.589844 C 7.652344 6.6875 7.761719 6.871094 7.761719 7.074219 L 7.761719 9.703125 C 7.761719 9.921875 8.160156 9.921875 8.160156 9.703125 L 8.160156 5.472656 C 8.175781 5.144531 8.445312 4.886719 8.773438 4.886719 C 9.101562 4.886719 9.371094 5.144531 9.386719 5.472656 L 9.386719 9.472656 C 9.386719 9.691406 9.761719 9.683594 9.761719 9.472656 L 9.761719 4.773438 C 9.777344 4.449219 10.042969 4.195312 10.371094 4.195312 C 10.695312 4.195312 10.960938 4.449219 10.976562 4.773438 L 10.976562 9.515625 C 10.976562 9.730469 11.359375 9.734375 11.359375 9.515625 L 11.359375 5.535156 C 11.359375 4.785156 12.6875 4.757812 12.6875 5.535156 L 12.6875 10.046875 C 12.6875 10.324219 12.960938 10.367188 13.0625 10.15625 C 13.167969 9.945312 13.5625 9.0625 13.574219 9.050781 C 13.761719 8.679688 14.210938 8.527344 14.585938 8.710938 C 14.957031 8.898438 15.109375 9.351562 14.921875 9.722656 Z M 14.917969 9.722656 "/>
</g>
</svg>
