<?xml version="1.0" encoding="UTF-8"?>
<svg viewBox="0 0 20 20" version="1.1" xmlns="http://www.w3.org/2000/svg"><path d="M 4.167969 7.5 C 5.546875 7.5 6.667969 8.621094 6.667969 10 C 6.667969 11.378906 5.546875 12.5 4.167969 12.5 C 2.785156 12.5 1.667969 11.378906 1.667969 10 C 1.667969 8.621094 2.785156 7.5 4.167969 7.5 Z M 4.167969 5.832031 C 1.867188 5.832031 0 7.699219 0 10 C 0 12.300781 1.867188 14.167969 4.167969 14.167969 C 6.46875 14.167969 8.332031 12.300781 8.332031 10 C 8.332031 7.699219 6.46875 5.832031 4.167969 5.832031 Z M 16.667969 13.332031 C 15.734375 13.335938 14.847656 13.726562 14.222656 14.417969 L 9.648438 11.976562 C 9.457031 12.503906 9.191406 12.996094 8.859375 13.449219 L 13.433594 15.886719 C 13.105469 17.265625 13.683594 18.703125 14.878906 19.464844 C 16.074219 20.230469 17.621094 20.152344 18.734375 19.273438 C 19.847656 18.394531 20.28125 16.90625 19.8125 15.566406 C 19.347656 14.226562 18.085938 13.332031 16.667969 13.332031 Z M 16.667969 18.332031 C 15.746094 18.332031 15 17.585938 15 16.667969 C 15 15.746094 15.746094 15 16.667969 15 C 17.585938 15 18.332031 15.746094 18.332031 16.667969 C 18.332031 17.585938 17.585938 18.332031 16.667969 18.332031 Z M 16.667969 0 C 14.824219 0 13.332031 1.492188 13.332031 3.332031 C 13.335938 3.597656 13.371094 3.859375 13.433594 4.113281 L 8.859375 6.550781 C 9.191406 7 9.457031 7.496094 9.648438 8.023438 L 14.222656 5.582031 C 15.253906 6.707031 16.914062 6.984375 18.257812 6.257812 C 19.597656 5.53125 20.273438 3.988281 19.898438 2.507812 C 19.523438 1.03125 18.191406 0 16.667969 0 Z M 16.667969 5 C 15.746094 5 15 4.253906 15 3.332031 C 15 2.414062 15.746094 1.667969 16.667969 1.667969 C 17.585938 1.667969 18.332031 2.414062 18.332031 3.332031 C 18.332031 4.253906 17.585938 5 16.667969 5 Z M 16.667969 5"></path></svg>