<?xml version="1.0" encoding="UTF-8"?>
<svg viewBox="0 0 20 20" version="1.1" xmlns="http://www.w3.org/2000/svg"><path d="M 14.695312 17.304688 C 14.636719 17.304688 14.578125 17.289062 14.523438 17.257812 L 10.84375 15.238281 C 10.585938 15.09375 10.292969 15.019531 10 15.019531 C 9.707031 15.019531 9.414062 15.09375 9.15625 15.238281 L 5.476562 17.257812 C 5.421875 17.289062 5.363281 17.304688 5.304688 17.304688 C 5.203125 17.304688 5.097656 17.253906 5.027344 17.164062 C 4.957031 17.082031 4.933594 16.980469 4.957031 16.867188 L 5.730469 12.824219 C 5.851562 12.203125 5.640625 11.550781 5.183594 11.125 L 2.195312 8.324219 C 2.046875 8.183594 2.078125 8.011719 2.097656 7.945312 C 2.121094 7.878906 2.191406 7.71875 2.394531 7.691406 L 6.507812 7.175781 C 7.113281 7.101562 7.632812 6.71875 7.898438 6.15625 L 9.679688 2.371094 C 9.765625 2.183594 9.933594 2.164062 10 2.164062 C 10.066406 2.164062 10.234375 2.183594 10.320312 2.371094 L 12.101562 6.15625 C 12.367188 6.71875 12.886719 7.101562 13.492188 7.175781 L 17.605469 7.691406 C 17.808594 7.71875 17.878906 7.878906 17.902344 7.945312 C 17.921875 8.011719 17.953125 8.183594 17.804688 8.324219 L 14.816406 11.125 C 14.359375 11.550781 14.148438 12.203125 14.269531 12.824219 L 15.042969 16.867188 C 15.066406 16.980469 15.042969 17.082031 14.972656 17.164062 C 14.902344 17.253906 14.796875 17.304688 14.695312 17.304688 Z M 14.695312 17.304688"></path>,<path d="M 10 3.371094 L 8.542969 6.472656 C 8.171875 7.261719 7.441406 7.796875 6.59375 7.902344 L 3.25 8.320312 L 5.667969 10.585938 C 6.304688 11.183594 6.597656 12.09375 6.433594 12.964844 L 5.800781 16.25 L 8.816406 14.59375 C 9.179688 14.394531 9.589844 14.289062 10 14.289062 C 10.410156 14.289062 10.820312 14.394531 11.183594 14.59375 L 14.199219 16.25 L 13.566406 12.964844 C 13.402344 12.09375 13.695312 11.183594 14.332031 10.585938 L 16.75 8.320312 L 13.40625 7.902344 C 12.558594 7.796875 11.828125 7.261719 11.457031 6.472656 L 10 3.371094 M 10 1.433594 C 10.386719 1.433594 10.769531 1.640625 10.964844 2.050781 L 12.746094 5.839844 C 12.90625 6.175781 13.21875 6.40625 13.582031 6.453125 L 17.691406 6.96875 C 18.601562 7.082031 18.960938 8.230469 18.285156 8.863281 L 15.296875 11.664062 C 15.023438 11.921875 14.898438 12.308594 14.96875 12.683594 L 15.746094 16.726562 C 15.882812 17.445312 15.324219 18.035156 14.695312 18.035156 C 14.527344 18.035156 14.351562 17.996094 14.1875 17.902344 L 10.507812 15.878906 C 10.347656 15.792969 10.175781 15.75 10 15.75 C 9.824219 15.75 9.652344 15.792969 9.492188 15.878906 L 5.8125 17.902344 C 5.648438 17.996094 5.472656 18.035156 5.304688 18.035156 C 4.671875 18.035156 4.117188 17.445312 4.253906 16.726562 L 5.03125 12.683594 C 5.101562 12.308594 4.976562 11.921875 4.703125 11.664062 L 1.714844 8.863281 C 1.039062 8.230469 1.398438 7.082031 2.308594 6.96875 L 6.417969 6.453125 C 6.78125 6.40625 7.09375 6.175781 7.253906 5.839844 L 9.035156 2.050781 C 9.230469 1.640625 9.613281 1.433594 10 1.433594 Z M 10 1.433594"></path></svg>