<?xml version="1.0" encoding="UTF-8"?>
<svg viewBox="0 0 20 20" version="1.1" xmlns="http://www.w3.org/2000/svg"><path d="M 10 1.667969 C 14.601562 1.667969 18.332031 5.398438 18.332031 10 C 18.332031 14.601562 14.601562 18.332031 10 18.332031 C 5.398438 18.332031 1.667969 14.601562 1.667969 10 C 1.671875 5.398438 5.398438 1.671875 10 1.667969 Z M 10 0 C 4.476562 0 0 4.476562 0 10 C 0 15.523438 4.476562 20 10 20 C 15.523438 20 20 15.523438 20 10 C 20 4.476562 15.523438 0 10 0 Z M 8.472656 8.070312 L 5 8.550781 L 7.527344 10.980469 L 6.910156 14.429688 L 10 12.777344 L 13.089844 14.429688 L 12.472656 10.980469 L 15 8.550781 L 11.527344 8.070312 L 10 4.917969 Z M 8.472656 8.070312"></path></svg>