<?xml version="1.0" encoding="UTF-8"?>
<svg xmlns="http://www.w3.org/2000/svg" xmlns:xlink="http://www.w3.org/1999/xlink" viewBox="0 0 19 18" version="1.1">
<path style=" stroke:none;fill-rule:nonzero;fill:currentColor;fill-opacity:1;" d="M 19 1.636719 C 18.707031 4.996094 16.777344 8.257812 13.558594 9.359375 C 13.796875 8.90625 14.035156 8.421875 14.257812 7.898438 C 16.125 6.835938 17.425781 4.953125 17.792969 2.78125 L 15.664062 2.78125 C 15.710938 2.414062 15.742188 2.027344 15.773438 1.636719 Z M 0 1.636719 C 0.292969 4.996094 2.222656 8.257812 5.441406 9.359375 C 5.203125 8.90625 4.964844 8.421875 4.742188 7.898438 C 2.875 6.835938 1.574219 4.953125 1.207031 2.78125 L 3.335938 2.78125 C 3.289062 2.414062 3.257812 2.027344 3.226562 1.636719 Z M 13.394531 1.636719 C 13.152344 4.460938 12.234375 7.179688 10.726562 9.546875 C 10.265625 10.320312 9.859375 11.128906 9.503906 11.960938 C 9.152344 11.128906 8.742188 10.320312 8.277344 9.542969 C 6.765625 7.179688 5.847656 4.460938 5.605469 1.636719 Z M 15.042969 0 L 3.957031 0 C 3.957031 8.019531 7.996094 10.679688 8.390625 13.910156 L 10.613281 13.910156 C 11.007812 10.679688 15.042969 8.019531 15.042969 0 Z M 9.5 9.449219 C 8.5625 7.242188 8.0625 4.863281 8.03125 2.453125 L 6.933594 2.453125 C 7.230469 5.003906 8.40625 8.199219 9.5 9.449219 Z M 10.636719 14.726562 L 8.371094 14.726562 C 8.210938 15.699219 7.871094 16.871094 6.335938 16.871094 L 6.335938 18 L 12.667969 18 L 12.667969 16.871094 C 11.082031 16.871094 10.789062 15.699219 10.636719 14.726562 Z M 10.636719 14.726562 "/>
</svg>
