<?xml version="1.0" encoding="UTF-8"?>
<svg xmlns="http://www.w3.org/2000/svg" xmlns:xlink="http://www.w3.org/1999/xlink" viewBox="0 0 13 19" version="1.1">
<g id="surface1">
<path style=" stroke:none;fill-rule:nonzero;fill:currentColor;fill-opacity:1;" d="M 11.320312 1.582031 C 11.132812 4.679688 9.996094 7.648438 8.050781 10.105469 C 7.632812 10.675781 7.246094 11.265625 6.894531 11.875 L 6.109375 11.875 C 5.753906 11.265625 5.367188 10.675781 4.949219 10.105469 C 3.003906 7.648438 1.867188 4.679688 1.679688 1.582031 Z M 13 0 L 0 0 C 0 8.296875 4.113281 10.726562 5.058594 13.457031 L 7.941406 13.457031 C 8.886719 10.726562 13 8.296875 13 0 Z M 7.792969 15.042969 L 5.207031 15.042969 C 5.117188 16.140625 4.511719 17.773438 2.4375 17.773438 L 2.4375 19 L 10.5625 19 L 10.5625 17.773438 C 8.429688 17.773438 7.882812 16.140625 7.792969 15.042969 Z M 3.25 2.375 C 3.511719 5.265625 4.667969 8.011719 6.566406 10.25 C 5.527344 7.738281 4.925781 5.078125 4.792969 2.375 Z M 3.25 2.375 "/>
</g>
</svg>
