<?xml version="1.0" encoding="UTF-8"?>
<svg xmlns="http://www.w3.org/2000/svg" xmlns:xlink="http://www.w3.org/1999/xlink" viewBox="0 0 19 18" version="1.1">
<path style=" stroke:none;fill-rule:nonzero;fill:currentColor;fill-opacity:1;" d="M 4.742188 7.898438 C 4.96875 8.421875 5.207031 8.90625 5.441406 9.359375 C 2.222656 8.257812 0.292969 4.996094 0 1.636719 L 3.226562 1.636719 C 3.257812 2.03125 3.289062 2.417969 3.335938 2.78125 L 1.207031 2.78125 C 1.574219 4.953125 2.875 6.835938 4.742188 7.898438 Z M 12.667969 16.871094 L 12.667969 18 L 6.332031 18 L 6.332031 16.871094 C 7.871094 16.871094 8.207031 15.699219 8.367188 14.726562 L 10.636719 14.726562 C 10.789062 15.699219 11.082031 16.871094 12.667969 16.871094 Z M 19 1.636719 C 18.707031 4.996094 16.777344 8.257812 13.558594 9.359375 C 13.796875 8.90625 14.035156 8.421875 14.257812 7.898438 C 16.125 6.835938 17.425781 4.953125 17.792969 2.78125 L 15.664062 2.78125 C 15.710938 2.414062 15.742188 2.027344 15.773438 1.636719 Z M 13.394531 1.636719 C 13.152344 4.460938 12.234375 7.179688 10.726562 9.546875 C 10.265625 10.320312 9.859375 11.128906 9.503906 11.960938 C 9.152344 11.128906 8.742188 10.320312 8.277344 9.542969 C 6.765625 7.179688 5.847656 4.460938 5.605469 1.636719 Z M 15.042969 0 L 3.957031 0 C 3.957031 8.019531 7.996094 10.679688 8.390625 13.910156 L 10.613281 13.910156 C 11.007812 10.679688 15.042969 8.019531 15.042969 0 Z M 10.292969 7.363281 L 9.5 7.363281 L 9.5 4.910156 L 7.917969 4.910156 L 7.917969 4.359375 C 8.703125 4.378906 9.382812 4.078125 9.5 3.273438 L 10.292969 3.273438 Z M 17.519531 7.492188 C 17.753906 8.394531 18.230469 9.210938 18.890625 9.851562 L 18.0625 10.390625 C 17.445312 9.835938 16.996094 9.113281 16.765625 8.304688 C 17.035156 8.050781 17.285156 7.777344 17.519531 7.492188 Z M 17.753906 11.316406 L 16.925781 11.851562 C 17.515625 12.40625 17.945312 13.117188 18.171875 13.910156 L 19 13.375 C 18.8125 12.566406 18.375 11.84375 17.753906 11.316406 Z M 15.910156 9.023438 C 15.644531 9.21875 15.367188 9.398438 15.082031 9.558594 C 15.304688 10.371094 15.75 11.09375 16.363281 11.648438 L 17.191406 11.109375 C 16.609375 10.53125 16.171875 9.816406 15.914062 9.023438 Z M 2.234375 8.304688 C 2.003906 9.113281 1.554688 9.835938 0.9375 10.390625 L 0.109375 9.851562 C 0.769531 9.214844 1.246094 8.398438 1.480469 7.492188 C 1.714844 7.777344 1.964844 8.050781 2.234375 8.304688 Z M 0 13.375 L 0.828125 13.910156 C 1.054688 13.117188 1.484375 12.40625 2.074219 11.851562 L 1.246094 11.316406 C 0.625 11.84375 0.1875 12.566406 0 13.375 Z M 1.808594 11.113281 L 2.636719 11.652344 C 3.25 11.097656 3.695312 10.371094 3.917969 9.5625 C 3.632812 9.402344 3.355469 9.222656 3.085938 9.027344 C 2.828125 9.816406 2.390625 10.53125 1.808594 11.113281 Z M 1.808594 11.113281 "/>
</svg>
