<?xml version="1.0" encoding="UTF-8"?>
<svg viewBox="0 0 16 20" version="1.1" xmlns="http://www.w3.org/2000/svg"><path d="M 13.332031 20 L 2.667969 20 C 1.167969 19.972656 -0.0234375 18.75 0 17.273438 L 0 2.726562 C -0.0234375 1.246094 1.167969 0.0273438 2.667969 0 L 9.992188 0 C 10.871094 0.0078125 11.691406 0.445312 12.179688 1.171875 L 15.519531 6.082031 C 15.832031 6.539062 16 7.082031 16 7.636719 L 16 17.273438 C 16.023438 18.75 14.832031 19.972656 13.332031 20 Z M 11.238281 9.109375 C 11.65625 9.082031 12.066406 9.246094 12.351562 9.554688 C 12.628906 9.9375 12.765625 10.402344 12.730469 10.871094 L 12.730469 11.453125 C 11.996094 11.457031 11.265625 11.535156 10.550781 11.683594 C 10.046875 11.789062 9.5625 11.960938 9.109375 12.203125 C 8.785156 12.375 8.507812 12.625 8.308594 12.929688 C 8.152344 13.1875 8.066406 13.480469 8.0625 13.78125 C 8.058594 14.082031 8.113281 14.382812 8.230469 14.660156 C 8.335938 14.898438 8.492188 15.105469 8.6875 15.277344 C 8.886719 15.441406 9.113281 15.566406 9.363281 15.640625 C 9.632812 15.722656 9.910156 15.765625 10.191406 15.761719 C 10.457031 15.765625 10.722656 15.738281 10.980469 15.683594 C 11.210938 15.636719 11.433594 15.5625 11.648438 15.464844 C 11.859375 15.367188 12.058594 15.246094 12.246094 15.109375 C 12.449219 14.957031 12.640625 14.796875 12.828125 14.628906 L 12.976562 15.332031 C 13 15.433594 13.058594 15.519531 13.140625 15.582031 C 13.234375 15.628906 13.335938 15.648438 13.441406 15.644531 L 14.03125 15.644531 L 14.03125 10.871094 C 14.035156 10.480469 13.976562 10.09375 13.859375 9.722656 C 13.753906 9.394531 13.582031 9.089844 13.351562 8.832031 C 13.121094 8.582031 12.835938 8.382812 12.523438 8.253906 C 12.164062 8.113281 11.78125 8.039062 11.394531 8.046875 C 10.84375 8.039062 10.296875 8.140625 9.789062 8.339844 C 9.285156 8.550781 8.828125 8.851562 8.4375 9.230469 L 8.675781 9.652344 C 8.71875 9.71875 8.773438 9.777344 8.839844 9.828125 C 8.90625 9.875 8.988281 9.898438 9.070312 9.894531 C 9.199219 9.890625 9.320312 9.851562 9.417969 9.773438 C 9.523438 9.699219 9.667969 9.609375 9.835938 9.503906 C 10.019531 9.390625 10.210938 9.300781 10.410156 9.230469 C 10.675781 9.144531 10.957031 9.101562 11.238281 9.109375 Z M 3.945312 5.757812 C 3.871094 5.753906 3.796875 5.777344 3.742188 5.828125 C 3.6875 5.875 3.652344 5.9375 3.640625 6.007812 L 3.335938 8.316406 L 2.097656 8.472656 L 2.097656 8.996094 C 2.089844 9.078125 2.121094 9.15625 2.179688 9.214844 C 2.238281 9.261719 2.308594 9.285156 2.382812 9.285156 L 3.292969 9.285156 L 3.292969 13.855469 C 3.257812 14.371094 3.429688 14.882812 3.773438 15.277344 C 4.144531 15.621094 4.644531 15.800781 5.152344 15.769531 C 5.496094 15.769531 5.832031 15.710938 6.152344 15.589844 C 6.460938 15.480469 6.742188 15.308594 6.980469 15.09375 L 6.59375 14.464844 C 6.558594 14.394531 6.488281 14.347656 6.40625 14.339844 C 6.355469 14.34375 6.308594 14.363281 6.269531 14.394531 C 6.214844 14.433594 6.152344 14.476562 6.078125 14.515625 C 5.996094 14.566406 5.90625 14.605469 5.8125 14.640625 C 5.699219 14.679688 5.574219 14.695312 5.453125 14.695312 C 5.230469 14.703125 5.015625 14.621094 4.855469 14.464844 C 4.6875 14.273438 4.601562 14.019531 4.621094 13.765625 L 4.621094 9.28125 L 6.8125 9.28125 L 6.8125 8.332031 L 4.621094 8.332031 L 4.621094 5.757812 Z M 10.589844 14.84375 C 10.421875 14.84375 10.257812 14.824219 10.097656 14.78125 C 9.953125 14.742188 9.820312 14.675781 9.703125 14.582031 C 9.589844 14.488281 9.5 14.367188 9.4375 14.230469 C 9.371094 14.070312 9.339844 13.898438 9.34375 13.722656 C 9.339844 13.523438 9.402344 13.324219 9.523438 13.164062 C 9.679688 12.972656 9.882812 12.820312 10.113281 12.726562 C 10.453125 12.585938 10.804688 12.488281 11.167969 12.429688 C 11.683594 12.347656 12.207031 12.296875 12.730469 12.285156 L 12.730469 13.835938 C 12.589844 13.984375 12.4375 14.125 12.273438 14.253906 C 12.117188 14.375 11.953125 14.480469 11.777344 14.570312 C 11.605469 14.660156 11.421875 14.726562 11.230469 14.773438 C 11.019531 14.820312 10.804688 14.84375 10.589844 14.84375 Z M 10.589844 14.84375"></path></svg>