<?xml version="1.0" encoding="UTF-8"?>
<svg xmlns="http://www.w3.org/2000/svg" xmlns:xlink="http://www.w3.org/1999/xlink" viewBox="0 0 16 19" version="1.1">
<g id="surface1">
<path style=" stroke:none;fill-rule:nonzero;fill:currentColor;fill-opacity:1;" d="M 5.742188 15.042969 C 5.726562 15.46875 5.363281 15.804688 4.921875 15.804688 C 4.484375 15.804688 4.121094 15.46875 4.101562 15.042969 L 4.101562 7.125 C 4.121094 6.699219 4.484375 6.363281 4.921875 6.363281 C 5.363281 6.363281 5.726562 6.699219 5.742188 7.125 Z M 9.027344 15.042969 C 9.007812 15.46875 8.648438 15.804688 8.207031 15.804688 C 7.765625 15.804688 7.402344 15.46875 7.386719 15.042969 L 7.386719 7.125 C 7.410156 6.703125 7.769531 6.375 8.207031 6.375 C 8.640625 6.375 9 6.703125 9.023438 7.125 Z M 12.308594 15.042969 C 12.292969 15.46875 11.929688 15.804688 11.488281 15.804688 C 11.046875 15.804688 10.683594 15.46875 10.667969 15.042969 L 10.667969 7.125 C 10.652344 6.832031 10.804688 6.554688 11.066406 6.402344 C 11.324219 6.25 11.652344 6.25 11.910156 6.402344 C 12.171875 6.554688 12.324219 6.832031 12.308594 7.125 Z M 16.410156 1.582031 L 16.410156 3.167969 L 0 3.167969 L 0 1.582031 L 4.683594 1.582031 C 5.425781 1.582031 6.023438 0.710938 6.023438 0 L 10.386719 0 C 10.386719 0.710938 10.984375 1.582031 11.722656 1.582031 Z M 13.949219 4.75 L 13.949219 17.417969 L 2.460938 17.417969 L 2.460938 4.75 L 0.820312 4.75 L 0.820312 19 L 15.589844 19 L 15.589844 4.75 Z M 13.949219 4.75 "/>
</g>
</svg>
