<?xml version="1.0" encoding="UTF-8"?>
<svg viewBox="0 0 20 15" version="1.1" xmlns="http://www.w3.org/2000/svg"><path d="M 13.332031 10.832031 L 10.832031 10.832031 L 10.832031 15 L 9.167969 15 L 9.167969 10.832031 L 6.667969 10.832031 L 10 7.5 Z M 16.234375 5.910156 C 16.054688 2.597656 13.316406 0.0078125 10 0.0078125 C 6.683594 0.0078125 3.945312 2.597656 3.765625 5.910156 C 1.441406 6.339844 -0.175781 8.46875 0.0390625 10.828125 C 0.25 13.183594 2.21875 14.992188 4.582031 15 L 7.5 15 L 7.5 13.332031 L 4.582031 13.332031 C 2.972656 13.332031 1.667969 12.027344 1.667969 10.417969 C 1.667969 8.082031 3.734375 7.222656 5.359375 7.316406 C 5.222656 3.800781 7.199219 1.667969 10 1.667969 C 12.878906 1.667969 14.910156 4 14.640625 7.316406 C 16.09375 7.277344 18.332031 7.941406 18.332031 10.417969 C 18.332031 12.027344 17.027344 13.332031 15.417969 13.332031 L 12.5 13.332031 L 12.5 15 L 15.417969 15 C 17.78125 14.992188 19.75 13.183594 19.960938 10.828125 C 20.175781 8.46875 18.558594 6.339844 16.234375 5.910156 Z M 16.234375 5.910156"></path></svg>