<?xml version="1.0" encoding="UTF-8"?>
<svg xmlns="http://www.w3.org/2000/svg" xmlns:xlink="http://www.w3.org/1999/xlink" viewBox="0 0 6 20" version="1.1">
<path style=" stroke:none;fill-rule:evenodd;fill:rgb(41.960784%,52.54902%,60.784314%);fill-opacity:1;" d="M 3.085938 14 C 4.789062 14 6.171875 15.34375 6.171875 17 C 6.171875 18.65625 4.789062 20 3.085938 20 C 1.382812 20 0 18.65625 0 17 C 0 15.34375 1.382812 14 3.085938 14 Z M 3.085938 15 C 4.222656 15 5.144531 15.894531 5.144531 17 C 5.144531 18.105469 4.222656 19 3.085938 19 C 1.949219 19 1.027344 18.105469 1.027344 17 C 1.027344 15.894531 1.949219 15 3.085938 15 Z M 3.085938 7 C 4.789062 7 6.171875 8.34375 6.171875 10 C 6.171875 11.65625 4.789062 13 3.085938 13 C 1.382812 13 0 11.65625 0 10 C 0 8.34375 1.382812 7 3.085938 7 Z M 3.085938 8 C 4.222656 8 5.144531 8.894531 5.144531 10 C 5.144531 11.105469 4.222656 12 3.085938 12 C 1.949219 12 1.027344 11.105469 1.027344 10 C 1.027344 8.894531 1.949219 8 3.085938 8 Z M 3.085938 0 C 4.789062 0 6.171875 1.34375 6.171875 3 C 6.171875 4.65625 4.789062 6 3.085938 6 C 1.382812 6 0 4.65625 0 3 C 0 1.34375 1.382812 0 3.085938 0 Z M 3.085938 1 C 4.222656 1 5.144531 1.894531 5.144531 3 C 5.144531 4.105469 4.222656 5 3.085938 5 C 1.949219 5 1.027344 4.105469 1.027344 3 C 1.027344 1.894531 1.949219 1 3.085938 1 Z M 3.085938 1 "/>
</svg>
